<svg xmlns="http://www.w3.org/2000/svg">
<defs>
<font id="UTMAzuki" horiz-adv-x="1222" >
  <font-face 
    font-family="UTMAzuki"
    font-weight="400"
    font-stretch="normal"
    units-per-em="2048"
    panose-1="2 4 6 3 5 5 6 2 2 4"
    ascent="1638"
    descent="-410"
    x-height="903"
    cap-height="1282"
    bbox="-20 -475 4942 2045"
    underline-thickness="109"
    underline-position="-143"
    unicode-range="U+0020-2026"
  />
<missing-glyph horiz-adv-x="5040" 
d="M3351 2045h10q37 -10 37 -52q0 -12 -32 -57h-28q0 24 28 54l2 10q-5 13 -10 15h-9q-8 0 -10 -19h-30q6 49 42 49zM2019 2016l29 -31q0 -16 -40 -30h-19l-59 12l-11 -12l-28 25q11 29 43 29h11l42 -11h2q10 0 30 18zM468 1980h142v-60h-94v-75h89v-59h-89v-129l-5 -5h-49
v323zM1155 1980h43l6 -5v-78h30v-52h-30v-188l-6 -5h-49v193h-25v52h25v78zM1621 1980h42l4 -5v-94h3q23 24 54 24h2q58 0 83 -71l2 -39v-143h-52v115q0 80 -42 80h-7q-43 0 -43 -86v-109h-51v323zM2200 1980h49l5 -5v-222q10 -51 45 -51q44 7 44 59v214l5 5h49v-216
q0 -85 -66 -112q-15 -8 -35 -8q-47 0 -82 55q-14 24 -14 57v224zM2435 1980h159v-60h-56v-268h-53v268h-55v55zM2621 1980h71q7 -4 83 -251h2l80 251h73v-328h-54v242h-2l-74 -242h-44q-4 0 -58 182l-19 60h-3v-242h-55v328zM3760 1980h52v-328h-45l-5 5v11l3 2l-3 14
q-29 -40 -78 -40q-67 0 -100 91l-5 39v3q0 94 92 125l23 3q35 0 63 -32h3v107zM2057 1928h36l4 -6v-49h-45v-221h-48v23q-23 -31 -59 -31q-89 14 -89 97v156h51v-104q0 -79 26 -86l18 -5h6q26 0 39 36l3 26v133h53v25zM3476 1928v-55h-31v-221h-47v25h-2q-15 -33 -57 -33
q-68 0 -86 78l-3 29v146h52v-120q0 -50 19 -68l21 -7h9q42 0 42 69v126h27q4 0 4 28l3 3h49zM758 1905q68 0 103 -77q9 -18 12 -54q0 -88 -90 -127l-32 -3q-63 0 -101 73q-12 22 -12 52v10q0 94 101 126h19zM1011 1905h3q74 0 83 -101v-152h-51v119q0 76 -42 76h-5
q-44 0 -44 -76v-119h-52v245h46v-21q30 29 62 29zM1466 1905h7q72 0 105 -89h-60q-16 31 -42 31h-17q-53 -14 -53 -61l-3 -15q12 -69 61 -69h9q22 0 47 27h40l2 3h3l2 -3l2 3l3 -3l2 3l2 -7q-33 -81 -110 -81q-76 0 -110 94l-4 36v3q0 85 77 120q15 8 37 8zM3141 1905h2

<glyph glyph-name=".notdef" horiz-adv-x="5040" 
d="M3351 2045h10q37 -10 37 -52q0 -12 -32 -57h-28q0 24 28 54l2 10q-5 13 -10 15h-9q-8 0 -10 -19h-30q6 49 42 49zM2019 2016l29 -31q0 -16 -40 -30h-19l-59 12l-11 -12l-28 25q11 29 43 29h11l42 -11h2q10 0 30 18zM468 1980h142v-60h-94v-75h89v-59h-89v-129l-5 -5h-49
v323zM1155 1980h43l6 -5v-78h30v-52h-30v-188l-6 -5h-49v193h-25v52h25v78zM1621 1980h42l4 -5v-94h3q23 24 54 24h2q58 0 83 -71l2 -39v-143h-52v115q0 80 -42 80h-7q-43 0 -43 -86v-109h-51v323zM2200 1980h49l5 -5v-222q10 -51 45 -51q44 7 44 59v214l5 5h49v-216
q0 -85 -66 -112q-15 -8 -35 -8q-47 0 -82 55q-14 24 -14 57v224zM2435 1980h159v-60h-56v-268h-53v268h-55v55zM2621 1980h71q7 -4 83 -251h2l80 251h73v-328h-54v242h-2l-74 -242h-44q-4 0 -58 182l-19 60h-3v-242h-55v328zM3760 1980h52v-328h-45l-5 5v11l3 2l-3 14
q-29 -40 -78 -40q-67 0 -100 91l-5 39v3q0 94 92 125l23 3q35 0 63 -32h3v107zM2057 1928h36l4 -6v-49h-45v-221h-48v23q-23 -31 -59 -31q-89 14 -89 97v156h51v-104q0 -79 26 -86l18 -5h6q26 0 39 36l3 26v133h53v25zM3476 1928v-55h-31v-221h-47v25h-2q-15 -33 -57 -33
q-68 0 -86 78l-3 29v146h52v-120q0 -50 19 -68l21 -7h9q42 0 42 69v126h27q4 0 4 28l3 3h49zM758 1905q68 0 103 -77q9 -18 12 -54q0 -88 -90 -127l-32 -3q-63 0 -101 73q-12 22 -12 52v10q0 94 101 126h19zM1011 1905h3q74 0 83 -101v-152h-51v119q0 76 -42 76h-5
q-44 0 -44 -76v-119h-52v245h46v-21q30 29 62 29zM1466 1905h7q72 0 105 -89h-60q-16 31 -42 31h-17q-53 -14 -53 -61l-3 -15q12 -69 61 -69h9q22 0 47 27h40l2 3h3l2 -3l2 3l3 -3l2 3l2 -7q-33 -81 -110 -81q-76 0 -110 94l-4 36v3q0 85 77 120q15 8 37 8zM3141 1905h2
q49 0 70 -60v-14h-52q0 16 -16 16h-4q-14 0 -19 -13v-13q0 -9 68 -35q30 -19 30 -59q0 -58 -61 -80l-23 -3q-76 12 -76 83h54q0 -20 27 -25h4q19 0 24 23q0 22 -68 44q-34 27 -34 59q0 66 74 77zM4203 1905q55 0 77 -63q7 -18 7 -65v-125h-52v112q0 83 -40 83h-11
q-33 0 -40 -54v-141h-52v5h-2l2 2v238h47v-21q25 29 64 29zM4432 1905h5q40 0 69 -40v18l-3 3l3 11h47v-208q0 -97 -85 -132l-33 -4h-7q-70 0 -104 80h59q24 -22 45 -23h13q22 0 43 22q15 13 22 52h-3q-32 -40 -73 -40q-57 0 -96 70q-10 18 -14 63q0 88 87 125zM3851 1897
h53v-136q6 -59 40 -59h7q46 0 46 93v102h51v-245h-47l-3 10h3l-3 3v5l3 2v3h-4q0 -23 -57 -31h-3q-59 0 -84 75l-2 85v93zM690 1771q10 -69 63 -69h7q59 14 59 65v15q-13 65 -59 65h-5q-58 0 -65 -76zM3630 1774q13 -72 61 -72h5q58 0 66 75q0 49 -51 70h-22q-37 0 -56 -57z
M4374 1774q8 -72 65 -72h5q59 12 59 72q0 61 -59 73h-14q-56 -16 -56 -62v-11zM3928 1620h52v-57h-52v57zM1054 1402q43 -11 43 -49v-4q0 -17 -32 -60h-28q0 25 31 57v7q0 12 -7 15h-12q-10 -4 -10 -19h-28v6q0 32 33 44zM3349 1339q92 0 138 -99h-60q-37 42 -80 42
q-55 0 -87 -68q-10 -22 -10 -47q0 -78 81 -110l18 -1q36 0 75 39h61q-44 -97 -138 -97q-93 0 -141 112q-10 31 -10 62q0 97 90 152q29 15 63 15zM3664 1339q57 0 103 -47q46 -51 46 -115v-20q0 -89 -91 -146q-33 -13 -63 -13q-89 0 -138 101q-13 33 -13 60v18q0 98 98 151
q29 11 58 11zM2261 1337h2l47 -11h3q11 0 26 11l18 -36q-18 -19 -35 -19h-3l-54 10l-20 -7l-20 36q18 16 36 16zM716 1334h19q118 0 129 -26q25 -26 25 -62q-10 -57 -30 -57v-6q47 -23 47 -66v-18q0 -63 -69 -88l-54 -5h-67v328zM2550 1334h53v-217q6 -61 45 -61q29 0 44 39
l3 30v203l4 6h45l5 -6v-171q0 -118 -40 -133q-24 -26 -64 -26q-55 0 -91 76l-4 54v206zM2805 1334h59q4 0 122 -237h4v237h50l4 -6v-322h-58q-29 48 -125 238h-3v-238h-53v328zM3101 1334h54v-328h-54v328zM3859 1334h8q155 0 174 -40q23 -11 47 -75l4 -36v-11l3 -2
q0 -94 -82 -149q-35 -15 -99 -15h-55v328zM4141 1334h153v-60h-103v-75h101v-57h-101v-74l4 -5h99v-57h-157v322zM3563 1175v-10q0 -76 79 -108l19 -1q68 0 96 86l3 20v15q0 61 -60 94q-12 8 -39 11q-66 0 -96 -83zM770 1274v-67h9q54 0 54 28l3 14q-11 25 -29 25h-37z
M3912 1274v-206l2 -3v-2q104 0 122 76l2 15v29q0 34 -32 68q-25 23 -78 23h-16zM1041 1259h5q38 0 71 -40v32h49v-245h-49v32q-36 -40 -80 -40q-75 0 -101 97l-5 36q0 89 85 125zM1314 1259h3q74 0 83 -102v-151h-51v128q0 67 -42 67h-10q-34 0 -39 -62v-133h-52v245h47v-21
q28 29 61 29zM1543 1259h5q45 0 71 -40v32h47v-219q0 -95 -104 -126h-16q-74 0 -108 82h59q26 -25 44 -25h14q52 0 64 77q-33 -42 -76 -42q-60 0 -101 81l-7 44v16q0 79 85 117zM1912 1259h2q43 0 61 -37h2q32 37 69 37h4q57 0 79 -55q8 -25 8 -45v-153h-52v138q0 44 -23 55
l-12 2h-15q-32 0 -36 -65v-130h-52v136q0 59 -43 59h-8q-32 0 -36 -57v-138h-54v245h50v-21h2q6 24 54 29zM2282 1259q47 0 75 -42v34h47v-245h-47v32q-36 -40 -78 -40q-74 0 -102 92l-6 41q0 90 85 125zM985 1117q0 -48 61 -61h4q45 0 62 46l3 15v22q-12 62 -57 62h-14
q-41 0 -59 -57v-27zM1487 1128q0 -48 43 -68l18 -4h5q47 0 63 57v23q-11 65 -58 65h-12q-50 0 -59 -73zM2225 1131v-14q15 -61 57 -61h14q58 12 58 64v11q0 45 -37 65l-18 5h-10q-64 -8 -64 -70zM770 1150v-82q0 -5 7 -5q77 0 77 45q0 34 -47 42h-37zM2966 753l24 -28
l-51 -55q-18 12 -27 26zM1524 727l85 -54q0 -15 -21 -42l-87 54q18 41 23 42zM2850 693h38l55 -60h-54l-21 26l-23 -26h-54q54 60 59 60zM3422 693h40l56 -60h-54l-24 26h-1q0 -5 -19 -26h-54zM622 685h52q8 -4 47 -137l34 -110q9 8 34 100l48 147h54v-2l-112 -326h-44z
M1159 685h51v-54h-51v54zM1354 685h46l6 -5v-323h-52v328zM2317 685h45l4 -5v-78h31v-52h-31v-193h-53v193h-26v52h26v78zM2425 685h52v-98h2q23 23 54 23h3q57 0 81 -71l3 -38v-144h-52v115q0 81 -39 81h-10q-42 0 -42 -87v-109h-52v328zM2664 685h52v-54h-52v54zM3028 685
h44l6 -5v-78h29v-52h-29v-193h-54v193h-27v52h27v78zM3234 685h52v-328h-52v328zM3957 685h52v-328h-52v328zM4316 685h51v-54h-51v54zM1555 610h5q83 0 110 -102l3 -23v-11q0 -83 -85 -120l-35 -5q-76 0 -111 97l-4 32q0 97 93 130zM1811 610h4q53 0 78 -60q7 -25 7 -81
v-112h-54v146q-7 50 -37 50h-10q-38 0 -42 -57v-139h-54v245h49v-21q26 29 59 29zM2046 610h4q45 0 63 -39h3v31h49v-206q0 -102 -89 -135l-28 -3h-5q-73 0 -106 81h52l37 -20l15 -3h14q50 0 61 72q-33 -39 -73 -39q-62 0 -98 76q-11 23 -12 60q0 85 86 123zM2866 610h2
q82 0 111 -104l2 -25l-2 -27h-172q15 -45 45 -45l14 -3q29 0 49 22h57v-3q-35 -76 -108 -76q-77 0 -111 97l-1 28v8q0 49 32 89q34 39 82 39zM3429 610h5q41 0 70 -39h2v31h47v-245h-47v31h-2q-35 -39 -77 -39q-71 0 -101 89l-5 36v14q0 86 84 120zM3711 610h7
q88 0 107 -128l-2 -1v-15q0 -65 -66 -106q-21 -11 -46 -11q-34 0 -64 32v-99l-5 -5h-49v325h49v-28q31 36 69 36zM4151 610q44 0 75 -39v31h49v-245h-49v31q-35 -39 -77 -39q-92 0 -108 132q0 84 73 121q15 8 37 8zM922 602h50v-136q3 -60 42 -60h5q44 0 44 87v109h52v-245
h-47v24h-5q0 -23 -56 -32h-3q-55 0 -82 68q-4 35 -4 99v81zM1159 602h51v-245h-51v245zM2664 602h52v-245h-52v245zM4316 602h51v-245h-51v245zM1492 488v-16q13 -66 59 -66h4q59 0 66 76q-13 71 -59 71h-11q-59 -16 -59 -65zM1987 472q15 -66 59 -66h11q48 0 59 75v1
q-13 71 -59 71h-14q-39 0 -56 -57v-24zM2805 506h122v2q-16 45 -59 45h-7q-35 0 -56 -47zM3373 474q13 -68 61 -68h5q52 0 65 63v12q-10 72 -57 72h-16q-56 -14 -56 -63zM3642 478q12 -72 61 -72h3q50 0 65 60v22q0 43 -49 65h-22q-47 0 -58 -72v-3zM4095 472q10 -66 66 -66
q43 0 61 48l2 15v16q0 54 -52 68h-18q-42 0 -59 -60v-21zM3416 321h51v-52h-51v52zM4137 321h51v-52h-51v52zM2733 133h4q35 0 43 -50v-2q0 -16 -24 -41l-10 -17h-28q0 25 28 56l3 2v2q-3 19 -9 19h-10q-8 0 -9 -19h-30q6 50 42 50zM1546 116l52 -60l-26 -19l-52 52zM352 79
h4q75 -48 85 -60l-20 -37q-88 49 -88 58zM3490 79l86 -58l-18 -39q-10 0 -91 55q15 36 23 42zM4578 76l19 -42l-91 -52l-20 39l92 58v-3zM1204 53h51v-19l5 -5h14v-36h-14l-5 -5v-279h-46v31q-34 -40 -81 -40q-72 0 -102 105l-3 26q0 102 101 131h14q33 0 66 -33v59l-6 5
h-43v36h49v24zM1480 45h40l56 -61h-53l-23 27l-23 -27h-53zM2641 45h33q12 0 63 -61h-54l-23 27q-19 -21 -19 -27h-58v4zM49 37h160v-60h-56v-268h-50l-4 5v245l2 3v2l-2 2l2 3l-2 2l2 3l-2 3h-54v54zM699 37h47v-73l2 -2l-2 -3v-3l2 -2l-2 -3v-3l2 -2v-2l-2 -3l2 -3h3
q17 24 51 24h3q53 0 77 -58q7 -17 7 -42v-153h-52v127q0 68 -40 68h-8q-43 0 -43 -86v-109h-52v322zM1297 37h47l5 -6v-49h-52v55zM1987 37h52v-198l70 115h62l-78 -118l90 -125v-2h-70q-10 22 -74 115v-115h-52v328zM2271 37v-99q24 24 53 24q57 0 80 -56q10 -19 10 -77
v-120h-54v133q0 62 -41 62h-11q-31 0 -37 -55v-140h-53v314l-1 3v3l1 2l-1 3l1 3h53zM2458 37h51v-55h-51v55zM3148 37h51v-108q27 33 68 33h3q75 0 105 -94l5 -37q0 -75 -64 -120q-30 -11 -49 -11q-41 0 -72 40v-31h-47v328zM4275 37h52v-99h2q23 24 54 24h3q60 0 82 -74
l2 -41v-138h-52v111q0 82 -32 82l-10 2h-12q-37 0 -37 -80v-115h-52v328zM329 -38h3v-58h-5q-42 0 -42 -57v-138h-53v245h47v-21q18 29 50 29zM564 -38q71 0 86 -87v-166h-51v136q-6 59 -41 59h-6q-45 0 -45 -84v-111h-52v245h50v-21q25 29 59 29zM1504 -38q72 0 105 -94
l5 -39q-2 -24 -7 -24h-169q17 -47 62 -47q24 0 48 21h57q-33 -79 -108 -79q-82 0 -113 105v37q0 81 89 117zM2657 -38h5q77 0 107 -97l3 -26v-21l-3 -13h-170q18 -47 53 -47h12q21 0 42 21h59q-34 -79 -105 -79q-84 0 -115 102l-2 29q0 93 91 128zM2915 -38h4q54 0 78 -60
q7 -25 7 -82v-111h-54v138q0 48 -35 57h-11q-38 0 -43 -57v-138h-54v245h50v-21q25 29 58 29zM3508 -38h6q40 0 70 -40h2v32h47v-245h-47v31h-2q-34 -40 -78 -40q-71 0 -101 90l-4 37v12q0 82 77 117q11 6 30 6zM3781 -38h4q62 0 82 -78l3 -84v-91h-54v138q0 48 -38 57h-9
q-38 0 -42 -52v-143h-54v245h49v-21q26 29 59 29zM4133 -38h1q74 0 104 -93l4 -40q0 -88 -84 -126l-25 -3q-41 0 -68 34v-106h-52v326h47v-29q30 37 73 37zM4714 -38h5q34 0 63 -37q27 37 69 37h6q56 0 79 -66l6 -51v-136h-52v122q0 73 -39 73h-7q-35 0 -41 -50v-140l-5 -5
h-48v140q0 42 -31 55h-17q-40 0 -40 -77v-118h-51v245h47v-21q22 29 56 29zM359 -46h49l5 -6v-234l-5 -5h-49v245zM1297 -46h52v-245h-52v245zM1649 -46h52v-136q4 -60 43 -60h4q44 0 44 81v115h52v-245h-47v24h-5q-12 -33 -59 -33q-52 0 -79 63q-5 12 -5 34v157zM2458 -46
h51v-245h-51v245zM4515 -46h51v-245h-51v245zM1077 -169q0 -53 51 -73h12q54 0 66 66v10q0 53 -54 70h-17q-38 0 -58 -57v-16zM1438 -143h122q-18 47 -53 47h-7q-43 0 -62 -44v-3zM2599 -143h122q-21 47 -54 47h-7q-46 0 -61 -47zM3196 -158v-11q10 -73 61 -73h5q64 8 64 71
v5q0 45 -38 65l-18 5h-14q-60 -14 -60 -62zM3452 -173q14 -69 62 -69h11q41 0 59 60v13q-8 73 -56 73h-17q-47 0 -59 -73v-4zM4062 -158v-22q0 -47 59 -62h9q50 0 61 76q-13 70 -58 70h-15q-56 -17 -56 -62z" />
    <glyph glyph-name=".null" horiz-adv-x="0" 
 />
    <glyph glyph-name="nonmarkingreturn" horiz-adv-x="571" 
 />
    <glyph glyph-name="space" unicode=" " horiz-adv-x="528" 
 />
    <glyph glyph-name="exclam" unicode="!" horiz-adv-x="505" 
d="M252 -12q-2 0 -58 26q-43 17 -86 33q-57 23 -57 57q0 46 61 84q56 37 101 37q51 0 109.5 -36.5t58.5 -86.5q0 -45 -51 -67q-60 -25 -65 -36t-13 -11zM53 1102q0 147 236 147q165 0 165 -43q0 -2 -2 -6q-30 -76 -45 -285q-20 -294 -26 -346q-25 -180 -86 -227
q-45 -35 -140 -35q-12 0 -18 2q-35 6 -35 170q0 219 -12 330q-2 20 -23 147q-14 88 -14 146z" />
    <glyph glyph-name="quotedbl" unicode="&#x22;" horiz-adv-x="739" 
d="M221 780q-37 0 -64 117q-8 29 -59 164q-47 129 -47 137q0 55 154 55q137 0 137 -79q0 -70 -45 -185q-51 -133 -60 -180q-6 -29 -16 -29zM397 1208q0 56 154 56q137 0 137 -80q0 -70 -45 -185q-51 -133 -60 -180q-6 -28 -16 -28q-35 0 -63 116q-9 29 -60 164
q-47 129 -47 137z" />
    <glyph glyph-name="numbersign" unicode="#" horiz-adv-x="1161" 
d="M760 1024q24 86 47 135q39 88 84 107q24 10 61 10q39 0 90 -16q68 -21 68 -52q0 -12 -21 -24q-73 -45 -125 -154q70 -4 95 -14q36 -21 36 -82q0 -49 -26 -105q-33 -69 -76 -69q-14 0 -53 8q-49 6 -60 8q-24 -110 -55 -229q94 0 121 -8q59 -19 59 -90q0 -43 -22 -89
q-27 -53 -66 -53q-12 0 -61 8q-55 9 -66 9q11 -142 47 -218q5 -10 5 -16q0 -29 -41 -43q-31 -12 -64 -12q-137 0 -137 158q0 57 12 145q-139 8 -248 8q-22 -119 -22 -192q0 -13 3 -33.5t3 -30.5q0 -33 -49 -57q-41 -19 -78 -19q-96 0 -96 88q0 56 51 232q-41 -8 -84 65
q-41 68 -41 111q0 22 14 22q6 0 17 -4q26 -12 104 -10h43q29 92 82 279q-10 0 -31.5 -5.5t-31.5 -5.5q-39 0 -74 80q-31 70 -31 115q0 35 19 35q4 0 14 -4q25 -11 104 -11h82q17 89 17 138v20q-2 12 -2 19q0 98 137 98q57 0 112 -25q68 -30 68 -80q0 -43 -76 -155
q74 6 142 8zM649 541q10 53 53 250q-112 6 -209 8q-45 -99 -90 -273z" />
    <glyph glyph-name="dollar" unicode="$" horiz-adv-x="1087" 
d="M479 678q-190 78 -264 125q-164 100 -164 215q0 229 401 264q-12 47 -12 59q0 56 57 84q48 23 109 23q135 0 135 -70q0 8 -41 -104q109 -17 152 -41q73 -39 73 -127q0 -76 -32 -76q-8 0 -17 8q-73 66 -221 72q-22 -113 -35 -270q181 -101 256 -160q160 -123 160 -236
q0 -125 -156 -245q-110 -86 -268 -152v-29q4 -159 -31 -251q-8 -23 -14 -23q-8 0 -6 23q0 79 -6 79q-8 0 -21.5 -7t-19.5 -7q-31 0 -49 68q-15 47 -17 92q-92 -27 -125 -27q-71 0 -132.5 67.5t-61.5 139.5q0 23 12 23q4 0 14 -7q23 -14 97 -14q104 0 202 29v12
q-43 -8 -84 -8q-129 0 -186 45q47 -19 119 -19q90 0 154 21zM600 319q145 91 145 191q0 49 -139 113q-6 -146 -6 -238v-66zM481 1098q-139 -29 -139 -72q0 -33 143 -113v45q0 68 -4 140z" />
    <glyph glyph-name="percent" unicode="%" horiz-adv-x="1503" 
d="M981 659q104 58 200 58q142 0 213 -131q58 -105 58 -256q0 -148 -74 -254q-84 -123 -223 -123q-162 0 -254 125q-84 112 -84 278q0 74 18 148q25 94 70 127q29 22 76 28zM1313 422v2q-50 205 -160 205q-23 0 -47 -8q2 -11 -6 -27q-48 -86 -48 -229q0 -224 66 -312
q20 -4 37 -4q106 0 106 242q0 98 -24 182q-33 119 -99 129q64 0 113 -61q39 -52 57 -121h3q2 0 2 2zM561 35q-31 -41 -125 -41q-109 0 -109 61q0 70 283 541q297 496 332 653q18 80 104 80q58 0 140 -39q96 -45 96 -96q0 -14 -17 -29q-24 -18 -71 -59q-131 -123 -318 -440
q-6 -13 -108 -179q-119 -223 -158 -444v8q0 168 92 402q-133 -269 -141 -418zM389 569q-162 0 -254 125q-84 111 -84 279q0 74 18 147q25 92 70 127q29 21 76 27q104 57 201 57q141 0 213 -129q57 -104 57 -258q0 -145 -74 -254q-84 -121 -223 -121zM340 1237q2 -10 -6 -27
q-47 -84 -47 -231q0 -221 65 -309q16 -4 31 -4q137 0 137 194q0 109 -33 223q-45 158 -125 158q-10 0 -22 -4zM250 1186q-58 -101 -58 -221q0 -125 64 -197q-49 109 -49 211q0 90 43 207z" />
    <glyph glyph-name="ampersand" unicode="&#x26;" horiz-adv-x="1415" 
d="M1274 322q8 0 23.5 5t23.5 5q43 0 43 -70q0 -84 -51 -160q-60 -84 -138 -84q-96 0 -354 199q-225 -262 -465 -262q-143 0 -227 98q-78 92 -78 238q0 135 63 256q68 129 183 182q-140 191 -140 320q0 32 11 61q76 229 358 229q51 0 105 -8q8 4 16 4q10 0 28.5 -7t28.5 -7
q11 0 27 5t27 5q49 0 108 -47q12 -10 12 -31q0 -30 -18 -91.5t-18 -94.5v-23q2 -14 2 -22q0 -27 -18.5 -67t-39.5 -48q-8 2 -30 -22h-3l-2 2q-2 10 -8 55q-6 57 -28 172q-15 47 -62 107q-143 -4 -180 -93q-6 -12 -6 -28q0 -96 166 -287q112 -133 241 -248q56 142 60 348
q12 -49 12 -110q0 -131 -43 -260l4 -4q70 172 70 331q0 11 -2 31.5t-2 30.5q0 29 24 29q47 0 82 -47.5t35 -94.5q0 -125 -121 -350q193 -147 281 -147zM366 223q0 -106 66 -106q94 0 262 200q-139 119 -250 238q-78 -217 -78 -332z" />
    <glyph glyph-name="quotesingle" unicode="'" horiz-adv-x="393" 
d="M221 780q-37 0 -64 117q-8 29 -59 164q-47 129 -47 137q0 55 154 55q137 0 137 -79q0 -70 -45 -185q-51 -133 -60 -180q-6 -29 -16 -29z" />
    <glyph glyph-name="parenleft" unicode="(" horiz-adv-x="663" 
d="M51 442v43q4 168 59 344q64 193 164 301q37 44 107.5 92t154.5 48q76 0 76 -49q0 -33 -49 -97q-186 -241 -186 -673q0 -461 164 -766q10 -21 10 -37q0 -39 -37 -64.5t-78 -25.5q-61 0 -143 104q-121 152 -185 369q-59 202 -57 411zM323 557q0 313 93 410
q-119 -60 -119 -445q0 -166 35 -346q36 -209 102 -334q-111 217 -111 715z" />
    <glyph glyph-name="parenright" unicode=")" horiz-adv-x="677" 
d="M184 1268q62 0 98 -29q152 -121 250 -350q94 -217 94 -422q0 -191 -22 -315q-27 -136 -96 -299q-90 -213 -191 -283q119 164 170 342q29 106 62 369q-23 -123 -58 -244q-45 -148 -104 -281q-96 -207 -170 -207q-37 0 -74 31t-37 68q0 14 11 24q106 144 161 391
q47 207 47 426q0 404 -165 603q-27 30 -80 75q-29 23 -29 39q0 31 53 49q41 13 80 13z" />
    <glyph glyph-name="asterisk" unicode="*" horiz-adv-x="952" 
d="M475 850q16 12 151 108q111 78 130 107q4 8 12 8q37 0 85 -71.5t48 -112.5q0 -82 -272 -82q-74 0 -134 6q68 -22 170 -92q121 -84 121 -135q0 -41 -49 -82t-90 -41q-25 0 -33 24q-16 54 -74.5 149t-74.5 146q-13 -84 -92 -303q-15 -41 -60 -41t-100 35q-62 37 -62 78
q0 74 275 248q-43 -6 -113 -6q-176 0 -233 20q-29 10 -29 111q0 47 10 104q13 82 37 82q6 0 12 -10q47 -49 166 -127q127 -84 172 -127q-118 239 -118 350q0 74 151 74q111 0 111 -62q0 -43 -52 -172q-57 -149 -65 -186zM239 975q101 -109 205 -141q-28 16 -205 141z" />
    <glyph glyph-name="plus" unicode="+" horiz-adv-x="1044" 
d="M547 563q0 -188 49 -250q8 -8 8 -16q0 -37 -109 -37q-71 0 -90.5 25.5t-19.5 97.5q0 61 16 203q-51 2 -92 2q-121 0 -156 -13q-6 -2 -12 -2q-35 0 -63 60q-27 51 -27 90q0 35 20 35q7 0 17 -4q18 -9 63 -9q-10 0 267 15q6 78 6 131q0 110 -31 160q-8 14 -8 22
q0 55 166 55q137 0 137 -34q0 -7 -6 -15q-99 -106 -123 -315q354 6 401 -23q33 -20 33 -61q0 -43 -31.5 -86t-70.5 -43q-60 0 -170 12q-127 15 -174 17v-17zM659 727q-47 0 -104 -16l-2 -11q51 9 84 9q55 0 313 -19q-209 37 -291 37z" />
    <glyph glyph-name="comma" unicode="," horiz-adv-x="395" 
d="M188 207q56 0 106 -55.5t50 -110.5q0 -23 -10 -41q-29 -49 -54 -111q-12 -30 -53 -110q-49 -92 -59 -92q-2 0 -2 14q0 31 4 91.5t4 90.5q0 76 -17 90q-32 27 -65 52q-41 30 -41 67q0 41 47 78t90 37z" />
    <glyph glyph-name="hyphen" unicode="-" horiz-adv-x="976" 
d="M526 805q287 0 338 -31q61 -39 61 -84q0 -26 -19 -51t-46 -25q-59 0 -184 22.5t-189 22.5q-55 0 -63 -2q358 -8 428 -75q-203 28 -303 28q-58 0 -353 -26h-8q-41 0 -89 65.5t-48 108.5q0 24 23 28q10 0 139 9q176 10 313 10z" />
    <glyph glyph-name="hyphen" unicode="&#x2010;" horiz-adv-x="976" 
d="M526 805q287 0 338 -31q61 -39 61 -84q0 -26 -19 -51t-46 -25q-59 0 -184 22.5t-189 22.5q-55 0 -63 -2q358 -8 428 -75q-203 28 -303 28q-58 0 -353 -26h-8q-41 0 -89 65.5t-48 108.5q0 24 23 28q10 0 139 9q176 10 313 10z" />
    <glyph glyph-name="period" unicode="." horiz-adv-x="432" 
d="M381 82q0 -45 -51 -68q-60 -24 -64 -32q-6 -15 -14 -15q-2 0 -58 29q-43 14 -86 31q-57 24 -57 59q0 8 2 10q21 47 66 79t94 32q51 0 109.5 -38t58.5 -87z" />
    <glyph glyph-name="slash" unicode="/" horiz-adv-x="776" 
d="M51 145q23 158 123 445l131 383q29 82 68 248q8 63 192 63q160 0 160 -51q0 -78 -203 -543l-258 -594q-8 -26 -16 -55q-13 -37 -28 -47t-46 -10q-100 0 -100 102q0 20 6 49q41 150 118 449q-59 -142 -147 -439z" />
    <glyph glyph-name="zero" unicode="0" horiz-adv-x="1124" 
d="M923 1108q150 -127 150 -502q0 -147 -33 -254q-39 -125 -121 -221q-94 -111 -209 -135q-55 -12 -141 -12q-84 0 -149 16q-23 -8 -45 -8q-78 0 -164 112q-66 86 -105 187q-55 147 -55 315q0 268 113 461q135 233 383 233q108 0 200 -45q178 -90 176 -147zM784 455
q6 -2 12 12q15 43 15 160q0 190 -62 327q-30 47 -71 146q-66 26 -117 26q-217 0 -217 -530q0 -174 20 -260q35 -158 142 -201q26 -10 43 -10q55 0 129 121q69 110 69 305q0 133 -37 416q80 -140 80 -422q0 -45 -6 -90z" />
    <glyph glyph-name="one" unicode="1" horiz-adv-x="651" 
d="M501 1274q84 0 84 -68q0 -14 -26 -340q-37 -465 -37 -684q0 -170 20 -215q-33 45 -43 65.5t-20 69.5q-23 99 -23 271q0 53 4 108q-14 -55 -14 -157q0 -117 10 -199q8 -70 19 -96q14 -35 57 -74q-109 33 -160 72q-65 51 -90 149q-29 119 -39 316q0 6 -10 321q0 68 -2 137
q-4 80 -16 137q-7 -4 -76 -65q-60 -53 -68 -53q-6 0 -6 8q0 61 29 153q34 115 77 115q19 0 37 -12q56 41 293 41z" />
    <glyph glyph-name="two" unicode="2" horiz-adv-x="1054" 
d="M434 193q188 34 264 53q187 47 238 102q6 6 10 6q29 0 45 -84q12 -61 12 -102q0 -184 -133 -184q-51 0 -166 18q-280 47 -362 47q-121 0 -168 -49q-33 -33 -47 -33q-35 0 -35 96q0 33 2 41q2 19 100 41q-65 9 -65 54q0 30 49 71q113 88 293 385q190 310 190 430
q0 72 -90 72q-65 0 -170 -43q-84 -98 -108 -182q-19 -58 -29 -162q-14 -117 -25 -164q-2 -8 -6 -14l-2 2q-10 22 -16 24q-14 5 -29 9q-31 12 -59 73q-27 56 -27 97q0 10 3 32.5t3 32.5q0 47 -27.5 138.5t-27.5 138.5q0 30 16 43q95 71 162 71q15 0 39.5 -8t38.5 -8
q16 0 44 10t40 10t25 -6q129 54 245 54q271 0 271 -213q0 -287 -318 -703q-104 -135 -180 -196zM309 168l94 18q152 156 295 402q-74 -105 -137 -182q-156 -191 -252 -238z" />
    <glyph glyph-name="three" unicode="3" horiz-adv-x="917" 
d="M866 1171q0 -63 -141 -288l-66 -103q2 31 -6 31q-12 0 -106 -109q118 -4 192 -61q49 -37 82 -133q31 -86 31 -158q0 -33 -8 -63q-29 -111 -176.5 -224.5t-264.5 -117.5q86 24 215 136t154 193q-287 -311 -465 -311q-25 0 -55 14q-43 23 -51 25q-15 6 -58 10
q-18 2 -36.5 24.5t-18.5 41.5q0 24 33 37q94 37 274 182q199 160 199 229q0 33 -56 60q-47 22 -86 24q-110 -80 -190 -80q-72 0 -82 45q-25 3 -25 17t43 35q13 14 33 28q96 74 172 160q105 119 105 199q0 96 -111 96q-55 0 -131 -33q-37 -57 -51 -153q-10 -82 -23 -164
q0 -6 -4 -12l-2 2q-6 14 -31.5 24t-46 54t-20.5 73q0 8 2 25.5t2 25.5q0 35 -20.5 103.5t-20.5 103.5q0 23 12 33q66 53 121 53q10 0 29.5 -6t30.5 -6q12 0 32.5 8t30.5 8q14 0 20 -8q146 66 277 66q88 0 162 -27q100 -37 100 -109z" />
    <glyph glyph-name="four" unicode="4" horiz-adv-x="1060" 
d="M843 573q88 13 123 52q10 10 16 10q27 0 45 -57q15 -43 15 -78q0 -142 -129 -142q-33 0 -82 7q-4 -123 -4 -213q0 -181 20 -226q-33 47 -41 64q-14 24 -24 73q-23 107 -21 267v45l-6 2q-4 -49 -4 -107q0 -94 8 -184q8 -70 21.5 -100.5t56.5 -71.5q-98 31 -148 76
q-55 51 -80 147q-20 84 -32 271q-127 18 -195 18l-22 -2q-33 -16 -101 -16q-10 -7 -39.5 -31.5t-42.5 -24.5q-37 0 -57 74q-86 25 -86 70q0 94 137 331q107 181 207 314q80 102 111 119q20 10 41 10q71 33 219 30q10 0 28 3h29q82 0 82 -66q0 -25 -16 -238
q-21 -266 -29 -426zM364 584q67 -4 205 -13q0 125 -3 250q0 150 -16 248q-63 -96 -117 -233q-57 -148 -69 -252z" />
    <glyph glyph-name="five" unicode="5" horiz-adv-x="954" 
d="M342 913q0 -110 59 -157q49 -41 160 -76q119 -37 164 -68q178 -112 178 -286q0 -136 -104 -248q-109 -119 -345 -119q-167 0 -278 45q-41 16 -80 94q-37 72 -37 121q0 8 4 8q2 0 11 -12q38 -57 176 -96q114 -33 207 -33q59 0 96 14q-25 -8 -60 -8q-92 0 -215 49
q-135 54 -176 121q221 -137 387 -137q62 0 112 31.5t50 91.5q0 57 -58.5 124.5t-232.5 125.5q-180 59 -237 118q-72 72 -72 269q0 123 29 215q-6 20 -6 45q0 49 18 72.5t168 23.5q16 0 70 -2h83q297 0 373 86q6 6 13 6q26 0 43 -82q12 -59 12 -102q0 -176 -105 -176
q-51 0 -174 47q-90 35 -180 72q-53 -54 -53 -177z" />
    <glyph glyph-name="six" unicode="6" horiz-adv-x="1030" 
d="M387 788q96 156 266 156q176 0 260 -151q66 -119 66 -314q0 -213 -115 -354q-123 -152 -330 -152q-221 0 -356 162q-127 150 -127 375q0 203 74 391q80 207 223 326q68 57 117 73q90 29 219 29q90 0 90 -18q0 -6 -18 -17q-158 -82 -244 -207q-78 -112 -125 -299zM536 61
q82 0 133 242q39 180 39 315q0 232 -82 232q-96 0 -167 -182q-48 -119 -68 -262q-2 16 -2 34q0 232 90 363l-2 -2q-88 -115 -117 -305q-10 -70 -10 -68q0 -90 49 -215q60 -152 137 -152z" />
    <glyph glyph-name="seven" unicode="7" horiz-adv-x="1075" 
d="M704 1249q45 27 131 27q53 0 131 -16q104 -21 104 -54q0 -12 -30 -24q-54 -25 -82 -45q2 -54 -27 -54q-10 0 -23 7q-124 -136 -235 -494q-37 -117 -37 -299q0 -84 31 -184q-64 84 -64 249q0 68 4 152q-18 -29 -18 -147q0 -195 76 -301q6 -11 6 -17q0 -31 -66 -47
q-47 -10 -92 -10q-203 0 -203 164q0 120 99 450q90 312 162 461q-101 -43 -203 -86q-148 -59 -199 -59q-74 0 -108 116q-27 82 -27 179q0 92 18 92q5 0 9 -6q57 -84 276 -84q123 0 367 30z" />
    <glyph glyph-name="eight" unicode="8" horiz-adv-x="976" 
d="M760 1155q-125 70 -254 70q-193 0 -217 -109q116 -90 217 -182q88 80 254 221zM448 532q-241 -249 -241 -362q0 -39 28 -57q86 -54 209 -54q156 0 205 150q10 37 10 61q0 72 -211 262zM422 1305q157 0 315 -56q39 -12 41 -16q16 -21 23 -43l45 37q-7 -29 -39 -72v-6
q2 -16 -4 -16h-4l-7 2q-32 -41 -157 -160h4q6 0 35 20q133 97 200 219q6 -32 6 -71q0 -207 -172 -361l-28 -26q141 -162 205 -312q38 -88 40 -137v-10q3 -174 -133 -268q-116 -84 -299 -84q-192 0 -295 84q-133 106 -133 243q0 179 207 422q-221 213 -221 348q0 31 10 58
q72 205 361 205z" />
    <glyph glyph-name="nine" unicode="9" horiz-adv-x="1030" 
d="M51 825q0 49 8 95q33 186 137 290q115 113 299 113q224 0 359 -164q125 -153 125 -385q0 -196 -66 -377q-71 -200 -207 -321q-65 -58 -114 -76q-103 -37 -240 -37q-70 0 -70 17q0 6 19 16q153 86 237 215q74 117 115 303q-94 -166 -272 -166t-262 160q-68 123 -68 317z
M563 498q84 118 106 309q9 72 9 67q0 87 -56 213q-63 148 -141 148t-123 -227q-33 -160 -33 -291q0 -273 97 -273q92 0 155 187q45 131 60 264q2 -25 2 -53q0 -224 -78 -346z" />
    <glyph glyph-name="colon" unicode=":" horiz-adv-x="434" 
d="M381 752q0 -45 -51 -68q-60 -25 -64 -33q-6 -14 -14 -14q-2 0 -58 29q-43 14 -86 30q-57 25 -57 60q0 8 2 10q21 47 66 79t94 32q51 0 109.5 -38t58.5 -87zM383 86q0 -45 -51 -68q-58 -24 -62 -32q-6 -15 -14 -15q-2 0 -58 29q-43 16 -86 31q-57 24 -57 59v10
q23 47 68 79t94 32q51 0 106 -35q60 -41 60 -90z" />
    <glyph glyph-name="semicolon" unicode=";" horiz-adv-x="444" 
d="M235 207q56 0 107 -55.5t51 -110.5q0 -23 -12 -41q-29 -49 -54 -111q-12 -30 -53 -110q-49 -92 -59 -92q-2 0 -2 14q0 31 4 91.5t4 90.5q0 76 -16 90q-33 27 -66 52q-41 30 -41 67q0 41 47 78t90 37zM381 752q0 -45 -51 -68q-60 -25 -64 -33q-6 -14 -14 -14q-2 0 -58 29
q-43 14 -86 30q-57 25 -57 60q0 8 2 10q21 47 66 79t94 32q51 0 109.5 -38t58.5 -87z" />
    <glyph glyph-name="less" unicode="&#x3c;" horiz-adv-x="985" 
d="M934 1036q0 -45 -29 -88q-10 -14 -49 -39q-166 -104 -539 -180q125 43 201 92q-14 -6 -74 -18q-69 -15 -100 -23q-60 -16 -94 -41q120 -98 243 -196q170 -133 263 -133q8 0 26.5 3t28.5 3q57 0 86 -78q20 -55 20 -127q0 -68 -18 -125q-25 -80 -74 -80t-326.5 225.5
t-330.5 225.5h-11q-6 -2 -8 -2q-41 0 -71 86q-23 69 -23 121q0 24 4 45l-8 20q0 27 164 129q268 166 319 201q185 127 224 209q6 16 18 16q35 0 84 -61q37 -50 55 -93q19 -49 19 -92z" />
    <glyph glyph-name="equal" unicode="=" horiz-adv-x="1001" 
d="M864 956q86 0 86 -94q0 -45 -25 -86q-28 -47 -71 -47q-10 0 -23 4q-67 23 -313 23q-287 0 -361 -25q-6 -2 -12 -2q-39 0 -69 78q-25 63 -25 111q0 47 25 47q6 0 14 -2q27 -11 113 -11h120q78 2 119 2t123 -2t123 -2q29 0 88 3t88 3zM545 600q284 0 335 -33q62 -41 62 -88
q0 -26 -19.5 -52t-46.5 -26q-53 0 -179 24t-191 24q-54 0 -64 -5q357 -6 426 -77q-201 30 -301 30q-57 0 -350 -28h-8q-41 0 -90 71q-45 66 -45 111q0 24 20 29q10 2 141 10q174 10 310 10z" />
    <glyph glyph-name="greater" unicode="&#x3e;" horiz-adv-x="1017" 
d="M915 782q23 11 29 -30q22 -27 22 -43q0 -13 -24 -52q-21 -159 -82 -221q-18 -16 -129 -76q-133 -71 -145 -79q-199 -123 -271 -269q-2 8 -2 17q0 86 121 190q94 74 188 146q-14 0 -71 -35q-92 -60 -178 -135q-113 -101 -134 -170q-45 10 -71 65q-21 47 -21 98
q0 88 54 168q36 54 276 183q158 82 315 161q-79 70 -308.5 150t-340.5 80q-8 0 -24.5 -2t-24.5 -2q-43 0 -43 43q0 59 78 167.5t133 108.5q76 0 336 -194q221 -168 317 -269z" />
    <glyph glyph-name="question" unicode="?" horiz-adv-x="821" 
d="M373 217q51 0 108 -37t57 -86q0 -45 -51 -67q-57 -25 -61 -33q-6 -14 -15 -14q-2 0 -57 28q-43 15 -86 31q-57 22 -57 59q0 8 2 11q20 45 65 76.5t95 31.5zM321 1239q72 14 133 14q234 0 304 -200q12 -37 12 -78q0 -98 -68 -197q-22 -30 -76 -78q-59 -51 -81 -75
q-66 -80 -105 -187q8 92 64 172q14 23 116 146q-8 -4 -18 -11q-76 -67 -135 -155q-72 -107 -70 -187v-10q-8 -16 -27 -16q-55 0 -104 96q-43 82 -43 145q0 95 121 217.5t121 186.5q0 25 -13 49q-36 88 -178 92q-47 -57 -61 -106q-10 -39 -19 -109q-10 -80 -16 -108
q0 -6 -4 -13l-2 2q-6 13 -28.5 22t-41 48t-18.5 66q0 8 2 23.5t2 21.5q0 32 -18.5 93.5t-18.5 92.5q0 21 10 29q60 49 109 49q10 0 26.5 -6t26.5 -6t28.5 7t28.5 7q33 0 41 -37z" />
    <glyph glyph-name="at" unicode="@" horiz-adv-x="1406" 
d="M51 473q0 229 102 451q177 376 547 376q162 0 320 -77q174 -88 231 -224q105 -245 105 -481q0 -201 -86 -379q-107 -219 -287 -219q-101 0 -148 64q-34 45 -57 161q-74 -168 -209 -168q-170 0 -170 396q0 78 10 188q17 146 39.5 177.5t63.5 35.5q57 121 149 121
q54 0 99 -78q8 64 32.5 87.5t94.5 23.5q84 0 84 -41q0 2 -11 -43q-43 -193 -43 -520q0 -299 76 -299q23 0 45 36q51 82 80 283q23 154 23 297q0 283 -72 367q-135 153 -336 153q-258 0 -401 -284q-76 -152 -76 -359q0 -182 57 -354q68 -205 189 -295q79 -62 194 -86h-6
q-188 -2 -346 207q59 -101 151 -166q103 -72 211 -72q35 0 68 8q33 -10 33 -36q0 -37 -56 -60q-45 -16 -86 -16h-12q-178 4 -336 164q-133 137 -205 327q-61 160 -61 334zM649 102q41 0 74 127q26 101 26 162q0 23 -2 68t-2 67q0 25 2 75t2 77q0 29 -16 56.5t-43 27.5
q-45 0 -70 -180q-16 -125 -16 -240q0 -240 45 -240zM919 887q-22 -23 -47 -187q-22 -147 -22 -215q0 -137 28 -262q-8 109 -8 230q0 227 49 434z" />
    <glyph glyph-name="A" unicode="A" horiz-adv-x="1386" 
d="M1327 115q39 0 39 -13q0 -34 -85 -81.5t-124 -47.5q-68 0 -146 220q-55 159 -76 280h-6q6 -207 129 -455q-82 105 -151 299q-21 50 -62 152q-155 -18 -272 -20q-127 -465 -201 -465q-49 0 -200.5 119.5t-151.5 156.5q0 6 6 6q8 0 21.5 -4t21.5 -4q103 0 221 205
q-188 22 -202 51q-2 6 -2 14q0 37 57 155t80 118q4 0 4 -8v-6.5v-6.5q2 -71 158 -121q57 156 176 463q-37 -121 -49 -170q-27 -100 -33 -176q65 225 116 338q-26 49 -51 74q-6 6 -6 12q0 29 78 64q57 24 102 35.5t78 11.5q35 0 51 -13q62 -38 177 -358q24 -72 133 -408
q34 -104 108 -313q41 -104 62 -104zM612 608q88 -12 192 -24q-45 123 -135 362q-20 -176 -57 -338z" />
    <glyph glyph-name="B" unicode="B" horiz-adv-x="1169" 
d="M764 719q153 8 241 -60q50 -36 82 -135q31 -86 31 -157q0 -31 -8 -62q-29 -112 -177.5 -226t-263.5 -116q119 33 246 164q49 51 70 78q43 51 53 86q-289 -311 -465 -311q-24 0 -47.5 12t-46.5 24q-18 7 -70 15q-18 2 -37.5 23.5t-19.5 41.5q0 23 35 37q96 39 274 182
q199 158 199 230q0 14 -10 24q-56 58 -142 58q-41 0 -118.5 -18.5t-118.5 -18.5q-49 0 -49 18q0 4 2 6l-13 7q-8 -252 -45 -388q-61 -227 -221 -294q-6 -2 -8 -2q-4 0 -4 2q18 38 43 106q14 66 14 168q0 37 -8 135q-10 117 -18 127q6 -31 6 -156q0 -110 -25 -198q4 53 4 110
q0 58 -12 263q-4 79 -12 241q-8 152 -13 320q-61 61 -61 174q0 94 25 94q4 0 6 -6q43 -64 209 -64q71 0 212.5 23.5t213.5 23.5q200 0 274 -118q25 -43 25 -92q0 -97 -86 -209q-68 -88 -166 -162zM411 686l7 2q53 14 90 45q71 58 138 188t67 218q0 45 -41 45q-35 0 -134 -60
l-135 -80q-2 -63 -2 -100q0 -43 5 -129t5 -129z" />
    <glyph glyph-name="C" unicode="C" horiz-adv-x="1075" 
d="M1012 332q2 2 8 2q4 0 4 -12q0 -89 -127 -220q-55 -57 -180 -90q-107 -28 -203 -28q-119 0 -197 43q-28 16 -67 61q-140 166 -140 449v14q-8 -31 -8 -92q0 -281 99 -353q-150 50 -150 416q0 172 45 373q57 248 148 336q30 31 83 37q48 4 93 6q16 4 26 4q19 0 25 -6
q16 4 45 4q43 0 89 -9.5t38 -9.5q22 0 54 19.5t65 19.5q57 0 149 -41q31 -14 31 -98q0 -29 -3 -85t-3 -85q0 -49 8 -78q16 -45 16 -63q0 10 -12 -49q-16 -76 -49 -103q-21 -16 -23 -32q-4 -29 -8 -35q-4 0 -12 24q-27 94 -88 281q-58 139 -176 203q-103 -82 -152 -314
q-37 -168 -37 -352q0 -301 209 -301q117 0 213 65q68 46 127 121q51 66 53 66q9 0 9 -17q0 -10 -3.5 -30.5t-3.5 -30.5t5 -10z" />
    <glyph glyph-name="D" unicode="D" horiz-adv-x="1077" 
d="M258 1225q59 -2 135 24q100 35 199 35q215 0 331.5 -131t116.5 -350q0 -98 -26 -228q-101 -466 -449 -571l-29 12q-20 0 -61 9.5t-62 9.5q-28 0 -68 -33t-73 -33q-49 0 -110 54q-84 71 -84 391q0 221 39 534q-66 64 -66 226q0 149 27 149q4 0 6 -6q28 -57 102 -82
q43 6 72 -10zM473 150q123 51 217 192q82 123 119 270q-31 -102 -124 -207.5t-194 -164.5q135 114 207 268q43 92 43 219q0 115 -35 231q-51 160 -139 160q-51 0 -115 -67q-90 -97 -98 -103q8 -61 37 -487q12 -191 82 -311z" />
    <glyph glyph-name="E" unicode="E" horiz-adv-x="1126" 
d="M1091 322q2 0 6 2l4 2q4 0 4 -11q0 -49 -55 -135q-47 -67 -94 -114q-113 -105 -289 -105q-148 0 -260 68q-205 121 -224 501h-4q-2 -20 -2 -51q0 -102 25 -211q35 -139 94 -180q-154 45 -172 430q-57 -16 -65 -16q-9 0 -9 4t13.5 9t13.5 10t18 24q7 4 27 14
q-6 266 66 496q-46 22 -99 86.5t-53 109.5q0 13 10 13q21 0 42.5 -38t66.5 -38t184 22q119 21 359 62q167 27 227 27q112 0 112 -209q0 -88 -14 -130t-344 -67q234 55 234 92q0 19 -172 23l-238 4q-41 -158 -45 -338q139 33 283 33q106 0 120 -11q4 -8 19.5 -22t15.5 -16
q0 -9 -9 -14t-9 -13q0 -6 3 -19.5t3 -21.5q0 -14 -14.5 -20.5t-14.5 -12.5q0 -2 2 -6v-4q0 -6 -10 -14.5t-16 -8.5q-123 -10 -371 -20q16 -334 125 -383q49 -23 86 -23q80 0 180 66q72 45 150 121l67 65q4 0 10.5 -16t12.5 -16z" />
    <glyph glyph-name="F" unicode="F" horiz-adv-x="1105" 
d="M976 1319q109 0 109 -234q0 -69 -8 -100q-13 -43 -342 -80q231 64 231 101q0 18 -63 18q-41 0 -169 -19.5t-206 -23.5q-8 -152 -8 -205q0 -43 4 -168q291 68 360 131q13 13 23 13q39 0 69 -76q27 -64 27 -111q0 -45 -22 -61q-54 -37 -144 -37h-26q55 -8 77 -8q29 0 69 13
t54 34q-41 -62 -123 -62q-43 0 -129 12.5t-127 12.5q-16 0 -51 -2t-53 -2v-21q-4 -139 -4 -194q0 -90 12 -178q-37 110 -37 321v51q-12 -90 -12 -202q0 -150 22 -246q5 -12 50 -105q0 -4 -2 -4q-115 0 -215 191q-78 149 -97 287q-6 45 -14 124q-23 9 -51 27q-35 25 -35 43
q0 12 25 12q10 0 28.5 -3t26.5 -3q-17 193 -17 361q0 96 0 86q-55 22 -121.5 104t-66.5 139q0 17 12 17q19 0 41.5 -37t75.5 -37q21 0 53 4q4 12 25 12q14 0 35 -6q69 9 473 78q196 33 241 33z" />
    <glyph glyph-name="G" unicode="G" horiz-adv-x="1142" 
d="M672 485q0 29 161 52q129 18 201 18q57 0 57 -25q0 -12 -24 -168q-45 -270 -45 -387q0 -81 20 -104q-30 20 -39 27q-14 12 -27.5 41.5t-13.5 146.5q0 84 11 193q-25 -127 -25 -236q0 -72 6 -98q10 -39 27 -54q10 -12 51 -26q-168 14 -207 98q-22 47 -45 184
q-45 -73 -140 -124.5t-186 -51.5q-184 0 -276 217q-68 162 -68 375v15q-8 -31 -8 -91q0 -282 99 -354q-150 49 -150 416q0 170 45 366q55 242 148 332q30 31 83 37q48 2 93 6q16 2 26 2q19 0 25 -6q16 4 45 4q41 0 89 -8t38 -8q22 0 54 19.5t65 19.5q57 0 149 -43
q31 -13 31 -96q0 -29 -3 -86.5t-3 -86.5q0 -49 8 -75q16 -45 16 -64q0 10 -12 -49q-16 -76 -49 -102q-21 -17 -23 -35q-4 -27 -8 -33q-4 0 -12 27q-27 94 -88 276q-60 144 -180 207q-99 -80 -148 -305q-37 -166 -37 -342q0 -115 35 -227q51 -154 141 -154q58 0 111 61
q43 50 70 113q-9 68 -13 121q-75 37 -75 65z" />
    <glyph glyph-name="H" unicode="H" horiz-adv-x="1282" 
d="M1104 782q143 -24 143 -55q0 -29 -145 -47q0 -551 106 -614q10 -7 10 -11q0 -16 -80 -26q-55 -9 -94 -9q-151 0 -166 56q-45 162 -47 565q-157 -29 -340 -94q-24 -193 -37 -266q-34 -211 -73 -244q-31 -27 -111 -27q-100 0 -100 35q0 6 10 18q39 48 80 390h-4
q-37 -203 -123 -353q47 140 76 338q-11 -2 -19 -2q-57 0 -100 109q-39 94 -39 160q0 63 39 63q10 0 31.5 -3t31.5 -3q29 0 72 4q-16 178 -31 258q-34 188 -96 219q-12 6 -12 10q0 17 90 27q65 8 113 8q172 0 204 -55q41 -64 41 -211q0 -86 -14 -221q125 14 229 14
q41 0 84 -2q11 381 68 438q27 27 125 27q170 0 170 -47q0 -4 -6 -12q-33 -50 -60 -213q-22 -127 -26 -224zM1073 938q-27 -88 -33 -145l10 -2q9 40 23 147zM1132 98q-88 201 -88 494q0 41 2 80l-24 -2q-4 -54 -4 -105q0 -291 114 -467z" />
    <glyph glyph-name="I" unicode="I" horiz-adv-x="589" 
d="M252 1282q176 0 227 -65q25 -31 25 -158q0 -139 -32 -419t-32 -421t13 -192q-68 41 -68 387q0 43 2 84l-4 -2q-27 -246 -27 -396q0 -92 15 -98q37 -14 37 -16q0 -13 -60 -13q-96 0 -133 27q-66 51 -86 426q-4 236 -8 471q-2 135 -6 172q-6 117 -27 164q0 2 -2 8
q0 41 166 41z" />
    <glyph glyph-name="J" unicode="J" horiz-adv-x="983" 
d="M479 1083q0 64 12 97q41 98 260 98q181 0 181 -51q0 -8 -9 -17q-67 -80 -67 -280q0 -60 5 -177.5t5 -174.5q0 -588 -438 -588q-113 0 -223 37q-154 49 -154 139q0 61 47 67q23 -43 103 -83q67 -35 124 -46q-51 19 -102 52q-68 41 -74 77q33 -36 100.5 -63t123.5 -27
q165 0 165 295q0 107 -38 418q-21 156 -21 227z" />
    <glyph glyph-name="K" unicode="K" horiz-adv-x="1214" 
d="M1202 244q4 -2 6 -4q-2 -35 -156.5 -133.5t-205.5 -98.5q-45 0 -213 195q-121 143 -144 272q-2 27 -8 84q-4 6 -4 19q0 32 27 106q114 311 315 477q43 29 127 88q-88 -35 -289 -205q172 250 336 250q51 0 96 -129q37 -108 37 -176q0 -51 -22 -51q-9 0 -29 15.5t-45 15.5
q-70 0 -217 -133q-96 -95 -195 -189q123 -133 252 -244q193 -165 277 -165q8 0 26.5 3t28.5 3zM246 1288q167 0 225 -69q37 -45 37 -183q0 -123 -37 -418q-12 -94 -25 -215q-22 -186 -24 -198q-23 -154 -53.5 -178.5t-106.5 -24.5q-143 0 -143 45q0 6 10 16q26 33 57 197
q23 123 33 215q-35 -229 -137 -373q49 117 80 291q26 164 26 303v31l-24 234q-31 235 -101 272q-12 8 -12 12q0 21 88 33q62 10 107 10z" />
    <glyph glyph-name="L" unicode="L" horiz-adv-x="980" 
d="M581 244q188 0 311 96q23 20 61 51q7 -2 7 -26q0 -91 -43 -220q-52 -159 -119 -159q-146 0 -342 114q-37 -104 -76 -104q-82 0 -131 141q-33 94 -45 219q-12 70 -25 209q-8 -80 -8 -157q0 -162 45 -289q-94 153 -98 475q-2 225 -6 317q-8 250 -31 295q-2 6 -2 11
q0 28 84 43q59 10 117 10q200 0 200 -84q0 -21 -16 -72q-20 -59 -23 -80q-6 -49 -22 -270q-23 -299 -27 -488q84 -32 189 -32zM394 139q2 -61 17 -61q18 0 37 26q-29 19 -54 35z" />
    <glyph glyph-name="M" unicode="M" horiz-adv-x="1404" 
d="M1222 1092q19 -269 35 -539q31 -399 90 -485q7 -9 7 -15q0 -28 -68 -47q-51 -14 -92 -14q-103 0 -147 47t-44 149q0 119 23 316q26 235 31 315q-113 -190 -156 -270q-113 -203 -131 -273q-8 -32 -29 -32q-10 0 -24 8q-33 0 -74 49q-23 27 -107 180q-53 99 -168 295
q70 -395 70 -612q0 -49 -6 -70q-29 -102 -193 -102q-47 0 -106 14q-82 19 -82 51q0 4 4 13q57 80 90 319q25 186 25 344q0 180 -45 346q-15 6 -28 12.5t-13 28.5q0 60 54 110t114 50q51 0 72.5 -9t50.5 -48q6 -6 94 -172q117 -220 205 -387q51 163 125 325q110 240 190 266
q59 21 137 21q160 0 160 -72q0 -14 -64 -112zM225 653q4 74 4 135q0 134 -18 218q-35 41 -64 59q66 -158 78 -412z" />
    <glyph glyph-name="N" unicode="N" horiz-adv-x="1185" 
d="M723 1047q0 98 10 131q33 102 205 102q49 0 112 -14q84 -19 84 -52q0 -6 -4 -12q-59 -82 -94 -325q-24 -187 -24 -355q0 -184 71 -387q-114 164 -131 506q-4 -74 -4 -137q0 -195 45 -295q19 -31 51 -90q51 -21 51 -49q0 -52 -75 -52q-131 0 -283 160q-47 53 -209 271
q-84 112 -184 274q31 -240 47 -332q45 -241 98 -305q6 -8 6 -14q0 -33 -84 -54q-65 -16 -112 -16q-103 0 -150 43t-47 145q0 115 33 346.5t33 346.5q0 67 -23 129q-26 18 -82 59q-12 10 -12 31q0 61 56.5 108t119.5 47q62 0 84 -6q39 -10 68 -49q2 -2 41 -82l90 -186
q188 -385 307 -580q-94 285 -94 693z" />
    <glyph glyph-name="O" unicode="O" 
d="M618 1325q183 0 318 -84q116 -72 182 -256q53 -156 53 -319q0 -162 -55 -304q-49 -120 -133 -215q-107 -120 -209 -120q-12 0 -25 2q-65 -47 -180 -47q-45 0 -78 6q-123 22 -239 139q-109 106 -158 231q-43 109 -43 250q0 391 170 529q-4 59 184 147q86 41 213 41z
M602 137q2 0 57 27q140 69 140 528q0 193 -17 283q-39 188 -162 188q-55 0 -143 -35q-23 -34 -66 -110q-71 -146 -71 -361q0 -116 14 -159q6 -17 12 -15q-4 45 -4 95q0 280 82 417q-35 -258 -35 -366q0 -105 25 -217q31 -133 84 -199q61 -76 84 -76z" />
    <glyph glyph-name="P" unicode="P" horiz-adv-x="1087" 
d="M295 1245q69 0 220.5 30t231.5 30q142 0 226 -68q94 -74 94 -211q0 -190 -185 -418q-192 -237 -372 -237q-90 0 -90 45q0 14 18 18q43 8 70 25q39 26 90 102t51 119v8q-23 -57 -70 -110q-57 -66 -104 -66h-10q86 57 172 249.5t73 311.5q-6 66 -79 60q-43 -5 -109 -46
q-47 -30 -92 -61q-4 -68 -8 -321q-4 -295 -9 -373q-16 -295 -69 -338q-33 -29 -121 -29q-37 0 -37 12q0 -8 12 31q19 58 19 84q0 326 -14 400q6 -439 -60 -486q12 62 12 205v100q0 41 -10 138q-18 198 -41 573q-53 68 -53 190q0 121 27 121q4 0 8 -8q41 -80 209 -80z" />
    <glyph glyph-name="Q" unicode="Q" horiz-adv-x="1198" 
d="M606 1325q160 0 286 -72.5t195 -265.5q60 -164 60 -334q0 -315 -187 -514q31 -35 56 -61q22 2 41 2q57 0 57 -27q0 -30 -109.5 -134.5t-142.5 -104.5q-8 0 -16 8q-2 0 -109 205q-61 -47 -162 -47q-112 0 -223 71q-274 176 -299 494q-2 39 -2 92q0 354 154 487
q-7 58 180 154q92 47 221 47zM407 651q0 -110 31 -229q35 -141 95.5 -213t82.5 -72q6 0 49 25q-43 76 -75 123q-60 90 -93 98h29q51 0 111 -68q22 -24 80 -114l6 8q-113 192 -180 192q-13 0 -41 -8q55 33 114 33q62 0 158 -90q27 113 25 270v37q-3 207 -23 307
q-41 215 -166 215q-57 0 -149 -41q-21 -34 -60 -106q-63 -135 -63 -334q0 -143 22 -197q4 -14 10 -12q-8 60 -8 129q0 260 70 385q-25 -229 -25 -338z" />
    <glyph glyph-name="R" unicode="R" horiz-adv-x="1183" 
d="M1157 211q6 0 6 -6q0 -12 -22 -43q-46 -60 -109 -103q-76 -51 -137 -51q-51 0 -146.5 80l-95.5 80v0q0 -21 90 -94q80 -66 111 -84q-103 24 -230 174q-151 182 -151 381q0 33 23.5 76t54.5 43q4 0 8 -2q182 190 182 366q0 88 -35 88q-24 0 -135 -55q-71 -39 -143 -76v-57
q0 -47 5 -135t5 -131q0 -101 -12 -256q-27 -373 -250 -467q-6 -2 -10 -2q-2 0 -2 2t19.5 47t23.5 59q12 66 12 158q0 133 -23 241q5 -24 5 -122q0 -113 -25 -201q4 53 4 112q0 37 -14 240q-2 82 -11 244q-6 100 -10 227q-94 53 -94 238q0 147 31 147q4 0 6 -6
q24 -45 141 -68q84 -16 162 -16q59 0 178 7t178 7q271 0 312 -104q20 -53 20 -113q0 -145 -133 -299q-109 -127 -262 -217q92 -104 196 -190q148 -125 224 -125q8 0 26.5 3t26.5 3z" />
    <glyph glyph-name="S" unicode="S" horiz-adv-x="1048" 
d="M416 858q0 -104 100 -141q467 -180 467 -387q0 -111 -115 -233t-352 -122q-170 0 -285 45q-41 17 -79 90.5t-38 125.5q0 8 3 8q4 0 10 -13q43 -61 192 -94q111 -24 221 -24q43 0 80 4q-159 -6 -276 28q-160 48 -187 131q48 -61 175 -100q106 -33 204 -33q197 0 197 88
q0 31 -27 70q-47 66 -241 158q-264 125 -279 133q-61 37 -98 112.5t-37 149.5q0 57 20 119q64 203 207 282q52 27 80 27q23 0 49.5 -11t34.5 -11q10 0 135 14q11 59 66 59q14 0 40.5 -11t43.5 -11q14 0 38.5 9t39.5 9q67 0 161 -72q17 -12 17 -43q0 -47 -27.5 -138
t-27.5 -138q0 -10 3 -32.5t3 -35.5q0 -39 -28 -98t-58 -72q-15 -4 -25 -7t-20 -23q0 -2 -2 -4q-5 4 -7 16q-10 109 -51 326q-24 79 -104 174q-51 -8 -94 -41q-48 -39 -88.5 -129t-40.5 -154z" />
    <glyph glyph-name="T" unicode="T" horiz-adv-x="995" 
d="M829 1280q76 0 98 -8q47 -17 47 -78q0 -45 -26 -96q-33 -62 -74 -62q-47 0 -131 8q-100 11 -133 11q-4 -31 -4 -84q0 -70 26 -387q4 -64 23 -191q14 -80 61 -233q-90 143 -131 420q-2 -25 -2 -50q0 -247 119 -432q6 -12 6 -20q0 -41 -74 -66q-57 -18 -108 -18
q-127 0 -187 80q-32 43 -32 200q0 148 39 539q20 195 20 250q-182 0 -225 -14q-8 -2 -12 -2q-39 0 -76 71q-33 64 -33 107q0 28 18 28q5 0 15 -4q22 -8 82 -8q116 0 346.5 19.5t347.5 19.5zM260 1198q73 0 290 41q-262 -22 -313 -22q-76 0 -147 14q86 -33 170 -33z" />
    <glyph glyph-name="U" unicode="U" horiz-adv-x="1118" 
d="M848 842q0 168 -70 368q-2 9 -2 15q0 49 100 49q125 0 152 -72q39 -112 39 -375q0 -311 -86 -532q-119 -305 -377 -305q-152 0 -234 28q-90 31 -176 183q-67 121 -102 248q-41 157 -41 456q0 217 28.5 297t211.5 80q180 0 180 -86q0 -10 -6 -27q-72 -208 -72 -528
q0 -131 29 -285q39 -217 110 -211h8q27 -14 56 -14q123 0 172 205q28 123 28 297q0 100 -20 297q-25 215 -49 282q47 -61 82 -202q35 -129 35 -219q0 -21 -5 -33q9 26 9 84z" />
    <glyph glyph-name="V" unicode="V" horiz-adv-x="1202" 
d="M1177 1163q4 0 4 -28q0 -80 -94 -344q-111 -310 -143 -400q-129 -344 -158 -366q-51 -37 -84 -37q-37 0 -47 35q-21 -9 -39 -9q-23 0 -41 11q-57 28 -154 362q11 -192 74 -313q-55 43 -127 235v0q-35 92 -90 258q-86 264 -90 275q-78 211 -133 229q-35 10 -35 33
q0 55 94 117q88 57 150 57q24 0 39 -6q112 -45 237 -490q74 -295 146 -589q159 546 159 808q0 181 -82 220q-18 6 -18 14q0 22 84 37q59 8 100 8q58 0 117 -14q82 -21 98 -56q6 -12 6 -36q0 -29 -13 -81.5t-13 -76.5q0 -2 2 -2q12 0 43 121q6 28 8 28z" />
    <glyph glyph-name="W" unicode="W" horiz-adv-x="1800" 
d="M1456 1079q0 135 -64 166q-16 8 -16 15q0 20 76 34q55 11 94 11q233 0 233 -170q0 -68 -88 -326q-59 -174 -153 -414q-136 -348 -175.5 -377.5t-70.5 -29.5q-35 0 -60 26q-59 -30 -104 -30q-21 0 -35 8q-63 39 -178 543q-47 -138 -92 -277q-82 -238 -103 -252
q-38 -29 -77 -29q-23 0 -45 9q-19 -9 -37 -9q-23 0 -37 11q-66 47 -238 569q-166 508 -235 535q-31 10 -31 26q0 56 96 115q90 57 150 57q20 0 37 -6q98 -35 204 -500h2l97 -473q182 473 182 674q2 16 0 19q-25 69 -58.5 81.5t-33.5 32.5q0 53 84 110.5t141 57.5
q49 0 84 -43q82 -33 82 -135q0 -16 -2 -35q53 -164 100 -409q37 -209 74 -416q197 588 197 831zM487 649q0 -63 94 -395l21 51q-45 172 -50 180q-30 105 -63 177q-2 -7 -2 -13z" />
    <glyph glyph-name="X" unicode="X" horiz-adv-x="1134" 
d="M718 649q142 -237 176 -291q146 -231 197 -254q23 -8 23 -20q0 -29 -74 -61q-51 -25 -100.5 -36.5t-94.5 -11.5q-57 0 -96 25q-45 27 -215 338q-61 -105 -133 -219q-16 -35 -57 -96q-31 -37 -127 -37q-117 0 -117 28q0 21 86 163t86 157q0 2 -2 2q-12 0 -116.5 -161
t-110.5 -161q-3 4 -5 9q0 73 365 561q-137 256 -158 293q-137 245 -168 253q-57 15 -57 48q0 51 59 86q54 30 107 30q65 0 131 -41q55 -34 211 -286q-66 153 -133 270q82 -70 221 -371q123 154 365 463q12 21 20 21q12 0 24.5 -27t12.5 -41q0 -84 -320 -633z" />
    <glyph glyph-name="Y" unicode="Y" horiz-adv-x="1196" 
d="M544 666q76 237 103 305q80 200 161 262q46 31 140 31q53 0 129 -15q106 -22 106 -53q0 -12 -30 -27q-64 -26 -99 -57q-141 -121 -268 -526q-37 -117 -37 -301q0 -82 31 -185q-64 86 -64 252q0 68 4 152q-18 -31 -18 -150q0 -194 76 -301q6 -8 6 -16q0 -29 -66 -45
q-47 -12 -92 -12q-203 0 -203 163q0 107 60 316q-105 186 -209 372q-150 261 -242 316q-12 8 -12 18q0 33 61 74q50 31 91 47q49 17 90 17q67 0 106 -48q55 -65 117 -282q57 -203 59 -307zM450 862q21 -39 43 -117q25 -83 39 -118l8 26q-6 6 -18 49q-19 58 -31 84
q-18 50 -41 76z" />
    <glyph glyph-name="Z" unicode="Z" horiz-adv-x="1122" 
d="M426 233q243 46 305 60q219 53 272 110q6 7 11 7q26 0 45 -95q12 -67 12 -114q0 -197 -131 -197q-53 0 -166 21q-283 47 -365 47q-125 0 -155 -39q-2 -4 -19 -39q-10 -27 -24 -27q-37 0 -82 56q-39 47 -55.5 91t-16.5 87q0 51 4 67q6 27 39 60q64 57 189 172
q204 190 268 250q149 145 254 264q-248 -115 -590 -115q-61 0 -86 10q-84 29 -84 209q0 45 10 107q15 84 39 84q4 0 10 -4q109 -99 514 -99q201 0 334 66q-129 -117 -401 -137q47 -2 86 -2q199 0 289 71q47 84 77 84q41 0 41 -80q0 -186 -364 -676q-90 -120 -260 -299z" />
    <glyph glyph-name="bracketleft" unicode="[" horiz-adv-x="763" 
d="M635 -287q78 0 78 -88q0 -55 -37 -55q-9 0 -21 4q-43 12 -155 12q-297 0 -363 -35q-10 -6 -18 -6q-33 0 -33 45q0 41 82 60q-11 123 -21 598q-8 401 -14 913q-6 0 -23.5 -6t-21.5 -6q-17 0 -27 21.5t-10 37.5q0 23 22.5 35t215.5 27q165 14 231 14q82 0 106 -8
q58 -14 58 -74q0 -63 -43 -63q-35 0 -101 8q-77 10 -100 12q-6 -53 -10 -211q-2 -135 -2 -325l2 -740q0 -86 -6 -188q145 18 211 18zM379 225q2 -180 16 -534l21 2q-9 176 -37 532z" />
    <glyph glyph-name="backslash" unicode="\" horiz-adv-x="776" 
d="M725 145q-23 158 -123 445l-131 383q-29 82 -68 248q-8 63 -192 63q-160 0 -160 -51q0 -78 203 -543l258 -594q8 -26 16 -55q12 -37 27.5 -47t46.5 -10q100 0 100 102q0 20 -6 49q-41 150 -119 449q60 -142 148 -439z" />
    <glyph glyph-name="bracketright" unicode="]" horiz-adv-x="763" 
d="M129 -287q-78 0 -78 -88q0 -55 39 -55q6 0 18 4q43 12 158 12q295 0 360 -35q13 -6 19 -6q33 0 33 45q0 41 -82 60q10 123 20 598q8 401 15 913q6 0 24.5 -6t22.5 -6q14 0 24.5 21.5t10.5 37.5q0 23 -19 33q-25 14 -217 29q-166 14 -233 14q-82 0 -105 -8
q-57 -14 -57 -74q0 -63 41 -63q37 0 100 8q78 10 102 12q7 -53 9 -211q4 -135 4 -325l-2 -740q0 -86 4 -188q-146 18 -211 18zM385 225q-2 -180 -15 -534l-20 2q6 176 35 532z" />
    <glyph glyph-name="asciicircum" unicode="^" horiz-adv-x="684" 
d="M434 1034q25 -43 80 -98q67 -68 102 -68q6 0 10 4q7 -6 7 -18q0 -33 -32 -80t-65 -47q-49 0 -198 258q-43 -100 -56 -129q-45 -98 -63 -113.5t-41 -15.5q-25 0 -76 24.5t-51 45.5q0 2 4 4q33 8 109 184q73 168 73 217q0 27 8.5 33t36.5 6q31 0 84 -16q66 -19 66 -41
q0 4 -25 -47q90 -193 203 -242q-82 4 -176 141v-2z" />
    <glyph glyph-name="underscore" unicode="_" horiz-adv-x="528" 
d="M0 -49h565v-64h-565v64z" />
    <glyph glyph-name="grave" unicode="`" horiz-adv-x="466" 
d="M108 1217q6 0 10 -7q33 -57 139.5 -141t165.5 -102q6 -2 8 -4q-2 -21 -55 -21q-10 0 -25 2q-133 21 -153 25q-101 22 -137 55q-27 23 -27 61q0 29 23 76q24 56 51 56z" />
    <glyph glyph-name="a" unicode="a" horiz-adv-x="974" 
d="M984 70q0 -43 -76 -82q-67 -35 -114 -35q-23 0 -43 6q-103 27 -140 412q-163 -391 -309 -387h-4q-119 4 -166 30q-55 35 -80 140q-12 53 -12 122q0 144 47 322q59 215 146 274q75 54 198 54q39 0 119 -15q100 -16 100 -37q0 -2 -6 -4q-121 -39 -217 -215
q-88 -161 -88 -299q0 -43 16 -86q21 -55 56 -55q69 0 164 311q12 31 26 86q-2 43 12 121q52 123 197 123q37 0 59.5 -8t26.5 -225q2 -127 4 -256q0 -72 14 -211q15 -70 42.5 -70t27.5 -16zM271 352q0 -59 31 -106q33 -58 86 -58q10 0 21 2q-50 5 -78 76q-23 56 -23 117
q0 100 33 209q-70 -125 -70 -240z" />
    <glyph glyph-name="b" unicode="b" horiz-adv-x="940" 
d="M389 698q84 205 268 205q232 0 232 -368q0 -119 -33 -250q-41 -158 -109 -226q-71 -73 -258 -73q-92 0 -92 16q4 2 29 10q45 13 80 37q82 55 108 170q-74 -156 -203 -156q-12 0 -26.5 3.5t-14.5 5.5t5 2q20 4 61 18q78 41 125 162q39 100 39 205q0 69 -23 127
q-30 78 -92 78q-41 0 -76 -66q-24 -49 -32 -102q0 -2 -9 -150q-12 -201 -12 -276q0 -58 6 -71l6 -13q0 -9 -18 -9q-61 0 -118.5 47.5t-74 108t-36.5 275.5q-15 159 -35 636q-4 72 -41 130.5t-37 50.5q0 22 70 35q49 8 92 8q178 0 213 -86q16 -37 16 -181q0 -110 -10 -303z
" />
    <glyph glyph-name="c" unicode="c" horiz-adv-x="882" 
d="M599 946q96 0 184 -28q29 -11 29 -70q0 -19 -3 -58.5t-3 -60.5q0 -24 12.5 -55t12.5 -43q0 8 -13 -35q-16 -51 -49 -70q-20 -12 -29 -45q0 -2 -2 -4q-4 4 -8 12q-10 21 -55 125q-31 78 -66 117q-41 45 -108 76q-127 -137 -127 -397q0 -119 35 -205q49 -121 149 -121
q60 0 98 59q15 25 50 111q24 59 47 59q22 0 37.5 -22.5t15.5 -44.5q0 -51 -29 -109q-92 -178 -329 -178q-66 0 -144 16q-28 5 -65 33q-131 98 -127 342v19q-21 -50 -21 -127q0 -158 86 -209q-139 33 -139 315q0 131 41 287q49 186 125 252q29 24 69.5 29.5t79.5 9.5
q17 4 29 4t16 -4q19 4 48 0q41 -4 47 -4q2 0 38.5 12t67.5 12z" />
    <glyph glyph-name="d" unicode="d" horiz-adv-x="999" 
d="M913 317q0 -219 33 -239q16 -10 16 -23q0 -32 -51 -55q-41 -18 -78 -18q-49 0 -94 28q-72 45 -86 412q-156 -428 -346 -428q-111 0 -162 31q-57 36 -80 137q-14 67 -14 143q0 139 49 307q60 197 146 269q30 24 77 30q41 4 82 9q19 4 29 4q12 0 18 -4q27 6 97 -5
q-41 -16 -96.5 -77.5t-55.5 -100.5q0 -4 2 -8q96 168 221 168q21 0 25 -4q0 -2 -2 -2q-25 -10 -72 -37q-90 -70 -155.5 -216t-65.5 -265q0 -45 16 -90q21 -60 58 -60q47 0 94 111q29 65 74 219q41 137 55 164q0 51 2 166v166q0 145 -8 176q-4 10 -4 14q0 49 98 49
q111 0 145 -45q17 -18 17 -67q0 -13 -2 -37.5t-2 -36.5q0 -15 4 -15q10 0 14 52q2 32 4 63q2 10 6 10q2 0 7 -8q10 -24 10 -127q0 -127 -12.5 -380t-12.5 -380z" />
    <glyph glyph-name="e" unicode="e" horiz-adv-x="874" 
d="M375 371q4 -273 182 -273q78 0 143 54q35 26 107 112q2 4 8 8q8 0 8 -30q0 -47 -33 -103q-102 -170 -336 -174l-22 -2q-381 -6 -381 479q0 105 25 205q30 125 86 187q26 26 73 38q41 11 82 19q23 8 33 8q8 0 12 -4q21 10 76 10q37 0 72 -4q51 23 76 23q94 0 162.5 -75
t68.5 -169q0 -238 -320 -330q-47 -14 -86 -14q-14 0 -26 2q147 18 209 123l-2 -2q-97 -80 -217 -88zM375 408q196 51 196 282q0 82 -94 113q-96 -150 -102 -395z" />
    <glyph glyph-name="f" unicode="f" horiz-adv-x="794" 
d="M701 889q-4 0 -10 16q-66 164 -84 164v0l25.5 -65.5t23.5 -102.5v-12q-29 65 -58 131q-34 65 -94 106q-35 -14 -45 -67q-4 -15 -6 -125q0 -10 -4 -227q51 6 96 6q119 0 137 -19q3 -10 15 -25.5t12 -19.5q0 -8 -8 -14t-8 -14q0 -9 2 -23t2 -20q0 -19 -12.5 -25t-12.5 -14
v-7q2 -4 2 -6q0 -4 -9 -13t-15 -11l-203 -8q-6 -252 -8 -295q-8 -189 -31 -289q-14 -64 -70 -137q-63 -84 -120 -84q-9 0 -13 2q47 59 47 227q0 111 -14 129q6 -233 -45 -307q10 27 10 98q0 133 -20 346q-19 174 -35 348q-27 0 -76 -6q-2 0 -41 -16q-26 -10 -43 -10
q-8 0 -8 6q0 4 11.5 10t12.5 12.5t17 24.5q27 25 121 65q-12 170 -12 283q0 168 24 240q45 125 178 125q29 0 58 -6q10 8 22 8q10 0 29.5 -14.5t34.5 -14.5q12 0 42.5 11.5t51.5 11.5q86 0 137 -57.5t51 -145.5q0 -37 -14 -96q-19 -74 -43 -74z" />
    <glyph glyph-name="g" unicode="g" horiz-adv-x="1019" 
d="M571 625q0 133 23 163q51 64 221 64q154 0 154 -39q0 -4 -3 -6q-24 -55 -38 -358q-9 -195 -15 -388q-8 -180 -10 -190q-8 -129 -27 -178q-28 -72 -86 -117q82 86 82 318q0 38 -2 75q-10 -18 -28 -194q-17 -152 -84 -209q-48 -41 -132 -41q-100 0 -100 26q0 7 33 13
q74 16 74 248q0 49 -37 442q-133 -301 -309 -301q-119 0 -185 129q-51 102 -51 233q0 74 16 150q33 149 70 227q51 109 147 182q33 25 125 25q150 0 232 -31q10 -6 10 -8t-4 -4q-68 -20 -104 -59q0 -2 -74 -99q-119 -157 -119 -350q0 -139 76 -139q82 0 139 205q12 43 12 47
q0 26 -3 81.5t-3 82.5z" />
    <glyph glyph-name="h" unicode="h" horiz-adv-x="993" 
d="M942 70q-91 90 -101 274v-18q-2 -68 17 -146q20 -94 59 -131q4 -6 4 -10q0 -27 -76 -45q-57 -14 -96 -14q-156 0 -156 176q0 75 29 224.5t29 225.5q0 94 -74 94q-109 0 -166 -196q-43 -139 -43 -285q0 -188 27 -250q-19 -2 -31 -2q-137 0 -192 174q-50 148 -54 525v12
q0 131 -2 174q-4 98 -16 172q-8 47 -27 76q-2 4 -26.5 32.5t-24.5 36.5q0 45 141 70q99 16 191 16q82 0 82 -63q0 -25 -17 -211q-20 -238 -30 -375q100 254 233 281q45 10 84 10q96 0 150.5 -58.5t54.5 -154.5q0 -31 -19 -147q-16 -93 -16 -170q0 -174 66 -297z" />
    <glyph glyph-name="i" unicode="i" horiz-adv-x="520" 
d="M248 1268q82 0 180 -51q113 -62 113 -136q0 -47 -51 -69q-27 -13 -97 -25q-57 -8 -64 -18.5t-24 -46.5q154 -25 154 -140q0 -57 -16 -147q-13 -72 -25 -146q-18 -120 -18 -296q0 -125 22 -166q4 -7 4 -9q0 -26 -80 -26q-35 0 -80 10q-63 55 -108 451v-29q-2 -291 76 -410
q-19 6 -27 13q-59 43 -82 227q-6 55 -22 348q-13 209 -41 281q-2 4 -2 6q0 20 67 33q47 8 88 6h27q0 55 -29 73q-63 29 -129 58q-90 41 -90 84q0 14 6 20q35 49 113 78q67 27 135 27z" />
    <glyph glyph-name="j" unicode="j" horiz-adv-x="585" 
d="M276 1243q82 0 180 -53q113 -62 113 -137q0 -45 -51 -68q-27 -12 -97 -24q-57 -9 -64 -19t-22 -41q162 2 162 -39q0 -2 -2 -6q-22 -53 -33 -283q-10 -247 -20 -495q-27 -393 -90 -445q-21 -14 -71 -29.5t-79 -15.5q-18 0 -18 9q0 4 33 26q20 15 20 156q0 143 -18 305
l-4 4q12 -405 -60 -448q10 45 10 161q0 86 -24 328q-35 344 -35 533q0 139 16 169q27 52 148 66q2 59 -29 80q-63 27 -129 55q-90 43 -90 86q0 15 6 21q37 49 108.5 76.5t139.5 27.5z" />
    <glyph glyph-name="k" unicode="k" horiz-adv-x="946" 
d="M457 502q330 -318 436 -318q8 0 25 2h24q6 0 6 -2q-2 -28 -143 -106t-182 -78q-43 0 -154 143q-104 136 -121 191q-2 -76 -2 -137q0 -172 21 -209q2 -2 4 -8q-21 8 -62 79q-34 64 -45 95q21 -131 68 -174q-25 2 -74 14q-86 26 -133 160q-49 145 -49 700q0 154 -4 188
q-8 50 -25 78q-4 6 -28.5 35t-24.5 35q0 45 141 70q99 16 191 16q82 0 82 -66q0 -24 -19 -241q-20 -264 -30 -424q100 237 278 366q39 23 113 70q-78 -27 -258 -164q153 199 301 199q45 0 84 -101q35 -86 35 -141q0 -41 -21 -41q-6 0 -25.5 12.5t-40.5 12.5q-63 0 -192 -105
q-88 -75 -176 -151z" />
    <glyph glyph-name="l" unicode="l" horiz-adv-x="524" 
d="M372 1307q82 0 82 -68q0 -14 -24 -367q-47 -649 -47 -796q0 -101 30 -172q-30 45 -36.5 57t-18.5 64q-21 92 -16 317q-7 61 -9 238q-2 -21 -16 -146q-8 -59 -8 -147q0 -84 18 -224q8 -73 19 -96q14 -35 57 -73q-211 65 -248 219q-18 77 -31 270q-6 102 -18 473
q0 74 -10 217q-15 78 -51 117q-27 27 -27 31q0 45 154 69q104 17 200 17z" />
    <glyph glyph-name="m" unicode="m" horiz-adv-x="1525" 
d="M1376 367l-2 -19q0 -67 16 -145q23 -94 60 -131q6 -6 6 -11q0 -26 -78 -45q-57 -14 -96 -14q-156 0 -156 176q0 76 30 225.5t30 225.5q0 94 -74 94q-113 0 -176 -240q-43 -170 -43 -331q0 -23 16 -47.5t16 -30.5q0 -33 -69 -51q-53 -15 -96 -15q-91 0 -125 45
q-31 39 -31 131q0 95 29 224q24 110 49 221q2 14 2 24q0 76 -92 76q-133 0 -207 -229q-55 -170 -55 -340q0 -54 6 -113q34 -10 34 -20q0 -17 -57 -17q-90 0 -134 37t-89 416q-39 328 -39 459q0 39 133 39q211 0 211 -140q0 -22 -27 -217q113 283 258 314q43 10 84 10
q222 0 205 -305q56 145 117 211q82 86 215 86q96 0 146.5 -58.5t50.5 -154.5q0 -31 -19 -148q-16 -92 -16 -170q0 -174 65 -297q-90 90 -98 275zM125 498q6 -392 63 -430q21 -17 45 -31q2 0 2 2q0 -4 -10 8q-16 25 -31 94q-22 119 -69 357z" />
    <glyph glyph-name="n" unicode="n" horiz-adv-x="948" 
d="M878 225q0 -100 41 -153q6 -11 6 -17q0 -32 -71 -53q-53 -16 -98 -16q-84 0 -117 45q-29 39 -29 127q0 78 29 245q18 103 18 132q0 45 -22.5 79.5t-59.5 36.5q-63 4 -116 -51q61 88 127 88q38 0 69 -41q25 -33 33 -76v2q0 50 -21 91q-26 55 -71 57q-133 4 -209 -232
q-57 -176 -57 -348q0 -53 6 -112q34 -11 34 -21q0 -16 -57 -16q-90 0 -135 37q-66 55 -82 403q-20 399 -43 465q-2 4 -2 6q0 39 133 39q211 0 211 -139q0 -23 -27 -217q113 282 258 313q43 10 84 10q207 0 207 -254q0 -71 -19.5 -214.5t-19.5 -215.5z" />
    <glyph glyph-name="o" unicode="o" horiz-adv-x="925" 
d="M532 944q183 0 279 -158q78 -131 78 -327q0 -187 -99 -322q-110 -149 -293 -149q-81 0 -167 32q-142 54 -213 191q-66 121 -66 283q0 94 25 186q32 115 90 158q39 26 102 34q137 72 264 72zM698 573h4h2q0 76 -67.5 169.5t-141.5 93.5q-30 0 -63 -13q2 -12 -8 -30
q-62 -109 -62 -289q0 -279 86 -389q23 -4 41 -4q58 0 84 43q17 26 31 96q25 117 25 221t-31 197q-43 127 -121 135q80 0 145 -78q52 -61 76 -152z" />
    <glyph glyph-name="p" unicode="p" horiz-adv-x="958" 
d="M417 682q45 113 92 162q64 67 166 67q144 0 197 -116q35 -78 35 -242q0 -352 -158 -479q-61 -51 -199 -51q-41 0 -94 8q-78 12 -78 30q0 7 19 13q96 39 145 84q55 53 86 147q-26 -63 -80 -112q-61 -54 -123 -54h-18q76 2 143 97q82 116 82 337q0 142 -63 142
q-70 0 -133 -170q-45 -117 -64 -230q-18 -120 -28 -372q-5 -117 -5 -187q0 -159 27 -198q10 -13 10 -17q-2 0 -4 -2q-24 0 -61 53q-29 43 -39 76q-23 68 -23 236q0 55 4 116q-16 -83 -16 -178q0 -127 18 -204q15 -50 25 -66q4 -8 45 -45q-162 49 -201 219q-24 107 -24 385
q0 70 2 209t2 209q0 139 -27 190q-4 4 -32 41q-23 29 -23 37q0 47 141 72q97 16 191 16q82 0 82 -59q0 -23 -19 -164z" />
    <glyph glyph-name="q" unicode="q" horiz-adv-x="989" 
d="M725 829q149 0 192 -65q21 -29 21 -168q0 -201 -39 -551q-25 -229 -25 -307q0 -135 15 -170q-54 37 -54 332q0 51 2 104l-2 -4q-26 -242 -26 -375q0 -69 8 -76q18 -10 37 -20q0 -4 -15 -4q-73 0 -122.5 38t-71.5 376q-6 84 -16 415q-168 -411 -332 -411q-8 0 -21 2
q-24 4 -57 28q-115 82 -115 295q0 35 2 72q-12 -31 -12 -94q0 -197 80 -244q-123 31 -123 279q0 139 49 307q60 196 146 270q30 23 77 31l82 8q19 2 29 2q12 0 18 -4q9 2 25 2q31 0 98 -12q78 -13 78 -27q0 -2 -8 -4q-117 -39 -209 -213q-86 -160 -86 -295q0 -45 16 -88
q21 -57 58 -57q53 0 121 178q18 45 73 231q-4 58 -24 172q-2 6 -2 9q0 38 133 38z" />
    <glyph glyph-name="r" unicode="r" horiz-adv-x="839" 
d="M655 381q66 90 66 184q0 74 -8 142q4 -37 4 -52q0 -145 -62 -274zM583 858q43 33 84 33q62 0 109 -66q41 -59 41 -125q0 -43 -21 -104q-16 -49 -55 -123q-51 -94 -80 -94q-12 0 -12 27q0 49 -27 124q-30 95 -36 123q-9 39 -27 39q-53 0 -131 -180q-64 -145 -78 -225
q-4 -23 -4 -144q0 -82 6 -135q37 -10 37 -20q0 -15 -59 -15q-99 0 -144 35q-72 58 -88 393q-20 387 -45 453l-2 6q0 39 141 39q226 0 226 -135q0 -35 -17 -135q82 205 182 229z" />
    <glyph glyph-name="s" unicode="s" horiz-adv-x="929" 
d="M375 676q0 -66 94 -98q409 -140 409 -336q0 -123 -145 -201q-123 -66 -256 -66q-137 0 -256 60q-129 65 -129 170q0 41 31 39q26 -68 153 -121q113 -47 199 -47q18 0 37 2q-88 2 -201 51q-129 59 -145 129q145 -121 352 -121q84 0 84 29q0 16 -27 47q-41 45 -188 104
q-213 82 -217 82q-53 27 -86 87.5t-33 121.5q0 54 18 111q48 135 181 192q43 21 67 21q15 0 37.5 -8.5t34.5 -8.5q8 0 119 11q8 41 55 41q12 0 35.5 -7.5t36.5 -7.5q12 0 33.5 5.5t33.5 5.5q64 0 140 -50q12 -8 12 -28q0 -33 -23.5 -95.5t-23.5 -95.5q0 -6 3 -21.5t3 -23.5
q0 -28 -24.5 -68t-51.5 -49q-6 -2 -18.5 -13t-20.5 -11q-6 0 -14 58.5t-37 174.5q-18 52 -76 109q-69 -12 -129 -57q-67 -54 -67 -117z" />
    <glyph glyph-name="t" unicode="t" horiz-adv-x="784" 
d="M565 909q188 -32 219 -53q10 -6 16 -20q4 -7 16.5 -12t12.5 -9q0 -6 -17 -6q-14 0 -42.5 7t-43.5 7q-39 0 -135 -16q-12 -2 -22 -4q0 -2 2 -2q30 0 71 -6q2 0 4 -4q-2 -3 -6 -5q-16 -6 -86 -20q-39 -479 -39 -715q0 -160 27 -198q8 -13 8 -15t-2 -2q-24 0 -61 51
q-29 45 -39 76q-25 72 -25 236q0 57 4 116q-14 -84 -14 -176q0 -125 18 -207q13 -51 25 -65q2 -6 45 -45q-164 51 -201 221q-30 137 -45 676l-145 -14q-4 -3 -15.5 6.5t-11.5 13.5q0 18 -6 20q-14 3 -18 11q-2 20 -9 57q-2 8 -11 15.5t-9 15.5l12 16q0 8 8 29q11 14 95 31
q65 10 104 14q-2 35 -8 102q-8 47 -43 94.5t-35 51.5q0 47 146 71q100 17 198 17q82 0 82 -62q0 -24 -24 -299z" />
    <glyph glyph-name="u" unicode="u" horiz-adv-x="976" 
d="M928 66q32 0 32 -11q0 -24 -57 -53q-43 -22 -77 -31.5t-66 -9.5q-37 0 -52 12q-63 52 -98 306q-80 -326 -219 -326q-111 0 -184 117q-58 90 -78 219q0 -4 -2 -47q-4 -95 40 -169.5t111 -92.5q-104 -5 -151 83q-39 70 -39 277q0 47 6 141t6 140q0 114 -41 165q-8 11 -8 19
q0 43 94 78q78 30 129 30q125 0 125 -184q0 -59 -13 -178t-13 -178q0 -178 88 -178q51 0 77 149q15 84 27 281q8 153 21 159q2 66 16 90q20 35 82 35q47 0 174 -39q24 -8 24 -211q0 -45 -2 -135v-135q0 -323 48 -323z" />
    <glyph glyph-name="v" unicode="v" horiz-adv-x="923" 
d="M847 696q10 0 29 78q4 17 8 33q2 0 2 -27q0 -98 -62 -270q-172 -485 -237 -533q-29 -20 -51 -20q-27 0 -43 27q-21 -11 -37 -11q-12 0 -21 4q-41 23 -112 265q8 -140 53 -228q-53 35 -160 377q-102 330 -160 348q-20 6 -20 19q0 43 92 96q84 49 133 49q17 0 27 -4
q78 -29 156 -309q45 -187 88 -373q79 303 79 465q0 135 -63 164q-10 6 -10 12q0 21 65 35q51 10 84 10q72 0 129 -33q19 -8 43 -30q4 -11 4 -27q0 -20 -9 -58t-9 -57q0 -2 2 -2z" />
    <glyph glyph-name="w" unicode="w" horiz-adv-x="1331" 
d="M1046 752q0 92 -47 116q-9 4 -11 11q4 32 142 32q178 0 178 -120q0 -68 -128 -414t-167 -373q-29 -22 -57 -22q-29 0 -56 18q-49 -20 -84 -20q-16 0 -28 6q-43 26 -134 391q-53 -184 -129 -381q-26 -21 -61 -21q-18 0 -39 7q-22 -7 -39 0q-94 36 -162 231q-26 76 -92 348
q-43 187 -80 199q-16 6 -16 14q0 41 94 92q88 49 133 49q13 0 27 -4q8 -2 20 -28q74 -129 125 -598q95 268 95 395q0 51 -17 80q-14 4 -14 16l-25 19q0 22 107 67q88 37 123 37q22 0 39 -6q69 -21 129 -299q12 -57 59 -354q115 354 115 512zM427 264q-18 66 -63 193
q-2 -4 -2 -8q0 -27 51 -224z" />
    <glyph glyph-name="x" unicode="x" horiz-adv-x="942" 
d="M616 438q94 -157 123 -198q103 -158 137 -172q15 -7 15 -13q0 -28 -109 -55q-90 -25 -135 -25q-49 0 -76.5 18.5t-124.5 184.5q-41 -67 -112 -170q-21 -24 -121 -24q-113 0 -113 20q0 14 62.5 114.5t62.5 110.5v2q-10 0 -85 -113.5t-81 -113.5q-2 2 -2 6q0 49 270 385
q-106 193 -116 213q-103 178 -127 185q-33 8 -33 24q0 39 66 68q53 24 96 24q55 0 102 -30q39 -23 154 -201q-49 108 -96 190q53 -45 147 -239q125 149 231 270q25 14 45 14q19 0 37.5 -14t18.5 -33q0 -57 -236 -428z" />
    <glyph glyph-name="y" unicode="y" horiz-adv-x="1005" 
d="M557 662q0 133 22 163q50 64 222 64q153 0 153 -39q0 -2 -2 -6q-22 -53 -27 -281q-10 -508 -12 -514q-22 -385 -106 -463q-37 -35 -115 -35t-70 33q64 6 64 289q0 104 -12 199l-2 2q6 -340 -72 -441q24 52 24 215q0 316 -51 506q-102 -368 -264 -368q-235 0 -235 256
q0 63 17 190t17 191q0 125 -51 194q-6 8 -6 14q0 41 80 72q67 27 115 27q26 0 45 -6q39 -13 53 -158q2 -16 6 -51q2 -13 2 -15q4 0 6 27q2 35 2 76q0 78 -10 108q39 -34 39 -118q0 -74 -32 -218.5t-32 -218.5q0 -139 88 -139q64 0 109 139q37 113 37 193q0 18 -2 57v56z" />
    <glyph glyph-name="z" unicode="z" horiz-adv-x="901" 
d="M389 172q164 29 215 41q152 35 195 76q4 4 8 6q18 0 32 -78q11 -55 11 -92q0 -152 -101 -152q-69 0 -210.5 25t-213.5 25q-94 0 -118 -27q-4 -2 -15.5 -25.5t-21.5 -23.5q-41 0 -77 63.5t-36 106.5q0 61 31 94q61 49 172 143q240 205 356 322q-168 -68 -430 -68
q-55 0 -72 6q-63 23 -63 168q0 150 39 150q4 0 6 -4q117 -78 424 -78q125 0 246 55q-99 -88 -330 -102h55q166 0 258 59q33 53 54 53q30 0 30 -57q0 -137 -268 -498q-65 -86 -176 -188z" />
    <glyph glyph-name="braceleft" unicode="{" horiz-adv-x="870" 
d="M727 -373q16 0 40.5 10.5t35.5 10.5q16 0 16 -19q0 -39 -53 -73q-33 -21 -123 -21q-193 0 -258 105q-51 79 -51 282q0 43 4 128t4 128q0 86 -23 98q-28 19 -104 23q-84 4 -113 14q-51 21 -51 86q0 15 6 21q-10 72 76 72q10 0 28.5 -2.5t28.5 -2.5q56 0 70 27q10 16 10 82
q0 49 -6 150.5t-6 150.5q0 213 77 284.5t298 71.5q129 0 151 9q6 4 8 4q21 0 21 -45q0 -109 -55 -109q-25 0 -86.5 25.5t-92.5 25.5q-16 0 -29.5 -7t-13.5 -118v-88q3 -67 3 -112q0 -338 -78 -404q-39 -35 -127 -35q-35 0 -72 9q227 -9 227 198q0 23 -2 41l-6 -6
q-18 -137 -68.5 -183t-189.5 -52q221 -13 297 -74q90 -74 90 -279q0 -51 -7 -154.5t-7 -154.5q0 -74 20 -84q68 -33 111 -33z" />
    <glyph glyph-name="bar" unicode="|" horiz-adv-x="411" 
d="M313 51q-18 -90 -18 -209q0 -118 18 -194q4 -15 25.5 -59t21.5 -48h-2q-112 0 -198 180q-66 140 -80 275q-29 258 -29 813q0 86 2 129q0 68 2 135q6 82 37 128t139 46q127 0 127 -53q0 -90 -11 -277.5t-11 -279.5q0 -94 2 -282.5t2 -282.5q0 -25 -2 -73t-2 -73
q0 -106 6 -202q-33 100 -33 237q0 76 4 90z" />
    <glyph glyph-name="braceright" unicode="}" horiz-adv-x="870" 
d="M141 -373q-14 0 -38.5 10.5t-35.5 10.5q-16 0 -16 -19q0 -39 53 -73q33 -21 123 -21q193 0 258 105q51 79 51 282q0 43 -4 128t-4 128q0 86 21 98q28 19 109 23t108 14q53 21 53 86q0 15 -6 21q10 72 -78 72q-8 0 -26.5 -2.5t-28.5 -2.5q-58 0 -72 27q-8 16 -8 82
q0 49 5 150.5t5 150.5q0 213 -75.5 284.5t-297.5 71.5q-129 0 -151 9q-6 4 -10 4q-19 0 -19 -45q0 -109 55 -109q23 0 85.5 25.5t93.5 25.5q16 0 29.5 -7t13.5 -118q0 -18 -2 -88v-112q0 -338 75 -404q41 -35 127 -35q35 0 72 9q-227 -9 -227 198q0 23 4 41l6 -6
q16 -137 66.5 -183t189.5 -52q-219 -13 -295 -74q-90 -74 -90 -279q0 -51 7 -154.5t7 -154.5q0 -74 -20 -84q-68 -33 -113 -33z" />
    <glyph glyph-name="asciitilde" unicode="~" horiz-adv-x="1216" 
d="M1151 739q39 -14 39 -67q0 -19 -4 -35q-95 -342 -297 -342q-93 0 -228 83t-229 83q-68 0 -117 -45q-12 -10 -78 -97q-20 -24 -57 -24q-53 0 -91 37t-38 88q0 112 114.5 206.5t229.5 94.5q123 0 219 -62q10 -6 137 -114q72 -62 140 -62q73 0 131 78q47 66 57 148
q2 -15 2 -27q0 -137 -117 -221q70 35 121 121q47 73 66 157z" />
    <glyph glyph-name="dieresis" unicode="&#xa8;" horiz-adv-x="1024" 
 />
    <glyph glyph-name="copyright" unicode="&#xa9;" 
d="M610 1227q164 0 303 -78q150 -84 209 -227q49 -121 49 -269q0 -139 -47 -266q-51 -147 -145 -225q-135 -111 -244 -129q-27 0 -80 -4q-86 -6 -80 -6q-225 0 -379 180q-145 172 -145 405q0 254 150 432q159 187 409 187zM612 88q14 27 53 35q31 6 64 10q70 23 139 88
q64 62 98 133q84 172 84 340q0 201 -116.5 312.5t-319.5 111.5q-254 0 -356 -219q-64 -137 -64 -274q0 -207 119 -336q51 -60 127 -103q84 -49 152 -49q10 0 20 2q-18 -12 -51 -12q-127 0 -231 109q51 -64 129.5 -107t152.5 -41zM850 465q0 -45 -59.5 -106.5t-190.5 -61.5
q-201 0 -197 278q-4 -14 -4 -45q0 -137 47 -172q-73 25 -73 205q0 84 22 182q29 121 74 164q22 23 98 23q8 0 12 -2q17 4 43 0q33 -6 41 -6q13 0 28 9t32 9q26 0 73 -20q15 -7 15 -50q0 -12 -2 -40.5t-2 -40.5q0 -15 6 -37.5t6 -32.5q0 -12 -10 -40t-17.5 -33t-9.5 -20.5
t-8 -15.5q-2 0 -13.5 37t-35.5 113q-29 69 -86 100q-92 -76 -92 -325q0 -148 102 -148q59 0 109 31q30 22 59 59q22 33 27 33q2 -2 2 -8t-2 -15.5t-2 -15.5t4 -4t4 -4z" />
    <glyph glyph-name="registered" unicode="&#xae;" horiz-adv-x="1214" 
d="M51 610q0 254 150 432q159 187 409 187q164 0 303 -78q152 -84 209 -227q41 -107 41 -236q0 -135 -47 -276q-51 -156 -137 -242q-115 -115 -264 -135q-21 0 -60 -4q-78 -6 -80 -6q-225 0 -379 180q-145 174 -145 405zM663 123q170 0 285 215q98 180 98 369
q0 198 -115.5 305.5t-316.5 107.5q-254 0 -356 -219q-64 -137 -64 -274q0 -207 119 -336q51 -60 127 -103q84 -49 152 -49q10 0 20 2q-18 -12 -51 -12q-127 0 -231 109q51 -64 129.5 -107t152.5 -41q19 33 51 33zM874 408h29q0 -25 -52 -61t-79 -36q-25 0 -72 39l-47 39v0
q0 -2 94 -96h-6q-37 0 -106.5 84t-69.5 196q0 17 11.5 38.5t25.5 21.5h6q88 92 88 178q0 43 -16 43q-13 0 -68 -27q-35 -18 -69 -36v-29q0 -23 3 -66t3 -65q0 -111 -23 -205q-35 -150 -110 -150h-3q9 19 21 54q6 30 6 78q0 67 -12 122q4 -41 4 -65q0 -55 -12 -98
q6 67 -2 198q-7 103 -13 205q-47 27 -47 117q0 71 15 71q2 0 4 -2q24 -43 147 -43q29 0 87 4.5t89 4.5q80 0 111 -15q51 -22 51 -92q0 -137 -195 -252q140 -155 207 -155z" />
    <glyph glyph-name="acute" unicode="&#xb4;" horiz-adv-x="499" 
d="M55 952q0 11 170 123q51 33 74 53q41 33 61 66q4 8 10 8q27 0 52 -55q22 -47 22 -78q0 -55 -63 -78q-25 -10 -133 -24q-89 -13 -121 -37q-19 -15 -31 -15q-41 0 -41 37z" />
    <glyph glyph-name="paragraph" unicode="&#xb6;" horiz-adv-x="1163" 
d="M995 1159q37 0 62.5 23.5t23.5 23.5q31 0 31 -139q0 -184 -86 -238q-4 -143 -10 -264q-2 -80 -9 -237q-12 -191 -12 -238q0 -57 4 -108q-20 86 -20 196q0 98 4 125q-19 -108 -19 -242q0 -94 11 -153q2 -14 18 -57.5t16 -49.5q0 -2 -2 -2q-4 0 -8 2q-143 74 -192 316
q-29 137 -29 395q0 43 5 130t5 130q0 35 -2 92q-37 17 -82 39q-8 -196 -14 -321q-4 -54 -25 -285q-16 -176 -16 -287q0 -90 8 -139q15 -96 15 -74q0 -6 -5 -6q-2 0 -10 4q-123 64 -170 285q-24 113 -33 348q-155 55 -274 195q-129 149 -129 305q0 317 469 317
q154 0 304.5 -43t170.5 -43zM457 666q2 125 8 374q-54 31 -68 31q-51 0 -51 -84q0 -160 111 -321z" />
    <glyph glyph-name="onequarter" unicode="&#xbc;" horiz-adv-x="1189" 
d="M1042 348q40 4 61 25q4 4 8 4q29 0 29 -66q0 -71 -66 -71q-14 0 -39 4q-2 -62 -2 -107q0 -90 11 -112q-45 61 -43 200v23l-5 2q-2 -25 -2 -53q0 -47 7 -93q4 -55 36 -86q-82 27 -108 97q-14 35 -21 149q-63 10 -96 8h-10q-19 -8 -51 -8q-6 -2 -20.5 -14t-20.5 -12
q-19 0 -29 36q-43 13 -43 35q0 53 100.5 218t147.5 167q35 17 102 15h6h15q10 2 14 2q41 0 41 -31q0 -62 -10 -166q-12 -143 -12 -166zM802 352l102 -6q0 84 -10 248q-78 -123 -92 -242zM337 1229q0 -12 -10 -154q-21 -248 -21 -358q0 -86 11 -109q-43 60 -43 203q0 27 2 53
q-7 -26 -7 -78q0 -59 5 -98q8 -57 38 -86q-104 33 -123.5 109.5t-18.5 229.5t-15 224q-4 -2 -36 -30.5t-36 -28.5q-2 2 -2 4q0 35 12 78q19 57 43 57q6 0 15 -6q28 21 145 21q41 0 41 -31zM296 145q23 158 123 445l131 383q29 82 68 248q8 63 90 63q159 0 159 -51
q0 -78 -202 -543l-258 -594q-37 -92 -90 -112q-11 -2 -17 -2q-8 0 -8 6t13.5 40.5t13.5 56t6 50.5q41 150 118 449q-59 -142 -147 -439z" />
    <glyph glyph-name="onehalf" unicode="&#xbd;" horiz-adv-x="1185" 
d="M337 1229q0 -12 -10 -154q-21 -248 -21 -358q0 -86 11 -109q-43 60 -43 203q0 27 2 53q-7 -26 -7 -78q0 -59 5 -98q8 -57 38 -86q-104 33 -123.5 109.5t-18.5 229.5t-15 224q-4 -2 -36 -30.5t-36 -28.5q-2 2 -2 4q0 35 12 78q19 57 43 57q6 0 15 -6q28 21 145 21
q41 0 41 -31zM296 145q23 158 123 445l131 383q29 82 68 248q8 63 90 63q159 0 159 -51q0 -78 -202 -543l-258 -594q-37 -92 -90 -112q-11 -2 -17 -2q-8 0 -8 6t13.5 40.5t13.5 56t6 50.5q41 150 118 449q-59 -142 -147 -439zM1109 180l6 4q29 -2 29 -94t-68 -92
q-43 0 -130 17.5t-132 17.5q-49 0 -78.5 -21.5l-29.5 -21.5q-17 0 -17 49q0 24 13 31q4 2 38 10q-32 4 -32 26q0 15 24 35q56 45 146 191q94 155 94 215q0 35 -45 35q-31 0 -84 -21q-41 -49 -53 -90q-9 -55 -27 -162q0 -4 -2 -8q-2 0 -4 5t-18.5 11.5t-31 36t-14.5 49.5
q0 5 2 16t2 17q0 23 -14 69t-14 68q0 21 33.5 39.5t54.5 18.5q8 0 20.5 -4t18.5 -4q8 0 22.5 5t20.5 5t12 -2q64 24 121 24q135 0 135 -106q0 -94 -84 -242q-80 -137 -164 -205q90 17 133 27q97 25 117 51zM798 90l47 10q74 76 145 199q-37 -53 -67 -90q-76 -94 -125 -119z
" />
    <glyph glyph-name="threequarters" unicode="&#xbe;" horiz-adv-x="1230" 
d="M453 1255q0 -20 -44.5 -104t-58.5 -90q0 14 -4 14q-6 0 -53 -55q153 -4 153 -174q0 -19 -4 -31v-2q-6 -49 -87 -108.5t-134 -61.5q43 12 107.5 67.5t76.5 96.5q-143 -154 -231 -154q-12 0 -39 11.5t-41 13.5q-29 2 -29 33q0 10 17 18q47 19 137 90q98 80 98 115
q0 16 -25.5 28.5t-45.5 12.5q-54 -41 -93 -41q-36 0 -40 22q-15 2 -15 11q0 6 23 16q6 6 16 14q137 105 137 179q0 47 -55 47q-27 0 -66 -15q-18 -30 -24 -74t-10 -83q-2 -4 -2 -7h-2q-15 13 -27 23q-23 20 -23 53q0 4 2 13v12q0 18 -10 52t-10 50q0 17 24.5 30t41.5 13
q6 0 15 -3t15 -3t16.5 4t14.5 4q8 0 10 -2q72 31 137 31q132 0 132 -66zM1104 348q41 4 61 25q4 4 8 4q29 0 29 -66q0 -71 -65 -71q-15 0 -39 4q-2 -62 -2 -107q0 -90 10 -112q-45 61 -43 200v23l-4 2q-2 -25 -2 -53q0 -47 6 -93q4 -55 37 -86q-82 27 -109 97
q-14 35 -20 149q-64 10 -97 8h-10q-18 -8 -51 -8q-6 -2 -20.5 -14t-20.5 -12q-18 0 -29 36q-43 13 -43 35q0 53 100.5 218t147.5 167q35 17 103 15h6h14q10 2 14 2q41 0 41 -31q0 -62 -10 -166q-12 -143 -12 -166zM864 352l103 -6q0 84 -11 248q-78 -123 -92 -242zM358 145
q23 158 123 445l131 383q29 82 68 248q8 63 90 63q160 0 160 -51q0 -78 -203 -543l-258 -594q-37 -92 -90 -112q-10 -2 -17 -2q-8 0 -8 6t13.5 40.5t13.5 56t6 50.5q41 150 119 449q-60 -142 -148 -439z" />
    <glyph glyph-name="Agrave" unicode="&#xc0;" horiz-adv-x="1386" 
d="M1327 115q39 0 39 -13q0 -34 -85 -81.5t-124 -47.5q-68 0 -146 220q-55 159 -76 280h-6q6 -207 129 -455q-82 105 -151 299q-21 50 -62 152q-155 -18 -272 -20q-127 -465 -201 -465q-49 0 -200.5 119.5t-151.5 156.5q0 6 6 6q8 0 21.5 -4t21.5 -4q103 0 221 205
q-188 22 -202 51q-2 6 -2 14q0 37 57 155t80 118q4 0 4 -8v-6.5v-6.5q2 -71 158 -121q57 156 176 463q-37 -121 -49 -170q-27 -100 -33 -176q65 225 116 338q-26 49 -51 74q-6 6 -6 12q0 29 78 64q57 24 102 35.5t78 11.5q35 0 51 -13q62 -38 177 -358q24 -72 133 -408
q34 -104 108 -313q41 -104 62 -104zM612 608q88 -12 192 -24q-45 123 -135 362q-20 -176 -57 -338zM518 1585q6 0 10 -6q33 -57 139.5 -141t165.5 -103q6 -2 8 -4q-2 -20 -55 -20q-10 0 -25 2q-133 20 -153 24q-101 23 -137 56q-27 22 -27 61q0 29 22 76q25 55 52 55z" />
    <glyph glyph-name="Aacute" unicode="&#xc1;" horiz-adv-x="1386" 
d="M1327 115q39 0 39 -13q0 -34 -85 -81.5t-124 -47.5q-68 0 -146 220q-55 159 -76 280h-6q6 -207 129 -455q-82 105 -151 299q-21 50 -62 152q-155 -18 -272 -20q-127 -465 -201 -465q-49 0 -200.5 119.5t-151.5 156.5q0 6 6 6q8 0 21.5 -4t21.5 -4q103 0 221 205
q-188 22 -202 51q-2 6 -2 14q0 37 57 155t80 118q4 0 4 -8v-6.5v-6.5q2 -71 158 -121q57 156 176 463q-37 -121 -49 -170q-27 -100 -33 -176q65 225 116 338q-26 49 -51 74q-6 6 -6 12q0 29 78 64q57 24 102 35.5t78 11.5q35 0 51 -13q62 -38 177 -358q24 -72 133 -408
q34 -104 108 -313q41 -104 62 -104zM612 608q88 -12 192 -24q-45 123 -135 362q-20 -176 -57 -338zM485 1321q0 10 170 123q51 33 74 53q41 33 61 66q4 8 10 8q27 0 51 -55q23 -48 23 -78q0 -56 -63 -78q-25 -10 -134 -25q-88 -12 -120 -37q-19 -14 -31 -14q-41 0 -41 37z
" />
    <glyph glyph-name="Acircumflex" unicode="&#xc2;" horiz-adv-x="1386" 
d="M1327 115q39 0 39 -13q0 -34 -85 -81.5t-124 -47.5q-68 0 -146 220q-55 159 -76 280h-6q6 -207 129 -455q-82 105 -151 299q-21 50 -62 152q-155 -18 -272 -20q-127 -465 -201 -465q-49 0 -200.5 119.5t-151.5 156.5q0 6 6 6q8 0 21.5 -4t21.5 -4q103 0 221 205
q-188 22 -202 51q-2 6 -2 14q0 37 57 155t80 118q4 0 4 -8v-6.5v-6.5q2 -71 158 -121q57 156 176 463q-37 -121 -49 -170q-27 -100 -33 -176q65 225 116 338q-26 49 -51 74q-6 6 -6 12q0 29 78 64q57 24 102 35.5t78 11.5q35 0 51 -13q62 -38 177 -358q24 -72 133 -408
q34 -104 108 -313q41 -104 62 -104zM612 608q88 -12 192 -24q-45 123 -135 362q-20 -176 -57 -338zM804 1466q23 -20 74 -49q60 -33 92 -33h8q7 -2 7 -8q0 -16 -30 -39.5t-58 -23.5q-43 0 -179 129q-39 -53 -108 -123q-17 -6 -35 -6q-23 0 -66 12q-49 12 -49 23q0 2 4 2
q29 4 96.5 90t67.5 110q0 19 39 19q31 0 78 -6q59 -11 59 -23q-10 -8 -24 -22q82 -97 184 -121q-74 2 -160 71v-2z" />
    <glyph glyph-name="Atilde" unicode="&#xc3;" horiz-adv-x="1386" 
d="M1327 115q39 0 39 -13q0 -34 -85 -81.5t-124 -47.5q-68 0 -146 220q-55 159 -76 280h-6q6 -207 129 -455q-82 105 -151 299q-21 50 -62 152q-155 -18 -272 -20q-127 -465 -201 -465q-49 0 -200.5 119.5t-151.5 156.5q0 6 6 6q8 0 21.5 -4t21.5 -4q103 0 221 205
q-188 22 -202 51q-2 6 -2 14q0 37 57 155t80 118q4 0 4 -8v-6.5v-6.5q2 -71 158 -121q57 156 176 463q-37 -121 -49 -170q-27 -100 -33 -176q65 225 116 338q-26 49 -51 74q-6 6 -6 12q0 29 78 64q57 24 102 35.5t78 11.5q35 0 51 -13q62 -38 177 -358q24 -72 133 -408
q34 -104 108 -313q41 -104 62 -104zM612 608q88 -12 192 -24q-45 123 -135 362q-20 -176 -57 -338zM940 1569q16 -10 16 -41q0 -62 -37 -137q-41 -86 -94 -86q-41 0 -98.5 49t-100.5 49q-37 0 -65.5 -49t-44.5 -49q-56 0 -56 73q0 60 46 120.5t104 60.5q67 0 125.5 -71
t89.5 -71q35 0 61 51q17 37 23 82v-16q2 -80 -51 -131q61 41 82 166z" />
    <glyph glyph-name="Egrave" unicode="&#xc8;" horiz-adv-x="1126" 
d="M1091 322q2 0 6 2l4 2q4 0 4 -11q0 -49 -55 -135q-47 -67 -94 -114q-113 -105 -289 -105q-148 0 -260 68q-205 121 -224 501h-4q-2 -20 -2 -51q0 -102 25 -211q35 -139 94 -180q-154 45 -172 430q-57 -16 -65 -16q-9 0 -9 4t13.5 9t13.5 10t18 24q7 4 27 14
q-6 266 66 496q-46 22 -99 86.5t-53 109.5q0 13 10 13q21 0 42.5 -38t66.5 -38t184 22q119 21 359 62q167 27 227 27q112 0 112 -209q0 -88 -14 -130t-344 -67q234 55 234 92q0 19 -172 23l-238 4q-41 -158 -45 -338q139 33 283 33q106 0 120 -11q4 -8 19.5 -22t15.5 -16
q0 -9 -9 -14t-9 -13q0 -6 3 -19.5t3 -21.5q0 -14 -14.5 -20.5t-14.5 -12.5q0 -2 2 -6v-4q0 -6 -10 -14.5t-16 -8.5q-123 -10 -371 -20q16 -334 125 -383q49 -23 86 -23q80 0 180 66q72 45 150 121l67 65q4 0 10.5 -16t12.5 -16zM374 1565q6 0 10 -6q33 -58 139.5 -142
t165.5 -102q6 -2 9 -4q-3 -21 -56 -21q-10 0 -24 2q-133 21 -154 25q-100 22 -137 55q-27 23 -27 62q0 28 23 75q24 56 51 56z" />
    <glyph glyph-name="Eacute" unicode="&#xc9;" horiz-adv-x="1126" 
d="M1091 322q2 0 6 2l4 2q4 0 4 -11q0 -49 -55 -135q-47 -67 -94 -114q-113 -105 -289 -105q-148 0 -260 68q-205 121 -224 501h-4q-2 -20 -2 -51q0 -102 25 -211q35 -139 94 -180q-154 45 -172 430q-57 -16 -65 -16q-9 0 -9 4t13.5 9t13.5 10t18 24q7 4 27 14
q-6 266 66 496q-46 22 -99 86.5t-53 109.5q0 13 10 13q21 0 42.5 -38t66.5 -38t184 22q119 21 359 62q167 27 227 27q112 0 112 -209q0 -88 -14 -130t-344 -67q234 55 234 92q0 19 -172 23l-238 4q-41 -158 -45 -338q139 33 283 33q106 0 120 -11q4 -8 19.5 -22t15.5 -16
q0 -9 -9 -14t-9 -13q0 -6 3 -19.5t3 -21.5q0 -14 -14.5 -20.5t-14.5 -12.5q0 -2 2 -6v-4q0 -6 -10 -14.5t-16 -8.5q-123 -10 -371 -20q16 -334 125 -383q49 -23 86 -23q80 0 180 66q72 45 150 121l67 65q4 0 10.5 -16t12.5 -16zM341 1300q0 11 170 123q51 33 74 54
q41 32 61 65q4 8 11 8q26 0 51 -55q22 -47 22 -78q0 -55 -63 -78q-25 -10 -133 -24q-88 -12 -121 -37q-19 -14 -31 -14q-41 0 -41 36z" />
    <glyph glyph-name="Ecircumflex" unicode="&#xca;" horiz-adv-x="1126" 
d="M1091 322q2 0 6 2l4 2q4 0 4 -11q0 -49 -55 -135q-47 -67 -94 -114q-113 -105 -289 -105q-148 0 -260 68q-205 121 -224 501h-4q-2 -20 -2 -51q0 -102 25 -211q35 -139 94 -180q-154 45 -172 430q-57 -16 -65 -16q-9 0 -9 4t13.5 9t13.5 10t18 24q7 4 27 14
q-6 266 66 496q-46 22 -99 86.5t-53 109.5q0 13 10 13q21 0 42.5 -38t66.5 -38t184 22q119 21 359 62q167 27 227 27q112 0 112 -209q0 -88 -14 -130t-344 -67q234 55 234 92q0 19 -172 23l-238 4q-41 -158 -45 -338q139 33 283 33q106 0 120 -11q4 -8 19.5 -22t15.5 -16
q0 -9 -9 -14t-9 -13q0 -6 3 -19.5t3 -21.5q0 -14 -14.5 -20.5t-14.5 -12.5q0 -2 2 -6v-4q0 -6 -10 -14.5t-16 -8.5q-123 -10 -371 -20q16 -334 125 -383q49 -23 86 -23q80 0 180 66q72 45 150 121l67 65q4 0 10.5 -16t12.5 -16zM620 1446q22 -21 73 -49q60 -33 93 -33h8
q6 -2 6 -8q0 -17 -29.5 -40.5t-58.5 -23.5q-43 0 -178 129q-39 -53 -109 -123q-16 -6 -35 -6q-22 0 -65 13q-49 12 -49 22q0 2 4 2q28 4 96 90t68 111q0 18 38 18q31 0 78 -6q60 -10 60 -22q-11 -9 -25 -23q82 -96 184 -121q-73 2 -159 72v-2z" />
    <glyph glyph-name="Igrave" unicode="&#xcc;" horiz-adv-x="589" 
d="M251 1282q176 0 227 -65q25 -31 25 -158q0 -139 -31.5 -419t-31.5 -421t12 -192q-68 41 -68 387q0 43 2 84l-4 -2q-26 -246 -26 -396q0 -92 14 -98q37 -14 37 -16q0 -13 -60 -13q-96 0 -133 27q-65 51 -86 426q-4 236 -8 471q-2 135 -6 172q-6 117 -27 164q0 2 -2 8
q0 41 166 41zM149 1565q6 0 10 -6q33 -58 139.5 -142t165.5 -102q6 -2 8 -4q-2 -21 -55 -21q-10 0 -25 2q-133 21 -153 25q-101 22 -137 55q-27 23 -27 62q0 28 23 75q24 56 51 56z" />
    <glyph glyph-name="Iacute" unicode="&#xcd;" horiz-adv-x="589" 
d="M252 1282q176 0 227 -65q25 -31 25 -158q0 -139 -32 -419t-32 -421t13 -192q-68 41 -68 387q0 43 2 84l-4 -2q-27 -246 -27 -396q0 -92 15 -98q37 -14 37 -16q0 -13 -60 -13q-96 0 -133 27q-66 51 -86 426q-4 236 -8 471q-2 135 -6 172q-6 117 -27 164q0 2 -2 8
q0 41 166 41zM96 1321q0 10 170 123q51 33 74 53q41 33 61 66q4 8 11 8q26 0 51 -55q22 -48 22 -78q0 -56 -63 -78q-25 -10 -133 -25q-88 -12 -121 -37q-19 -14 -31 -14q-41 0 -41 37z" />
    <glyph glyph-name="Eth" unicode="&#xd0;" horiz-adv-x="1077" 
d="M82 549q-68 63 -68 125q0 24 76 28q10 109 26 246q-65 64 -65 226q0 149 26 149q5 0 7 -6q28 -57 102 -82q43 6 72 -10q59 -2 135 24q100 35 199 35q215 0 331.5 -131t116.5 -350q0 -98 -27 -228q-100 -466 -448 -571l-29 12q-20 0 -61 9.5t-62 9.5q-28 0 -68 -33
t-73 -33q-49 0 -111 54q-84 71 -84 391q0 65 5 135zM374 711q160 -6 189 -25q49 -31 49 -70q0 -20 -15.5 -40.5t-37.5 -20.5q-29 0 -86 12q-68 17 -90 19v-8q137 -17 170 -52q-111 17 -168 21l6 -86q12 -191 82 -311q123 51 217 192q82 123 119 270q-31 -102 -124 -207.5
t-194 -164.5q135 114 207 268q43 92 43 219q0 115 -35 231q-51 160 -139 160q-51 0 -115 -67q-90 -97 -98 -103q12 -98 20 -237z" />
    <glyph glyph-name="Ograve" unicode="&#xd2;" 
d="M618 1325q183 0 318 -84q116 -72 182 -256q53 -156 53 -319q0 -162 -55 -304q-49 -120 -133 -215q-107 -120 -209 -120q-12 0 -25 2q-65 -47 -180 -47q-45 0 -78 6q-123 22 -239 139q-109 106 -158 231q-43 109 -43 250q0 391 170 529q-4 59 184 147q86 41 213 41z
M602 137q2 0 57 27q140 69 140 528q0 193 -17 283q-39 188 -162 188q-55 0 -143 -35q-23 -34 -66 -110q-71 -146 -71 -361q0 -116 14 -159q6 -17 12 -15q-4 45 -4 95q0 280 82 417q-35 -258 -35 -366q0 -105 25 -217q31 -133 84 -199q61 -76 84 -76zM416 1585q6 0 10 -6
q33 -57 139.5 -141t165.5 -103q6 -2 8 -4q-2 -20 -55 -20q-10 0 -25 2q-133 20 -153 24q-101 23 -138 56q-26 22 -26 61q0 29 22 76q25 55 52 55z" />
    <glyph glyph-name="Oacute" unicode="&#xd3;" 
d="M618 1325q183 0 318 -84q116 -72 182 -256q53 -156 53 -319q0 -162 -55 -304q-49 -120 -133 -215q-107 -120 -209 -120q-12 0 -25 2q-65 -47 -180 -47q-45 0 -78 6q-123 22 -239 139q-109 106 -158 231q-43 109 -43 250q0 391 170 529q-4 59 184 147q86 41 213 41z
M602 137q2 0 57 27q140 69 140 528q0 193 -17 283q-39 188 -162 188q-55 0 -143 -35q-23 -34 -66 -110q-71 -146 -71 -361q0 -116 14 -159q6 -17 12 -15q-4 45 -4 95q0 280 82 417q-35 -258 -35 -366q0 -105 25 -217q31 -133 84 -199q61 -76 84 -76zM383 1321q0 10 170 123
q51 33 73 53q41 33 62 66q4 8 10 8q27 0 51 -55q23 -48 23 -78q0 -56 -64 -78q-24 -10 -133 -25q-88 -12 -121 -37q-18 -14 -30 -14q-41 0 -41 37z" />
    <glyph glyph-name="Ocircumflex" unicode="&#xd4;" 
d="M618 1325q183 0 318 -84q116 -72 182 -256q53 -156 53 -319q0 -162 -55 -304q-49 -120 -133 -215q-107 -120 -209 -120q-12 0 -25 2q-65 -47 -180 -47q-45 0 -78 6q-123 22 -239 139q-109 106 -158 231q-43 109 -43 250q0 391 170 529q-4 59 184 147q86 41 213 41z
M602 137q2 0 57 27q140 69 140 528q0 193 -17 283q-39 188 -162 188q-55 0 -143 -35q-23 -34 -66 -110q-71 -146 -71 -361q0 -116 14 -159q6 -17 12 -15q-4 45 -4 95q0 280 82 417q-35 -258 -35 -366q0 -105 25 -217q31 -133 84 -199q61 -76 84 -76zM682 1466q22 -20 74 -49
q59 -33 92 -33h8q6 -2 6 -8q0 -16 -29.5 -39.5t-58.5 -23.5q-43 0 -178 129q-39 -53 -109 -123q-16 -6 -35 -6q-22 0 -65 12q-49 12 -49 23q0 2 4 2q28 4 96 90t68 110q0 19 39 19q30 0 77 -6q60 -11 60 -23q-10 -8 -25 -22q82 -97 185 -121q-74 2 -160 71v-2z" />
    <glyph glyph-name="Otilde" unicode="&#xd5;" 
d="M618 1325q183 0 318 -84q116 -72 182 -256q53 -156 53 -319q0 -162 -55 -304q-49 -120 -133 -215q-107 -120 -209 -120q-12 0 -25 2q-65 -47 -180 -47q-45 0 -78 6q-123 22 -239 139q-109 106 -158 231q-43 109 -43 250q0 391 170 529q-4 59 184 147q86 41 213 41z
M602 137q2 0 57 27q140 69 140 528q0 193 -17 283q-39 188 -162 188q-55 0 -143 -35q-23 -34 -66 -110q-71 -146 -71 -361q0 -116 14 -159q6 -17 12 -15q-4 45 -4 95q0 280 82 417q-35 -258 -35 -366q0 -105 25 -217q31 -133 84 -199q61 -76 84 -76zM817 1589q16 -10 16 -41
q0 -61 -37 -137q-40 -86 -94 -86q-41 0 -98 49t-100 49q-37 0 -66 -49t-45 -49q-55 0 -55 74q0 59 46 119.5t103 60.5q68 0 126.5 -70.5t88.5 -70.5q35 0 62 51q16 37 22 82v-17q2 -79 -51 -131q61 41 82 166z" />
    <glyph glyph-name="Ugrave" unicode="&#xd9;" horiz-adv-x="1118" 
d="M848 842q0 168 -70 368q-2 9 -2 15q0 49 100 49q125 0 152 -72q39 -112 39 -375q0 -311 -86 -532q-119 -305 -377 -305q-152 0 -234 28q-90 31 -176 183q-67 121 -102 248q-41 157 -41 456q0 217 28.5 297t211.5 80q180 0 180 -86q0 -10 -6 -27q-72 -208 -72 -528
q0 -131 29 -285q39 -217 110 -211h8q27 -14 56 -14q123 0 172 205q28 123 28 297q0 100 -20 297q-25 215 -49 282q47 -61 82 -202q35 -129 35 -219q0 -21 -5 -33q9 26 9 84zM416 1544q6 0 10 -6q33 -57 139.5 -141t165.5 -103q6 -2 8 -4q-2 -20 -55 -20q-10 0 -25 2
q-133 20 -153 24q-101 23 -138 56q-26 22 -26 61q0 29 22 76q25 55 52 55z" />
    <glyph glyph-name="Uacute" unicode="&#xda;" horiz-adv-x="1118" 
d="M848 842q0 168 -70 368q-2 9 -2 15q0 49 100 49q125 0 152 -72q39 -112 39 -375q0 -311 -86 -532q-119 -305 -377 -305q-152 0 -234 28q-90 31 -176 183q-67 121 -102 248q-41 157 -41 456q0 217 28.5 297t211.5 80q180 0 180 -86q0 -10 -6 -27q-72 -208 -72 -528
q0 -131 29 -285q39 -217 110 -211h8q27 -14 56 -14q123 0 172 205q28 123 28 297q0 100 -20 297q-25 215 -49 282q47 -61 82 -202q35 -129 35 -219q0 -21 -5 -33q9 26 9 84zM403 1300q0 11 170 123q51 33 74 54q41 32 61 65q5 8 11 8q26 0 51 -55q22 -47 22 -78
q0 -55 -63 -78q-25 -10 -133 -24q-88 -12 -121 -37q-18 -14 -31 -14q-41 0 -41 36z" />
    <glyph glyph-name="Yacute" unicode="&#xdd;" horiz-adv-x="1196" 
d="M544 666q76 237 103 305q80 200 161 262q46 31 140 31q53 0 129 -15q106 -22 106 -53q0 -12 -30 -27q-64 -26 -99 -57q-141 -121 -268 -526q-37 -117 -37 -301q0 -82 31 -185q-64 86 -64 252q0 68 4 152q-18 -31 -18 -150q0 -194 76 -301q6 -8 6 -16q0 -29 -66 -45
q-47 -12 -92 -12q-203 0 -203 163q0 107 60 316q-105 186 -209 372q-150 261 -242 316q-12 8 -12 18q0 33 61 74q50 31 91 47q49 17 90 17q67 0 106 -48q55 -65 117 -282q57 -203 59 -307zM450 862q21 -39 43 -117q25 -83 39 -118l8 26q-6 6 -18 49q-19 58 -31 84
q-18 50 -41 76zM483 1300q0 11 170 123q51 33 74 54q41 32 61 65q4 8 10 8q27 0 52 -55q22 -47 22 -78q0 -55 -63 -78q-25 -10 -134 -24q-88 -12 -120 -37q-19 -14 -31 -14q-41 0 -41 36z" />
    <glyph glyph-name="agrave" unicode="&#xe0;" horiz-adv-x="1001" 
d="M995 70q0 -43 -76 -82q-67 -35 -114 -35q-23 0 -43 6q-103 27 -140 412q-163 -391 -309 -387h-4q-119 4 -166 30q-55 35 -80 140q-12 53 -12 122q0 144 47 322q59 215 146 274q75 54 198 54q39 0 119 -15q100 -16 100 -37q0 -2 -6 -4q-121 -39 -217 -215
q-88 -161 -88 -299q0 -43 16 -86q21 -55 56 -55q69 0 164 311q12 31 26 86q-2 43 12 121q52 123 197 123q37 0 59.5 -8t26.5 -225q2 -127 4 -256q0 -72 14 -211q15 -70 42.5 -70t27.5 -16zM282 352q0 -59 31 -106q33 -58 86 -58q10 0 21 2q-50 5 -78 76q-23 56 -23 117
q0 100 33 209q-70 -125 -70 -240zM426 1237q6 0 10 -6q33 -57 139.5 -141t165.5 -103q6 -2 8 -4q-2 -20 -55 -20q-10 0 -25 2q-133 20 -153 24q-100 23 -137 55q-27 23 -27 62q0 29 23 76q24 55 51 55z" />
    <glyph glyph-name="aacute" unicode="&#xe1;" horiz-adv-x="1001" 
d="M995 70q0 -43 -76 -82q-67 -35 -114 -35q-23 0 -43 6q-103 27 -140 412q-163 -391 -309 -387h-4q-119 4 -166 30q-55 35 -80 140q-12 53 -12 122q0 144 47 322q59 215 146 274q75 54 198 54q39 0 119 -15q100 -16 100 -37q0 -2 -6 -4q-121 -39 -217 -215
q-88 -161 -88 -299q0 -43 16 -86q21 -55 56 -55q69 0 164 311q12 31 26 86q-2 43 12 121q52 123 197 123q37 0 59.5 -8t26.5 -225q2 -127 4 -256q0 -72 14 -211q15 -70 42.5 -70t27.5 -16zM282 352q0 -59 31 -106q33 -58 86 -58q10 0 21 2q-50 5 -78 76q-23 56 -23 117
q0 100 33 209q-70 -125 -70 -240zM352 993q0 11 170 123q51 33 74 53q41 33 61 66q4 8 10 8q27 0 52 -55q22 -47 22 -78q0 -55 -63 -78q-25 -10 -133 -24q-88 -13 -121 -37q-19 -15 -31 -15q-41 0 -41 37z" />
    <glyph glyph-name="acircumflex" unicode="&#xe2;" horiz-adv-x="1001" 
d="M995 70q0 -43 -76 -82q-67 -35 -114 -35q-23 0 -43 6q-103 27 -140 412q-163 -391 -309 -387h-4q-119 4 -166 30q-55 35 -80 140q-12 53 -12 122q0 144 47 322q59 215 146 274q75 54 198 54q39 0 119 -15q100 -16 100 -37q0 -2 -6 -4q-121 -39 -217 -215
q-88 -161 -88 -299q0 -43 16 -86q21 -55 56 -55q69 0 164 311q12 31 26 86q-2 43 12 121q52 123 197 123q37 0 59.5 -8t26.5 -225q2 -127 4 -256q0 -72 14 -211q15 -70 42.5 -70t27.5 -16zM282 352q0 -59 31 -106q33 -58 86 -58q10 0 21 2q-50 5 -78 76q-23 56 -23 117
q0 100 33 209q-70 -125 -70 -240zM631 1098q22 -21 73 -49q60 -33 92 -33h9q6 -2 6 -8q0 -17 -30 -40.5t-58 -23.5q-43 0 -178 129q-39 -53 -109 -123q-16 -6 -35 -6q-22 0 -65 12q-49 13 -49 23q0 2 4 2q28 4 95.5 90t67.5 111q0 18 39 18q31 0 78 -6q60 -10 60 -23
q-11 -8 -25 -22q82 -96 184 -121q-73 2 -159 72v-2z" />
    <glyph glyph-name="atilde" unicode="&#xe3;" horiz-adv-x="1001" 
d="M995 70q0 -43 -76 -82q-67 -35 -114 -35q-23 0 -43 6q-103 27 -140 412q-163 -391 -309 -387h-4q-119 4 -166 30q-55 35 -80 140q-12 53 -12 122q0 144 47 322q59 215 146 274q75 54 198 54q39 0 119 -15q100 -16 100 -37q0 -2 -6 -4q-121 -39 -217 -215
q-88 -161 -88 -299q0 -43 16 -86q21 -55 56 -55q69 0 164 311q12 31 26 86q-2 43 12 121q52 123 197 123q37 0 59.5 -8t26.5 -225q2 -127 4 -256q0 -72 14 -211q15 -70 42.5 -70t27.5 -16zM282 352q0 -59 31 -106q33 -58 86 -58q10 0 21 2q-50 5 -78 76q-23 56 -23 117
q0 100 33 209q-70 -125 -70 -240zM766 1221q16 -11 16 -41q0 -62 -37 -138q-41 -86 -94 -86q-41 0 -98.5 49.5t-100.5 49.5q-36 0 -65 -49.5t-45 -49.5q-55 0 -55 74q0 60 46 120t103 60q68 0 126 -70.5t89 -70.5q35 0 62 51q16 37 22 82v-16q2 -80 -51 -131q61 41 82 166z
" />
    <glyph glyph-name="egrave" unicode="&#xe8;" horiz-adv-x="874" 
d="M375 371q4 -273 182 -273q78 0 143 54q35 26 107 112q2 4 8 8q8 0 8 -30q0 -47 -33 -103q-102 -170 -336 -174l-22 -2q-381 -6 -381 479q0 105 25 205q30 125 86 187q26 26 73 38q41 11 82 19q23 8 33 8q8 0 12 -4q21 10 76 10q37 0 72 -4q51 23 76 23q94 0 162.5 -75
t68.5 -169q0 -238 -320 -330q-47 -14 -86 -14q-14 0 -26 2q147 18 209 123l-2 -2q-97 -80 -217 -88zM375 408q196 51 196 282q0 82 -94 113q-96 -150 -102 -395zM293 1237q6 0 10 -6q33 -57 139.5 -141t165.5 -103q6 -2 8 -4q-2 -20 -55 -20q-10 0 -25 2q-133 20 -153 24
q-101 23 -137 55q-27 23 -27 62q0 29 22 76q25 55 52 55z" />
    <glyph glyph-name="eacute" unicode="&#xe9;" horiz-adv-x="874" 
d="M375 371q4 -273 182 -273q78 0 143 54q35 26 107 112q2 4 8 8q8 0 8 -30q0 -47 -33 -103q-102 -170 -336 -174l-22 -2q-381 -6 -381 479q0 105 25 205q30 125 86 187q26 26 73 38q41 11 82 19q23 8 33 8q8 0 12 -4q21 10 76 10q37 0 72 -4q51 23 76 23q94 0 162.5 -75
t68.5 -169q0 -238 -320 -330q-47 -14 -86 -14q-14 0 -26 2q147 18 209 123l-2 -2q-97 -80 -217 -88zM375 408q196 51 196 282q0 82 -94 113q-96 -150 -102 -395zM219 973q0 10 170 123q51 32 74 53q41 33 61 65q4 9 10 9q27 0 52 -56q22 -47 22 -77q0 -56 -63 -78
q-25 -11 -134 -25q-88 -12 -120 -37q-19 -14 -31 -14q-41 0 -41 37z" />
    <glyph glyph-name="ecircumflex" unicode="&#xea;" horiz-adv-x="874" 
d="M375 371q4 -273 182 -273q78 0 143 54q35 26 107 112q2 4 8 8q8 0 8 -30q0 -47 -33 -103q-102 -170 -336 -174l-22 -2q-381 -6 -381 479q0 105 25 205q30 125 86 187q26 26 73 38q41 11 82 19q23 8 33 8q8 0 12 -4q21 10 76 10q37 0 72 -4q51 23 76 23q94 0 162.5 -75
t68.5 -169q0 -238 -320 -330q-47 -14 -86 -14q-14 0 -26 2q147 18 209 123l-2 -2q-97 -80 -217 -88zM375 408q196 51 196 282q0 82 -94 113q-96 -150 -102 -395zM538 1098q23 -21 74 -49q60 -33 92 -33h9q6 -2 6 -8q0 -17 -30 -40.5t-58 -23.5q-43 0 -179 129
q-39 -53 -108 -123q-17 -6 -35 -6q-22 0 -65 12q-50 13 -50 23q0 2 4 2q29 4 96.5 90t67.5 111q0 18 39 18q31 0 78 -6q59 -10 59 -23q-10 -8 -24 -22q82 -96 184 -121q-74 2 -160 72v-2z" />
    <glyph glyph-name="igrave" unicode="&#xec;" horiz-adv-x="501" 
d="M450 786q0 -59 -17 -149q-12 -72 -24 -145q-19 -123 -19 -297q0 -127 25 -168q2 -4 2 -9q0 -26 -80 -26q-35 0 -80 12q-63 53 -108 451v-29q-2 -291 75 -412q-18 9 -26 15q-60 43 -82 225q-8 57 -23 350q-12 209 -41 281q-2 4 -2 6q0 39 156 39q244 0 244 -144zM108 1257
q6 0 10 -6q33 -57 139.5 -141t165.5 -102q6 -2 8 -4q-2 -21 -55 -21q-10 0 -25 2q-133 21 -153 25q-101 22 -137 55q-27 22 -27 61q0 29 23 76q24 55 51 55z" />
    <glyph glyph-name="iacute" unicode="&#xed;" horiz-adv-x="501" 
d="M450 786q0 -59 -17 -149q-12 -72 -24 -145q-19 -123 -19 -297q0 -127 25 -168q2 -4 2 -9q0 -26 -80 -26q-35 0 -80 12q-63 53 -108 451v-29q-2 -291 75 -412q-18 9 -26 15q-60 43 -82 225q-8 57 -23 350q-12 209 -41 281q-2 4 -2 6q0 39 156 39q244 0 244 -144zM34 1014
q0 10 170 123q51 32 74 53q41 33 61 65q4 9 10 9q27 0 52 -56q22 -47 22 -78q0 -55 -63 -77q-25 -11 -133 -25q-89 -12 -121 -37q-19 -14 -31 -14q-41 0 -41 37z" />
    <glyph glyph-name="ograve" unicode="&#xf2;" horiz-adv-x="925" 
d="M532 944q183 0 279 -158q78 -131 78 -327q0 -187 -99 -322q-110 -149 -293 -149q-81 0 -167 32q-142 54 -213 191q-66 121 -66 283q0 94 25 186q32 115 90 158q39 26 102 34q137 72 264 72zM698 573h4h2q0 76 -67.5 169.5t-141.5 93.5q-30 0 -63 -13q2 -12 -8 -30
q-62 -109 -62 -289q0 -279 86 -389q23 -4 41 -4q58 0 84 43q17 26 31 96q25 117 25 221t-31 197q-43 127 -121 135q80 0 145 -78q52 -61 76 -152zM313 1257q6 0 10 -6q33 -57 139.5 -141t166.5 -102q6 -2 8 -4q-2 -21 -56 -21q-10 0 -24 2q-133 21 -154 25q-100 22 -137 55
q-27 22 -27 61q0 29 23 76q25 55 51 55z" />
    <glyph glyph-name="oacute" unicode="&#xf3;" horiz-adv-x="925" 
d="M532 944q183 0 279 -158q78 -131 78 -327q0 -187 -99 -322q-110 -149 -293 -149q-81 0 -167 32q-142 54 -213 191q-66 121 -66 283q0 94 25 186q32 115 90 158q39 26 102 34q137 72 264 72zM698 573h4h2q0 76 -67.5 169.5t-141.5 93.5q-30 0 -63 -13q2 -12 -8 -30
q-62 -109 -62 -289q0 -279 86 -389q23 -4 41 -4q58 0 84 43q17 26 31 96q25 117 25 221t-31 197q-43 127 -121 135q80 0 145 -78q52 -61 76 -152zM260 993q0 11 170 123q51 33 74 53q41 33 61 66q4 8 10 8q27 0 51 -55q23 -47 23 -78q0 -55 -63 -78q-25 -10 -134 -24
q-88 -13 -120 -37q-19 -15 -31 -15q-41 0 -41 37z" />
    <glyph glyph-name="ocircumflex" unicode="&#xf4;" horiz-adv-x="925" 
d="M532 944q183 0 279 -158q78 -131 78 -327q0 -187 -99 -322q-110 -149 -293 -149q-81 0 -167 32q-142 54 -213 191q-66 121 -66 283q0 94 25 186q32 115 90 158q39 26 102 34q137 72 264 72zM698 573h4h2q0 76 -67.5 169.5t-141.5 93.5q-30 0 -63 -13q2 -12 -8 -30
q-62 -109 -62 -289q0 -279 86 -389q23 -4 41 -4q58 0 84 43q17 26 31 96q25 117 25 221t-31 197q-43 127 -121 135q80 0 145 -78q52 -61 76 -152zM559 1098q22 -21 74 -49q59 -33 92 -33h8q6 -2 6 -8q0 -17 -29.5 -40.5t-58.5 -23.5q-43 0 -178 129q-39 -53 -109 -123
q-16 -6 -34 -6q-23 0 -66 12q-49 13 -49 23q0 2 4 2q29 4 96.5 90t67.5 111q0 18 39 18q30 0 78 -6q59 -10 59 -23q-10 -8 -25 -22q82 -96 185 -121q-74 2 -160 72v-2z" />
    <glyph glyph-name="otilde" unicode="&#xf5;" horiz-adv-x="925" 
d="M532 944q183 0 279 -158q78 -131 78 -327q0 -187 -99 -322q-110 -149 -293 -149q-81 0 -167 32q-142 54 -213 191q-66 121 -66 283q0 94 25 186q32 115 90 158q39 26 102 34q137 72 264 72zM698 573h4h2q0 76 -67.5 169.5t-141.5 93.5q-30 0 -63 -13q2 -12 -8 -30
q-62 -109 -62 -289q0 -279 86 -389q23 -4 41 -4q58 0 84 43q17 26 31 96q25 117 25 221t-31 197q-43 127 -121 135q80 0 145 -78q52 -61 76 -152zM653 1241q16 -10 16 -41q0 -61 -36 -137q-41 -86 -95 -86q-41 0 -98 49t-100 49q-37 0 -65.5 -49t-45.5 -49q-55 0 -55 74
q0 59 46 119.5t103 60.5q68 0 126.5 -70.5t88.5 -70.5q35 0 62 51q16 37 22 82v-17q2 -80 -51 -131q62 41 82 166z" />
    <glyph glyph-name="divide" unicode="&#xf7;" horiz-adv-x="1706" 
 />
    <glyph glyph-name="glyph217" unicode="&#xf9;" horiz-adv-x="976" 
d="M928 66q32 0 32 -11q0 -24 -57 -53q-43 -22 -77 -31.5t-66 -9.5q-37 0 -52 12q-63 52 -98 306q-80 -326 -219 -326q-111 0 -184 117q-58 90 -78 219q0 -4 -2 -47q-4 -95 40 -169.5t111 -92.5q-104 -5 -151 83q-39 70 -39 277q0 47 6 141t6 140q0 114 -41 165q-8 11 -8 19
q0 43 94 78q78 30 129 30q125 0 125 -184q0 -59 -13 -178t-13 -178q0 -178 88 -178q51 0 77 149q15 84 27 281q8 153 21 159q2 66 16 90q20 35 82 35q47 0 174 -39q24 -8 24 -211q0 -45 -2 -135v-135q0 -323 48 -323zM313 1237q6 0 10 -6q33 -57 139.5 -141t166.5 -103
q6 -2 8 -4q-2 -20 -56 -20q-10 0 -24 2q-133 20 -154 24q-100 23 -137 55q-27 23 -27 62q0 29 23 76q25 55 51 55z" />
    <glyph glyph-name="glyph218" unicode="&#xfa;" horiz-adv-x="976" 
d="M928 66q32 0 32 -11q0 -24 -57 -53q-43 -22 -77 -31.5t-66 -9.5q-37 0 -52 12q-63 52 -98 306q-80 -326 -219 -326q-111 0 -184 117q-58 90 -78 219q0 -4 -2 -47q-4 -95 40 -169.5t111 -92.5q-104 -5 -151 83q-39 70 -39 277q0 47 6 141t6 140q0 114 -41 165q-8 11 -8 19
q0 43 94 78q78 30 129 30q125 0 125 -184q0 -59 -13 -178t-13 -178q0 -178 88 -178q51 0 77 149q15 84 27 281q8 153 21 159q2 66 16 90q20 35 82 35q47 0 174 -39q24 -8 24 -211q0 -45 -2 -135v-135q0 -323 48 -323zM280 993q0 11 170 123q52 33 74 53q41 33 62 66
q4 8 10 8q26 0 51 -55q22 -47 22 -78q0 -55 -63 -78q-25 -10 -133 -24q-88 -13 -121 -37q-18 -15 -31 -15q-41 0 -41 37z" />
    <glyph glyph-name="glyph235" unicode="&#xfd;" horiz-adv-x="1005" 
d="M557 662q0 133 22 163q50 64 222 64q153 0 153 -39q0 -2 -2 -6q-22 -53 -27 -281q-10 -508 -12 -514q-22 -385 -106 -463q-37 -35 -115 -35t-70 33q64 6 64 289q0 104 -12 199l-2 2q6 -340 -72 -441q24 52 24 215q0 316 -51 506q-102 -368 -264 -368q-235 0 -235 256
q0 63 17 190t17 191q0 125 -51 194q-6 8 -6 14q0 41 80 72q67 27 115 27q26 0 45 -6q39 -13 53 -158q2 -16 6 -51q2 -13 2 -15q4 0 6 27q2 35 2 76q0 78 -10 108q39 -34 39 -118q0 -74 -32 -218.5t-32 -218.5q0 -139 88 -139q64 0 109 139q37 113 37 193q0 18 -2 57v56z
M387 993q0 11 170 123q52 33 74 53q41 33 62 66q4 8 10 8q26 0 51 -55q22 -47 22 -78q0 -55 -63 -78q-25 -10 -133 -24q-88 -13 -121 -37q-18 -15 -31 -15q-41 0 -41 37z" />
    <glyph glyph-name="Abreve" unicode="&#x102;" horiz-adv-x="1386" 
d="M1327 115q39 0 39 -13q0 -34 -85 -81.5t-124 -47.5q-68 0 -146 220q-55 159 -76 280h-6q6 -207 129 -455q-82 105 -151 299q-21 50 -62 152q-155 -18 -272 -20q-127 -465 -201 -465q-49 0 -200.5 119.5t-151.5 156.5q0 6 6 6q8 0 21.5 -4t21.5 -4q103 0 221 205
q-188 22 -202 51q-2 6 -2 14q0 37 57 155t80 118q4 0 4 -8v-6.5v-6.5q2 -71 158 -121q57 156 176 463q-37 -121 -49 -170q-27 -100 -33 -176q65 225 116 338q-26 49 -51 74q-6 6 -6 12q0 29 78 64q57 24 102 35.5t78 11.5q35 0 51 -13q62 -38 177 -358q24 -72 133 -408
q34 -104 108 -313q41 -104 62 -104zM612 608q88 -12 192 -24q-45 123 -135 362q-20 -176 -57 -338zM713 1500q61 0 121.5 58.5t73.5 58.5q18 0 32 -16.5t14 -31.5q0 -12 -11 -29q-124 -193 -226 -193q-76 0 -158.5 84.5t-82.5 150.5q0 50 39 50q33 0 33 -31q0 -39 58.5 -70
t106.5 -31z" />
    <glyph glyph-name="abreve" unicode="&#x103;" horiz-adv-x="1001" 
d="M995 70q0 -43 -76 -82q-67 -35 -114 -35q-23 0 -43 6q-103 27 -140 412q-163 -391 -309 -387h-4q-119 4 -166 30q-55 35 -80 140q-12 53 -12 122q0 144 47 322q59 215 146 274q75 54 198 54q39 0 119 -15q100 -16 100 -37q0 -2 -6 -4q-121 -39 -217 -215
q-88 -161 -88 -299q0 -43 16 -86q21 -55 56 -55q69 0 164 311q12 31 26 86q-2 43 12 121q52 123 197 123q37 0 59.5 -8t26.5 -225q2 -127 4 -256q0 -72 14 -211q15 -70 42.5 -70t27.5 -16zM282 352q0 -59 31 -106q33 -58 86 -58q10 0 21 2q-50 5 -78 76q-23 56 -23 117
q0 100 33 209q-70 -125 -70 -240zM633 1108q61 0 121.5 58.5t73.5 58.5q18 0 32 -16.5t14 -31.5q0 -12 -11 -29q-124 -193 -226 -193q-76 0 -158.5 84.5t-82.5 150.5q0 50 39 50q33 0 33 -31q0 -39 58.5 -70t106.5 -31z" />
    <glyph glyph-name="Ccaron" unicode="&#x10c;" horiz-adv-x="1274" 
 />
    <glyph glyph-name="ccaron" unicode="&#x10d;" horiz-adv-x="922" 
 />
    <glyph glyph-name="Dslash" unicode="&#x110;" horiz-adv-x="1077" 
d="M82 549q-68 63 -68 125q0 24 76 28q10 109 26 246q-65 64 -65 226q0 149 26 149q5 0 7 -6q28 -57 102 -82q43 6 72 -10q59 -2 135 24q100 35 199 35q215 0 331.5 -131t116.5 -350q0 -98 -27 -228q-100 -466 -448 -571l-29 12q-20 0 -61 9.5t-62 9.5q-28 0 -68 -33
t-73 -33q-49 0 -111 54q-84 71 -84 391q0 65 5 135zM374 711q160 -6 189 -25q49 -31 49 -70q0 -20 -15.5 -40.5t-37.5 -20.5q-29 0 -86 12q-68 17 -90 19v-8q137 -17 170 -52q-111 17 -168 21l6 -86q12 -191 82 -311q123 51 217 192q82 123 119 270q-31 -102 -124 -207.5
t-194 -164.5q135 114 207 268q43 92 43 219q0 115 -35 231q-51 160 -139 160q-51 0 -115 -67q-90 -97 -98 -103q12 -98 20 -237z" />
    <glyph glyph-name="dcroat" unicode="&#x111;" horiz-adv-x="999" 
d="M994 1001q55 -11 78 -26q-75 7 -135 11q-3 -114 -11 -289q-13 -253 -13 -380q0 -219 33 -239q17 -10 17 -23q0 -32 -52 -55q-41 -18 -77 -18q-50 0 -95 28q-71 45 -86 412q-155 -428 -346 -428q-110 0 -162 31q-57 36 -79 137q-15 67 -15 143q0 139 49 307
q60 197 146 269q30 24 78 30q41 4 82 9q18 4 28 4q12 0 19 -4q26 6 96 -5q-41 -16 -96.5 -77.5t-55.5 -100.5q0 -4 2 -8q97 168 222 168q20 0 24 -4q0 -2 -2 -2q-25 -10 -72 -37q-90 -70 -155.5 -216t-65.5 -265q0 -45 17 -90q20 -60 57 -60q47 0 94 111q29 65 74 219
q41 137 55 164q0 51 2 166v105q-116 -10 -131 -12h-8q-38 0 -83 42.5t-45 70.5q0 15 21 18q10 0 130 5q65 3 116 4q-2 86 -8 109q-4 10 -4 14q0 49 98 49q111 0 146 -45q16 -18 16 -67q0 -13 -2 -37q-1 -12 -1 -21q7 -1 15 -1q1 10 2 22q2 32 4 63q3 10 7 10q2 0 6 -8
q8 -19 10 -88q116 -4 146 -17q57 -25 57 -54q0 -17 -18 -33t-43 -16q-33 0 -86 5z" />
    <glyph glyph-name="Itilde" unicode="&#x128;" horiz-adv-x="589" 
d="M252 1282q176 0 227 -65q25 -31 25 -158q0 -139 -32 -419t-32 -421t13 -192q-68 41 -68 387q0 43 2 84l-4 -2q-27 -246 -27 -396q0 -92 15 -98q37 -14 37 -16q0 -13 -60 -13q-96 0 -133 27q-66 51 -86 426q-4 236 -8 471q-2 135 -6 172q-6 117 -27 164q0 2 -2 8
q0 41 166 41zM601 1587q16 -10 16 -41q0 -62 -37 -137q-41 -86 -94 -86q-41 0 -98.5 49t-100.5 49q-37 0 -65.5 -49t-44.5 -49q-56 0 -56 73q0 60 46 120.5t104 60.5q67 0 125.5 -71t89.5 -71q35 0 61 51q17 37 23 82v-16q2 -80 -51 -131q61 41 82 166z" />
    <glyph glyph-name="itilde" unicode="&#x129;" horiz-adv-x="501" 
d="M451 786q0 -59 -16 -149q-13 -72 -25 -145q-18 -123 -18 -297q0 -127 24 -168q2 -4 2 -9q0 -26 -80 -26q-34 0 -79 12q-64 53 -109 451v-29q-2 -291 76 -412q-19 9 -27 15q-59 43 -82 225q-8 57 -22 350q-13 209 -41 281q-2 4 -2 6q0 39 155 39q244 0 244 -144zM480 1221
q17 -11 17 -41q0 -62 -37 -138q-41 -86 -94 -86q-41 0 -98.5 49.5t-100.5 49.5q-37 0 -65.5 -49.5t-45.5 -49.5q-55 0 -55 74q0 60 46 120t104 60q67 0 125.5 -70.5t89.5 -70.5q34 0 61 51q16 37 23 82v-16q2 -80 -52 -131q62 41 82 166z" />
    <glyph glyph-name="Utilde" unicode="&#x168;" horiz-adv-x="1118" 
d="M848 842q0 168 -70 368q-2 9 -2 15q0 49 100 49q125 0 152 -72q39 -112 39 -375q0 -311 -86 -532q-119 -305 -377 -305q-152 0 -234 28q-90 31 -176 183q-67 121 -102 248q-41 157 -41 456q0 217 28.5 297t211.5 80q180 0 180 -86q0 -10 -6 -27q-72 -208 -72 -528
q0 -131 29 -285q39 -217 110 -211h8q27 -14 56 -14q123 0 172 205q28 123 28 297q0 100 -20 297q-25 215 -49 282q47 -61 82 -202q35 -129 35 -219q0 -21 -5 -33q9 26 9 84zM817 1589q16 -10 16 -41q0 -61 -37 -137q-40 -86 -94 -86q-41 0 -98 49t-100 49q-37 0 -66 -49
t-45 -49q-55 0 -55 74q0 59 46 119.5t103 60.5q68 0 126.5 -70.5t88.5 -70.5q35 0 62 51q16 37 22 82v-17q2 -79 -51 -131q61 41 82 166z" />
    <glyph glyph-name="utilde" unicode="&#x169;" horiz-adv-x="976" 
d="M928 66q32 0 32 -11q0 -24 -57 -53q-43 -22 -77 -31.5t-66 -9.5q-37 0 -52 12q-63 52 -98 306q-80 -326 -219 -326q-111 0 -184 117q-58 90 -78 219q0 -4 -2 -47q-4 -95 40 -169.5t111 -92.5q-104 -5 -151 83q-39 70 -39 277q0 47 6 141t6 140q0 114 -41 165q-8 11 -8 19
q0 43 94 78q78 30 129 30q125 0 125 -184q0 -59 -13 -178t-13 -178q0 -178 88 -178q51 0 77 149q15 84 27 281q8 153 21 159q2 66 16 90q20 35 82 35q47 0 174 -39q24 -8 24 -211q0 -45 -2 -135v-135q0 -323 48 -323zM706 1241q16 -10 16 -41q0 -61 -36 -137
q-41 -86 -95 -86q-41 0 -98 49t-100 49q-37 0 -65.5 -49t-45.5 -49q-55 0 -55 74q0 59 46 119.5t103 60.5q68 0 126.5 -70.5t88.5 -70.5q35 0 62 51q16 37 22 82v-17q2 -80 -51 -131q62 41 82 166z" />
    <glyph glyph-name="Ohorn" unicode="&#x1a0;" 
d="M602 137q2 0 57 27q140 69 140 528q0 193 -17 283q-39 188 -161 188q-56 0 -144 -35q-22 -34 -65 -110q-72 -146 -72 -361q0 -116 14 -159q6 -17 13 -15q-5 45 -5 95q0 280 82 417q-34 -258 -34 -366q0 -105 24 -217q31 -133 84 -199q62 -76 84 -76zM1070 1093
q27 -48 48 -108q53 -156 53 -319q0 -162 -55 -304q-49 -120 -133 -215q-106 -120 -209 -120q-12 0 -24 2q-66 -47 -181 -47q-45 0 -77 6q-123 22 -240 139q-109 106 -158 231q-43 109 -43 250q0 391 170 529q-4 59 185 147q86 41 212 41q183 0 318 -84q57 -35 101 -96
q3 48 3 74q0 68 -14 80q-30 24 -59 46q-37 28 -37 61q0 37 42.5 70t80.5 33q50 0 96 -49.5t46 -99.5q0 -20 -11 -37q-26 -44 -48 -99q-11 -28 -48 -99q-10 -18 -18 -32z" />
    <glyph glyph-name="ohorn" unicode="&#x1a1;" horiz-adv-x="925" 
d="M532 944q183 0 279 -158q78 -131 78 -327q0 -187 -99 -322q-110 -149 -293 -149q-81 0 -167 32q-142 54 -213 191q-66 121 -66 283q0 94 25 186q32 115 90 158q39 26 102 34q137 72 264 72zM698 573h4h2q0 76 -67.5 169.5t-141.5 93.5q-30 0 -63 -13q2 -12 -8 -30
q-62 -109 -62 -289q0 -279 86 -389q23 -4 41 -4q58 0 84 43q17 26 31 96q25 117 25 221t-31 197q-43 127 -121 135q80 0 145 -78q52 -61 76 -152zM797 1158q49 0 95 -49.5t46 -99.5q0 -20 -11 -37q-25 -44 -47 -99q-12 -28 -48 -99q-44 -83 -54 -83q-1 0 -1 13
q0 27 3.5 81.5t3.5 82.5q0 68 -15 80q-29 24 -59 46q-36 28 -36 61q0 37 42 70t81 33z" />
    <glyph glyph-name="Uhorn" unicode="&#x1af;" horiz-adv-x="1118" 
d="M848 842q0 168 -70 368q-2 9 -2 15q0 49 100 49q125 0 152 -72q39 -112 39 -375q0 -311 -86 -532q-119 -305 -377 -305q-152 0 -234 28q-90 31 -176 183q-67 121 -102 248q-41 157 -41 456q0 217 28.5 297t211.5 80q180 0 180 -86q0 -10 -6 -27q-72 -208 -72 -528
q0 -131 29 -285q39 -217 110 -211h8q27 -14 56 -14q123 0 172 205q28 123 28 297q0 100 -20 297q-25 215 -49 282q47 -61 82 -202q35 -129 35 -219q0 -21 -5 -33q9 26 9 84zM1053 1509q50 0 96 -49.5t46 -99.5q0 -20 -11 -37q-26 -44 -48 -99q-11 -28 -48 -99
q-44 -83 -53 -83q-2 0 -2 13q0 27 3.5 81.5t3.5 82.5q0 68 -15 80q-29 24 -58 46q-37 28 -37 61q0 37 42 70t81 33z" />
    <glyph glyph-name="uhorn" unicode="&#x1b0;" horiz-adv-x="976" 
d="M882 721q1 -28 1 -62q0 -45 -2 -135v-135q0 -323 47 -323q33 0 33 -11q0 -24 -58 -53q-43 -22 -76.5 -31.5t-66.5 -9.5q-37 0 -51 12q-64 52 -99 306q-80 -326 -219 -326q-110 0 -184 117q-57 90 -78 219q0 -4 -2 -47q-4 -95 40 -169.5t112 -92.5q-105 -5 -152 83
q-39 70 -39 277q0 47 6 141t6 140q0 114 -41 165q-8 11 -8 19q0 43 94 78q78 30 129 30q125 0 125 -184q0 -59 -13 -178t-13 -178q0 -178 88 -178q51 0 78 149q14 84 26 281q8 153 21 159q2 66 16 90q21 35 82 35q47 0 174 -39q3 -1 6 -5v3q0 68 -15 80q-29 24 -58 46
q-37 28 -37 61q0 37 42 70t81 33q50 0 96 -49.5t46 -99.5q0 -20 -11 -37q-26 -44 -48 -99q-11 -28 -48 -99q-18 -33 -30 -53z" />
    <glyph glyph-name="uni1EA0" unicode="&#x1ea0;" horiz-adv-x="1386" 
d="M1327 115q39 0 39 -13q0 -34 -85 -81.5t-124 -47.5q-68 0 -146 220q-55 159 -76 280h-6q6 -207 129 -455q-82 105 -151 299q-21 50 -62 152q-155 -18 -272 -20q-127 -465 -201 -465q-49 0 -200.5 119.5t-151.5 156.5q0 6 6 6q8 0 21.5 -4t21.5 -4q103 0 221 205
q-188 22 -202 51q-2 6 -2 14q0 37 57 155t80 118q4 0 4 -8v-6.5v-6.5q2 -71 158 -121q57 156 176 463q-37 -121 -49 -170q-27 -100 -33 -176q65 225 116 338q-26 49 -51 74q-6 6 -6 12q0 29 78 64q57 24 102 35.5t78 11.5q35 0 51 -13q62 -38 177 -358q24 -72 133 -408
q34 -104 108 -313q41 -104 62 -104zM612 608q88 -12 192 -24q-45 123 -135 362q-20 -176 -57 -338zM721 -66q37 0 75 -36t38 -74q0 -37 -41 -50.5t-43 -17.5q-8 -33 -31 -96q-2 -4 -4 -6q-2 2 -2 8q0 12 2 35.5t2 35.5q0 33 -12 45q-25 17 -51 33q-33 25 -33 49
q0 27 34.5 50.5t65.5 23.5z" />
    <glyph glyph-name="uni1EA1" unicode="&#x1ea1;" horiz-adv-x="1001" 
d="M995 70q0 -43 -76 -82q-67 -35 -114 -35q-23 0 -43 6q-103 27 -140 412q-163 -391 -309 -387h-4q-119 4 -166 30q-55 35 -80 140q-12 53 -12 122q0 144 47 322q59 215 146 274q75 54 198 54q39 0 119 -15q100 -16 100 -37q0 -2 -6 -4q-121 -39 -217 -215
q-88 -161 -88 -299q0 -43 16 -86q21 -55 56 -55q69 0 164 311q12 31 26 86q-2 43 12 121q52 123 197 123q37 0 59.5 -8t26.5 -225q2 -127 4 -256q0 -72 14 -211q15 -70 42.5 -70t27.5 -16zM282 352q0 -59 31 -106q33 -58 86 -58q10 0 21 2q-50 5 -78 76q-23 56 -23 117
q0 100 33 209q-70 -125 -70 -240zM517 -101q37 0 75 -36t38 -74q0 -37 -41 -50.5t-43 -17.5q-8 -33 -31 -96q-2 -4 -4 -6q-2 2 -2 8q0 12 2 35.5t2 35.5q0 33 -12 45q-25 17 -51 33q-33 25 -33 49q0 27 34.5 50.5t65.5 23.5z" />
    <glyph glyph-name="uni1EA2" unicode="&#x1ea2;" horiz-adv-x="1386" 
d="M1327 115q39 0 39 -13q0 -34 -85 -81.5t-124 -47.5q-68 0 -146 220q-55 159 -76 280h-6q6 -207 129 -455q-82 105 -151 299q-21 50 -62 152q-155 -18 -272 -20q-127 -465 -201 -465q-49 0 -200.5 119.5t-151.5 156.5q0 6 6 6q8 0 21.5 -4t21.5 -4q103 0 221 205
q-188 22 -202 51q-2 6 -2 14q0 37 57 155t80 118q4 0 4 -8v-6.5v-6.5q2 -71 158 -121q57 156 176 463q-37 -121 -49 -170q-27 -100 -33 -176q65 225 116 338q-26 49 -51 74q-6 6 -6 12q0 29 78 64q57 24 102 35.5t78 11.5q35 0 51 -13q62 -38 177 -358q24 -72 133 -408
q34 -104 108 -313q41 -104 62 -104zM612 608q88 -12 192 -24q-45 123 -135 362q-20 -176 -57 -338zM660 1732q35 7 65 7q114 0 148 -98q6 -18 6 -38q0 -48 -33 -96q-11 -15 -37 -38q-29 -25 -40 -37q-32 -39 -51 -91q4 45 31 84q7 11 57 71q-4 -2 -9 -5q-37 -33 -66 -76
q-35 -52 -34 -91v-5q-4 -8 -13 -8q-27 0 -51 47q-21 40 -21 71q0 46 59 106t59 91q0 12 -6 24q-18 43 -87 45q-23 -28 -30 -52q-5 -19 -9 -53q-5 -39 -8 -53q0 -3 -2 -6l-1 1q-3 6 -14 10.5t-20 23.5t-9 32q0 4 1 11.5t1 10.5q0 16 -9 46t-9 45q0 10 5 14q29 24 53 24
q5 0 13 -3t13 -3t14 3.5t14 3.5q16 0 20 -18z" />
    <glyph glyph-name="uni1EA3" unicode="&#x1ea3;" horiz-adv-x="1001" 
d="M995 70q0 -43 -76 -82q-67 -35 -114 -35q-23 0 -43 6q-103 27 -140 412q-163 -391 -309 -387h-4q-119 4 -166 30q-55 35 -80 140q-12 53 -12 122q0 144 47 322q59 215 146 274q75 54 198 54q39 0 119 -15q100 -16 100 -37q0 -2 -6 -4q-121 -39 -217 -215
q-88 -161 -88 -299q0 -43 16 -86q21 -55 56 -55q69 0 164 311q12 31 26 86q-2 43 12 121q52 123 197 123q37 0 59.5 -8t26.5 -225q2 -127 4 -256q0 -72 14 -211q15 -70 42.5 -70t27.5 -16zM282 352q0 -59 31 -106q33 -58 86 -58q10 0 21 2q-50 5 -78 76q-23 56 -23 117
q0 100 33 209q-70 -125 -70 -240zM572 1326q35 7 65 7q114 0 148 -98q6 -18 6 -38q0 -48 -33 -96q-11 -15 -37 -38q-29 -25 -40 -37q-32 -39 -51 -91q4 45 31 84q7 11 57 71q-4 -2 -9 -5q-37 -33 -66 -76q-35 -52 -34 -91v-5q-4 -8 -13 -8q-27 0 -51 47q-21 40 -21 71
q0 46 59 106t59 91q0 12 -6 24q-18 43 -87 45q-23 -28 -30 -52q-5 -19 -9 -53q-5 -39 -8 -53q0 -3 -2 -6l-1 1q-3 6 -14 10.5t-20 23.5t-9 32q0 4 1 11.5t1 10.5q0 16 -9 46t-9 45q0 10 5 14q29 24 53 24q5 0 13 -3t13 -3t14 3.5t14 3.5q16 0 20 -18z" />
    <glyph glyph-name="uni1EA4" unicode="&#x1ea4;" horiz-adv-x="1386" 
d="M1327 115q39 0 39 -13q0 -34 -85 -81.5t-124 -47.5q-68 0 -146 220q-55 159 -76 280h-6q6 -207 129 -455q-82 105 -151 299q-21 50 -62 152q-155 -18 -272 -20q-127 -465 -201 -465q-49 0 -200.5 119.5t-151.5 156.5q0 6 6 6q8 0 21.5 -4t21.5 -4q103 0 221 205
q-188 22 -202 51q-2 6 -2 14q0 37 57 155t80 118q4 0 4 -8v-6.5v-6.5q2 -71 158 -121q57 156 176 463q-37 -121 -49 -170q-27 -100 -33 -176q65 225 116 338q-26 49 -51 74q-6 6 -6 12q0 29 78 64q57 24 102 35.5t78 11.5q35 0 51 -13q62 -38 177 -358q24 -72 133 -408
q34 -104 108 -313q41 -104 62 -104zM612 608q88 -12 192 -24q-45 123 -135 362q-20 -176 -57 -338zM553 1598q0 10 170 123q51 33 74 53q41 33 61 66q4 8 10 8q27 0 51 -55q23 -48 23 -78q0 -56 -63 -78q-25 -10 -134 -25q-88 -12 -120 -37q-19 -14 -31 -14q-41 0 -41 37z
M804 1466q23 -20 74 -49q60 -33 92 -33h8q7 -2 7 -8q0 -16 -30 -39.5t-58 -23.5q-43 0 -179 129q-39 -53 -108 -123q-17 -6 -35 -6q-23 0 -66 12q-49 12 -49 23q0 2 4 2q29 4 96.5 90t67.5 110q0 19 39 19q31 0 78 -6q59 -11 59 -23q-10 -8 -24 -22q82 -97 184 -121
q-74 2 -160 71v-2z" />
    <glyph glyph-name="uni1EA5" unicode="&#x1ea5;" horiz-adv-x="1001" 
d="M995 70q0 -43 -76 -82q-67 -35 -114 -35q-23 0 -43 6q-103 27 -140 412q-163 -391 -309 -387h-4q-119 4 -166 30q-55 35 -80 140q-12 53 -12 122q0 144 47 322q59 215 146 274q75 54 198 54q39 0 119 -15q100 -16 100 -37q0 -2 -6 -4q-121 -39 -217 -215
q-88 -161 -88 -299q0 -43 16 -86q21 -55 56 -55q69 0 164 311q12 31 26 86q-2 43 12 121q52 123 197 123q37 0 59.5 -8t26.5 -225q2 -127 4 -256q0 -72 14 -211q15 -70 42.5 -70t27.5 -16zM282 352q0 -59 31 -106q33 -58 86 -58q10 0 21 2q-50 5 -78 76q-23 56 -23 117
q0 100 33 209q-70 -125 -70 -240zM395 1218q0 11 170 123q51 33 74 53q41 33 61 66q4 8 10 8q27 0 52 -55q22 -47 22 -78q0 -55 -63 -78q-25 -10 -133 -24q-88 -13 -121 -37q-19 -15 -31 -15q-41 0 -41 37zM631 1098q22 -21 73 -49q60 -33 92 -33h9q6 -2 6 -8
q0 -17 -30 -40.5t-58 -23.5q-43 0 -178 129q-39 -53 -109 -123q-16 -6 -35 -6q-22 0 -65 12q-49 13 -49 23q0 2 4 2q28 4 95.5 90t67.5 111q0 18 39 18q31 0 78 -6q60 -10 60 -23q-11 -8 -25 -22q82 -96 184 -121q-73 2 -159 72v-2z" />
    <glyph glyph-name="uni1EA6" unicode="&#x1ea6;" horiz-adv-x="1386" 
d="M1327 115q39 0 39 -13q0 -34 -85 -81.5t-124 -47.5q-68 0 -146 220q-55 159 -76 280h-6q6 -207 129 -455q-82 105 -151 299q-21 50 -62 152q-155 -18 -272 -20q-127 -465 -201 -465q-49 0 -200.5 119.5t-151.5 156.5q0 6 6 6q8 0 21.5 -4t21.5 -4q103 0 221 205
q-188 22 -202 51q-2 6 -2 14q0 37 57 155t80 118q4 0 4 -8v-6.5v-6.5q2 -71 158 -121q57 156 176 463q-37 -121 -49 -170q-27 -100 -33 -176q65 225 116 338q-26 49 -51 74q-6 6 -6 12q0 29 78 64q57 24 102 35.5t78 11.5q35 0 51 -13q62 -38 177 -358q24 -72 133 -408
q34 -104 108 -313q41 -104 62 -104zM612 608q88 -12 192 -24q-45 123 -135 362q-20 -176 -57 -338zM509 1863q6 0 10 -6q33 -57 139.5 -141t165.5 -103q6 -2 8 -4q-2 -20 -55 -20q-10 0 -25 2q-133 20 -153 24q-101 23 -137 56q-27 22 -27 61q0 29 22 76q25 55 52 55z
M804 1466q23 -20 74 -49q60 -33 92 -33h8q7 -2 7 -8q0 -16 -30 -39.5t-58 -23.5q-43 0 -179 129q-39 -53 -108 -123q-17 -6 -35 -6q-23 0 -66 12q-49 12 -49 23q0 2 4 2q29 4 96.5 90t67.5 110q0 19 39 19q31 0 78 -6q59 -11 59 -23q-10 -8 -24 -22q82 -97 184 -121
q-74 2 -160 71v-2z" />
    <glyph glyph-name="uni1EA7" unicode="&#x1ea7;" horiz-adv-x="1001" 
d="M995 70q0 -43 -76 -82q-67 -35 -114 -35q-23 0 -43 6q-103 27 -140 412q-163 -391 -309 -387h-4q-119 4 -166 30q-55 35 -80 140q-12 53 -12 122q0 144 47 322q59 215 146 274q75 54 198 54q39 0 119 -15q100 -16 100 -37q0 -2 -6 -4q-121 -39 -217 -215
q-88 -161 -88 -299q0 -43 16 -86q21 -55 56 -55q69 0 164 311q12 31 26 86q-2 43 12 121q52 123 197 123q37 0 59.5 -8t26.5 -225q2 -127 4 -256q0 -72 14 -211q15 -70 42.5 -70t27.5 -16zM282 352q0 -59 31 -106q33 -58 86 -58q10 0 21 2q-50 5 -78 76q-23 56 -23 117
q0 100 33 209q-70 -125 -70 -240zM291 1478q6 0 10 -6q33 -57 139.5 -141t165.5 -103q6 -2 8 -4q-2 -20 -55 -20q-10 0 -25 2q-133 20 -153 24q-100 23 -137 55q-27 23 -27 62q0 29 23 76q24 55 51 55zM631 1098q22 -21 73 -49q60 -33 92 -33h9q6 -2 6 -8q0 -17 -30 -40.5
t-58 -23.5q-43 0 -178 129q-39 -53 -109 -123q-16 -6 -35 -6q-22 0 -65 12q-49 13 -49 23q0 2 4 2q28 4 95.5 90t67.5 111q0 18 39 18q31 0 78 -6q60 -10 60 -23q-11 -8 -25 -22q82 -96 184 -121q-73 2 -159 72v-2z" />
    <glyph glyph-name="uni1EA8" unicode="&#x1ea8;" horiz-adv-x="1386" 
d="M1327 115q39 0 39 -13q0 -34 -85 -81.5t-124 -47.5q-68 0 -146 220q-55 159 -76 280h-6q6 -207 129 -455q-82 105 -151 299q-21 50 -62 152q-155 -18 -272 -20q-127 -465 -201 -465q-49 0 -200.5 119.5t-151.5 156.5q0 6 6 6q8 0 21.5 -4t21.5 -4q103 0 221 205
q-188 22 -202 51q-2 6 -2 14q0 37 57 155t80 118q4 0 4 -8v-6.5v-6.5q2 -71 158 -121q57 156 176 463q-37 -121 -49 -170q-27 -100 -33 -176q65 225 116 338q-26 49 -51 74q-6 6 -6 12q0 29 78 64q57 24 102 35.5t78 11.5q35 0 51 -13q62 -38 177 -358q24 -72 133 -408
q34 -104 108 -313q41 -104 62 -104zM612 608q88 -12 192 -24q-45 123 -135 362q-20 -176 -57 -338zM876 1857q35 7 65 7q114 0 148 -98q6 -18 6 -38q0 -48 -33 -96q-11 -15 -37 -38q-29 -25 -40 -37q-32 -39 -51 -91q4 45 31 84q7 11 57 71q-4 -2 -9 -5q-37 -33 -66 -76
q-35 -52 -34 -91v-5q-4 -8 -13 -8q-27 0 -51 47q-21 40 -21 71q0 46 59 106t59 91q0 12 -6 24q-18 43 -87 45q-23 -28 -30 -52q-5 -19 -9 -53q-5 -39 -8 -53q0 -3 -2 -6l-1 1q-3 6 -14 10.5t-20 23.5t-9 32q0 4 1 11.5t1 10.5q0 16 -9 46t-9 45q0 10 5 14q29 24 53 24
q5 0 13 -3t13 -3t14 3.5t14 3.5q16 0 20 -18zM804 1466q23 -20 74 -49q60 -33 92 -33h8q7 -2 7 -8q0 -16 -30 -39.5t-58 -23.5q-43 0 -179 129q-39 -53 -108 -123q-17 -6 -35 -6q-23 0 -66 12q-49 12 -49 23q0 2 4 2q29 4 96.5 90t67.5 110q0 19 39 19q31 0 78 -6
q59 -11 59 -23q-10 -8 -24 -22q82 -97 184 -121q-74 2 -160 71v-2z" />
    <glyph glyph-name="uni1EA9" unicode="&#x1ea9;" horiz-adv-x="1001" 
d="M995 70q0 -43 -76 -82q-67 -35 -114 -35q-23 0 -43 6q-103 27 -140 412q-163 -391 -309 -387h-4q-119 4 -166 30q-55 35 -80 140q-12 53 -12 122q0 144 47 322q59 215 146 274q75 54 198 54q39 0 119 -15q100 -16 100 -37q0 -2 -6 -4q-121 -39 -217 -215
q-88 -161 -88 -299q0 -43 16 -86q21 -55 56 -55q69 0 164 311q12 31 26 86q-2 43 12 121q52 123 197 123q37 0 59.5 -8t26.5 -225q2 -127 4 -256q0 -72 14 -211q15 -70 42.5 -70t27.5 -16zM282 352q0 -59 31 -106q33 -58 86 -58q10 0 21 2q-50 5 -78 76q-23 56 -23 117
q0 100 33 209q-70 -125 -70 -240zM683 1516q35 7 65 7q114 0 148 -98q6 -18 6 -38q0 -48 -33 -96q-11 -15 -37 -38q-29 -25 -40 -37q-32 -39 -51 -91q4 45 31 84q7 11 57 71q-4 -2 -9 -5q-37 -33 -66 -76q-35 -52 -34 -91v-5q-4 -8 -13 -8q-27 0 -51 47q-21 40 -21 71
q0 46 59 106t59 91q0 12 -6 24q-18 43 -87 45q-23 -28 -30 -52q-5 -19 -9 -53q-5 -39 -8 -53q0 -3 -2 -6l-1 1q-3 6 -14 10.5t-20 23.5t-9 32q0 4 1 11.5t1 10.5q0 16 -9 46t-9 45q0 10 5 14q29 24 53 24q5 0 13 -3t13 -3t14 3.5t14 3.5q16 0 20 -18zM631 1098
q22 -21 73 -49q60 -33 92 -33h9q6 -2 6 -8q0 -17 -30 -40.5t-58 -23.5q-43 0 -178 129q-39 -53 -109 -123q-16 -6 -35 -6q-22 0 -65 12q-49 13 -49 23q0 2 4 2q28 4 95.5 90t67.5 111q0 18 39 18q31 0 78 -6q60 -10 60 -23q-11 -8 -25 -22q82 -96 184 -121q-73 2 -159 72v-2
z" />
    <glyph glyph-name="uni1EAA" unicode="&#x1eaa;" horiz-adv-x="1386" 
d="M1327 115q39 0 39 -13q0 -34 -85 -81.5t-124 -47.5q-68 0 -146 220q-55 159 -76 280h-6q6 -207 129 -455q-82 105 -151 299q-21 50 -62 152q-155 -18 -272 -20q-127 -465 -201 -465q-49 0 -200.5 119.5t-151.5 156.5q0 6 6 6q8 0 21.5 -4t21.5 -4q103 0 221 205
q-188 22 -202 51q-2 6 -2 14q0 37 57 155t80 118q4 0 4 -8v-6.5v-6.5q2 -71 158 -121q57 156 176 463q-37 -121 -49 -170q-27 -100 -33 -176q65 225 116 338q-26 49 -51 74q-6 6 -6 12q0 29 78 64q57 24 102 35.5t78 11.5q35 0 51 -13q62 -38 177 -358q24 -72 133 -408
q34 -104 108 -313q41 -104 62 -104zM612 608q88 -12 192 -24q-45 123 -135 362q-20 -176 -57 -338zM992 1814q16 -10 16 -41q0 -62 -37 -137q-41 -86 -94 -86q-41 0 -98.5 49t-100.5 49q-37 0 -65.5 -49t-44.5 -49q-56 0 -56 73q0 60 46 120.5t104 60.5q67 0 125.5 -71
t89.5 -71q35 0 61 51q17 37 23 82v-16q2 -80 -51 -131q61 41 82 166zM804 1466q23 -20 74 -49q60 -33 92 -33h8q7 -2 7 -8q0 -16 -30 -39.5t-58 -23.5q-43 0 -179 129q-39 -53 -108 -123q-17 -6 -35 -6q-23 0 -66 12q-49 12 -49 23q0 2 4 2q29 4 96.5 90t67.5 110
q0 19 39 19q31 0 78 -6q59 -11 59 -23q-10 -8 -24 -22q82 -97 184 -121q-74 2 -160 71v-2z" />
    <glyph glyph-name="uni1EAB" unicode="&#x1eab;" horiz-adv-x="1001" 
d="M995 70q0 -43 -76 -82q-67 -35 -114 -35q-23 0 -43 6q-103 27 -140 412q-163 -391 -309 -387h-4q-119 4 -166 30q-55 35 -80 140q-12 53 -12 122q0 144 47 322q59 215 146 274q75 54 198 54q39 0 119 -15q100 -16 100 -37q0 -2 -6 -4q-121 -39 -217 -215
q-88 -161 -88 -299q0 -43 16 -86q21 -55 56 -55q69 0 164 311q12 31 26 86q-2 43 12 121q52 123 197 123q37 0 59.5 -8t26.5 -225q2 -127 4 -256q0 -72 14 -211q15 -70 42.5 -70t27.5 -16zM282 352q0 -59 31 -106q33 -58 86 -58q10 0 21 2q-50 5 -78 76q-23 56 -23 117
q0 100 33 209q-70 -125 -70 -240zM834 1417q16 -11 16 -41q0 -62 -37 -138q-41 -86 -94 -86q-41 0 -98.5 49.5t-100.5 49.5q-36 0 -65 -49.5t-45 -49.5q-55 0 -55 74q0 60 46 120t103 60q68 0 126 -70.5t89 -70.5q35 0 62 51q16 37 22 82v-16q2 -80 -51 -131q61 41 82 166z
M631 1098q22 -21 73 -49q60 -33 92 -33h9q6 -2 6 -8q0 -17 -30 -40.5t-58 -23.5q-43 0 -178 129q-39 -53 -109 -123q-16 -6 -35 -6q-22 0 -65 12q-49 13 -49 23q0 2 4 2q28 4 95.5 90t67.5 111q0 18 39 18q31 0 78 -6q60 -10 60 -23q-11 -8 -25 -22q82 -96 184 -121
q-73 2 -159 72v-2z" />
    <glyph glyph-name="uni1EAC" unicode="&#x1eac;" horiz-adv-x="1386" 
d="M1327 115q39 0 39 -13q0 -34 -85 -81.5t-124 -47.5q-68 0 -146 220q-55 159 -76 280h-6q6 -207 129 -455q-82 105 -151 299q-21 50 -62 152q-155 -18 -272 -20q-127 -465 -201 -465q-49 0 -200.5 119.5t-151.5 156.5q0 6 6 6q8 0 21.5 -4t21.5 -4q103 0 221 205
q-188 22 -202 51q-2 6 -2 14q0 37 57 155t80 118q4 0 4 -8v-6.5v-6.5q2 -71 158 -121q57 156 176 463q-37 -121 -49 -170q-27 -100 -33 -176q65 225 116 338q-26 49 -51 74q-6 6 -6 12q0 29 78 64q57 24 102 35.5t78 11.5q35 0 51 -13q62 -38 177 -358q24 -72 133 -408
q34 -104 108 -313q41 -104 62 -104zM612 608q88 -12 192 -24q-45 123 -135 362q-20 -176 -57 -338zM721 -66q37 0 75 -36t38 -74q0 -37 -41 -50.5t-43 -17.5q-8 -33 -31 -96q-2 -4 -4 -6q-2 2 -2 8q0 12 2 35.5t2 35.5q0 33 -12 45q-25 17 -51 33q-33 25 -33 49
q0 27 34.5 50.5t65.5 23.5zM804 1466q23 -20 74 -49q60 -33 92 -33h8q7 -2 7 -8q0 -16 -30 -39.5t-58 -23.5q-43 0 -179 129q-39 -53 -108 -123q-17 -6 -35 -6q-23 0 -66 12q-49 12 -49 23q0 2 4 2q29 4 96.5 90t67.5 110q0 19 39 19q31 0 78 -6q59 -11 59 -23
q-10 -8 -24 -22q82 -97 184 -121q-74 2 -160 71v-2z" />
    <glyph glyph-name="uni1EAD" unicode="&#x1ead;" horiz-adv-x="1001" 
d="M995 70q0 -43 -76 -82q-67 -35 -114 -35q-23 0 -43 6q-103 27 -140 412q-163 -391 -309 -387h-4q-119 4 -166 30q-55 35 -80 140q-12 53 -12 122q0 144 47 322q59 215 146 274q75 54 198 54q39 0 119 -15q100 -16 100 -37q0 -2 -6 -4q-121 -39 -217 -215
q-88 -161 -88 -299q0 -43 16 -86q21 -55 56 -55q69 0 164 311q12 31 26 86q-2 43 12 121q52 123 197 123q37 0 59.5 -8t26.5 -225q2 -127 4 -256q0 -72 14 -211q15 -70 42.5 -70t27.5 -16zM282 352q0 -59 31 -106q33 -58 86 -58q10 0 21 2q-50 5 -78 76q-23 56 -23 117
q0 100 33 209q-70 -125 -70 -240zM517 -101q37 0 75 -36t38 -74q0 -37 -41 -50.5t-43 -17.5q-8 -33 -31 -96q-2 -4 -4 -6q-2 2 -2 8q0 12 2 35.5t2 35.5q0 33 -12 45q-25 17 -51 33q-33 25 -33 49q0 27 34.5 50.5t65.5 23.5zM631 1098q22 -21 73 -49q60 -33 92 -33h9
q6 -2 6 -8q0 -17 -30 -40.5t-58 -23.5q-43 0 -178 129q-39 -53 -109 -123q-16 -6 -35 -6q-22 0 -65 12q-49 13 -49 23q0 2 4 2q28 4 95.5 90t67.5 111q0 18 39 18q31 0 78 -6q60 -10 60 -23q-11 -8 -25 -22q82 -96 184 -121q-73 2 -159 72v-2z" />
    <glyph glyph-name="uni1EAE" unicode="&#x1eae;" horiz-adv-x="1386" 
d="M1327 115q39 0 39 -13q0 -34 -85 -81.5t-124 -47.5q-68 0 -146 220q-55 159 -76 280h-6q6 -207 129 -455q-82 105 -151 299q-21 50 -62 152q-155 -18 -272 -20q-127 -465 -201 -465q-49 0 -200.5 119.5t-151.5 156.5q0 6 6 6q8 0 21.5 -4t21.5 -4q103 0 221 205
q-188 22 -202 51q-2 6 -2 14q0 37 57 155t80 118q4 0 4 -8v-6.5v-6.5q2 -71 158 -121q57 156 176 463q-37 -121 -49 -170q-27 -100 -33 -176q65 225 116 338q-26 49 -51 74q-6 6 -6 12q0 29 78 64q57 24 102 35.5t78 11.5q35 0 51 -13q62 -38 177 -358q24 -72 133 -408
q34 -104 108 -313q41 -104 62 -104zM612 608q88 -12 192 -24q-45 123 -135 362q-20 -176 -57 -338zM653 1621q0 10 170 123q51 33 74 53q41 33 61 66q4 8 10 8q27 0 51 -55q23 -48 23 -78q0 -56 -63 -78q-25 -10 -134 -25q-88 -12 -120 -37q-19 -14 -31 -14q-41 0 -41 37z
M713 1500q61 0 121.5 58.5t73.5 58.5q18 0 32 -16.5t14 -31.5q0 -12 -11 -29q-124 -193 -226 -193q-76 0 -158.5 84.5t-82.5 150.5q0 50 39 50q33 0 33 -31q0 -39 58.5 -70t106.5 -31z" />
    <glyph glyph-name="uni1EAF" unicode="&#x1eaf;" horiz-adv-x="1001" 
d="M995 70q0 -43 -76 -82q-67 -35 -114 -35q-23 0 -43 6q-103 27 -140 412q-163 -391 -309 -387h-4q-119 4 -166 30q-55 35 -80 140q-12 53 -12 122q0 144 47 322q59 215 146 274q75 54 198 54q39 0 119 -15q100 -16 100 -37q0 -2 -6 -4q-121 -39 -217 -215
q-88 -161 -88 -299q0 -43 16 -86q21 -55 56 -55q69 0 164 311q12 31 26 86q-2 43 12 121q52 123 197 123q37 0 59.5 -8t26.5 -225q2 -127 4 -256q0 -72 14 -211q15 -70 42.5 -70t27.5 -16zM282 352q0 -59 31 -106q33 -58 86 -58q10 0 21 2q-50 5 -78 76q-23 56 -23 117
q0 100 33 209q-70 -125 -70 -240zM529 1218q0 11 170 123q51 33 74 53q41 33 61 66q4 8 10 8q27 0 52 -55q22 -47 22 -78q0 -55 -63 -78q-25 -10 -133 -24q-88 -13 -121 -37q-19 -15 -31 -15q-41 0 -41 37zM633 1108q61 0 121.5 58.5t73.5 58.5q18 0 32 -16.5t14 -31.5
q0 -12 -11 -29q-124 -193 -226 -193q-76 0 -158.5 84.5t-82.5 150.5q0 50 39 50q33 0 33 -31q0 -39 58.5 -70t106.5 -31z" />
    <glyph glyph-name="uni1EB0" unicode="&#x1eb0;" horiz-adv-x="1386" 
d="M1327 115q39 0 39 -13q0 -34 -85 -81.5t-124 -47.5q-68 0 -146 220q-55 159 -76 280h-6q6 -207 129 -455q-82 105 -151 299q-21 50 -62 152q-155 -18 -272 -20q-127 -465 -201 -465q-49 0 -200.5 119.5t-151.5 156.5q0 6 6 6q8 0 21.5 -4t21.5 -4q103 0 221 205
q-188 22 -202 51q-2 6 -2 14q0 37 57 155t80 118q4 0 4 -8v-6.5v-6.5q2 -71 158 -121q57 156 176 463q-37 -121 -49 -170q-27 -100 -33 -176q65 225 116 338q-26 49 -51 74q-6 6 -6 12q0 29 78 64q57 24 102 35.5t78 11.5q35 0 51 -13q62 -38 177 -358q24 -72 133 -408
q34 -104 108 -313q41 -104 62 -104zM612 608q88 -12 192 -24q-45 123 -135 362q-20 -176 -57 -338zM530 1890q6 0 10 -6q33 -57 139.5 -141t165.5 -103q6 -2 8 -4q-2 -20 -55 -20q-10 0 -25 2q-133 20 -153 24q-101 23 -137 56q-27 22 -27 61q0 29 22 76q25 55 52 55z
M713 1500q61 0 121.5 58.5t73.5 58.5q18 0 32 -16.5t14 -31.5q0 -12 -11 -29q-124 -193 -226 -193q-76 0 -158.5 84.5t-82.5 150.5q0 50 39 50q33 0 33 -31q0 -39 58.5 -70t106.5 -31z" />
    <glyph glyph-name="uni1EB1" unicode="&#x1eb1;" horiz-adv-x="1001" 
d="M995 70q0 -43 -76 -82q-67 -35 -114 -35q-23 0 -43 6q-103 27 -140 412q-163 -391 -309 -387h-4q-119 4 -166 30q-55 35 -80 140q-12 53 -12 122q0 144 47 322q59 215 146 274q75 54 198 54q39 0 119 -15q100 -16 100 -37q0 -2 -6 -4q-121 -39 -217 -215
q-88 -161 -88 -299q0 -43 16 -86q21 -55 56 -55q69 0 164 311q12 31 26 86q-2 43 12 121q52 123 197 123q37 0 59.5 -8t26.5 -225q2 -127 4 -256q0 -72 14 -211q15 -70 42.5 -70t27.5 -16zM282 352q0 -59 31 -106q33 -58 86 -58q10 0 21 2q-50 5 -78 76q-23 56 -23 117
q0 100 33 209q-70 -125 -70 -240zM461 1478q6 0 10 -6q33 -57 139.5 -141t165.5 -103q6 -2 8 -4q-2 -20 -55 -20q-10 0 -25 2q-133 20 -153 24q-100 23 -137 55q-27 23 -27 62q0 29 23 76q24 55 51 55zM633 1108q61 0 121.5 58.5t73.5 58.5q18 0 32 -16.5t14 -31.5
q0 -12 -11 -29q-124 -193 -226 -193q-76 0 -158.5 84.5t-82.5 150.5q0 50 39 50q33 0 33 -31q0 -39 58.5 -70t106.5 -31z" />
    <glyph glyph-name="uni1EB2" unicode="&#x1eb2;" horiz-adv-x="1386" 
d="M1327 115q39 0 39 -13q0 -34 -85 -81.5t-124 -47.5q-68 0 -146 220q-55 159 -76 280h-6q6 -207 129 -455q-82 105 -151 299q-21 50 -62 152q-155 -18 -272 -20q-127 -465 -201 -465q-49 0 -200.5 119.5t-151.5 156.5q0 6 6 6q8 0 21.5 -4t21.5 -4q103 0 221 205
q-188 22 -202 51q-2 6 -2 14q0 37 57 155t80 118q4 0 4 -8v-6.5v-6.5q2 -71 158 -121q57 156 176 463q-37 -121 -49 -170q-27 -100 -33 -176q65 225 116 338q-26 49 -51 74q-6 6 -6 12q0 29 78 64q57 24 102 35.5t78 11.5q35 0 51 -13q62 -38 177 -358q24 -72 133 -408
q34 -104 108 -313q41 -104 62 -104zM612 608q88 -12 192 -24q-45 123 -135 362q-20 -176 -57 -338zM703 1959q35 7 65 7q114 0 148 -98q6 -18 6 -38q0 -48 -33 -96q-11 -15 -37 -38q-29 -25 -40 -37q-32 -39 -51 -91q4 45 31 84q7 11 57 71q-4 -2 -9 -5q-37 -33 -66 -76
q-35 -52 -34 -91v-5q-4 -8 -13 -8q-27 0 -51 47q-21 40 -21 71q0 46 59 106t59 91q0 12 -6 24q-18 43 -87 45q-23 -28 -30 -52q-5 -19 -9 -53q-5 -39 -8 -53q0 -3 -2 -6l-1 1q-3 6 -14 10.5t-20 23.5t-9 32q0 4 1 11.5t1 10.5q0 16 -9 46t-9 45q0 10 5 14q29 24 53 24
q5 0 13 -3t13 -3t14 3.5t14 3.5q16 0 20 -18zM713 1500q61 0 121.5 58.5t73.5 58.5q18 0 32 -16.5t14 -31.5q0 -12 -11 -29q-124 -193 -226 -193q-76 0 -158.5 84.5t-82.5 150.5q0 50 39 50q33 0 33 -31q0 -39 58.5 -70t106.5 -31z" />
    <glyph glyph-name="uni1EB3" unicode="&#x1eb3;" horiz-adv-x="1001" 
d="M995 70q0 -43 -76 -82q-67 -35 -114 -35q-23 0 -43 6q-103 27 -140 412q-163 -391 -309 -387h-4q-119 4 -166 30q-55 35 -80 140q-12 53 -12 122q0 144 47 322q59 215 146 274q75 54 198 54q39 0 119 -15q100 -16 100 -37q0 -2 -6 -4q-121 -39 -217 -215
q-88 -161 -88 -299q0 -43 16 -86q21 -55 56 -55q69 0 164 311q12 31 26 86q-2 43 12 121q52 123 197 123q37 0 59.5 -8t26.5 -225q2 -127 4 -256q0 -72 14 -211q15 -70 42.5 -70t27.5 -16zM282 352q0 -59 31 -106q33 -58 86 -58q10 0 21 2q-50 5 -78 76q-23 56 -23 117
q0 100 33 209q-70 -125 -70 -240zM647 1561q35 7 65 7q114 0 148 -98q6 -18 6 -38q0 -48 -33 -96q-11 -15 -37 -38q-29 -25 -40 -37q-32 -39 -51 -91q4 45 31 84q7 11 57 71q-4 -2 -9 -5q-37 -33 -66 -76q-35 -52 -34 -91v-5q-4 -8 -13 -8q-27 0 -51 47q-21 40 -21 71
q0 46 59 106t59 91q0 12 -6 24q-18 43 -87 45q-23 -28 -30 -52q-5 -19 -9 -53q-5 -39 -8 -53q0 -3 -2 -6l-1 1q-3 6 -14 10.5t-20 23.5t-9 32q0 4 1 11.5t1 10.5q0 16 -9 46t-9 45q0 10 5 14q29 24 53 24q5 0 13 -3t13 -3t14 3.5t14 3.5q16 0 20 -18zM633 1108
q61 0 121.5 58.5t73.5 58.5q18 0 32 -16.5t14 -31.5q0 -12 -11 -29q-124 -193 -226 -193q-76 0 -158.5 84.5t-82.5 150.5q0 50 39 50q33 0 33 -31q0 -39 58.5 -70t106.5 -31z" />
    <glyph glyph-name="uni1EB4" unicode="&#x1eb4;" horiz-adv-x="1386" 
d="M1327 115q39 0 39 -13q0 -34 -85 -81.5t-124 -47.5q-68 0 -146 220q-55 159 -76 280h-6q6 -207 129 -455q-82 105 -151 299q-21 50 -62 152q-155 -18 -272 -20q-127 -465 -201 -465q-49 0 -200.5 119.5t-151.5 156.5q0 6 6 6q8 0 21.5 -4t21.5 -4q103 0 221 205
q-188 22 -202 51q-2 6 -2 14q0 37 57 155t80 118q4 0 4 -8v-6.5v-6.5q2 -71 158 -121q57 156 176 463q-37 -121 -49 -170q-27 -100 -33 -176q65 225 116 338q-26 49 -51 74q-6 6 -6 12q0 29 78 64q57 24 102 35.5t78 11.5q35 0 51 -13q62 -38 177 -358q24 -72 133 -408
q34 -104 108 -313q41 -104 62 -104zM612 608q88 -12 192 -24q-45 123 -135 362q-20 -176 -57 -338zM1032 1902q16 -10 16 -41q0 -62 -37 -137q-41 -86 -94 -86q-41 0 -98.5 49t-100.5 49q-37 0 -65.5 -49t-44.5 -49q-56 0 -56 73q0 60 46 120.5t104 60.5q67 0 125.5 -71
t89.5 -71q35 0 61 51q17 37 23 82v-16q2 -80 -51 -131q61 41 82 166zM713 1500q61 0 121.5 58.5t73.5 58.5q18 0 32 -16.5t14 -31.5q0 -12 -11 -29q-124 -193 -226 -193q-76 0 -158.5 84.5t-82.5 150.5q0 50 39 50q33 0 33 -31q0 -39 58.5 -70t106.5 -31z" />
    <glyph glyph-name="uni1EB5" unicode="&#x1eb5;" horiz-adv-x="1001" 
d="M995 70q0 -43 -76 -82q-67 -35 -114 -35q-23 0 -43 6q-103 27 -140 412q-163 -391 -309 -387h-4q-119 4 -166 30q-55 35 -80 140q-12 53 -12 122q0 144 47 322q59 215 146 274q75 54 198 54q39 0 119 -15q100 -16 100 -37q0 -2 -6 -4q-121 -39 -217 -215
q-88 -161 -88 -299q0 -43 16 -86q21 -55 56 -55q69 0 164 311q12 31 26 86q-2 43 12 121q52 123 197 123q37 0 59.5 -8t26.5 -225q2 -127 4 -256q0 -72 14 -211q15 -70 42.5 -70t27.5 -16zM282 352q0 -59 31 -106q33 -58 86 -58q10 0 21 2q-50 5 -78 76q-23 56 -23 117
q0 100 33 209q-70 -125 -70 -240zM950 1507q16 -11 16 -41q0 -62 -37 -138q-41 -86 -94 -86q-41 0 -98.5 49.5t-100.5 49.5q-36 0 -65 -49.5t-45 -49.5q-55 0 -55 74q0 60 46 120t103 60q68 0 126 -70.5t89 -70.5q35 0 62 51q16 37 22 82v-16q2 -80 -51 -131q61 41 82 166z
M633 1108q61 0 121.5 58.5t73.5 58.5q18 0 32 -16.5t14 -31.5q0 -12 -11 -29q-124 -193 -226 -193q-76 0 -158.5 84.5t-82.5 150.5q0 50 39 50q33 0 33 -31q0 -39 58.5 -70t106.5 -31z" />
    <glyph glyph-name="uni1EB6" unicode="&#x1eb6;" horiz-adv-x="1386" 
d="M1327 115q39 0 39 -13q0 -34 -85 -81.5t-124 -47.5q-68 0 -146 220q-55 159 -76 280h-6q6 -207 129 -455q-82 105 -151 299q-21 50 -62 152q-155 -18 -272 -20q-127 -465 -201 -465q-49 0 -200.5 119.5t-151.5 156.5q0 6 6 6q8 0 21.5 -4t21.5 -4q103 0 221 205
q-188 22 -202 51q-2 6 -2 14q0 37 57 155t80 118q4 0 4 -8v-6.5v-6.5q2 -71 158 -121q57 156 176 463q-37 -121 -49 -170q-27 -100 -33 -176q65 225 116 338q-26 49 -51 74q-6 6 -6 12q0 29 78 64q57 24 102 35.5t78 11.5q35 0 51 -13q62 -38 177 -358q24 -72 133 -408
q34 -104 108 -313q41 -104 62 -104zM612 608q88 -12 192 -24q-45 123 -135 362q-20 -176 -57 -338zM721 -66q37 0 75 -36t38 -74q0 -37 -41 -50.5t-43 -17.5q-8 -33 -31 -96q-2 -4 -4 -6q-2 2 -2 8q0 12 2 35.5t2 35.5q0 33 -12 45q-25 17 -51 33q-33 25 -33 49
q0 27 34.5 50.5t65.5 23.5zM713 1500q61 0 121.5 58.5t73.5 58.5q18 0 32 -16.5t14 -31.5q0 -12 -11 -29q-124 -193 -226 -193q-76 0 -158.5 84.5t-82.5 150.5q0 50 39 50q33 0 33 -31q0 -39 58.5 -70t106.5 -31z" />
    <glyph glyph-name="uni1EB7" unicode="&#x1eb7;" horiz-adv-x="1001" 
d="M995 70q0 -43 -76 -82q-67 -35 -114 -35q-23 0 -43 6q-103 27 -140 412q-163 -391 -309 -387h-4q-119 4 -166 30q-55 35 -80 140q-12 53 -12 122q0 144 47 322q59 215 146 274q75 54 198 54q39 0 119 -15q100 -16 100 -37q0 -2 -6 -4q-121 -39 -217 -215
q-88 -161 -88 -299q0 -43 16 -86q21 -55 56 -55q69 0 164 311q12 31 26 86q-2 43 12 121q52 123 197 123q37 0 59.5 -8t26.5 -225q2 -127 4 -256q0 -72 14 -211q15 -70 42.5 -70t27.5 -16zM282 352q0 -59 31 -106q33 -58 86 -58q10 0 21 2q-50 5 -78 76q-23 56 -23 117
q0 100 33 209q-70 -125 -70 -240zM517 -101q37 0 75 -36t38 -74q0 -37 -41 -50.5t-43 -17.5q-8 -33 -31 -96q-2 -4 -4 -6q-2 2 -2 8q0 12 2 35.5t2 35.5q0 33 -12 45q-25 17 -51 33q-33 25 -33 49q0 27 34.5 50.5t65.5 23.5zM633 1108q61 0 121.5 58.5t73.5 58.5
q18 0 32 -16.5t14 -31.5q0 -12 -11 -29q-124 -193 -226 -193q-76 0 -158.5 84.5t-82.5 150.5q0 50 39 50q33 0 33 -31q0 -39 58.5 -70t106.5 -31z" />
    <glyph glyph-name="uni1EB8" unicode="&#x1eb8;" horiz-adv-x="1126" 
d="M1091 322q2 0 6 2l4 2q4 0 4 -11q0 -49 -55 -135q-47 -67 -94 -114q-113 -105 -289 -105q-148 0 -260 68q-205 121 -224 501h-4q-2 -20 -2 -51q0 -102 25 -211q35 -139 94 -180q-154 45 -172 430q-57 -16 -65 -16q-9 0 -9 4t13.5 9t13.5 10t18 24q7 4 27 14
q-6 266 66 496q-46 22 -99 86.5t-53 109.5q0 13 10 13q21 0 42.5 -38t66.5 -38t184 22q119 21 359 62q167 27 227 27q112 0 112 -209q0 -88 -14 -130t-344 -67q234 55 234 92q0 19 -172 23l-238 4q-41 -158 -45 -338q139 33 283 33q106 0 120 -11q4 -8 19.5 -22t15.5 -16
q0 -9 -9 -14t-9 -13q0 -6 3 -19.5t3 -21.5q0 -14 -14.5 -20.5t-14.5 -12.5q0 -2 2 -6v-4q0 -6 -10 -14.5t-16 -8.5q-123 -10 -371 -20q16 -334 125 -383q49 -23 86 -23q80 0 180 66q72 45 150 121l67 65q4 0 10.5 -16t12.5 -16zM568 -101q37 0 75 -36t38 -74
q0 -37 -41 -50.5t-43 -17.5q-8 -33 -31 -96q-2 -4 -4 -6q-2 2 -2 8q0 12 2 35.5t2 35.5q0 33 -12 45q-25 17 -51 33q-33 25 -33 49q0 27 35 50.5t65 23.5z" />
    <glyph glyph-name="uni1EB9" unicode="&#x1eb9;" horiz-adv-x="874" 
d="M375 371q4 -273 182 -273q78 0 143 54q35 26 107 112q2 4 8 8q8 0 8 -30q0 -47 -33 -103q-102 -170 -336 -174l-22 -2q-381 -6 -381 479q0 105 25 205q30 125 86 187q26 26 73 38q41 11 82 19q23 8 33 8q8 0 12 -4q21 10 76 10q37 0 72 -4q51 23 76 23q94 0 162.5 -75
t68.5 -169q0 -238 -320 -330q-47 -14 -86 -14q-14 0 -26 2q147 18 209 123l-2 -2q-97 -80 -217 -88zM375 408q196 51 196 282q0 82 -94 113q-96 -150 -102 -395zM427 -101q37 0 75 -36t38 -74q0 -37 -41 -50.5t-43 -17.5q-9 -33 -31 -96q-2 -4 -4 -6q-2 2 -2 8q0 12 2 35.5
t2 35.5q0 33 -12 45q-25 17 -52 33q-32 25 -32 49q0 27 34.5 50.5t65.5 23.5z" />
    <glyph glyph-name="uni1EBA" unicode="&#x1eba;" horiz-adv-x="1126" 
d="M1091 322q2 0 6 2l4 2q4 0 4 -11q0 -49 -55 -135q-47 -67 -94 -114q-113 -105 -289 -105q-148 0 -260 68q-205 121 -224 501h-4q-2 -20 -2 -51q0 -102 25 -211q35 -139 94 -180q-154 45 -172 430q-57 -16 -65 -16q-9 0 -9 4t13.5 9t13.5 10t18 24q7 4 27 14
q-6 266 66 496q-46 22 -99 86.5t-53 109.5q0 13 10 13q21 0 42.5 -38t66.5 -38t184 22q119 21 359 62q167 27 227 27q112 0 112 -209q0 -88 -14 -130t-344 -67q234 55 234 92q0 19 -172 23l-238 4q-41 -158 -45 -338q139 33 283 33q106 0 120 -11q4 -8 19.5 -22t15.5 -16
q0 -9 -9 -14t-9 -13q0 -6 3 -19.5t3 -21.5q0 -14 -14.5 -20.5t-14.5 -12.5q0 -2 2 -6v-4q0 -6 -10 -14.5t-16 -8.5q-123 -10 -371 -20q16 -334 125 -383q49 -23 86 -23q80 0 180 66q72 45 150 121l67 65q4 0 10.5 -16t12.5 -16zM552 1732q35 7 65 7q114 0 148 -98
q6 -18 6 -38q0 -48 -33 -96q-11 -15 -37 -38q-29 -25 -40 -37q-32 -39 -51 -91q4 45 31 84q7 11 57 71q-4 -2 -9 -5q-37 -33 -66 -76q-35 -52 -34 -91v-5q-4 -8 -13 -8q-27 0 -51 47q-21 40 -21 71q0 46 59 106t59 91q0 12 -6 24q-18 43 -87 45q-23 -28 -30 -52
q-5 -19 -9 -53q-5 -39 -8 -53q0 -3 -2 -6l-1 1q-3 6 -14 10.5t-20 23.5t-9 32q0 4 1 11.5t1 10.5q0 16 -9 46t-9 45q0 10 5 14q29 24 53 24q5 0 13 -3t13 -3t14 3.5t14 3.5q16 0 20 -18z" />
    <glyph glyph-name="uni1EBB" unicode="&#x1ebb;" horiz-adv-x="874" 
d="M375 371q4 -273 182 -273q78 0 143 54q35 26 107 112q2 4 8 8q8 0 8 -30q0 -47 -33 -103q-102 -170 -336 -174l-22 -2q-381 -6 -381 479q0 105 25 205q30 125 86 187q26 26 73 38q41 11 82 19q23 8 33 8q8 0 12 -4q21 10 76 10q37 0 72 -4q51 23 76 23q94 0 162.5 -75
t68.5 -169q0 -238 -320 -330q-47 -14 -86 -14q-14 0 -26 2q147 18 209 123l-2 -2q-97 -80 -217 -88zM375 408q196 51 196 282q0 82 -94 113q-96 -150 -102 -395zM455 1326q35 7 65 7q114 0 148 -98q6 -18 6 -38q0 -48 -33 -96q-11 -15 -37 -38q-29 -25 -40 -37
q-32 -39 -51 -91q4 45 31 84q7 11 57 71q-4 -2 -9 -5q-37 -33 -66 -76q-35 -52 -34 -91v-5q-4 -8 -13 -8q-27 0 -51 47q-21 40 -21 71q0 46 59 106t59 91q0 12 -6 24q-18 43 -87 45q-23 -28 -30 -52q-5 -19 -9 -53q-5 -39 -8 -53q0 -3 -2 -6l-1 1q-3 6 -14 10.5t-20 23.5
t-9 32q0 4 1 11.5t1 10.5q0 16 -9 46t-9 45q0 10 5 14q29 24 53 24q5 0 13 -3t13 -3t14 3.5t14 3.5q16 0 20 -18z" />
    <glyph glyph-name="uni1EBC" unicode="&#x1ebc;" horiz-adv-x="1126" 
d="M1091 322q2 0 6 2l4 2q4 0 4 -11q0 -49 -55 -135q-47 -67 -94 -114q-113 -105 -289 -105q-148 0 -260 68q-205 121 -224 501h-4q-2 -20 -2 -51q0 -102 25 -211q35 -139 94 -180q-154 45 -172 430q-57 -16 -65 -16q-9 0 -9 4t13.5 9t13.5 10t18 24q7 4 27 14
q-6 266 66 496q-46 22 -99 86.5t-53 109.5q0 13 10 13q21 0 42.5 -38t66.5 -38t184 22q119 21 359 62q167 27 227 27q112 0 112 -209q0 -88 -14 -130t-344 -67q234 55 234 92q0 19 -172 23l-238 4q-41 -158 -45 -338q139 33 283 33q106 0 120 -11q4 -8 19.5 -22t15.5 -16
q0 -9 -9 -14t-9 -13q0 -6 3 -19.5t3 -21.5q0 -14 -14.5 -20.5t-14.5 -12.5q0 -2 2 -6v-4q0 -6 -10 -14.5t-16 -8.5q-123 -10 -371 -20q16 -334 125 -383q49 -23 86 -23q80 0 180 66q72 45 150 121l67 65q4 0 10.5 -16t12.5 -16zM841 1587q16 -10 16 -41q0 -62 -37 -137
q-41 -86 -94 -86q-41 0 -98.5 49t-100.5 49q-37 0 -65.5 -49t-44.5 -49q-56 0 -56 73q0 60 46.5 120.5t103.5 60.5q68 0 126 -71t89 -71q35 0 61 51q17 37 23 82v-16q2 -80 -51 -131q61 41 82 166z" />
    <glyph glyph-name="uni1EBD" unicode="&#x1ebd;" horiz-adv-x="874" 
d="M375 371q4 -273 182 -273q78 0 143 54q35 26 107 112q2 4 8 8q8 0 8 -30q0 -47 -33 -103q-102 -170 -336 -174l-22 -2q-381 -6 -381 479q0 105 25 205q30 125 86 187q26 26 73 38q41 11 82 19q23 8 33 8q8 0 12 -4q21 10 76 10q37 0 72 -4q51 23 76 23q94 0 162.5 -75
t68.5 -169q0 -238 -320 -330q-47 -14 -86 -14q-14 0 -26 2q147 18 209 123l-2 -2q-97 -80 -217 -88zM375 408q196 51 196 282q0 82 -94 113q-96 -150 -102 -395zM712 1221q16 -11 16 -41q0 -62 -37 -138q-41 -86 -94 -86q-41 0 -98.5 49.5t-100.5 49.5q-37 0 -65.5 -49.5
t-44.5 -49.5q-56 0 -56 74q0 60 46 120t104 60q67 0 125.5 -70.5t89.5 -70.5q35 0 61 51q17 37 23 82v-16q2 -80 -51 -131q61 41 82 166z" />
    <glyph glyph-name="uni1EBE" unicode="&#x1ebe;" horiz-adv-x="1126" 
d="M1091 322q2 0 6 2l4 2q4 0 4 -11q0 -49 -55 -135q-47 -67 -94 -114q-113 -105 -289 -105q-148 0 -260 68q-205 121 -224 501h-4q-2 -20 -2 -51q0 -102 25 -211q35 -139 94 -180q-154 45 -172 430q-57 -16 -65 -16q-9 0 -9 4t13.5 9t13.5 10t18 24q7 4 27 14
q-6 266 66 496q-46 22 -99 86.5t-53 109.5q0 13 10 13q21 0 42.5 -38t66.5 -38t184 22q119 21 359 62q167 27 227 27q112 0 112 -209q0 -88 -14 -130t-344 -67q234 55 234 92q0 19 -172 23l-238 4q-41 -158 -45 -338q139 33 283 33q106 0 120 -11q4 -8 19.5 -22t15.5 -16
q0 -9 -9 -14t-9 -13q0 -6 3 -19.5t3 -21.5q0 -14 -14.5 -20.5t-14.5 -12.5q0 -2 2 -6v-4q0 -6 -10 -14.5t-16 -8.5q-123 -10 -371 -20q16 -334 125 -383q49 -23 86 -23q80 0 180 66q72 45 150 121l67 65q4 0 10.5 -16t12.5 -16zM387 1578q0 11 170 123q51 33 74 54
q41 32 61 65q4 8 11 8q26 0 51 -55q22 -47 22 -78q0 -55 -63 -78q-25 -10 -133 -24q-88 -12 -121 -37q-19 -14 -31 -14q-41 0 -41 36zM620 1446q22 -21 73 -49q60 -33 93 -33h8q6 -2 6 -8q0 -17 -29.5 -40.5t-58.5 -23.5q-43 0 -178 129q-39 -53 -109 -123q-16 -6 -35 -6
q-22 0 -65 13q-49 12 -49 22q0 2 4 2q28 4 96 90t68 111q0 18 38 18q31 0 78 -6q60 -10 60 -22q-11 -9 -25 -23q82 -96 184 -121q-73 2 -159 72v-2z" />
    <glyph glyph-name="uni1EBF" unicode="&#x1ebf;" horiz-adv-x="874" 
d="M375 371q4 -273 182 -273q78 0 143 54q35 26 107 112q2 4 8 8q8 0 8 -30q0 -47 -33 -103q-102 -170 -336 -174l-22 -2q-381 -6 -381 479q0 105 25 205q30 125 86 187q26 26 73 38q41 11 82 19q23 8 33 8q8 0 12 -4q21 10 76 10q37 0 72 -4q51 23 76 23q94 0 162.5 -75
t68.5 -169q0 -238 -320 -330q-47 -14 -86 -14q-14 0 -26 2q147 18 209 123l-2 -2q-97 -80 -217 -88zM375 408q196 51 196 282q0 82 -94 113q-96 -150 -102 -395zM255 1203q0 10 170 123q51 32 74 53q41 33 61 65q4 9 10 9q27 0 52 -56q22 -47 22 -77q0 -56 -63 -78
q-25 -11 -134 -25q-88 -12 -120 -37q-19 -14 -31 -14q-41 0 -41 37zM538 1098q23 -21 74 -49q60 -33 92 -33h9q6 -2 6 -8q0 -17 -30 -40.5t-58 -23.5q-43 0 -179 129q-39 -53 -108 -123q-17 -6 -35 -6q-22 0 -65 12q-50 13 -50 23q0 2 4 2q29 4 96.5 90t67.5 111q0 18 39 18
q31 0 78 -6q59 -10 59 -23q-10 -8 -24 -22q82 -96 184 -121q-74 2 -160 72v-2z" />
    <glyph glyph-name="uni1EC0" unicode="&#x1ec0;" horiz-adv-x="1126" 
d="M1091 322q2 0 6 2l4 2q4 0 4 -11q0 -49 -55 -135q-47 -67 -94 -114q-113 -105 -289 -105q-148 0 -260 68q-205 121 -224 501h-4q-2 -20 -2 -51q0 -102 25 -211q35 -139 94 -180q-154 45 -172 430q-57 -16 -65 -16q-9 0 -9 4t13.5 9t13.5 10t18 24q7 4 27 14
q-6 266 66 496q-46 22 -99 86.5t-53 109.5q0 13 10 13q21 0 42.5 -38t66.5 -38t184 22q119 21 359 62q167 27 227 27q112 0 112 -209q0 -88 -14 -130t-344 -67q234 55 234 92q0 19 -172 23l-238 4q-41 -158 -45 -338q139 33 283 33q106 0 120 -11q4 -8 19.5 -22t15.5 -16
q0 -9 -9 -14t-9 -13q0 -6 3 -19.5t3 -21.5q0 -14 -14.5 -20.5t-14.5 -12.5q0 -2 2 -6v-4q0 -6 -10 -14.5t-16 -8.5q-123 -10 -371 -20q16 -334 125 -383q49 -23 86 -23q80 0 180 66q72 45 150 121l67 65q4 0 10.5 -16t12.5 -16zM339 1841q6 0 10 -6q33 -58 139.5 -142
t165.5 -102q6 -2 9 -4q-3 -21 -56 -21q-10 0 -24 2q-133 21 -154 25q-100 22 -137 55q-27 23 -27 62q0 28 23 75q24 56 51 56zM620 1446q22 -21 73 -49q60 -33 93 -33h8q6 -2 6 -8q0 -17 -29.5 -40.5t-58.5 -23.5q-43 0 -178 129q-39 -53 -109 -123q-16 -6 -35 -6
q-22 0 -65 13q-49 12 -49 22q0 2 4 2q28 4 96 90t68 111q0 18 38 18q31 0 78 -6q60 -10 60 -22q-11 -9 -25 -23q82 -96 184 -121q-73 2 -159 72v-2z" />
    <glyph glyph-name="uni1EC1" unicode="&#x1ec1;" horiz-adv-x="874" 
d="M375 371q4 -273 182 -273q78 0 143 54q35 26 107 112q2 4 8 8q8 0 8 -30q0 -47 -33 -103q-102 -170 -336 -174l-22 -2q-381 -6 -381 479q0 105 25 205q30 125 86 187q26 26 73 38q41 11 82 19q23 8 33 8q8 0 12 -4q21 10 76 10q37 0 72 -4q51 23 76 23q94 0 162.5 -75
t68.5 -169q0 -238 -320 -330q-47 -14 -86 -14q-14 0 -26 2q147 18 209 123l-2 -2q-97 -80 -217 -88zM375 408q196 51 196 282q0 82 -94 113q-96 -150 -102 -395zM266 1480q6 0 10 -6q33 -57 139.5 -141t165.5 -103q6 -2 8 -4q-2 -20 -55 -20q-10 0 -25 2q-133 20 -153 24
q-101 23 -137 55q-27 23 -27 62q0 29 22 76q25 55 52 55zM538 1098q23 -21 74 -49q60 -33 92 -33h9q6 -2 6 -8q0 -17 -30 -40.5t-58 -23.5q-43 0 -179 129q-39 -53 -108 -123q-17 -6 -35 -6q-22 0 -65 12q-50 13 -50 23q0 2 4 2q29 4 96.5 90t67.5 111q0 18 39 18
q31 0 78 -6q59 -10 59 -23q-10 -8 -24 -22q82 -96 184 -121q-74 2 -160 72v-2z" />
    <glyph glyph-name="uni1EC2" unicode="&#x1ec2;" horiz-adv-x="1126" 
d="M1091 322q2 0 6 2l4 2q4 0 4 -11q0 -49 -55 -135q-47 -67 -94 -114q-113 -105 -289 -105q-148 0 -260 68q-205 121 -224 501h-4q-2 -20 -2 -51q0 -102 25 -211q35 -139 94 -180q-154 45 -172 430q-57 -16 -65 -16q-9 0 -9 4t13.5 9t13.5 10t18 24q7 4 27 14
q-6 266 66 496q-46 22 -99 86.5t-53 109.5q0 13 10 13q21 0 42.5 -38t66.5 -38t184 22q119 21 359 62q167 27 227 27q112 0 112 -209q0 -88 -14 -130t-344 -67q234 55 234 92q0 19 -172 23l-238 4q-41 -158 -45 -338q139 33 283 33q106 0 120 -11q4 -8 19.5 -22t15.5 -16
q0 -9 -9 -14t-9 -13q0 -6 3 -19.5t3 -21.5q0 -14 -14.5 -20.5t-14.5 -12.5q0 -2 2 -6v-4q0 -6 -10 -14.5t-16 -8.5q-123 -10 -371 -20q16 -334 125 -383q49 -23 86 -23q80 0 180 66q72 45 150 121l67 65q4 0 10.5 -16t12.5 -16zM692 1858q35 7 65 7q114 0 148 -98
q6 -18 6 -38q0 -48 -33 -96q-11 -15 -37 -38q-29 -25 -40 -37q-32 -39 -51 -91q4 45 31 84q7 11 57 71q-4 -2 -9 -5q-37 -33 -66 -76q-35 -52 -34 -91v-5q-4 -8 -13 -8q-27 0 -51 47q-21 40 -21 71q0 46 59 106t59 91q0 12 -6 24q-18 43 -87 45q-23 -28 -30 -52
q-5 -19 -9 -53q-5 -39 -8 -53q0 -3 -2 -6l-1 1q-3 6 -14 10.5t-20 23.5t-9 32q0 4 1 11.5t1 10.5q0 16 -9 46t-9 45q0 10 5 14q29 24 53 24q5 0 13 -3t13 -3t14 3.5t14 3.5q16 0 20 -18zM620 1446q22 -21 73 -49q60 -33 93 -33h8q6 -2 6 -8q0 -17 -29.5 -40.5t-58.5 -23.5
q-43 0 -178 129q-39 -53 -109 -123q-16 -6 -35 -6q-22 0 -65 13q-49 12 -49 22q0 2 4 2q28 4 96 90t68 111q0 18 38 18q31 0 78 -6q60 -10 60 -22q-11 -9 -25 -23q82 -96 184 -121q-73 2 -159 72v-2z" />
    <glyph glyph-name="uni1EC3" unicode="&#x1ec3;" horiz-adv-x="874" 
d="M375 371q4 -273 182 -273q78 0 143 54q35 26 107 112q2 4 8 8q8 0 8 -30q0 -47 -33 -103q-102 -170 -336 -174l-22 -2q-381 -6 -381 479q0 105 25 205q30 125 86 187q26 26 73 38q41 11 82 19q23 8 33 8q8 0 12 -4q21 10 76 10q37 0 72 -4q51 23 76 23q94 0 162.5 -75
t68.5 -169q0 -238 -320 -330q-47 -14 -86 -14q-14 0 -26 2q147 18 209 123l-2 -2q-97 -80 -217 -88zM375 408q196 51 196 282q0 82 -94 113q-96 -150 -102 -395zM596 1506q35 7 65 7q114 0 148 -98q6 -18 6 -38q0 -48 -33 -96q-11 -15 -37 -38q-29 -25 -40 -37
q-32 -39 -51 -91q4 45 31 84q7 11 57 71q-4 -2 -9 -5q-37 -33 -66 -76q-35 -52 -34 -91v-5q-4 -8 -13 -8q-27 0 -51 47q-21 40 -21 71q0 46 59 106t59 91q0 12 -6 24q-18 43 -87 45q-23 -28 -30 -52q-5 -19 -9 -53q-5 -39 -8 -53q0 -3 -2 -6l-1 1q-3 6 -14 10.5t-20 23.5
t-9 32q0 4 1 11.5t1 10.5q0 16 -9 46t-9 45q0 10 5 14q29 24 53 24q5 0 13 -3t13 -3t14 3.5t14 3.5q16 0 20 -18zM538 1098q23 -21 74 -49q60 -33 92 -33h9q6 -2 6 -8q0 -17 -30 -40.5t-58 -23.5q-43 0 -179 129q-39 -53 -108 -123q-17 -6 -35 -6q-22 0 -65 12
q-50 13 -50 23q0 2 4 2q29 4 96.5 90t67.5 111q0 18 39 18q31 0 78 -6q59 -10 59 -23q-10 -8 -24 -22q82 -96 184 -121q-74 2 -160 72v-2z" />
    <glyph glyph-name="uni1EC4" unicode="&#x1ec4;" horiz-adv-x="1126" 
d="M1091 322q2 0 6 2l4 2q4 0 4 -11q0 -49 -55 -135q-47 -67 -94 -114q-113 -105 -289 -105q-148 0 -260 68q-205 121 -224 501h-4q-2 -20 -2 -51q0 -102 25 -211q35 -139 94 -180q-154 45 -172 430q-57 -16 -65 -16q-9 0 -9 4t13.5 9t13.5 10t18 24q7 4 27 14
q-6 266 66 496q-46 22 -99 86.5t-53 109.5q0 13 10 13q21 0 42.5 -38t66.5 -38t184 22q119 21 359 62q167 27 227 27q112 0 112 -209q0 -88 -14 -130t-344 -67q234 55 234 92q0 19 -172 23l-238 4q-41 -158 -45 -338q139 33 283 33q106 0 120 -11q4 -8 19.5 -22t15.5 -16
q0 -9 -9 -14t-9 -13q0 -6 3 -19.5t3 -21.5q0 -14 -14.5 -20.5t-14.5 -12.5q0 -2 2 -6v-4q0 -6 -10 -14.5t-16 -8.5q-123 -10 -371 -20q16 -334 125 -383q49 -23 86 -23q80 0 180 66q72 45 150 121l67 65q4 0 10.5 -16t12.5 -16zM805 1819q16 -10 16 -41q0 -62 -37 -137
q-41 -86 -94 -86q-41 0 -98.5 49t-100.5 49q-37 0 -65.5 -49t-44.5 -49q-56 0 -56 73q0 60 46.5 120.5t103.5 60.5q68 0 126 -71t89 -71q35 0 61 51q17 37 23 82v-16q2 -80 -51 -131q61 41 82 166zM620 1446q22 -21 73 -49q60 -33 93 -33h8q6 -2 6 -8q0 -17 -29.5 -40.5
t-58.5 -23.5q-43 0 -178 129q-39 -53 -109 -123q-16 -6 -35 -6q-22 0 -65 13q-49 12 -49 22q0 2 4 2q28 4 96 90t68 111q0 18 38 18q31 0 78 -6q60 -10 60 -22q-11 -9 -25 -23q82 -96 184 -121q-73 2 -159 72v-2z" />
    <glyph glyph-name="uni1EC5" unicode="&#x1ec5;" horiz-adv-x="874" 
d="M375 371q4 -273 182 -273q78 0 143 54q35 26 107 112q2 4 8 8q8 0 8 -30q0 -47 -33 -103q-102 -170 -336 -174l-22 -2q-381 -6 -381 479q0 105 25 205q30 125 86 187q26 26 73 38q41 11 82 19q23 8 33 8q8 0 12 -4q21 10 76 10q37 0 72 -4q51 23 76 23q94 0 162.5 -75
t68.5 -169q0 -238 -320 -330q-47 -14 -86 -14q-14 0 -26 2q147 18 209 123l-2 -2q-97 -80 -217 -88zM375 408q196 51 196 282q0 82 -94 113q-96 -150 -102 -395zM722 1436q16 -11 16 -41q0 -62 -37 -138q-41 -86 -94 -86q-41 0 -98.5 49.5t-100.5 49.5q-37 0 -65.5 -49.5
t-44.5 -49.5q-56 0 -56 74q0 60 46 120t104 60q67 0 125.5 -70.5t89.5 -70.5q35 0 61 51q17 37 23 82v-16q2 -80 -51 -131q61 41 82 166zM538 1098q23 -21 74 -49q60 -33 92 -33h9q6 -2 6 -8q0 -17 -30 -40.5t-58 -23.5q-43 0 -179 129q-39 -53 -108 -123q-17 -6 -35 -6
q-22 0 -65 12q-50 13 -50 23q0 2 4 2q29 4 96.5 90t67.5 111q0 18 39 18q31 0 78 -6q59 -10 59 -23q-10 -8 -24 -22q82 -96 184 -121q-74 2 -160 72v-2z" />
    <glyph glyph-name="uni1EC6" unicode="&#x1ec6;" horiz-adv-x="1126" 
d="M1091 322q2 0 6 2l4 2q4 0 4 -11q0 -49 -55 -135q-47 -67 -94 -114q-113 -105 -289 -105q-148 0 -260 68q-205 121 -224 501h-4q-2 -20 -2 -51q0 -102 25 -211q35 -139 94 -180q-154 45 -172 430q-57 -16 -65 -16q-9 0 -9 4t13.5 9t13.5 10t18 24q7 4 27 14
q-6 266 66 496q-46 22 -99 86.5t-53 109.5q0 13 10 13q21 0 42.5 -38t66.5 -38t184 22q119 21 359 62q167 27 227 27q112 0 112 -209q0 -88 -14 -130t-344 -67q234 55 234 92q0 19 -172 23l-238 4q-41 -158 -45 -338q139 33 283 33q106 0 120 -11q4 -8 19.5 -22t15.5 -16
q0 -9 -9 -14t-9 -13q0 -6 3 -19.5t3 -21.5q0 -14 -14.5 -20.5t-14.5 -12.5q0 -2 2 -6v-4q0 -6 -10 -14.5t-16 -8.5q-123 -10 -371 -20q16 -334 125 -383q49 -23 86 -23q80 0 180 66q72 45 150 121l67 65q4 0 10.5 -16t12.5 -16zM568 -101q37 0 75 -36t38 -74
q0 -37 -41 -50.5t-43 -17.5q-8 -33 -31 -96q-2 -4 -4 -6q-2 2 -2 8q0 12 2 35.5t2 35.5q0 33 -12 45q-25 17 -51 33q-33 25 -33 49q0 27 35 50.5t65 23.5zM620 1446q22 -21 73 -49q60 -33 93 -33h8q6 -2 6 -8q0 -17 -29.5 -40.5t-58.5 -23.5q-43 0 -178 129
q-39 -53 -109 -123q-16 -6 -35 -6q-22 0 -65 13q-49 12 -49 22q0 2 4 2q28 4 96 90t68 111q0 18 38 18q31 0 78 -6q60 -10 60 -22q-11 -9 -25 -23q82 -96 184 -121q-73 2 -159 72v-2z" />
    <glyph glyph-name="uni1EC7" unicode="&#x1ec7;" horiz-adv-x="874" 
d="M375 371q4 -273 182 -273q78 0 143 54q35 26 107 112q2 4 8 8q8 0 8 -30q0 -47 -33 -103q-102 -170 -336 -174l-22 -2q-381 -6 -381 479q0 105 25 205q30 125 86 187q26 26 73 38q41 11 82 19q23 8 33 8q8 0 12 -4q21 10 76 10q37 0 72 -4q51 23 76 23q94 0 162.5 -75
t68.5 -169q0 -238 -320 -330q-47 -14 -86 -14q-14 0 -26 2q147 18 209 123l-2 -2q-97 -80 -217 -88zM375 408q196 51 196 282q0 82 -94 113q-96 -150 -102 -395zM427 -101q37 0 75 -36t38 -74q0 -37 -41 -50.5t-43 -17.5q-9 -33 -31 -96q-2 -4 -4 -6q-2 2 -2 8q0 12 2 35.5
t2 35.5q0 33 -12 45q-25 17 -52 33q-32 25 -32 49q0 27 34.5 50.5t65.5 23.5zM538 1098q23 -21 74 -49q60 -33 92 -33h9q6 -2 6 -8q0 -17 -30 -40.5t-58 -23.5q-43 0 -179 129q-39 -53 -108 -123q-17 -6 -35 -6q-22 0 -65 12q-50 13 -50 23q0 2 4 2q29 4 96.5 90t67.5 111
q0 18 39 18q31 0 78 -6q59 -10 59 -23q-10 -8 -24 -22q82 -96 184 -121q-74 2 -160 72v-2z" />
    <glyph glyph-name="uni1EC8" unicode="&#x1ec8;" horiz-adv-x="589" 
d="M252 1282q176 0 227 -65q25 -31 25 -158q0 -139 -32 -419t-32 -421t13 -192q-68 41 -68 387q0 43 2 84l-4 -2q-27 -246 -27 -396q0 -92 15 -98q37 -14 37 -16q0 -13 -60 -13q-96 0 -133 27q-66 51 -86 426q-4 236 -8 471q-2 135 -6 172q-6 117 -27 164q0 2 -2 8
q0 41 166 41zM303 1732q35 7 65 7q114 0 148 -98q6 -18 6 -38q0 -48 -33 -96q-11 -15 -37 -38q-29 -25 -40 -37q-32 -39 -51 -91q4 45 31 84q7 11 57 71q-4 -2 -9 -5q-37 -33 -66 -76q-35 -52 -34 -91v-5q-4 -8 -13 -8q-27 0 -51 47q-21 40 -21 71q0 46 59 106t59 91
q0 12 -6 24q-18 43 -87 45q-23 -28 -30 -52q-5 -19 -9 -53q-5 -39 -8 -53q0 -3 -2 -6l-1 1q-3 6 -14 10.5t-20 23.5t-9 32q0 4 1 11.5t1 10.5q0 16 -9 46t-9 45q0 10 5 14q29 24 53 24q5 0 13 -3t13 -3t14 3.5t14 3.5q16 0 20 -18z" />
    <glyph glyph-name="uni1EC9" unicode="&#x1ec9;" horiz-adv-x="501" 
d="M450 786q0 -59 -16 -149q-12 -72 -25 -145q-18 -123 -18 -297q0 -127 25 -168q2 -4 2 -9q0 -26 -80 -26q-35 0 -80 12q-64 53 -109 451v-29q-2 -291 76 -412q-18 9 -27 15q-59 43 -81 225q-9 57 -23 350q-12 209 -41 281q-2 4 -2 6q0 39 156 39q243 0 243 -144zM232 1335
q35 7 65 7q114 0 148 -98q6 -18 6 -38q0 -48 -33 -96q-11 -15 -37 -38q-29 -25 -40 -37q-32 -39 -51 -91q4 45 31 84q7 11 57 71q-4 -2 -9 -5q-37 -33 -66 -76q-35 -52 -34 -91v-5q-4 -8 -13 -8q-27 0 -51 47q-21 40 -21 71q0 46 59 106t59 91q0 12 -6 24q-18 43 -87 45
q-23 -28 -30 -52q-5 -19 -9 -53q-5 -39 -8 -53q0 -3 -2 -6l-1 1q-3 6 -14 10.5t-20 23.5t-9 32q0 4 1 11.5t1 10.5q0 16 -9 46t-9 45q0 10 5 14q29 24 53 24q5 0 13 -3t13 -3t14 3.5t14 3.5q16 0 20 -18z" />
    <glyph glyph-name="uni1ECA" unicode="&#x1eca;" horiz-adv-x="589" 
d="M252 1282q176 0 227 -65q25 -31 25 -158q0 -139 -32 -419t-32 -421t13 -192q-68 41 -68 387q0 43 2 84l-4 -2q-27 -246 -27 -396q0 -92 15 -98q37 -14 37 -16q0 -13 -60 -13q-96 0 -133 27q-66 51 -86 426q-4 236 -8 471q-2 135 -6 172q-6 117 -27 164q0 2 -2 8
q0 41 166 41zM275 -101q37 0 75 -36t38 -74q0 -37 -41 -50.5t-43 -17.5q-8 -33 -31 -96q-2 -4 -4 -6q-2 2 -2 8q0 12 2 35.5t2 35.5q0 33 -12 45q-25 17 -51 33q-33 25 -33 49q0 27 34.5 50.5t65.5 23.5z" />
    <glyph glyph-name="uni1ECB" unicode="&#x1ecb;" horiz-adv-x="520" 
d="M248 1268q82 0 180 -51q113 -62 113 -136q0 -47 -51 -69q-27 -13 -97 -25q-57 -8 -64 -18.5t-24 -46.5q154 -25 154 -140q0 -57 -16 -147q-13 -72 -25 -146q-18 -120 -18 -296q0 -125 22 -166q4 -7 4 -9q0 -26 -80 -26q-35 0 -80 10q-63 55 -108 451v-29q-2 -291 76 -410
q-19 6 -27 13q-59 43 -82 227q-6 55 -22 348q-13 209 -41 281q-2 4 -2 6q0 20 67 33q47 8 88 6h27q0 55 -29 73q-63 29 -129 58q-90 41 -90 84q0 14 6 20q35 49 113 78q67 27 135 27zM257 -101q37 0 75 -36t38 -74q0 -37 -41 -50.5t-43 -17.5q-8 -33 -31 -96q-2 -4 -4 -6
q-2 2 -2 8q0 12 2 35.5t2 35.5q0 33 -12 45q-25 17 -51 33q-33 25 -33 49q0 27 35 50.5t65 23.5z" />
    <glyph glyph-name="uni1ECC" unicode="&#x1ecc;" 
d="M618 1325q183 0 318 -84q116 -72 182 -256q53 -156 53 -319q0 -162 -55 -304q-49 -120 -133 -215q-107 -120 -209 -120q-12 0 -25 2q-65 -47 -180 -47q-45 0 -78 6q-123 22 -239 139q-109 106 -158 231q-43 109 -43 250q0 391 170 529q-4 59 184 147q86 41 213 41z
M602 137q2 0 57 27q140 69 140 528q0 193 -17 283q-39 188 -162 188q-55 0 -143 -35q-23 -34 -66 -110q-71 -146 -71 -361q0 -116 14 -159q6 -17 12 -15q-4 45 -4 95q0 280 82 417q-35 -258 -35 -366q0 -105 25 -217q31 -133 84 -199q61 -76 84 -76zM561 -101q37 0 75 -36
t38 -74q0 -37 -41 -50.5t-43 -17.5q-9 -33 -31 -96q-2 -4 -4 -6q-2 2 -2 8q0 12 2 35.5t2 35.5q0 33 -12 45q-25 17 -52 33q-32 25 -32 49q0 27 34.5 50.5t65.5 23.5z" />
    <glyph glyph-name="uni1ECD" unicode="&#x1ecd;" horiz-adv-x="925" 
d="M532 944q183 0 279 -158q78 -131 78 -327q0 -187 -99 -322q-110 -149 -293 -149q-81 0 -167 32q-142 54 -213 191q-66 121 -66 283q0 94 25 186q32 115 90 158q39 26 102 34q137 72 264 72zM698 573h4h2q0 76 -67.5 169.5t-141.5 93.5q-30 0 -63 -13q2 -12 -8 -30
q-62 -109 -62 -289q0 -279 86 -389q23 -4 41 -4q58 0 84 43q17 26 31 96q25 117 25 221t-31 197q-43 127 -121 135q80 0 145 -78q52 -61 76 -152zM489 -101q37 0 75 -36t38 -74q0 -37 -41 -50.5t-43 -17.5q-9 -33 -31 -96q-2 -4 -4 -6q-2 2 -2 8q0 12 2 35.5t2 35.5
q0 33 -12 45q-25 17 -52 33q-32 25 -32 49q0 27 34.5 50.5t65.5 23.5z" />
    <glyph glyph-name="uni1ECE" unicode="&#x1ece;" 
d="M618 1325q183 0 318 -84q116 -72 182 -256q53 -156 53 -319q0 -162 -55 -304q-49 -120 -133 -215q-107 -120 -209 -120q-12 0 -25 2q-65 -47 -180 -47q-45 0 -78 6q-123 22 -239 139q-109 106 -158 231q-43 109 -43 250q0 391 170 529q-4 59 184 147q86 41 213 41z
M602 137q2 0 57 27q140 69 140 528q0 193 -17 283q-39 188 -162 188q-55 0 -143 -35q-23 -34 -66 -110q-71 -146 -71 -361q0 -116 14 -159q6 -17 12 -15q-4 45 -4 95q0 280 82 417q-35 -258 -35 -366q0 -105 25 -217q31 -133 84 -199q61 -76 84 -76zM578 1759q35 7 65 7
q114 0 148 -98q6 -18 6 -38q0 -48 -33 -96q-11 -15 -37 -38q-29 -25 -40 -37q-32 -39 -51 -91q4 45 31 84q7 11 57 71q-4 -2 -9 -5q-37 -33 -66 -76q-35 -52 -34 -91v-5q-4 -8 -13 -8q-27 0 -51 47q-21 40 -21 71q0 46 59 106t59 91q0 12 -6 24q-18 43 -87 45
q-23 -28 -30 -52q-5 -19 -9 -53q-5 -39 -8 -53q0 -3 -2 -6l-1 1q-3 6 -14 10.5t-20 23.5t-9 32q0 4 1 11.5t1 10.5q0 16 -9 46t-9 45q0 10 5 14q29 24 53 24q5 0 13 -3t13 -3t14 3.5t14 3.5q16 0 20 -18z" />
    <glyph glyph-name="uni1ECF" unicode="&#x1ecf;" horiz-adv-x="925" 
d="M532 944q183 0 279 -158q78 -131 78 -327q0 -187 -99 -322q-110 -149 -293 -149q-81 0 -167 32q-142 54 -213 191q-66 121 -66 283q0 94 25 186q32 115 90 158q39 26 102 34q137 72 264 72zM698 573h4h2q0 76 -67.5 169.5t-141.5 93.5q-30 0 -63 -13q2 -12 -8 -30
q-62 -109 -62 -289q0 -279 86 -389q23 -4 41 -4q58 0 84 43q17 26 31 96q25 117 25 221t-31 197q-43 127 -121 135q80 0 145 -78q52 -61 76 -152zM410 1335q35 7 65 7q114 0 148 -98q6 -18 6 -38q0 -48 -33 -96q-11 -15 -37 -38q-29 -25 -40 -37q-32 -39 -51 -91q4 45 31 84
q7 11 57 71q-4 -2 -9 -5q-37 -33 -66 -76q-35 -52 -34 -91v-5q-4 -8 -13 -8q-27 0 -51 47q-21 40 -21 71q0 46 59 106t59 91q0 12 -6 24q-18 43 -87 45q-23 -28 -30 -52q-5 -19 -9 -53q-5 -39 -8 -53q0 -3 -2 -6l-1 1q-3 6 -14 10.5t-20 23.5t-9 32q0 4 1 11.5t1 10.5
q0 16 -9 46t-9 45q0 10 5 14q29 24 53 24q5 0 13 -3t13 -3t14 3.5t14 3.5q16 0 20 -18z" />
    <glyph glyph-name="uni1ED0" unicode="&#x1ed0;" 
d="M618 1325q183 0 318 -84q116 -72 182 -256q53 -156 53 -319q0 -162 -55 -304q-49 -120 -133 -215q-107 -120 -209 -120q-12 0 -25 2q-65 -47 -180 -47q-45 0 -78 6q-123 22 -239 139q-109 106 -158 231q-43 109 -43 250q0 391 170 529q-4 59 184 147q86 41 213 41z
M602 137q2 0 57 27q140 69 140 528q0 193 -17 283q-39 188 -162 188q-55 0 -143 -35q-23 -34 -66 -110q-71 -146 -71 -361q0 -116 14 -159q6 -17 12 -15q-4 45 -4 95q0 280 82 417q-35 -258 -35 -366q0 -105 25 -217q31 -133 84 -199q61 -76 84 -76zM418 1586q0 10 170 123
q51 33 73 53q41 33 62 66q4 8 10 8q27 0 51 -55q23 -48 23 -78q0 -56 -64 -78q-24 -10 -133 -25q-88 -12 -121 -37q-18 -14 -30 -14q-41 0 -41 37zM682 1466q22 -20 74 -49q59 -33 92 -33h8q6 -2 6 -8q0 -16 -29.5 -39.5t-58.5 -23.5q-43 0 -178 129q-39 -53 -109 -123
q-16 -6 -35 -6q-22 0 -65 12q-49 12 -49 23q0 2 4 2q28 4 96 90t68 110q0 19 39 19q30 0 77 -6q60 -11 60 -23q-10 -8 -25 -22q82 -97 185 -121q-74 2 -160 71v-2z" />
    <glyph glyph-name="uni1ED1" unicode="&#x1ed1;" horiz-adv-x="925" 
d="M532 944q183 0 279 -158q78 -131 78 -327q0 -187 -99 -322q-110 -149 -293 -149q-81 0 -167 32q-142 54 -213 191q-66 121 -66 283q0 94 25 186q32 115 90 158q39 26 102 34q137 72 264 72zM698 573h4h2q0 76 -67.5 169.5t-141.5 93.5q-30 0 -63 -13q2 -12 -8 -30
q-62 -109 -62 -289q0 -279 86 -389q23 -4 41 -4q58 0 84 43q17 26 31 96q25 117 25 221t-31 197q-43 127 -121 135q80 0 145 -78q52 -61 76 -152zM279 1208q0 11 170 123q51 33 74 53q41 33 61 66q4 8 10 8q27 0 51 -55q23 -47 23 -78q0 -55 -63 -78q-25 -10 -134 -24
q-88 -13 -120 -37q-19 -15 -31 -15q-41 0 -41 37zM559 1098q22 -21 74 -49q59 -33 92 -33h8q6 -2 6 -8q0 -17 -29.5 -40.5t-58.5 -23.5q-43 0 -178 129q-39 -53 -109 -123q-16 -6 -34 -6q-23 0 -66 12q-49 13 -49 23q0 2 4 2q29 4 96.5 90t67.5 111q0 18 39 18q30 0 78 -6
q59 -10 59 -23q-10 -8 -25 -22q82 -96 185 -121q-74 2 -160 72v-2z" />
    <glyph glyph-name="uni1ED2" unicode="&#x1ed2;" 
d="M618 1325q183 0 318 -84q116 -72 182 -256q53 -156 53 -319q0 -162 -55 -304q-49 -120 -133 -215q-107 -120 -209 -120q-12 0 -25 2q-65 -47 -180 -47q-45 0 -78 6q-123 22 -239 139q-109 106 -158 231q-43 109 -43 250q0 391 170 529q-4 59 184 147q86 41 213 41z
M602 137q2 0 57 27q140 69 140 528q0 193 -17 283q-39 188 -162 188q-55 0 -143 -35q-23 -34 -66 -110q-71 -146 -71 -361q0 -116 14 -159q6 -17 12 -15q-4 45 -4 95q0 280 82 417q-35 -258 -35 -366q0 -105 25 -217q31 -133 84 -199q61 -76 84 -76zM393 1846q6 0 10 -6
q33 -57 139.5 -141t165.5 -103q6 -2 8 -4q-2 -20 -55 -20q-10 0 -25 2q-133 20 -153 24q-101 23 -138 56q-26 22 -26 61q0 29 22 76q25 55 52 55zM682 1466q22 -20 74 -49q59 -33 92 -33h8q6 -2 6 -8q0 -16 -29.5 -39.5t-58.5 -23.5q-43 0 -178 129q-39 -53 -109 -123
q-16 -6 -35 -6q-22 0 -65 12q-49 12 -49 23q0 2 4 2q28 4 96 90t68 110q0 19 39 19q30 0 77 -6q60 -11 60 -23q-10 -8 -25 -22q82 -97 185 -121q-74 2 -160 71v-2z" />
    <glyph glyph-name="uni1ED3" unicode="&#x1ed3;" horiz-adv-x="925" 
d="M532 944q183 0 279 -158q78 -131 78 -327q0 -187 -99 -322q-110 -149 -293 -149q-81 0 -167 32q-142 54 -213 191q-66 121 -66 283q0 94 25 186q32 115 90 158q39 26 102 34q137 72 264 72zM698 573h4h2q0 76 -67.5 169.5t-141.5 93.5q-30 0 -63 -13q2 -12 -8 -30
q-62 -109 -62 -289q0 -279 86 -389q23 -4 41 -4q58 0 84 43q17 26 31 96q25 117 25 221t-31 197q-43 127 -121 135q80 0 145 -78q52 -61 76 -152zM322 1471q6 0 10 -6q33 -57 139.5 -141t166.5 -102q6 -2 8 -4q-2 -21 -56 -21q-10 0 -24 2q-133 21 -154 25q-100 22 -137 55
q-27 22 -27 61q0 29 23 76q25 55 51 55zM559 1098q22 -21 74 -49q59 -33 92 -33h8q6 -2 6 -8q0 -17 -29.5 -40.5t-58.5 -23.5q-43 0 -178 129q-39 -53 -109 -123q-16 -6 -34 -6q-23 0 -66 12q-49 13 -49 23q0 2 4 2q29 4 96.5 90t67.5 111q0 18 39 18q30 0 78 -6
q59 -10 59 -23q-10 -8 -25 -22q82 -96 185 -121q-74 2 -160 72v-2z" />
    <glyph glyph-name="uni1ED4" unicode="&#x1ed4;" 
d="M618 1325q183 0 318 -84q116 -72 182 -256q53 -156 53 -319q0 -162 -55 -304q-49 -120 -133 -215q-107 -120 -209 -120q-12 0 -25 2q-65 -47 -180 -47q-45 0 -78 6q-123 22 -239 139q-109 106 -158 231q-43 109 -43 250q0 391 170 529q-4 59 184 147q86 41 213 41z
M602 137q2 0 57 27q140 69 140 528q0 193 -17 283q-39 188 -162 188q-55 0 -143 -35q-23 -34 -66 -110q-71 -146 -71 -361q0 -116 14 -159q6 -17 12 -15q-4 45 -4 95q0 280 82 417q-35 -258 -35 -366q0 -105 25 -217q31 -133 84 -199q61 -76 84 -76zM745 1879q35 7 65 7
q114 0 148 -98q6 -18 6 -38q0 -48 -33 -96q-11 -15 -37 -38q-29 -25 -40 -37q-32 -39 -51 -91q4 45 31 84q7 11 57 71q-4 -2 -9 -5q-37 -33 -66 -76q-35 -52 -34 -91v-5q-4 -8 -13 -8q-27 0 -51 47q-21 40 -21 71q0 46 59 106t59 91q0 12 -6 24q-18 43 -87 45
q-23 -28 -30 -52q-5 -19 -9 -53q-5 -39 -8 -53q0 -3 -2 -6l-1 1q-3 6 -14 10.5t-20 23.5t-9 32q0 4 1 11.5t1 10.5q0 16 -9 46t-9 45q0 10 5 14q29 24 53 24q5 0 13 -3t13 -3t14 3.5t14 3.5q16 0 20 -18zM682 1466q22 -20 74 -49q59 -33 92 -33h8q6 -2 6 -8
q0 -16 -29.5 -39.5t-58.5 -23.5q-43 0 -178 129q-39 -53 -109 -123q-16 -6 -35 -6q-22 0 -65 12q-49 12 -49 23q0 2 4 2q28 4 96 90t68 110q0 19 39 19q30 0 77 -6q60 -11 60 -23q-10 -8 -25 -22q82 -97 185 -121q-74 2 -160 71v-2z" />
    <glyph glyph-name="uni1ED5" unicode="&#x1ed5;" horiz-adv-x="925" 
d="M532 944q183 0 279 -158q78 -131 78 -327q0 -187 -99 -322q-110 -149 -293 -149q-81 0 -167 32q-142 54 -213 191q-66 121 -66 283q0 94 25 186q32 115 90 158q39 26 102 34q137 72 264 72zM698 573h4h2q0 76 -67.5 169.5t-141.5 93.5q-30 0 -63 -13q2 -12 -8 -30
q-62 -109 -62 -289q0 -279 86 -389q23 -4 41 -4q58 0 84 43q17 26 31 96q25 117 25 221t-31 197q-43 127 -121 135q80 0 145 -78q52 -61 76 -152zM634 1504q35 7 65 7q114 0 148 -98q6 -18 6 -38q0 -48 -33 -96q-11 -15 -37 -38q-29 -25 -40 -37q-32 -39 -51 -91q4 45 31 84
q7 11 57 71q-4 -2 -9 -5q-37 -33 -66 -76q-35 -52 -34 -91v-5q-4 -8 -13 -8q-27 0 -51 47q-21 40 -21 71q0 46 59 106t59 91q0 12 -6 24q-18 43 -87 45q-23 -28 -30 -52q-5 -19 -9 -53q-5 -39 -8 -53q0 -3 -2 -6l-1 1q-3 6 -14 10.5t-20 23.5t-9 32q0 4 1 11.5t1 10.5
q0 16 -9 46t-9 45q0 10 5 14q29 24 53 24q5 0 13 -3t13 -3t14 3.5t14 3.5q16 0 20 -18zM559 1098q22 -21 74 -49q59 -33 92 -33h8q6 -2 6 -8q0 -17 -29.5 -40.5t-58.5 -23.5q-43 0 -178 129q-39 -53 -109 -123q-16 -6 -34 -6q-23 0 -66 12q-49 13 -49 23q0 2 4 2
q29 4 96.5 90t67.5 111q0 18 39 18q30 0 78 -6q59 -10 59 -23q-10 -8 -25 -22q82 -96 185 -121q-74 2 -160 72v-2z" />
    <glyph glyph-name="uni1ED6" unicode="&#x1ed6;" 
d="M618 1325q183 0 318 -84q116 -72 182 -256q53 -156 53 -319q0 -162 -55 -304q-49 -120 -133 -215q-107 -120 -209 -120q-12 0 -25 2q-65 -47 -180 -47q-45 0 -78 6q-123 22 -239 139q-109 106 -158 231q-43 109 -43 250q0 391 170 529q-4 59 184 147q86 41 213 41z
M602 137q2 0 57 27q140 69 140 528q0 193 -17 283q-39 188 -162 188q-55 0 -143 -35q-23 -34 -66 -110q-71 -146 -71 -361q0 -116 14 -159q6 -17 12 -15q-4 45 -4 95q0 280 82 417q-35 -258 -35 -366q0 -105 25 -217q31 -133 84 -199q61 -76 84 -76zM863 1785q16 -10 16 -41
q0 -61 -37 -137q-40 -86 -94 -86q-41 0 -98 49t-100 49q-37 0 -66 -49t-45 -49q-55 0 -55 74q0 59 46 119.5t103 60.5q68 0 126.5 -70.5t88.5 -70.5q35 0 62 51q16 37 22 82v-17q2 -79 -51 -131q61 41 82 166zM682 1466q22 -20 74 -49q59 -33 92 -33h8q6 -2 6 -8
q0 -16 -29.5 -39.5t-58.5 -23.5q-43 0 -178 129q-39 -53 -109 -123q-16 -6 -35 -6q-22 0 -65 12q-49 12 -49 23q0 2 4 2q28 4 96 90t68 110q0 19 39 19q30 0 77 -6q60 -11 60 -23q-10 -8 -25 -22q82 -97 185 -121q-74 2 -160 71v-2z" />
    <glyph glyph-name="uni1ED7" unicode="&#x1ed7;" horiz-adv-x="925" 
d="M532 944q183 0 279 -158q78 -131 78 -327q0 -187 -99 -322q-110 -149 -293 -149q-81 0 -167 32q-142 54 -213 191q-66 121 -66 283q0 94 25 186q32 115 90 158q39 26 102 34q137 72 264 72zM698 573h4h2q0 76 -67.5 169.5t-141.5 93.5q-30 0 -63 -13q2 -12 -8 -30
q-62 -109 -62 -289q0 -279 86 -389q23 -4 41 -4q58 0 84 43q17 26 31 96q25 117 25 221t-31 197q-43 127 -121 135q80 0 145 -78q52 -61 76 -152zM751 1438q16 -10 16 -41q0 -61 -36 -137q-41 -86 -95 -86q-41 0 -98 49t-100 49q-37 0 -65.5 -49t-45.5 -49q-55 0 -55 74
q0 59 46 119.5t103 60.5q68 0 126.5 -70.5t88.5 -70.5q35 0 62 51q16 37 22 82v-17q2 -80 -51 -131q62 41 82 166zM559 1098q22 -21 74 -49q59 -33 92 -33h8q6 -2 6 -8q0 -17 -29.5 -40.5t-58.5 -23.5q-43 0 -178 129q-39 -53 -109 -123q-16 -6 -34 -6q-23 0 -66 12
q-49 13 -49 23q0 2 4 2q29 4 96.5 90t67.5 111q0 18 39 18q30 0 78 -6q59 -10 59 -23q-10 -8 -25 -22q82 -96 185 -121q-74 2 -160 72v-2z" />
    <glyph glyph-name="uni1ED8" unicode="&#x1ed8;" 
d="M618 1325q183 0 318 -84q116 -72 182 -256q53 -156 53 -319q0 -162 -55 -304q-49 -120 -133 -215q-107 -120 -209 -120q-12 0 -25 2q-65 -47 -180 -47q-45 0 -78 6q-123 22 -239 139q-109 106 -158 231q-43 109 -43 250q0 391 170 529q-4 59 184 147q86 41 213 41z
M602 137q2 0 57 27q140 69 140 528q0 193 -17 283q-39 188 -162 188q-55 0 -143 -35q-23 -34 -66 -110q-71 -146 -71 -361q0 -116 14 -159q6 -17 12 -15q-4 45 -4 95q0 280 82 417q-35 -258 -35 -366q0 -105 25 -217q31 -133 84 -199q61 -76 84 -76zM561 -101q37 0 75 -36
t38 -74q0 -37 -41 -50.5t-43 -17.5q-9 -33 -31 -96q-2 -4 -4 -6q-2 2 -2 8q0 12 2 35.5t2 35.5q0 33 -12 45q-25 17 -52 33q-32 25 -32 49q0 27 34.5 50.5t65.5 23.5zM682 1466q22 -20 74 -49q59 -33 92 -33h8q6 -2 6 -8q0 -16 -29.5 -39.5t-58.5 -23.5q-43 0 -178 129
q-39 -53 -109 -123q-16 -6 -35 -6q-22 0 -65 12q-49 12 -49 23q0 2 4 2q28 4 96 90t68 110q0 19 39 19q30 0 77 -6q60 -11 60 -23q-10 -8 -25 -22q82 -97 185 -121q-74 2 -160 71v-2z" />
    <glyph glyph-name="uni1ED9" unicode="&#x1ed9;" horiz-adv-x="925" 
d="M532 944q183 0 279 -158q78 -131 78 -327q0 -187 -99 -322q-110 -149 -293 -149q-81 0 -167 32q-142 54 -213 191q-66 121 -66 283q0 94 25 186q32 115 90 158q39 26 102 34q137 72 264 72zM698 573h4h2q0 76 -67.5 169.5t-141.5 93.5q-30 0 -63 -13q2 -12 -8 -30
q-62 -109 -62 -289q0 -279 86 -389q23 -4 41 -4q58 0 84 43q17 26 31 96q25 117 25 221t-31 197q-43 127 -121 135q80 0 145 -78q52 -61 76 -152zM489 -101q37 0 75 -36t38 -74q0 -37 -41 -50.5t-43 -17.5q-9 -33 -31 -96q-2 -4 -4 -6q-2 2 -2 8q0 12 2 35.5t2 35.5
q0 33 -12 45q-25 17 -52 33q-32 25 -32 49q0 27 34.5 50.5t65.5 23.5zM559 1098q22 -21 74 -49q59 -33 92 -33h8q6 -2 6 -8q0 -17 -29.5 -40.5t-58.5 -23.5q-43 0 -178 129q-39 -53 -109 -123q-16 -6 -34 -6q-23 0 -66 12q-49 13 -49 23q0 2 4 2q29 4 96.5 90t67.5 111
q0 18 39 18q30 0 78 -6q59 -10 59 -23q-10 -8 -25 -22q82 -96 185 -121q-74 2 -160 72v-2z" />
    <glyph glyph-name="uni1EDA" unicode="&#x1eda;" 
d="M602 137q2 0 57 27q140 69 140 528q0 193 -17 283q-39 188 -161 188q-56 0 -144 -35q-22 -34 -65 -110q-72 -146 -72 -361q0 -116 14 -159q6 -17 13 -15q-5 45 -5 95q0 280 82 417q-34 -258 -34 -366q0 -105 24 -217q31 -133 84 -199q62 -76 84 -76zM383 1321
q0 10 170 123q51 33 74 53q41 33 61 66q4 8 10 8q27 0 52 -55q22 -48 22 -78q0 -56 -63 -78q-25 -10 -134 -25q-88 -12 -120 -37q-19 -14 -31 -14q-41 0 -41 37zM1070 1093q27 -48 48 -108q53 -156 53 -319q0 -162 -55 -304q-49 -120 -133 -215q-106 -120 -209 -120
q-12 0 -24 2q-66 -47 -181 -47q-45 0 -77 6q-123 22 -240 139q-109 106 -158 231q-43 109 -43 250q0 391 170 529q-4 59 185 147q86 41 212 41q183 0 318 -84q57 -35 101 -96q3 48 3 74q0 68 -14 80q-30 24 -59 46q-37 28 -37 61q0 37 42.5 70t80.5 33q50 0 96 -49.5
t46 -99.5q0 -20 -11 -37q-26 -44 -48 -99q-11 -28 -48 -99q-10 -18 -18 -32z" />
    <glyph glyph-name="uni1EDB" unicode="&#x1edb;" horiz-adv-x="925" 
d="M698 573h4h3q0 76 -68 169.5t-141 93.5q-31 0 -64 -13q2 -12 -8 -30q-62 -109 -62 -289q0 -279 87 -389q22 -4 40 -4q58 0 84 43q17 26 31 96q25 117 25 221t-31 197q-43 127 -121 135q80 0 146 -78q51 -61 75 -152zM260 993q0 11 170 123q51 33 74 53q41 33 61 66
q4 8 10 8q27 0 52 -55q22 -47 22 -78q0 -55 -63 -78q-25 -10 -133 -24q-88 -13 -121 -37q-19 -15 -31 -15q-41 0 -41 37zM825 761q64 -124 64 -302q0 -187 -98 -322q-111 -149 -293 -149q-82 0 -168 32q-142 54 -213 191q-66 121 -66 283q0 94 25 186q33 115 90 158
q39 26 102 34q138 72 264 72q158 0 251 -117q1 25 1 41q0 68 -15 80q-29 24 -58 46q-37 28 -37 61q0 37 42 70t81 33q50 0 96 -49.5t46 -99.5q0 -20 -11 -37q-26 -44 -48 -99q-11 -28 -48 -99q-4 -7 -7 -13z" />
    <glyph glyph-name="uni1EDC" unicode="&#x1edc;" 
d="M602 137q2 0 57 27q140 69 140 528q0 193 -17 283q-39 188 -161 188q-56 0 -144 -35q-22 -34 -65 -110q-72 -146 -72 -361q0 -116 14 -159q6 -17 13 -15q-5 45 -5 95q0 280 82 417q-34 -258 -34 -366q0 -105 24 -217q31 -133 84 -199q62 -76 84 -76zM416 1585q6 0 10 -6
q33 -57 139.5 -141t165.5 -103q6 -2 8 -4q-2 -20 -55 -20q-10 0 -25 2q-133 20 -153 24q-100 23 -137 56q-27 22 -27 61q0 29 23 76q24 55 51 55zM1070 1093q27 -48 48 -108q53 -156 53 -319q0 -162 -55 -304q-49 -120 -133 -215q-106 -120 -209 -120q-12 0 -24 2
q-66 -47 -181 -47q-45 0 -77 6q-123 22 -240 139q-109 106 -158 231q-43 109 -43 250q0 391 170 529q-4 59 185 147q86 41 212 41q183 0 318 -84q57 -35 101 -96q3 48 3 74q0 68 -14 80q-30 24 -59 46q-37 28 -37 61q0 37 42.5 70t80.5 33q50 0 96 -49.5t46 -99.5
q0 -20 -11 -37q-26 -44 -48 -99q-11 -28 -48 -99q-10 -18 -18 -32z" />
    <glyph glyph-name="uni1EDD" unicode="&#x1edd;" horiz-adv-x="925" 
d="M698 573h4h3q0 76 -68 169.5t-141 93.5q-31 0 -64 -13q2 -12 -8 -30q-62 -109 -62 -289q0 -279 87 -389q22 -4 40 -4q58 0 84 43q17 26 31 96q25 117 25 221t-31 197q-43 127 -121 135q80 0 146 -78q51 -61 75 -152zM313 1257q6 0 11 -6q32 -57 138.5 -141t166.5 -102
q6 -2 8 -4q-2 -21 -55 -21q-11 0 -25 2q-133 21 -154 25q-100 22 -137 55q-26 22 -26 61q0 29 22 76q25 55 51 55zM825 761q64 -124 64 -302q0 -187 -98 -322q-111 -149 -293 -149q-82 0 -168 32q-142 54 -213 191q-66 121 -66 283q0 94 25 186q33 115 90 158q39 26 102 34
q138 72 264 72q158 0 251 -117q1 25 1 41q0 68 -15 80q-29 24 -58 46q-37 28 -37 61q0 37 42 70t81 33q50 0 96 -49.5t46 -99.5q0 -20 -11 -37q-26 -44 -48 -99q-11 -28 -48 -99q-4 -7 -7 -13z" />
    <glyph glyph-name="uni1EDE" unicode="&#x1ede;" 
d="M602 137q2 0 57 27q140 69 140 528q0 193 -17 283q-39 188 -161 188q-56 0 -144 -35q-22 -34 -65 -110q-72 -146 -72 -361q0 -116 14 -159q6 -17 13 -15q-5 45 -5 95q0 280 82 417q-34 -258 -34 -366q0 -105 24 -217q31 -133 84 -199q62 -76 84 -76zM597 1759q35 7 65 7
q114 0 148 -98q6 -18 6 -38q0 -48 -33 -96q-11 -15 -37 -38q-29 -25 -40 -37q-32 -39 -51 -91q4 45 31 84q7 11 57 71q-4 -2 -9 -5q-37 -33 -66 -76q-35 -52 -34 -91v-5q-4 -8 -13 -8q-27 0 -51 47q-21 40 -21 71q0 46 59 106t59 91q0 12 -6 24q-18 43 -87 45
q-23 -28 -30 -52q-5 -19 -9 -53q-5 -39 -8 -53q0 -3 -2 -6l-1 1q-3 6 -14 10.5t-20 23.5t-9 32q0 4 1 11.5t1 10.5q0 16 -9 46t-9 45q0 10 5 14q29 24 53 24q5 0 13 -3t13 -3t14 3.5t14 3.5q16 0 20 -18zM1070 1093q27 -48 48 -108q53 -156 53 -319q0 -162 -55 -304
q-49 -120 -133 -215q-106 -120 -209 -120q-12 0 -24 2q-66 -47 -181 -47q-45 0 -77 6q-123 22 -240 139q-109 106 -158 231q-43 109 -43 250q0 391 170 529q-4 59 185 147q86 41 212 41q183 0 318 -84q57 -35 101 -96q3 48 3 74q0 68 -14 80q-30 24 -59 46q-37 28 -37 61
q0 37 42.5 70t80.5 33q50 0 96 -49.5t46 -99.5q0 -20 -11 -37q-26 -44 -48 -99q-11 -28 -48 -99q-10 -18 -18 -32z" />
    <glyph glyph-name="uni1EDF" unicode="&#x1edf;" horiz-adv-x="925" 
d="M698 573h4h3q0 76 -68 169.5t-141 93.5q-31 0 -64 -13q2 -12 -8 -30q-62 -109 -62 -289q0 -279 87 -389q22 -4 40 -4q58 0 84 43q17 26 31 96q25 117 25 221t-31 197q-43 127 -121 135q80 0 146 -78q51 -61 75 -152zM411 1335q35 7 65 7q114 0 148 -98q6 -18 6 -38
q0 -48 -33 -96q-11 -15 -37 -38q-29 -25 -40 -37q-32 -39 -51 -91q4 45 31 84q7 11 57 71q-4 -2 -9 -5q-37 -33 -66 -76q-35 -52 -34 -91v-5q-4 -8 -13 -8q-27 0 -51 47q-21 40 -21 71q0 46 59 106t59 91q0 12 -6 24q-18 43 -87 45q-23 -28 -30 -52q-5 -19 -9 -53
q-5 -39 -8 -53q0 -3 -2 -6l-1 1q-3 6 -14 10.5t-20 23.5t-9 32q0 4 1 11.5t1 10.5q0 16 -9 46t-9 45q0 10 5 14q29 24 53 24q5 0 13 -3t13 -3t14 3.5t14 3.5q16 0 20 -18zM825 761q64 -124 64 -302q0 -187 -98 -322q-111 -149 -293 -149q-82 0 -168 32q-142 54 -213 191
q-66 121 -66 283q0 94 25 186q33 115 90 158q39 26 102 34q138 72 264 72q158 0 251 -117q1 25 1 41q0 68 -15 80q-29 24 -58 46q-37 28 -37 61q0 37 42 70t81 33q50 0 96 -49.5t46 -99.5q0 -20 -11 -37q-26 -44 -48 -99q-11 -28 -48 -99q-4 -7 -7 -13z" />
    <glyph glyph-name="uni1EE0" unicode="&#x1ee0;" 
d="M602 137q2 0 57 27q140 69 140 528q0 193 -17 283q-39 188 -161 188q-56 0 -144 -35q-22 -34 -65 -110q-72 -146 -72 -361q0 -116 14 -159q6 -17 13 -15q-5 45 -5 95q0 280 82 417q-34 -258 -34 -366q0 -105 24 -217q31 -133 84 -199q62 -76 84 -76zM817 1589
q17 -10 17 -41q0 -61 -37 -137q-41 -86 -95 -86q-40 0 -97.5 49t-100.5 49q-37 0 -65.5 -49t-45.5 -49q-55 0 -55 74q0 59 46 119.5t103 60.5q68 0 126.5 -70.5t88.5 -70.5q35 0 62 51q16 37 22 82v-17q2 -79 -51 -131q62 41 82 166zM1070 1093q27 -48 48 -108
q53 -156 53 -319q0 -162 -55 -304q-49 -120 -133 -215q-106 -120 -209 -120q-12 0 -24 2q-66 -47 -181 -47q-45 0 -77 6q-123 22 -240 139q-109 106 -158 231q-43 109 -43 250q0 391 170 529q-4 59 185 147q86 41 212 41q183 0 318 -84q57 -35 101 -96q3 48 3 74
q0 68 -14 80q-30 24 -59 46q-37 28 -37 61q0 37 42.5 70t80.5 33q50 0 96 -49.5t46 -99.5q0 -20 -11 -37q-26 -44 -48 -99q-11 -28 -48 -99q-10 -18 -18 -32z" />
    <glyph glyph-name="uni1EE1" unicode="&#x1ee1;" horiz-adv-x="925" 
d="M698 573h4h3q0 76 -68 169.5t-141 93.5q-31 0 -64 -13q2 -12 -8 -30q-62 -109 -62 -289q0 -279 87 -389q22 -4 40 -4q58 0 84 43q17 26 31 96q25 117 25 221t-31 197q-43 127 -121 135q80 0 146 -78q51 -61 75 -152zM653 1241q17 -10 17 -41q0 -61 -37 -137
q-41 -86 -94 -86q-41 0 -98.5 49t-100.5 49q-37 0 -65.5 -49t-45.5 -49q-55 0 -55 74q0 59 46 119.5t104 60.5q67 0 125.5 -70.5t89.5 -70.5q34 0 61 51q16 37 23 82v-17q2 -80 -52 -131q62 41 82 166zM825 761q64 -124 64 -302q0 -187 -98 -322q-111 -149 -293 -149
q-82 0 -168 32q-142 54 -213 191q-66 121 -66 283q0 94 25 186q33 115 90 158q39 26 102 34q138 72 264 72q158 0 251 -117q1 25 1 41q0 68 -15 80q-29 24 -58 46q-37 28 -37 61q0 37 42 70t81 33q50 0 96 -49.5t46 -99.5q0 -20 -11 -37q-26 -44 -48 -99q-11 -28 -48 -99
q-4 -7 -7 -13z" />
    <glyph glyph-name="uni1EE2" unicode="&#x1ee2;" 
d="M602 137q2 0 57 27q140 69 140 528q0 193 -17 283q-39 188 -161 188q-56 0 -144 -35q-22 -34 -65 -110q-72 -146 -72 -361q0 -116 14 -159q6 -17 13 -15q-5 45 -5 95q0 280 82 417q-34 -258 -34 -366q0 -105 24 -217q31 -133 84 -199q62 -76 84 -76zM561 -101
q37 0 75 -36t38 -74q0 -37 -41 -50.5t-43 -17.5q-8 -33 -31 -96q-2 -4 -4 -6q-2 2 -2 8q0 12 2 35.5t2 35.5q0 33 -12 45q-25 17 -51 33q-33 25 -33 49q0 27 34.5 50.5t65.5 23.5zM1070 1093q27 -48 48 -108q53 -156 53 -319q0 -162 -55 -304q-49 -120 -133 -215
q-106 -120 -209 -120q-12 0 -24 2q-66 -47 -181 -47q-45 0 -77 6q-123 22 -240 139q-109 106 -158 231q-43 109 -43 250q0 391 170 529q-4 59 185 147q86 41 212 41q183 0 318 -84q57 -35 101 -96q3 48 3 74q0 68 -14 80q-30 24 -59 46q-37 28 -37 61q0 37 42.5 70t80.5 33
q50 0 96 -49.5t46 -99.5q0 -20 -11 -37q-26 -44 -48 -99q-11 -28 -48 -99q-10 -18 -18 -32z" />
    <glyph glyph-name="uni1EE3" unicode="&#x1ee3;" horiz-adv-x="925" 
d="M698 573h4h3q0 76 -68 169.5t-141 93.5q-31 0 -64 -13q2 -12 -8 -30q-62 -109 -62 -289q0 -279 87 -389q22 -4 40 -4q58 0 84 43q17 26 31 96q25 117 25 221t-31 197q-43 127 -121 135q80 0 146 -78q51 -61 75 -152zM489 -101q37 0 75 -36t38 -74q0 -37 -41 -50.5
t-43 -17.5q-8 -33 -31 -96q-2 -4 -4 -6q-2 2 -2 8q0 12 2 35.5t2 35.5q0 33 -12 45q-25 17 -51 33q-33 25 -33 49q0 27 34.5 50.5t65.5 23.5zM825 761q64 -124 64 -302q0 -187 -98 -322q-111 -149 -293 -149q-82 0 -168 32q-142 54 -213 191q-66 121 -66 283q0 94 25 186
q33 115 90 158q39 26 102 34q138 72 264 72q158 0 251 -117q1 25 1 41q0 68 -15 80q-29 24 -58 46q-37 28 -37 61q0 37 42 70t81 33q50 0 96 -49.5t46 -99.5q0 -20 -11 -37q-26 -44 -48 -99q-11 -28 -48 -99q-4 -7 -7 -13z" />
    <glyph glyph-name="uni1EE4" unicode="&#x1ee4;" horiz-adv-x="1118" 
d="M848 842q0 168 -70 368q-2 9 -2 15q0 49 100 49q125 0 152 -72q39 -112 39 -375q0 -311 -86 -532q-119 -305 -377 -305q-152 0 -234 28q-90 31 -176 183q-67 121 -102 248q-41 157 -41 456q0 217 28.5 297t211.5 80q180 0 180 -86q0 -10 -6 -27q-72 -208 -72 -528
q0 -131 29 -285q39 -217 110 -211h8q27 -14 56 -14q123 0 172 205q28 123 28 297q0 100 -20 297q-25 215 -49 282q47 -61 82 -202q35 -129 35 -219q0 -21 -5 -33q9 26 9 84zM561 -101q37 0 75 -36t38 -74q0 -37 -41 -50.5t-43 -17.5q-9 -33 -31 -96q-2 -4 -4 -6q-2 2 -2 8
q0 12 2 35.5t2 35.5q0 33 -12 45q-25 17 -52 33q-32 25 -32 49q0 27 34.5 50.5t65.5 23.5z" />
    <glyph glyph-name="uni1EE5" unicode="&#x1ee5;" horiz-adv-x="976" 
d="M928 66q32 0 32 -11q0 -24 -57 -53q-43 -22 -77 -31.5t-66 -9.5q-37 0 -52 12q-63 52 -98 306q-80 -326 -219 -326q-111 0 -184 117q-58 90 -78 219q0 -4 -2 -47q-4 -95 40 -169.5t111 -92.5q-104 -5 -151 83q-39 70 -39 277q0 47 6 141t6 140q0 114 -41 165q-8 11 -8 19
q0 43 94 78q78 30 129 30q125 0 125 -184q0 -59 -13 -178t-13 -178q0 -178 88 -178q51 0 77 149q15 84 27 281q8 153 21 159q2 66 16 90q20 35 82 35q47 0 174 -39q24 -8 24 -211q0 -45 -2 -135v-135q0 -323 48 -323zM570 -101q37 0 75 -36t38 -74q0 -37 -41 -50.5
t-43 -17.5q-9 -33 -31 -96q-2 -4 -4 -6q-2 2 -2 8q0 12 2 35.5t2 35.5q0 33 -12 45q-25 17 -52 33q-32 25 -32 49q0 27 34.5 50.5t65.5 23.5z" />
    <glyph glyph-name="uni1EE6" unicode="&#x1ee6;" horiz-adv-x="1118" 
d="M848 842q0 168 -70 368q-2 9 -2 15q0 49 100 49q125 0 152 -72q39 -112 39 -375q0 -311 -86 -532q-119 -305 -377 -305q-152 0 -234 28q-90 31 -176 183q-67 121 -102 248q-41 157 -41 456q0 217 28.5 297t211.5 80q180 0 180 -86q0 -10 -6 -27q-72 -208 -72 -528
q0 -131 29 -285q39 -217 110 -211h8q27 -14 56 -14q123 0 172 205q28 123 28 297q0 100 -20 297q-25 215 -49 282q47 -61 82 -202q35 -129 35 -219q0 -21 -5 -33q9 26 9 84zM578 1661q35 7 65 7q114 0 148 -98q6 -18 6 -38q0 -48 -33 -96q-11 -15 -37 -38q-29 -25 -40 -37
q-32 -39 -51 -91q4 45 31 84q7 11 57 71q-4 -2 -9 -5q-37 -33 -66 -76q-35 -52 -34 -91v-5q-4 -8 -13 -8q-27 0 -51 47q-21 40 -21 71q0 46 59 106t59 91q0 12 -6 24q-18 43 -87 45q-23 -28 -30 -52q-5 -19 -9 -53q-5 -39 -8 -53q0 -3 -2 -6l-1 1q-3 6 -14 10.5t-20 23.5
t-9 32q0 4 1 11.5t1 10.5q0 16 -9 46t-9 45q0 10 5 14q29 24 53 24q5 0 13 -3t13 -3t14 3.5t14 3.5q16 0 20 -18z" />
    <glyph glyph-name="uni1EE7" unicode="&#x1ee7;" horiz-adv-x="976" 
d="M928 66q32 0 32 -11q0 -24 -57 -53q-43 -22 -77 -31.5t-66 -9.5q-37 0 -52 12q-63 52 -98 306q-80 -326 -219 -326q-111 0 -184 117q-58 90 -78 219q0 -4 -2 -47q-4 -95 40 -169.5t111 -92.5q-104 -5 -151 83q-39 70 -39 277q0 47 6 141t6 140q0 114 -41 165q-8 11 -8 19
q0 43 94 78q78 30 129 30q125 0 125 -184q0 -59 -13 -178t-13 -178q0 -178 88 -178q51 0 77 149q15 84 27 281q8 153 21 159q2 66 16 90q20 35 82 35q47 0 174 -39q24 -8 24 -211q0 -45 -2 -135v-135q0 -323 48 -323zM472 1318q35 7 65 7q114 0 148 -98q6 -18 6 -38
q0 -48 -33 -96q-11 -15 -37 -38q-29 -25 -40 -37q-32 -39 -51 -91q4 45 31 84q7 11 57 71q-4 -2 -9 -5q-37 -33 -66 -76q-35 -52 -34 -91v-5q-4 -8 -13 -8q-27 0 -51 47q-21 40 -21 71q0 46 59 106t59 91q0 12 -6 24q-18 43 -87 45q-23 -28 -30 -52q-5 -19 -9 -53
q-5 -39 -8 -53q0 -3 -2 -6l-1 1q-3 6 -14 10.5t-20 23.5t-9 32q0 4 1 11.5t1 10.5q0 16 -9 46t-9 45q0 10 5 14q29 24 53 24q5 0 13 -3t13 -3t14 3.5t14 3.5q16 0 20 -18z" />
    <glyph glyph-name="uni1EE8" unicode="&#x1ee8;" horiz-adv-x="1118" 
d="M848 842q0 168 -70 368q-2 9 -2 15q0 49 100 49q125 0 152 -72q39 -112 39 -375q0 -311 -86 -532q-119 -305 -377 -305q-152 0 -234 28q-90 31 -176 183q-67 121 -102 248q-41 157 -41 456q0 217 28.5 297t211.5 80q180 0 180 -86q0 -10 -6 -27q-72 -208 -72 -528
q0 -131 29 -285q39 -217 110 -211h8q27 -14 56 -14q123 0 172 205q28 123 28 297q0 100 -20 297q-25 215 -49 282q47 -61 82 -202q35 -129 35 -219q0 -21 -5 -33q9 26 9 84zM403 1300q0 11 170 123q51 33 74 54q41 32 61 65q5 8 11 8q26 0 51 -55q22 -47 22 -78
q0 -55 -63 -78q-25 -10 -133 -24q-88 -12 -121 -37q-18 -14 -31 -14q-41 0 -41 36zM1053 1509q50 0 96 -49.5t46 -99.5q0 -20 -11 -37q-26 -44 -48 -99q-11 -28 -48 -99q-44 -83 -53 -83q-2 0 -2 13q0 27 3.5 81.5t3.5 82.5q0 68 -15 80q-29 24 -58 46q-37 28 -37 61
q0 37 42 70t81 33z" />
    <glyph glyph-name="uni1EE9" unicode="&#x1ee9;" horiz-adv-x="976" 
d="M281 993q0 11 170 123q51 33 73 53q41 33 62 66q4 8 10 8q27 0 51 -55q23 -47 23 -78q0 -55 -64 -78q-24 -10 -133 -24q-88 -13 -121 -37q-18 -15 -30 -15q-41 0 -41 37zM883 695v-36q0 -45 -2 -135v-135q0 -323 47 -323q33 0 33 -11q0 -24 -58 -53q-43 -22 -76.5 -31.5
t-66.5 -9.5q-37 0 -51 12q-64 52 -99 306q-80 -326 -219 -326q-110 0 -184 117q-57 90 -78 219q0 -4 -2 -47q-4 -95 40 -169.5t112 -92.5q-105 -5 -152 83q-39 70 -39 277q0 47 6 141t6 140q0 114 -41 165q-8 11 -8 19q0 43 94 78q78 30 129 30q125 0 125 -184
q0 -59 -13 -178t-13 -178q0 -178 88 -178q51 0 78 149q14 84 26 281q8 153 21 159q2 66 16 90q21 35 82 35q47 0 174 -39q15 -5 21 -78q3 50 3 76q0 68 -15 80q-29 24 -58 46q-37 28 -37 61q0 37 42 70t81 33q50 0 96 -49.5t46 -99.5q0 -20 -11 -37q-26 -44 -48 -99
q-11 -28 -48 -99q-34 -64 -47 -79z" />
    <glyph glyph-name="uni1EEA" unicode="&#x1eea;" horiz-adv-x="1118" 
d="M848 842q0 168 -70 368q-2 9 -2 15q0 49 100 49q125 0 152 -72q39 -112 39 -375q0 -311 -86 -532q-119 -305 -377 -305q-152 0 -234 28q-90 31 -176 183q-67 121 -102 248q-41 157 -41 456q0 217 28.5 297t211.5 80q180 0 180 -86q0 -10 -6 -27q-72 -208 -72 -528
q0 -131 29 -285q39 -217 110 -211h8q27 -14 56 -14q123 0 172 205q28 123 28 297q0 100 -20 297q-25 215 -49 282q47 -61 82 -202q35 -129 35 -219q0 -21 -5 -33q9 26 9 84zM416 1544q6 0 10 -6q33 -57 139.5 -141t165.5 -103q6 -2 8 -4q-2 -20 -55 -20q-10 0 -25 2
q-133 20 -153 24q-101 23 -138 56q-26 22 -26 61q0 29 22 76q25 55 52 55zM1053 1509q50 0 96 -49.5t46 -99.5q0 -20 -11 -37q-26 -44 -48 -99q-11 -28 -48 -99q-44 -83 -53 -83q-2 0 -2 13q0 27 3.5 81.5t3.5 82.5q0 68 -15 80q-29 24 -58 46q-37 28 -37 61q0 37 42 70
t81 33z" />
    <glyph glyph-name="uni1EEB" unicode="&#x1eeb;" horiz-adv-x="976" 
d="M313 1237q6 0 11 -6q32 -57 138.5 -141t166.5 -103q6 -2 8 -4q-2 -20 -55 -20q-11 0 -25 2q-133 20 -154 24q-100 23 -137 55q-26 23 -26 62q0 29 22 76q25 55 51 55zM883 695v-36q0 -45 -2 -135v-135q0 -323 47 -323q33 0 33 -11q0 -24 -58 -53q-43 -22 -76.5 -31.5
t-66.5 -9.5q-37 0 -51 12q-64 52 -99 306q-80 -326 -219 -326q-110 0 -184 117q-57 90 -78 219q0 -4 -2 -47q-4 -95 40 -169.5t112 -92.5q-105 -5 -152 83q-39 70 -39 277q0 47 6 141t6 140q0 114 -41 165q-8 11 -8 19q0 43 94 78q78 30 129 30q125 0 125 -184
q0 -59 -13 -178t-13 -178q0 -178 88 -178q51 0 78 149q14 84 26 281q8 153 21 159q2 66 16 90q21 35 82 35q47 0 174 -39q15 -5 21 -78q3 50 3 76q0 68 -15 80q-29 24 -58 46q-37 28 -37 61q0 37 42 70t81 33q50 0 96 -49.5t46 -99.5q0 -20 -11 -37q-26 -44 -48 -99
q-11 -28 -48 -99q-34 -64 -47 -79z" />
    <glyph glyph-name="uni1EEC" unicode="&#x1eec;" horiz-adv-x="1118" 
d="M848 842q0 168 -70 368q-2 9 -2 15q0 49 100 49q125 0 152 -72q39 -112 39 -375q0 -311 -86 -532q-119 -305 -377 -305q-152 0 -234 28q-90 31 -176 183q-67 121 -102 248q-41 157 -41 456q0 217 28.5 297t211.5 80q180 0 180 -86q0 -10 -6 -27q-72 -208 -72 -528
q0 -131 29 -285q39 -217 110 -211h8q27 -14 56 -14q123 0 172 205q28 123 28 297q0 100 -20 297q-25 215 -49 282q47 -61 82 -202q35 -129 35 -219q0 -21 -5 -33q9 26 9 84zM578 1661q35 7 65 7q114 0 148 -98q6 -18 6 -38q0 -48 -33 -96q-11 -15 -37 -38q-29 -25 -40 -37
q-32 -39 -51 -91q4 45 31 84q7 11 57 71q-4 -2 -9 -5q-37 -33 -66 -76q-35 -52 -34 -91v-5q-4 -8 -13 -8q-27 0 -51 47q-21 40 -21 71q0 46 59 106t59 91q0 12 -6 24q-18 43 -87 45q-23 -28 -30 -52q-5 -19 -9 -53q-5 -39 -8 -53q0 -3 -2 -6l-1 1q-3 6 -14 10.5t-20 23.5
t-9 32q0 4 1 11.5t1 10.5q0 16 -9 46t-9 45q0 10 5 14q29 24 53 24q5 0 13 -3t13 -3t14 3.5t14 3.5q16 0 20 -18zM1053 1509q50 0 96 -49.5t46 -99.5q0 -20 -11 -37q-26 -44 -48 -99q-11 -28 -48 -99q-44 -83 -53 -83q-2 0 -2 13q0 27 3.5 81.5t3.5 82.5q0 68 -15 80
q-29 24 -58 46q-37 28 -37 61q0 37 42 70t81 33z" />
    <glyph glyph-name="uni1EED" unicode="&#x1eed;" horiz-adv-x="976" 
d="M473 1318q35 7 65 7q114 0 148 -98q6 -18 6 -38q0 -48 -33 -96q-11 -15 -37 -38q-29 -25 -40 -37q-32 -39 -51 -91q4 45 31 84q7 11 57 71q-4 -2 -9 -5q-37 -33 -66 -76q-35 -52 -34 -91v-5q-4 -8 -13 -8q-27 0 -51 47q-21 40 -21 71q0 46 59 106t59 91q0 12 -6 24
q-18 43 -87 45q-23 -28 -30 -52q-5 -19 -9 -53q-5 -39 -8 -53q0 -3 -2 -6l-1 1q-3 6 -14 10.5t-20 23.5t-9 32q0 4 1 11.5t1 10.5q0 16 -9 46t-9 45q0 10 5 14q29 24 53 24q5 0 13 -3t13 -3t14 3.5t14 3.5q16 0 20 -18zM883 695v-36q0 -45 -2 -135v-135q0 -323 47 -323
q33 0 33 -11q0 -24 -58 -53q-43 -22 -76.5 -31.5t-66.5 -9.5q-37 0 -51 12q-64 52 -99 306q-80 -326 -219 -326q-110 0 -184 117q-57 90 -78 219q0 -4 -2 -47q-4 -95 40 -169.5t112 -92.5q-105 -5 -152 83q-39 70 -39 277q0 47 6 141t6 140q0 114 -41 165q-8 11 -8 19
q0 43 94 78q78 30 129 30q125 0 125 -184q0 -59 -13 -178t-13 -178q0 -178 88 -178q51 0 78 149q14 84 26 281q8 153 21 159q2 66 16 90q21 35 82 35q47 0 174 -39q15 -5 21 -78q3 50 3 76q0 68 -15 80q-29 24 -58 46q-37 28 -37 61q0 37 42 70t81 33q50 0 96 -49.5
t46 -99.5q0 -20 -11 -37q-26 -44 -48 -99q-11 -28 -48 -99q-34 -64 -47 -79z" />
    <glyph glyph-name="uni1EEE" unicode="&#x1eee;" horiz-adv-x="1118" 
d="M848 842q0 168 -70 368q-2 9 -2 15q0 49 100 49q125 0 152 -72q39 -112 39 -375q0 -311 -86 -532q-119 -305 -377 -305q-152 0 -234 28q-90 31 -176 183q-67 121 -102 248q-41 157 -41 456q0 217 28.5 297t211.5 80q180 0 180 -86q0 -10 -6 -27q-72 -208 -72 -528
q0 -131 29 -285q39 -217 110 -211h8q27 -14 56 -14q123 0 172 205q28 123 28 297q0 100 -20 297q-25 215 -49 282q47 -61 82 -202q35 -129 35 -219q0 -21 -5 -33q9 26 9 84zM817 1589q16 -10 16 -41q0 -61 -37 -137q-40 -86 -94 -86q-41 0 -98 49t-100 49q-37 0 -66 -49
t-45 -49q-55 0 -55 74q0 59 46 119.5t103 60.5q68 0 126.5 -70.5t88.5 -70.5q35 0 62 51q16 37 22 82v-17q2 -79 -51 -131q61 41 82 166zM1053 1509q50 0 96 -49.5t46 -99.5q0 -20 -11 -37q-26 -44 -48 -99q-11 -28 -48 -99q-44 -83 -53 -83q-2 0 -2 13q0 27 3.5 81.5
t3.5 82.5q0 68 -15 80q-29 24 -58 46q-37 28 -37 61q0 37 42 70t81 33z" />
    <glyph glyph-name="uni1EEF" unicode="&#x1eef;" horiz-adv-x="976" 
d="M706 1241q17 -10 17 -41q0 -61 -37 -137q-41 -86 -94 -86q-41 0 -98.5 49t-100.5 49q-37 0 -65.5 -49t-45.5 -49q-55 0 -55 74q0 59 46 119.5t104 60.5q67 0 125.5 -70.5t89.5 -70.5q34 0 61 51q16 37 23 82v-17q2 -80 -52 -131q62 41 82 166zM883 695v-36q0 -45 -2 -135
v-135q0 -323 47 -323q33 0 33 -11q0 -24 -58 -53q-43 -22 -76.5 -31.5t-66.5 -9.5q-37 0 -51 12q-64 52 -99 306q-80 -326 -219 -326q-110 0 -184 117q-57 90 -78 219q0 -4 -2 -47q-4 -95 40 -169.5t112 -92.5q-105 -5 -152 83q-39 70 -39 277q0 47 6 141t6 140
q0 114 -41 165q-8 11 -8 19q0 43 94 78q78 30 129 30q125 0 125 -184q0 -59 -13 -178t-13 -178q0 -178 88 -178q51 0 78 149q14 84 26 281q8 153 21 159q2 66 16 90q21 35 82 35q47 0 174 -39q15 -5 21 -78q3 50 3 76q0 68 -15 80q-29 24 -58 46q-37 28 -37 61q0 37 42 70
t81 33q50 0 96 -49.5t46 -99.5q0 -20 -11 -37q-26 -44 -48 -99q-11 -28 -48 -99q-34 -64 -47 -79z" />
    <glyph glyph-name="uni1EF0" unicode="&#x1ef0;" horiz-adv-x="1118" 
d="M848 842q0 168 -70 368q-2 9 -2 15q0 49 100 49q125 0 152 -72q39 -112 39 -375q0 -311 -86 -532q-119 -305 -377 -305q-152 0 -234 28q-90 31 -176 183q-67 121 -102 248q-41 157 -41 456q0 217 28.5 297t211.5 80q180 0 180 -86q0 -10 -6 -27q-72 -208 -72 -528
q0 -131 29 -285q39 -217 110 -211h8q27 -14 56 -14q123 0 172 205q28 123 28 297q0 100 -20 297q-25 215 -49 282q47 -61 82 -202q35 -129 35 -219q0 -21 -5 -33q9 26 9 84zM561 -101q37 0 75 -36t38 -74q0 -37 -41 -50.5t-43 -17.5q-9 -33 -31 -96q-2 -4 -4 -6q-2 2 -2 8
q0 12 2 35.5t2 35.5q0 33 -12 45q-25 17 -52 33q-32 25 -32 49q0 27 34.5 50.5t65.5 23.5zM1053 1509q50 0 96 -49.5t46 -99.5q0 -20 -11 -37q-26 -44 -48 -99q-11 -28 -48 -99q-44 -83 -53 -83q-2 0 -2 13q0 27 3.5 81.5t3.5 82.5q0 68 -15 80q-29 24 -58 46q-37 28 -37 61
q0 37 42 70t81 33z" />
    <glyph glyph-name="uni1EF1" unicode="&#x1ef1;" horiz-adv-x="976" 
d="M570 -101q37 0 75 -36t38 -74q0 -37 -41 -50.5t-43 -17.5q-8 -33 -31 -96q-2 -4 -4 -6q-2 2 -2 8q0 12 2 35.5t2 35.5q0 33 -12 45q-25 17 -51 33q-33 25 -33 49q0 27 34.5 50.5t65.5 23.5zM883 695v-36q0 -45 -2 -135v-135q0 -323 47 -323q33 0 33 -11q0 -24 -58 -53
q-43 -22 -76.5 -31.5t-66.5 -9.5q-37 0 -51 12q-64 52 -99 306q-80 -326 -219 -326q-110 0 -184 117q-57 90 -78 219q0 -4 -2 -47q-4 -95 40 -169.5t112 -92.5q-105 -5 -152 83q-39 70 -39 277q0 47 6 141t6 140q0 114 -41 165q-8 11 -8 19q0 43 94 78q78 30 129 30
q125 0 125 -184q0 -59 -13 -178t-13 -178q0 -178 88 -178q51 0 78 149q14 84 26 281q8 153 21 159q2 66 16 90q21 35 82 35q47 0 174 -39q15 -5 21 -78q3 50 3 76q0 68 -15 80q-29 24 -58 46q-37 28 -37 61q0 37 42 70t81 33q50 0 96 -49.5t46 -99.5q0 -20 -11 -37
q-26 -44 -48 -99q-11 -28 -48 -99q-34 -64 -47 -79z" />
    <glyph glyph-name="Ygrave" unicode="&#x1ef2;" horiz-adv-x="1196" 
d="M544 666q76 237 103 305q80 200 161 262q46 31 140 31q53 0 129 -15q106 -22 106 -53q0 -12 -30 -27q-64 -26 -99 -57q-141 -121 -268 -526q-37 -117 -37 -301q0 -82 31 -185q-64 86 -64 252q0 68 4 152q-18 -31 -18 -150q0 -194 76 -301q6 -8 6 -16q0 -29 -66 -45
q-47 -12 -92 -12q-203 0 -203 163q0 107 60 316q-105 186 -209 372q-150 261 -242 316q-12 8 -12 18q0 33 61 74q50 31 91 47q49 17 90 17q67 0 106 -48q55 -65 117 -282q57 -203 59 -307zM450 862q21 -39 43 -117q25 -83 39 -118l8 26q-6 6 -18 49q-19 58 -31 84
q-18 50 -41 76zM514 1544q6 0 11 -6q32 -57 138.5 -141t166.5 -103q6 -2 8 -4q-2 -20 -55 -20q-11 0 -25 2q-133 20 -154 24q-100 23 -137 56q-26 22 -26 61q0 29 22 76q25 55 51 55z" />
    <glyph glyph-name="ygrave" unicode="&#x1ef3;" horiz-adv-x="1005" 
d="M557 662q0 133 22 163q50 64 222 64q153 0 153 -39q0 -2 -2 -6q-22 -53 -27 -281q-10 -508 -12 -514q-22 -385 -106 -463q-37 -35 -115 -35t-70 33q64 6 64 289q0 104 -12 199l-2 2q6 -340 -72 -441q24 52 24 215q0 316 -51 506q-102 -368 -264 -368q-235 0 -235 256
q0 63 17 190t17 191q0 125 -51 194q-6 8 -6 14q0 41 80 72q67 27 115 27q26 0 45 -6q39 -13 53 -158q2 -16 6 -51q2 -13 2 -15q4 0 6 27q2 35 2 76q0 78 -10 108q39 -34 39 -118q0 -74 -32 -218.5t-32 -218.5q0 -139 88 -139q64 0 109 139q37 113 37 193q0 18 -2 57v56z
M313 1237q6 0 10 -6q33 -57 139.5 -141t166.5 -103q6 -2 8 -4q-2 -20 -56 -20q-10 0 -24 2q-133 20 -154 24q-100 23 -137 55q-27 23 -27 62q0 29 23 76q25 55 51 55z" />
    <glyph glyph-name="uni1EF4" unicode="&#x1ef4;" horiz-adv-x="1196" 
d="M544 666q76 237 103 305q80 200 161 262q46 31 140 31q53 0 129 -15q106 -22 106 -53q0 -12 -30 -27q-64 -26 -99 -57q-141 -121 -268 -526q-37 -117 -37 -301q0 -82 31 -185q-64 86 -64 252q0 68 4 152q-18 -31 -18 -150q0 -194 76 -301q6 -8 6 -16q0 -29 -66 -45
q-47 -12 -92 -12q-203 0 -203 163q0 107 60 316q-105 186 -209 372q-150 261 -242 316q-12 8 -12 18q0 33 61 74q50 31 91 47q49 17 90 17q67 0 106 -48q55 -65 117 -282q57 -203 59 -307zM450 862q21 -39 43 -117q25 -83 39 -118l8 26q-6 6 -18 49q-19 58 -31 84
q-18 50 -41 76zM561 -101q36 0 74 -36t38 -74q0 -37 -41 -50.5t-43 -17.5q-8 -33 -30 -96q-2 -4 -5 -6q-2 2 -2 8q0 12 2.5 35.5t2.5 35.5q0 33 -13 45q-24 17 -51 33q-33 25 -33 49q0 27 35 50.5t66 23.5z" />
    <glyph glyph-name="uni1EF5" unicode="&#x1ef5;" horiz-adv-x="1005" 
d="M557 662q0 133 22 163q50 64 222 64q153 0 153 -39q0 -2 -2 -6q-22 -53 -27 -281q-10 -508 -12 -514q-22 -385 -106 -463q-37 -35 -115 -35t-70 33q64 6 64 289q0 104 -12 199l-2 2q6 -340 -72 -441q24 52 24 215q0 316 -51 506q-102 -368 -264 -368q-235 0 -235 256
q0 63 17 190t17 191q0 125 -51 194q-6 8 -6 14q0 41 80 72q67 27 115 27q26 0 45 -6q39 -13 53 -158q2 -16 6 -51q2 -13 2 -15q4 0 6 27q2 35 2 76q0 78 -10 108q39 -34 39 -118q0 -74 -32 -218.5t-32 -218.5q0 -139 88 -139q64 0 109 139q37 113 37 193q0 18 -2 57v56z
M420 -101q37 0 75 -36t38 -74q0 -37 -41 -50.5t-43 -17.5q-9 -33 -31 -96q-2 -4 -4 -6q-2 2 -2 8q0 12 2 35.5t2 35.5q0 33 -12 45q-25 17 -52 33q-32 25 -32 49q0 27 34.5 50.5t65.5 23.5z" />
    <glyph glyph-name="uni1EF6" unicode="&#x1ef6;" horiz-adv-x="1196" 
d="M544 666q76 237 103 305q80 200 161 262q46 31 140 31q53 0 129 -15q106 -22 106 -53q0 -12 -30 -27q-64 -26 -99 -57q-141 -121 -268 -526q-37 -117 -37 -301q0 -82 31 -185q-64 86 -64 252q0 68 4 152q-18 -31 -18 -150q0 -194 76 -301q6 -8 6 -16q0 -29 -66 -45
q-47 -12 -92 -12q-203 0 -203 163q0 107 60 316q-105 186 -209 372q-150 261 -242 316q-12 8 -12 18q0 33 61 74q50 31 91 47q49 17 90 17q67 0 106 -48q55 -65 117 -282q57 -203 59 -307zM450 862q21 -39 43 -117q25 -83 39 -118l8 26q-6 6 -18 49q-19 58 -31 84
q-18 50 -41 76zM596 1670q35 7 65 7q114 0 148 -98q6 -18 6 -38q0 -48 -33 -96q-11 -15 -37 -38q-29 -25 -40 -37q-32 -39 -51 -91q4 45 31 84q7 11 57 71q-4 -2 -9 -5q-37 -33 -66 -76q-35 -52 -34 -91v-5q-4 -8 -13 -8q-27 0 -51 47q-21 40 -21 71q0 46 59 106t59 91
q0 12 -6 24q-18 43 -87 45q-23 -28 -30 -52q-5 -19 -9 -53q-5 -39 -8 -53q0 -3 -2 -6l-1 1q-3 6 -14 10.5t-20 23.5t-9 32q0 4 1 11.5t1 10.5q0 16 -9 46t-9 45q0 10 5 14q29 24 53 24q5 0 13 -3t13 -3t14 3.5t14 3.5q16 0 20 -18z" />
    <glyph glyph-name="uni1EF7" unicode="&#x1ef7;" horiz-adv-x="1005" 
d="M557 662q0 133 22 163q50 64 222 64q153 0 153 -39q0 -2 -2 -6q-22 -53 -27 -281q-10 -508 -12 -514q-22 -385 -106 -463q-37 -35 -115 -35t-70 33q64 6 64 289q0 104 -12 199l-2 2q6 -340 -72 -441q24 52 24 215q0 316 -51 506q-102 -368 -264 -368q-235 0 -235 256
q0 63 17 190t17 191q0 125 -51 194q-6 8 -6 14q0 41 80 72q67 27 115 27q26 0 45 -6q39 -13 53 -158q2 -16 6 -51q2 -13 2 -15q4 0 6 27q2 35 2 76q0 78 -10 108q39 -34 39 -118q0 -74 -32 -218.5t-32 -218.5q0 -139 88 -139q64 0 109 139q37 113 37 193q0 18 -2 57v56z
M472 1318q35 7 65 7q114 0 148 -98q6 -18 6 -38q0 -48 -33 -96q-11 -15 -37 -38q-29 -25 -40 -37q-32 -39 -51 -91q4 45 31 84q7 11 57 71q-4 -2 -9 -5q-37 -33 -66 -76q-35 -52 -34 -91v-5q-4 -8 -13 -8q-27 0 -51 47q-21 40 -21 71q0 46 59 106t59 91q0 12 -6 24
q-18 43 -87 45q-23 -28 -30 -52q-5 -19 -9 -53q-5 -39 -8 -53q0 -3 -2 -6l-1 1q-3 6 -14 10.5t-20 23.5t-9 32q0 4 1 11.5t1 10.5q0 16 -9 46t-9 45q0 10 5 14q29 24 53 24q5 0 13 -3t13 -3t14 3.5t14 3.5q16 0 20 -18z" />
    <glyph glyph-name="uni1EF8" unicode="&#x1ef8;" horiz-adv-x="1196" 
d="M544 666q76 237 103 305q80 200 161 262q46 31 140 31q53 0 129 -15q106 -22 106 -53q0 -12 -30 -27q-64 -26 -99 -57q-141 -121 -268 -526q-37 -117 -37 -301q0 -82 31 -185q-64 86 -64 252q0 68 4 152q-18 -31 -18 -150q0 -194 76 -301q6 -8 6 -16q0 -29 -66 -45
q-47 -12 -92 -12q-203 0 -203 163q0 107 60 316q-105 186 -209 372q-150 261 -242 316q-12 8 -12 18q0 33 61 74q50 31 91 47q49 17 90 17q67 0 106 -48q55 -65 117 -282q57 -203 59 -307zM450 862q21 -39 43 -117q25 -83 39 -118l8 26q-6 6 -18 49q-19 58 -31 84
q-18 50 -41 76zM897 1536q16 -10 16 -41q0 -61 -37 -137q-41 -86 -94 -86q-41 0 -98.5 49t-100.5 49q-37 0 -65.5 -49t-44.5 -49q-56 0 -56 74q0 59 46.5 119.5t103.5 60.5q68 0 126 -70.5t89 -70.5q35 0 61 51q17 37 23 82v-17q2 -79 -51 -131q61 41 82 166z" />
    <glyph glyph-name="uni1EF9" unicode="&#x1ef9;" horiz-adv-x="1005" 
d="M557 662q0 133 22 163q50 64 222 64q153 0 153 -39q0 -2 -2 -6q-22 -53 -27 -281q-10 -508 -12 -514q-22 -385 -106 -463q-37 -35 -115 -35t-70 33q64 6 64 289q0 104 -12 199l-2 2q6 -340 -72 -441q24 52 24 215q0 316 -51 506q-102 -368 -264 -368q-235 0 -235 256
q0 63 17 190t17 191q0 125 -51 194q-6 8 -6 14q0 41 80 72q67 27 115 27q26 0 45 -6q39 -13 53 -158q2 -16 6 -51q2 -13 2 -15q4 0 6 27q2 35 2 76q0 78 -10 108q39 -34 39 -118q0 -74 -32 -218.5t-32 -218.5q0 -139 88 -139q64 0 109 139q37 113 37 193q0 18 -2 57v56z
M760 1241q16 -10 16 -41q0 -61 -36 -137q-41 -86 -95 -86q-41 0 -98 49t-100 49q-37 0 -65.5 -49t-45.5 -49q-55 0 -55 74q0 59 46 119.5t103 60.5q68 0 126.5 -70.5t88.5 -70.5q35 0 62 51q16 37 22 82v-17q2 -80 -51 -131q62 41 82 166z" />
    <glyph glyph-name="quoteleft" unicode="&#x2018;" horiz-adv-x="350" 
d="M263 1251q2 -67 2 -135q7 -155 41 -219q5 -8 0 -14q-12 -23 -61 -23q-78 0 -124 29t-46 82q0 45 53 170q51 116 47 170q-4 28 5.5 42.5t27.5 20.5q23 8 37 -1t18 -122z" />
    <glyph glyph-name="quoteright" unicode="&#x2019;" horiz-adv-x="350" 
d="M137 860q-15 10 -19 123q-2 66 -4 133q-6 156 -39 221q-4 9 0 15q12 20 62 20q77 0 123.5 -27.5t46.5 -80.5q0 -47 -53.5 -168t-47.5 -174q4 -27 -5 -41.5t-30 -20.5q-20 -8 -34 0z" />
    <glyph glyph-name="quotedblleft" unicode="&#x201c;" horiz-adv-x="636" 
d="M548 1219q2 -68 2 -136q6 -155 41 -219q4 -8 0 -14q-12 -23 -61 -23q-78 0 -124 29t-46 82q0 45 53 170q51 117 47 170q-4 29 5 43t28 20q22 9 36.5 -0.5t18.5 -121.5zM263 1251q2 -67 2 -135q7 -155 41 -219q5 -8 0 -14q-12 -23 -61 -23q-78 0 -124 29t-46 82
q0 45 53 170q51 116 47 170q-4 28 5.5 42.5t27.5 20.5q23 8 37 -1t18 -122z" />
    <glyph glyph-name="quotedblright" unicode="&#x201d;" horiz-adv-x="636" 
d="M137 860q-15 10 -19 123q-2 66 -4 133q-6 156 -39 221q-4 9 0 15q12 20 62 20q77 0 123.5 -27.5t46.5 -80.5q0 -47 -53.5 -168t-47.5 -174q4 -27 -5 -41.5t-30 -20.5q-20 -8 -34 0zM421 827q-14 11 -18 123q-2 66 -4 133q-6 156 -39 222q-4 8 0 14q12 20 61 20
q78 0 124 -27.5t46 -80.5q0 -47 -53 -168t-47 -174q4 -27 -5 -41t-30 -21q-20 -8 -35 0z" />
    <glyph glyph-name="ellipsis" unicode="&#x2026;" horiz-adv-x="1267" 
d="M796 86q0 -45 -51 -68q-57 -24 -61 -32q-6 -15 -15 -15q-2 0 -57 29q-43 14 -86 31q-57 24 -57 59v10q22 47 67 79t94 32q52 0 109 -38t57 -87zM383 86q0 -45 -52 -68q-57 -24 -61 -32q-6 -15 -14 -15q-2 0 -58 29q-43 16 -86 31q-57 24 -57 59v10q23 47 68 79t94 32
q51 0 106 -35q60 -41 60 -90zM1210 63q0 -45 -51 -67q-60 -25 -62 -33q-8 -14 -14 -14q-4 0 -57 28q-43 15 -88 31q-58 25 -58 60q0 8 2 10q21 47 66 78.5t94 31.5q53 0 107 -36q61 -39 61 -89z" />
    <glyph glyph-name="ugrave" horiz-adv-x="582" 
 />
    <glyph glyph-name="uacute" horiz-adv-x="580" 
 />
    <glyph glyph-name="yacute" horiz-adv-x="629" 
 />
  </font>
</defs>
</svg>
