<svg xmlns="http://www.w3.org/2000/svg">
<defs>
<font id="UTMBell" horiz-adv-x="1177" >
  <font-face 
    font-family="UTMBell"
    font-weight="400"
    font-stretch="normal"
    units-per-em="2048"
    panose-1="2 4 6 3 5 5 6 2 2 4"
    ascent="1638"
    descent="-410"
    x-height="938"
    cap-height="1198"
    bbox="-276 -447 4942 2045"
    underline-thickness="109"
    underline-position="-143"
    unicode-range="U+0020-2026"
  />
<missing-glyph horiz-adv-x="5040" 
d="M3351 2045h10q37 -10 37 -52q0 -12 -32 -57h-28q0 24 28 54l2 10q-5 13 -10 15h-9q-8 0 -10 -19h-30q6 49 42 49zM2019 2016l29 -31q0 -16 -40 -30h-19l-59 12l-11 -12l-28 25q11 29 43 29h11l42 -11h2q10 0 30 18zM468 1980h142v-60h-94v-75h89v-59h-89v-129l-5 -5h-49
v323zM1155 1980h43l6 -5v-78h30v-52h-30v-188l-6 -5h-49v193h-25v52h25v78zM1621 1980h42l4 -5v-94h3q23 24 54 24h2q58 0 83 -71l2 -39v-143h-52v115q0 80 -42 80h-7q-43 0 -43 -86v-109h-51v323zM2200 1980h49l5 -5v-222q10 -51 45 -51q44 7 44 59v214l5 5h49v-216
q0 -85 -66 -112q-15 -8 -35 -8q-47 0 -82 55q-14 24 -14 57v224zM2435 1980h159v-60h-56v-268h-53v268h-55v55zM2621 1980h71q7 -4 83 -251h2l80 251h73v-328h-54v242h-2l-74 -242h-44q-4 0 -58 182l-19 60h-3v-242h-55v328zM3760 1980h52v-328h-45l-5 5v11l3 2l-3 14
q-29 -40 -78 -40q-67 0 -100 91l-5 39v3q0 94 92 125l23 3q35 0 63 -32h3v107zM2057 1928h36l4 -6v-49h-45v-221h-48v23q-23 -31 -59 -31q-89 14 -89 97v156h51v-104q0 -79 26 -86l18 -5h6q26 0 39 36l3 26v133h53v25zM3476 1928v-55h-31v-221h-47v25h-2q-15 -33 -57 -33
q-68 0 -86 78l-3 29v146h52v-120q0 -50 19 -68l21 -7h9q42 0 42 69v126h27q4 0 4 28l3 3h49zM758 1905q68 0 103 -77q9 -18 12 -54q0 -88 -90 -127l-32 -3q-63 0 -101 73q-12 22 -12 52v10q0 94 101 126h19zM1011 1905h3q74 0 83 -101v-152h-51v119q0 76 -42 76h-5
q-44 0 -44 -76v-119h-52v245h46v-21q30 29 62 29zM1466 1905h7q72 0 105 -89h-60q-16 31 -42 31h-17q-53 -14 -53 -61l-3 -15q12 -69 61 -69h9q22 0 47 27h40l2 3h3l2 -3l2 3l3 -3l2 3l2 -7q-33 -81 -110 -81q-76 0 -110 94l-4 36v3q0 85 77 120q15 8 37 8zM3141 1905h2

<glyph glyph-name=".notdef" horiz-adv-x="5040" 
d="M3351 2045h10q37 -10 37 -52q0 -12 -32 -57h-28q0 24 28 54l2 10q-5 13 -10 15h-9q-8 0 -10 -19h-30q6 49 42 49zM2019 2016l29 -31q0 -16 -40 -30h-19l-59 12l-11 -12l-28 25q11 29 43 29h11l42 -11h2q10 0 30 18zM468 1980h142v-60h-94v-75h89v-59h-89v-129l-5 -5h-49
v323zM1155 1980h43l6 -5v-78h30v-52h-30v-188l-6 -5h-49v193h-25v52h25v78zM1621 1980h42l4 -5v-94h3q23 24 54 24h2q58 0 83 -71l2 -39v-143h-52v115q0 80 -42 80h-7q-43 0 -43 -86v-109h-51v323zM2200 1980h49l5 -5v-222q10 -51 45 -51q44 7 44 59v214l5 5h49v-216
q0 -85 -66 -112q-15 -8 -35 -8q-47 0 -82 55q-14 24 -14 57v224zM2435 1980h159v-60h-56v-268h-53v268h-55v55zM2621 1980h71q7 -4 83 -251h2l80 251h73v-328h-54v242h-2l-74 -242h-44q-4 0 -58 182l-19 60h-3v-242h-55v328zM3760 1980h52v-328h-45l-5 5v11l3 2l-3 14
q-29 -40 -78 -40q-67 0 -100 91l-5 39v3q0 94 92 125l23 3q35 0 63 -32h3v107zM2057 1928h36l4 -6v-49h-45v-221h-48v23q-23 -31 -59 -31q-89 14 -89 97v156h51v-104q0 -79 26 -86l18 -5h6q26 0 39 36l3 26v133h53v25zM3476 1928v-55h-31v-221h-47v25h-2q-15 -33 -57 -33
q-68 0 -86 78l-3 29v146h52v-120q0 -50 19 -68l21 -7h9q42 0 42 69v126h27q4 0 4 28l3 3h49zM758 1905q68 0 103 -77q9 -18 12 -54q0 -88 -90 -127l-32 -3q-63 0 -101 73q-12 22 -12 52v10q0 94 101 126h19zM1011 1905h3q74 0 83 -101v-152h-51v119q0 76 -42 76h-5
q-44 0 -44 -76v-119h-52v245h46v-21q30 29 62 29zM1466 1905h7q72 0 105 -89h-60q-16 31 -42 31h-17q-53 -14 -53 -61l-3 -15q12 -69 61 -69h9q22 0 47 27h40l2 3h3l2 -3l2 3l3 -3l2 3l2 -7q-33 -81 -110 -81q-76 0 -110 94l-4 36v3q0 85 77 120q15 8 37 8zM3141 1905h2
q49 0 70 -60v-14h-52q0 16 -16 16h-4q-14 0 -19 -13v-13q0 -9 68 -35q30 -19 30 -59q0 -58 -61 -80l-23 -3q-76 12 -76 83h54q0 -20 27 -25h4q19 0 24 23q0 22 -68 44q-34 27 -34 59q0 66 74 77zM4203 1905q55 0 77 -63q7 -18 7 -65v-125h-52v112q0 83 -40 83h-11
q-33 0 -40 -54v-141h-52v5h-2l2 2v238h47v-21q25 29 64 29zM4432 1905h5q40 0 69 -40v18l-3 3l3 11h47v-208q0 -97 -85 -132l-33 -4h-7q-70 0 -104 80h59q24 -22 45 -23h13q22 0 43 22q15 13 22 52h-3q-32 -40 -73 -40q-57 0 -96 70q-10 18 -14 63q0 88 87 125zM3851 1897
h53v-136q6 -59 40 -59h7q46 0 46 93v102h51v-245h-47l-3 10h3l-3 3v5l3 2v3h-4q0 -23 -57 -31h-3q-59 0 -84 75l-2 85v93zM690 1771q10 -69 63 -69h7q59 14 59 65v15q-13 65 -59 65h-5q-58 0 -65 -76zM3630 1774q13 -72 61 -72h5q58 0 66 75q0 49 -51 70h-22q-37 0 -56 -57z
M4374 1774q8 -72 65 -72h5q59 12 59 72q0 61 -59 73h-14q-56 -16 -56 -62v-11zM3928 1620h52v-57h-52v57zM1054 1402q43 -11 43 -49v-4q0 -17 -32 -60h-28q0 25 31 57v7q0 12 -7 15h-12q-10 -4 -10 -19h-28v6q0 32 33 44zM3349 1339q92 0 138 -99h-60q-37 42 -80 42
q-55 0 -87 -68q-10 -22 -10 -47q0 -78 81 -110l18 -1q36 0 75 39h61q-44 -97 -138 -97q-93 0 -141 112q-10 31 -10 62q0 97 90 152q29 15 63 15zM3664 1339q57 0 103 -47q46 -51 46 -115v-20q0 -89 -91 -146q-33 -13 -63 -13q-89 0 -138 101q-13 33 -13 60v18q0 98 98 151
q29 11 58 11zM2261 1337h2l47 -11h3q11 0 26 11l18 -36q-18 -19 -35 -19h-3l-54 10l-20 -7l-20 36q18 16 36 16zM716 1334h19q118 0 129 -26q25 -26 25 -62q-10 -57 -30 -57v-6q47 -23 47 -66v-18q0 -63 -69 -88l-54 -5h-67v328zM2550 1334h53v-217q6 -61 45 -61q29 0 44 39
l3 30v203l4 6h45l5 -6v-171q0 -118 -40 -133q-24 -26 -64 -26q-55 0 -91 76l-4 54v206zM2805 1334h59q4 0 122 -237h4v237h50l4 -6v-322h-58q-29 48 -125 238h-3v-238h-53v328zM3101 1334h54v-328h-54v328zM3859 1334h8q155 0 174 -40q23 -11 47 -75l4 -36v-11l3 -2
q0 -94 -82 -149q-35 -15 -99 -15h-55v328zM4141 1334h153v-60h-103v-75h101v-57h-101v-74l4 -5h99v-57h-157v322zM3563 1175v-10q0 -76 79 -108l19 -1q68 0 96 86l3 20v15q0 61 -60 94q-12 8 -39 11q-66 0 -96 -83zM770 1274v-67h9q54 0 54 28l3 14q-11 25 -29 25h-37z
M3912 1274v-206l2 -3v-2q104 0 122 76l2 15v29q0 34 -32 68q-25 23 -78 23h-16zM1041 1259h5q38 0 71 -40v32h49v-245h-49v32q-36 -40 -80 -40q-75 0 -101 97l-5 36q0 89 85 125zM1314 1259h3q74 0 83 -102v-151h-51v128q0 67 -42 67h-10q-34 0 -39 -62v-133h-52v245h47v-21
q28 29 61 29zM1543 1259h5q45 0 71 -40v32h47v-219q0 -95 -104 -126h-16q-74 0 -108 82h59q26 -25 44 -25h14q52 0 64 77q-33 -42 -76 -42q-60 0 -101 81l-7 44v16q0 79 85 117zM1912 1259h2q43 0 61 -37h2q32 37 69 37h4q57 0 79 -55q8 -25 8 -45v-153h-52v138q0 44 -23 55
l-12 2h-15q-32 0 -36 -65v-130h-52v136q0 59 -43 59h-8q-32 0 -36 -57v-138h-54v245h50v-21h2q6 24 54 29zM2282 1259q47 0 75 -42v34h47v-245h-47v32q-36 -40 -78 -40q-74 0 -102 92l-6 41q0 90 85 125zM985 1117q0 -48 61 -61h4q45 0 62 46l3 15v22q-12 62 -57 62h-14
q-41 0 -59 -57v-27zM1487 1128q0 -48 43 -68l18 -4h5q47 0 63 57v23q-11 65 -58 65h-12q-50 0 -59 -73zM2225 1131v-14q15 -61 57 -61h14q58 12 58 64v11q0 45 -37 65l-18 5h-10q-64 -8 -64 -70zM770 1150v-82q0 -5 7 -5q77 0 77 45q0 34 -47 42h-37zM2966 753l24 -28
l-51 -55q-18 12 -27 26zM1524 727l85 -54q0 -15 -21 -42l-87 54q18 41 23 42zM2850 693h38l55 -60h-54l-21 26l-23 -26h-54q54 60 59 60zM3422 693h40l56 -60h-54l-24 26h-1q0 -5 -19 -26h-54zM622 685h52q8 -4 47 -137l34 -110q9 8 34 100l48 147h54v-2l-112 -326h-44z
M1159 685h51v-54h-51v54zM1354 685h46l6 -5v-323h-52v328zM2317 685h45l4 -5v-78h31v-52h-31v-193h-53v193h-26v52h26v78zM2425 685h52v-98h2q23 23 54 23h3q57 0 81 -71l3 -38v-144h-52v115q0 81 -39 81h-10q-42 0 -42 -87v-109h-52v328zM2664 685h52v-54h-52v54zM3028 685
h44l6 -5v-78h29v-52h-29v-193h-54v193h-27v52h27v78zM3234 685h52v-328h-52v328zM3957 685h52v-328h-52v328zM4316 685h51v-54h-51v54zM1555 610h5q83 0 110 -102l3 -23v-11q0 -83 -85 -120l-35 -5q-76 0 -111 97l-4 32q0 97 93 130zM1811 610h4q53 0 78 -60q7 -25 7 -81
v-112h-54v146q-7 50 -37 50h-10q-38 0 -42 -57v-139h-54v245h49v-21q26 29 59 29zM2046 610h4q45 0 63 -39h3v31h49v-206q0 -102 -89 -135l-28 -3h-5q-73 0 -106 81h52l37 -20l15 -3h14q50 0 61 72q-33 -39 -73 -39q-62 0 -98 76q-11 23 -12 60q0 85 86 123zM2866 610h2
q82 0 111 -104l2 -25l-2 -27h-172q15 -45 45 -45l14 -3q29 0 49 22h57v-3q-35 -76 -108 -76q-77 0 -111 97l-1 28v8q0 49 32 89q34 39 82 39zM3429 610h5q41 0 70 -39h2v31h47v-245h-47v31h-2q-35 -39 -77 -39q-71 0 -101 89l-5 36v14q0 86 84 120zM3711 610h7
q88 0 107 -128l-2 -1v-15q0 -65 -66 -106q-21 -11 -46 -11q-34 0 -64 32v-99l-5 -5h-49v325h49v-28q31 36 69 36zM4151 610q44 0 75 -39v31h49v-245h-49v31q-35 -39 -77 -39q-92 0 -108 132q0 84 73 121q15 8 37 8zM922 602h50v-136q3 -60 42 -60h5q44 0 44 87v109h52v-245
h-47v24h-5q0 -23 -56 -32h-3q-55 0 -82 68q-4 35 -4 99v81zM1159 602h51v-245h-51v245zM2664 602h52v-245h-52v245zM4316 602h51v-245h-51v245zM1492 488v-16q13 -66 59 -66h4q59 0 66 76q-13 71 -59 71h-11q-59 -16 -59 -65zM1987 472q15 -66 59 -66h11q48 0 59 75v1
q-13 71 -59 71h-14q-39 0 -56 -57v-24zM2805 506h122v2q-16 45 -59 45h-7q-35 0 -56 -47zM3373 474q13 -68 61 -68h5q52 0 65 63v12q-10 72 -57 72h-16q-56 -14 -56 -63zM3642 478q12 -72 61 -72h3q50 0 65 60v22q0 43 -49 65h-22q-47 0 -58 -72v-3zM4095 472q10 -66 66 -66
q43 0 61 48l2 15v16q0 54 -52 68h-18q-42 0 -59 -60v-21zM3416 321h51v-52h-51v52zM4137 321h51v-52h-51v52zM2733 133h4q35 0 43 -50v-2q0 -16 -24 -41l-10 -17h-28q0 25 28 56l3 2v2q-3 19 -9 19h-10q-8 0 -9 -19h-30q6 50 42 50zM1546 116l52 -60l-26 -19l-52 52zM352 79
h4q75 -48 85 -60l-20 -37q-88 49 -88 58zM3490 79l86 -58l-18 -39q-10 0 -91 55q15 36 23 42zM4578 76l19 -42l-91 -52l-20 39l92 58v-3zM1204 53h51v-19l5 -5h14v-36h-14l-5 -5v-279h-46v31q-34 -40 -81 -40q-72 0 -102 105l-3 26q0 102 101 131h14q33 0 66 -33v59l-6 5
h-43v36h49v24zM1480 45h40l56 -61h-53l-23 27l-23 -27h-53zM2641 45h33q12 0 63 -61h-54l-23 27q-19 -21 -19 -27h-58v4zM49 37h160v-60h-56v-268h-50l-4 5v245l2 3v2l-2 2l2 3l-2 2l2 3l-2 3h-54v54zM699 37h47v-73l2 -2l-2 -3v-3l2 -2l-2 -3v-3l2 -2v-2l-2 -3l2 -3h3
q17 24 51 24h3q53 0 77 -58q7 -17 7 -42v-153h-52v127q0 68 -40 68h-8q-43 0 -43 -86v-109h-52v322zM1297 37h47l5 -6v-49h-52v55zM1987 37h52v-198l70 115h62l-78 -118l90 -125v-2h-70q-10 22 -74 115v-115h-52v328zM2271 37v-99q24 24 53 24q57 0 80 -56q10 -19 10 -77
v-120h-54v133q0 62 -41 62h-11q-31 0 -37 -55v-140h-53v314l-1 3v3l1 2l-1 3l1 3h53zM2458 37h51v-55h-51v55zM3148 37h51v-108q27 33 68 33h3q75 0 105 -94l5 -37q0 -75 -64 -120q-30 -11 -49 -11q-41 0 -72 40v-31h-47v328zM4275 37h52v-99h2q23 24 54 24h3q60 0 82 -74
l2 -41v-138h-52v111q0 82 -32 82l-10 2h-12q-37 0 -37 -80v-115h-52v328zM329 -38h3v-58h-5q-42 0 -42 -57v-138h-53v245h47v-21q18 29 50 29zM564 -38q71 0 86 -87v-166h-51v136q-6 59 -41 59h-6q-45 0 -45 -84v-111h-52v245h50v-21q25 29 59 29zM1504 -38q72 0 105 -94
l5 -39q-2 -24 -7 -24h-169q17 -47 62 -47q24 0 48 21h57q-33 -79 -108 -79q-82 0 -113 105v37q0 81 89 117zM2657 -38h5q77 0 107 -97l3 -26v-21l-3 -13h-170q18 -47 53 -47h12q21 0 42 21h59q-34 -79 -105 -79q-84 0 -115 102l-2 29q0 93 91 128zM2915 -38h4q54 0 78 -60
q7 -25 7 -82v-111h-54v138q0 48 -35 57h-11q-38 0 -43 -57v-138h-54v245h50v-21q25 29 58 29zM3508 -38h6q40 0 70 -40h2v32h47v-245h-47v31h-2q-34 -40 -78 -40q-71 0 -101 90l-4 37v12q0 82 77 117q11 6 30 6zM3781 -38h4q62 0 82 -78l3 -84v-91h-54v138q0 48 -38 57h-9
q-38 0 -42 -52v-143h-54v245h49v-21q26 29 59 29zM4133 -38h1q74 0 104 -93l4 -40q0 -88 -84 -126l-25 -3q-41 0 -68 34v-106h-52v326h47v-29q30 37 73 37zM4714 -38h5q34 0 63 -37q27 37 69 37h6q56 0 79 -66l6 -51v-136h-52v122q0 73 -39 73h-7q-35 0 -41 -50v-140l-5 -5
h-48v140q0 42 -31 55h-17q-40 0 -40 -77v-118h-51v245h47v-21q22 29 56 29zM359 -46h49l5 -6v-234l-5 -5h-49v245zM1297 -46h52v-245h-52v245zM1649 -46h52v-136q4 -60 43 -60h4q44 0 44 81v115h52v-245h-47v24h-5q-12 -33 -59 -33q-52 0 -79 63q-5 12 -5 34v157zM2458 -46
h51v-245h-51v245zM4515 -46h51v-245h-51v245zM1077 -169q0 -53 51 -73h12q54 0 66 66v10q0 53 -54 70h-17q-38 0 -58 -57v-16zM1438 -143h122q-18 47 -53 47h-7q-43 0 -62 -44v-3zM2599 -143h122q-21 47 -54 47h-7q-46 0 -61 -47zM3196 -158v-11q10 -73 61 -73h5q64 8 64 71
v5q0 45 -38 65l-18 5h-14q-60 -14 -60 -62zM3452 -173q14 -69 62 -69h11q41 0 59 60v13q-8 73 -56 73h-17q-47 0 -59 -73v-4zM4062 -158v-22q0 -47 59 -62h9q50 0 61 76q-13 70 -58 70h-15q-56 -17 -56 -62z" />
    <glyph glyph-name=".null" horiz-adv-x="0" 
 />
    <glyph glyph-name="nonmarkingreturn" horiz-adv-x="571" 
 />
    <glyph glyph-name="space" unicode=" " horiz-adv-x="958" 
 />
    <glyph glyph-name="exclam" unicode="!" horiz-adv-x="772" 
d="M749 1049l-76 -629h-434l-76 629q-10 88 90 141q84 45 199 47q119 0 205 -45q102 -53 92 -143zM206 166q0 76 72 130t170 54q100 0 171 -54t71 -130t-71 -129t-171 -53q-98 0 -170 53t-72 129z" />
    <glyph glyph-name="quotedbl" unicode="&#x22;" horiz-adv-x="1034" 
d="M399 1044l-73 -405h-248l-76 405q-2 13 -2 27q0 64 47 109q53 53 150 53q100 0 155 -53q49 -45 49 -109q0 -12 -2 -27zM846 1051l-76 -406h-248l-76 406q-2 12 -2 24q0 64 48 111q55 51 149 51q100 0 158 -51q49 -45 49 -111q0 -12 -2 -24z" />
    <glyph glyph-name="numbersign" unicode="#" horiz-adv-x="3426" 
d="M1413 0h-209l-1038 651v-651h-166v1198h190l1057 -659v659h166v-1198zM2773 463q0 -225 -205 -367q-178 -123 -426 -123q-295 0 -481 164q-164 144 -164 342q0 213 203 357q180 127 446 127q181 0 334 -74q170 -84 246 -232q47 -92 47 -194zM2279 174v588q0 82 -90 82
h-106q-90 0 -90 -82v-588q0 -88 98 -88h90q98 0 98 88zM2816 182q0 84 73.5 142.5t178.5 58.5q104 0 178 -58.5t74 -142.5q0 -82 -74 -140t-178 -58q-105 0 -178.5 58t-73.5 140z" />
    <glyph glyph-name="dollar" unicode="$" horiz-adv-x="1583" 
d="M608 -213v188q-436 13 -608 166l74 146q55 -45 121 -82q153 -86 331 -111q37 -6 72 -6q109 0 178.5 44t71.5 120q2 98 -209 170q-111 35 -328 110q-190 68 -254 138q-59 63 -57 182q2 92 56.5 173t144.5 124q143 68 407 74v147h133v-147q285 -11 500 -76l-74 -139
q-262 110 -471 98q-211 -10 -200 -84q6 -57 202 -123q111 -39 306.5 -100.5t285.5 -132.5q109 -91 107 -230q-4 -213 -199 -334q-178 -110 -457 -125v-190h-133z" />
    <glyph glyph-name="percent" unicode="%" horiz-adv-x="2168" 
d="M1982 336q0 -168 -153 -273q-131 -90 -313 -90q-220 0 -357 121q-121 107 -121 252q0 158 150 264q135 95 332 95q133 0 245 -56q127 -61 183 -170q34 -69 34 -143zM1458 1262l-790 -1336h-148l791 1336h147zM944 852q0 -168 -153 -272q-132 -91 -316 -91
q-217 0 -354 121q-121 107 -121 252q0 158 150 264q133 95 329 95q133 0 248 -56q125 -61 182 -170q35 -69 35 -143zM1616 121v434q0 61 -66 61h-80q-65 0 -65 -61v-434q0 -66 74 -66h65q72 0 72 66zM578 637v434q0 62 -66 62h-80q-65 0 -65 -62v-434q0 -66 71 -66h66
q74 0 74 66z" />
    <glyph glyph-name="ampersand" unicode="&#x26;" horiz-adv-x="2027" 
d="M977 195l-428 374q-78 -16 -80 -133v-174q0 -65 46 -99t198 -34q114 0 264 66zM1309 1180l92 -203q-170 78 -393 78q-136 0 -187 -35q-57 -43 25 -117l516 -471q209 156 395 344v-211q-55 -55 -282 -235l366 -334h-635l-119 104q-245 -110 -456 -114q-254 -4 -418 86
q-213 116 -213 313q0 135 102 240q93 92 234 131q-100 92 -100 172q0 133 219 211q198 69 497 69q185 0 357 -28z" />
    <glyph glyph-name="quotesingle" unicode="'" horiz-adv-x="692" 
d="M0 1067q0 82 73.5 139.5t180.5 57.5q104 0 179 -58.5t73 -138.5q-2 -174 -377 -332l-25 56q29 34 52 92q-156 51 -156 184z" />
    <glyph glyph-name="parenleft" unicode="(" horiz-adv-x="1060" 
d="M864 -76l36 146q-180 -13 -215 14q-65 53 -65 145v729q0 93 65 146q35 29 215 18l-36 142q-306 6 -502 -64q-184 -67 -260 -195t-76 -370q0 -295 75 -440.5t275 -217.5q185 -65 488 -53z" />
    <glyph glyph-name="parenright" unicode=")" horiz-adv-x="1060" 
d="M37 -76l-37 146q180 -13 215 14q66 53 66 145v729q0 93 -66 146q-35 29 -215 18l37 142q305 6 502 -64q184 -67 259.5 -195t75.5 -370q0 -295 -74.5 -440.5t-275.5 -217.5q-184 -65 -487 -53z" />
    <glyph glyph-name="asterisk" unicode="*" horiz-adv-x="698" 
d="M47 1137l25 -9q71 -24 118 -45q-8 86 -10 123v25h150v-27q-2 -51 -11 -121q56 25 121 45l25 9l47 -142l-25 -8q-61 -20 -120 -31q32 -36 79 -94l19 -20l-123 -86l-14 20q-33 41 -74 109q-37 -70 -70 -109l-14 -20l-121 86l17 20q49 62 81 96q-63 13 -120 29l-27 6z" />
    <glyph glyph-name="plus" unicode="+" horiz-adv-x="882" 
d="M16 498v196h289v293h209v-293h286v-196h-286v-295h-209v295h-289z" />
    <glyph glyph-name="comma" unicode="," horiz-adv-x="628" 
d="M0 145q0 72 64.5 122t156.5 50t157.5 -50t63.5 -122q-2 -153 -329 -290l-21 49q25 30 45 80q-137 45 -137 161z" />
    <glyph glyph-name="hyphen" unicode="-" horiz-adv-x="466" 
d="M20 711h481v-279h-481v279z" />
    <glyph glyph-name="hyphen" unicode="&#x2010;" horiz-adv-x="466" 
d="M20 711h481v-279h-481v279z" />
    <glyph glyph-name="period" unicode="." horiz-adv-x="690" 
d="M0 182q0 84 73.5 142.5t178.5 58.5q104 0 178 -58.5t74 -142.5q0 -82 -74 -140t-178 -58q-105 0 -178.5 58t-73.5 140z" />
    <glyph glyph-name="slash" unicode="/" horiz-adv-x="1124" 
d="M791 1262h147l-791 -1336h-147z" />
    <glyph glyph-name="zero" unicode="0" horiz-adv-x="1662" 
d="M1543 588q0 -287 -260 -465q-224 -154 -537 -154q-371 0 -606 207q-205 180 -205 430q0 268 256 449q227 162 563 162q330 0 563 -183q226 -178 226 -446zM920 221v742q0 102 -113 102h-137q-110 0 -110 -102v-742q0 -110 123 -110h112q125 0 125 110z" />
    <glyph glyph-name="one" unicode="1" horiz-adv-x="890" 
d="M738 0h-586v1077h-168v121h754v-1198z" />
    <glyph glyph-name="two" unicode="2" horiz-adv-x="1497" 
d="M596 1212q-465 -4 -645 -165l74 -146q55 45 119 82q155 86 333 111q37 6 72 6q109 0 178.5 -43t71.5 -121q2 -57 -209 -168q-395 -213 -401 -217q-218 -135 -218 -248v-307h1389v123h-801q-16 80 94 135q129 61 259 123q190 96 294 176q144 109 142 199q-4 213 -201 333
q-211 132 -551 127z" />
    <glyph glyph-name="three" unicode="3" horiz-adv-x="1464" 
d="M414 -4q-248 0 -463 63l70 140q55 -23 104 -39q121 -39 197 -41q379 -13 379 225v100h-637v121h637v324q0 192 -353 180q-112 -4 -301 -78l-69 137q215 64 462 64q717 0 814 -289q10 -33 10 -63q0 -133 -187 -189q76 -6 131 -30q129 -58 136 -199q12 -264 -402 -369
q-227 -57 -528 -57z" />
    <glyph glyph-name="four" unicode="4" horiz-adv-x="1509" 
d="M514 1192h670v-774h207v-125h-207v-297h-586v299h-696zM598 1104l-467 -686h467v686z" />
    <glyph glyph-name="five" unicode="5" horiz-adv-x="1409" 
d="M4 1198h1186v-125h-608v-276h245q246 0 330 -72q148 -129 148 -279q0 -139 -119 -258.5t-295 -171.5q-137 -41 -428 -41q-248 0 -463 66l70 137q55 -22 104 -37q121 -39 197 -41q172 -6 254 29q98 41 98 150v170q0 100 -66 153q-30 25 -133 25h-520v571z" />
    <glyph glyph-name="six" unicode="6" horiz-adv-x="1562" 
d="M1456 475q19 -244 -229 -377q-186 -98 -391 -98q-191 0 -279 12q-168 23 -307 103q-299 178 -299 473q0 178 109 319q139 180 385 250q143 39 426 39q249 0 464 -63l-69 -140q-55 23 -105 39q-120 39 -196 41q-172 6 -256 -29q-96 -43 -96 -151v-49q129 22 266 22
q551 0 577 -391zM899 254v328q0 102 -112 102h-62q-112 0 -112 -102v-328q0 -111 124 -111h37q125 0 125 111z" />
    <glyph glyph-name="seven" unicode="7" horiz-adv-x="1437" 
d="M68 0l590 1077h-707v121h1382l-637 -1198h-628z" />
    <glyph glyph-name="eight" unicode="8" horiz-adv-x="1605" 
d="M1526 371q0 -185 -246 -299q-213 -99 -510 -99q-350 0 -573 133q-195 117 -195 279q0 172 242 289q57 26 120 47l-8 4q-161 94 -161 203q0 125 176 209q155 75 405 75q109 0 209 -22q137 -31 199 -64q155 -84 155 -208q0 -64 -47 -121q-20 -25 -119 -80q207 -68 297 -189
q56 -75 56 -157zM895 786v275q0 49 -78 49h-94q-76 0 -76 -49v-275q0 -53 84 -53h78q86 0 86 53zM938 168v371q0 67 -107 67h-129q-106 0 -106 -67v-371q0 -72 119 -72h106q117 0 117 72z" />
    <glyph glyph-name="nine" unicode="9" horiz-adv-x="1501" 
d="M1459 602q0 -178 -109 -319q-139 -181 -385 -248q-143 -41 -428 -41q-248 0 -463 63l70 140q55 -23 104 -39q121 -37 197 -41q172 -6 254 28q98 43 98 152v51q-129 -24 -266 -24q-551 0 -578 391q-18 243 230 377q184 100 389 100q190 0 281 -12q167 -25 305 -105
q301 -176 301 -473zM797 938q0 109 -125 109h-37q-125 0 -125 -109v-330q0 -102 113 -102h62q112 0 112 102v330z" />
    <glyph glyph-name="colon" unicode=":" horiz-adv-x="690" 
d="M0 705q0 81 73.5 140.5t178.5 59.5q104 0 178 -59.5t74 -140.5q0 -82 -74 -140.5t-178 -58.5q-105 0 -178.5 58.5t-73.5 140.5zM0 182q0 84 73.5 142.5t178.5 58.5q104 0 178 -58.5t74 -142.5q0 -82 -74 -140t-178 -58q-105 0 -178.5 58t-73.5 140z" />
    <glyph glyph-name="semicolon" unicode=";" horiz-adv-x="694" 
d="M0 156q0 82 73.5 139t180.5 57q104 0 179 -57t73 -139q-2 -174 -377 -332l-25 55q29 35 52 92q-156 52 -156 185zM4 705q0 81 74 140.5t178 59.5t178 -59.5t74 -140.5q0 -82 -74 -140.5t-178 -58.5t-178 58.5t-74 140.5z" />
    <glyph glyph-name="less" unicode="&#x3c;" horiz-adv-x="466" 
d="M373 141l-326 365v137l326 369v-189l-220 -248l220 -260v-174z" />
    <glyph glyph-name="equal" unicode="=" horiz-adv-x="958" 
d="M73 842h731v-197h-731v197zM73 535h731v-197h-731v197z" />
    <glyph glyph-name="greater" unicode="&#x3e;" horiz-adv-x="466" 
d="M67 141l326 365v137l-326 369v-189l219 -248l-219 -260v-174z" />
    <glyph glyph-name="question" unicode="?" horiz-adv-x="1404" 
d="M401 1094q-145 -2 -348 -66l-53 139q250 50 530 45q277 -4 394 -24q256 -43 290 -176q7 -19 7 -35q0 -80 -123 -141q-113 -48 -226 -95q-120 -53 -120 -118v-220h-494v259q0 83 68 155q39 39 133 101q73 51 80 73q6 15 6 29q0 76 -144 74zM260 166q0 76 70.5 130
t171.5 54q98 0 168.5 -54t70.5 -130t-70.5 -129t-168.5 -53q-101 0 -171.5 53t-70.5 129z" />
    <glyph glyph-name="at" unicode="@" horiz-adv-x="1486" 
d="M768 387q-88 -143 -205 -143q-239 0 -239 256q0 153 113.5 279t264.5 126q142 0 160 -129l35 115h154l-127 -461q-11 -37 -11 -63q0 -74 52 -74q22 0 61 20q109 56 168 172q55 109 55 238q0 207 -145 334q-137 119 -350 119q-271 0 -446 -183.5t-175 -453.5
q0 -254 153.5 -395.5t407.5 -141.5q236 0 467 152l31 -41q-225 -168 -498 -168q-301 0 -489 149q-205 164 -205 459q0 291 223 489q215 191 510 191q248 0 404 -131q163 -137 163 -381q0 -121 -44 -225.5t-126 -173.5q-92 -80 -198 -80q-152 0 -164 145zM737 850
q-43 0 -82 -31q-57 -51 -108 -185t-51 -218q0 -115 88 -115q90 0 168 182q63 158 63 265q0 102 -78 102z" />
    <glyph glyph-name="A" unicode="A" horiz-adv-x="1753" 
d="M1617 0h-648l-108 168h-643l-105 -168h-186l752 1198h159zM779 291l-244 381l-237 -381h481z" />
    <glyph glyph-name="B" unicode="B" horiz-adv-x="1615" 
d="M0 0v1198h913q170 0 256 -31q154 -53 158 -204q2 -91 -74 -148q-65 -49 -151 -53q164 0 256 -46t128 -118t36 -199q0 -98 -64 -192q-65 -101 -174 -152q-86 -41 -186 -51q-56 -4 -262 -4h-836zM586 791h82q125 0 125 110v68q0 102 -113 102h-94v-280zM586 152h82
q125 0 125 110v256q0 103 -113 103l-94 -3v-466z" />
    <glyph glyph-name="C" unicode="C" horiz-adv-x="1548" 
d="M1372 217q-233 -74 -368 -72q-220 7 -277 52q-65 53 -65 151v547q0 109 96 149q84 35 256 29q112 -4 301 -78l69 138q-215 65 -464 65q-283 0 -426 -41q-246 -67 -385 -250q-109 -139 -109 -319q0 -295 299 -471q139 -82 307 -105q88 -12 279 -12q278 0 456 63z" />
    <glyph glyph-name="D" unicode="D" horiz-adv-x="1648" 
d="M586 164h84q123 0 123 110v668q0 102 -111 102h-96v-880zM0 0v1198h672q266 0 401 -41q203 -61 328 -209q133 -155 133 -360q0 -295 -281 -471q-129 -82 -286 -105q-84 -12 -262 -12h-705z" />
    <glyph glyph-name="E" unicode="E" horiz-adv-x="1413" 
d="M586 516h661v-123h-661v-270h661v-123h-1247v1198h1245v-121h-659v-561z" />
    <glyph glyph-name="F" unicode="F" horiz-adv-x="1431" 
d="M586 516h661v-123h-661v-393h-586v1198h1245v-121h-659v-561z" />
    <glyph glyph-name="G" unicode="G" horiz-adv-x="1777" 
d="M1252 43q-211 -43 -389 -43q-191 0 -279 12q-168 23 -307 105q-299 176 -299 471q0 180 109 319q139 183 383 250q145 41 428 41q249 0 464 -65l-69 -138q-55 23 -105 37q-120 39 -196 41q-174 6 -256 -29q-96 -40 -96 -149v-547q0 -98 65 -151q57 -45 277 -52h24v586
h586v-588q-103 -37 -340 -100z" />
    <glyph glyph-name="H" unicode="H" horiz-adv-x="1808" 
d="M1624 0h-586v813h-452v-813h-586v1198h586v-250h452v250h586v-1198z" />
    <glyph glyph-name="I" unicode="I" horiz-adv-x="794" 
d="M608 0h-586v1198h586v-1198z" />
    <glyph glyph-name="J" unicode="J" horiz-adv-x="1411" 
d="M697 -12q-78 -13 -279 -13q-278 0 -456 66l-31 152q233 -74 369 -70q219 4 276 51q66 51 66 145v879h585l-2 -911q0 -109 -114 -178q-125 -76 -414 -121z" />
    <glyph glyph-name="K" unicode="K" horiz-adv-x="1589" 
d="M1520 0h-635l-299 535v-535h-586v1198h586v-401l594 401h245l-438 -301z" />
    <glyph glyph-name="L" unicode="L" horiz-adv-x="1413" 
d="M1227 0h-1227v1198h586v-1075h641v-123z" />
    <glyph glyph-name="M" unicode="M" horiz-adv-x="2191" 
d="M2028 0h-590v735l-555 -735h-176l-541 713v-713h-166v1198h442l580 -723l588 723h418v-1198z" />
    <glyph glyph-name="N" unicode="N" horiz-adv-x="1552" 
d="M1413 0h-209l-1038 651v-651h-166v1198h190l1057 -659v659h166v-1198z" />
    <glyph glyph-name="O" unicode="O" horiz-adv-x="1662" 
d="M1543 592q0 -285 -260 -463q-224 -156 -537 -156q-371 0 -606 209q-205 180 -205 430q0 269 256 449q227 162 563 162q330 0 563 -185q226 -176 226 -446zM920 227v742q0 102 -113 102h-137q-110 0 -110 -102v-742q0 -110 123 -110h112q125 0 125 110z" />
    <glyph glyph-name="P" unicode="P" horiz-adv-x="1519" 
d="M584 399h84q123 0 123 111v467q0 102 -111 102h-96v-680zM586 0h-586v1198h815q580 0 592 -428q12 -508 -633 -508l-188 -2v-260z" />
    <glyph glyph-name="Q" unicode="Q" horiz-adv-x="1728" 
d="M697 117v141h166v-139q90 14 90 108v742q0 102 -113 102h-137q-110 0 -110 -102v-742q0 -102 104 -110zM697 -266v243q-317 23 -523 204t-206 431q0 269 256 449q227 162 563 162q330 0 563 -185q226 -176 226 -446q0 -285 -260 -463q-193 -133 -453 -152v-243h-166z" />
    <glyph glyph-name="R" unicode="R" horiz-adv-x="1644" 
d="M586 0h-586v1198h889q520 0 520 -377q0 -24 -2 -51q-23 -270 -311 -285h278q53 0 94 -35.5t41 -89.5v-360h-585v346q0 27 -31 46.5t-59 19.5l-248 -2v-410zM584 537h84q123 0 123 110v330q0 102 -111 102h-96v-542z" />
    <glyph glyph-name="S" unicode="S" horiz-adv-x="1533" 
d="M645 -27q-465 7 -645 168l74 146q55 -45 119 -82q155 -88 333 -111q37 -6 72 -6q109 0 178.5 43t71.5 119q2 100 -209 170q-111 37 -328 110q-303 111 -303 310q0 30 6 61q54 311 613 322q346 6 614 -76l-74 -141q-262 110 -471 100q-211 -12 -200 -86q6 -57 200 -121
q113 -39 308.5 -100.5t285.5 -134.5q109 -89 107 -228q-4 -213 -201 -334q-211 -133 -551 -129z" />
    <glyph glyph-name="T" unicode="T" horiz-adv-x="1630" 
d="M991 0h-583v1077h-457v121h1495v-121h-455v-1077z" />
    <glyph glyph-name="U" unicode="U" horiz-adv-x="1626" 
d="M1464 1198v-797q0 -155 -34 -219q-70 -129 -267 -176q-129 -33 -395 -33q-238 0 -371 27q-243 47 -340 172q-57 74 -57 217v809h586v-840q0 -96 18 -137q60 -127 324 -127q342 0 366 185q4 36 4 104v815h166z" />
    <glyph glyph-name="V" unicode="V" horiz-adv-x="1558" 
d="M770 0h-129l-686 1198h631l346 -600l346 600h186z" />
    <glyph glyph-name="W" unicode="W" horiz-adv-x="1970" 
d="M1883 1198l-631 -1198h-104l-263 535l-280 -535h-105l-569 1198h616l238 -496l256 496h139l250 -512l270 512h183z" />
    <glyph glyph-name="X" unicode="X" horiz-adv-x="1671" 
d="M397 604l-405 594h694l303 -432l318 432h247l-444 -606l408 -594h-697l-303 430l-315 -430h-248z" />
    <glyph glyph-name="Y" unicode="Y" horiz-adv-x="1548" 
d="M981 0h-586v653l-444 545h678l293 -352l315 352h199l-455 -520v-678z" />
    <glyph glyph-name="Z" unicode="Z" horiz-adv-x="1404" 
d="M1210 0h-1210l590 1077h-520v121h1196l-572 -1075h516v-123z" />
    <glyph glyph-name="bracketleft" unicode="[" horiz-adv-x="937" 
d="M715 -78l37 144q-181 -13 -215 16q-66 53 -66 143v731q0 93 66 146q34 26 215 16l-37 142q-41 4 -94 4q-228 0 -383 -45q-238 -70 -238 -230v-794q0 -195 356 -252q150 -25 359 -21z" />
    <glyph glyph-name="backslash" unicode="\" horiz-adv-x="1124" 
d="M243 1262h-147l791 -1336h147z" />
    <glyph glyph-name="bracketright" unicode="]" horiz-adv-x="937" 
d="M37 -78l-37 144q180 -13 215 16q66 53 66 143v731q0 93 -66 146q-35 26 -215 16l37 142q41 4 94 4q227 0 383 -45q238 -70 238 -230v-794q0 -195 -357 -252q-149 -25 -358 -21z" />
    <glyph glyph-name="asciicircum" unicode="^" horiz-adv-x="851" 
d="M83 1300l287 330h106l287 -330h-156l-184 160l-182 -160h-158z" />
    <glyph glyph-name="underscore" unicode="_" horiz-adv-x="1509" 
 />
    <glyph glyph-name="grave" unicode="`" horiz-adv-x="512" 
d="M16 1589l262 -323h189l-150 323h-301z" />
    <glyph glyph-name="a" unicode="a" 
d="M644 954q207 -10 311 -92q82 -65 82 -160v-702h-780q-121 0 -223 102q-109 107 -101 238q6 133 135 242q119 100 240 100h283v39q0 96 -170 96q-97 0 -211 -29q-107 -26 -150 -57l-37 143q287 84 523 84q49 0 98 -4zM591 98v484h-91q-104 0 -104 -97v-284
q0 -103 117 -103h78z" />
    <glyph glyph-name="b" unicode="b" horiz-adv-x="1249" 
d="M446 111v696h91q104 0 104 -96v-498q0 -102 -117 -102h-78zM446 1198h-446v-1198h623q180 0 309 74q172 98 196 309q5 35 5 72q0 112 -29 192q-80 225 -324 281q-53 10 -213 10h-121v260z" />
    <glyph glyph-name="c" unicode="c" horiz-adv-x="1214" 
d="M1088 160q-186 -60 -297 -58q-178 4 -225 41q-53 43 -53 123v443q0 155 286 145q90 -4 244 -63l55 110q-174 53 -375 53q-229 0 -346 -32q-172 -50 -280 -166q-119 -127 -119 -295q0 -240 242 -383q112 -66 250 -84q71 -10 225 -10q225 0 370 51z" />
    <glyph glyph-name="d" unicode="d" horiz-adv-x="1226" 
d="M619 111v696h-90q-106 0 -106 -96v-498q0 -102 116 -102h80zM619 1198h447v-1198h-623q-180 0 -309 74q-172 98 -199 309q-4 35 -4 72q0 112 29 192q82 225 325 281q54 10 213 10h121v260z" />
    <glyph glyph-name="e" unicode="e" horiz-adv-x="1290" 
d="M1174 481q0 -35 -10 -43t-43 -8l-660 -2v-160q0 -78 54 -121q45 -36 221 -41q108 -2 295 58l-25 -123q-143 -51 -364 -51q-154 0 -226 10q-135 18 -243 84q-242 141 -242 377q0 166 119 293q106 114 276 161q142 41 320 37q162 -4 299 -90q100 -65 151 -143
q70 -107 78 -238zM656 524v215q0 58 -12.5 77.5t-61.5 19.5h-41q-53 0 -69 -25q-11 -16 -11 -70v-217h195z" />
    <glyph glyph-name="f" unicode="f" horiz-adv-x="1114" 
d="M386 1192q77 8 215 8q215 0 352 -49l22 -119q-178 58 -282 55q-170 -4 -215 -38q-49 -41 -49 -113v-291h510v-98h-510v-547h-451v963q0 180 408 229z" />
    <glyph glyph-name="g" unicode="g" horiz-adv-x="1208" 
d="M1068 938v-1030q0 -84 -86 -135q-97 -60 -318 -95q-61 -8 -215 -8q-215 0 -352 49l-23 117q179 -55 283 -53q170 2 213 39q51 41 51 112v66h-215q-215 0 -338 119q-141 135 -137 397q6 223 189 338q135 84 290 84h658zM621 131v698h-78q-116 0 -116 -104v-496
q0 -96 104 -96z" />
    <glyph glyph-name="h" unicode="h" horiz-adv-x="1304" 
d="M758 944q407 -29 407 -229v-715h-450v678q0 88 -51 113q-39 20 -101 20q-55 0 -112 -16v-795h-451v1198h451v-283q106 31 239 31q35 0 68 -2z" />
    <glyph glyph-name="i" unicode="i" horiz-adv-x="612" 
d="M451 1198v-197h-451v197h451zM0 0v938h451v-938h-451z" />
    <glyph glyph-name="j" unicode="j" horiz-adv-x="606" 
d="M-235 -330l-41 121q33 -4 68 -4q96 0 153 41q47 33 47 115v995h451v-1020q0 -78 -92 -128t-318 -101q-94 -21 -268 -19zM443 1198v-197h-451v197h451z" />
    <glyph glyph-name="k" unicode="k" horiz-adv-x="1214" 
d="M1187 0h-489l-225 498v-498h-451v1198h451v-551l413 291h189l-281 -205z" />
    <glyph glyph-name="l" unicode="l" horiz-adv-x="612" 
d="M473 0h-451v1198h451v-1198z" />
    <glyph glyph-name="m" unicode="m" horiz-adv-x="2021" 
d="M1022 891q172 57 346 57q49 0 105 -4q407 -29 407 -229v-715h-448v678q0 88 -52 113q-34 16 -92 16q-57 0 -123 -14v-793h-450v678q0 88 -51 113q-39 20 -101 20q-55 0 -112 -16v-795h-451v938h446l5 -23q106 31 239 31q201 0 332 -55z" />
    <glyph glyph-name="n" unicode="n" horiz-adv-x="1304" 
d="M758 944q407 -29 407 -229v-715h-450v678q0 88 -51 113q-39 20 -101 20q-55 0 -112 -16v-795h-451v938h444l7 -23q106 31 239 31q35 0 68 -2z" />
    <glyph glyph-name="o" unicode="o" horiz-adv-x="1347" 
d="M1207 463q0 -225 -205 -367q-178 -123 -426 -123q-295 0 -481 164q-164 144 -164 342q0 213 203 357q180 127 446 127q180 0 334 -74q170 -84 246 -232q47 -92 47 -194zM713 174v588q0 82 -90 82h-106q-90 0 -90 -82v-588q0 -88 98 -88h90q98 0 98 88z" />
    <glyph glyph-name="p" unicode="p" horiz-adv-x="1249" 
d="M446 -260h-446v1198h623q180 0 309 -74q172 -98 196 -307q5 -35 5 -74q0 -112 -29 -190q-80 -227 -324 -281q-53 -12 -213 -12h-121v-260zM446 829v-698l91 2q104 0 104 94v498q0 104 -117 104h-78z" />
    <glyph glyph-name="q" unicode="q" horiz-adv-x="1204" 
d="M619 -260h447v1198h-623q-180 0 -309 -74q-172 -98 -199 -307q-4 -35 -4 -74q0 -112 29 -190q82 -227 325 -281q52 -12 213 -12h121v-260zM619 829v-698h-90q-106 0 -106 96v498q0 104 116 104h80z" />
    <glyph glyph-name="r" unicode="r" horiz-adv-x="978" 
d="M862 926l-98 -150q-68 31 -137 31q-101 0 -176 -57v-750h-451v938h444l7 -59q92 67 247 67q78 0 164 -20z" />
    <glyph glyph-name="s" unicode="s" horiz-adv-x="1138" 
d="M435 -18q-363 4 -504 129l57 114q43 -35 95 -63q120 -68 260 -88q28 -2 57 -2q84 0 138.5 33.5t56.5 91.5q2 77 -164 133q-86 28 -256 86q-238 86 -238 243q0 23 4 48q43 243 482 249q268 5 479 -57l-58 -111q-204 86 -368 78t-158 -67q6 -45 158 -94q88 -31 240.5 -79
t224.5 -106q84 -69 82 -178q-5 -166 -156 -260q-166 -102 -432 -100z" />
    <glyph glyph-name="t" unicode="t" horiz-adv-x="1046" 
d="M859 115l-33 -119q-119 -16 -223 -16q-47 0 -84 4q-205 18 -314 84q-96 59 -96 145v629h-178v96h178v260h451v-260h323v-96h-323v-604q0 -70 51 -111q41 -35 117 -35q61 0 131 23z" />
    <glyph glyph-name="u" unicode="u" horiz-adv-x="1351" 
d="M408 -4q-408 27 -408 229v713h451v-678q0 -86 51 -110q39 -21 100 -21q55 0 113 16v793h450v-938h-446l-4 25q-107 -31 -240 -31q-35 0 -67 2z" />
    <glyph glyph-name="v" unicode="v" horiz-adv-x="1253" 
d="M617 0h-100l-539 938h494l270 -469l272 469h146z" />
    <glyph glyph-name="w" unicode="w" horiz-adv-x="1509" 
d="M1438 938l-494 -938h-82l-206 420l-220 -420h-79l-449 938h483l187 -387l202 387h109l195 -399l210 399h144z" />
    <glyph glyph-name="x" unicode="x" horiz-adv-x="1300" 
d="M301 475l-319 463h544l238 -336l248 336h194l-348 -475l318 -463h-543l-238 338l-247 -338h-193z" />
    <glyph glyph-name="y" unicode="y" horiz-adv-x="1284" 
d="M339 -358h-193l240 362l-455 934h489l224 -526l323 526h199z" />
    <glyph glyph-name="z" unicode="z" horiz-adv-x="1050" 
d="M901 0h-946l461 844h-408v94h948l-458 -840h403v-98z" />
    <glyph glyph-name="braceleft" unicode="{" horiz-adv-x="1089" 
d="M894 -70l37 144q-180 -13 -215 16q-65 53 -65 143v224l-187 161l187 162v183q0 94 65 147q35 27 215 16l-37 142q-41 2 -94 2q-227 0 -383 -43q-237 -70 -237 -232v-180l-152 -104v-183l152 -127v-198q0 -195 356 -252q149 -25 358 -21z" />
    <glyph glyph-name="bar" unicode="|" horiz-adv-x="415" 
d="M161 1382h125v-1538h-125v1538z" />
    <glyph glyph-name="braceright" unicode="}" horiz-adv-x="1089" 
d="M37 -70l-37 144q180 -13 215 16q66 53 66 143v224l186 161l-186 162v183q0 94 -66 147q-35 27 -215 16l37 142q41 2 94 2q227 0 383 -43q238 -70 238 -232v-180l151 -104v-183l-151 -127v-198q0 -195 -357 -252q-149 -25 -358 -21z" />
    <glyph glyph-name="asciitilde" unicode="~" horiz-adv-x="688" 
d="M665 1507v-141q-115 -104 -215 -104q-51 0 -141.5 37.5t-143.5 37.5q-67 0 -137 -43v140q111 75 205 73q59 0 145 -38.5t129 -38.5q74 0 158 77z" />
    <glyph glyph-name="dieresis" unicode="&#xa8;" horiz-adv-x="1024" 
 />
    <glyph glyph-name="copyright" unicode="&#xa9;" horiz-adv-x="1772" 
 />
    <glyph glyph-name="registered" unicode="&#xae;" horiz-adv-x="1770" 
 />
    <glyph glyph-name="acute" unicode="&#xb4;" horiz-adv-x="1024" 
 />
    <glyph glyph-name="paragraph" unicode="&#xb6;" horiz-adv-x="1024" 
d="M929 1435v-70h-127v-1365h-82v1365h-166v-1365h-84v738q-174 8 -275.5 102.5t-101.5 245.5q0 157 107.5 253t285.5 96h443z" />
    <glyph glyph-name="onequarter" unicode="&#xbc;" horiz-adv-x="1298" 
 />
    <glyph glyph-name="onehalf" unicode="&#xbd;" horiz-adv-x="1320" 
 />
    <glyph glyph-name="threequarters" unicode="&#xbe;" horiz-adv-x="1288" 
 />
    <glyph glyph-name="Agrave" unicode="&#xc0;" horiz-adv-x="1753" 
d="M1617 0h-648l-108 168h-643l-105 -168h-186l752 1198h159zM779 291l-244 381l-237 -381h481zM416 1663l263 -324h188l-149 324h-302z" />
    <glyph glyph-name="Aacute" unicode="&#xc1;" horiz-adv-x="1753" 
d="M1617 0h-648l-108 168h-643l-105 -168h-186l752 1198h159zM779 291l-244 381l-237 -381h481zM1131 1647l-262 -324h-188l147 324h303z" />
    <glyph glyph-name="Acircumflex" unicode="&#xc2;" horiz-adv-x="1753" 
d="M1617 0h-648l-108 168h-643l-105 -168h-186l752 1198h159zM779 291l-244 381l-237 -381h481zM414 1307l287 329h107l286 -329h-155l-185 159l-182 -159h-158z" />
    <glyph glyph-name="Atilde" unicode="&#xc3;" horiz-adv-x="1753" 
d="M1617 0h-648l-108 168h-643l-105 -168h-186l752 1198h159zM779 291l-244 381l-237 -381h481zM1062 1565v-142q-115 -104 -215 -104q-52 0 -142 38t-143 38q-68 0 -137 -43v139q110 76 204 74q60 0 146 -39t129 -39q74 0 158 78z" />
    <glyph glyph-name="Egrave" unicode="&#xc8;" horiz-adv-x="1413" 
d="M586 516h661v-123h-661v-270h661v-123h-1247v1198h1245v-121h-659v-561zM375 1614l262 -324h188l-149 324h-301z" />
    <glyph glyph-name="Eacute" unicode="&#xc9;" horiz-adv-x="1413" 
d="M586 516h661v-123h-661v-270h661v-123h-1247v1198h1245v-121h-659v-561zM920 1634l-263 -325h-188l149 325h302z" />
    <glyph glyph-name="Ecircumflex" unicode="&#xca;" horiz-adv-x="1413" 
d="M586 516h661v-123h-661v-270h661v-123h-1247v1198h1245v-121h-659v-561zM283 1313l286 329h107l287 -329h-156l-184 160l-183 -160h-157z" />
    <glyph glyph-name="Igrave" unicode="&#xcc;" horiz-adv-x="794" 
d="M608 0h-585v1198h585v-1198zM-2 1608l262 -324h189l-150 324h-301z" />
    <glyph glyph-name="Iacute" unicode="&#xcd;" horiz-adv-x="794" 
d="M608 0h-586v1198h586v-1198zM643 1653l-263 -324h-188l149 324h302z" />
    <glyph glyph-name="Ograve" unicode="&#xd2;" horiz-adv-x="1662" 
d="M1543 592q0 -285 -260 -463q-224 -156 -537 -156q-371 0 -606 209q-205 180 -205 430q0 269 256 449q227 162 563 162q330 0 563 -185q226 -176 226 -446zM920 227v742q0 102 -113 102h-137q-110 0 -110 -102v-742q0 -110 123 -110h112q125 0 125 110zM433 1659l262 -324
h188l-149 324h-301z" />
    <glyph glyph-name="Oacute" unicode="&#xd3;" horiz-adv-x="1662" 
d="M1543 592q0 -285 -260 -463q-224 -156 -537 -156q-371 0 -606 209q-205 180 -205 430q0 269 256 449q227 162 563 162q330 0 563 -185q226 -176 226 -446zM920 227v742q0 102 -113 102h-137q-110 0 -110 -102v-742q0 -110 123 -110h112q125 0 125 110zM1096 1640
l-262 -323h-190l149 323h303z" />
    <glyph glyph-name="Ocircumflex" unicode="&#xd4;" horiz-adv-x="1662" 
d="M1543 592q0 -285 -260 -463q-224 -156 -537 -156q-371 0 -606 209q-205 180 -205 430q0 269 256 449q227 162 563 162q330 0 563 -185q226 -176 226 -446zM920 227v742q0 102 -113 102h-137q-110 0 -110 -102v-742q0 -110 123 -110h112q125 0 125 110zM396 1307l287 329
h106l287 -329h-156l-184 159l-183 -159h-157z" />
    <glyph glyph-name="Otilde" unicode="&#xd5;" horiz-adv-x="1662" 
d="M1543 592q0 -285 -260 -463q-224 -156 -537 -156q-371 0 -606 209q-205 180 -205 430q0 269 256 449q227 162 563 162q330 0 563 -185q226 -176 226 -446zM920 227v742q0 102 -113 102h-137q-110 0 -110 -102v-742q0 -110 123 -110h112q125 0 125 110zM1061 1571v-141
q-114 -105 -215 -105q-51 0 -141 38t-143 38q-68 0 -138 -43v139q111 76 205 74q60 0 146 -39t129 -39q73 0 157 78z" />
    <glyph glyph-name="Ugrave" unicode="&#xd9;" horiz-adv-x="1626" 
d="M1464 1198v-797q0 -155 -34 -219q-70 -129 -267 -176q-129 -33 -395 -33q-238 0 -371 27q-243 47 -340 172q-57 74 -57 217v809h586v-840q0 -96 18 -137q60 -127 324 -127q342 0 366 185q4 36 4 104v815h166zM467 1602l262 -324h189l-150 324h-301z" />
    <glyph glyph-name="Uacute" unicode="&#xda;" horiz-adv-x="1626" 
d="M1464 1198v-797q0 -155 -34 -219q-70 -129 -267 -176q-129 -33 -395 -33q-238 0 -371 27q-243 47 -340 172q-57 74 -57 217v809h586v-840q0 -96 18 -137q60 -127 324 -127q342 0 366 185q4 36 4 104v815h166zM1155 1647l-262 -324h-188l149 324h301z" />
    <glyph glyph-name="Yacute" unicode="&#xdd;" horiz-adv-x="1548" 
d="M981 0h-586v653l-444 545h678l293 -352l315 352h199l-455 -520v-678zM1139 1622l-262 -326h-189l150 326h301z" />
    <glyph glyph-name="agrave" unicode="&#xe0;" 
d="M650 954q207 -10 311 -92q82 -65 82 -160v-702h-780q-121 0 -223 102q-109 107 -101 238q6 133 135 242q119 100 240 100h283v39q0 96 -170 96q-97 0 -211 -29q-107 -26 -150 -57l-37 143q287 84 523 84q49 0 98 -4zM597 98v484h-91q-104 0 -104 -97v-284
q0 -103 117 -103h78zM218 1389l262 -324h188l-149 324h-301z" />
    <glyph glyph-name="aacute" unicode="&#xe1;" 
d="M644 954q207 -10 311 -92q82 -65 82 -160v-702h-780q-121 0 -223 102q-109 107 -101 238q6 133 135 242q119 100 240 100h283v39q0 96 -170 96q-97 0 -211 -29q-107 -26 -150 -57l-37 143q287 84 523 84q49 0 98 -4zM591 98v484h-91q-104 0 -104 -97v-284
q0 -103 117 -103h78zM855 1405l-262 -326h-189l148 326h303z" />
    <glyph glyph-name="acircumflex" unicode="&#xe2;" 
d="M650 954q207 -10 311 -92q82 -65 82 -160v-702h-780q-121 0 -223 102q-109 107 -101 238q6 133 135 242q119 100 240 100h283v39q0 96 -170 96q-97 0 -211 -29q-107 -26 -150 -57l-37 143q287 84 523 84q49 0 98 -4zM597 98v484h-91q-104 0 -104 -97v-284
q0 -103 117 -103h78zM189 1081l287 330h106l287 -330h-156l-184 160l-182 -160h-158z" />
    <glyph glyph-name="atilde" unicode="&#xe3;" 
d="M650 954q207 -10 311 -92q82 -65 82 -160v-702h-780q-121 0 -223 102q-109 107 -101 238q6 133 135 242q119 100 240 100h283v39q0 96 -170 96q-97 0 -211 -29q-107 -26 -150 -57l-37 143q287 84 523 84q49 0 98 -4zM597 98v484h-91q-104 0 -104 -97v-284
q0 -103 117 -103h78zM849 1319v-141q-115 -105 -216 -105q-51 0 -141 38t-143 38q-68 0 -137 -43v139q110 76 204 74q60 0 146 -39t129 -39q74 0 158 78z" />
    <glyph glyph-name="egrave" unicode="&#xe8;" horiz-adv-x="1290" 
d="M1174 481q0 -35 -10 -43t-43 -8l-660 -2v-160q0 -78 54 -121q45 -36 221 -41q108 -2 295 58l-25 -123q-143 -51 -364 -51q-154 0 -226 10q-135 18 -243 84q-242 141 -242 377q0 166 119 293q106 114 276 161q142 41 320 37q162 -4 299 -90q100 -65 151 -143
q70 -107 78 -238zM656 524v215q0 58 -12.5 77.5t-61.5 19.5h-41q-53 0 -69 -25q-11 -16 -11 -70v-217h195zM257 1376l262 -323h188l-149 323h-301z" />
    <glyph glyph-name="eacute" unicode="&#xe9;" horiz-adv-x="1290" 
d="M1174 481q0 -35 -10 -43t-43 -8l-660 -2v-160q0 -78 54 -121q45 -36 221 -41q108 -2 295 58l-25 -123q-143 -51 -364 -51q-154 0 -226 10q-135 18 -243 84q-242 141 -242 377q0 166 119 293q106 114 276 161q142 41 320 37q162 -4 299 -90q100 -65 151 -143
q70 -107 78 -238zM656 524v215q0 58 -12.5 77.5t-61.5 19.5h-41q-53 0 -69 -25q-11 -16 -11 -70v-217h195zM918 1380l-264 -325h-188l149 325h303z" />
    <glyph glyph-name="ecircumflex" unicode="&#xea;" horiz-adv-x="1290" 
d="M1174 481q0 -35 -10 -43t-43 -8l-660 -2v-160q0 -78 54 -121q45 -36 221 -41q108 -2 295 58l-25 -123q-143 -51 -364 -51q-154 0 -226 10q-135 18 -243 84q-242 141 -242 377q0 166 119 293q106 114 276 161q142 41 320 37q162 -4 299 -90q100 -65 151 -143
q70 -107 78 -238zM656 524v215q0 58 -12.5 77.5t-61.5 19.5h-41q-53 0 -69 -25q-11 -16 -11 -70v-217h195zM226 1042l287 330h106l287 -330h-156l-184 160l-182 -160h-158z" />
    <glyph glyph-name="igrave" unicode="&#xec;" horiz-adv-x="612" 
d="M0 0v938h451v-938h-451zM-102 1389l262 -324h189l-148 324h-303z" />
    <glyph glyph-name="iacute" unicode="&#xed;" horiz-adv-x="612" 
d="M0 0v938h451v-938h-451zM563 1389l-262 -324h-188l147 324h303z" />
    <glyph glyph-name="ograve" unicode="&#xf2;" horiz-adv-x="1347" 
d="M1207 463q0 -225 -205 -367q-178 -123 -426 -123q-295 0 -481 164q-164 144 -164 342q0 213 203 357q180 127 446 127q180 0 334 -74q170 -84 246 -232q47 -92 47 -194zM713 174v588q0 82 -90 82h-106q-90 0 -90 -82v-588q0 -88 98 -88h90q98 0 98 88zM228 1378l262 -323
h189l-150 323h-301z" />
    <glyph glyph-name="oacute" unicode="&#xf3;" horiz-adv-x="1347" 
d="M1207 463q0 -225 -205 -367q-178 -123 -426 -123q-295 0 -481 164q-164 144 -164 342q0 213 203 357q180 127 446 127q180 0 334 -74q170 -84 246 -232q47 -92 47 -194zM713 174v588q0 82 -90 82h-106q-90 0 -90 -82v-588q0 -88 98 -88h90q98 0 98 88zM930 1399
l-262 -326h-188l147 326h303z" />
    <glyph glyph-name="ocircumflex" unicode="&#xf4;" horiz-adv-x="1347" 
d="M1207 463q0 -225 -205 -367q-178 -123 -426 -123q-295 0 -481 164q-164 144 -164 342q0 213 203 357q180 127 446 127q180 0 334 -74q170 -84 246 -232q47 -92 47 -194zM713 174v588q0 82 -90 82h-106q-90 0 -90 -82v-588q0 -88 98 -88h90q98 0 98 88zM230 1026l287 330
h106l287 -330h-156l-184 160l-182 -160h-158z" />
    <glyph glyph-name="otilde" unicode="&#xf5;" horiz-adv-x="1347" 
d="M1207 463q0 -225 -205 -367q-178 -123 -426 -123q-295 0 -481 164q-164 144 -164 342q0 213 203 357q180 127 446 127q180 0 334 -74q170 -84 246 -232q47 -92 47 -194zM713 174v588q0 82 -90 82h-106q-90 0 -90 -82v-588q0 -88 98 -88h90q98 0 98 88zM896 1323v-141
q-115 -105 -215 -105q-52 0 -142 38t-143 38q-68 0 -137 -43v139q110 76 204 74q60 0 146 -39t129 -39q74 0 158 78z" />
    <glyph glyph-name="divide" unicode="&#xf7;" horiz-adv-x="1706" 
 />
    <glyph glyph-name="glyph216" unicode="&#xf9;" horiz-adv-x="1351" 
d="M408 -4q-408 27 -408 229v713h451v-678q0 -86 51 -110q39 -21 100 -21q55 0 113 16v793h450v-938h-446l-4 25q-107 -31 -240 -31q-35 0 -67 2zM270 1376l262 -323h189l-150 323h-301z" />
    <glyph glyph-name="glyph217" unicode="&#xfa;" horiz-adv-x="1351" 
d="M408 -4q-408 27 -408 229v713h451v-678q0 -86 51 -110q39 -21 100 -21q55 0 113 16v793h450v-938h-446l-4 25q-107 -31 -240 -31q-35 0 -67 2zM903 1393l-262 -326h-188l149 326h301z" />
    <glyph glyph-name="glyph234" unicode="&#xfd;" horiz-adv-x="1284" 
d="M339 -358h-193l240 362l-455 934h489l224 -526l323 526h199zM937 1391l-263 -324h-188l150 324h301z" />
    <glyph glyph-name="Abreve" unicode="&#x102;" horiz-adv-x="1753" 
d="M1617 0h-648l-108 168h-643l-105 -168h-186l752 1198h159zM779 291l-244 381l-237 -381h481zM572 1546q185 -188 367 0h155q-128 -280 -333.5 -287t-346.5 287h158z" />
    <glyph glyph-name="abreve" unicode="&#x103;" 
d="M650 954q207 -10 311 -92q82 -65 82 -160v-702h-780q-121 0 -223 102q-109 107 -101 238q6 133 135 242q119 100 240 100h283v39q0 96 -170 96q-97 0 -211 -29q-107 -26 -150 -57l-37 143q287 84 523 84q49 0 98 -4zM597 98v484h-91q-104 0 -104 -97v-284
q0 -103 117 -103h78zM339 1285q186 -162 367 0h155q-128 -240 -333.5 -246t-345.5 246h157z" />
    <glyph glyph-name="Ccaron" unicode="&#x10c;" horiz-adv-x="1274" 
 />
    <glyph glyph-name="ccaron" unicode="&#x10d;" horiz-adv-x="922" 
 />
    <glyph glyph-name="Dslash" unicode="&#x110;" horiz-adv-x="1648" 
d="M586 680h127v-129h-127v-387h84q123 0 123 110v668q0 102 -111 102h-96v-364zM-215 680h215v518h672q266 0 401 -41q203 -61 328 -209q133 -155 133 -360q0 -295 -281 -471q-129 -82 -286 -105q-84 -12 -262 -12h-705v551h-215v129z" />
    <glyph glyph-name="dcroat" unicode="&#x111;" horiz-adv-x="1226" 
d="M619 111v696h-90q-106 0 -106 -96v-498q0 -102 117 -102h79zM619 1105v93h447v-93h110v-121h-110v-984h-623q-180 0 -309 74q-172 98 -199 309q-4 35 -4 72q0 112 29 192q82 225 326 281q53 10 213 10h120v46h-357v121h357z" />
    <glyph glyph-name="Itilde" unicode="&#x128;" horiz-adv-x="794" 
d="M608 0h-586v1198h586v-1198zM640 1565v-142q-115 -104 -215 -104q-51 0 -141.5 38t-143.5 38q-67 0 -137 -43v139q111 76 205 74q59 0 145 -39t129 -39q74 0 158 78z" />
    <glyph glyph-name="itilde" unicode="&#x129;" horiz-adv-x="612" 
d="M451 1198v-197h-451v197h451zM0 0v938h451v-938h-451z" />
    <glyph glyph-name="Utilde" unicode="&#x168;" horiz-adv-x="1626" 
d="M1464 1198v-797q0 -155 -34 -219q-70 -129 -267 -176q-129 -33 -395 -33q-238 0 -371 27q-243 47 -340 172q-57 74 -57 217v809h586v-840q0 -96 18 -137q60 -127 324 -127q342 0 366 185q4 36 4 104v815h166zM1162 1571v-141q-115 -105 -215 -105q-52 0 -142 38t-143 38
q-68 0 -137 -43v139q110 76 204 74q60 0 146 -39t129 -39q74 0 158 78z" />
    <glyph glyph-name="utilde" unicode="&#x169;" horiz-adv-x="1351" 
d="M408 -4q-408 27 -408 229v713h451v-678q0 -86 51 -110q39 -21 100 -21q55 0 113 16v793h450v-938h-446l-4 25q-107 -31 -240 -31q-35 0 -67 2zM955 1323v-141q-115 -105 -215 -105q-51 0 -141 38t-144 38q-67 0 -137 -43v139q111 76 205 74q59 0 145 -39t129 -39
q74 0 158 78z" />
    <glyph glyph-name="Ohorn" unicode="&#x1a0;" horiz-adv-x="1662" 
d="M921 227v742q0 102 -113 102h-137q-111 0 -111 -102v-742q0 -110 123 -110h113q125 0 125 110zM1226 1101q48 -28 92 -63q225 -176 225 -446q0 -285 -260 -463q-223 -156 -537 -156q-370 0 -606 209q-205 180 -205 430q0 269 256 449q228 162 564 162q227 0 409 -88
q9 16 17 36q-105 34 -105 124q0 54 49.5 92.5t119.5 38.5q71 0 121 -38.5t49 -92.5q-2 -102 -189 -194z" />
    <glyph glyph-name="ohorn" unicode="&#x1a1;" horiz-adv-x="1347" 
d="M714 174v588q0 82 -90 82h-107q-90 0 -90 -82v-588q0 -88 98 -88h90q99 0 99 88zM975 855q123 -78 185 -198q47 -92 47 -194q0 -225 -205 -367q-178 -123 -426 -123q-294 0 -481 164q-164 144 -164 342q0 213 203 357q180 127 447 127q180 0 333 -74l4 -2q12 18 22 43
q-105 34 -105 124q0 54 49.5 92.5t119.5 38.5q71 0 121 -38.5t49 -92.5q-2 -105 -199 -199z" />
    <glyph glyph-name="Uhorn" unicode="&#x1af;" horiz-adv-x="1626" 
d="M1464 1086v-685q0 -155 -34 -219q-70 -129 -267 -176q-129 -33 -395 -33q-238 0 -371 27q-243 47 -340 172q-57 74 -57 217v809h586v-840q0 -96 18 -137q60 -127 324 -127q342 0 366 185q4 36 4 104v815h97q-49 35 -49 97q0 54 49.5 92.5t119.5 38.5q71 0 121 -38.5
t49 -92.5q-2 -110 -221 -209z" />
    <glyph glyph-name="uhorn" unicode="&#x1b0;" horiz-adv-x="1351" 
d="M1165 846v-846h-446l-4 25q-107 -31 -240 -31q-35 0 -67 2q-408 27 -408 229v713h451v-678q0 -86 51 -110q39 -21 100 -21q55 0 113 16v793h414q-84 36 -84 116q0 54 49.5 92.5t119.5 38.5q71 0 121 -38.5t49 -92.5q-2 -110 -219 -208z" />
    <glyph glyph-name="uni1EA0" unicode="&#x1ea0;" horiz-adv-x="1753" 
d="M1617 0h-648l-108 168h-643l-105 -168h-186l752 1198h159zM779 291l-244 381l-237 -381h481zM503 -310q0 57 39.5 98t97.5 41q57 0 97 -41t40 -98t-40 -97t-97 -40q-58 0 -97.5 40t-39.5 97z" />
    <glyph glyph-name="uni1EA1" unicode="&#x1ea1;" 
d="M644 954q207 -10 311 -92q82 -65 82 -160v-702h-780q-121 0 -223 102q-109 107 -101 238q6 133 135 242q119 100 240 100h283v39q0 96 -170 96q-97 0 -211 -29q-107 -26 -150 -57l-37 143q287 84 523 84q49 0 98 -4zM591 98v484h-91q-104 0 -104 -97v-284
q0 -103 117 -103h78zM372 -270q0 57 40 98t97 41t97 -41t40 -98t-40 -97t-97 -40t-97 40t-40 97z" />
    <glyph glyph-name="uni1EA2" unicode="&#x1ea2;" horiz-adv-x="1753" 
d="M1617 0h-648l-108 168h-643l-105 -168h-186l752 1198h159zM779 291l-244 381l-237 -381h481zM636 1285v42q0 40 33 75q19 20 65 50q36 24 39 33.5t3 16.5q0 36 -70 35q-71 -1 -170 -31l-26 67q122 25 260 23q134 -2 191 -12q125 -22 142 -87q3 -8 3 -16q0 -40 -60 -69
l-110 -46q-59 -27 -59 -58v-23h-241z" />
    <glyph glyph-name="uni1EA3" unicode="&#x1ea3;" 
d="M644 954q207 -10 311 -92q82 -65 82 -160v-702h-780q-121 0 -223 102q-109 107 -101 238q6 133 135 242q119 100 240 100h283v39q0 96 -170 96q-97 0 -211 -29q-107 -26 -150 -57l-37 143q287 84 523 84q49 0 98 -4zM591 98v484h-91q-104 0 -104 -97v-284
q0 -103 117 -103h78zM385 1054v42q0 40 33 75q19 20 65 50q36 24 39 33.5t3 16.5q0 36 -70 35q-71 -1 -170 -31l-26 67q122 25 260 23q134 -2 191 -12q125 -22 142 -87q3 -8 3 -16q0 -40 -60 -69l-110 -46q-59 -27 -59 -58v-23h-241z" />
    <glyph glyph-name="uni1EA4" unicode="&#x1ea4;" horiz-adv-x="1753" 
d="M1617 0h-648l-108 168h-643l-105 -168h-186l752 1198h159zM779 291l-244 381l-237 -381h481zM1362 1898l-262 -324h-188l147 324h303zM414 1307l286 329h107l287 -329h-156l-184 159l-183 -159h-157z" />
    <glyph glyph-name="uni1EA5" unicode="&#x1ea5;" 
d="M644 954q207 -10 311 -92q82 -65 82 -160v-702h-780q-121 0 -223 102q-109 107 -101 238q6 133 135 242q119 100 240 100h283v39q0 96 -170 96q-97 0 -211 -29q-107 -26 -150 -57l-37 143q287 84 523 84q49 0 98 -4zM591 98v484h-91q-104 0 -104 -97v-284
q0 -103 117 -103h78zM1146 1676l-262 -326h-189l148 326h303zM189 1081l287 330h106l287 -330h-156l-184 160l-182 -160h-158z" />
    <glyph glyph-name="uni1EA6" unicode="&#x1ea6;" horiz-adv-x="1753" 
d="M1617 0h-648l-108 168h-643l-105 -168h-186l752 1198h159zM779 291l-244 381l-237 -381h481zM979 1864l149 -324h-188l-263 324h302zM414 1307l286 329h107l287 -329h-156l-184 159l-183 -159h-157z" />
    <glyph glyph-name="uni1EA7" unicode="&#x1ea7;" 
d="M650 954q207 -10 311 -92q82 -65 82 -160v-702h-780q-121 0 -223 102q-109 107 -101 238q6 133 135 242q119 100 240 100h283v39q0 96 -170 96q-97 0 -211 -29q-107 -26 -150 -57l-37 143q287 84 523 84q49 0 98 -4zM597 98v484h-91q-104 0 -104 -97v-284
q0 -103 117 -103h78zM770 1640l149 -324h-188l-262 324h301zM189 1081l287 330h106l287 -330h-156l-184 160l-182 -160h-158z" />
    <glyph glyph-name="uni1EA8" unicode="&#x1ea8;" horiz-adv-x="1753" 
d="M1617 0h-648l-108 168h-643l-105 -168h-186l752 1198h159zM779 291l-244 381l-237 -381h481zM907 1566v42q0 40 33 75q19 20 65 50q36 24 39 33.5t3 16.5q0 36 -70 35q-71 -1 -170 -31l-26 67q122 25 260 23q134 -2 191 -12q125 -22 142 -87q3 -8 3 -16q0 -40 -60 -69
l-110 -46q-59 -27 -59 -58v-23h-241zM414 1307l286 329h107l287 -329h-156l-184 159l-183 -159h-157z" />
    <glyph glyph-name="uni1EA9" unicode="&#x1ea9;" 
d="M644 954q207 -10 311 -92q82 -65 82 -160v-702h-780q-121 0 -223 102q-109 107 -101 238q6 133 135 242q119 100 240 100h283v39q0 96 -170 96q-97 0 -211 -29q-107 -26 -150 -57l-37 143q287 84 523 84q49 0 98 -4zM591 98v484h-91q-104 0 -104 -97v-284
q0 -103 117 -103h78zM706 1335v42q0 40 33 75q19 20 65 50q36 24 39 33.5t3 16.5q0 36 -70 35q-71 -1 -170 -31l-26 67q122 25 260 23q134 -2 191 -12q125 -22 142 -87q3 -8 3 -16q0 -40 -60 -69l-110 -46q-59 -27 -59 -58v-23h-241zM189 1081l287 330h106l287 -330h-156
l-184 160l-182 -160h-158z" />
    <glyph glyph-name="uni1EAA" unicode="&#x1eaa;" horiz-adv-x="1753" 
d="M1617 0h-648l-108 168h-643l-105 -168h-186l752 1198h159zM779 291l-244 381l-237 -381h481zM1172 1896v-142q-115 -104 -215 -104q-52 0 -142 38t-143 38q-68 0 -137 -43v139q110 76 204 74q60 0 146 -39t129 -39q74 0 158 78zM414 1307l286 329h107l287 -329h-156
l-184 159l-183 -159h-157z" />
    <glyph glyph-name="uni1EAB" unicode="&#x1eab;" 
d="M650 954q207 -10 311 -92q82 -65 82 -160v-702h-780q-121 0 -223 102q-109 107 -101 238q6 133 135 242q119 100 240 100h283v39q0 96 -170 96q-97 0 -211 -29q-107 -26 -150 -57l-37 143q287 84 523 84q49 0 98 -4zM597 98v484h-91q-104 0 -104 -97v-284
q0 -103 117 -103h78zM980 1650v-141q-115 -105 -216 -105q-51 0 -141 38t-143 38q-68 0 -137 -43v139q110 76 204 74q60 0 146 -39t129 -39q74 0 158 78zM189 1081l287 330h106l287 -330h-156l-184 160l-182 -160h-158z" />
    <glyph glyph-name="uni1EAC" unicode="&#x1eac;" horiz-adv-x="1753" 
d="M1617 0h-648l-108 168h-643l-105 -168h-186l752 1198h159zM779 291l-244 381l-237 -381h481zM503 -310q0 57 39.5 98t97.5 41q57 0 97 -41t40 -98t-40 -97t-97 -40q-58 0 -97.5 40t-39.5 97zM414 1307l286 329h107l287 -329h-156l-184 159l-183 -159h-157z" />
    <glyph glyph-name="uni1EAD" unicode="&#x1ead;" 
d="M644 954q207 -10 311 -92q82 -65 82 -160v-702h-780q-121 0 -223 102q-109 107 -101 238q6 133 135 242q119 100 240 100h283v39q0 96 -170 96q-97 0 -211 -29q-107 -26 -150 -57l-37 143q287 84 523 84q49 0 98 -4zM591 98v484h-91q-104 0 -104 -97v-284
q0 -103 117 -103h78zM372 -270q0 57 40 98t97 41t97 -41t40 -98t-40 -97t-97 -40t-97 40t-40 97zM189 1081l287 330h106l287 -330h-156l-184 160l-182 -160h-158z" />
    <glyph glyph-name="uni1EAE" unicode="&#x1eae;" horiz-adv-x="1753" 
d="M1617 0h-648l-108 168h-643l-105 -168h-186l752 1198h159zM779 291l-244 381l-237 -381h481zM1111 1898l-262 -324h-188l147 324h303zM572 1546q185 -188 367 0h155q-128 -280 -333.5 -287t-346.5 287h158z" />
    <glyph glyph-name="uni1EAF" unicode="&#x1eaf;" 
d="M644 954q207 -10 311 -92q82 -65 82 -160v-702h-780q-121 0 -223 102q-109 107 -101 238q6 133 135 242q119 100 240 100h283v39q0 96 -170 96q-97 0 -211 -29q-107 -26 -150 -57l-37 143q287 84 523 84q49 0 98 -4zM591 98v484h-91q-104 0 -104 -97v-284
q0 -103 117 -103h78zM885 1646l-262 -326h-189l148 326h303zM339 1285q186 -162 367 0h156q-129 -240 -334.5 -246t-345.5 246h157z" />
    <glyph glyph-name="uni1EB0" unicode="&#x1eb0;" horiz-adv-x="1753" 
d="M1617 0h-648l-108 168h-643l-105 -168h-186l752 1198h159zM779 291l-244 381l-237 -381h481zM720 1864l149 -324h-188l-263 324h302zM572 1546q185 -188 367 0h155q-128 -280 -333.5 -287t-346.5 287h158z" />
    <glyph glyph-name="uni1EB1" unicode="&#x1eb1;" 
d="M650 954q207 -10 311 -92q82 -65 82 -160v-702h-780q-121 0 -223 102q-109 107 -101 238q6 133 135 242q119 100 240 100h283v39q0 96 -170 96q-97 0 -211 -29q-107 -26 -150 -57l-37 143q287 84 523 84q49 0 98 -4zM597 98v484h-91q-104 0 -104 -97v-284
q0 -103 117 -103h78zM499 1640l149 -324h-188l-262 324h301zM339 1285q186 -162 367 0h155q-128 -240 -333.5 -246t-345.5 246h157z" />
    <glyph glyph-name="uni1EB2" unicode="&#x1eb2;" horiz-adv-x="1753" 
d="M1617 0h-648l-108 168h-643l-105 -168h-186l752 1198h159zM779 291l-244 381l-237 -381h481zM631 1566v42q0 40 33 75q19 20 65 50q36 24 39 33.5t3 16.5q0 36 -70 35q-71 -1 -170 -31l-26 67q122 25 260 23q134 -2 191 -12q125 -22 142 -87q3 -8 3 -16q0 -40 -60 -69
l-110 -46q-59 -27 -59 -58v-23h-241zM572 1546q185 -188 367 0h155q-128 -280 -333.5 -287t-346.5 287h158z" />
    <glyph glyph-name="uni1EB3" unicode="&#x1eb3;" 
d="M644 954q207 -10 311 -92q82 -65 82 -160v-702h-780q-121 0 -223 102q-109 107 -101 238q6 133 135 242q119 100 240 100h283v39q0 96 -170 96q-97 0 -211 -29q-107 -26 -150 -57l-37 143q287 84 523 84q49 0 98 -4zM591 98v484h-91q-104 0 -104 -97v-284
q0 -103 117 -103h78zM395 1305v42q0 40 33 75q19 20 65 50q36 24 39 33.5t3 16.5q0 36 -70 35q-71 -1 -170 -31l-26 67q122 25 260 23q134 -2 191 -12q125 -22 142 -87q3 -8 3 -16q0 -40 -60 -69l-110 -46q-59 -27 -59 -58v-23h-241zM339 1285q186 -162 367 0h156
q-129 -240 -334.5 -246t-345.5 246h157z" />
    <glyph glyph-name="uni1EB4" unicode="&#x1eb4;" horiz-adv-x="1753" 
d="M1617 0h-648l-108 168h-643l-105 -168h-186l752 1198h159zM779 291l-244 381l-237 -381h481zM1172 1837v-142q-115 -104 -215 -104q-52 0 -142 38t-143 38q-68 0 -137 -43v139q110 76 204 74q60 0 146 -39t129 -39q74 0 158 78zM572 1546q185 -188 367 0h155
q-128 -280 -333.5 -287t-346.5 287h158z" />
    <glyph glyph-name="uni1EB5" unicode="&#x1eb5;" 
d="M650 954q207 -10 311 -92q82 -65 82 -160v-702h-780q-121 0 -223 102q-109 107 -101 238q6 133 135 242q119 100 240 100h283v39q0 96 -170 96q-97 0 -211 -29q-107 -26 -150 -57l-37 143q287 84 523 84q49 0 98 -4zM597 98v484h-91q-104 0 -104 -97v-284
q0 -103 117 -103h78zM980 1570v-141q-115 -105 -216 -105q-51 0 -141 38t-143 38q-68 0 -137 -43v139q110 76 204 74q60 0 146 -39t129 -39q74 0 158 78zM339 1285q186 -162 367 0h155q-128 -240 -333.5 -246t-345.5 246h157z" />
    <glyph glyph-name="uni1EB6" unicode="&#x1eb6;" horiz-adv-x="1753" 
d="M1617 0h-648l-108 168h-643l-105 -168h-186l752 1198h159zM779 291l-244 381l-237 -381h481zM503 -310q0 57 39.5 98t97.5 41q57 0 97 -41t40 -98t-40 -97t-97 -40q-58 0 -97.5 40t-39.5 97zM572 1546q185 -188 367 0h155q-128 -280 -333.5 -287t-346.5 287h158z" />
    <glyph glyph-name="uni1EB7" unicode="&#x1eb7;" 
d="M644 954q207 -10 311 -92q82 -65 82 -160v-702h-780q-121 0 -223 102q-109 107 -101 238q6 133 135 242q119 100 240 100h283v39q0 96 -170 96q-97 0 -211 -29q-107 -26 -150 -57l-37 143q287 84 523 84q49 0 98 -4zM591 98v484h-91q-104 0 -104 -97v-284
q0 -103 117 -103h78zM372 -270q0 57 40 98t97 41t97 -41t40 -98t-40 -97t-97 -40t-97 40t-40 97zM339 1285q186 -162 367 0h156q-129 -240 -334.5 -246t-345.5 246h157z" />
    <glyph glyph-name="uni1EB8" unicode="&#x1eb8;" horiz-adv-x="1413" 
d="M586 516h661v-123h-661v-270h661v-123h-1247v1198h1245v-121h-659v-561zM503 -310q0 57 39.5 98t97.5 41q57 0 97 -41t40 -98t-40 -97t-97 -40q-58 0 -97.5 40t-39.5 97z" />
    <glyph glyph-name="uni1EB9" unicode="&#x1eb9;" horiz-adv-x="1290" 
d="M1174 481q0 -35 -10 -43t-43 -8l-660 -2v-160q0 -78 54 -121q45 -36 221 -41q108 -2 295 58l-25 -123q-143 -51 -364 -51q-154 0 -226 10q-135 18 -243 84q-242 141 -242 377q0 166 119 293q106 114 276 161q142 41 320 37q162 -4 299 -90q100 -65 151 -143
q70 -107 78 -238zM656 524v215q0 58 -12.5 77.5t-61.5 19.5h-41q-53 0 -69 -25q-11 -16 -11 -70v-217h195zM402 -270q0 57 40 98t97 41t97 -41t40 -98t-40 -97t-97 -40t-97 40t-40 97z" />
    <glyph glyph-name="uni1EBA" unicode="&#x1eba;" horiz-adv-x="1413" 
d="M586 516h661v-123h-661v-270h661v-123h-1247v1198h1245v-121h-659v-561zM556 1285v42q0 40 33 75q19 20 65 50q36 24 39 33.5t3 16.5q0 36 -70 35q-71 -1 -170 -31l-26 67q122 25 260 23q134 -2 191 -12q125 -22 142 -87q3 -8 3 -16q0 -40 -60 -69l-110 -46
q-59 -27 -59 -58v-23h-241z" />
    <glyph glyph-name="uni1EBB" unicode="&#x1ebb;" horiz-adv-x="1290" 
d="M1174 481q0 -35 -10 -43t-43 -8l-660 -2v-160q0 -78 54 -121q45 -36 221 -41q108 -2 295 58l-25 -123q-143 -51 -364 -51q-154 0 -226 10q-135 18 -243 84q-242 141 -242 377q0 166 119 293q106 114 276 161q142 41 320 37q162 -4 299 -90q100 -65 151 -143
q70 -107 78 -238zM656 524v215q0 58 -12.5 77.5t-61.5 19.5h-41q-53 0 -69 -25q-11 -16 -11 -70v-217h195zM424 1054v42q0 40 33 75q19 20 65 50q36 24 39 33.5t3 16.5q0 36 -70 35q-71 -1 -170 -31l-26 67q122 25 260 23q134 -2 191 -12q125 -22 142 -87q3 -8 3 -16
q0 -40 -60 -69l-110 -46q-59 -27 -59 -58v-23h-241z" />
    <glyph glyph-name="uni1EBC" unicode="&#x1ebc;" horiz-adv-x="1413" 
d="M586 516h661v-123h-661v-270h661v-123h-1247v1198h1245v-121h-659v-561zM1062 1565v-142q-115 -104 -215 -104q-52 0 -142 38t-143 38q-68 0 -137 -43v139q110 76 204 74q60 0 146 -39t129 -39q74 0 158 78z" />
    <glyph glyph-name="uni1EBD" unicode="&#x1ebd;" horiz-adv-x="1290" 
d="M1174 481q0 -35 -10 -43t-43 -8l-660 -2v-160q0 -78 54 -121q45 -36 221 -41q108 -2 295 58l-25 -123q-143 -51 -364 -51q-154 0 -226 10q-135 18 -243 84q-242 141 -242 377q0 166 119 293q106 114 276 161q142 41 320 37q162 -4 299 -90q100 -65 151 -143
q70 -107 78 -238zM656 524v215q0 58 -12.5 77.5t-61.5 19.5h-41q-53 0 -69 -25q-11 -16 -11 -70v-217h195zM940 1319v-141q-115 -105 -216 -105q-51 0 -141 38t-143 38q-68 0 -137 -43v139q110 76 204 74q60 0 146 -39t129 -39q74 0 158 78z" />
    <glyph glyph-name="uni1EBE" unicode="&#x1ebe;" horiz-adv-x="1413" 
d="M586 516h661v-123h-661v-270h661v-123h-1247v1198h1245v-121h-659v-561zM1211 1915l-263 -325h-188l149 325h302zM283 1313l286 329h107l287 -329h-156l-184 160l-183 -160h-157z" />
    <glyph glyph-name="uni1EBF" unicode="&#x1ebf;" horiz-adv-x="1290" 
d="M1174 481q0 -35 -10 -43t-43 -8l-660 -2v-160q0 -78 54 -121q45 -36 221 -41q108 -2 295 58l-25 -123q-143 -51 -364 -51q-154 0 -226 10q-135 18 -243 84q-242 141 -242 377q0 166 119 293q106 114 276 161q142 41 320 37q162 -4 299 -90q100 -65 151 -143
q70 -107 78 -238zM656 524v215q0 58 -12.5 77.5t-61.5 19.5h-41q-53 0 -69 -25q-11 -16 -11 -70v-217h195zM226 1042l287 330h106l287 -330h-156l-184 160l-182 -160h-158zM1176 1645l-262 -326h-189l148 326h303z" />
    <glyph glyph-name="uni1EC0" unicode="&#x1ec0;" horiz-adv-x="1413" 
d="M586 516h661v-123h-661v-270h661v-123h-1247v1198h1245v-121h-659v-561zM856 1865l149 -324h-188l-262 324h301zM283 1313l286 329h107l287 -329h-156l-184 160l-183 -160h-157z" />
    <glyph glyph-name="uni1EC1" unicode="&#x1ec1;" horiz-adv-x="1290" 
d="M1174 481q0 -35 -10 -43t-43 -8l-660 -2v-160q0 -78 54 -121q45 -36 221 -41q108 -2 295 58l-25 -123q-143 -51 -364 -51q-154 0 -226 10q-135 18 -243 84q-242 141 -242 377q0 166 119 293q106 114 276 161q142 41 320 37q162 -4 299 -90q100 -65 151 -143
q70 -107 78 -238zM656 524v215q0 58 -12.5 77.5t-61.5 19.5h-41q-53 0 -69 -25q-11 -16 -11 -70v-217h195zM226 1042l287 330h106l287 -330h-156l-184 160l-182 -160h-158zM770 1640l149 -324h-188l-262 324h301z" />
    <glyph glyph-name="uni1EC2" unicode="&#x1ec2;" horiz-adv-x="1413" 
d="M586 516h661v-123h-661v-270h661v-123h-1247v1198h1245v-121h-659v-561zM787 1556v42q0 40 33 75q19 20 65 50q36 24 39 33.5t3 16.5q0 36 -70 35q-71 -1 -170 -31l-26 67q122 25 260 23q134 -2 191 -12q125 -22 142 -87q3 -8 3 -16q0 -40 -60 -69l-110 -46
q-59 -27 -59 -58v-23h-241zM283 1313l286 329h107l287 -329h-156l-184 160l-183 -160h-157z" />
    <glyph glyph-name="uni1EC3" unicode="&#x1ec3;" horiz-adv-x="1290" 
d="M1174 481q0 -35 -10 -43t-43 -8l-660 -2v-160q0 -78 54 -121q45 -36 221 -41q108 -2 295 58l-25 -123q-143 -51 -364 -51q-154 0 -226 10q-135 18 -243 84q-242 141 -242 377q0 166 119 293q106 114 276 161q142 41 320 37q162 -4 299 -90q100 -65 151 -143
q70 -107 78 -238zM656 524v215q0 58 -12.5 77.5t-61.5 19.5h-41q-53 0 -69 -25q-11 -16 -11 -70v-217h195zM226 1042l287 330h106l287 -330h-156l-184 160l-182 -160h-158zM705 1325v42q0 40 33 75q19 20 65 50q36 24 39 33.5t3 16.5q0 36 -70 35q-71 -1 -170 -31l-26 67
q122 25 260 23q134 -2 191 -12q125 -22 142 -87q3 -8 3 -16q0 -40 -60 -69l-110 -46q-59 -27 -59 -58v-23h-241z" />
    <glyph glyph-name="uni1EC4" unicode="&#x1ec4;" horiz-adv-x="1413" 
d="M586 516h661v-123h-661v-270h661v-123h-1247v1198h1245v-121h-659v-561zM1062 1886v-142q-115 -104 -215 -104q-52 0 -142 38t-143 38q-68 0 -137 -43v139q110 76 204 74q60 0 146 -39t129 -39q74 0 158 78zM283 1313l286 329h107l287 -329h-156l-184 160l-183 -160h-157
z" />
    <glyph glyph-name="uni1EC5" unicode="&#x1ec5;" horiz-adv-x="1290" 
d="M1174 481q0 -35 -10 -43t-43 -8l-660 -2v-160q0 -78 54 -121q45 -36 221 -41q108 -2 295 58l-25 -123q-143 -51 -364 -51q-154 0 -226 10q-135 18 -243 84q-242 141 -242 377q0 166 119 293q106 114 276 161q142 41 320 37q162 -4 299 -90q100 -65 151 -143
q70 -107 78 -238zM656 524v215q0 58 -12.5 77.5t-61.5 19.5h-41q-53 0 -69 -25q-11 -16 -11 -70v-217h195zM226 1042l287 330h106l287 -330h-156l-184 160l-182 -160h-158zM980 1650v-141q-115 -105 -216 -105q-51 0 -141 38t-143 38q-68 0 -137 -43v139q110 76 204 74
q60 0 146 -39t129 -39q74 0 158 78z" />
    <glyph glyph-name="uni1EC6" unicode="&#x1ec6;" horiz-adv-x="1413" 
d="M586 516h661v-123h-661v-270h661v-123h-1247v1198h1245v-121h-659v-561zM503 -310q0 57 39.5 98t97.5 41q57 0 97 -41t40 -98t-40 -97t-97 -40q-58 0 -97.5 40t-39.5 97zM283 1313l286 329h107l287 -329h-156l-184 160l-183 -160h-157z" />
    <glyph glyph-name="uni1EC7" unicode="&#x1ec7;" horiz-adv-x="1290" 
d="M1174 481q0 -35 -10 -43t-43 -8l-660 -2v-160q0 -78 54 -121q45 -36 221 -41q108 -2 295 58l-25 -123q-143 -51 -364 -51q-154 0 -226 10q-135 18 -243 84q-242 141 -242 377q0 166 119 293q106 114 276 161q142 41 320 37q162 -4 299 -90q100 -65 151 -143
q70 -107 78 -238zM656 524v215q0 58 -12.5 77.5t-61.5 19.5h-41q-53 0 -69 -25q-11 -16 -11 -70v-217h195zM226 1042l287 330h106l287 -330h-156l-184 160l-182 -160h-158zM402 -270q0 57 40 98t97 41t97 -41t40 -98t-40 -97t-97 -40t-97 40t-40 97z" />
    <glyph glyph-name="uni1EC8" unicode="&#x1ec8;" horiz-adv-x="794" 
d="M608 0h-586v1198h586v-1198zM173 1285v42q0 40 33 75q19 20 65 50q36 24 39 33.5t3 16.5q0 36 -70 35q-71 -1 -170 -31l-26 67q122 25 260 23q134 -2 191 -12q125 -22 142 -87q3 -8 3 -16q0 -40 -60 -69l-110 -46q-59 -27 -59 -58v-23h-241z" />
    <glyph glyph-name="uni1EC9" unicode="&#x1ec9;" horiz-adv-x="612" 
d="M0 0v938h451v-938h-451zM102 1024v42q0 40 33 75q19 20 65 50q36 24 39 33.5t3 16.5q0 36 -70 35q-71 -1 -170 -31l-26 67q122 25 260 23q134 -2 191 -12q125 -22 142 -87q3 -8 3 -16q0 -40 -60 -69l-110 -46q-59 -27 -59 -58v-23h-241z" />
    <glyph glyph-name="uni1ECA" unicode="&#x1eca;" horiz-adv-x="794" 
d="M608 0h-586v1198h586v-1198zM178 -310q0 57 40 98t97 41t97 -41t40 -98t-40 -97t-97 -40t-97 40t-40 97z" />
    <glyph glyph-name="uni1ECB" unicode="&#x1ecb;" horiz-adv-x="612" 
d="M451 1198v-197h-451v197h451zM0 0v938h451v-938h-451z" />
    <glyph glyph-name="uni1ECC" unicode="&#x1ecc;" horiz-adv-x="1662" 
d="M1543 592q0 -285 -260 -463q-224 -156 -537 -156q-371 0 -606 209q-205 180 -205 430q0 269 256 449q227 162 563 162q330 0 563 -185q226 -176 226 -446zM920 227v742q0 102 -113 102h-137q-110 0 -110 -102v-742q0 -110 123 -110h112q125 0 125 110zM602 -310
q0 57 39.5 98t97.5 41q57 0 97 -41t40 -98t-40 -97t-97 -40q-58 0 -97.5 40t-39.5 97z" />
    <glyph glyph-name="uni1ECD" unicode="&#x1ecd;" horiz-adv-x="1347" 
d="M1207 463q0 -225 -205 -367q-178 -123 -426 -123q-295 0 -481 164q-164 144 -164 342q0 213 203 357q180 127 446 127q180 0 334 -74q170 -84 246 -232q47 -92 47 -194zM713 174v588q0 82 -90 82h-106q-90 0 -90 -82v-588q0 -88 98 -88h90q98 0 98 88zM432 -270
q0 57 40 98t97 41t97 -41t40 -98t-40 -97t-97 -40t-97 40t-40 97z" />
    <glyph glyph-name="uni1ECE" unicode="&#x1ece;" horiz-adv-x="1662" 
d="M1543 592q0 -285 -260 -463q-224 -156 -537 -156q-371 0 -606 209q-205 180 -205 430q0 269 256 449q227 162 563 162q330 0 563 -185q226 -176 226 -446zM920 227v742q0 102 -113 102h-137q-110 0 -110 -102v-742q0 -110 123 -110h112q125 0 125 110zM567 1285v42
q0 40 33 75q19 20 65 50q36 24 39 33.5t3 16.5q0 36 -70 35q-71 -1 -170 -31l-26 67q122 25 260 23q134 -2 191 -12q125 -22 142 -87q3 -8 3 -16q0 -40 -60 -69l-110 -46q-59 -27 -59 -58v-23h-241z" />
    <glyph glyph-name="uni1ECF" unicode="&#x1ecf;" horiz-adv-x="1347" 
d="M1207 463q0 -225 -205 -367q-178 -123 -426 -123q-295 0 -481 164q-164 144 -164 342q0 213 203 357q180 127 446 127q180 0 334 -74q170 -84 246 -232q47 -92 47 -194zM713 174v588q0 82 -90 82h-106q-90 0 -90 -82v-588q0 -88 98 -88h90q98 0 98 88zM424 1054v42
q0 40 33 75q19 20 65 50q36 24 39 33.5t3 16.5q0 36 -70 35q-71 -1 -170 -31l-26 67q122 25 260 23q134 -2 191 -12q125 -22 142 -87q3 -8 3 -16q0 -40 -60 -69l-110 -46q-59 -27 -59 -58v-23h-241z" />
    <glyph glyph-name="uni1ED0" unicode="&#x1ed0;" horiz-adv-x="1662" 
d="M1543 592q0 -285 -260 -463q-224 -156 -537 -156q-371 0 -606 209q-205 180 -205 430q0 269 256 449q227 162 563 162q330 0 563 -185q226 -176 226 -446zM920 227v742q0 102 -113 102h-137q-110 0 -110 -102v-742q0 -110 123 -110h112q125 0 125 110zM396 1307l287 329
h106l287 -329h-156l-184 159l-183 -159h-157zM1331 1915l-262 -325h-188l149 325h301z" />
    <glyph glyph-name="uni1ED1" unicode="&#x1ed1;" horiz-adv-x="1347" 
d="M1207 463q0 -225 -205 -367q-178 -123 -426 -123q-295 0 -481 164q-164 144 -164 342q0 213 203 357q180 127 446 127q180 0 334 -74q170 -84 246 -232q47 -92 47 -194zM713 174v588q0 82 -90 82h-106q-90 0 -90 -82v-588q0 -88 98 -88h90q98 0 98 88zM1171 1610
l-262 -326h-188l147 326h303zM230 1026l287 330h106l287 -330h-156l-184 160l-182 -160h-158z" />
    <glyph glyph-name="uni1ED2" unicode="&#x1ed2;" horiz-adv-x="1662" 
d="M1543 592q0 -285 -260 -463q-224 -156 -537 -156q-371 0 -606 209q-205 180 -205 430q0 269 256 449q227 162 563 162q330 0 563 -185q226 -176 226 -446zM920 227v742q0 102 -113 102h-137q-110 0 -110 -102v-742q0 -110 123 -110h112q125 0 125 110zM396 1307l287 329
h106l287 -329h-156l-184 159l-183 -159h-157zM956 1865l150 -324h-189l-262 324h301z" />
    <glyph glyph-name="uni1ED3" unicode="&#x1ed3;" horiz-adv-x="1347" 
d="M1207 463q0 -225 -205 -367q-178 -123 -426 -123q-295 0 -481 164q-164 144 -164 342q0 213 203 357q180 127 446 127q180 0 334 -74q170 -84 246 -232q47 -92 47 -194zM713 174v588q0 82 -90 82h-106q-90 0 -90 -82v-588q0 -88 98 -88h90q98 0 98 88zM790 1609l150 -323
h-189l-262 323h301zM230 1026l287 330h106l287 -330h-156l-184 160l-182 -160h-158z" />
    <glyph glyph-name="uni1ED4" unicode="&#x1ed4;" horiz-adv-x="1662" 
d="M1543 592q0 -285 -260 -463q-224 -156 -537 -156q-371 0 -606 209q-205 180 -205 430q0 269 256 449q227 162 563 162q330 0 563 -185q226 -176 226 -446zM920 227v742q0 102 -113 102h-137q-110 0 -110 -102v-742q0 -110 123 -110h112q125 0 125 110zM396 1307l287 329
h106l287 -329h-156l-184 159l-183 -159h-157zM887 1556v42q0 40 33 75q19 20 65 50q36 24 39 33.5t3 16.5q0 36 -70 35q-71 -1 -170 -31l-26 67q122 25 260 23q134 -2 191 -12q125 -22 142 -87q3 -8 3 -16q0 -40 -60 -69l-110 -46q-59 -27 -59 -58v-23h-241z" />
    <glyph glyph-name="uni1ED5" unicode="&#x1ed5;" horiz-adv-x="1347" 
d="M1207 463q0 -225 -205 -367q-178 -123 -426 -123q-295 0 -481 164q-164 144 -164 342q0 213 203 357q180 127 446 127q180 0 334 -74q170 -84 246 -232q47 -92 47 -194zM713 174v588q0 82 -90 82h-106q-90 0 -90 -82v-588q0 -88 98 -88h90q98 0 98 88zM725 1285v42
q0 40 33 75q19 20 65 50q36 24 39 33.5t3 16.5q0 36 -70 35q-71 -1 -170 -31l-26 67q122 25 260 23q134 -2 191 -12q125 -22 142 -87q3 -8 3 -16q0 -40 -60 -69l-110 -46q-59 -27 -59 -58v-23h-241zM230 1026l287 330h106l287 -330h-156l-184 160l-182 -160h-158z" />
    <glyph glyph-name="uni1ED6" unicode="&#x1ed6;" horiz-adv-x="1662" 
d="M1543 592q0 -285 -260 -463q-224 -156 -537 -156q-371 0 -606 209q-205 180 -205 430q0 269 256 449q227 162 563 162q330 0 563 -185q226 -176 226 -446zM920 227v742q0 102 -113 102h-137q-110 0 -110 -102v-742q0 -110 123 -110h112q125 0 125 110zM396 1307l287 329
h106l287 -329h-156l-184 159l-183 -159h-157zM1183 1886v-142q-115 -104 -215 -104q-51 0 -141 38t-144 38q-67 0 -137 -43v139q111 76 205 74q59 0 145 -39t129 -39q74 0 158 78z" />
    <glyph glyph-name="uni1ED7" unicode="&#x1ed7;" horiz-adv-x="1347" 
d="M1207 463q0 -225 -205 -367q-178 -123 -426 -123q-295 0 -481 164q-164 144 -164 342q0 213 203 357q180 127 446 127q180 0 334 -74q170 -84 246 -232q47 -92 47 -194zM713 174v588q0 82 -90 82h-106q-90 0 -90 -82v-588q0 -88 98 -88h90q98 0 98 88zM1007 1594v-141
q-115 -105 -215 -105q-52 0 -142 38t-143 38q-68 0 -137 -43v139q110 76 204 74q60 0 146 -39t129 -39q74 0 158 78zM230 1026l287 330h106l287 -330h-156l-184 160l-182 -160h-158z" />
    <glyph glyph-name="uni1ED8" unicode="&#x1ed8;" horiz-adv-x="1662" 
d="M1543 592q0 -285 -260 -463q-224 -156 -537 -156q-371 0 -606 209q-205 180 -205 430q0 269 256 449q227 162 563 162q330 0 563 -185q226 -176 226 -446zM920 227v742q0 102 -113 102h-137q-110 0 -110 -102v-742q0 -110 123 -110h112q125 0 125 110zM396 1307l287 329
h106l287 -329h-156l-184 159l-183 -159h-157zM602 -310q0 57 39.5 98t97.5 41q57 0 97 -41t40 -98t-40 -97t-97 -40q-58 0 -97.5 40t-39.5 97z" />
    <glyph glyph-name="uni1ED9" unicode="&#x1ed9;" horiz-adv-x="1347" 
d="M1207 463q0 -225 -205 -367q-178 -123 -426 -123q-295 0 -481 164q-164 144 -164 342q0 213 203 357q180 127 446 127q180 0 334 -74q170 -84 246 -232q47 -92 47 -194zM713 174v588q0 82 -90 82h-106q-90 0 -90 -82v-588q0 -88 98 -88h90q98 0 98 88zM432 -270
q0 57 40 98t97 41t97 -41t40 -98t-40 -97t-97 -40t-97 40t-40 97zM230 1026l287 330h106l287 -330h-156l-184 160l-182 -160h-158z" />
    <glyph glyph-name="uni1EDA" unicode="&#x1eda;" horiz-adv-x="1662" 
d="M921 227v742q0 102 -113 102h-137q-111 0 -111 -102v-742q0 -110 123 -110h113q125 0 125 110zM1097 1640l-262 -323h-191l150 323h303zM1226 1101q48 -28 92 -63q225 -176 225 -446q0 -285 -260 -463q-223 -156 -537 -156q-370 0 -606 209q-205 180 -205 430
q0 269 256 449q228 162 564 162q227 0 409 -88q9 16 17 36q-105 34 -105 124q0 54 49.5 92.5t119.5 38.5q71 0 121 -38.5t49 -92.5q-2 -102 -189 -194z" />
    <glyph glyph-name="uni1EDB" unicode="&#x1edb;" horiz-adv-x="1347" 
d="M714 174v588q0 82 -90 82h-107q-90 0 -90 -82v-588q0 -88 98 -88h90q99 0 99 88zM931 1399l-262 -326h-189l148 326h303zM979 852q120 -77 181 -195q47 -92 47 -194q0 -225 -205 -367q-178 -123 -426 -123q-294 0 -481 164q-164 144 -164 342q0 213 203 357
q180 127 447 127q180 0 333 -74l12 -6q12 20 24 47q-105 34 -105 124q0 54 49.5 92.5t119.5 38.5q71 0 121 -38.5t49 -92.5q-2 -106 -205 -202z" />
    <glyph glyph-name="uni1EDC" unicode="&#x1edc;" horiz-adv-x="1662" 
d="M921 227v742q0 102 -113 102h-137q-111 0 -111 -102v-742q0 -110 123 -110h113q125 0 125 110zM433 1659l262 -324h189l-150 324h-301zM1226 1101q48 -28 92 -63q225 -176 225 -446q0 -285 -260 -463q-223 -156 -537 -156q-370 0 -606 209q-205 180 -205 430
q0 269 256 449q228 162 564 162q227 0 409 -88q9 16 17 36q-105 34 -105 124q0 54 49.5 92.5t119.5 38.5q71 0 121 -38.5t49 -92.5q-2 -102 -189 -194z" />
    <glyph glyph-name="uni1EDD" unicode="&#x1edd;" horiz-adv-x="1347" 
d="M714 174v588q0 82 -90 82h-107q-90 0 -90 -82v-588q0 -88 98 -88h90q99 0 99 88zM228 1378l262 -323h189l-150 323h-301zM979 852q120 -77 181 -195q47 -92 47 -194q0 -225 -205 -367q-178 -123 -426 -123q-294 0 -481 164q-164 144 -164 342q0 213 203 357
q180 127 447 127q180 0 333 -74l12 -6q12 20 24 47q-105 34 -105 124q0 54 49.5 92.5t119.5 38.5q71 0 121 -38.5t49 -92.5q-2 -106 -205 -202z" />
    <glyph glyph-name="uni1EDE" unicode="&#x1ede;" horiz-adv-x="1662" 
d="M921 227v742q0 102 -113 102h-137q-111 0 -111 -102v-742q0 -110 123 -110h113q125 0 125 110zM567 1285v42q0 40 33 75q19 20 65 50q36 24 39 33.5t3 16.5q0 36 -70 35q-71 -1 -170 -31l-26 67q122 25 260 23q134 -2 191 -12q125 -22 142 -87q3 -8 3 -16q0 -40 -60 -69
l-110 -46q-59 -27 -59 -58v-23h-241zM1226 1101q48 -28 92 -63q225 -176 225 -446q0 -285 -260 -463q-223 -156 -537 -156q-370 0 -606 209q-205 180 -205 430q0 269 256 449q228 162 564 162q227 0 409 -88q9 16 17 36q-105 34 -105 124q0 54 49.5 92.5t119.5 38.5
q71 0 121 -38.5t49 -92.5q-2 -102 -189 -194z" />
    <glyph glyph-name="uni1EDF" unicode="&#x1edf;" horiz-adv-x="1347" 
d="M714 174v588q0 82 -90 82h-107q-90 0 -90 -82v-588q0 -88 98 -88h90q99 0 99 88zM425 1054v42q0 40 33 75q19 20 65 50q36 24 39 33.5t3 16.5q0 36 -70 35q-71 -1 -170 -31l-26 67q122 25 260 23q134 -2 191 -12q125 -22 142 -87q3 -8 3 -16q0 -40 -60 -69l-110 -46
q-59 -27 -59 -58v-23h-241zM979 852q120 -77 181 -195q47 -92 47 -194q0 -225 -205 -367q-178 -123 -426 -123q-294 0 -481 164q-164 144 -164 342q0 213 203 357q180 127 447 127q180 0 333 -74l12 -6q12 20 24 47q-105 34 -105 124q0 54 49.5 92.5t119.5 38.5
q71 0 121 -38.5t49 -92.5q-2 -106 -205 -202z" />
    <glyph glyph-name="uni1EE0" unicode="&#x1ee0;" horiz-adv-x="1662" 
d="M921 227v742q0 102 -113 102h-137q-111 0 -111 -102v-742q0 -110 123 -110h113q125 0 125 110zM1062 1571v-141q-115 -105 -215 -105q-51 0 -141.5 38t-143.5 38q-67 0 -137 -43v139q111 76 205 74q59 0 145 -39t129 -39q74 0 158 78zM1226 1101q48 -28 92 -63
q225 -176 225 -446q0 -285 -260 -463q-223 -156 -537 -156q-370 0 -606 209q-205 180 -205 430q0 269 256 449q228 162 564 162q227 0 409 -88q9 16 17 36q-105 34 -105 124q0 54 49.5 92.5t119.5 38.5q71 0 121 -38.5t49 -92.5q-2 -102 -189 -194z" />
    <glyph glyph-name="uni1EE1" unicode="&#x1ee1;" horiz-adv-x="1347" 
d="M714 174v588q0 82 -90 82h-107q-90 0 -90 -82v-588q0 -88 98 -88h90q99 0 99 88zM896 1323v-141q-115 -105 -215 -105q-51 0 -141 38t-144 38q-67 0 -137 -43v139q111 76 205 74q59 0 145 -39t129 -39q74 0 158 78zM979 852q120 -77 181 -195q47 -92 47 -194
q0 -225 -205 -367q-178 -123 -426 -123q-294 0 -481 164q-164 144 -164 342q0 213 203 357q180 127 447 127q180 0 333 -74l12 -6q12 20 24 47q-105 34 -105 124q0 54 49.5 92.5t119.5 38.5q71 0 121 -38.5t49 -92.5q-2 -106 -205 -202z" />
    <glyph glyph-name="uni1EE2" unicode="&#x1ee2;" horiz-adv-x="1662" 
d="M921 227v742q0 102 -113 102h-137q-111 0 -111 -102v-742q0 -110 123 -110h113q125 0 125 110zM602 -310q0 57 40 98t97 41q58 0 98 -41t40 -98t-40 -97t-98 -40q-57 0 -97 40t-40 97zM1226 1101q48 -28 92 -63q225 -176 225 -446q0 -285 -260 -463q-223 -156 -537 -156
q-370 0 -606 209q-205 180 -205 430q0 269 256 449q228 162 564 162q227 0 409 -88q9 16 17 36q-105 34 -105 124q0 54 49.5 92.5t119.5 38.5q71 0 121 -38.5t49 -92.5q-2 -102 -189 -194z" />
    <glyph glyph-name="uni1EE3" unicode="&#x1ee3;" horiz-adv-x="1347" 
d="M714 174v588q0 82 -90 82h-107q-90 0 -90 -82v-588q0 -88 98 -88h90q99 0 99 88zM432 -270q0 57 40 98t97 41q58 0 98 -41t40 -98t-40 -97t-98 -40q-57 0 -97 40t-40 97zM979 852q120 -77 181 -195q47 -92 47 -194q0 -225 -205 -367q-178 -123 -426 -123q-294 0 -481 164
q-164 144 -164 342q0 213 203 357q180 127 447 127q180 0 333 -74l12 -6q12 20 24 47q-105 34 -105 124q0 54 49.5 92.5t119.5 38.5q71 0 121 -38.5t49 -92.5q-2 -106 -205 -202z" />
    <glyph glyph-name="uni1EE4" unicode="&#x1ee4;" horiz-adv-x="1626" 
d="M1464 1198v-797q0 -155 -34 -219q-70 -129 -267 -176q-129 -33 -395 -33q-238 0 -371 27q-243 47 -340 172q-57 74 -57 217v809h586v-840q0 -96 18 -137q60 -127 324 -127q342 0 366 185q4 36 4 104v815h166zM601 -310q0 57 40 98t97 41q58 0 98 -41t40 -98t-40 -97
t-98 -40q-57 0 -97 40t-40 97z" />
    <glyph glyph-name="uni1EE5" unicode="&#x1ee5;" horiz-adv-x="1351" 
d="M408 -4q-408 27 -408 229v713h451v-678q0 -86 51 -110q39 -21 100 -21q55 0 113 16v793h450v-938h-446l-4 25q-107 -31 -240 -31q-35 0 -67 2zM431 -270q0 57 40 98t97 41q58 0 98 -41t40 -98t-40 -97t-98 -40q-57 0 -97 40t-40 97z" />
    <glyph glyph-name="uni1EE6" unicode="&#x1ee6;" horiz-adv-x="1626" 
d="M1464 1198v-797q0 -155 -34 -219q-70 -129 -267 -176q-129 -33 -395 -33q-238 0 -371 27q-243 47 -340 172q-57 74 -57 217v809h586v-840q0 -96 18 -137q60 -127 324 -127q342 0 366 185q4 36 4 104v815h166zM706 1285v42q0 40 33 75q19 20 65 50q36 24 39 33.5t3 16.5
q0 36 -70 35q-71 -1 -170 -31l-26 67q122 25 260 23q134 -2 191 -12q125 -22 142 -87q3 -8 3 -16q0 -40 -60 -69l-110 -46q-59 -27 -59 -58v-23h-241z" />
    <glyph glyph-name="uni1EE7" unicode="&#x1ee7;" horiz-adv-x="1351" 
d="M408 -4q-408 27 -408 229v713h451v-678q0 -86 51 -110q39 -21 100 -21q55 0 113 16v793h450v-938h-446l-4 25q-107 -31 -240 -31q-35 0 -67 2zM424 1054v42q0 40 33 75q19 20 65 50q36 24 39 33.5t3 16.5q0 36 -70 35q-71 -1 -170 -31l-26 67q122 25 260 23
q134 -2 191 -12q125 -22 142 -87q3 -8 3 -16q0 -40 -60 -69l-110 -46q-59 -27 -59 -58v-23h-241z" />
    <glyph glyph-name="uni1EE8" unicode="&#x1ee8;" horiz-adv-x="1626" 
d="M1155 1647l-262 -324h-188l149 324h301zM1464 1086v-685q0 -155 -34 -219q-70 -129 -267 -176q-129 -33 -395 -33q-238 0 -371 27q-243 47 -340 172q-57 74 -57 217v809h586v-840q0 -96 18 -137q60 -127 324 -127q342 0 366 185q4 36 4 104v815h97q-49 35 -49 97
q0 54 49.5 92.5t119.5 38.5q71 0 121 -38.5t49 -92.5q-2 -110 -221 -209z" />
    <glyph glyph-name="uni1EE9" unicode="&#x1ee9;" horiz-adv-x="1351" 
d="M903 1393l-262 -326h-188l149 326h301zM1165 846v-846h-446l-4 25q-107 -31 -240 -31q-35 0 -67 2q-408 27 -408 229v713h451v-678q0 -86 51 -110q39 -21 100 -21q55 0 113 16v793h414q-84 36 -84 116q0 54 49.5 92.5t119.5 38.5q71 0 121 -38.5t49 -92.5
q-2 -110 -219 -208z" />
    <glyph glyph-name="uni1EEA" unicode="&#x1eea;" horiz-adv-x="1626" 
d="M467 1602l262 -324h189l-150 324h-301zM1464 1086v-685q0 -155 -34 -219q-70 -129 -267 -176q-129 -33 -395 -33q-238 0 -371 27q-243 47 -340 172q-57 74 -57 217v809h586v-840q0 -96 18 -137q60 -127 324 -127q342 0 366 185q4 36 4 104v815h97q-49 35 -49 97
q0 54 49.5 92.5t119.5 38.5q71 0 121 -38.5t49 -92.5q-2 -110 -221 -209z" />
    <glyph glyph-name="uni1EEB" unicode="&#x1eeb;" horiz-adv-x="1351" 
d="M270 1376l262 -323h189l-150 323h-301zM1165 846v-846h-446l-4 25q-107 -31 -240 -31q-35 0 -67 2q-408 27 -408 229v713h451v-678q0 -86 51 -110q39 -21 100 -21q55 0 113 16v793h414q-84 36 -84 116q0 54 49.5 92.5t119.5 38.5q71 0 121 -38.5t49 -92.5
q-2 -110 -219 -208z" />
    <glyph glyph-name="uni1EEC" unicode="&#x1eec;" horiz-adv-x="1626" 
d="M706 1285v42q0 40 33 75q19 20 65 50q36 24 39 33.5t3 16.5q0 36 -70 35q-71 -1 -170 -31l-26 67q122 25 260 23q134 -2 191 -12q125 -22 142 -87q3 -8 3 -16q0 -40 -60 -69l-110 -46q-59 -27 -59 -58v-23h-241zM1464 1086v-685q0 -155 -34 -219q-70 -129 -267 -176
q-129 -33 -395 -33q-238 0 -371 27q-243 47 -340 172q-57 74 -57 217v809h586v-840q0 -96 18 -137q60 -127 324 -127q342 0 366 185q4 36 4 104v815h97q-49 35 -49 97q0 54 49.5 92.5t119.5 38.5q71 0 121 -38.5t49 -92.5q-2 -110 -221 -209z" />
    <glyph glyph-name="uni1EED" unicode="&#x1eed;" horiz-adv-x="1351" 
d="M424 1054v42q0 40 33 75q19 20 65 50q36 24 39 33.5t3 16.5q0 36 -70 35q-71 -1 -170 -31l-26 67q122 25 260 23q134 -2 191 -12q125 -22 142 -87q3 -8 3 -16q0 -40 -60 -69l-110 -46q-59 -27 -59 -58v-23h-241zM1165 846v-846h-446l-4 25q-107 -31 -240 -31q-35 0 -67 2
q-408 27 -408 229v713h451v-678q0 -86 51 -110q39 -21 100 -21q55 0 113 16v793h414q-84 36 -84 116q0 54 49.5 92.5t119.5 38.5q71 0 121 -38.5t49 -92.5q-2 -110 -219 -208z" />
    <glyph glyph-name="uni1EEE" unicode="&#x1eee;" horiz-adv-x="1626" 
d="M1162 1571v-141q-115 -105 -215 -105q-52 0 -142 38t-143 38q-68 0 -137 -43v139q110 76 204 74q60 0 146 -39t129 -39q74 0 158 78zM1464 1086v-685q0 -155 -34 -219q-70 -129 -267 -176q-129 -33 -395 -33q-238 0 -371 27q-243 47 -340 172q-57 74 -57 217v809h586
v-840q0 -96 18 -137q60 -127 324 -127q342 0 366 185q4 36 4 104v815h97q-49 35 -49 97q0 54 49.5 92.5t119.5 38.5q71 0 121 -38.5t49 -92.5q-2 -110 -221 -209z" />
    <glyph glyph-name="uni1EEF" unicode="&#x1eef;" horiz-adv-x="1351" 
d="M955 1323v-141q-115 -105 -215 -105q-51 0 -141 38t-144 38q-67 0 -137 -43v139q111 76 205 74q59 0 145 -39t129 -39q74 0 158 78zM1165 846v-846h-446l-4 25q-107 -31 -240 -31q-35 0 -67 2q-408 27 -408 229v713h451v-678q0 -86 51 -110q39 -21 100 -21q55 0 113 16
v793h414q-84 36 -84 116q0 54 49.5 92.5t119.5 38.5q71 0 121 -38.5t49 -92.5q-2 -110 -219 -208z" />
    <glyph glyph-name="uni1EF0" unicode="&#x1ef0;" horiz-adv-x="1626" 
d="M601 -310q0 57 40 98t97 41q58 0 98 -41t40 -98t-40 -97t-98 -40q-57 0 -97 40t-40 97zM1464 1086v-685q0 -155 -34 -219q-70 -129 -267 -176q-129 -33 -395 -33q-238 0 -371 27q-243 47 -340 172q-57 74 -57 217v809h586v-840q0 -96 18 -137q60 -127 324 -127
q342 0 366 185q4 36 4 104v815h97q-49 35 -49 97q0 54 49.5 92.5t119.5 38.5q71 0 121 -38.5t49 -92.5q-2 -110 -221 -209z" />
    <glyph glyph-name="uni1EF1" unicode="&#x1ef1;" horiz-adv-x="1351" 
d="M431 -270q0 57 40 98t97 41q58 0 98 -41t40 -98t-40 -97t-98 -40q-57 0 -97 40t-40 97zM1165 846v-846h-446l-4 25q-107 -31 -240 -31q-35 0 -67 2q-408 27 -408 229v713h451v-678q0 -86 51 -110q39 -21 100 -21q55 0 113 16v793h414q-84 36 -84 116q0 54 49.5 92.5
t119.5 38.5q71 0 121 -38.5t49 -92.5q-2 -110 -219 -208z" />
    <glyph glyph-name="Ygrave" unicode="&#x1ef2;" horiz-adv-x="1548" 
d="M981 0h-586v653l-444 545h678l293 -352l315 352h199l-455 -520v-678zM467 1602l262 -324h189l-150 324h-301z" />
    <glyph glyph-name="ygrave" unicode="&#x1ef3;" horiz-adv-x="1284" 
d="M339 -358h-193l240 362l-455 934h489l224 -526l323 526h199zM271 1376l262 -323h189l-150 323h-301z" />
    <glyph glyph-name="uni1EF4" unicode="&#x1ef4;" horiz-adv-x="1548" 
d="M981 0h-586v653l-444 545h678l293 -352l315 352h199l-455 -520v-678zM542 -310q0 57 40 98t97 41q58 0 98 -41t40 -98t-40 -97t-98 -40q-57 0 -97 40t-40 97z" />
    <glyph glyph-name="uni1EF5" unicode="&#x1ef5;" horiz-adv-x="1284" 
d="M339 -358h-193l240 362l-455 934h489l224 -526l323 526h199zM493 -270q0 57 40 98t97 41t97 -41t40 -98t-40 -97t-97 -40t-97 40t-40 97z" />
    <glyph glyph-name="uni1EF6" unicode="&#x1ef6;" horiz-adv-x="1548" 
d="M981 0h-586v653l-444 545h678l293 -352l315 352h199l-455 -520v-678zM617 1285v42q0 40 33 75q19 20 65 50q36 24 39 33.5t3 16.5q0 36 -70 35q-71 -1 -170 -31l-26 67q122 25 260 23q134 -2 191 -12q125 -22 142 -87q3 -8 3 -16q0 -40 -60 -69l-110 -46q-59 -27 -59 -58
v-23h-241z" />
    <glyph glyph-name="uni1EF7" unicode="&#x1ef7;" horiz-adv-x="1284" 
d="M339 -358h-193l240 362l-455 934h489l224 -526l323 526h199zM484 1054v42q0 40 33 75q19 20 65 50q36 24 39 33.5t3 16.5q0 36 -70 35q-71 -1 -170 -31l-26 67q122 25 260 23q134 -2 191 -12q125 -22 142 -87q3 -8 3 -16q0 -40 -60 -69l-110 -46q-59 -27 -59 -58v-23
h-241z" />
    <glyph glyph-name="uni1EF8" unicode="&#x1ef8;" horiz-adv-x="1548" 
d="M981 0h-586v653l-444 545h678l293 -352l315 352h199l-455 -520v-678zM1061 1571v-141q-115 -105 -215 -105q-51 0 -141 38t-144 38q-67 0 -137 -43v139q111 76 205 74q59 0 145 -39t129 -39q74 0 158 78z" />
    <glyph glyph-name="uni1EF9" unicode="&#x1ef9;" horiz-adv-x="1284" 
d="M339 -358h-193l240 362l-455 934h489l224 -526l323 526h199zM956 1323v-141q-115 -105 -215 -105q-52 0 -142 38t-143 38q-68 0 -137 -43v139q110 76 204 74q60 0 146 -39t129 -39q74 0 158 78z" />
    <glyph glyph-name="quoteleft" unicode="&#x2018;" horiz-adv-x="692" 
d="M506 913q0 -82 -74 -139t-180 -57q-104 0 -179 58.5t-73 137.5q2 174 377 332l24 -55q-28 -35 -51 -92q156 -51 156 -185z" />
    <glyph glyph-name="quoteright" unicode="&#x2019;" horiz-adv-x="692" 
d="M0 1049q0 81 73.5 138.5t180.5 57.5q104 0 179 -58.5t73 -137.5q-2 -175 -377 -332l-25 55q29 35 52 92q-156 51 -156 185z" />
    <glyph glyph-name="quotedblleft" unicode="&#x201c;" 
d="M526 895q0 -82 -74 -139.5t-180 -57.5q-104 0 -179 57.5t-73 139.5q2 174 377 332l24 -56q-28 -34 -51 -92q156 -51 156 -184zM1089 895q0 -82 -73.5 -139.5t-180.5 -57.5q-104 0 -179 57.5t-73 139.5q2 174 377 332l25 -56q-29 -34 -52 -92q156 -51 156 -184z" />
    <glyph glyph-name="quotedblright" unicode="&#x201d;" 
d="M573 1022q0 82 74 139.5t180 57.5q105 0 179.5 -58.5t72.5 -138.5q-2 -174 -377 -332l-24 55q28 35 51 93q-156 51 -156 184zM10 1022q0 82 73.5 139.5t180.5 57.5q104 0 179 -58.5t73 -138.5q-2 -174 -377 -332l-25 55q29 35 52 93q-156 51 -156 184z" />
    <glyph glyph-name="ellipsis" unicode="&#x2026;" horiz-adv-x="1967" 
d="M0 182q0 84 73.5 142.5t178.5 58.5q104 0 178 -58.5t74 -142.5q0 -82 -74 -140t-178 -58q-105 0 -178.5 58t-73.5 140zM662 183q0 84 74 142t178 58q105 0 178.5 -58t73.5 -142q0 -82 -73.5 -140.5t-178.5 -58.5q-104 0 -178 58.5t-74 140.5zM1295 182q0 84 74 142.5
t178 58.5t178 -58.5t74 -142.5q0 -82 -74 -140t-178 -58t-178 58t-74 140z" />
    <glyph glyph-name="ugrave" horiz-adv-x="582" 
 />
    <glyph glyph-name="uacute" horiz-adv-x="580" 
 />
    <glyph glyph-name="yacute" horiz-adv-x="629" 
 />
    </font>
</defs>
</svg>
