<svg xmlns="http://www.w3.org/2000/svg">
<defs>
<font id="UTMZirkon" horiz-adv-x="614" >
  <font-face 
    font-family="UTMZirkon"
    font-weight="400"
    font-stretch="normal"
    units-per-em="2048"
    panose-1="2 4 6 3 5 5 6 2 2 4"
    ascent="1638"
    descent="-410"
    x-height="553"
    cap-height="1370"
    bbox="-337 -449 4942 2045"
    underline-thickness="109"
    underline-position="-143"
    unicode-range="U+0020-2026"
  />
<missing-glyph horiz-adv-x="5040" 
d="M3351 2045h10q37 -10 37 -52q0 -12 -32 -57h-28q0 24 28 54l2 10q-5 13 -10 15h-9q-8 0 -10 -19h-30q6 49 42 49zM2019 2016l29 -31q0 -16 -40 -30h-19l-59 12l-11 -12l-28 25q11 29 43 29h11l42 -11h2q10 0 30 18zM468 1980h142v-60h-94v-75h89v-59h-89v-129l-5 -5h-49
v323zM1155 1980h43l6 -5v-78h30v-52h-30v-188l-6 -5h-49v193h-25v52h25v78zM1621 1980h42l4 -5v-94h3q23 24 54 24h2q58 0 83 -71l2 -39v-143h-52v115q0 80 -42 80h-7q-43 0 -43 -86v-109h-51v323zM2200 1980h49l5 -5v-222q10 -51 45 -51q44 7 44 59v214l5 5h49v-216
q0 -85 -66 -112q-15 -8 -35 -8q-47 0 -82 55q-14 24 -14 57v224zM2435 1980h159v-60h-56v-268h-53v268h-55v55zM2621 1980h71q7 -4 83 -251h2l80 251h73v-328h-54v242h-2l-74 -242h-44q-4 0 -58 182l-19 60h-3v-242h-55v328zM3760 1980h52v-328h-45l-5 5v11l3 2l-3 14
q-29 -40 -78 -40q-67 0 -100 91l-5 39v3q0 94 92 125l23 3q35 0 63 -32h3v107zM2057 1928h36l4 -6v-49h-45v-221h-48v23q-23 -31 -59 -31q-89 14 -89 97v156h51v-104q0 -79 26 -86l18 -5h6q26 0 39 36l3 26v133h53v25zM3476 1928v-55h-31v-221h-47v25h-2q-15 -33 -57 -33
q-68 0 -86 78l-3 29v146h52v-120q0 -50 19 -68l21 -7h9q42 0 42 69v126h27q4 0 4 28l3 3h49zM758 1905q68 0 103 -77q9 -18 12 -54q0 -88 -90 -127l-32 -3q-63 0 -101 73q-12 22 -12 52v10q0 94 101 126h19zM1011 1905h3q74 0 83 -101v-152h-51v119q0 76 -42 76h-5
q-44 0 -44 -76v-119h-52v245h46v-21q30 29 62 29zM1466 1905h7q72 0 105 -89h-60q-16 31 -42 31h-17q-53 -14 -53 -61l-3 -15q12 -69 61 -69h9q22 0 47 27h40l2 3h3l2 -3l2 3l3 -3l2 3l2 -7q-33 -81 -110 -81q-76 0 -110 94l-4 36v3q0 85 77 120q15 8 37 8zM3141 1905h2

<glyph glyph-name=".notdef" horiz-adv-x="5040" 
d="M3351 2045h10q37 -10 37 -52q0 -12 -32 -57h-28q0 24 28 54l2 10q-5 13 -10 15h-9q-8 0 -10 -19h-30q6 49 42 49zM2019 2016l29 -31q0 -16 -40 -30h-19l-59 12l-11 -12l-28 25q11 29 43 29h11l42 -11h2q10 0 30 18zM468 1980h142v-60h-94v-75h89v-59h-89v-129l-5 -5h-49
v323zM1155 1980h43l6 -5v-78h30v-52h-30v-188l-6 -5h-49v193h-25v52h25v78zM1621 1980h42l4 -5v-94h3q23 24 54 24h2q58 0 83 -71l2 -39v-143h-52v115q0 80 -42 80h-7q-43 0 -43 -86v-109h-51v323zM2200 1980h49l5 -5v-222q10 -51 45 -51q44 7 44 59v214l5 5h49v-216
q0 -85 -66 -112q-15 -8 -35 -8q-47 0 -82 55q-14 24 -14 57v224zM2435 1980h159v-60h-56v-268h-53v268h-55v55zM2621 1980h71q7 -4 83 -251h2l80 251h73v-328h-54v242h-2l-74 -242h-44q-4 0 -58 182l-19 60h-3v-242h-55v328zM3760 1980h52v-328h-45l-5 5v11l3 2l-3 14
q-29 -40 -78 -40q-67 0 -100 91l-5 39v3q0 94 92 125l23 3q35 0 63 -32h3v107zM2057 1928h36l4 -6v-49h-45v-221h-48v23q-23 -31 -59 -31q-89 14 -89 97v156h51v-104q0 -79 26 -86l18 -5h6q26 0 39 36l3 26v133h53v25zM3476 1928v-55h-31v-221h-47v25h-2q-15 -33 -57 -33
q-68 0 -86 78l-3 29v146h52v-120q0 -50 19 -68l21 -7h9q42 0 42 69v126h27q4 0 4 28l3 3h49zM758 1905q68 0 103 -77q9 -18 12 -54q0 -88 -90 -127l-32 -3q-63 0 -101 73q-12 22 -12 52v10q0 94 101 126h19zM1011 1905h3q74 0 83 -101v-152h-51v119q0 76 -42 76h-5
q-44 0 -44 -76v-119h-52v245h46v-21q30 29 62 29zM1466 1905h7q72 0 105 -89h-60q-16 31 -42 31h-17q-53 -14 -53 -61l-3 -15q12 -69 61 -69h9q22 0 47 27h40l2 3h3l2 -3l2 3l3 -3l2 3l2 -7q-33 -81 -110 -81q-76 0 -110 94l-4 36v3q0 85 77 120q15 8 37 8zM3141 1905h2
q49 0 70 -60v-14h-52q0 16 -16 16h-4q-14 0 -19 -13v-13q0 -9 68 -35q30 -19 30 -59q0 -58 -61 -80l-23 -3q-76 12 -76 83h54q0 -20 27 -25h4q19 0 24 23q0 22 -68 44q-34 27 -34 59q0 66 74 77zM4203 1905q55 0 77 -63q7 -18 7 -65v-125h-52v112q0 83 -40 83h-11
q-33 0 -40 -54v-141h-52v5h-2l2 2v238h47v-21q25 29 64 29zM4432 1905h5q40 0 69 -40v18l-3 3l3 11h47v-208q0 -97 -85 -132l-33 -4h-7q-70 0 -104 80h59q24 -22 45 -23h13q22 0 43 22q15 13 22 52h-3q-32 -40 -73 -40q-57 0 -96 70q-10 18 -14 63q0 88 87 125zM3851 1897
h53v-136q6 -59 40 -59h7q46 0 46 93v102h51v-245h-47l-3 10h3l-3 3v5l3 2v3h-4q0 -23 -57 -31h-3q-59 0 -84 75l-2 85v93zM690 1771q10 -69 63 -69h7q59 14 59 65v15q-13 65 -59 65h-5q-58 0 -65 -76zM3630 1774q13 -72 61 -72h5q58 0 66 75q0 49 -51 70h-22q-37 0 -56 -57z
M4374 1774q8 -72 65 -72h5q59 12 59 72q0 61 -59 73h-14q-56 -16 -56 -62v-11zM3928 1620h52v-57h-52v57zM1054 1402q43 -11 43 -49v-4q0 -17 -32 -60h-28q0 25 31 57v7q0 12 -7 15h-12q-10 -4 -10 -19h-28v6q0 32 33 44zM3349 1339q92 0 138 -99h-60q-37 42 -80 42
q-55 0 -87 -68q-10 -22 -10 -47q0 -78 81 -110l18 -1q36 0 75 39h61q-44 -97 -138 -97q-93 0 -141 112q-10 31 -10 62q0 97 90 152q29 15 63 15zM3664 1339q57 0 103 -47q46 -51 46 -115v-20q0 -89 -91 -146q-33 -13 -63 -13q-89 0 -138 101q-13 33 -13 60v18q0 98 98 151
q29 11 58 11zM2261 1337h2l47 -11h3q11 0 26 11l18 -36q-18 -19 -35 -19h-3l-54 10l-20 -7l-20 36q18 16 36 16zM716 1334h19q118 0 129 -26q25 -26 25 -62q-10 -57 -30 -57v-6q47 -23 47 -66v-18q0 -63 -69 -88l-54 -5h-67v328zM2550 1334h53v-217q6 -61 45 -61q29 0 44 39
l3 30v203l4 6h45l5 -6v-171q0 -118 -40 -133q-24 -26 -64 -26q-55 0 -91 76l-4 54v206zM2805 1334h59q4 0 122 -237h4v237h50l4 -6v-322h-58q-29 48 -125 238h-3v-238h-53v328zM3101 1334h54v-328h-54v328zM3859 1334h8q155 0 174 -40q23 -11 47 -75l4 -36v-11l3 -2
q0 -94 -82 -149q-35 -15 -99 -15h-55v328zM4141 1334h153v-60h-103v-75h101v-57h-101v-74l4 -5h99v-57h-157v322zM3563 1175v-10q0 -76 79 -108l19 -1q68 0 96 86l3 20v15q0 61 -60 94q-12 8 -39 11q-66 0 -96 -83zM770 1274v-67h9q54 0 54 28l3 14q-11 25 -29 25h-37z
M3912 1274v-206l2 -3v-2q104 0 122 76l2 15v29q0 34 -32 68q-25 23 -78 23h-16zM1041 1259h5q38 0 71 -40v32h49v-245h-49v32q-36 -40 -80 -40q-75 0 -101 97l-5 36q0 89 85 125zM1314 1259h3q74 0 83 -102v-151h-51v128q0 67 -42 67h-10q-34 0 -39 -62v-133h-52v245h47v-21
q28 29 61 29zM1543 1259h5q45 0 71 -40v32h47v-219q0 -95 -104 -126h-16q-74 0 -108 82h59q26 -25 44 -25h14q52 0 64 77q-33 -42 -76 -42q-60 0 -101 81l-7 44v16q0 79 85 117zM1912 1259h2q43 0 61 -37h2q32 37 69 37h4q57 0 79 -55q8 -25 8 -45v-153h-52v138q0 44 -23 55
l-12 2h-15q-32 0 -36 -65v-130h-52v136q0 59 -43 59h-8q-32 0 -36 -57v-138h-54v245h50v-21h2q6 24 54 29zM2282 1259q47 0 75 -42v34h47v-245h-47v32q-36 -40 -78 -40q-74 0 -102 92l-6 41q0 90 85 125zM985 1117q0 -48 61 -61h4q45 0 62 46l3 15v22q-12 62 -57 62h-14
q-41 0 -59 -57v-27zM1487 1128q0 -48 43 -68l18 -4h5q47 0 63 57v23q-11 65 -58 65h-12q-50 0 -59 -73zM2225 1131v-14q15 -61 57 -61h14q58 12 58 64v11q0 45 -37 65l-18 5h-10q-64 -8 -64 -70zM770 1150v-82q0 -5 7 -5q77 0 77 45q0 34 -47 42h-37zM2966 753l24 -28
l-51 -55q-18 12 -27 26zM1524 727l85 -54q0 -15 -21 -42l-87 54q18 41 23 42zM2850 693h38l55 -60h-54l-21 26l-23 -26h-54q54 60 59 60zM3422 693h40l56 -60h-54l-24 26h-1q0 -5 -19 -26h-54zM622 685h52q8 -4 47 -137l34 -110q9 8 34 100l48 147h54v-2l-112 -326h-44z
M1159 685h51v-54h-51v54zM1354 685h46l6 -5v-323h-52v328zM2317 685h45l4 -5v-78h31v-52h-31v-193h-53v193h-26v52h26v78zM2425 685h52v-98h2q23 23 54 23h3q57 0 81 -71l3 -38v-144h-52v115q0 81 -39 81h-10q-42 0 -42 -87v-109h-52v328zM2664 685h52v-54h-52v54zM3028 685
h44l6 -5v-78h29v-52h-29v-193h-54v193h-27v52h27v78zM3234 685h52v-328h-52v328zM3957 685h52v-328h-52v328zM4316 685h51v-54h-51v54zM1555 610h5q83 0 110 -102l3 -23v-11q0 -83 -85 -120l-35 -5q-76 0 -111 97l-4 32q0 97 93 130zM1811 610h4q53 0 78 -60q7 -25 7 -81
v-112h-54v146q-7 50 -37 50h-10q-38 0 -42 -57v-139h-54v245h49v-21q26 29 59 29zM2046 610h4q45 0 63 -39h3v31h49v-206q0 -102 -89 -135l-28 -3h-5q-73 0 -106 81h52l37 -20l15 -3h14q50 0 61 72q-33 -39 -73 -39q-62 0 -98 76q-11 23 -12 60q0 85 86 123zM2866 610h2
q82 0 111 -104l2 -25l-2 -27h-172q15 -45 45 -45l14 -3q29 0 49 22h57v-3q-35 -76 -108 -76q-77 0 -111 97l-1 28v8q0 49 32 89q34 39 82 39zM3429 610h5q41 0 70 -39h2v31h47v-245h-47v31h-2q-35 -39 -77 -39q-71 0 -101 89l-5 36v14q0 86 84 120zM3711 610h7
q88 0 107 -128l-2 -1v-15q0 -65 -66 -106q-21 -11 -46 -11q-34 0 -64 32v-99l-5 -5h-49v325h49v-28q31 36 69 36zM4151 610q44 0 75 -39v31h49v-245h-49v31q-35 -39 -77 -39q-92 0 -108 132q0 84 73 121q15 8 37 8zM922 602h50v-136q3 -60 42 -60h5q44 0 44 87v109h52v-245
h-47v24h-5q0 -23 -56 -32h-3q-55 0 -82 68q-4 35 -4 99v81zM1159 602h51v-245h-51v245zM2664 602h52v-245h-52v245zM4316 602h51v-245h-51v245zM1492 488v-16q13 -66 59 -66h4q59 0 66 76q-13 71 -59 71h-11q-59 -16 -59 -65zM1987 472q15 -66 59 -66h11q48 0 59 75v1
q-13 71 -59 71h-14q-39 0 -56 -57v-24zM2805 506h122v2q-16 45 -59 45h-7q-35 0 -56 -47zM3373 474q13 -68 61 -68h5q52 0 65 63v12q-10 72 -57 72h-16q-56 -14 -56 -63zM3642 478q12 -72 61 -72h3q50 0 65 60v22q0 43 -49 65h-22q-47 0 -58 -72v-3zM4095 472q10 -66 66 -66
q43 0 61 48l2 15v16q0 54 -52 68h-18q-42 0 -59 -60v-21zM3416 321h51v-52h-51v52zM4137 321h51v-52h-51v52zM2733 133h4q35 0 43 -50v-2q0 -16 -24 -41l-10 -17h-28q0 25 28 56l3 2v2q-3 19 -9 19h-10q-8 0 -9 -19h-30q6 50 42 50zM1546 116l52 -60l-26 -19l-52 52zM352 79
h4q75 -48 85 -60l-20 -37q-88 49 -88 58zM3490 79l86 -58l-18 -39q-10 0 -91 55q15 36 23 42zM4578 76l19 -42l-91 -52l-20 39l92 58v-3zM1204 53h51v-19l5 -5h14v-36h-14l-5 -5v-279h-46v31q-34 -40 -81 -40q-72 0 -102 105l-3 26q0 102 101 131h14q33 0 66 -33v59l-6 5
h-43v36h49v24zM1480 45h40l56 -61h-53l-23 27l-23 -27h-53zM2641 45h33q12 0 63 -61h-54l-23 27q-19 -21 -19 -27h-58v4zM49 37h160v-60h-56v-268h-50l-4 5v245l2 3v2l-2 2l2 3l-2 2l2 3l-2 3h-54v54zM699 37h47v-73l2 -2l-2 -3v-3l2 -2l-2 -3v-3l2 -2v-2l-2 -3l2 -3h3
q17 24 51 24h3q53 0 77 -58q7 -17 7 -42v-153h-52v127q0 68 -40 68h-8q-43 0 -43 -86v-109h-52v322zM1297 37h47l5 -6v-49h-52v55zM1987 37h52v-198l70 115h62l-78 -118l90 -125v-2h-70q-10 22 -74 115v-115h-52v328zM2271 37v-99q24 24 53 24q57 0 80 -56q10 -19 10 -77
v-120h-54v133q0 62 -41 62h-11q-31 0 -37 -55v-140h-53v314l-1 3v3l1 2l-1 3l1 3h53zM2458 37h51v-55h-51v55zM3148 37h51v-108q27 33 68 33h3q75 0 105 -94l5 -37q0 -75 -64 -120q-30 -11 -49 -11q-41 0 -72 40v-31h-47v328zM4275 37h52v-99h2q23 24 54 24h3q60 0 82 -74
l2 -41v-138h-52v111q0 82 -32 82l-10 2h-12q-37 0 -37 -80v-115h-52v328zM329 -38h3v-58h-5q-42 0 -42 -57v-138h-53v245h47v-21q18 29 50 29zM564 -38q71 0 86 -87v-166h-51v136q-6 59 -41 59h-6q-45 0 -45 -84v-111h-52v245h50v-21q25 29 59 29zM1504 -38q72 0 105 -94
l5 -39q-2 -24 -7 -24h-169q17 -47 62 -47q24 0 48 21h57q-33 -79 -108 -79q-82 0 -113 105v37q0 81 89 117zM2657 -38h5q77 0 107 -97l3 -26v-21l-3 -13h-170q18 -47 53 -47h12q21 0 42 21h59q-34 -79 -105 -79q-84 0 -115 102l-2 29q0 93 91 128zM2915 -38h4q54 0 78 -60
q7 -25 7 -82v-111h-54v138q0 48 -35 57h-11q-38 0 -43 -57v-138h-54v245h50v-21q25 29 58 29zM3508 -38h6q40 0 70 -40h2v32h47v-245h-47v31h-2q-34 -40 -78 -40q-71 0 -101 90l-4 37v12q0 82 77 117q11 6 30 6zM3781 -38h4q62 0 82 -78l3 -84v-91h-54v138q0 48 -38 57h-9
q-38 0 -42 -52v-143h-54v245h49v-21q26 29 59 29zM4133 -38h1q74 0 104 -93l4 -40q0 -88 -84 -126l-25 -3q-41 0 -68 34v-106h-52v326h47v-29q30 37 73 37zM4714 -38h5q34 0 63 -37q27 37 69 37h6q56 0 79 -66l6 -51v-136h-52v122q0 73 -39 73h-7q-35 0 -41 -50v-140l-5 -5
h-48v140q0 42 -31 55h-17q-40 0 -40 -77v-118h-51v245h47v-21q22 29 56 29zM359 -46h49l5 -6v-234l-5 -5h-49v245zM1297 -46h52v-245h-52v245zM1649 -46h52v-136q4 -60 43 -60h4q44 0 44 81v115h52v-245h-47v24h-5q-12 -33 -59 -33q-52 0 -79 63q-5 12 -5 34v157zM2458 -46
h51v-245h-51v245zM4515 -46h51v-245h-51v245zM1077 -169q0 -53 51 -73h12q54 0 66 66v10q0 53 -54 70h-17q-38 0 -58 -57v-16zM1438 -143h122q-18 47 -53 47h-7q-43 0 -62 -44v-3zM2599 -143h122q-21 47 -54 47h-7q-46 0 -61 -47zM3196 -158v-11q10 -73 61 -73h5q64 8 64 71
v5q0 45 -38 65l-18 5h-14q-60 -14 -60 -62zM3452 -173q14 -69 62 -69h11q41 0 59 60v13q-8 73 -56 73h-17q-47 0 -59 -73v-4zM4062 -158v-22q0 -47 59 -62h9q50 0 61 76q-13 70 -58 70h-15q-56 -17 -56 -62z" />
    <glyph glyph-name=".null" horiz-adv-x="0" 
 />
    <glyph glyph-name="nonmarkingreturn" horiz-adv-x="571" 
 />
    <glyph glyph-name="space" unicode=" " horiz-adv-x="393" 
 />
    <glyph glyph-name="exclam" unicode="!" horiz-adv-x="788" 
d="M413 143q0 -65 -45 -114t-110 -49q-113 0 -113 94q0 63 51 115.5t115 52.5q41 0 71.5 -29t30.5 -70zM780 1331q63 0 63 -98q0 -119 -108 -291l-184 -262q-107 -164 -177 -375l-30 10q100 203 139 392q59 286 86 366q88 258 211 258z" />
    <glyph glyph-name="quotedbl" unicode="&#x22;" horiz-adv-x="456" 
d="M342 954q-12 105 -23 209q-14 125 -14 207q0 88 57 88q45 0 45 -110q0 -78 -12 -197q-18 -178 -20 -197h-33zM489 954q-10 105 -22 207q-12 125 -12 209q0 88 55 88q47 0 47 -108q0 -82 -12 -199q-13 -98 -23 -197h-33z" />
    <glyph glyph-name="numbersign" unicode="#" horiz-adv-x="1134" 
d="M544 725h258l115 334h92l-117 -334h248l-24 -76h-250l-90 -264h249l-24 -72h-252l-111 -333h-94l117 333h-258l-113 -333h-92l117 333h-248l27 72h245l93 264h-248l28 76h242l115 334h92zM685 385l93 264h-258l-91 -264h256z" />
    <glyph glyph-name="dollar" unicode="$" horiz-adv-x="739" 
d="M517 748q29 -17 62 -17q55 0 90 36t35 91q0 78 -93 103zM427 643l39 94l-31 25l15 26l30 -20l86 197q-88 0 -145 -45q-66 -52 -66 -136q0 -100 72 -141zM300 354q-24 17 -63 17q-56 0 -89.5 -36t-33.5 -91q0 -82 94 -101zM398 473l-47 -106l33 -25l-16 -25l-29 21
l-88 -199q92 0 160 45q80 54 80 140q0 92 -93 149zM579 993l67 154h43l-65 -160q47 -10 79.5 -47t32.5 -82q0 -63 -45 -107t-108 -44q-45 0 -78 16l-41 -107q123 -94 123 -194q0 -131 -107.5 -224.5t-238.5 -82.5l-72 -158h-41l66 160q-47 12 -80 48t-33 83q0 63 44 107
t108 44q47 0 79 -16l54 121q-101 76 -101 201q0 124 93.5 211.5t220.5 76.5z" />
    <glyph glyph-name="percent" unicode="%" horiz-adv-x="1089" 
d="M975 432q0 -57 41 -61l2 -15q-23 0 -40.5 16.5t-17.5 37.5q0 53 52 53q34 0 39 -39q12 -33 12 -84q0 -117 -76 -231q-86 -127 -197 -127q-102 0 -102 141q0 94 76 205q82 118 170 118v-4q-82 -41 -135.5 -136t-53.5 -187q0 -109 72 -109q96 0 168 121q63 105 63 207
q0 111 -51 113zM524 1143q-20 0 -20 -29q0 -53 71 -57q0 26 -13 56t-38 30zM590 1044q0 -122 -72 -239q-80 -131 -197 -131q-104 0 -104 127q0 92 76 215q84 133 170 123v-4q-86 -43 -137.5 -140.5t-51.5 -197.5q0 -95 58 -95q110 0 182 119q61 105 61 223q-32 -2 -59 17.5
t-27 52.5q0 41 50 41q26 0 40 -39q13 -31 11 -59q190 0 352 117h39l-590 -1192h-74l615 1175q-148 -113 -342 -113z" />
    <glyph glyph-name="ampersand" unicode="&#x26;" horiz-adv-x="1230" 
d="M684 281q78 98 78 206l-2 9q-27 8 -62 8q-39 0 -90 -15q29 -112 76 -208zM743 160q121 88 121 205q0 79 -70 112q-14 -123 -96 -229q12 -31 45 -88zM303 246q0 -47 43 -72q37 -20 86 -20q74 0 129 36q-59 107 -92 250q-166 -94 -166 -194zM563 651q266 127 266 232
q0 92 -104 92q-84 0 -130 -53.5t-46 -137.5q0 -32 14 -133zM657 57q-164 -77 -282 -77q-113 0 -191 49q-92 57 -92 164q0 137 117 245q76 72 237 154v33q0 141 66 249q78 127 213 127q57 0 97 -31.5t40 -88.5q0 -131 -291 -256q6 -60 27 -105q43 15 96 15q35 0 66 -9
q-2 19 -15.5 46.5t-15.5 39.5l14 17q60 -37 51 -117q103 -45 103 -152q0 -120 -137 -231q80 -145 151 -145q64 0 106 48t42 113q0 41 -31 93.5t-33 60.5l4 8l11 4l10 -4q67 -92 67 -162q0 -79 -50 -135.5t-130 -56.5q-162 0 -250 104zM635 80q-21 22 -58 80
q-69 -35 -153 -35q-62 0 -107 29q-51 34 -51 94q0 108 195 225q-13 57 -15 88q-319 -158 -319 -373q0 -90 82 -139q67 -41 164 -41q129 0 262 72z" />
    <glyph glyph-name="quotesingle" unicode="'" horiz-adv-x="364" 
d="M474 1212v5q-24 -5 -41 -5q-90 0 -90 74q0 60 51.5 114t112.5 54q96 0 96 -84t-95 -202.5t-165 -123.5l-10 13q8 18 78 76q63 49 63 79z" />
    <glyph glyph-name="parenleft" unicode="(" horiz-adv-x="765" 
d="M903 1432l8 -9l-6 -8q-252 -194 -440.5 -570t-188.5 -691q0 -31 6 -78q7 -64 9 -78l-9 -12l-10 6q-51 166 -51 346q0 324 168 604q158 264 442 453q23 16 72 37z" />
    <glyph glyph-name="parenright" unicode=")" horiz-adv-x="718" 
d="M44 -14l-6 8l4 10q252 195 440.5 569.5t188.5 690.5q0 28 -7.5 80.5t-7.5 76.5l9 13l10 -7q51 -165 51 -348q0 -327 -166 -604q-157 -260 -444 -448q-23 -17 -72 -41z" />
    <glyph glyph-name="asterisk" unicode="*" horiz-adv-x="380" 
d="M375 1446q20 0 40.5 -43t26.5 -47q6 8 15 61q6 41 32 41q39 0 39 -28q0 -11 -26.5 -40.5t-24.5 -43.5q-4 -5 4 -5q14 0 40 16.5t38 16.5q33 0 33 -39q0 -24 -35 -24q-10 0 -29.5 3t-30.5 3q-2 0 -8 -2t-10 -2q0 -15 36 -36.5t36 -43.5q0 -33 -37 -33q-12 0 -33 39
q-24 51 -27 53q-6 -2 -18 -88q-14 -18 -25 -18q-10 0 -24 9t-14 19q0 13 26.5 43.5t24.5 45.5l-6 4q-15 0 -41.5 -14.5t-38.5 -14.5q-31 0 -31 39q0 24 27 24q10 0 32.5 -5t34.5 -5q6 0 19 4q-2 13 -39 35.5t-37 42.5q0 33 31 33z" />
    <glyph glyph-name="plus" unicode="+" horiz-adv-x="1067" 
d="M645 934v-414h412v-98h-410v-422h-104v420h-410v98h410v416h102z" />
    <glyph glyph-name="comma" unicode="," horiz-adv-x="376" 
d="M131 -18l-2 2q-24 -4 -41 -4q-90 0 -90 75q0 60 52.5 115t111.5 55q94 0 94 -84t-95 -203.5t-165 -121.5l-10 10q8 16 82 74q63 51 63 82z" />
    <glyph glyph-name="hyphen" unicode="-" horiz-adv-x="651" 
d="M606 524q-55 -215 -192 -215q-39 0 -118 20.5t-120 20.5t-68 -22q-8 -9 -43 -60l-16 6q14 86 61 152q56 82 134 82q41 0 118.5 -23.5t116.5 -23.5q51 0 105 63h22z" />
    <glyph glyph-name="hyphen" unicode="&#x2010;" horiz-adv-x="651" 
d="M606 524q-55 -215 -192 -215q-39 0 -118 20.5t-120 20.5t-68 -22q-8 -9 -43 -60l-16 6q14 86 61 152q56 82 134 82q41 0 118.5 -23.5t116.5 -23.5q51 0 105 63h22z" />
    <glyph glyph-name="period" unicode="." horiz-adv-x="370" 
d="M256 141q0 -63 -47 -112t-113 -49q-41 0 -68.5 31.5t-27.5 72.5q0 59 44 105.5t103 46.5q109 0 109 -95z" />
    <glyph glyph-name="slash" unicode="/" horiz-adv-x="960" 
d="M905 1434l-590 -1438h-74l592 1438h72z" />
    <glyph glyph-name="zero" unicode="0" horiz-adv-x="929" 
d="M794 1077q0 -39 30.5 -76.5t67.5 -44.5l6 -34q-55 12 -97 53t-42 96q0 119 100 119q84 0 125 -117q31 -84 31 -186q0 -301 -186 -586q-209 -319 -494 -319q-131 0 -199 112q-59 94 -59 232q0 254 174 501q180 256 424 320h10l13 -8l-5 -6q-217 -125 -346 -351.5
t-129 -476.5q0 -254 178 -254q242 0 426 311q160 273 160 531q0 82 -24 160q-35 104 -99 104q-65 0 -65 -80z" />
    <glyph glyph-name="one" unicode="1" horiz-adv-x="929" 
d="M891 1198l-500 -1184l-162 -34l420 974q-160 -123 -176 -123q-4 0 -8 5q0 10 6 18l129 117q129 116 252 246z" />
    <glyph glyph-name="two" unicode="2" horiz-adv-x="929" 
d="M156 193q78 30 125 30q37 0 152.5 -77.5t171.5 -77.5q65 0 110 53q29 31 58 98q22 53 32 55l15 -10q-4 -100 -99.5 -192t-195.5 -92q-115 0 -215.5 72.5t-136.5 72.5q-91 0 -164 -125h-31q61 135 137 214t209 153q268 149 383 258q193 180 193 401q0 150 -156 150
q-158 0 -283 -150q-118 -141 -118 -301q0 -47 27.5 -86t74.5 -39q106 0 203 131q92 123 92 232q0 63 -55 63q-33 0 -62 -14q-35 -19 -49 -21l-10 6v11q0 20 53 36q41 11 72 11q82 0 82 -90q0 -125 -101 -254q-108 -140 -229 -140q-129 0 -129 170q0 179 146.5 329.5
t324.5 150.5q110 0 180 -54q74 -59 74 -170q0 -204 -170 -354q-96 -86 -365 -227q-256 -131 -346 -223z" />
    <glyph glyph-name="three" unicode="3" horiz-adv-x="929" 
d="M821 483q0 -188 -169 -345.5t-362 -157.5q-233 0 -233 227q0 131 96 252q103 129 232 129q71 0 119.5 -37t48.5 -107q0 -112 -70 -217q-78 -118 -184 -118q-43 0 -74 38.5t-31 83.5q0 21 19 21l14 -10q14 -105 78 -105q84 0 153 115q64 104 64 192q0 117 -143 117
q-117 0 -207 -129q-80 -119 -80 -242q0 -84 51 -130t137 -46q170 0 291 164q111 148 111 324q0 188 -187 200l-8 11l8 12q137 0 248 97.5t111 232.5q0 63 -58 100q-49 31 -116 31q-97 0 -171.5 -67.5t-74.5 -162.5q0 -28 29.5 -47.5t60.5 -19.5q49 0 83 30.5t38 30.5l14 -14
q-8 -35 -57 -57q-41 -19 -82 -19q-47 0 -83 31t-36 76q0 116 115 190q98 64 221 64q88 0 160 -45q84 -54 84 -136q0 -116 -97 -211q-86 -81 -206 -116q143 -78 143 -230z" />
    <glyph glyph-name="four" unicode="4" horiz-adv-x="929" 
d="M246 494q211 16 338 6l264 592q88 47 182 100l-315 -703q43 -2 121 -18l-48 -104q-39 6 -120 14l-162 -363l-152 -43l183 412l-95 2q-118 2 -311 -16q164 274 326 547q276 460 295 473l14 -19q-8 -31 -240 -416q-139 -231 -280 -464z" />
    <glyph glyph-name="five" unicode="5" horiz-adv-x="929" 
d="M321 16q158 0 273 203q100 174 100 344q0 199 -194 199q-101 0 -195 -41l195 479q90 -18 249 -18q172 0 222 35l20 34l14 -4l-67 -174q-109 -26 -234 -26q-112 0 -213 20l-112 -274q125 45 211 45q116 0 181.5 -64.5t65.5 -183.5q0 -207 -147 -402q-160 -206 -363 -206
q-104 0 -168.5 70.5t-64.5 174.5q0 152 88 275q96 137 244 137q65 0 107 -36t42 -99q0 -51 -39 -154q-45 -114 -84 -114l-12 14q6 26 57 104q43 66 43 144q0 118 -118 118q-125 0 -215 -131q-82 -120 -82 -249q0 -220 196 -220z" />
    <glyph glyph-name="six" unicode="6" horiz-adv-x="929" 
d="M1040 1257q-21 -10 -35 -16q-318 -137 -490 -307q-186 -184 -288 -496q-43 -129 -43 -239q0 -76 30 -127q37 -62 109 -62q192 0 356 279q148 248 148 456q0 109 -94 109q-132 0 -238 -152q-68 -94 -87.5 -210.5t-35.5 -231.5l-14 -10l-15 10q9 350 181 520
q114 113 241 113q86 0 135 -84q41 -70 41 -160q0 -227 -186 -444q-194 -225 -418 -225q-121 0 -198 100q-70 92 -70 215q0 156 84 336q78 168 192 289q213 223 582 331q90 27 103 27h8l6 -12z" />
    <glyph glyph-name="seven" unicode="7" horiz-adv-x="929" 
d="M1192 1163q-21 -18 -281 -239q-229 -197 -283 -256q-127 -150 -155 -340q-13 -109 -27 -219q-33 -129 -141 -129q-74 0 -74 112q0 211 279 510q108 117 452 416q-82 -23 -133 -23q-59 0 -113 62q-20 24 -77 114q-39 62 -62 62q-59 0 -90 -92q-23 -66 -23 -142
q0 -10 4.5 -31.5t4.5 -33.5q0 -21 -15 -19l-12 9q-14 30 -14 75q0 113 57 215q68 121 172 121q39 0 84 -69.5t90 -137.5q55 -71 119 -71q74 0 150.5 65.5l76.5 65.5l15 -17z" />
    <glyph glyph-name="eight" unicode="8" horiz-adv-x="929" 
d="M55 227q0 168 150 285q92 72 301 152q-62 135 -62 227q0 151 97.5 239.5t252.5 88.5q56 0 80 -13h21q49 0 88 -45t39 -96q0 -145 -109 -246q-80 -71 -242 -135q33 -76 64 -152q39 -98 39 -155q0 -164 -128 -280.5t-292 -116.5q-121 0 -205 63q-94 68 -94 184zM581 965
q0 -72 78 -252q139 43 227 127q105 100 105 229q0 33 -29.5 72t-60.5 37q65 -50 69 -123l-12 -13q-12 5 -30.5 48t-43.5 65q-38 35 -108 35q-90 0 -142.5 -66.5t-52.5 -158.5zM331 10q136 0 224 90t88 224q0 125 -125 311q-164 -51 -264 -160q-111 -121 -111 -280
q0 -84 53.5 -134.5t134.5 -50.5z" />
    <glyph glyph-name="nine" unicode="9" horiz-adv-x="929" 
d="M49 -59q295 108 526 368q224 248 324 557q16 52 16 105q0 219 -153 219q-191 0 -357 -285q-149 -256 -149 -463q0 -47 24.5 -81.5t71.5 -34.5q144 0 256 190q101 170 101 326q0 6 -3.5 18t-3.5 19q0 20 19 20q18 0 18 -53q0 -180 -108 -357q-123 -196 -293 -196
q-88 0 -137 82q-41 69 -41 164q0 252 162 458q172 222 419 222q140 0 215 -101q68 -92 68 -235q0 -353 -317 -641q-291 -265 -650 -320l-6 -2l-8 10z" />
    <glyph glyph-name="colon" unicode=":" horiz-adv-x="468" 
d="M407 471q0 -59 -45 -105.5t-106 -46.5q-45 0 -75 27t-30 70q0 59 46.5 105t105.5 46q104 0 104 -96zM262 137q0 -61 -46 -109t-108 -48q-102 0 -102 94q0 61 42 108t103 47q45 0 78 -24.5t33 -67.5z" />
    <glyph glyph-name="semicolon" unicode=";" horiz-adv-x="477" 
d="M389 498q0 -62 -42 -111t-101 -49q-113 0 -113 102q0 60 46.5 106t105.5 46q104 0 104 -94zM131 2l-2 2q-24 -4 -41 -4q-90 0 -90 76q0 61 51.5 114.5t112.5 53.5q94 0 94 -82q0 -86 -94 -205t-166 -121l-10 10q8 17 82 74q63 51 63 82z" />
    <glyph glyph-name="less" unicode="&#x3c;" horiz-adv-x="864" 
d="M268 588l584 -240v-117l-723 306v102l723 305v-117z" />
    <glyph glyph-name="equal" unicode="=" horiz-adv-x="1355" 
d="M1361 821v-96h-1159v96h1159zM1361 438v-90h-1155v90h1155z" />
    <glyph glyph-name="greater" unicode="&#x3e;" horiz-adv-x="864" 
d="M909 639v-102l-725 -306v117l586 240l-586 239v117z" />
    <glyph glyph-name="question" unicode="?" horiz-adv-x="1003" 
d="M464 143q0 -65 -45 -114t-110 -49q-111 0 -111 100q0 65 48 115.5t114 50.5q104 0 104 -103zM307 885q0 186 149 313q143 123 334 123q121 0 213 -55q106 -68 106 -181q0 -188 -182 -313l-340 -176q-182 -96 -182 -215q0 -23 16.5 -50.5t16.5 -33.5q0 -14 -21 -14
q-16 0 -35 41q-16 34 -16 53q0 121 149 223q140 92 279 184q149 131 149 320q0 84 -64.5 131t-150.5 47q-161 0 -276 -123t-115 -285q0 -55 29 -96q33 -47 86 -47q111 0 207 100.5t96 210.5q0 33 -21.5 57.5t-54.5 24.5q-67 0 -113 -71.5t-51 -71.5l-10 12q0 62 58.5 110
t119.5 48q43 0 73 -33t30 -76q0 -112 -103.5 -224.5t-216.5 -112.5q-159 0 -159 180z" />
    <glyph glyph-name="at" unicode="@" horiz-adv-x="1368" 
d="M446 344q0 162 88 287q98 141 252 141q57 0 98 -40t54 -97l32 115h115q-108 -388 -108 -441q0 -71 73 -71q119 0 185 112q55 92 55 223q0 203 -148 316q-133 102 -344 102q-241 0 -401 -164.5t-160 -408.5q0 -236 152.5 -377t392.5 -141q213 0 455 145l34 -51
q-241 -162 -507 -162q-265 0 -439 158q-182 162 -182 422q0 284 201 465q194 174 485 174q223 0 371 -121q157 -131 157 -350q0 -164 -79 -291q-95 -146 -250 -146q-127 0 -160 125q-86 -125 -217 -125q-90 0 -147.5 55.5t-57.5 145.5zM669 217q105 0 172 135q58 111 58 226
q0 43 -31 78.5t-72 35.5q-98 0 -168 -135q-57 -115 -57 -223q0 -45 27.5 -81t70.5 -36z" />
    <glyph glyph-name="A" unicode="A" horiz-adv-x="1599" 
d="M1064 457h244q150 366 201 463q110 213 305 407q-211 0 -369 -149q-121 -117 -225 -342q-78 -191 -156 -379zM786 461l235 -2q84 207 170 415q107 230 240 343q168 141 418 141h35q-148 -248 -420 -901h82l-17 -41h-82q-67 -156 -143 -367q12 -24 23 -24q63 0 158 159.5
t106 161.5l10 -12q-4 -21 -66 -117q-47 -74 -94 -147q-67 -90 -135 -90q-43 0 -70 47q-20 36 -20 84q0 92 76 305h-242q-29 -43 -59 -123q-23 -66 -47 -131q-115 -283 -187 -383q-143 -203 -350 -203q-168 0 -258 115q-82 102 -82 274q0 242 117 457q139 258 362 258
q96 0 166 -62.5t74 -156.5zM298 137q19 0 19 -18q0 -27 -14.5 -79t-14.5 -81q0 -55 36 -102t91 -47q144 0 244 237q72 170 92 365q-43 -2 -129 -2l16 53l105 -2q-2 80 -58.5 133t-136.5 53q-202 0 -331 -244q-107 -204 -107 -426q0 -364 295 -364q188 0 319 186
q52 76 172 353q64 143 107 264l-213 -2v-19q0 -176 -102 -381q-119 -239 -277 -239q-70 0 -115 56t-45 128q0 39 13 98q14 80 34 80z" />
    <glyph glyph-name="B" unicode="B" horiz-adv-x="2084" 
d="M1953 418q0 -180 -112 -307q-117 -134 -297 -134q-100 0 -163.5 51.5t-63.5 149.5q0 113 30 115l13 -10q2 -19 -6.5 -57t-8.5 -54q0 -76 53 -117q48 -39 125 -39q138 0 226 164q71 137 71 287q0 123 -73 162q-50 24 -185 24l-4 17l10 12q17 2 50 2q141 0 225 98
q76 90 76 236q0 162 -99 248q-94 80 -258 80q-235 0 -420 -97q-227 -121 -227 -331q0 -62 35 -109q37 -53 98 -53q72 0 111 69q29 58 29 138q0 75 -50 165q0 17 13 17q-4 0 10 -2q55 -66 55 -189q0 -92 -39 -151q-45 -72 -133 -72q-67 0 -113.5 53.5t-46.5 122.5
q0 234 238 363q195 104 453 104q196 0 319 -76q150 -90 150 -274q0 -293 -267 -358l-2 -7q103 -24 140.5 -78.5t37.5 -162.5zM98 274q0 187 147 287q127 86 324 86q150 0 254 -53q133 -70 133 -203q0 -139 -113 -223q-102 -76 -247 -76q-105 0 -187 47q-98 58 -98 156
q0 86 43 88l12 -14q-22 -29 -22 -72q0 -90 94 -137q72 -35 172 -35q129 0 217 68q96 71 96 196q0 123 -118 184q-93 48 -228 48q-184 0 -303 -76q-139 -90 -139 -260t153 -262q127 -76 308 -76q227 0 362 100q109 82 191 260q71 176 141 355q68 161 172 305q143 200 260 194
l12 -6l-2 -2q-112 -68 -166 -190q-100 -242 -202 -484q-127 -266 -281 -397q-194 -166 -481 -166q-193 0 -334 80q-170 98 -170 278z" />
    <glyph glyph-name="C" unicode="C" horiz-adv-x="1574" 
d="M1526 1333q-221 0 -439 -336q-188 -288 -225 -544q322 34 516 227q103 102 178 238q91 157 91 278q0 51 -36 94t-85 43zM932 1231l12 -10q0 -17 -16 -17l-4 2q-125 35 -301 35q-175 0 -308 -88q-151 -100 -151 -266q0 -195 174 -320q149 -104 358 -123q56 287 277 592
q256 353 510 353q84 0 139 -50.5t55 -132.5v-35q0 -143 -125 -329q-112 -168 -245 -262q-189 -134 -455 -158q-14 -70 -14 -148q0 -256 196 -256q144 0 262 134q88 122 179 247l6 9q18 0 18 -13l-2 -8q-37 -145 -180 -274q-150 -136 -295 -136q-162 0 -250 129
q-78 113 -78 277v33q-243 26 -389 129q-176 127 -176 352q0 174 174 281q148 90 334 90q188 0 295 -37z" />
    <glyph glyph-name="D" unicode="D" horiz-adv-x="1798" 
d="M675 563q205 0 332 246q106 205 106 430q0 66 -10 111q-260 -39 -436 -174q-207 -162 -207 -404q0 -88 62.5 -148.5t152.5 -60.5zM1677 1001q0 66 -32 133.5t-83 104.5q-51 -51 -107 -168q-112 -262 -227 -522q-141 -305 -317 -467q108 -62 219 -62q37 0 67 11
q88 30 164 145q41 62 105 201q211 463 211 624zM63 199q0 -99 166 -162q133 -51 254 -51q182 0 327 104q-237 121 -291 146q-202 90 -299 90q-157 0 -157 -127zM392 1157q-16 0 -16 12q0 148 138.5 281t285.5 133q236 0 326 -205h41q202 0 368 -80q195 160 221 160
q23 0 25 -18q-80 -64 -197 -172q201 -156 201 -367q0 -272 -178 -575q-201 -344 -455 -344q-59 0 -141 28q-133 43 -137 45q-178 -100 -383 -100q-146 0 -283 55q-176 72 -176 193q0 73 51 112t129 39q119 0 316 -88q34 -14 301 -149q116 157 233 399q96 211 193 422
q77 164 256 340q-162 72 -338 72h-43q14 -60 14 -133q0 -234 -119 -439q-139 -241 -356 -241q-109 0 -174 77q-64 72 -64 183q0 225 222 401q204 162 442 174q-33 84 -114 134t-173 50q-158 0 -268 -118q-96 -105 -133 -269z" />
    <glyph glyph-name="E" unicode="E" horiz-adv-x="1204" 
d="M1101 1210q0 86 -41 138q-71 -41 -131 -129q-63 -95 -63 -170q0 -35 22.5 -64t55.5 -29q69 0 118 97q39 80 39 157zM636 815q3 -31 86 -57q74 -23 117 -23q47 0 47 33q0 55 -186 55q-33 0 -61 -6zM596 801q-144 -6 -254 -191q-99 -164 -99 -315q0 -287 361 -287
q186 0 311 70q156 86 156 256q0 106 -113 168q-92 49 -209 49q-145 0 -278 -78q-15 10 -15 21q0 26 129 57q113 27 162 27q139 0 238 -56q118 -67 118 -196q0 -179 -174 -271q-139 -73 -336 -73q-204 0 -335 88q-154 104 -154 297q0 208 127 323q102 92 326 144
q-60 102 -60 208q0 160 135 269q127 102 289 102q66 0 148 -31q55 19 114 19h23l12 -12q-2 -11 -59 -19q-68 -10 -72 -12q41 -64 41 -141q0 -97 -45 -185q-55 -104 -143 -104q-41 0 -73 36.5t-32 79.5q0 103 62 187q38 51 145 137q-29 12 -76 12q-131 0 -248 -161
q-106 -150 -106 -285q0 -49 20 -88q17 0 50 2h51q186 0 186 -78q0 -61 -82 -61q-121 0 -241 92z" />
    <glyph glyph-name="F" unicode="F" horiz-adv-x="1421" 
d="M1601 1255l13 -6q-56 -73 -152 -231q39 -27 119 -51l-33 -52q-39 9 -117 29l-174 -399q47 -17 115 -64l-47 -94q-64 35 -105 49q-192 -413 -288 -553q-226 -325 -486 -325q-323 0 -323 360q0 232 123 451q143 256 356 256q86 0 164 -50q90 37 186 37q68 0 172 -22
l199 401q-330 207 -406 248q-260 137 -438 137q-151 0 -244 -61q-108 -74 -108 -217q0 -156 201 -236q147 -57 333 -57q150 0 369 51l14 -10q-2 -37 -192 -55q-121 -13 -236 -13q-184 0 -336 72q-190 88 -190 250q0 172 164 272q137 84 323 84q201 0 428 -133
q52 -31 373 -260q39 51 105 113q82 77 118 79zM448 -418q174 0 304 160q86 106 167 315l168 428q-96 66 -223 66q-35 0 -72 -6q48 -64 48 -197q0 -176 -107 -362q-121 -213 -285 -213q-77 0 -120 63q-37 55 -37 137q0 166 141 344q127 158 293 244q-55 33 -131 33
q-185 0 -320 -256q-116 -219 -116 -424q0 -332 290 -332zM756 535h-4q-19 0 -78 -39q-148 -99 -240 -232q-106 -151 -106 -309q0 -59 30 -102q35 -50 92 -50q148 0 258 211q95 183 95 346q0 109 -47 175z" />
    <glyph glyph-name="G" unicode="G" horiz-adv-x="1306" 
d="M1126 1282l-4 -10q-119 -115 -198 -248q-97 -164 -97 -299q0 -49 26 -88t75 -39q157 0 329 250q160 233 160 401q0 86 -63 135q-58 43 -148 43q-221 0 -395 -260q-158 -235 -158 -467q0 -114 62.5 -190t175.5 -76q133 0 282 115q74 61 148 121l10 -15q-41 -47 -110 -143
q-80 -160 -158 -319q-92 -168 -199 -246q-137 -99 -350 -99q-166 0 -299 60q-170 78 -170 223q0 64 25 107q-13 45 -13 73q0 121 105 185q86 53 219 53h26l15 -14q-2 -9 -90 -21q-105 -14 -158 -45q-84 -49 -84 -147q0 -23 8 -64q121 96 314 96q118 0 206 -37
q119 -51 119 -151q0 -172 -274 -172q-252 0 -373 209q-14 -19 -14 -72q0 -125 151 -194q121 -54 262 -54q236 0 367 164q82 105 172 379q-92 -31 -168 -31q-160 0 -256 123q-90 113 -90 277q0 262 206 461.5t470 199.5q108 0 176 -47q76 -55 76 -160q0 -184 -164 -424
q-176 -256 -352 -256q-62 0 -96.5 49.5t-34.5 112.5q0 115 104 309.5t201 249.5q4 2 12 4zM707 162q0 88 -107 131q-78 31 -184 31q-215 0 -308 -95q119 -211 355 -211q88 0 155 29q89 39 89 115z" />
    <glyph glyph-name="H" unicode="H" horiz-adv-x="1884" 
d="M1107 653q129 37 256 97q363 663 576 663q84 0 84 -74q0 -131 -176 -323q-168 -185 -301 -225q-189 -424 -189 -615q0 -53 27 -92q30 -47 82 -47q123 0 213 137q82 123 82 252q0 43 -25 76t-68 33q-102 0 -145 -125q-29 -88 -25 -213l-12 -13q-29 2 -29 70q0 121 48 205
q57 106 168 106q57 0 92 -43t35 -100q0 -150 -95 -279q-102 -143 -248 -143q-96 0 -147 90q-41 72 -41 174q0 228 76 438q-96 -49 -252 -90q-148 -284 -272 -424q-201 -223 -435 -223q-71 0 -118 33q-58 39 -58 106q0 172 297 332q156 84 453 182q131 361 317 697
q-170 -80 -399 -107q-152 -16 -305 -30q-193 -31 -291 -101q-131 -90 -131 -262q0 -110 88 -184q82 -68 194 -68q197 0 350.5 163t153.5 359q0 19 19 19q12 0 12 -41q0 -215 -166 -374t-383 -159q-125 0 -215 81t-90 204q0 92 41 166q65 119 199 174q98 41 264 59
q135 13 270 27q178 29 608 193q-264 -445 -389 -781zM243 109q0 -111 147 -111q201 0 363 197q131 159 197 383q-244 -78 -420 -172q-287 -152 -287 -297zM1566 836q119 59 264 215q162 174 162 280q0 49 -55 49q-105 0 -228 -223q-77 -137 -143 -321z" />
    <glyph glyph-name="I" unicode="I" horiz-adv-x="1374" 
d="M1270 1333q-74 0 -164 -141q-139 -217 -139 -504q0 -205 73 -346q95 158 199 434q119 311 119 451q0 106 -88 106zM1298 1370q78 0 123 -94q35 -74 35 -162q0 -192 -117 -467q-106 -252 -241 -424q14 -20 149 -200l-6 -11l-14 -6l-8 4q-68 64 -146 185
q-96 -138 -285 -213q-167 -68 -352 -68q-174 0 -311 76q-168 92 -168 252q0 176 176 274q146 80 338 80q129 0 219 -53q109 -66 109 -185q0 -127 -135 -196q-111 -58 -252 -58q-56 0 -162 29q-125 33 -125 66q0 2 3 12t3 12q127 -88 295 -88q129 0 221 51q115 64 115 181
q0 106 -107 157q-80 41 -198 41q-174 0 -305 -73q-160 -91 -160 -250q0 -136 147 -219q125 -74 271 -74q358 0 606 358q-86 176 -86 379q0 199 90 416q111 268 278 268z" />
    <glyph glyph-name="J" unicode="J" horiz-adv-x="1320" 
d="M331 -422q201 0 410 299q158 223 321 621q103 266 203 530q55 143 55 211q0 49 -31.5 94t-80.5 45q-162 0 -234 -305q-43 -190 -43 -438q0 -6 -20 -12l-8 6q-9 47 -9 108q0 211 68 408q92 266 260 266q84 0 131 -113q37 -86 37 -182q0 -168 -96 -442q-76 -215 -182 -426
q-150 -299 -277 -441q-190 -215 -444 -251q-27 -5 -64 -5q-305 0 -305 318q0 190 143 381q154 203 340 203q99 0 162.5 -61.5t63.5 -160.5q0 -168 -119 -344q-133 -192 -293 -192q-70 0 -113 52t-43 122q0 154 178 352l9 4l16 -16q-18 -25 -45 -57q-125 -162 -125 -283
q0 -59 34 -103.5t91 -44.5q143 0 266 189q113 172 113 321q0 91 -53.5 144t-141.5 53q-174 0 -319 -192q-135 -183 -135 -361q0 -297 280 -297z" />
    <glyph glyph-name="K" unicode="K" horiz-adv-x="1771" 
d="M547 791q-189 0 -312 -183q-108 -159 -108 -356q0 -160 90 -249t250 -89q254 0 415 362l330 740q62 137 62 219q0 57 -38 91t-96 34q-210 0 -378 -375q-9 -20 -21 -20q-10 0 -10 12v6q49 154 156 268q124 135 268 135q104 0 159.5 -64.5t55.5 -170.5q0 -186 -178 -588
q129 33 201.5 90.5t136.5 175.5q71 160 143 318q109 207 242 207q127 0 127 -113q0 -55 -58 -211q-63 -168 -102 -170l-14 14q4 19 81 158q64 117 64 211q0 80 -68 80q-61 0 -131 -145q-43 -103 -84 -203q-94 -230 -151 -291q-82 -88 -295 -139q69 -43 100 -178
q19 -111 36 -222.5t56 -111.5q47 0 103 104q37 70 61 148l17 8l12 -19q2 -84 -81 -182t-167 -98q-98 0 -149 207q-23 145 -48 288q-10 54 -45 50q-315 -652 -704 -652q-180 0 -279.5 93.5t-99.5 271.5q0 209 117 375q131 186 332 186q131 0 208.5 -79t77.5 -208
q0 -166 -94 -307q-106 -158 -266 -158q-86 0 -143.5 54.5t-57.5 140.5q0 45 33 152q37 120 67 120q17 0 17 -14q0 4 -42 -89t-42 -161q0 -82 48 -129t128 -47q145 0 240 154q82 135 82 288q0 115 -70 188t-184 73z" />
    <glyph glyph-name="L" unicode="L" horiz-adv-x="1982" 
d="M1791 1393q-174 0 -315 -297q-64 -127 -162 -451q213 8 387 200.5t174 405.5q0 142 -84 142zM61 215q0 -102 135 -152q96 -36 221 -36q281 0 483 127q-169 59 -342 118q-229 74 -342 74q-155 0 -155 -131zM1601 432q-35 0 -100.5 -11t-98.5 -11q-14 0 -14 12q0 39 213 39
q98 0 178 -47q94 -54 94 -146q0 -141 -112 -219q-101 -67 -248 -67q-119 0 -289 57q-141 49 -280 100q-211 -147 -521 -147q-147 0 -252 43q-145 57 -145 182q0 107 102 164q82 45 199 45q121 0 336 -64q51 -14 334 -108q129 170 184 350q-209 0 -379 68q-227 90 -227 264
q0 301 498 301h40q27 -2 39 -2l11 -14q-7 -19 -158 -19q-162 0 -262 -55q-127 -72 -127 -219q0 -144 194 -230q160 -69 320 -63l61 2q99 328 191 491q166 297 391 297q137 0 137 -178q0 -235 -182 -427.5t-420 -203.5q-39 -118 -104 -206q-48 -64 -160 -170
q135 -56 272 -111q183 -70 277 -70q100 0 168 54q75 57 75 155q0 82 -79 127q-68 37 -156 37z" />
    <glyph glyph-name="M" unicode="M" horiz-adv-x="1728" 
d="M639 -2l-148 2q127 272 256 545q168 387 168 542q0 105 -61.5 163.5t-165.5 58.5q-227 0 -420 -281q-176 -258 -176 -498q0 -92 43 -147q47 -64 137 -64q172 0 338 287q150 258 150 445q0 45 -29 85t-72 40q-61 0 -131 -60q-33 -31 -102 -112q-52 -62 -70 -62l-8 8v4
q149 248 328 248q53 0 88 -55q30 -47 30 -103q0 -198 -157 -462q-176 -293 -361 -293q-221 0 -221 250q0 260 193 520q206 280 456 280q142 0 233 -84t91 -225q0 -139 -96 -356l6 -4q102 166 202 334q160 239 252 239q37 0 60.5 -26.5t23.5 -63.5q0 -143 -188 -563l8 -4
l260 426q80 131 92 147q68 84 142 84q39 0 62.5 -29.5t23.5 -68.5q0 -109 -80 -289l-324 -731q-12 -29 -12 -51q0 -31 25 -31q49 0 129.5 136t82.5 136q13 0 13 -12q0 -53 -96.5 -178t-145.5 -125q-47 0 -77.5 36t-30.5 83q0 78 65 231l336 783q12 20 25 63l-21 12
q-59 6 -373 -536q-192 -332 -370 -672h-154q141 315 283 633q237 534 237 555q0 20 -20 20q-137 0 -729 -1210z" />
    <glyph glyph-name="N" unicode="N" horiz-adv-x="1517" 
d="M646 0l324 719q100 223 100 366q0 107 -62.5 165.5t-170.5 58.5q-224 0 -414 -279q-176 -256 -176 -489q0 -84 39 -146q43 -71 123 -71q184 0 354 280q152 254 152 453q0 43 -29 82t-70 39q-110 0 -278 -224q-4 -18 -21 -14l-14 14q55 95 131 164q96 86 184 86
q60 0 95.5 -48t35.5 -109q0 -203 -159 -467q-177 -291 -365 -291q-215 0 -215 246q0 260 190 522q205 282 457 282q148 0 237 -86t89 -231q0 -115 -58 -266q209 338 342 338q43 0 68 -41q23 -33 23 -78q0 -129 -111 -414q-43 -106 -207 -479q-110 -254 -110 -303
q0 -37 32 -37q52 0 107 92q31 55 78 176q37 96 47 101l12 -11v-8q0 -82 -90 -229q-98 -156 -174 -156q-47 0 -80 45q-31 39 -31 88q0 107 223.5 622t223.5 574q0 27 -23 27q-63 0 -196 -172q-101 -133 -156 -238q-94 -180 -307 -653h-150z" />
    <glyph glyph-name="O" unicode="O" horiz-adv-x="1392" 
d="M1433 971q0 -348 -229 -656q-250 -333 -588 -333q-217 0 -345 129t-128 346q0 221 174 411q170 185 393 219q199 277 396 277q157 0 247 -121q80 -108 80 -272zM1310 1085q0 105 -62.5 172.5t-164.5 67.5q-92 0 -190 -80q-84 -67 -142 -160q33 0 90 -10q70 -10 70 -24
q0 -15 -18 -17q-15 -2 -39 0q-33 4 -35 4q-43 0 -98 -10q-89 -82 -158 -272q-58 -158 -78 -310l-4 -40q-6 -29 -25 -31l-12 8q6 334 221 631q-157 -62 -267 -233t-110 -343q0 -170 80 -288q94 -136 258 -136q189 0 336 189q119 151 230 422q118 288 118 460z" />
    <glyph glyph-name="P" unicode="P" horiz-adv-x="1583" 
d="M1523 1352q197 -160 197 -404q0 -203 -129 -377q-141 -188 -338 -188q-39 0 -100 16q-76 21 -76 45q0 13 14 13q17 0 63 -18.5t66 -18.5q174 0 279 227q84 182 84 381q0 168 -113 279q-137 -138 -303 -557q-193 -494 -291 -644q-197 -309 -475 -309q-158 0 -249 94.5
t-91 249.5q0 199 133 398q148 221 338 221q219 0 219 -225q0 -160 -100 -326q-113 -186 -262 -186q-62 0 -99 51q-30 45 -30 108q0 90 67 224q72 141 144 153q16 0 16 -12q-2 -8 -4 -10q-184 -146 -184 -357q0 -49 24 -86q29 -43 74 -43q129 0 231 191q90 166 90 309
q0 84 -50 132t-136 48q-178 0 -313 -215q-121 -190 -121 -379q0 -139 82 -224t219 -85q162 0 278 156q62 79 156 295l320 725q75 172 280 331q-88 60 -217 60q-186 0 -322.5 -126t-136.5 -308q0 -138 90 -138q76 0 117 95q31 73 31 161q0 21 -7 61t-7 58q0 2 2 6v6l14 4
l14 -4q15 -57 15 -127q0 -114 -39 -190q-49 -98 -154 -98q-55 0 -84 57q-24 45 -24 104q0 203 155 340q150 129 357 129q116 0 245 -51q37 23 105 49l8 -14z" />
    <glyph glyph-name="Q" unicode="Q" horiz-adv-x="1351" 
d="M1113 -68q148 0 148 97q0 51 -74 80q-55 20 -119 20q-30 0 -91.5 -9t-94.5 -9q-12 0 -12 16q0 27 190 27q80 0 143 -25q86 -35 86 -102q0 -78 -100 -119q-76 -31 -170 -31q-123 0 -313.5 84t-192.5 84q-6 0 -107.5 -27.5t-160.5 -27.5q-70 0 -133 30q-80 37 -80 99
q0 121 184 121q80 0 187 -31q90 -29 180 -57q506 522 506 966q0 119 -53 193q-62 84 -177 84q-219 0 -397 -305q-158 -273 -158 -508q0 -80 41 -140q47 -65 125 -65q152 0 318 303q151 276 151 446q0 45 -28.5 80t-73.5 35q-60 0 -127.5 -65.5t-69.5 -65.5l-14 12l2 8
q115 136 219 136q55 0 89 -46t34 -102q0 -178 -158 -459q-172 -309 -331 -309q-103 0 -158 72q-51 63 -51 168q0 264 174 534q192 303 442 303q166 0 265.5 -109.5t99.5 -275.5q0 -243 -205 -518q-158 -213 -406 -403q191 -105 228 -121q145 -68 243 -68zM65 129
q0 -57 76 -86q55 -20 124 -20q113 0 205 45q-217 120 -321 120q-84 0 -84 -59z" />
    <glyph glyph-name="R" unicode="R" horiz-adv-x="2023" 
d="M1831 123q43 0 90 147l10 4l8 -14q-14 -78 -65 -162q-64 -102 -127 -102q-47 0 -142 254q-88 242 -88 313q0 17 11.5 21t31.5 2q27 -4 29 -4q162 0 250 143q76 121 76 291q0 180 -138 268q-114 72 -307 72q-207 0 -393 -129q-205 -144 -205 -340q0 -49 28.5 -90t76.5 -41
q84 0 129 71q34 62 34 152q0 22 -6 57q-8 43 -10 58l6 14l10 2l15 -6q20 -68 20 -146q0 -84 -47 -153q-51 -80 -133 -80q-70 0 -112 42t-42 114q0 221 230 376q205 140 438 140q221 0 365 -82q176 -103 176 -305q0 -185 -99 -310q-102 -131 -282 -163q10 -74 63 -228
q62 -186 99 -186zM1726 1159q-178 -88 -299 -426q-155 -432 -242 -547q-204 -272 -620 -272q-203 0 -340 80q-170 96 -170 285q0 184 168 280q137 78 340 78q149 0 258 -49q141 -66 141 -197t-123 -203q-104 -59 -245 -59q-88 0 -185 39q-121 47 -131 119l17 12q8 0 16 -12
q92 -131 276 -131q132 0 226 53q114 65 114 186q0 213 -368 213q-189 0 -314 -69q-155 -88 -155 -260q0 -177 153 -267q125 -71 316 -71q86 0 162 14q211 39 305 164q41 55 149 317q131 320 205 443q164 274 346 299v-19z" />
    <glyph glyph-name="S" unicode="S" horiz-adv-x="1333" 
d="M1111 983l9 -10q4 -23 -17 -23l-4 2q-278 105 -455 105q-157 0 -264 -47q-145 -64 -145 -199q0 -129 106 -188q191 276 404 276q108 0 168 -82q51 -72 51 -180q0 -31 -4 -62q178 54 198 76q15 17 76 174q76 195 78 199q207 469 434 469q76 0 76 -88q0 -127 -125 -315
q-96 -144 -225 -269q-51 -41 -150 -127q-137 -346 -143 -358q-96 -209 -211 -316q-147 -135 -352 -135q-180 0 -280.5 100.5t-100.5 280.5q0 150 92 328q-127 74 -127 211q0 153 154 227q114 53 288 53q258 0 469 -102zM1793 1403q0 59 -41 59q-86 0 -229 -299
q-86 -196 -170 -393q119 68 277 283q163 227 163 350zM929 567q6 31 6 60q0 102 -45 170q-53 77 -151 77q-101 0 -213 -90q-95 -77 -158 -178q151 -78 301 -78q152 0 260 39zM401 291q0 49 20 49q17 0 17 -71.5t30 -123.5q37 -61 103 -61q116 0 235 172q107 154 121 281
q-156 -39 -252 -39q-74 0 -197.5 38.5t-121.5 38.5q-27 0 -60 -141q-28 -125 -28 -174q0 -154 91 -250t244 -96q175 0 287 149q53 70 156 302q47 104 94 241q-84 -39 -180 -61q-29 -160 -133 -312q-123 -180 -265 -180q-83 0 -126 82q-35 66 -35 156z" />
    <glyph glyph-name="T" unicode="T" horiz-adv-x="1783" 
d="M2072 1298l14 -20q-45 -51 -92 -100q-47 -58 -74 -117q45 -29 119 -41l-19 -45q-45 -2 -122 22q-162 -434 -344 -813q-283 -587 -611 -587q-164 0 -253 102t-89 268q0 215 137 441q154 256 357 256q100 0 163.5 -58.5t63.5 -159.5q0 -170 -113 -395q-129 -260 -280 -260
q-68 0 -111 50t-43 118q0 39 17 127q20 102 39 102q20 0 20 -24q0 -33 -21.5 -101.5t-21.5 -105.5q0 -55 31 -94q33 -45 86 -45q139 0 260 254q104 221 104 381q0 82 -52 134t-134 52q-193 0 -340 -246q-131 -217 -131 -422q0 -147 76 -239q82 -103 225 -103q252 0 432 426
q96 252 307 750q39 86 125 229l-418 242q-270 143 -446 143q-143 0 -242 -71q-108 -80 -108 -218q0 -159 213 -235q147 -53 348 -53q172 0 338 45h8l12 -8q-2 -64 -415 -64q-195 0 -342 68q-195 86 -195 256q0 166 160 264q139 86 317 86q193 0 430 -133q105 -58 381 -256
q86 131 234 198z" />
    <glyph glyph-name="U" unicode="U" horiz-adv-x="1658" 
d="M1337 72q0 -37 25 -37q74 0 149 137q49 100 99 203l8 4l16 -12q-2 -72 -104 -215q-109 -150 -174 -150q-52 0 -80 66q-23 49 -23 108q0 105 66 289q-129 -234 -166 -289q-135 -201 -229 -201q-46 0 -77.5 49.5t-31.5 96.5q0 137 138 439t138 468q0 125 -57 199
q-63 82 -186 82q-226 0 -396 -244q-157 -223 -157 -457q0 -92 39 -157q49 -78 137 -78q184 0 326 231q124 205 124 404q0 45 -24.5 83.5t-67.5 38.5q-223 0 -342 -442q-8 -26 -18 -26l-14 10q2 149 112 311q123 176 266 176q58 0 93 -47q28 -43 28 -102q0 -207 -131 -424
q-149 -246 -342 -246q-110 0 -168 80q-51 69 -51 184q0 256 170 486q184 251 430 251q160 0 262.5 -102t102.5 -260q0 -137 -82 -340q-11 -27 -156 -334q-82 -176 -82 -250q0 -41 37 -41q100 0 383 518q190 347 328 652l151 16q-133 -293 -264 -586q-205 -467 -205 -542z
" />
    <glyph glyph-name="V" unicode="V" horiz-adv-x="1402" 
d="M194 553q0 289 213 539q221 260 506 260q133 0 217 -75t84 -206q0 -143 -90 -362q-84 -183 -168 -365q-90 -197 -90 -285q0 -45 45 -45h12q117 0 322 377q192 354 194 481l-6 13q-16 -4 -22 -4q-33 0 -58 41q-20 32 -20 69q0 56 22 103q29 59 80 59q37 0 59 -45
q19 -37 19 -78q0 -115 -105 -371q-108 -266 -239 -456q-158 -223 -277 -223q-57 0 -90 38.5t-33 94.5q0 166 157 480t157 484q0 103 -72 170.5t-174 67.5q-233 0 -430 -266q-182 -248 -182 -490q0 -88 43 -145q49 -66 135 -66q184 0 356 268q160 244 160 441q0 88 -74 88
q-166 0 -303 -209q-94 -148 -155 -358l-17 -11l-14 8q59 211 166 373q145 221 311 221q117 0 117 -112q0 -215 -160 -463q-176 -272 -379 -272q-102 0 -160 67q-57 62 -57 164z" />
    <glyph glyph-name="W" unicode="W" horiz-adv-x="1820" 
d="M1124 8q0 109 72 287q63 137 125 276q-186 -260 -242 -327q-194 -244 -278 -244q-39 0 -63.5 30.5t-24.5 69.5q0 129 179 478.5t179 494.5q0 101 -77 171.5t-179 70.5q-231 0 -428 -266q-184 -248 -184 -488q0 -86 43 -147q49 -68 133 -68q186 0 362 272q160 248 160 443
q0 84 -74 84q-299 0 -463 -567l-16 -11l-10 8q29 193 153 379q146 220 318 220q123 0 123 -115q0 -207 -166 -461q-180 -276 -377 -276q-94 0 -154.5 60t-60.5 155q0 294 205 546q215 269 504 269q131 0 221 -74q96 -80 96 -209q0 -139 -98 -358q-13 -25 -187 -361
q-98 -192 -98 -268q0 -31 27 -31q47 0 258 281q174 227 246 348q92 151 194 375l127 -41q-119 -273 -358 -817q-84 -191 -84 -258q0 -37 32 -37q123 0 349 405q172 314 247 537q-18 -10 -43 -10q-36 0 -61 40q-21 35 -21 74q0 56 25 105q29 59 78 59q39 0 61 -49
q17 -39 17 -84q0 -115 -121 -389q-125 -281 -273 -488q-169 -239 -280 -239q-49 0 -84 49q-29 43 -29 96z" />
    <glyph glyph-name="X" unicode="X" horiz-adv-x="1896" 
d="M2171 1149q0 -139 -113 -301q-121 -174 -254 -174q-59 0 -99 37t-40 96q0 65 63 192q68 136 121 152q19 0 19 -14q0 -2 -85 -119t-85 -209q0 -43 29.5 -76t72.5 -33q125 0 238 168q100 152 100 283q0 70 -46 120t-116 50q-155 0 -311 -207q-78 -104 -201 -344
q0 -35 -6 -104h104l11 -35h-115q-8 -82 -8 -182q0 -175 6 -232q16 -176 82 -176q51 0 113 102q28 47 96 191q47 104 63 104l11 -16v-4q-144 -416 -306 -416q-129 0 -170 205q-20 98 -20 303q-268 -516 -737 -516q-193 0 -330 82q-166 98 -166 276q0 187 170 273
q131 67 338 67q154 0 254 -45q137 -61 137 -194q0 -138 -131 -211q-106 -62 -258 -62q-49 0 -135 17q-105 18 -119 41q-2 16 18 16q13 0 103 -24.5t139 -24.5q139 0 238 59q114 70 114 199q0 199 -370 199q-467 0 -467 -316q0 -162 155 -252q129 -74 303 -74q152 0 267 48
q157 65 309 229q166 182 166 334h-127v35h131v219q0 194 -18 274q-41 168 -175 168q-147 0 -247 -141q-93 -127 -93 -279q0 -61 33 -112q37 -60 94 -60q111 0 166 107q45 84 45 205q0 20 -6 58t-6 56q0 19 16 19q29 0 29 -125q0 -121 -47 -219q-61 -125 -172 -125
q-184 0 -184 198q0 172 108 308q117 143 285 143q145 0 217 -86q53 -68 72 -203q8 -119 16 -235q121 229 197 323q149 189 307 189q90 0 148.5 -54.5t58.5 -144.5z" />
    <glyph glyph-name="Y" unicode="Y" horiz-adv-x="1556" 
d="M1624 1145h133q-125 -293 -377 -875q-131 -299 -295 -446q-203 -184 -494 -184q-137 0 -231 43q-129 57 -129 176q0 276 434 276q66 0 148 -10q112 -14 123 -39l-7 -12l-10 -2q-141 32 -260 32q-395 0 -395 -241q0 -103 112 -154q86 -41 201 -41q258 0 402 137
q108 103 217 365l243 590l-233 -330q-84 -119 -117 -154q-86 -98 -151 -98q-45 0 -78 53q-29 48 -29 95q0 102 126 357t126 392q0 99 -69.5 160t-168.5 61q-194 0 -354 -247q-145 -224 -145 -428q0 -191 161 -191q164 0 285 209q107 182 107 358q0 111 -82 111
q-119 0 -191 -115q-45 -69 -86 -215q-33 -116 -49 -119l-12 13q26 164 92 289q90 172 223 172q135 0 135 -140q0 -186 -116 -377q-131 -215 -308 -215q-94 0 -143 64q-47 57 -47 156q0 256 166 473q178 233 428 233q125 0 213 -65q98 -72 98 -193q0 -119 -76 -299
q-4 -12 -137 -299q-76 -158 -76 -225q0 -33 19 -33q94 0 362 408q179 274 312 524z" />
    <glyph glyph-name="Z" unicode="Z" horiz-adv-x="1871" 
d="M1407 545q63 -23 98 -23q29 0 77 15.5t71 15.5l14 -14q-27 -45 -158 -45q-55 0 -123 24q-338 -276 -594 -434q93 -10 342 -78q215 -57 342 -57q93 0 156 31q82 38 82 120q0 111 -223 111q-33 0 -100.5 -10.5t-102.5 -10.5q-33 0 -33 19q0 6 21 12q135 21 205 21
q264 0 264 -142q0 -180 -260 -180q-131 0 -385 66.5t-387 66.5q-109 0 -232 -24q-113 -23 -96 -23h-14l-11 17q4 18 146 47q180 36 266 84q72 41 215 176q86 78 250 239q-2 0 -8 2t-11 2q-49 0 -112.5 -26.5t-91.5 -28.5l-11 6l-4 11q21 32 121 53q76 14 139 14
q254 281 496 402q-133 16 -320 98q-315 141 -319 143q-190 72 -362 72q-170 0 -283 -72q-133 -86 -133 -246q0 -155 168 -233q129 -59 307 -59q346 0 346 256q0 104 -133 159q-103 41 -225 41q-101 0 -172 -30q-99 -43 -99 -127q0 -93 133 -121q35 -6 205 -15l15 -12
q-5 -18 -54 -18q-114 0 -205 28q-126 43 -126 133q0 103 106 152q82 39 199 39q141 0 250 -51q139 -66 139 -189q0 -272 -393 -272q-183 0 -320 68q-174 88 -174 251q0 172 145 267q123 80 308 80q180 0 395 -84q174 -76 348 -154q190 -84 307 -84q49 0 117 14l14 -16
q-131 -57 -286 -211q-29 -29 -246 -266z" />
    <glyph glyph-name="bracketleft" unicode="[" horiz-adv-x="686" 
d="M581 1370h-147v-1479h147v-65h-274v1610h274v-66z" />
    <glyph glyph-name="backslash" unicode="\" horiz-adv-x="960" 
d="M841 -2l-590 1436h74l592 -1436h-76z" />
    <glyph glyph-name="bracketright" unicode="]" horiz-adv-x="686" 
d="M515 1436v-1610h-274v65h147v1479h-147v66h274z" />
    <glyph glyph-name="asciicircum" unicode="^" horiz-adv-x="593" 
d="M477 928q49 -180 111 -248l-13 -10q-67 49 -122 155q-115 -106 -236 -149v8q190 156 242 244h18z" />
    <glyph glyph-name="underscore" unicode="_" horiz-adv-x="858" 
d="M-110 -246v62h889v-62h-889z" />
    <glyph glyph-name="grave" unicode="`" horiz-adv-x="567" 
d="M544 670q-68 32 -133 90q-82 71 -82 127q0 47 41 47q29 0 51 -64q29 -88 31 -90q14 -20 102 -98z" />
    <glyph glyph-name="a" unicode="a" 
d="M86 53q0 -28 21 -28q55 0 176 200q117 195 117 262q0 43 -37 43q-78 0 -180 -200q-97 -185 -97 -277zM365 27q37 0 100.5 105.5t67.5 107.5l10 -11q0 -53 -79 -144t-132 -91q-26 0 -50 17.5t-24 43.5q0 64 45 168v0q-47 -67 -92 -135q-73 -94 -116 -94q-48 0 -79.5 40
t-31.5 89q0 127 111 274q116 156 239 156q78 0 86 -45l19 39h108q-55 -133 -110 -268q-93 -226 -93 -234q0 -18 21 -18z" />
    <glyph glyph-name="b" unicode="b" horiz-adv-x="569" 
d="M96 66q0 -19 19.5 -31t39.5 -12q59 0 176 202q113 195 113 267q0 28 -27 28q-63 0 -192 -191.5t-129 -262.5zM522 467q0 -143 -105 -301q-117 -172 -254 -172t-137 127q0 57 59 198l330 789h113l-291 -709q113 154 203 154q37 0 59.5 -24.5t22.5 -61.5z" />
    <glyph glyph-name="c" unicode="c" horiz-adv-x="509" 
d="M121 121q0 -35 14 -66q18 -39 49 -39q62 0 105 88q30 68 61 136q18 0 18 -11q0 -71 -63.5 -153t-130.5 -82q-74 0 -120 39t-46 112q0 131 108.5 269.5t237.5 138.5q105 0 105 -96q0 -97 -84 -97q-27 0 -49.5 20.5t-22.5 47.5q0 47 45 96q-66 -10 -150 -174
q-77 -151 -77 -229z" />
    <glyph glyph-name="d" unicode="d" horiz-adv-x="634" 
d="M74 63q0 -36 25 -36q77 0 186 200q41 74 131 279q-20 24 -43 24q-96 0 -201 -188q-98 -172 -98 -279zM793 1108l-357 -872q-22 -50 -45 -101q-36 -78 -36 -92q0 -20 18 -20q37 0 97.5 105t68.5 108l12 -11q0 -55 -75.5 -143t-129.5 -88q-30 0 -57 17.5t-27 45.5
q0 54 35 131q-131 -194 -209 -194q-41 0 -69.5 37t-28.5 80q0 137 106 284q113 158 248 158q47 0 82 -27l250 582h117z" />
    <glyph glyph-name="e" unicode="e" horiz-adv-x="499" 
d="M103 109q0 -27 17 -58t44 -31q55 0 109 54q30 32 73 100q35 53 43 53h9l10 -10q-17 -78 -102 -150.5t-162 -72.5q-66 0 -109 44t-43 109q0 132 106 265q113 141 240 141q109 0 109 -104q0 -115 -103 -189q-94 -67 -215 -67q-26 -50 -26 -84zM371 494q0 32 -35 32
q-76 0 -197 -309h15q71 0 147 105q70 98 70 172z" />
    <glyph glyph-name="f" unicode="f" horiz-adv-x="415" 
d="M316 305l11 -33h-134q-40 -714 -235 -714q-41 0 -66 41q-18 34 -18 77q0 125 72 299l331 809q54 131 134 252q114 174 196 174q45 0 45 -63q0 -125 -98 -285q-31 -51 -199 -280q-125 -172 -164 -277h125zM284 526q340 426 340 643q0 19 -21 19q-29 0 -63 -51
q-39 -58 -134 -291zM-32 -422q84 0 146 272q55 234 47 351l-2 30q-66 -157 -131 -315q-95 -233 -95 -301q0 -37 35 -37z" />
    <glyph glyph-name="g" unicode="g" horiz-adv-x="579" 
d="M431 547h109l-244 -606q-66 -162 -113 -238q-92 -147 -194 -147q-72 0 -72 67q0 90 102 211q84 90 168 178q43 47 88 158q-116 -176 -208 -176q-82 0 -82 121q0 133 102 278q111 158 240 158q79 0 82 -55zM382 455q0 20 -12.5 43.5t-32.5 23.5q-82 0 -184 -192
q-95 -178 -95 -273q0 -32 25 -32q67 0 186 180q113 174 113 250zM-56 -369q0 -49 43 -49t127 191q45 108 90 217q-260 -260 -260 -359z" />
    <glyph glyph-name="h" unicode="h" horiz-adv-x="616" 
d="M303 569q170 195 217 258q144 187 144 283q0 64 -54 64q-55 0 -90 -76q-65 -148 -217 -529zM350 39q0 -14 19 -14q35 0 96 104t70 107l12 -11q-2 -57 -80 -144t-135 -87q-27 0 -52.5 15.5t-25.5 39.5q0 62 88 266q82 199 80 205q-29 0 -152 -158q-114 -149 -135 -196
l-69 -166h-111l299 727q80 195 135 287q113 186 223 186q33 0 56.5 -28.5t23.5 -61.5q0 -131 -227 -395q-70 -64 -184 -201q-17 -27 -86 -203q186 258 286 258q45 0 45 -37q0 -63 -88 -263.5t-88 -229.5z" />
    <glyph glyph-name="i" unicode="i" horiz-adv-x="342" 
d="M341 744q0 -30 -23 -52.5t-55 -22.5q-30 0 -52 23t-22 55q0 30 23 52t54 22q30 0 52.5 -23.5t22.5 -53.5zM157 510q0 14 -17 14q-35 0 -95 -104.5t-71 -106.5l-12 13q0 53 83 140t138 87q72 0 72 -55q0 -70 -85 -248t-85 -209q0 -14 18 -14q37 0 98.5 104.5t67.5 106.5
l12 -13q-6 -63 -77 -143q-76 -86 -138 -86q-77 0 -77 57q0 68 84 244t84 213z" />
    <glyph glyph-name="j" unicode="j" horiz-adv-x="337" 
d="M-263 -412q43 0 108 158q39 102 78 205q-76 -66 -141 -146q-86 -108 -86 -170q0 -47 41 -47zM243 250l12 -14l-2 -9l-170 -176q-113 -264 -127 -293q-107 -200 -205 -200q-33 0 -60.5 22.5t-27.5 54.5q0 134 289 390q100 223 203 485l-15 14q-35 0 -95 -104.5t-71 -106.5
l-12 9q2 55 79 143t132 88q29 0 53.5 -17.5t24.5 -43.5q0 -86 -139 -365q55 57 131 123zM341 754q0 -30 -23 -52.5t-55 -22.5q-30 0 -52 23t-22 55q0 30 23 52t54 22q30 0 52.5 -23.5t22.5 -53.5z" />
    <glyph glyph-name="k" unicode="k" horiz-adv-x="550" 
d="M332 449q0 34 24.5 66t57.5 32q76 0 76 -60q0 -104 -195 -219v-35q0 -47 8 -104q13 -80 35 -80q31 0 115 180l20 -8q-43 -104 -65 -141q-53 -86 -119 -86q-72 0 -133 246l-100 -240h-109l455 1108h112l-344 -836q49 9 109 33q69 29 92 60q-39 43 -39 84z" />
    <glyph glyph-name="l" unicode="l" horiz-adv-x="364" 
d="M92 43q4 -16 19 -16q36 0 96.5 105.5t68.5 105.5l11 -11q2 -53 -76 -142t-133 -89q-29 0 -53.5 19.5t-24.5 47.5q0 43 63 199l347 846h120z" />
    <glyph glyph-name="m" unicode="m" horiz-adv-x="927" 
d="M359 0h-119l194 504l-14 8q-12 0 -31 -14q-100 -82 -178 -230q-39 -75 -115 -268h-120q55 131 108 260q82 195 90 246l-10 6q-35 0 -114 -106.5t-85 -108.5l-14 14q55 76 111 152q77 90 151 90q57 0 57 -61q0 -52 -45 -164q138 225 240 225q31 0 56.5 -18.5t25.5 -47.5
q0 -47 -53 -159q153 225 248 225q28 0 51.5 -23.5t23.5 -50.5q0 -53 -84 -228t-84 -212l15 -14q37 0 100.5 104t69.5 107l10 -11q0 -55 -77 -143t-132 -88q-31 0 -59.5 20.5t-28.5 51.5q0 47 83 228t83 210l-12 8q-43 2 -154 -152q-98 -135 -125 -202z" />
    <glyph glyph-name="n" unicode="n" horiz-adv-x="661" 
d="M383 41q0 -16 19 -16q34 0 95.5 104t67.5 107l13 -11q0 -26 -52.5 -104t-78.5 -101q-33 -26 -78 -26q-31 0 -60.5 22.5t-29.5 51.5q0 43 78.5 224t78.5 212l-12 8q-69 2 -190 -225q-76 -140 -133 -287h-121q94 233 192 506l-12 10q-35 0 -113 -109.5t-86 -111.5l-12 8
q2 51 101.5 150.5t162.5 99.5q58 0 58 -61q0 -52 -46 -164q74 110 101 141q72 84 137 84q29 0 52.5 -18.5t23.5 -47.5q0 -59 -78 -232t-78 -214z" />
    <glyph glyph-name="o" unicode="o" horiz-adv-x="497" 
d="M107 113q0 -74 63 -74q64 0 131 92q55 74 80 150q-102 32 -102 133q0 139 98 139q63 0 63 -98q0 -136 -86 -287q-96 -174 -221 -174q-59 0 -100 59q-37 51 -37 113q0 117 86 250q96 143 207 143q2 0 8 -3t8 -3q-65 -64 -131.5 -209t-66.5 -231z" />
    <glyph glyph-name="p" unicode="p" horiz-adv-x="622" 
d="M463 514l-14 8h-9q-82 -39 -188 -205q-84 -129 -135 -254q24 -38 84 -38q71 0 174 200q98 191 90 269zM-174 -342l240 578q43 92 108 270l-10 6q-33 -2 -115 -104q-84 -109 -90 -111l-12 14q92 131 112 152q80 90 156 90q55 0 55 -61q0 -52 -45 -164q138 225 254 225
q70 0 70 -129q0 -131 -92 -272q-105 -158 -230 -158q-79 0 -127 39l-153 -375h-121z" />
    <glyph glyph-name="q" unicode="q" horiz-adv-x="600" 
d="M422 487l19 60h119q-91 -207 -267 -625q-32 -72 -65 -145q-43 -94 -53 -148l18 -14l49 55l12 -6q-59 -108 -118 -108q-62 0 -62 65q0 92 111.5 330.5t111.5 251.5q-75 -105 -94 -127q-71 -82 -125 -82q-96 0 -96 139q0 137 96 273q105 147 238 147q45 0 63.5 -12.5
t42.5 -53.5zM72 74q0 -45 21 -45q55 0 184 188q125 182 125 246q0 24 -18.5 43.5t-43.5 19.5q-86 0 -182 -184q-86 -168 -86 -268z" />
    <glyph glyph-name="r" unicode="r" horiz-adv-x="489" 
d="M-24 0q100 229 209 506l-17 12q-35 0 -118 -110.5t-93 -112.5l-10 8q16 66 108.5 158t157.5 92q25 0 41.5 -19.5t16.5 -44.5q0 -16 -21 -98q45 74 68 98q47 50 102 50q49 0 49 -54q0 -55 -48 -100t-103 -45q-33 0 -56 33q-30 -33 -88 -176q-39 -99 -77 -197h-121z" />
    <glyph glyph-name="s" unicode="s" horiz-adv-x="376" 
d="M168 160q0 41 -16.5 126t-16.5 128q-78 -113 -98 -115l-10 8q6 29 125.5 210t132.5 181l8 -8q0 -8 -37 -63.5t-37 -108.5q0 -43 26.5 -127t26.5 -129q0 -92 -57 -176q-65 -92 -154 -92q-104 0 -104 100q0 39 24.5 64.5t63.5 25.5q31 0 53.5 -23.5t22.5 -54.5
q0 -51 -47 -83h4q41 0 67 49q23 41 23 88z" />
    <glyph glyph-name="t" unicode="t" horiz-adv-x="401" 
d="M428 819l-113 -272l106 4v-29l-120 -4q-54 -125 -107 -250q-84 -196 -86 -227l4 -10q10 -6 17 -6q59 0 192 206l23 -8q-127 -229 -236 -229q-35 0 -62.5 26.5t-27.5 59.5q0 53 66 215q47 111 94 221l-58 -4v29l70 2l117 276h121z" />
    <glyph glyph-name="u" unicode="u" horiz-adv-x="626" 
d="M72 -4q-27 0 -51.5 23.5t-24.5 50.5q0 30 94.5 226t94.5 212t-21 16q-33 0 -96.5 -104.5t-71.5 -106.5l-12 9q0 61 81 146t140 85q74 0 74 -57q0 -62 -70 -224q-53 -110 -106 -223q6 -10 16 -10q45 0 172 178q68 94 156 330h121l-207 -506q0 -16 18 -16q33 0 96.5 104
t69.5 107l10 -11q0 -26 -51 -104t-78 -101q-32 -26 -80 -26q-32 0 -55.5 23.5t-23.5 56.5q0 28 32 112q-129 -190 -227 -190z" />
    <glyph glyph-name="v" unicode="v" horiz-adv-x="479" 
d="M-5 80q0 70 86 234.5t86 193.5q0 16 -17 16q-30 0 -95 -104.5t-73 -106.5l-12 9q0 61 81 146t142 85q72 0 72 -53q0 -62 -87 -238t-87 -209q0 -30 41 -30q51 0 143 133q80 114 105 186q-80 37 -80 115q0 94 78 94q28 0 47.5 -22.5t19.5 -51.5q0 -115 -117 -293
q-125 -192 -231 -192q-39 0 -70.5 24.5t-31.5 63.5z" />
    <glyph glyph-name="w" unicode="w" horiz-adv-x="727" 
d="M1 78q0 63 80 230t80 202q0 14 -15 14q-30 0 -95 -104.5t-73 -106.5l-12 9q0 61 81 146t142 85q72 0 72 -57q0 -62 -83 -241t-83 -212l12 -8q92 -2 301 512h121l-211 -510q0 -19 25 -19q67 0 155 119q60 82 105 182q-68 64 -68 134q0 104 80 104q64 0 64 -82
q0 -108 -117 -289q-125 -192 -227 -192q-45 0 -75 26.5t-30 69.5q0 29 8 51q-34 -45 -71 -92q-51 -55 -92 -55q-29 0 -51.5 27.5t-22.5 56.5z" />
    <glyph glyph-name="x" unicode="x" horiz-adv-x="526" 
d="M412 244q14 0 14 -11q0 -65 -63 -149q-70 -88 -133 -88q-55 0 -68 74q-2 16 -2 114q-33 -57 -67 -114q-52 -74 -97 -74q-59 0 -59 63q0 91 88 91q33 0 53 -48q49 62 88 146q7 74 7 145q0 111 -17 111q-26 0 -61 -100.5t-45 -100.5l-4 2l-11 10q52 238 164 238
q64 0 78 -70q2 -12 2 -118q35 57 68 114q53 74 98 74q59 0 59 -61q0 -39 -24.5 -66t-63.5 -27q-28 0 -53 45q-47 -67 -88 -143q-8 -111 -8 -166q0 -88 16 -88q35 0 78 98.5t51 98.5z" />
    <glyph glyph-name="y" unicode="y" horiz-adv-x="573" 
d="M179 -47q-80 -49 -160 -141q-96 -111 -96 -183q0 -51 43 -51q51 0 125 162q45 106 88 213zM72 0q-33 0 -55.5 25.5t-22.5 58.5q0 57 80 221t82 205l-14 14q-39 0 -99.5 -104.5t-70.5 -106.5l-12 9q2 67 77.5 149t141.5 82q73 0 73 -57q0 -70 -81.5 -247t-81.5 -206
l20 -14q49 -2 176 227q29 51 148 291h112l-237 -580q-168 -409 -346 -409q-70 0 -70 77q0 95 115 205q43 43 192 158q17 43 90 219q-59 -106 -84 -139q-63 -78 -133 -78z" />
    <glyph glyph-name="z" unicode="z" horiz-adv-x="471" 
d="M137 463q-28 0 -55 -60.5t-39 -60.5l-8 8q16 74 70 144q63 81 131 81q37 0 59.5 -65.5t46.5 -65.5q17 0 60 49.5t57 49.5l12 -11q-8 -18 -385 -378q37 18 78 18q31 0 58.5 -40t39.5 -40q29 0 56.5 61.5t35.5 63.5l11 -10q-17 -72 -70 -144q-63 -83 -127 -83
q-31 0 -55.5 65.5t-57.5 65.5q-18 0 -68 -55.5t-65 -57.5l-14 12q6 13 403 396q-41 -21 -77 -21q-23 0 -53.5 39t-43.5 39z" />
    <glyph glyph-name="braceleft" unicode="{" horiz-adv-x="1009" 
d="M878 1393q-144 -25 -195 -88q-39 -52 -39 -164q0 -25 2 -80t2 -88q0 -133 -92 -195q-61 -41 -219 -69q223 -31 274 -121q35 -62 35 -309q0 -119 55.5 -178.5t176.5 -71.5v-43q-326 8 -336 243q-2 37 0 99q2 78 2 98q0 137 -59 186q-46 37 -193 64v65q141 21 190 68
q60 53 60 190q0 246 41 318q63 110 295 117v-41z" />
    <glyph glyph-name="bar" unicode="|" horiz-adv-x="1937" 
d="M1624 80q0 -39 24 -39q64 0 134.5 143.5t88.5 145.5l15 -8q-138 -326 -267 -326q-96 0 -96 151q0 148 99 388q20 55 170 374l-3 2q-282 -350 -581 -845q-15 -25 -45 -76l-21 -8l-12 8q76 174 143 495q76 365 123 502q-129 -164 -262 -424q-110 -223 -221 -446
q-51 -107 -100 -215q-64 -123 -140 -183q-96 -77 -243 -77q-166 0 -250 122q-74 107 -74 281q0 215 121 412q137 227 342 227q242 0 242 -276q0 -170 -93 -349q-108 -211 -262 -211q-78 0 -128 66t-50 145q0 43 18 131q25 107 50 107q18 0 18 -16q0 -37 -21.5 -114
t-21.5 -118q0 -59 38 -112.5t95 -53.5q141 0 238 211q78 174 78 336q0 219 -211 219q-183 0 -308 -223q-106 -193 -106 -391q0 -152 65 -250q76 -113 222 -113q16 0 32 2q136 17 252 174q54 72 160 279q109 215 217 430q156 295 285 477q172 244 321 326q6 2 15 4v-4
q-29 -55 -84 -166q-160 -326 -221 -743q309 491 731 901l10 -2q-125 -242 -303 -654q-223 -512 -223 -616z" />
    <glyph glyph-name="braceright" unicode="}" horiz-adv-x="1009" 
d="M669 1001q0 -135 59 -190q53 -47 193 -68v-63q-140 -27 -190 -67t-58 -119v-207q0 -295 -334 -301v43q141 16 195 94q38 59 38 184q0 25 -2 77t-2 81q0 127 97 186q61 35 213 62q-160 24 -222.5 68t-76.5 134q-9 48 -9 238q0 215 -231 244v37q322 -9 332 -244
q2 -37 0 -94q-2 -74 -2 -95z" />
    <glyph glyph-name="asciitilde" unicode="~" horiz-adv-x="446" 
d="M323 563q95 105 205 283q135 215 133 305l-12 23l-6 -3q-78 -92 -180 -290q-95 -185 -140 -318zM125 29q33 0 94 104.5t70 106.5l10 -11q0 -51 -76 -142t-127 -91q-90 0 -90 61q0 78 123 361q129 299 264 518q162 264 250 264q45 0 45 -47q0 -84 -109 -272
q-86 -152 -170 -254q-49 -56 -104 -125l-199 -459q0 -14 19 -14z" />
    <glyph glyph-name="dieresis" unicode="&#xa8;" horiz-adv-x="1024" 
 />
    <glyph glyph-name="copyright" unicode="&#xa9;" horiz-adv-x="1464" 
 />
    <glyph glyph-name="registered" unicode="&#xae;" horiz-adv-x="901" 
 />
    <glyph glyph-name="acute" unicode="&#xb4;" horiz-adv-x="1024" 
 />
    <glyph glyph-name="paragraph" unicode="&#xb6;" horiz-adv-x="1024" 
 />
    <glyph glyph-name="onequarter" unicode="&#xbc;" horiz-adv-x="1294" 
 />
    <glyph glyph-name="onehalf" unicode="&#xbd;" horiz-adv-x="1386" 
 />
    <glyph glyph-name="threequarters" unicode="&#xbe;" horiz-adv-x="1421" 
 />
    <glyph glyph-name="Agrave" unicode="&#xc0;" horiz-adv-x="1599" 
d="M1798 1460q-68 29 -136 90q-84 72 -84 127q0 47 41 47q29 0 52 -65q16 -43 32 -88q27 -41 105 -98zM1064 457h244q150 366 201 463q110 213 305 407q-211 0 -369 -149q-121 -117 -225 -342q-78 -191 -156 -379zM786 461l235 -2q84 207 170 415q107 230 240 343
q168 141 418 141h35q-148 -248 -420 -901h82l-17 -41h-82q-67 -156 -143 -367q12 -24 23 -24q63 0 158 159.5t106 161.5l10 -12q-4 -21 -66 -117q-47 -74 -94 -147q-67 -90 -135 -90q-43 0 -70 47q-20 36 -20 84q0 92 76 305h-242q-29 -43 -59 -123q-23 -66 -47 -131
q-115 -283 -187 -383q-143 -203 -350 -203q-168 0 -258 115q-82 102 -82 274q0 242 117 457q139 258 362 258q96 0 166 -62.5t74 -156.5zM298 137q19 0 19 -18q0 -27 -14.5 -79t-14.5 -81q0 -55 36 -102t91 -47q144 0 244 237q72 170 92 365q-43 -2 -129 -2l16 53l105 -2
q-2 80 -58.5 133t-136.5 53q-202 0 -331 -244q-107 -204 -107 -426q0 -364 295 -364q188 0 319 186q52 76 172 353q64 143 107 264l-213 -2v-19q0 -176 -102 -381q-119 -239 -277 -239q-70 0 -115 56t-45 128q0 39 13 98q14 80 34 80z" />
    <glyph glyph-name="Aacute" unicode="&#xc1;" horiz-adv-x="1599" 
d="M1918 1724q31 0 31 -38q0 -62 -82 -134q-63 -57 -137 -92l-10 13q41 28 57 45q31 26 47 53q17 47 33 92q22 61 61 61zM1064 457h244q150 366 201 463q110 213 305 407q-211 0 -369 -149q-121 -117 -225 -342q-78 -191 -156 -379zM786 461l235 -2q84 207 170 415
q107 230 240 343q168 141 418 141h35q-148 -248 -420 -901h82l-17 -41h-82q-67 -156 -143 -367q12 -24 23 -24q63 0 158 159.5t106 161.5l10 -12q-4 -21 -66 -117q-47 -74 -94 -147q-67 -90 -135 -90q-43 0 -70 47q-20 36 -20 84q0 92 76 305h-242q-29 -43 -59 -123
q-23 -66 -47 -131q-115 -283 -187 -383q-143 -203 -350 -203q-168 0 -258 115q-82 102 -82 274q0 242 117 457q139 258 362 258q96 0 166 -62.5t74 -156.5zM298 137q19 0 19 -18q0 -27 -14.5 -79t-14.5 -81q0 -55 36 -102t91 -47q144 0 244 237q72 170 92 365
q-43 -2 -129 -2l16 53l105 -2q-2 80 -58.5 133t-136.5 53q-202 0 -331 -244q-107 -204 -107 -426q0 -364 295 -364q188 0 319 186q52 76 172 353q64 143 107 264l-213 -2v-19q0 -176 -102 -381q-119 -239 -277 -239q-70 0 -115 56t-45 128q0 39 13 98q14 80 34 80z" />
    <glyph glyph-name="Acircumflex" unicode="&#xc2;" horiz-adv-x="1599" 
d="M1804 1718q53 -190 108 -248l-10 -10q-72 47 -123 154q-125 -111 -239 -148v9q180 139 245 243h19zM1064 457h244q150 366 201 463q110 213 305 407q-211 0 -369 -149q-121 -117 -225 -342q-78 -191 -156 -379zM786 461l235 -2q84 207 170 415q107 230 240 343
q168 141 418 141h35q-148 -248 -420 -901h82l-17 -41h-82q-67 -156 -143 -367q12 -24 23 -24q63 0 158 159.5t106 161.5l10 -12q-4 -21 -66 -117q-47 -74 -94 -147q-67 -90 -135 -90q-43 0 -70 47q-20 36 -20 84q0 92 76 305h-242q-29 -43 -59 -123q-23 -66 -47 -131
q-115 -283 -187 -383q-143 -203 -350 -203q-168 0 -258 115q-82 102 -82 274q0 242 117 457q139 258 362 258q96 0 166 -62.5t74 -156.5zM298 137q19 0 19 -18q0 -27 -14.5 -79t-14.5 -81q0 -55 36 -102t91 -47q144 0 244 237q72 170 92 365q-43 -2 -129 -2l16 53l105 -2
q-2 80 -58.5 133t-136.5 53q-202 0 -331 -244q-107 -204 -107 -426q0 -364 295 -364q188 0 319 186q52 76 172 353q64 143 107 264l-213 -2v-19q0 -176 -102 -381q-119 -239 -277 -239q-70 0 -115 56t-45 128q0 39 13 98q14 80 34 80z" />
    <glyph glyph-name="Atilde" unicode="&#xc3;" horiz-adv-x="1599" 
d="M1984 1622q-12 -141 -123 -141q-29 0 -85 28.5t-85 28.5q-49 0 -68 -31q-26 -43 -30 -45l-10 11q28 135 118 135q31 0 89.5 -29t93.5 -29q45 0 88 72h12zM1064 457h244q150 366 201 463q110 213 305 407q-211 0 -369 -149q-121 -117 -225 -342q-78 -191 -156 -379z
M786 461l235 -2q84 207 170 415q107 230 240 343q168 141 418 141h35q-148 -248 -420 -901h82l-17 -41h-82q-67 -156 -143 -367q12 -24 23 -24q63 0 158 159.5t106 161.5l10 -12q-4 -21 -66 -117q-47 -74 -94 -147q-67 -90 -135 -90q-43 0 -70 47q-20 36 -20 84q0 92 76 305
h-242q-29 -43 -59 -123q-23 -66 -47 -131q-115 -283 -187 -383q-143 -203 -350 -203q-168 0 -258 115q-82 102 -82 274q0 242 117 457q139 258 362 258q96 0 166 -62.5t74 -156.5zM298 137q19 0 19 -18q0 -27 -14.5 -79t-14.5 -81q0 -55 36 -102t91 -47q144 0 244 237
q72 170 92 365q-43 -2 -129 -2l16 53l105 -2q-2 80 -58.5 133t-136.5 53q-202 0 -331 -244q-107 -204 -107 -426q0 -364 295 -364q188 0 319 186q52 76 172 353q64 143 107 264l-213 -2v-19q0 -176 -102 -381q-119 -239 -277 -239q-70 0 -115 56t-45 128q0 39 13 98
q14 80 34 80z" />
    <glyph glyph-name="Egrave" unicode="&#xc8;" horiz-adv-x="1204" 
d="M1101 1210q0 86 -41 138q-71 -41 -131 -129q-63 -95 -63 -170q0 -35 22.5 -64t55.5 -29q69 0 118 97q39 80 39 157zM636 815q3 -31 86 -57q74 -23 117 -23q47 0 47 33q0 55 -186 55q-33 0 -61 -6zM596 801q-144 -6 -254 -191q-99 -164 -99 -315q0 -287 361 -287
q186 0 311 70q156 86 156 256q0 106 -113 168q-92 49 -209 49q-145 0 -278 -78q-15 10 -15 21q0 26 129 57q113 27 162 27q139 0 238 -56q118 -67 118 -196q0 -179 -174 -271q-139 -73 -336 -73q-204 0 -335 88q-154 104 -154 297q0 208 127 323q102 92 326 144
q-60 102 -60 208q0 160 135 269q127 102 289 102q66 0 148 -31q55 19 114 19h23l12 -12q-2 -11 -59 -19q-68 -10 -72 -12q41 -64 41 -141q0 -97 -45 -185q-55 -104 -143 -104q-41 0 -73 36.5t-32 79.5q0 103 62 187q38 51 145 137q-29 12 -76 12q-131 0 -248 -161
q-106 -150 -106 -285q0 -49 20 -88q17 0 50 2h51q186 0 186 -78q0 -61 -82 -61q-121 0 -241 92zM1073 1511q-70 33 -135 91q-84 71 -84 127q0 49 43 49q28 0 43 -45q30 -93 50.5 -123.5t92.5 -85.5z" />
    <glyph glyph-name="Eacute" unicode="&#xc9;" horiz-adv-x="1204" 
d="M1101 1210q0 86 -41 138q-71 -41 -131 -129q-63 -95 -63 -170q0 -35 22.5 -64t55.5 -29q69 0 118 97q39 80 39 157zM636 815q3 -31 86 -57q74 -23 117 -23q47 0 47 33q0 55 -186 55q-33 0 -61 -6zM596 801q-144 -6 -254 -191q-99 -164 -99 -315q0 -287 361 -287
q186 0 311 70q156 86 156 256q0 106 -113 168q-92 49 -209 49q-145 0 -278 -78q-15 10 -15 21q0 26 129 57q113 27 162 27q139 0 238 -56q118 -67 118 -196q0 -179 -174 -271q-139 -73 -336 -73q-204 0 -335 88q-154 104 -154 297q0 208 127 323q102 92 326 144
q-60 102 -60 208q0 160 135 269q127 102 289 102q66 0 148 -31q55 19 114 19h23l12 -12q-2 -11 -59 -19q-68 -10 -72 -12q41 -64 41 -141q0 -97 -45 -185q-55 -104 -143 -104q-41 0 -73 36.5t-32 79.5q0 103 62 187q38 51 145 137q-29 12 -76 12q-131 0 -248 -161
q-106 -150 -106 -285q0 -49 20 -88q17 0 50 2h51q186 0 186 -78q0 -61 -82 -61q-121 0 -241 92zM1165 1778q33 0 33 -41q0 -62 -82 -133q-64 -60 -138 -93l-10 13q74 55 105 98q2 2 32 94q23 62 60 62z" />
    <glyph glyph-name="Ecircumflex" unicode="&#xca;" horiz-adv-x="1204" 
d="M1101 1210q0 86 -41 138q-71 -41 -131 -129q-63 -95 -63 -170q0 -35 22.5 -64t55.5 -29q69 0 118 97q39 80 39 157zM636 815q3 -31 86 -57q74 -23 117 -23q47 0 47 33q0 55 -186 55q-33 0 -61 -6zM596 801q-144 -6 -254 -191q-99 -164 -99 -315q0 -287 361 -287
q186 0 311 70q156 86 156 256q0 106 -113 168q-92 49 -209 49q-145 0 -278 -78q-15 10 -15 21q0 26 129 57q113 27 162 27q139 0 238 -56q118 -67 118 -196q0 -179 -174 -271q-139 -73 -336 -73q-204 0 -335 88q-154 104 -154 297q0 208 127 323q102 92 326 144
q-60 102 -60 208q0 160 135 269q127 102 289 102q66 0 148 -31q55 19 114 19h23l12 -12q-2 -11 -59 -19q-68 -10 -72 -12q41 -64 41 -141q0 -97 -45 -185q-55 -104 -143 -104q-41 0 -73 36.5t-32 79.5q0 103 62 187q38 51 145 137q-29 12 -76 12q-131 0 -248 -161
q-106 -150 -106 -285q0 -49 20 -88q17 0 50 2h51q186 0 186 -78q0 -61 -82 -61q-121 0 -241 92zM1065 1772q45 -185 110 -250l-12 -11q-68 48 -123 156q-129 -115 -238 -149v8q189 147 244 246h19z" />
    <glyph glyph-name="Igrave" unicode="&#xcc;" horiz-adv-x="1374" 
d="M1270 1333q-74 0 -164 -141q-139 -217 -139 -504q0 -205 73 -346q95 158 199 434q119 311 119 451q0 106 -88 106zM1298 1370q78 0 123 -94q35 -74 35 -162q0 -192 -117 -467q-106 -252 -241 -424q14 -20 149 -200l-6 -11l-14 -6l-8 4q-68 64 -146 185
q-96 -138 -285 -213q-167 -68 -352 -68q-174 0 -311 76q-168 92 -168 252q0 176 176 274q146 80 338 80q129 0 219 -53q109 -66 109 -185q0 -127 -135 -196q-111 -58 -252 -58q-56 0 -162 29q-125 33 -125 66q0 2 3 12t3 12q127 -88 295 -88q129 0 221 51q115 64 115 181
q0 106 -107 157q-80 41 -198 41q-174 0 -305 -73q-160 -91 -160 -250q0 -136 147 -219q125 -74 271 -74q358 0 606 358q-86 176 -86 379q0 199 90 416q111 268 278 268zM1399 1460q-68 29 -135 90q-84 72 -84 127q0 47 43 47q26 0 43 -43q43 -110 47 -116q20 -35 96 -92z
" />
    <glyph glyph-name="Iacute" unicode="&#xcd;" horiz-adv-x="1374" 
d="M1270 1333q-74 0 -164 -141q-139 -217 -139 -504q0 -205 73 -346q95 158 199 434q119 311 119 451q0 106 -88 106zM1298 1370q78 0 123 -94q35 -74 35 -162q0 -192 -117 -467q-106 -252 -241 -424q14 -20 149 -200l-6 -11l-14 -6l-8 4q-68 64 -146 185
q-96 -138 -285 -213q-167 -68 -352 -68q-174 0 -311 76q-168 92 -168 252q0 176 176 274q146 80 338 80q129 0 219 -53q109 -66 109 -185q0 -127 -135 -196q-111 -58 -252 -58q-56 0 -162 29q-125 33 -125 66q0 2 3 12t3 12q127 -88 295 -88q129 0 221 51q115 64 115 181
q0 106 -107 157q-80 41 -198 41q-174 0 -305 -73q-160 -91 -160 -250q0 -136 147 -219q125 -74 271 -74q358 0 606 358q-86 176 -86 379q0 199 90 416q111 268 278 268zM1456 1724q33 0 33 -38q0 -60 -82 -134q-64 -57 -137 -92l-10 13q75 59 102 98q16 47 33 92
q22 61 61 61z" />
    <glyph glyph-name="Eth" unicode="&#xd0;" horiz-adv-x="1798" 
d="M675 563q205 0 332 246q106 205 106 430q0 66 -10 111q-260 -39 -436 -174q-207 -162 -207 -404q0 -88 62.5 -148.5t152.5 -60.5zM63 199q0 -99 166 -162q133 -51 254 -51q182 0 327 104q-237 121 -291 146q-202 90 -299 90q-157 0 -157 -127zM1269 643q-20 -47 -41 -94
q-142 -305 -318 -467q109 -62 219 -62q37 0 68 11q88 30 164 145q41 62 104 201q211 463 211 624q0 66 -31.5 133.5t-82.5 104.5q-52 -51 -107 -168q-82 -191 -165 -381h270l-24 -47h-267zM1141 690l114 248q77 164 256 340q-162 72 -338 72h-43q14 -60 14 -133
q0 -234 -119 -439q-139 -241 -356 -241q-109 0 -174 77q-64 72 -64 183q0 225 222 401q204 162 442 174q-33 84 -114 134t-173 50q-158 0 -268 -118q-96 -105 -133 -269l-15 -12q-16 0 -16 12q0 148 138.5 281t285.5 133q236 0 326 -205h41q202 0 368 -80q195 160 221 160
q23 0 25 -18q-80 -64 -197 -172q201 -156 201 -367q0 -272 -178 -575q-201 -344 -455 -344q-59 0 -141 28q-133 43 -137 45q-178 -100 -383 -100q-146 0 -283 55q-176 72 -176 193q0 73 51 112t129 39q119 0 316 -88q34 -14 301 -149q116 157 233 399q29 63 58 127h-162
l24 47h159z" />
    <glyph glyph-name="Ograve" unicode="&#xd2;" horiz-adv-x="1392" 
d="M1433 971q0 -348 -229 -656q-250 -333 -588 -333q-217 0 -345 129t-128 346q0 221 174 411q170 185 393 219q199 277 396 277q157 0 247 -121q80 -108 80 -272zM1310 1085q0 105 -62.5 172.5t-164.5 67.5q-92 0 -190 -80q-84 -67 -142 -160q33 0 90 -10q70 -10 70 -24
q0 -15 -18 -17q-15 -2 -39 0q-33 4 -35 4q-43 0 -98 -10q-89 -82 -158 -272q-58 -158 -78 -310l-4 -40q-6 -29 -25 -31l-12 8q6 334 221 631q-157 -62 -267 -233t-110 -343q0 -170 80 -288q94 -136 258 -136q189 0 336 189q119 151 230 422q118 288 118 460zM1157 1460
q-70 33 -135 90q-84 72 -84 127q0 47 43 47q28 0 53 -63q14 -45 31 -90q30 -47 102 -98z" />
    <glyph glyph-name="Oacute" unicode="&#xd3;" horiz-adv-x="1392" 
d="M1433 971q0 -348 -229 -656q-250 -333 -588 -333q-217 0 -345 129t-128 346q0 221 174 411q170 185 393 219q199 277 396 277q157 0 247 -121q80 -108 80 -272zM1310 1085q0 105 -62.5 172.5t-164.5 67.5q-92 0 -190 -80q-84 -67 -142 -160q33 0 90 -10q70 -10 70 -24
q0 -15 -18 -17q-15 -2 -39 0q-33 4 -35 4q-43 0 -98 -10q-89 -82 -158 -272q-58 -158 -78 -310l-4 -40q-6 -29 -25 -31l-12 8q6 334 221 631q-157 -62 -267 -233t-110 -343q0 -170 80 -288q94 -136 258 -136q189 0 336 189q119 151 230 422q118 288 118 460zM1269 1729
q35 0 35 -39q0 -60 -82 -134q-63 -57 -137 -92l-10 13q74 57 102 98q2 2 33 92q23 62 59 62z" />
    <glyph glyph-name="Ocircumflex" unicode="&#xd4;" horiz-adv-x="1392" 
d="M1433 971q0 -348 -229 -656q-250 -333 -588 -333q-217 0 -345 129t-128 346q0 221 174 411q170 185 393 219q199 277 396 277q157 0 247 -121q80 -108 80 -272zM1310 1085q0 105 -62.5 172.5t-164.5 67.5q-92 0 -190 -80q-84 -67 -142 -160q33 0 90 -10q70 -10 70 -24
q0 -15 -18 -17q-15 -2 -39 0q-33 4 -35 4q-43 0 -98 -10q-89 -82 -158 -272q-58 -158 -78 -310l-4 -40q-6 -29 -25 -31l-12 8q6 334 221 631q-157 -62 -267 -233t-110 -343q0 -170 80 -288q94 -136 258 -136q189 0 336 189q119 151 230 422q118 288 118 460zM1224 1718
q52 -188 111 -248l-12 -10q-72 53 -121 154q-125 -111 -240 -148v9q180 139 246 243h16z" />
    <glyph glyph-name="Otilde" unicode="&#xd5;" horiz-adv-x="1392" 
d="M1433 971q0 -348 -229 -656q-250 -333 -588 -333q-217 0 -345 129t-128 346q0 221 174 411q170 185 393 219q199 277 396 277q157 0 247 -121q80 -108 80 -272zM1310 1085q0 105 -62.5 172.5t-164.5 67.5q-92 0 -190 -80q-84 -67 -142 -160q33 0 90 -10q70 -10 70 -24
q0 -15 -18 -17q-15 -2 -39 0q-33 4 -35 4q-43 0 -98 -10q-89 -82 -158 -272q-58 -158 -78 -310l-4 -40q-6 -29 -25 -31l-12 8q6 334 221 631q-157 -62 -267 -233t-110 -343q0 -170 80 -288q94 -136 258 -136q189 0 336 189q119 151 230 422q118 288 118 460zM1376 1620
q-12 -141 -121 -141q-29 0 -85 28.5t-87 28.5q-49 0 -68 -31l-28 -45l-13 10q29 136 121 136q29 0 86.5 -29t83.5 -29q39 0 62 19q12 12 37 53h12z" />
    <glyph glyph-name="Ugrave" unicode="&#xd9;" horiz-adv-x="1658" 
d="M1462 1298q-67 29 -135 91q-84 71 -84 127q0 47 43 47q27 0 49 -66q31 -86 33 -88q37 -51 104 -98zM1337 72q0 -37 25 -37q74 0 149 137q49 100 99 203l8 4l16 -12q-2 -72 -104 -215q-109 -150 -174 -150q-52 0 -80 66q-23 49 -23 108q0 105 66 289q-129 -234 -166 -289
q-135 -201 -229 -201q-46 0 -77.5 49.5t-31.5 96.5q0 137 138 439t138 468q0 125 -57 199q-63 82 -186 82q-226 0 -396 -244q-157 -223 -157 -457q0 -92 39 -157q49 -78 137 -78q184 0 326 231q124 205 124 404q0 45 -24.5 83.5t-67.5 38.5q-223 0 -342 -442q-8 -26 -18 -26
l-14 10q2 149 112 311q123 176 266 176q58 0 93 -47q28 -43 28 -102q0 -207 -131 -424q-149 -246 -342 -246q-110 0 -168 80q-51 69 -51 184q0 256 170 486q184 251 430 251q160 0 262.5 -102t102.5 -260q0 -137 -82 -340q-11 -27 -156 -334q-82 -176 -82 -250q0 -41 37 -41
q100 0 383 518q190 347 328 652l151 16q-133 -293 -264 -586q-205 -467 -205 -542z" />
    <glyph glyph-name="Uacute" unicode="&#xda;" horiz-adv-x="1658" 
d="M1634 1563q31 0 31 -41q0 -62 -80 -133q-66 -60 -137 -91l-10 13q69 47 102 98q16 47 33 92q22 62 61 62zM1337 72q0 -37 25 -37q74 0 149 137q49 100 99 203l8 4l16 -12q-2 -72 -104 -215q-109 -150 -174 -150q-52 0 -80 66q-23 49 -23 108q0 105 66 289
q-129 -234 -166 -289q-135 -201 -229 -201q-46 0 -77.5 49.5t-31.5 96.5q0 137 138 439t138 468q0 125 -57 199q-63 82 -186 82q-226 0 -396 -244q-157 -223 -157 -457q0 -92 39 -157q49 -78 137 -78q184 0 326 231q124 205 124 404q0 45 -24.5 83.5t-67.5 38.5
q-223 0 -342 -442q-8 -26 -18 -26l-14 10q2 149 112 311q123 176 266 176q58 0 93 -47q28 -43 28 -102q0 -207 -131 -424q-149 -246 -342 -246q-110 0 -168 80q-51 69 -51 184q0 256 170 486q184 251 430 251q160 0 262.5 -102t102.5 -260q0 -137 -82 -340
q-11 -27 -156 -334q-82 -176 -82 -250q0 -41 37 -41q100 0 383 518q190 347 328 652l151 16q-133 -293 -264 -586q-205 -467 -205 -542z" />
    <glyph glyph-name="Yacute" unicode="&#xdd;" horiz-adv-x="1556" 
d="M1624 1145h133q-125 -293 -377 -875q-131 -299 -295 -446q-203 -184 -494 -184q-137 0 -231 43q-129 57 -129 176q0 276 434 276q66 0 148 -10q112 -14 123 -39l-7 -12l-10 -2q-141 32 -260 32q-395 0 -395 -241q0 -103 112 -154q86 -41 201 -41q258 0 402 137
q108 103 217 365l243 590l-233 -330q-84 -119 -117 -154q-86 -98 -151 -98q-45 0 -78 53q-29 48 -29 95q0 102 126 357t126 392q0 99 -69.5 160t-168.5 61q-194 0 -354 -247q-145 -224 -145 -428q0 -191 161 -191q164 0 285 209q107 182 107 358q0 111 -82 111
q-119 0 -191 -115q-45 -69 -86 -215q-33 -116 -49 -119l-12 13q26 164 92 289q90 172 223 172q135 0 135 -140q0 -186 -116 -377q-131 -215 -308 -215q-94 0 -143 64q-47 57 -47 156q0 256 166 473q178 233 428 233q125 0 213 -65q98 -72 98 -193q0 -119 -76 -299
q-4 -12 -137 -299q-76 -158 -76 -225q0 -33 19 -33q94 0 362 408q179 274 312 524zM1650 1565q31 0 31 -41q0 -62 -80 -133q-65 -60 -137 -91l-10 13q65 45 102 98q2 2 35 92q20 62 59 62z" />
    <glyph glyph-name="agrave" unicode="&#xe0;" 
d="M86 53q0 -28 21 -28q55 0 176 200q117 195 117 262q0 43 -37 43q-78 0 -180 -200q-97 -185 -97 -277zM365 27q37 0 100.5 105.5t67.5 107.5l10 -11q0 -53 -79 -144t-132 -91q-26 0 -50 17.5t-24 43.5q0 64 45 168v0q-47 -67 -92 -135q-73 -94 -116 -94q-48 0 -79.5 40
t-31.5 89q0 127 111 274q116 156 239 156q78 0 86 -45l19 39h108q-55 -133 -110 -268q-93 -226 -93 -234q0 -18 21 -18zM500 670q-70 32 -133 90q-84 74 -84 129q0 45 43 45q27 0 49 -64q31 -86 33 -90q29 -41 102 -98z" />
    <glyph glyph-name="aacute" unicode="&#xe1;" 
d="M86 53q0 -28 21 -28q55 0 176 200q117 195 117 262q0 43 -37 43q-78 0 -180 -200q-97 -185 -97 -277zM365 27q37 0 100.5 105.5t67.5 107.5l10 -11q0 -53 -79 -144t-132 -91q-26 0 -50 17.5t-24 43.5q0 64 45 168v0q-47 -67 -92 -135q-73 -94 -116 -94q-48 0 -79.5 40
t-31.5 89q0 127 111 274q116 156 239 156q78 0 86 -45l19 39h108q-55 -133 -110 -268q-93 -226 -93 -234q0 -18 21 -18zM549 934q31 0 31 -39q0 -61 -82 -133q-63 -60 -137 -92l-10 12q36 29 102 98q16 47 33 92q22 62 63 62z" />
    <glyph glyph-name="acircumflex" unicode="&#xe2;" 
d="M86 53q0 -28 21 -28q55 0 176 200q117 195 117 262q0 43 -37 43q-78 0 -180 -200q-97 -185 -97 -277zM365 27q37 0 100.5 105.5t67.5 107.5l10 -11q0 -53 -79 -144t-132 -91q-26 0 -50 17.5t-24 43.5q0 64 45 168v0q-47 -67 -92 -135q-73 -94 -116 -94q-48 0 -79.5 40
t-31.5 89q0 127 111 274q116 156 239 156q78 0 86 -45l19 39h108q-55 -133 -110 -268q-93 -226 -93 -234q0 -18 21 -18zM482 928q51 -187 112 -248l-14 -10q-68 49 -123 155q-115 -106 -235 -149v8q190 156 241 244h19z" />
    <glyph glyph-name="atilde" unicode="&#xe3;" 
d="M86 53q0 -28 21 -28q55 0 176 200q117 195 117 262q0 43 -37 43q-78 0 -180 -200q-97 -185 -97 -277zM365 27q37 0 100.5 105.5t67.5 107.5l10 -11q0 -53 -79 -144t-132 -91q-26 0 -50 17.5t-24 43.5q0 64 45 168v0q-47 -67 -92 -135q-73 -94 -116 -94q-48 0 -79.5 40
t-31.5 89q0 127 111 274q116 156 239 156q78 0 86 -45l19 39h108q-55 -133 -110 -268q-93 -226 -93 -234q0 -18 21 -18zM650 829q-17 -141 -123 -141q-27 0 -84.5 28.5t-85.5 28.5q-51 0 -70 -30q-27 -45 -29 -45l-10 10q25 135 121 135q31 0 88 -28.5t92 -28.5q43 0 90 71
h11z" />
    <glyph glyph-name="egrave" unicode="&#xe8;" horiz-adv-x="499" 
d="M103 109q0 -27 17 -58t44 -31q55 0 109 54q30 32 73 100q35 53 43 53h9l10 -10q-17 -78 -102 -150.5t-162 -72.5q-66 0 -109 44t-43 109q0 132 106 265q113 141 240 141q109 0 109 -104q0 -115 -103 -189q-94 -67 -215 -67q-26 -50 -26 -84zM371 494q0 32 -35 32
q-76 0 -197 -309h15q71 0 147 105q70 98 70 172zM441 670q-70 32 -134 90q-84 74 -84 129q0 45 43 45q29 0 52 -64q28 -88 30 -90q21 -30 103 -98z" />
    <glyph glyph-name="eacute" unicode="&#xe9;" horiz-adv-x="499" 
d="M518 934q31 0 31 -39q0 -61 -80 -133q-61 -55 -137 -92l-10 12q37 29 102 98q17 47 31 92q22 62 63 62zM103 109q0 -27 17 -58t44 -31q55 0 109 54q30 32 73 100q35 53 43 53h9l10 -10q-17 -78 -102 -150.5t-162 -72.5q-66 0 -109 44t-43 109q0 132 106 265
q113 141 240 141q109 0 109 -104q0 -115 -103 -189q-94 -67 -215 -67q-26 -50 -26 -84zM371 494q0 32 -35 32q-76 0 -197 -309h15q71 0 147 105q70 98 70 172z" />
    <glyph glyph-name="ecircumflex" unicode="&#xea;" horiz-adv-x="499" 
d="M441 928q49 -180 110 -248l-12 -10q-70 51 -121 155q-125 -110 -240 -149v8q181 139 246 244h17zM103 109q0 -27 17 -58t44 -31q55 0 109 54q30 32 73 100q35 53 43 53h9l10 -10q-17 -78 -102 -150.5t-162 -72.5q-66 0 -109 44t-43 109q0 132 106 265q113 141 240 141
q109 0 109 -104q0 -115 -103 -189q-94 -67 -215 -67q-26 -50 -26 -84zM371 494q0 32 -35 32q-76 0 -197 -309h15q71 0 147 105q70 98 70 172z" />
    <glyph glyph-name="igrave" unicode="&#xec;" horiz-adv-x="342" 
d="M157 510q0 14 -17 14q-35 0 -95 -104.5t-71 -106.5l-12 13q0 53 83 140t138 87q72 0 72 -55q0 -70 -85 -248t-85 -209q0 -14 18 -14q37 0 98.5 104.5t67.5 106.5l12 -13q-6 -63 -77 -143q-76 -86 -138 -86q-77 0 -77 57q0 68 84 244t84 213zM355 670q-69 32 -133 90
q-84 71 -84 127q0 47 41 47q29 0 53 -64q15 -45 31 -90q18 -30 102 -98z" />
    <glyph glyph-name="iacute" unicode="&#xed;" horiz-adv-x="342" 
d="M157 510q0 14 -17 14q-35 0 -95 -104.5t-71 -106.5l-12 13q0 53 83 140t138 87q72 0 72 -55q0 -70 -85 -248t-85 -209q0 -14 18 -14q37 0 98.5 104.5t67.5 106.5l12 -13q-6 -63 -77 -143q-76 -86 -138 -86q-77 0 -77 57q0 68 84 244t84 213zM368 934q32 0 32 -39
q0 -61 -82 -133q-63 -60 -137 -92l-10 12q76 57 104 98l33 92q21 62 60 62z" />
    <glyph glyph-name="ograve" unicode="&#xf2;" horiz-adv-x="497" 
d="M107 113q0 -74 63 -74q64 0 131 92q55 74 80 150q-102 32 -102 133q0 139 98 139q63 0 63 -98q0 -136 -86 -287q-96 -174 -221 -174q-59 0 -100 59q-37 51 -37 113q0 119 88 250q96 143 207 143q16 -6 14 -6q-65 -64 -131.5 -209t-66.5 -231zM449 672q-68 33 -134 90
q-81 72 -81 127q0 47 41 47q28 0 51 -64q28 -88 30 -90q21 -30 103 -98z" />
    <glyph glyph-name="oacute" unicode="&#xf3;" horiz-adv-x="497" 
d="M107 113q0 -74 63 -74q64 0 131 92q55 74 80 150q-102 32 -102 133q0 139 98 139q63 0 63 -98q0 -136 -86 -287q-96 -174 -221 -174q-59 0 -100 59q-37 51 -37 113q0 119 86 248q96 143 209 143q6 0 14 -4q-65 -64 -131.5 -209t-66.5 -231zM492 934q34 0 34 -39
q0 -59 -81 -133q-64 -57 -138 -92l-10 12q74 57 102 98q3 2 33 92q21 62 60 62z" />
    <glyph glyph-name="ocircumflex" unicode="&#xf4;" horiz-adv-x="497" 
d="M107 113q0 -74 63 -74q64 0 131 92q55 74 80 150q-102 32 -102 133q0 139 98 139q63 0 63 -98q0 -136 -86 -287q-96 -174 -221 -174q-59 0 -100 59q-37 51 -37 113q0 121 88 250q94 141 209 141q2 0 6 -2t6 -2q-65 -64 -131.5 -209t-66.5 -231zM426 928q51 -185 111 -248
l-13 -10q-67 47 -122 155q-123 -112 -240 -149v8q180 139 246 244h18z" />
    <glyph glyph-name="otilde" unicode="&#xf5;" horiz-adv-x="497" 
d="M107 113q0 -74 63 -74q64 0 131 92q55 74 80 150q-102 32 -102 133q0 139 98 139q63 0 63 -98q0 -136 -86 -287q-96 -174 -221 -174q-59 0 -100 59q-37 51 -37 113q0 117 86 250q96 143 207 143q2 0 8 -3t8 -3q-65 -64 -131.5 -209t-66.5 -231zM557 829
q-12 -141 -121 -141q-26 0 -83.5 28.5t-86.5 28.5q-49 0 -69 -30q-29 -43 -31 -45l-10 10q30 135 108 135q39 0 99.5 -28.5t95.5 -28.5q47 0 86 71h12z" />
    <glyph glyph-name="divide" unicode="&#xf7;" horiz-adv-x="1706" 
 />
    <glyph glyph-name="glyph217" unicode="&#xf9;" horiz-adv-x="626" 
d="M72 -4q-27 0 -51.5 23.5t-24.5 50.5q0 30 94.5 226t94.5 212t-21 16q-33 0 -96.5 -104.5t-71.5 -106.5l-12 9q0 61 81 146t140 85q74 0 74 -57q0 -62 -70 -224q-53 -110 -106 -223q6 -10 16 -10q45 0 172 178q68 94 156 330h121l-207 -506q0 -16 18 -16q33 0 96.5 104
t69.5 107l10 -11q0 -26 -51 -104t-78 -101q-32 -26 -80 -26q-32 0 -55.5 23.5t-23.5 56.5q0 28 32 112q-129 -190 -227 -190zM465 670q-69 32 -133 90q-84 71 -84 127q0 47 43 47q29 0 51 -64q29 -88 31 -90q23 -32 103 -98z" />
    <glyph glyph-name="glyph218" unicode="&#xfa;" horiz-adv-x="626" 
d="M72 -4q-27 0 -51.5 23.5t-24.5 50.5q0 30 94.5 226t94.5 212t-21 16q-33 0 -96.5 -104.5t-71.5 -106.5l-12 9q0 61 81 146t140 85q74 0 74 -57q0 -62 -70 -224q-53 -110 -106 -223q6 -10 16 -10q45 0 172 178q68 94 156 330h121l-207 -506q0 -16 18 -16q33 0 96.5 104
t69.5 107l10 -11q0 -26 -51 -104t-78 -101q-32 -26 -80 -26q-32 0 -55.5 23.5t-23.5 56.5q0 28 32 112q-129 -190 -227 -190zM521 932q30 0 30 -39q0 -62 -80 -133q-61 -55 -137 -92l-10 12q37 29 102 98q17 47 31 92q23 62 64 62z" />
    <glyph glyph-name="glyph235" unicode="&#xfd;" horiz-adv-x="573" 
d="M179 -47q-80 -49 -160 -141q-96 -111 -96 -183q0 -51 43 -51q51 0 125 162q45 106 88 213zM72 0q-33 0 -55.5 25.5t-22.5 58.5q0 57 80 221t82 205l-14 14q-39 0 -99.5 -104.5t-70.5 -106.5l-12 9q2 67 77.5 149t141.5 82q73 0 73 -57q0 -70 -81.5 -247t-81.5 -206
l20 -14q49 -2 176 227q29 51 148 291h112l-237 -580q-168 -409 -346 -409q-70 0 -70 77q0 95 115 205q43 43 192 158q17 43 90 219q-59 -106 -84 -139q-63 -78 -133 -78zM541 934q31 0 31 -39q0 -61 -82 -133q-63 -60 -137 -92l-8 12q36 29 100 98q16 47 33 92q22 62 63 62z
" />
    <glyph glyph-name="Abreve" unicode="&#x102;" horiz-adv-x="1599" 
d="M1064 457h244q150 366 201 463q110 213 305 407q-211 0 -369 -149q-121 -117 -225 -342q-78 -191 -156 -379zM786 461l235 -2q84 207 170 415q107 230 240 343q168 141 418 141h35q-148 -248 -420 -901h82l-17 -41h-82q-67 -156 -143 -367q12 -24 23 -24q63 0 158 159.5
t106 161.5l10 -12q-4 -21 -66 -117q-47 -74 -94 -147q-67 -90 -135 -90q-43 0 -70 47q-20 36 -20 84q0 92 76 305h-242q-29 -43 -59 -123q-23 -66 -47 -131q-115 -283 -187 -383q-143 -203 -350 -203q-168 0 -258 115q-82 102 -82 274q0 242 117 457q139 258 362 258
q96 0 166 -62.5t74 -156.5zM298 137q19 0 19 -18q0 -27 -14.5 -79t-14.5 -81q0 -55 36 -102t91 -47q144 0 244 237q72 170 92 365q-43 -2 -129 -2l16 53l105 -2q-2 80 -58.5 133t-136.5 53q-202 0 -331 -244q-107 -204 -107 -426q0 -364 295 -364q188 0 319 186
q52 76 172 353q64 143 107 264l-213 -2v-19q0 -176 -102 -381q-119 -239 -277 -239q-70 0 -115 56t-45 128q0 39 13 98q14 80 34 80zM1684 1645q-4 -17 -7 -32q-5 -24 -3 -37q6 -42 39.5 -54.5t96.5 -5.5q82 10 138 50q47 33 89 87l26 1q-17 -29 -38 -56q-29 -39 -65 -71
t-81 -54.5t-99 -28.5q-48 -5 -82 16t-42 73q-8 56 8 112h20z" />
    <glyph glyph-name="abreve" unicode="&#x103;" 
d="M86 53q0 -28 21 -28q55 0 176 200q117 195 117 262q0 43 -37 43q-78 0 -180 -200q-97 -185 -97 -277zM365 27q37 0 100.5 105.5t67.5 107.5l10 -11q0 -53 -79 -144t-132 -91q-26 0 -50 17.5t-24 43.5q0 64 45 168v0q-47 -67 -92 -135q-73 -94 -116 -94q-48 0 -79.5 40
t-31.5 89q0 127 111 274q116 156 239 156q78 0 86 -45l19 39h108q-55 -133 -110 -268q-93 -226 -93 -234q0 -18 21 -18zM331 834q-4 -15 -7 -29q-4 -21 -2 -32q5 -37 35.5 -48.5t87.5 -4.5q75 9 125 44q43 29 81 77l24 1q-15 -26 -34 -50q-27 -34 -59.5 -62.5t-73.5 -48.5
t-90 -25q-44 -5 -75 14t-38 65q-8 49 7 99h19z" />
    <glyph glyph-name="Ccaron" unicode="&#x10c;" horiz-adv-x="1274" 
 />
    <glyph glyph-name="ccaron" unicode="&#x10d;" horiz-adv-x="922" 
 />
    <glyph glyph-name="Dslash" unicode="&#x110;" horiz-adv-x="1798" 
d="M675 563q205 0 332 246q106 205 106 430q0 66 -10 111q-260 -39 -436 -174q-207 -162 -207 -404q0 -88 62.5 -148.5t152.5 -60.5zM63 199q0 -99 166 -162q133 -51 254 -51q182 0 327 104q-237 121 -291 146q-202 90 -299 90q-157 0 -157 -127zM1269 643q-20 -47 -41 -94
q-142 -305 -318 -467q109 -62 219 -62q37 0 68 11q88 30 164 145q41 62 104 201q211 463 211 624q0 66 -31.5 133.5t-82.5 104.5q-52 -51 -107 -168q-82 -191 -165 -381h270l-24 -47h-267zM1141 690l114 248q77 164 256 340q-162 72 -338 72h-43q14 -60 14 -133
q0 -234 -119 -439q-139 -241 -356 -241q-109 0 -174 77q-64 72 -64 183q0 225 222 401q204 162 442 174q-33 84 -114 134t-173 50q-158 0 -268 -118q-96 -105 -133 -269l-15 -12q-16 0 -16 12q0 148 138.5 281t285.5 133q236 0 326 -205h41q202 0 368 -80q195 160 221 160
q23 0 25 -18q-80 -64 -197 -172q201 -156 201 -367q0 -272 -178 -575q-201 -344 -455 -344q-59 0 -141 28q-133 43 -137 45q-178 -100 -383 -100q-146 0 -283 55q-176 72 -176 193q0 73 51 112t129 39q119 0 316 -88q34 -14 301 -149q116 157 233 399q29 63 58 127h-162
l24 47h159z" />
    <glyph glyph-name="dcroat" unicode="&#x111;" horiz-adv-x="634" 
d="M74 63q0 -36 24 -36q78 0 187 200q41 74 131 279q-21 24 -43 24q-97 0 -201 -188q-98 -172 -98 -279zM564 847l112 261h117l-107 -261h147l-24 -47h-142l-231 -564q-22 -50 -45 -101q-37 -78 -37 -92q0 -20 19 -20q37 0 97 105t69 108l12 -11q0 -55 -76 -143t-129 -88
q-31 0 -57.5 17.5t-26.5 45.5q0 54 35 131q-131 -194 -209 -194q-41 0 -69.5 37t-28.5 80q0 137 106 284q113 158 248 158q47 0 82 -27l118 274h-313l24 47h309z" />
    <glyph glyph-name="Itilde" unicode="&#x128;" horiz-adv-x="1374" 
d="M1270 1333q-74 0 -164 -141q-139 -217 -139 -504q0 -205 73 -346q95 158 199 434q119 311 119 451q0 106 -88 106zM1298 1370q78 0 123 -94q35 -74 35 -162q0 -192 -117 -467q-106 -252 -241 -424q14 -20 149 -200l-6 -11l-14 -6l-8 4q-68 64 -146 185
q-96 -138 -285 -213q-167 -68 -352 -68q-174 0 -311 76q-168 92 -168 252q0 176 176 274q146 80 338 80q129 0 219 -53q109 -66 109 -185q0 -127 -135 -196q-111 -58 -252 -58q-56 0 -162 29q-125 33 -125 66q0 2 3 12t3 12q127 -88 295 -88q129 0 221 51q115 64 115 181
q0 106 -107 157q-80 41 -198 41q-174 0 -305 -73q-160 -91 -160 -250q0 -136 147 -219q125 -74 271 -74q358 0 606 358q-86 176 -86 379q0 199 90 416q111 268 278 268zM1565 1622q-12 -141 -123 -141q-29 0 -85 28.5t-85 28.5q-49 0 -68 -31q-26 -43 -30 -45l-10 11
q28 135 118 135q31 0 89.5 -29t93.5 -29q45 0 88 72h12z" />
    <glyph glyph-name="itilde" unicode="&#x129;" horiz-adv-x="342" 
d="M157 510q0 14 -17 14q-35 0 -95 -104.5t-71 -106.5l-12 13q0 53 83 140t138 87q72 0 72 -55q0 -70 -85 -248t-85 -209q0 -14 18 -14q37 0 98.5 104.5t67.5 106.5l12 -13q-6 -63 -77 -143q-76 -86 -138 -86q-77 0 -77 57q0 68 84 244t84 213zM482 829q-17 -141 -123 -141
q-27 0 -84.5 28.5t-85.5 28.5q-52 0 -70 -30q-27 -45 -29 -45l-10 10q25 135 121 135q31 0 88 -28.5t92 -28.5q43 0 90 71h11z" />
    <glyph glyph-name="Utilde" unicode="&#x168;" horiz-adv-x="1658" 
d="M1337 72q0 -37 25 -37q74 0 149 137q49 100 99 203l8 4l16 -12q-2 -72 -104 -215q-109 -150 -174 -150q-52 0 -80 66q-23 49 -23 108q0 105 66 289q-129 -234 -166 -289q-135 -201 -229 -201q-46 0 -77.5 49.5t-31.5 96.5q0 137 138 439t138 468q0 125 -57 199
q-63 82 -186 82q-226 0 -396 -244q-157 -223 -157 -457q0 -92 39 -157q49 -78 137 -78q184 0 326 231q124 205 124 404q0 45 -24.5 83.5t-67.5 38.5q-223 0 -342 -442q-8 -26 -18 -26l-14 10q2 149 112 311q123 176 266 176q58 0 93 -47q28 -43 28 -102q0 -207 -131 -424
q-149 -246 -342 -246q-110 0 -168 80q-51 69 -51 184q0 256 170 486q184 251 430 251q160 0 262.5 -102t102.5 -260q0 -137 -82 -340q-11 -27 -156 -334q-82 -176 -82 -250q0 -41 37 -41q100 0 383 518q190 347 328 652l151 16q-133 -293 -264 -586q-205 -467 -205 -542z
M1689 1451q-13 -141 -121 -141q-29 0 -85 28.5t-87 28.5q-49 0 -68 -31l-28 -45l-13 10q29 136 121 136q29 0 86.5 -29t83.5 -29q39 0 62 19q12 12 36 53h13z" />
    <glyph glyph-name="utilde" unicode="&#x169;" horiz-adv-x="626" 
d="M72 -4q-27 0 -51.5 23.5t-24.5 50.5q0 30 94.5 226t94.5 212t-21 16q-33 0 -96.5 -104.5t-71.5 -106.5l-12 9q0 61 81 146t140 85q74 0 74 -57q0 -62 -70 -224q-53 -110 -106 -223q6 -10 16 -10q45 0 172 178q68 94 156 330h121l-207 -506q0 -16 18 -16q33 0 96.5 104
t69.5 107l10 -11q0 -26 -51 -104t-78 -101q-32 -26 -80 -26q-32 0 -55.5 23.5t-23.5 56.5q0 28 32 112q-129 -190 -227 -190zM648 829q-13 -141 -121 -141q-27 0 -84.5 28.5t-85.5 28.5q-49 0 -70 -30q-29 -43 -31 -45l-10 10q31 135 109 135q39 0 99 -28.5t95 -28.5
q47 0 86 71h13z" />
    <glyph glyph-name="Ohorn" unicode="&#x1a0;" horiz-adv-x="1392" 
d="M1433 971q0 -348 -229 -656q-250 -333 -588 -333q-217 0 -345 129t-128 346q0 221 174 411q170 185 393 219q199 277 396 277q157 0 247 -121q80 -108 80 -272zM1310 1085q0 105 -62.5 172.5t-164.5 67.5q-92 0 -190 -80q-84 -67 -142 -160q33 0 90 -10q70 -10 70 -24
q0 -15 -18 -17q-15 -2 -39 0q-33 4 -35 4q-43 0 -98 -10q-89 -82 -158 -272q-58 -158 -78 -310l-4 -40q-6 -29 -25 -31l-12 8q6 334 221 631q-157 -62 -267 -233t-110 -343q0 -170 80 -288q94 -136 258 -136q189 0 336 189q119 151 230 422q118 288 118 460zM1500 1233l-1 2
q-20 -3 -33 -3q-72 0 -72 60q0 49 41 91.5t90 42.5q75 0 75 -65q0 -69 -75 -163.5t-132 -96.5l-8 8q6 13 65 59q50 41 50 65z" />
    <glyph glyph-name="ohorn" unicode="&#x1a1;" horiz-adv-x="497" 
d="M440 462v-7q0 -136 -86 -287q-96 -174 -221 -174q-59 0 -100 59q-37 51 -37 113q0 117 86 250q96 143 207 143q2 0 8 -3t8 -3q-65 -64 -132 -209t-67 -231q0 -74 64 -74q63 0 131 92q55 74 80 150q-102 32 -102 133q0 139 98 139q50 0 60 -61q10 8 22 17q41 33 41 53
l-2 1q-15 -2 -26 -2q-58 0 -58 48q0 40 33 74.5t73 34.5q60 0 60 -53q0 -56 -60 -132q-44 -56 -80 -71z" />
    <glyph glyph-name="Uhorn" unicode="&#x1af;" horiz-adv-x="1658" 
d="M1337 72q0 -37 25 -37q74 0 149 137q49 100 99 203l8 4l16 -12q-2 -72 -104 -215q-109 -150 -174 -150q-52 0 -80 66q-23 49 -23 108q0 105 66 289q-129 -234 -166 -289q-135 -201 -229 -201q-46 0 -77.5 49.5t-31.5 96.5q0 137 138 439t138 468q0 125 -57 199
q-63 82 -186 82q-226 0 -396 -244q-157 -223 -157 -457q0 -92 39 -157q49 -78 137 -78q184 0 326 231q124 205 124 404q0 45 -24.5 83.5t-67.5 38.5q-223 0 -342 -442q-8 -26 -18 -26l-14 10q2 149 112 311q123 176 266 176q58 0 93 -47q28 -43 28 -102q0 -207 -131 -424
q-149 -246 -342 -246q-110 0 -168 80q-51 69 -51 184q0 256 170 486q184 251 430 251q160 0 262.5 -102t102.5 -260q0 -137 -82 -340q-11 -27 -156 -334q-82 -176 -82 -250q0 -41 37 -41q100 0 383 518q190 347 328 652l151 16q-133 -293 -264 -586q-205 -467 -205 -542z
M1853 1233l-2 2q-20 -3 -33 -3q-71 0 -71 60q0 49 40.5 91.5t89.5 42.5q75 0 75 -65q0 -69 -75 -163.5t-132 -96.5l-8 8q6 13 65 59q51 41 51 65z" />
    <glyph glyph-name="uhorn" unicode="&#x1b0;" horiz-adv-x="626" 
d="M530 457l-170 -416q0 -16 19 -16q33 0 96.5 104t69.5 107l10 -11q0 -26 -51 -104t-78 -101q-33 -26 -80 -26q-33 0 -56.5 23.5t-23.5 56.5q0 28 33 112q-129 -190 -227 -190q-27 0 -51.5 23.5t-24.5 50.5q0 30 94 226t94 212t-20 16q-33 0 -96.5 -104.5t-71.5 -106.5
l-12 9q0 61 80.5 146t140.5 85q74 0 74 -57q0 -62 -70 -224q-53 -110 -107 -223q7 -10 17 -10q45 0 172 178q67 94 155 330h121l-20 -49q6 5 14 11q41 33 41 53l-2 1q-15 -2 -26 -2q-58 0 -58 48q0 40 33 74.5t73 34.5q60 0 60 -53q0 -56 -60 -132q-51 -65 -92 -76z" />
    <glyph glyph-name="uni1EA0" unicode="&#x1ea0;" horiz-adv-x="1599" 
d="M1134 -184q0 -29 -21.5 -48.5t-50.5 -19.5q-31 0 -52.5 20.5t-21.5 51.5t22.5 51.5t53.5 20.5q29 0 49.5 -24t20.5 -52zM1064 457h244q150 366 201 463q110 213 305 407q-211 0 -369 -149q-121 -117 -225 -342q-78 -191 -156 -379zM786 461l235 -2q84 207 170 415
q107 230 240 343q168 141 418 141h35q-148 -248 -420 -901h82l-17 -41h-82q-67 -156 -143 -367q12 -24 23 -24q63 0 158 159.5t106 161.5l10 -12q-4 -21 -66 -117q-47 -74 -94 -147q-67 -90 -135 -90q-43 0 -70 47q-20 36 -20 84q0 92 76 305h-242q-29 -43 -59 -123
q-23 -66 -47 -131q-115 -283 -187 -383q-143 -203 -350 -203q-168 0 -258 115q-82 102 -82 274q0 242 117 457q139 258 362 258q96 0 166 -62.5t74 -156.5zM298 137q19 0 19 -18q0 -27 -14.5 -79t-14.5 -81q0 -55 36 -102t91 -47q144 0 244 237q72 170 92 365
q-43 -2 -129 -2l16 53l105 -2q-2 80 -58.5 133t-136.5 53q-202 0 -331 -244q-107 -204 -107 -426q0 -364 295 -364q188 0 319 186q52 76 172 353q64 143 107 264l-213 -2v-19q0 -176 -102 -381q-119 -239 -277 -239q-70 0 -115 56t-45 128q0 39 13 98q14 80 34 80z" />
    <glyph glyph-name="uni1EA1" unicode="&#x1ea1;" 
d="M86 53q0 -28 21 -28q55 0 176 200q117 195 117 262q0 43 -37 43q-78 0 -180 -200q-97 -185 -97 -277zM365 27q37 0 100.5 105.5t67.5 107.5l10 -11q0 -53 -79 -144t-132 -91q-26 0 -50 17.5t-24 43.5q0 64 45 168v0q-47 -67 -92 -135q-73 -94 -116 -94q-48 0 -79.5 40
t-31.5 89q0 127 111 274q116 156 239 156q78 0 86 -45l19 39h108q-55 -133 -110 -268q-93 -226 -93 -234q0 -18 21 -18zM227 -184q0 -29 -21.5 -48.5t-50.5 -19.5q-31 0 -52.5 20.5t-21.5 51.5t22.5 51.5t53.5 20.5q29 0 49.5 -24t20.5 -52z" />
    <glyph glyph-name="uni1EA2" unicode="&#x1ea2;" horiz-adv-x="1599" 
d="M1064 457h244q150 366 201 463q110 213 305 407q-211 0 -369 -149q-121 -117 -225 -342q-78 -191 -156 -379zM786 461l235 -2q84 207 170 415q107 230 240 343q168 141 418 141h35q-148 -248 -420 -901h82l-17 -41h-82q-67 -156 -143 -367q12 -24 23 -24q63 0 158 159.5
t106 161.5l10 -12q-4 -21 -66 -117q-47 -74 -94 -147q-67 -90 -135 -90q-43 0 -70 47q-20 36 -20 84q0 92 76 305h-242q-29 -43 -59 -123q-23 -66 -47 -131q-115 -283 -187 -383q-143 -203 -350 -203q-168 0 -258 115q-82 102 -82 274q0 242 117 457q139 258 362 258
q96 0 166 -62.5t74 -156.5zM298 137q19 0 19 -18q0 -27 -14.5 -79t-14.5 -81q0 -55 36 -102t91 -47q144 0 244 237q72 170 92 365q-43 -2 -129 -2l16 53l105 -2q-2 80 -58.5 133t-136.5 53q-202 0 -331 -244q-107 -204 -107 -426q0 -364 295 -364q188 0 319 186
q52 76 172 353q64 143 107 264l-213 -2v-19q0 -176 -102 -381q-119 -239 -277 -239q-70 0 -115 56t-45 128q0 39 13 98q14 80 34 80zM1735 1403q-2 2 -5 9q-7 11 -7 18q0 39 50 70q43 27 84 53q42 35 42 86q0 20 -16.5 31.5t-40.5 11.5q-45 0 -77.5 -33t-32.5 -76
q0 -14 7 -23q8 -10 20 -10q29 0 56 26t27 55q0 7 -4 11.5t-11 4.5q-16 0 -29.5 -21t-24.5 -21l-7 9q0 24 20.5 40t41.5 16q18 0 29.5 -12t11.5 -27q0 -35 -34 -70t-72 -35q-58 0 -58 60q0 57 49 95q47 38 107 38q40 0 70 -17q36 -22 36 -59q0 -58 -59 -96q-53 -26 -105 -51
q-51 -26 -51 -55q0 -4 14 -21z" />
    <glyph glyph-name="uni1EA3" unicode="&#x1ea3;" 
d="M86 53q0 -28 21 -28q55 0 176 200q117 195 117 262q0 43 -37 43q-78 0 -180 -200q-97 -185 -97 -277zM365 27q37 0 100.5 105.5t67.5 107.5l10 -11q0 -53 -79 -144t-132 -91q-26 0 -50 17.5t-24 43.5q0 64 45 168v0q-47 -67 -92 -135q-73 -94 -116 -94q-48 0 -79.5 40
t-31.5 89q0 127 111 274q116 156 239 156q78 0 86 -45l19 39h108q-55 -133 -110 -268q-93 -226 -93 -234q0 -18 21 -18zM389 583q-2 2 -5 9q-7 11 -7 18q0 39 50 70q43 27 84 53q42 35 42 86q0 20 -16.5 31.5t-40.5 11.5q-45 0 -77.5 -33t-32.5 -76q0 -14 7 -23
q8 -10 19 -10q30 0 57 26t27 55q0 7 -4 11.5t-11 4.5q-16 0 -29.5 -21t-24.5 -21l-7 9q0 24 20.5 40t41.5 16q18 0 29.5 -12t11.5 -27q0 -35 -34 -70t-72 -35q-58 0 -58 60q0 57 49 95q47 38 107 38q40 0 70 -17q36 -22 36 -59q0 -58 -59 -96q-53 -26 -105 -51
q-51 -26 -51 -55q0 -4 14 -21z" />
    <glyph glyph-name="uni1EA4" unicode="&#x1ea4;" horiz-adv-x="1599" 
d="M2066 1900q31 0 31 -38q0 -62 -82 -134q-63 -57 -137 -92l-10 13q41 28 57 45q31 26 47 53q17 47 33 92q22 61 61 61zM1064 457h244q150 366 201 463q110 213 305 407q-211 0 -369 -149q-121 -117 -225 -342q-78 -191 -156 -379zM786 461l235 -2q84 207 170 415
q107 230 240 343q168 141 418 141h35q-148 -248 -420 -901h82l-17 -41h-82q-67 -156 -143 -367q12 -24 23 -24q63 0 158 159.5t106 161.5l10 -12q-4 -21 -66 -117q-47 -74 -94 -147q-67 -90 -135 -90q-43 0 -70 47q-20 36 -20 84q0 92 76 305h-242q-29 -43 -59 -123
q-23 -66 -47 -131q-115 -283 -187 -383q-143 -203 -350 -203q-168 0 -258 115q-82 102 -82 274q0 242 117 457q139 258 362 258q96 0 166 -62.5t74 -156.5zM298 137q19 0 19 -18q0 -27 -14.5 -79t-14.5 -81q0 -55 36 -102t91 -47q144 0 244 237q72 170 92 365
q-43 -2 -129 -2l16 53l105 -2q-2 80 -58.5 133t-136.5 53q-202 0 -331 -244q-107 -204 -107 -426q0 -364 295 -364q188 0 319 186q52 76 172 353q64 143 107 264l-213 -2v-19q0 -176 -102 -381q-119 -239 -277 -239q-70 0 -115 56t-45 128q0 39 13 98q14 80 34 80z
M1804 1718q53 -190 108 -248l-10 -10q-72 47 -123 154q-125 -111 -239 -148v9q180 139 245 243h19z" />
    <glyph glyph-name="uni1EA5" unicode="&#x1ea5;" 
d="M86 53q0 -28 21 -28q55 0 176 200q117 195 117 262q0 43 -37 43q-78 0 -180 -200q-97 -185 -97 -277zM365 27q37 0 100.5 105.5t67.5 107.5l10 -11q0 -53 -79 -144t-132 -91q-26 0 -50 17.5t-24 43.5q0 64 45 168v0q-47 -67 -92 -135q-73 -94 -116 -94q-48 0 -79.5 40
t-31.5 89q0 127 111 274q116 156 239 156q78 0 86 -45l19 39h108q-55 -133 -110 -268q-93 -226 -93 -234q0 -18 21 -18zM730 1104q31 0 31 -39q0 -61 -82 -133q-63 -60 -137 -92l-10 12q36 29 102 98q16 47 33 92q22 62 63 62zM482 928q51 -187 112 -248l-14 -10
q-68 49 -123 155q-115 -106 -235 -149v8q190 156 241 244h19z" />
    <glyph glyph-name="uni1EA6" unicode="&#x1ea6;" horiz-adv-x="1599" 
d="M1904 1692q-68 29 -136 90q-84 72 -84 127q0 47 41 47q29 0 52 -65q16 -43 32 -88q27 -41 105 -98zM1064 457h244q150 366 201 463q110 213 305 407q-211 0 -369 -149q-121 -117 -225 -342q-78 -191 -156 -379zM786 461l235 -2q84 207 170 415q107 230 240 343
q168 141 418 141h35q-148 -248 -420 -901h82l-17 -41h-82q-67 -156 -143 -367q12 -24 23 -24q63 0 158 159.5t106 161.5l10 -12q-4 -21 -66 -117q-47 -74 -94 -147q-67 -90 -135 -90q-43 0 -70 47q-20 36 -20 84q0 92 76 305h-242q-29 -43 -59 -123q-23 -66 -47 -131
q-115 -283 -187 -383q-143 -203 -350 -203q-168 0 -258 115q-82 102 -82 274q0 242 117 457q139 258 362 258q96 0 166 -62.5t74 -156.5zM298 137q19 0 19 -18q0 -27 -14.5 -79t-14.5 -81q0 -55 36 -102t91 -47q144 0 244 237q72 170 92 365q-43 -2 -129 -2l16 53l105 -2
q-2 80 -58.5 133t-136.5 53q-202 0 -331 -244q-107 -204 -107 -426q0 -364 295 -364q188 0 319 186q52 76 172 353q64 143 107 264l-213 -2v-19q0 -176 -102 -381q-119 -239 -277 -239q-70 0 -115 56t-45 128q0 39 13 98q14 80 34 80zM1804 1718q53 -190 108 -248l-10 -10
q-72 47 -123 154q-125 -111 -239 -148v9q180 139 245 243h19z" />
    <glyph glyph-name="uni1EA7" unicode="&#x1ea7;" 
d="M86 53q0 -28 21 -28q55 0 176 200q117 195 117 262q0 43 -37 43q-78 0 -180 -200q-97 -185 -97 -277zM365 27q37 0 100.5 105.5t67.5 107.5l10 -11q0 -53 -79 -144t-132 -91q-26 0 -50 17.5t-24 43.5q0 64 45 168v0q-47 -67 -92 -135q-73 -94 -116 -94q-48 0 -79.5 40
t-31.5 89q0 127 111 274q116 156 239 156q78 0 86 -45l19 39h108q-55 -133 -110 -268q-93 -226 -93 -234q0 -18 21 -18zM608 884q-70 32 -133 90q-84 74 -84 129q0 45 43 45q27 0 49 -64q31 -86 33 -90q29 -41 102 -98zM482 928q51 -187 112 -248l-14 -10q-68 49 -123 155
q-115 -106 -235 -149v8q190 156 241 244h19z" />
    <glyph glyph-name="uni1EA8" unicode="&#x1ea8;" horiz-adv-x="1599" 
d="M1064 457h244q150 366 201 463q110 213 305 407q-211 0 -369 -149q-121 -117 -225 -342q-78 -191 -156 -379zM786 461l235 -2q84 207 170 415q107 230 240 343q168 141 418 141h35q-148 -248 -420 -901h82l-17 -41h-82q-67 -156 -143 -367q12 -24 23 -24q63 0 158 159.5
t106 161.5l10 -12q-4 -21 -66 -117q-47 -74 -94 -147q-67 -90 -135 -90q-43 0 -70 47q-20 36 -20 84q0 92 76 305h-242q-29 -43 -59 -123q-23 -66 -47 -131q-115 -283 -187 -383q-143 -203 -350 -203q-168 0 -258 115q-82 102 -82 274q0 242 117 457q139 258 362 258
q96 0 166 -62.5t74 -156.5zM298 137q19 0 19 -18q0 -27 -14.5 -79t-14.5 -81q0 -55 36 -102t91 -47q144 0 244 237q72 170 92 365q-43 -2 -129 -2l16 53l105 -2q-2 80 -58.5 133t-136.5 53q-202 0 -331 -244q-107 -204 -107 -426q0 -364 295 -364q188 0 319 186
q52 76 172 353q64 143 107 264l-213 -2v-19q0 -176 -102 -381q-119 -239 -277 -239q-70 0 -115 56t-45 128q0 39 13 98q14 80 34 80zM1867 1610q-2 2 -5 9q-7 11 -7 18q0 39 50 70q43 27 84 53q42 35 42 86q0 20 -16.5 31.5t-40.5 11.5q-45 0 -77.5 -33t-32.5 -76
q0 -14 7 -23q8 -10 20 -10q29 0 56 26t27 55q0 7 -4 11.5t-11 4.5q-16 0 -29.5 -21t-24.5 -21l-7 9q0 24 20.5 40t41.5 16q18 0 29.5 -12t11.5 -27q0 -35 -34 -70t-72 -35q-58 0 -58 60q0 57 49 95q47 38 107 38q40 0 70 -17q36 -22 36 -59q0 -58 -59 -96q-53 -26 -105 -51
q-51 -26 -51 -55q0 -4 14 -21zM1804 1718q53 -190 108 -248l-10 -10q-72 47 -123 154q-125 -111 -239 -148v9q180 139 245 243h19z" />
    <glyph glyph-name="uni1EA9" unicode="&#x1ea9;" 
d="M86 53q0 -28 21 -28q55 0 176 200q117 195 117 262q0 43 -37 43q-78 0 -180 -200q-97 -185 -97 -277zM365 27q37 0 100.5 105.5t67.5 107.5l10 -11q0 -53 -79 -144t-132 -91q-26 0 -50 17.5t-24 43.5q0 64 45 168v0q-47 -67 -92 -135q-73 -94 -116 -94q-48 0 -79.5 40
t-31.5 89q0 127 111 274q116 156 239 156q78 0 86 -45l19 39h108q-55 -133 -110 -268q-93 -226 -93 -234q0 -18 21 -18zM554 821q-2 2 -5 9q-7 11 -7 18q0 39 50 70q43 27 84 53q42 35 42 86q0 20 -16.5 31.5t-40.5 11.5q-45 0 -77.5 -33t-32.5 -76q0 -14 7 -23
q8 -10 19 -10q30 0 57 26t27 55q0 7 -4 11.5t-11 4.5q-16 0 -29.5 -21t-24.5 -21l-7 9q0 24 20.5 40t41.5 16q18 0 29.5 -12t11.5 -27q0 -35 -34 -70t-72 -35q-58 0 -58 60q0 57 49 95q47 38 107 38q40 0 70 -17q36 -22 36 -59q0 -58 -59 -96q-53 -26 -105 -51
q-51 -26 -51 -55q0 -4 14 -21zM482 928q51 -187 112 -248l-14 -10q-68 49 -123 155q-115 -106 -235 -149v8q190 156 241 244h19z" />
    <glyph glyph-name="uni1EAA" unicode="&#x1eaa;" horiz-adv-x="1599" 
d="M2072 1857q-12 -141 -123 -141q-29 0 -85 28.5t-85 28.5q-49 0 -68 -31q-26 -43 -30 -45l-10 11q28 135 118 135q31 0 89.5 -29t93.5 -29q45 0 88 72h12zM1064 457h244q150 366 201 463q110 213 305 407q-211 0 -369 -149q-121 -117 -225 -342q-78 -191 -156 -379z
M786 461l235 -2q84 207 170 415q107 230 240 343q168 141 418 141h35q-148 -248 -420 -901h82l-17 -41h-82q-67 -156 -143 -367q12 -24 23 -24q63 0 158 159.5t106 161.5l10 -12q-4 -21 -66 -117q-47 -74 -94 -147q-67 -90 -135 -90q-43 0 -70 47q-20 36 -20 84q0 92 76 305
h-242q-29 -43 -59 -123q-23 -66 -47 -131q-115 -283 -187 -383q-143 -203 -350 -203q-168 0 -258 115q-82 102 -82 274q0 242 117 457q139 258 362 258q96 0 166 -62.5t74 -156.5zM298 137q19 0 19 -18q0 -27 -14.5 -79t-14.5 -81q0 -55 36 -102t91 -47q144 0 244 237
q72 170 92 365q-43 -2 -129 -2l16 53l105 -2q-2 80 -58.5 133t-136.5 53q-202 0 -331 -244q-107 -204 -107 -426q0 -364 295 -364q188 0 319 186q52 76 172 353q64 143 107 264l-213 -2v-19q0 -176 -102 -381q-119 -239 -277 -239q-70 0 -115 56t-45 128q0 39 13 98
q14 80 34 80zM1804 1718q53 -190 108 -248l-10 -10q-72 47 -123 154q-125 -111 -239 -148v9q180 139 245 243h19z" />
    <glyph glyph-name="uni1EAB" unicode="&#x1eab;" 
d="M86 53q0 -28 21 -28q55 0 176 200q117 195 117 262q0 43 -37 43q-78 0 -180 -200q-97 -185 -97 -277zM365 27q37 0 100.5 105.5t67.5 107.5l10 -11q0 -53 -79 -144t-132 -91q-26 0 -50 17.5t-24 43.5q0 64 45 168v0q-47 -67 -92 -135q-73 -94 -116 -94q-48 0 -79.5 40
t-31.5 89q0 127 111 274q116 156 239 156q78 0 86 -45l19 39h108q-55 -133 -110 -268q-93 -226 -93 -234q0 -18 21 -18zM735 1065q-17 -141 -123 -141q-27 0 -84.5 28.5t-85.5 28.5q-51 0 -70 -30q-27 -45 -29 -45l-10 10q25 135 121 135q31 0 88 -28.5t92 -28.5q43 0 90 71
h11zM482 928q51 -187 112 -248l-14 -10q-68 49 -123 155q-115 -106 -235 -149v8q190 156 241 244h19z" />
    <glyph glyph-name="uni1EAC" unicode="&#x1eac;" horiz-adv-x="1599" 
d="M1134 -184q0 -29 -21.5 -48.5t-50.5 -19.5q-31 0 -52.5 20.5t-21.5 51.5t22.5 51.5t53.5 20.5q29 0 49.5 -24t20.5 -52zM1064 457h244q150 366 201 463q110 213 305 407q-211 0 -369 -149q-121 -117 -225 -342q-78 -191 -156 -379zM786 461l235 -2q84 207 170 415
q107 230 240 343q168 141 418 141h35q-148 -248 -420 -901h82l-17 -41h-82q-67 -156 -143 -367q12 -24 23 -24q63 0 158 159.5t106 161.5l10 -12q-4 -21 -66 -117q-47 -74 -94 -147q-67 -90 -135 -90q-43 0 -70 47q-20 36 -20 84q0 92 76 305h-242q-29 -43 -59 -123
q-23 -66 -47 -131q-115 -283 -187 -383q-143 -203 -350 -203q-168 0 -258 115q-82 102 -82 274q0 242 117 457q139 258 362 258q96 0 166 -62.5t74 -156.5zM298 137q19 0 19 -18q0 -27 -14.5 -79t-14.5 -81q0 -55 36 -102t91 -47q144 0 244 237q72 170 92 365
q-43 -2 -129 -2l16 53l105 -2q-2 80 -58.5 133t-136.5 53q-202 0 -331 -244q-107 -204 -107 -426q0 -364 295 -364q188 0 319 186q52 76 172 353q64 143 107 264l-213 -2v-19q0 -176 -102 -381q-119 -239 -277 -239q-70 0 -115 56t-45 128q0 39 13 98q14 80 34 80z
M1804 1718q53 -190 108 -248l-10 -10q-72 47 -123 154q-125 -111 -239 -148v9q180 139 245 243h19z" />
    <glyph glyph-name="uni1EAD" unicode="&#x1ead;" 
d="M86 53q0 -28 21 -28q55 0 176 200q117 195 117 262q0 43 -37 43q-78 0 -180 -200q-97 -185 -97 -277zM365 27q37 0 100.5 105.5t67.5 107.5l10 -11q0 -53 -79 -144t-132 -91q-26 0 -50 17.5t-24 43.5q0 64 45 168v0q-47 -67 -92 -135q-73 -94 -116 -94q-48 0 -79.5 40
t-31.5 89q0 127 111 274q116 156 239 156q78 0 86 -45l19 39h108q-55 -133 -110 -268q-93 -226 -93 -234q0 -18 21 -18zM227 -184q0 -29 -21.5 -48.5t-50.5 -19.5q-31 0 -52.5 20.5t-21.5 51.5t22.5 51.5t53.5 20.5q29 0 49.5 -24t20.5 -52zM482 928q51 -187 112 -248
l-14 -10q-68 49 -123 155q-115 -106 -235 -149v8q190 156 241 244h19z" />
    <glyph glyph-name="uni1EAE" unicode="&#x1eae;" horiz-adv-x="1599" 
d="M2010 1874q31 0 31 -38q0 -62 -82 -134q-63 -57 -137 -92l-10 13q41 28 57 45q31 26 47 53q17 47 33 92q22 61 61 61zM1064 457h244q150 366 201 463q110 213 305 407q-211 0 -369 -149q-121 -117 -225 -342q-78 -191 -156 -379zM786 461l235 -2q84 207 170 415
q107 230 240 343q168 141 418 141h35q-148 -248 -420 -901h82l-17 -41h-82q-67 -156 -143 -367q12 -24 23 -24q63 0 158 159.5t106 161.5l10 -12q-4 -21 -66 -117q-47 -74 -94 -147q-67 -90 -135 -90q-43 0 -70 47q-20 36 -20 84q0 92 76 305h-242q-29 -43 -59 -123
q-23 -66 -47 -131q-115 -283 -187 -383q-143 -203 -350 -203q-168 0 -258 115q-82 102 -82 274q0 242 117 457q139 258 362 258q96 0 166 -62.5t74 -156.5zM298 137q19 0 19 -18q0 -27 -14.5 -79t-14.5 -81q0 -55 36 -102t91 -47q144 0 244 237q72 170 92 365
q-43 -2 -129 -2l16 53l105 -2q-2 80 -58.5 133t-136.5 53q-202 0 -331 -244q-107 -204 -107 -426q0 -364 295 -364q188 0 319 186q52 76 172 353q64 143 107 264l-213 -2v-19q0 -176 -102 -381q-119 -239 -277 -239q-70 0 -115 56t-45 128q0 39 13 98q14 80 34 80z
M1684 1645q-4 -17 -7 -32q-5 -24 -3 -37q6 -42 39.5 -54.5t96.5 -5.5q82 10 138 50q47 33 89 87l26 1q-17 -29 -38 -56q-29 -39 -65 -71t-81 -54.5t-99 -28.5q-48 -5 -82 16t-42 73q-8 56 8 112h20z" />
    <glyph glyph-name="uni1EAF" unicode="&#x1eaf;" 
d="M86 53q0 -28 21 -28q55 0 176 200q117 195 117 262q0 43 -37 43q-78 0 -180 -200q-97 -185 -97 -277zM365 27q37 0 100.5 105.5t67.5 107.5l10 -11q0 -53 -79 -144t-132 -91q-26 0 -50 17.5t-24 43.5q0 64 45 168v0q-47 -67 -92 -135q-73 -94 -116 -94q-48 0 -79.5 40
t-31.5 89q0 127 111 274q116 156 239 156q78 0 86 -45l19 39h108q-55 -133 -110 -268q-93 -226 -93 -234q0 -18 21 -18zM660 1065q31 0 31 -39q0 -61 -82 -133q-63 -60 -137 -92l-10 12q36 29 102 98q16 47 33 92q22 62 63 62zM331 834q-4 -15 -7 -29q-4 -21 -2 -32
q5 -37 35.5 -48.5t87.5 -4.5q75 9 125 44q43 29 81 77l24 1q-15 -26 -34 -50q-27 -34 -59.5 -62.5t-73.5 -48.5t-90 -25q-44 -5 -75 14t-38 65q-8 49 7 99h19z" />
    <glyph glyph-name="uni1EB0" unicode="&#x1eb0;" horiz-adv-x="1599" 
d="M1889 1623q-68 29 -136 90q-84 72 -84 127q0 47 41 47q29 0 52 -65q16 -43 32 -88q27 -41 105 -98zM1064 457h244q150 366 201 463q110 213 305 407q-211 0 -369 -149q-121 -117 -225 -342q-78 -191 -156 -379zM786 461l235 -2q84 207 170 415q107 230 240 343
q168 141 418 141h35q-148 -248 -420 -901h82l-17 -41h-82q-67 -156 -143 -367q12 -24 23 -24q63 0 158 159.5t106 161.5l10 -12q-4 -21 -66 -117q-47 -74 -94 -147q-67 -90 -135 -90q-43 0 -70 47q-20 36 -20 84q0 92 76 305h-242q-29 -43 -59 -123q-23 -66 -47 -131
q-115 -283 -187 -383q-143 -203 -350 -203q-168 0 -258 115q-82 102 -82 274q0 242 117 457q139 258 362 258q96 0 166 -62.5t74 -156.5zM298 137q19 0 19 -18q0 -27 -14.5 -79t-14.5 -81q0 -55 36 -102t91 -47q144 0 244 237q72 170 92 365q-43 -2 -129 -2l16 53l105 -2
q-2 80 -58.5 133t-136.5 53q-202 0 -331 -244q-107 -204 -107 -426q0 -364 295 -364q188 0 319 186q52 76 172 353q64 143 107 264l-213 -2v-19q0 -176 -102 -381q-119 -239 -277 -239q-70 0 -115 56t-45 128q0 39 13 98q14 80 34 80zM1684 1645q-4 -17 -7 -32
q-5 -24 -3 -37q6 -42 39.5 -54.5t96.5 -5.5q82 10 138 50q47 33 89 87l26 1q-17 -29 -38 -56q-29 -39 -65 -71t-81 -54.5t-99 -28.5q-48 -5 -82 16t-42 73q-8 56 8 112h20z" />
    <glyph glyph-name="uni1EB1" unicode="&#x1eb1;" 
d="M86 53q0 -28 21 -28q55 0 176 200q117 195 117 262q0 43 -37 43q-78 0 -180 -200q-97 -185 -97 -277zM365 27q37 0 100.5 105.5t67.5 107.5l10 -11q0 -53 -79 -144t-132 -91q-26 0 -50 17.5t-24 43.5q0 64 45 168v0q-47 -67 -92 -135q-73 -94 -116 -94q-48 0 -79.5 40
t-31.5 89q0 127 111 274q116 156 239 156q78 0 86 -45l19 39h108q-55 -133 -110 -268q-93 -226 -93 -234q0 -18 21 -18zM570 803q-70 32 -133 90q-84 74 -84 129q0 45 43 45q27 0 49 -64q31 -86 33 -90q29 -41 102 -98zM331 834q-4 -15 -7 -29q-4 -21 -2 -32
q5 -37 35.5 -48.5t87.5 -4.5q75 9 125 44q43 29 81 77l24 1q-15 -26 -34 -50q-27 -34 -59.5 -62.5t-73.5 -48.5t-90 -25q-44 -5 -75 14t-38 65q-8 49 7 99h19z" />
    <glyph glyph-name="uni1EB2" unicode="&#x1eb2;" horiz-adv-x="1599" 
d="M1064 457h244q150 366 201 463q110 213 305 407q-211 0 -369 -149q-121 -117 -225 -342q-78 -191 -156 -379zM786 461l235 -2q84 207 170 415q107 230 240 343q168 141 418 141h35q-148 -248 -420 -901h82l-17 -41h-82q-67 -156 -143 -367q12 -24 23 -24q63 0 158 159.5
t106 161.5l10 -12q-4 -21 -66 -117q-47 -74 -94 -147q-67 -90 -135 -90q-43 0 -70 47q-20 36 -20 84q0 92 76 305h-242q-29 -43 -59 -123q-23 -66 -47 -131q-115 -283 -187 -383q-143 -203 -350 -203q-168 0 -258 115q-82 102 -82 274q0 242 117 457q139 258 362 258
q96 0 166 -62.5t74 -156.5zM298 137q19 0 19 -18q0 -27 -14.5 -79t-14.5 -81q0 -55 36 -102t91 -47q144 0 244 237q72 170 92 365q-43 -2 -129 -2l16 53l105 -2q-2 80 -58.5 133t-136.5 53q-202 0 -331 -244q-107 -204 -107 -426q0 -364 295 -364q188 0 319 186
q52 76 172 353q64 143 107 264l-213 -2v-19q0 -176 -102 -381q-119 -239 -277 -239q-70 0 -115 56t-45 128q0 39 13 98q14 80 34 80zM1857 1590q-2 2 -5 9q-7 11 -7 18q0 39 50 70q43 27 84 53q42 35 42 86q0 20 -16.5 31.5t-40.5 11.5q-45 0 -77.5 -33t-32.5 -76
q0 -14 7 -23q8 -10 20 -10q29 0 56 26t27 55q0 7 -4 11.5t-11 4.5q-16 0 -29.5 -21t-24.5 -21l-7 9q0 24 20.5 40t41.5 16q18 0 29.5 -12t11.5 -27q0 -35 -34 -70t-72 -35q-58 0 -58 60q0 57 49 95q47 38 107 38q40 0 70 -17q36 -22 36 -59q0 -58 -59 -96q-53 -26 -105 -51
q-51 -26 -51 -55q0 -4 14 -21zM1684 1645q-4 -17 -7 -32q-5 -24 -3 -37q6 -42 39.5 -54.5t96.5 -5.5q82 10 138 50q47 33 89 87l26 1q-17 -29 -38 -56q-29 -39 -65 -71t-81 -54.5t-99 -28.5q-48 -5 -82 16t-42 73q-8 56 8 112h20z" />
    <glyph glyph-name="uni1EB3" unicode="&#x1eb3;" 
d="M86 53q0 -28 21 -28q55 0 176 200q117 195 117 262q0 43 -37 43q-78 0 -180 -200q-97 -185 -97 -277zM365 27q37 0 100.5 105.5t67.5 107.5l10 -11q0 -53 -79 -144t-132 -91q-26 0 -50 17.5t-24 43.5q0 64 45 168v0q-47 -67 -92 -135q-73 -94 -116 -94q-48 0 -79.5 40
t-31.5 89q0 127 111 274q116 156 239 156q78 0 86 -45l19 39h108q-55 -133 -110 -268q-93 -226 -93 -234q0 -18 21 -18zM491 777q-2 2 -5 9q-7 11 -7 18q0 39 50 70q43 27 84 53q42 35 42 86q0 20 -16.5 31.5t-40.5 11.5q-45 0 -77.5 -33t-32.5 -76q0 -14 7 -23
q8 -10 19 -10q30 0 57 26t27 55q0 7 -4 11.5t-11 4.5q-16 0 -29.5 -21t-24.5 -21l-7 9q0 24 20.5 40t41.5 16q18 0 29.5 -12t11.5 -27q0 -35 -34 -70t-72 -35q-58 0 -58 60q0 57 49 95q47 38 107 38q40 0 70 -17q36 -22 36 -59q0 -58 -59 -96q-53 -26 -105 -51
q-51 -26 -51 -55q0 -4 14 -21zM331 834q-4 -15 -7 -29q-4 -21 -2 -32q5 -37 35.5 -48.5t87.5 -4.5q75 9 125 44q43 29 81 77l24 1q-15 -26 -34 -50q-27 -34 -59.5 -62.5t-73.5 -48.5t-90 -25q-44 -5 -75 14t-38 65q-8 49 7 99h19z" />
    <glyph glyph-name="uni1EB4" unicode="&#x1eb4;" horiz-adv-x="1599" 
d="M2110 1819q-12 -141 -123 -141q-29 0 -85 28.5t-85 28.5q-49 0 -68 -31q-26 -43 -30 -45l-10 11q28 135 118 135q31 0 89.5 -29t93.5 -29q45 0 88 72h12zM1064 457h244q150 366 201 463q110 213 305 407q-211 0 -369 -149q-121 -117 -225 -342q-78 -191 -156 -379z
M786 461l235 -2q84 207 170 415q107 230 240 343q168 141 418 141h35q-148 -248 -420 -901h82l-17 -41h-82q-67 -156 -143 -367q12 -24 23 -24q63 0 158 159.5t106 161.5l10 -12q-4 -21 -66 -117q-47 -74 -94 -147q-67 -90 -135 -90q-43 0 -70 47q-20 36 -20 84q0 92 76 305
h-242q-29 -43 -59 -123q-23 -66 -47 -131q-115 -283 -187 -383q-143 -203 -350 -203q-168 0 -258 115q-82 102 -82 274q0 242 117 457q139 258 362 258q96 0 166 -62.5t74 -156.5zM298 137q19 0 19 -18q0 -27 -14.5 -79t-14.5 -81q0 -55 36 -102t91 -47q144 0 244 237
q72 170 92 365q-43 -2 -129 -2l16 53l105 -2q-2 80 -58.5 133t-136.5 53q-202 0 -331 -244q-107 -204 -107 -426q0 -364 295 -364q188 0 319 186q52 76 172 353q64 143 107 264l-213 -2v-19q0 -176 -102 -381q-119 -239 -277 -239q-70 0 -115 56t-45 128q0 39 13 98
q14 80 34 80zM1684 1645q-4 -17 -7 -32q-5 -24 -3 -37q6 -42 39.5 -54.5t96.5 -5.5q82 10 138 50q47 33 89 87l26 1q-17 -29 -38 -56q-29 -39 -65 -71t-81 -54.5t-99 -28.5q-48 -5 -82 16t-42 73q-8 56 8 112h20z" />
    <glyph glyph-name="uni1EB5" unicode="&#x1eb5;" 
d="M86 53q0 -28 21 -28q55 0 176 200q117 195 117 262q0 43 -37 43q-78 0 -180 -200q-97 -185 -97 -277zM365 27q37 0 100.5 105.5t67.5 107.5l10 -11q0 -53 -79 -144t-132 -91q-26 0 -50 17.5t-24 43.5q0 64 45 168v0q-47 -67 -92 -135q-73 -94 -116 -94q-48 0 -79.5 40
t-31.5 89q0 127 111 274q116 156 239 156q78 0 86 -45l19 39h108q-55 -133 -110 -268q-93 -226 -93 -234q0 -18 21 -18zM753 1011q-17 -141 -123 -141q-27 0 -84.5 28.5t-85.5 28.5q-51 0 -70 -30q-27 -45 -29 -45l-10 10q25 135 121 135q31 0 88 -28.5t92 -28.5q43 0 90 71
h11zM331 834q-4 -15 -7 -29q-4 -21 -2 -32q5 -37 35.5 -48.5t87.5 -4.5q75 9 125 44q43 29 81 77l24 1q-15 -26 -34 -50q-27 -34 -59.5 -62.5t-73.5 -48.5t-90 -25q-44 -5 -75 14t-38 65q-8 49 7 99h19z" />
    <glyph glyph-name="uni1EB6" unicode="&#x1eb6;" horiz-adv-x="1599" 
d="M1134 -184q0 -29 -21.5 -48.5t-50.5 -19.5q-31 0 -52.5 20.5t-21.5 51.5t22.5 51.5t53.5 20.5q29 0 49.5 -24t20.5 -52zM1064 457h244q150 366 201 463q110 213 305 407q-211 0 -369 -149q-121 -117 -225 -342q-78 -191 -156 -379zM786 461l235 -2q84 207 170 415
q107 230 240 343q168 141 418 141h35q-148 -248 -420 -901h82l-17 -41h-82q-67 -156 -143 -367q12 -24 23 -24q63 0 158 159.5t106 161.5l10 -12q-4 -21 -66 -117q-47 -74 -94 -147q-67 -90 -135 -90q-43 0 -70 47q-20 36 -20 84q0 92 76 305h-242q-29 -43 -59 -123
q-23 -66 -47 -131q-115 -283 -187 -383q-143 -203 -350 -203q-168 0 -258 115q-82 102 -82 274q0 242 117 457q139 258 362 258q96 0 166 -62.5t74 -156.5zM298 137q19 0 19 -18q0 -27 -14.5 -79t-14.5 -81q0 -55 36 -102t91 -47q144 0 244 237q72 170 92 365
q-43 -2 -129 -2l16 53l105 -2q-2 80 -58.5 133t-136.5 53q-202 0 -331 -244q-107 -204 -107 -426q0 -364 295 -364q188 0 319 186q52 76 172 353q64 143 107 264l-213 -2v-19q0 -176 -102 -381q-119 -239 -277 -239q-70 0 -115 56t-45 128q0 39 13 98q14 80 34 80z
M1684 1645q-4 -17 -7 -32q-5 -24 -3 -37q6 -42 39.5 -54.5t96.5 -5.5q82 10 138 50q47 33 89 87l26 1q-17 -29 -38 -56q-29 -39 -65 -71t-81 -54.5t-99 -28.5q-48 -5 -82 16t-42 73q-8 56 8 112h20z" />
    <glyph glyph-name="uni1EB7" unicode="&#x1eb7;" 
d="M86 53q0 -28 21 -28q55 0 176 200q117 195 117 262q0 43 -37 43q-78 0 -180 -200q-97 -185 -97 -277zM365 27q37 0 100.5 105.5t67.5 107.5l10 -11q0 -53 -79 -144t-132 -91q-26 0 -50 17.5t-24 43.5q0 64 45 168v0q-47 -67 -92 -135q-73 -94 -116 -94q-48 0 -79.5 40
t-31.5 89q0 127 111 274q116 156 239 156q78 0 86 -45l19 39h108q-55 -133 -110 -268q-93 -226 -93 -234q0 -18 21 -18zM227 -184q0 -29 -21.5 -48.5t-50.5 -19.5q-31 0 -52.5 20.5t-21.5 51.5t22.5 51.5t53.5 20.5q29 0 49.5 -24t20.5 -52zM331 834q-4 -15 -7 -29
q-4 -21 -2 -32q5 -37 35.5 -48.5t87.5 -4.5q75 9 125 44q43 29 81 77l24 1q-15 -26 -34 -50q-27 -34 -59.5 -62.5t-73.5 -48.5t-90 -25q-44 -5 -75 14t-38 65q-8 49 7 99h19z" />
    <glyph glyph-name="uni1EB8" unicode="&#x1eb8;" horiz-adv-x="1204" 
d="M1101 1210q0 86 -41 138q-71 -41 -131 -129q-63 -95 -63 -170q0 -35 22.5 -64t55.5 -29q69 0 118 97q39 80 39 157zM636 815q3 -31 86 -57q74 -23 117 -23q47 0 47 33q0 55 -186 55q-33 0 -61 -6zM596 801q-144 -6 -254 -191q-99 -164 -99 -315q0 -287 361 -287
q186 0 311 70q156 86 156 256q0 106 -113 168q-92 49 -209 49q-145 0 -278 -78q-15 10 -15 21q0 26 129 57q113 27 162 27q139 0 238 -56q118 -67 118 -196q0 -179 -174 -271q-139 -73 -336 -73q-204 0 -335 88q-154 104 -154 297q0 208 127 323q102 92 326 144
q-60 102 -60 208q0 160 135 269q127 102 289 102q66 0 148 -31q55 19 114 19h23l12 -12q-2 -11 -59 -19q-68 -10 -72 -12q41 -64 41 -141q0 -97 -45 -185q-55 -104 -143 -104q-41 0 -73 36.5t-32 79.5q0 103 62 187q38 51 145 137q-29 12 -76 12q-131 0 -248 -161
q-106 -150 -106 -285q0 -49 20 -88q17 0 50 2h51q186 0 186 -78q0 -61 -82 -61q-121 0 -241 92zM500 -184q0 -29 -21.5 -48.5t-49.5 -19.5q-31 0 -52.5 20.5t-21.5 51.5t22.5 51.5t53.5 20.5q28 0 48.5 -24t20.5 -52z" />
    <glyph glyph-name="uni1EB9" unicode="&#x1eb9;" horiz-adv-x="499" 
d="M103 109q0 -27 17 -58t44 -31q55 0 109 54q30 32 73 100q35 53 43 53h9l10 -10q-17 -78 -102 -150.5t-162 -72.5q-66 0 -109 44t-43 109q0 132 106 265q113 141 240 141q109 0 109 -104q0 -115 -103 -189q-94 -67 -215 -67q-26 -50 -26 -84zM371 494q0 32 -35 32
q-76 0 -197 -309h15q71 0 147 105q70 98 70 172zM156 -184q0 -29 -21.5 -48.5t-50.5 -19.5q-31 0 -52.5 20.5t-21.5 51.5t22.5 51.5t53.5 20.5q29 0 49.5 -24t20.5 -52z" />
    <glyph glyph-name="uni1EBA" unicode="&#x1eba;" horiz-adv-x="1204" 
d="M1101 1210q0 86 -41 138q-71 -41 -131 -129q-63 -95 -63 -170q0 -35 22.5 -64t55.5 -29q69 0 118 97q39 80 39 157zM636 815q3 -31 86 -57q74 -23 117 -23q47 0 47 33q0 55 -186 55q-33 0 -61 -6zM596 801q-144 -6 -254 -191q-99 -164 -99 -315q0 -287 361 -287
q186 0 311 70q156 86 156 256q0 106 -113 168q-92 49 -209 49q-145 0 -278 -78q-15 10 -15 21q0 26 129 57q113 27 162 27q139 0 238 -56q118 -67 118 -196q0 -179 -174 -271q-139 -73 -336 -73q-204 0 -335 88q-154 104 -154 297q0 208 127 323q102 92 326 144
q-60 102 -60 208q0 160 135 269q127 102 289 102q66 0 148 -31q55 19 114 19h23l12 -12q-2 -11 -59 -19q-68 -10 -72 -12q41 -64 41 -141q0 -97 -45 -185q-55 -104 -143 -104q-41 0 -73 36.5t-32 79.5q0 103 62 187q38 51 145 137q-29 12 -76 12q-131 0 -248 -161
q-106 -150 -106 -285q0 -49 20 -88q17 0 50 2h51q186 0 186 -78q0 -61 -82 -61q-121 0 -241 92zM950 1448q-2 2 -5 9q-6 11 -6 18q0 39 50 70q42 27 84 53q42 35 42 86q0 20 -16.5 31.5t-40.5 11.5q-46 0 -78 -33t-32 -76q0 -14 6 -23q9 -10 20 -10q29 0 56.5 26t27.5 55
q0 7 -4.5 11.5t-10.5 4.5q-16 0 -30 -21t-24 -21l-8 9q0 24 20.5 40t42.5 16q17 0 28.5 -12t11.5 -27q0 -35 -33.5 -70t-72.5 -35q-57 0 -57 60q0 57 49 95q46 38 107 38q40 0 70 -17q36 -22 36 -59q0 -58 -59 -96q-53 -26 -105 -51q-51 -26 -51 -55q0 -4 14 -21z" />
    <glyph glyph-name="uni1EBB" unicode="&#x1ebb;" horiz-adv-x="499" 
d="M103 109q0 -27 17 -58t44 -31q55 0 109 54q30 32 73 100q35 53 43 53h9l10 -10q-17 -78 -102 -150.5t-162 -72.5q-66 0 -109 44t-43 109q0 132 106 265q113 141 240 141q109 0 109 -104q0 -115 -103 -189q-94 -67 -215 -67q-26 -50 -26 -84zM371 494q0 32 -35 32
q-76 0 -197 -309h15q71 0 147 105q70 98 70 172zM344 583q-2 2 -5 9q-6 11 -6 18q0 39 50 70q42 27 83 53q43 35 43 86q0 20 -17 31.5t-41 11.5q-45 0 -77.5 -33t-32.5 -76q0 -14 7 -23q8 -10 20 -10q29 0 56 26t27 55q0 7 -4 11.5t-10 4.5q-16 0 -30 -21t-25 -21l-7 9
q0 24 20.5 40t42.5 16q17 0 28.5 -12t11.5 -27q0 -35 -34 -70t-72 -35q-57 0 -57 60q0 57 49 95q46 38 106 38q40 0 70 -17q37 -22 37 -59q0 -58 -60 -96q-53 -26 -105 -51q-51 -26 -51 -55q0 -4 14 -21z" />
    <glyph glyph-name="uni1EBC" unicode="&#x1ebc;" horiz-adv-x="1204" 
d="M1101 1210q0 86 -41 138q-71 -41 -131 -129q-63 -95 -63 -170q0 -35 22.5 -64t55.5 -29q69 0 118 97q39 80 39 157zM636 815q3 -31 86 -57q74 -23 117 -23q47 0 47 33q0 55 -186 55q-33 0 -61 -6zM596 801q-144 -6 -254 -191q-99 -164 -99 -315q0 -287 361 -287
q186 0 311 70q156 86 156 256q0 106 -113 168q-92 49 -209 49q-145 0 -278 -78q-15 10 -15 21q0 26 129 57q113 27 162 27q139 0 238 -56q118 -67 118 -196q0 -179 -174 -271q-139 -73 -336 -73q-204 0 -335 88q-154 104 -154 297q0 208 127 323q102 92 326 144
q-60 102 -60 208q0 160 135 269q127 102 289 102q66 0 148 -31q55 19 114 19h23l12 -12q-2 -11 -59 -19q-68 -10 -72 -12q41 -64 41 -141q0 -97 -45 -185q-55 -104 -143 -104q-41 0 -73 36.5t-32 79.5q0 103 62 187q38 51 145 137q-29 12 -76 12q-131 0 -248 -161
q-106 -150 -106 -285q0 -49 20 -88q17 0 50 2h51q186 0 186 -78q0 -61 -82 -61q-121 0 -241 92zM1234 1622q-12 -141 -122 -141q-29 0 -85.5 28.5t-84.5 28.5q-50 0 -68 -31q-27 -43 -31 -45l-10 11q29 135 119 135q31 0 89 -29t93 -29q45 0 88 72h12z" />
    <glyph glyph-name="uni1EBD" unicode="&#x1ebd;" horiz-adv-x="499" 
d="M103 109q0 -27 17 -58t44 -31q55 0 109 54q30 32 73 100q35 53 43 53h9l10 -10q-17 -78 -102 -150.5t-162 -72.5q-66 0 -109 44t-43 109q0 132 106 265q113 141 240 141q109 0 109 -104q0 -115 -103 -189q-94 -67 -215 -67q-26 -50 -26 -84zM371 494q0 32 -35 32
q-76 0 -197 -309h15q71 0 147 105q70 98 70 172zM650 829q-17 -141 -123 -141q-27 0 -84 28.5t-86 28.5q-51 0 -70 -30q-26 -45 -28 -45l-11 10q25 135 121 135q31 0 88.5 -28.5t91.5 -28.5q43 0 91 71h10z" />
    <glyph glyph-name="uni1EBE" unicode="&#x1ebe;" horiz-adv-x="1204" 
d="M1101 1210q0 86 -41 138q-71 -41 -131 -129q-63 -95 -63 -170q0 -35 22.5 -64t55.5 -29q69 0 118 97q39 80 39 157zM636 815q3 -31 86 -57q74 -23 117 -23q47 0 47 33q0 55 -186 55q-33 0 -61 -6zM596 801q-144 -6 -254 -191q-99 -164 -99 -315q0 -287 361 -287
q186 0 311 70q156 86 156 256q0 106 -113 168q-92 49 -209 49q-145 0 -278 -78q-15 10 -15 21q0 26 129 57q113 27 162 27q139 0 238 -56q118 -67 118 -196q0 -179 -174 -271q-139 -73 -336 -73q-204 0 -335 88q-154 104 -154 297q0 208 127 323q102 92 326 144
q-60 102 -60 208q0 160 135 269q127 102 289 102q66 0 148 -31q55 19 114 19h23l12 -12q-2 -11 -59 -19q-68 -10 -72 -12q41 -64 41 -141q0 -97 -45 -185q-55 -104 -143 -104q-41 0 -73 36.5t-32 79.5q0 103 62 187q38 51 145 137q-29 12 -76 12q-131 0 -248 -161
q-106 -150 -106 -285q0 -49 20 -88q17 0 50 2h51q186 0 186 -78q0 -61 -82 -61q-121 0 -241 92zM1325 1939q33 0 33 -41q0 -62 -82 -133q-64 -60 -138 -93l-10 13q74 55 105 98q2 2 32 94q23 62 60 62zM1064 1772q45 -185 111 -250l-13 -11q-67 48 -123 156
q-129 -115 -237 -149v8q188 147 244 246h18z" />
    <glyph glyph-name="uni1EBF" unicode="&#x1ebf;" horiz-adv-x="499" 
d="M682 1104q31 0 31 -39q0 -61 -80 -133q-61 -55 -137 -92l-10 12q37 29 102 98q17 47 31 92q22 62 63 62zM103 109q0 -27 17 -58t44 -31q55 0 109 54q30 32 73 100q35 53 43 53h9l10 -10q-17 -78 -102 -150.5t-162 -72.5q-66 0 -109 44t-43 109q0 132 106 265
q113 141 240 141q109 0 109 -104q0 -115 -103 -189q-94 -67 -215 -67q-26 -50 -26 -84zM371 494q0 32 -35 32q-76 0 -197 -309h15q71 0 147 105q70 98 70 172zM441 928q49 -180 110 -248l-12 -10q-70 51 -121 155q-125 -110 -240 -149v8q181 139 246 244h17z" />
    <glyph glyph-name="uni1EC0" unicode="&#x1ec0;" horiz-adv-x="1204" 
d="M1101 1210q0 86 -41 138q-71 -41 -131 -129q-63 -95 -63 -170q0 -35 22.5 -64t55.5 -29q69 0 118 97q39 80 39 157zM636 815q3 -31 86 -57q74 -23 117 -23q47 0 47 33q0 55 -186 55q-33 0 -61 -6zM596 801q-144 -6 -254 -191q-99 -164 -99 -315q0 -287 361 -287
q186 0 311 70q156 86 156 256q0 106 -113 168q-92 49 -209 49q-145 0 -278 -78q-15 10 -15 21q0 26 129 57q113 27 162 27q139 0 238 -56q118 -67 118 -196q0 -179 -174 -271q-139 -73 -336 -73q-204 0 -335 88q-154 104 -154 297q0 208 127 323q102 92 326 144
q-60 102 -60 208q0 160 135 269q127 102 289 102q66 0 148 -31q55 19 114 19h23l12 -12q-2 -11 -59 -19q-68 -10 -72 -12q41 -64 41 -141q0 -97 -45 -185q-55 -104 -143 -104q-41 0 -73 36.5t-32 79.5q0 103 62 187q38 51 145 137q-29 12 -76 12q-131 0 -248 -161
q-106 -150 -106 -285q0 -49 20 -88q17 0 50 2h51q186 0 186 -78q0 -61 -82 -61q-121 0 -241 92zM1188 1741q-70 33 -135 91q-84 71 -84 127q0 49 43 49q28 0 43 -45q30 -93 50.5 -123.5t92.5 -85.5zM1064 1772q45 -185 111 -250l-13 -11q-67 48 -123 156
q-129 -115 -237 -149v8q188 147 244 246h18z" />
    <glyph glyph-name="uni1EC1" unicode="&#x1ec1;" horiz-adv-x="499" 
d="M103 109q0 -27 17 -58t44 -31q55 0 109 54q30 32 73 100q35 53 43 53h9l10 -10q-17 -78 -102 -150.5t-162 -72.5q-66 0 -109 44t-43 109q0 132 106 265q113 141 240 141q109 0 109 -104q0 -115 -103 -189q-94 -67 -215 -67q-26 -50 -26 -84zM371 494q0 32 -35 32
q-76 0 -197 -309h15q71 0 147 105q70 98 70 172zM566 875q-70 32 -134 90q-84 74 -84 129q0 45 43 45q29 0 52 -64q28 -88 30 -90q21 -30 103 -98zM441 928q49 -180 110 -248l-12 -10q-70 51 -121 155q-125 -110 -240 -149v8q181 139 246 244h17z" />
    <glyph glyph-name="uni1EC2" unicode="&#x1ec2;" horiz-adv-x="1204" 
d="M1101 1210q0 86 -41 138q-71 -41 -131 -129q-63 -95 -63 -170q0 -35 22.5 -64t55.5 -29q69 0 118 97q39 80 39 157zM636 815q3 -31 86 -57q74 -23 117 -23q47 0 47 33q0 55 -186 55q-33 0 -61 -6zM596 801q-144 -6 -254 -191q-99 -164 -99 -315q0 -287 361 -287
q186 0 311 70q156 86 156 256q0 106 -113 168q-92 49 -209 49q-145 0 -278 -78q-15 10 -15 21q0 26 129 57q113 27 162 27q139 0 238 -56q118 -67 118 -196q0 -179 -174 -271q-139 -73 -336 -73q-204 0 -335 88q-154 104 -154 297q0 208 127 323q102 92 326 144
q-60 102 -60 208q0 160 135 269q127 102 289 102q66 0 148 -31q55 19 114 19h23l12 -12q-2 -11 -59 -19q-68 -10 -72 -12q41 -64 41 -141q0 -97 -45 -185q-55 -104 -143 -104q-41 0 -73 36.5t-32 79.5q0 103 62 187q38 51 145 137q-29 12 -76 12q-131 0 -248 -161
q-106 -150 -106 -285q0 -49 20 -88q17 0 50 2h51q186 0 186 -78q0 -61 -82 -61q-121 0 -241 92zM1146 1645q-2 2 -5 9q-6 11 -6 18q0 39 50 70q42 27 84 53q42 35 42 86q0 20 -16.5 31.5t-40.5 11.5q-46 0 -78 -33t-32 -76q0 -14 6 -23q9 -10 20 -10q29 0 56.5 26t27.5 55
q0 7 -4.5 11.5t-10.5 4.5q-16 0 -30 -21t-24 -21l-8 9q0 24 20.5 40t42.5 16q17 0 28.5 -12t11.5 -27q0 -35 -33.5 -70t-72.5 -35q-57 0 -57 60q0 57 49 95q46 38 107 38q40 0 70 -17q36 -22 36 -59q0 -58 -59 -96q-53 -26 -105 -51q-51 -26 -51 -55q0 -4 14 -21zM1064 1772
q45 -185 111 -250l-13 -11q-67 48 -123 156q-129 -115 -237 -149v8q188 147 244 246h18z" />
    <glyph glyph-name="uni1EC3" unicode="&#x1ec3;" horiz-adv-x="499" 
d="M103 109q0 -27 17 -58t44 -31q55 0 109 54q30 32 73 100q35 53 43 53h9l10 -10q-17 -78 -102 -150.5t-162 -72.5q-66 0 -109 44t-43 109q0 132 106 265q113 141 240 141q109 0 109 -104q0 -115 -103 -189q-94 -67 -215 -67q-26 -50 -26 -84zM371 494q0 32 -35 32
q-76 0 -197 -309h15q71 0 147 105q70 98 70 172zM509 816q-2 2 -5 9q-6 11 -6 18q0 39 50 70q42 27 83 53q43 35 43 86q0 20 -17 31.5t-41 11.5q-45 0 -77.5 -33t-32.5 -76q0 -14 7 -23q8 -10 20 -10q29 0 56 26t27 55q0 7 -4 11.5t-10 4.5q-16 0 -30 -21t-25 -21l-7 9
q0 24 20.5 40t42.5 16q17 0 28.5 -12t11.5 -27q0 -35 -34 -70t-72 -35q-57 0 -57 60q0 57 49 95q46 38 106 38q40 0 70 -17q37 -22 37 -59q0 -58 -60 -96q-53 -26 -105 -51q-51 -26 -51 -55q0 -4 14 -21zM441 928q49 -180 110 -248l-12 -10q-70 51 -121 155
q-125 -110 -239 -149v8q180 139 245 244h17z" />
    <glyph glyph-name="uni1EC4" unicode="&#x1ec4;" horiz-adv-x="1204" 
d="M1101 1210q0 86 -41 138q-71 -41 -131 -129q-63 -95 -63 -170q0 -35 22.5 -64t55.5 -29q69 0 118 97q39 80 39 157zM636 815q3 -31 86 -57q74 -23 117 -23q47 0 47 33q0 55 -186 55q-33 0 -61 -6zM596 801q-144 -6 -254 -191q-99 -164 -99 -315q0 -287 361 -287
q186 0 311 70q156 86 156 256q0 106 -113 168q-92 49 -209 49q-145 0 -278 -78q-15 10 -15 21q0 26 129 57q113 27 162 27q139 0 238 -56q118 -67 118 -196q0 -179 -174 -271q-139 -73 -336 -73q-204 0 -335 88q-154 104 -154 297q0 208 127 323q102 92 326 144
q-60 102 -60 208q0 160 135 269q127 102 289 102q66 0 148 -31q55 19 114 19h23l12 -12q-2 -11 -59 -19q-68 -10 -72 -12q41 -64 41 -141q0 -97 -45 -185q-55 -104 -143 -104q-41 0 -73 36.5t-32 79.5q0 103 62 187q38 51 145 137q-29 12 -76 12q-131 0 -248 -161
q-106 -150 -106 -285q0 -49 20 -88q17 0 50 2h51q186 0 186 -78q0 -61 -82 -61q-121 0 -241 92zM1296 1908q-12 -141 -122 -141q-29 0 -85.5 28.5t-84.5 28.5q-50 0 -68 -31q-27 -43 -31 -45l-10 11q29 135 119 135q31 0 89 -29t93 -29q45 0 88 72h12zM1064 1772
q45 -185 111 -250l-13 -11q-67 48 -123 156q-129 -115 -237 -149v8q188 147 244 246h18z" />
    <glyph glyph-name="uni1EC5" unicode="&#x1ec5;" horiz-adv-x="499" 
d="M103 109q0 -27 17 -58t44 -31q55 0 109 54q30 32 73 100q35 53 43 53h9l10 -10q-17 -78 -102 -150.5t-162 -72.5q-66 0 -109 44t-43 109q0 132 106 265q113 141 240 141q109 0 109 -104q0 -115 -103 -189q-94 -67 -215 -67q-26 -50 -26 -84zM371 494q0 32 -35 32
q-76 0 -197 -309h15q71 0 147 105q70 98 70 172zM690 1066q-17 -141 -123 -141q-27 0 -84 28.5t-86 28.5q-51 0 -70 -30q-26 -45 -28 -45l-11 10q25 135 121 135q31 0 88.5 -28.5t91.5 -28.5q43 0 91 71h10zM441 928q49 -180 110 -248l-12 -10q-70 51 -121 155
q-125 -110 -239 -149v8q180 139 245 244h17z" />
    <glyph glyph-name="uni1EC6" unicode="&#x1ec6;" horiz-adv-x="1204" 
d="M1101 1210q0 86 -41 138q-71 -41 -131 -129q-63 -95 -63 -170q0 -35 22.5 -64t55.5 -29q69 0 118 97q39 80 39 157zM636 815q3 -31 86 -57q74 -23 117 -23q47 0 47 33q0 55 -186 55q-33 0 -61 -6zM596 801q-144 -6 -254 -191q-99 -164 -99 -315q0 -287 361 -287
q186 0 311 70q156 86 156 256q0 106 -113 168q-92 49 -209 49q-145 0 -278 -78q-15 10 -15 21q0 26 129 57q113 27 162 27q139 0 238 -56q118 -67 118 -196q0 -179 -174 -271q-139 -73 -336 -73q-204 0 -335 88q-154 104 -154 297q0 208 127 323q102 92 326 144
q-60 102 -60 208q0 160 135 269q127 102 289 102q66 0 148 -31q55 19 114 19h23l12 -12q-2 -11 -59 -19q-68 -10 -72 -12q41 -64 41 -141q0 -97 -45 -185q-55 -104 -143 -104q-41 0 -73 36.5t-32 79.5q0 103 62 187q38 51 145 137q-29 12 -76 12q-131 0 -248 -161
q-106 -150 -106 -285q0 -49 20 -88q17 0 50 2h51q186 0 186 -78q0 -61 -82 -61q-121 0 -241 92zM500 -184q0 -29 -21.5 -48.5t-49.5 -19.5q-31 0 -52.5 20.5t-21.5 51.5t22.5 51.5t53.5 20.5q28 0 48.5 -24t20.5 -52zM1064 1772q45 -185 111 -250l-13 -11q-67 48 -123 156
q-129 -115 -237 -149v8q188 147 244 246h18z" />
    <glyph glyph-name="uni1EC7" unicode="&#x1ec7;" horiz-adv-x="499" 
d="M103 109q0 -27 17 -58t44 -31q55 0 109 54q30 32 73 100q35 53 43 53h9l10 -10q-17 -78 -102 -150.5t-162 -72.5q-66 0 -109 44t-43 109q0 132 106 265q113 141 240 141q109 0 109 -104q0 -115 -103 -189q-94 -67 -215 -67q-26 -50 -26 -84zM371 494q0 32 -35 32
q-76 0 -197 -309h15q71 0 147 105q70 98 70 172zM156 -184q0 -29 -21.5 -48.5t-50.5 -19.5q-31 0 -52.5 20.5t-21.5 51.5t22.5 51.5t53.5 20.5q29 0 49.5 -24t20.5 -52zM441 928q49 -180 110 -248l-12 -10q-70 51 -121 155q-125 -110 -239 -149v8q180 139 245 244h17z" />
    <glyph glyph-name="uni1EC8" unicode="&#x1ec8;" horiz-adv-x="1374" 
d="M1270 1333q-74 0 -164 -141q-139 -217 -139 -504q0 -205 73 -346q95 158 199 434q119 311 119 451q0 106 -88 106zM1298 1370q78 0 123 -94q35 -74 35 -162q0 -192 -117 -467q-106 -252 -241 -424q14 -20 149 -200l-6 -11l-14 -6l-8 4q-68 64 -146 185
q-96 -138 -285 -213q-167 -68 -352 -68q-174 0 -311 76q-168 92 -168 252q0 176 176 274q146 80 338 80q129 0 219 -53q109 -66 109 -185q0 -127 -135 -196q-111 -58 -252 -58q-56 0 -162 29q-125 33 -125 66q0 2 3 12t3 12q127 -88 295 -88q129 0 221 51q115 64 115 181
q0 106 -107 157q-80 41 -198 41q-174 0 -305 -73q-160 -91 -160 -250q0 -136 147 -219q125 -74 271 -74q358 0 606 358q-86 176 -86 379q0 199 90 416q111 268 278 268zM1310 1448q-2 2 -5 9q-7 11 -7 18q0 39 50 70q43 27 84 53q42 35 42 86q0 20 -16.5 31.5t-40.5 11.5
q-45 0 -77.5 -33t-32.5 -76q0 -14 7 -23q8 -10 20 -10q29 0 56 26t27 55q0 7 -4 11.5t-11 4.5q-16 0 -29.5 -21t-24.5 -21l-7 9q0 24 20.5 40t41.5 16q18 0 29.5 -12t11.5 -27q0 -35 -34 -70t-72 -35q-58 0 -58 60q0 57 49 95q47 38 107 38q40 0 70 -17q36 -22 36 -59
q0 -58 -59 -96q-53 -26 -105 -51q-51 -26 -51 -55q0 -4 14 -21z" />
    <glyph glyph-name="uni1EC9" unicode="&#x1ec9;" horiz-adv-x="342" 
d="M157 510q0 14 -17 14q-35 0 -95 -104.5t-71 -106.5l-12 13q0 53 83 140t138 87q72 0 72 -55q0 -70 -85 -248t-85 -209q0 -14 18 -14q37 0 98.5 104.5t67.5 106.5l12 -13q-6 -63 -77 -143q-76 -86 -138 -86q-77 0 -77 57q0 68 84 244t84 213zM229 618q-3 2 -6 9
q-6 11 -6 18q0 39 50 70q43 27 84 53q42 35 42 86q0 20 -16.5 31.5t-40.5 11.5q-45 0 -77.5 -33t-32.5 -76q0 -14 7 -23q8 -10 19 -10q30 0 57 26t27 55q0 7 -4.5 11.5t-10.5 4.5q-16 0 -29.5 -21t-24.5 -21l-7 9q0 24 20.5 40t41.5 16q18 0 29.5 -12t11.5 -27
q0 -35 -34 -70t-72 -35q-58 0 -58 60q0 57 49 95q46 38 107 38q40 0 70 -17q36 -22 36 -59q0 -58 -59 -96q-53 -26 -105 -51q-51 -26 -51 -55q0 -4 14 -21z" />
    <glyph glyph-name="uni1ECA" unicode="&#x1eca;" horiz-adv-x="1374" 
d="M1270 1333q-74 0 -164 -141q-139 -217 -139 -504q0 -205 73 -346q95 158 199 434q119 311 119 451q0 106 -88 106zM1298 1370q78 0 123 -94q35 -74 35 -162q0 -192 -117 -467q-106 -252 -241 -424q14 -20 149 -200l-6 -11l-14 -6l-8 4q-68 64 -146 185
q-96 -138 -285 -213q-167 -68 -352 -68q-174 0 -311 76q-168 92 -168 252q0 176 176 274q146 80 338 80q129 0 219 -53q109 -66 109 -185q0 -127 -135 -196q-111 -58 -252 -58q-56 0 -162 29q-125 33 -125 66q0 2 3 12t3 12q127 -88 295 -88q129 0 221 51q115 64 115 181
q0 106 -107 157q-80 41 -198 41q-174 0 -305 -73q-160 -91 -160 -250q0 -136 147 -219q125 -74 271 -74q358 0 606 358q-86 176 -86 379q0 199 90 416q111 268 278 268zM911 -184q0 -29 -21.5 -48.5t-50.5 -19.5q-31 0 -52.5 20.5t-21.5 51.5t22.5 51.5t53.5 20.5
q29 0 49.5 -24t20.5 -52z" />
    <glyph glyph-name="uni1ECB" unicode="&#x1ecb;" horiz-adv-x="342" 
d="M156 510q0 14 -16 14q-35 0 -95.5 -104.5t-70.5 -106.5l-12 13q0 53 83 140t138 87q72 0 72 -55q0 -70 -85 -248t-85 -209q0 -14 18 -14q37 0 98.5 104.5t67.5 106.5l12 -13q-6 -63 -77 -143q-76 -86 -138 -86q-77 0 -77 57q0 68 83.5 244t83.5 213zM49 -184
q0 -29 -21.5 -48.5t-49.5 -19.5q-31 0 -52.5 20.5t-21.5 51.5t22.5 51.5t53.5 20.5q28 0 48.5 -24t20.5 -52zM341 744q0 -30 -22.5 -52.5t-54.5 -22.5q-30 0 -52 23t-22 55q0 30 22.5 52t54.5 22q30 0 52 -23.5t22 -53.5z" />
    <glyph glyph-name="uni1ECC" unicode="&#x1ecc;" horiz-adv-x="1392" 
d="M1433 971q0 -348 -229 -656q-250 -333 -588 -333q-217 0 -345 129t-128 346q0 221 174 411q170 185 393 219q199 277 396 277q157 0 247 -121q80 -108 80 -272zM1310 1085q0 105 -62.5 172.5t-164.5 67.5q-92 0 -190 -80q-84 -67 -142 -160q33 0 90 -10q70 -10 70 -24
q0 -15 -18 -17q-15 -2 -39 0q-33 4 -35 4q-43 0 -98 -10q-89 -82 -158 -272q-58 -158 -78 -310l-4 -40q-6 -29 -25 -31l-12 8q6 334 221 631q-157 -62 -267 -233t-110 -343q0 -170 80 -288q94 -136 258 -136q189 0 336 189q119 151 230 422q118 288 118 460zM651 -184
q0 -29 -21.5 -48.5t-49.5 -19.5q-31 0 -52.5 20.5t-21.5 51.5t22.5 51.5t53.5 20.5q28 0 48.5 -24t20.5 -52z" />
    <glyph glyph-name="uni1ECD" unicode="&#x1ecd;" horiz-adv-x="497" 
d="M107 113q0 -74 63 -74q64 0 131 92q55 74 80 150q-102 32 -102 133q0 139 98 139q63 0 63 -98q0 -136 -86 -287q-96 -174 -221 -174q-59 0 -100 59q-37 51 -37 113q0 117 86 250q96 143 207 143q2 0 8 -3t8 -3q-65 -64 -131.5 -209t-66.5 -231zM183 -184
q0 -29 -21.5 -48.5t-50.5 -19.5q-31 0 -52.5 20.5t-21.5 51.5t22.5 51.5t53.5 20.5q29 0 49.5 -24t20.5 -52z" />
    <glyph glyph-name="uni1ECE" unicode="&#x1ece;" horiz-adv-x="1392" 
d="M1433 971q0 -348 -229 -656q-250 -333 -588 -333q-217 0 -345 129t-128 346q0 221 174 411q170 185 393 219q199 277 396 277q157 0 247 -121q80 -108 80 -272zM1310 1085q0 105 -62.5 172.5t-164.5 67.5q-92 0 -190 -80q-84 -67 -142 -160q33 0 90 -10q70 -10 70 -24
q0 -15 -18 -17q-15 -2 -39 0q-33 4 -35 4q-43 0 -98 -10q-89 -82 -158 -272q-58 -158 -78 -310l-4 -40q-6 -29 -25 -31l-12 8q6 334 221 631q-157 -62 -267 -233t-110 -343q0 -170 80 -288q94 -136 258 -136q189 0 336 189q119 151 230 422q118 288 118 460zM1173 1448
q-2 2 -5 9q-6 11 -6 18q0 39 50 70q42 27 84 53q42 35 42 86q0 20 -16.5 31.5t-40.5 11.5q-45 0 -77.5 -33t-32.5 -76q0 -14 7 -23q8 -10 19 -10q30 0 57 26t27 55q0 7 -4.5 11.5t-10.5 4.5q-16 0 -29.5 -21t-24.5 -21l-8 9q0 24 21 40t42 16q17 0 28.5 -12t11.5 -27
q0 -35 -33.5 -70t-72.5 -35q-57 0 -57 60q0 57 49 95q46 38 107 38q40 0 70 -17q36 -22 36 -59q0 -58 -59 -96q-53 -26 -105 -51q-51 -26 -51 -55q0 -4 14 -21z" />
    <glyph glyph-name="uni1ECF" unicode="&#x1ecf;" horiz-adv-x="497" 
d="M107 113q0 -74 63 -74q64 0 131 92q55 74 80 150q-102 32 -102 133q0 139 98 139q63 0 63 -98q0 -136 -86 -287q-96 -174 -221 -174q-59 0 -100 59q-37 51 -37 113q0 117 86 250q96 143 207 143q2 0 8 -3t8 -3q-65 -64 -131.5 -209t-66.5 -231zM344 583q-2 2 -5 9
q-7 11 -7 18q0 39 50 70q43 27 84 53q42 35 42 86q0 20 -16.5 31.5t-40.5 11.5q-45 0 -77.5 -33t-32.5 -76q0 -14 7 -23q8 -10 20 -10q29 0 56 26t27 55q0 7 -4 11.5t-11 4.5q-15 0 -29 -21t-25 -21l-7 9q0 24 20.5 40t42.5 16q17 0 28.5 -12t11.5 -27q0 -35 -34 -70
t-72 -35q-58 0 -58 60q0 57 50 95q46 38 106 38q40 0 70 -17q36 -22 36 -59q0 -58 -59 -96q-53 -26 -105 -51q-51 -26 -51 -55q0 -4 14 -21z" />
    <glyph glyph-name="uni1ED0" unicode="&#x1ed0;" horiz-adv-x="1392" 
d="M1433 971q0 -348 -229 -656q-250 -333 -588 -333q-217 0 -345 129t-128 346q0 221 174 411q170 185 393 219q199 277 396 277q157 0 247 -121q80 -108 80 -272zM1310 1085q0 105 -62.5 172.5t-164.5 67.5q-92 0 -190 -80q-84 -67 -142 -160q33 0 90 -10q70 -10 70 -24
q0 -15 -18 -17q-15 -2 -39 0q-33 4 -35 4q-43 0 -98 -10q-89 -82 -158 -272q-58 -158 -78 -310l-4 -40q-6 -29 -25 -31l-12 8q6 334 221 631q-157 -62 -267 -233t-110 -343q0 -170 80 -288q94 -136 258 -136q189 0 336 189q119 151 230 422q118 288 118 460zM1467 1893
q35 0 35 -39q0 -60 -82 -134q-63 -57 -137 -92l-10 13q74 57 102 98q2 2 33 92q23 62 59 62zM1224 1718q52 -188 111 -248l-12 -10q-72 53 -121 154q-125 -111 -240 -148v9q180 139 246 243h16z" />
    <glyph glyph-name="uni1ED1" unicode="&#x1ed1;" horiz-adv-x="497" 
d="M107 113q0 -74 63 -74q64 0 131 92q55 74 80 150q-102 32 -102 133q0 139 98 139q63 0 63 -98q0 -136 -86 -287q-96 -174 -221 -174q-59 0 -100 59q-37 51 -37 113q0 119 86 248q96 143 209 143q6 0 14 -4q-65 -64 -131.5 -209t-66.5 -231zM672 1112q34 0 34 -39
q0 -59 -81 -133q-64 -57 -138 -92l-10 12q74 57 102 98q3 2 33 92q21 62 60 62zM426 928q51 -185 111 -248l-13 -10q-67 47 -122 155q-123 -112 -240 -149v8q180 139 246 244h18z" />
    <glyph glyph-name="uni1ED2" unicode="&#x1ed2;" horiz-adv-x="1392" 
d="M1433 971q0 -348 -229 -656q-250 -333 -588 -333q-217 0 -345 129t-128 346q0 221 174 411q170 185 393 219q199 277 396 277q157 0 247 -121q80 -108 80 -272zM1310 1085q0 105 -62.5 172.5t-164.5 67.5q-92 0 -190 -80q-84 -67 -142 -160q33 0 90 -10q70 -10 70 -24
q0 -15 -18 -17q-15 -2 -39 0q-33 4 -35 4q-43 0 -98 -10q-89 -82 -158 -272q-58 -158 -78 -310l-4 -40q-6 -29 -25 -31l-12 8q6 334 221 631q-157 -62 -267 -233t-110 -343q0 -170 80 -288q94 -136 258 -136q189 0 336 189q119 151 230 422q118 288 118 460zM1348 1682
q-70 33 -135 90q-84 72 -84 127q0 47 43 47q28 0 53 -63q14 -45 31 -90q30 -47 102 -98zM1224 1718q52 -188 111 -248l-12 -10q-72 53 -121 154q-125 -111 -240 -148v9q180 139 246 243h16z" />
    <glyph glyph-name="uni1ED3" unicode="&#x1ed3;" horiz-adv-x="497" 
d="M107 113q0 -74 63 -74q64 0 131 92q55 74 80 150q-102 32 -102 133q0 139 98 139q63 0 63 -98q0 -136 -86 -287q-96 -174 -221 -174q-59 0 -100 59q-37 51 -37 113q0 119 88 250q96 143 207 143q16 -6 14 -6q-65 -64 -131.5 -209t-66.5 -231zM557 877q-68 33 -134 90
q-81 72 -81 127q0 47 41 47q28 0 51 -64q28 -88 30 -90q21 -30 103 -98zM426 928q51 -185 111 -248l-13 -10q-67 47 -122 155q-123 -112 -240 -149v8q180 139 246 244h18z" />
    <glyph glyph-name="uni1ED4" unicode="&#x1ed4;" horiz-adv-x="1392" 
d="M1433 971q0 -348 -229 -656q-250 -333 -588 -333q-217 0 -345 129t-128 346q0 221 174 411q170 185 393 219q199 277 396 277q157 0 247 -121q80 -108 80 -272zM1310 1085q0 105 -62.5 172.5t-164.5 67.5q-92 0 -190 -80q-84 -67 -142 -160q33 0 90 -10q70 -10 70 -24
q0 -15 -18 -17q-15 -2 -39 0q-33 4 -35 4q-43 0 -98 -10q-89 -82 -158 -272q-58 -158 -78 -310l-4 -40q-6 -29 -25 -31l-12 8q6 334 221 631q-157 -62 -267 -233t-110 -343q0 -170 80 -288q94 -136 258 -136q189 0 336 189q119 151 230 422q118 288 118 460zM1296 1605
q-2 2 -5 9q-6 11 -6 18q0 39 50 70q42 27 84 53q42 35 42 86q0 20 -16.5 31.5t-40.5 11.5q-45 0 -77.5 -33t-32.5 -76q0 -14 7 -23q8 -10 19 -10q30 0 57 26t27 55q0 7 -4.5 11.5t-10.5 4.5q-16 0 -29.5 -21t-24.5 -21l-8 9q0 24 21 40t42 16q17 0 28.5 -12t11.5 -27
q0 -35 -33.5 -70t-72.5 -35q-57 0 -57 60q0 57 49 95q46 38 107 38q40 0 70 -17q36 -22 36 -59q0 -58 -59 -96q-53 -26 -105 -51q-51 -26 -51 -55q0 -4 14 -21zM1224 1718q51 -188 111 -248l-13 -10q-71 53 -121 154q-124 -111 -239 -148v9q180 139 246 243h16z" />
    <glyph glyph-name="uni1ED5" unicode="&#x1ed5;" horiz-adv-x="497" 
d="M107 113q0 -74 63 -74q64 0 131 92q55 74 80 150q-102 32 -102 133q0 139 98 139q63 0 63 -98q0 -136 -86 -287q-96 -174 -221 -174q-59 0 -100 59q-37 51 -37 113q0 117 86 250q96 143 207 143q2 0 8 -3t8 -3q-65 -64 -131.5 -209t-66.5 -231zM503 824q-2 2 -5 9
q-7 11 -7 18q0 39 50 70q43 27 84 53q42 35 42 86q0 20 -16.5 31.5t-40.5 11.5q-45 0 -77.5 -33t-32.5 -76q0 -14 7 -23q8 -10 20 -10q29 0 56 26t27 55q0 7 -4 11.5t-11 4.5q-15 0 -29 -21t-25 -21l-7 9q0 24 20.5 40t42.5 16q17 0 28.5 -12t11.5 -27q0 -35 -34 -70
t-72 -35q-58 0 -58 60q0 57 50 95q46 38 106 38q40 0 70 -17q36 -22 36 -59q0 -58 -59 -96q-53 -26 -105 -51q-51 -26 -51 -55q0 -4 14 -21zM426 928q51 -185 111 -248l-13 -10q-67 47 -122 155q-123 -112 -240 -149v8q180 139 246 244h18z" />
    <glyph glyph-name="uni1ED6" unicode="&#x1ed6;" horiz-adv-x="1392" 
d="M1433 971q0 -348 -229 -656q-250 -333 -588 -333q-217 0 -345 129t-128 346q0 221 174 411q170 185 393 219q199 277 396 277q157 0 247 -121q80 -108 80 -272zM1310 1085q0 105 -62.5 172.5t-164.5 67.5q-92 0 -190 -80q-84 -67 -142 -160q33 0 90 -10q70 -10 70 -24
q0 -15 -18 -17q-15 -2 -39 0q-33 4 -35 4q-43 0 -98 -10q-89 -82 -158 -272q-58 -158 -78 -310l-4 -40q-6 -29 -25 -31l-12 8q6 334 221 631q-157 -62 -267 -233t-110 -343q0 -170 80 -288q94 -136 258 -136q189 0 336 189q119 151 230 422q118 288 118 460zM1485 1863
q-12 -141 -121 -141q-29 0 -85 28.5t-87 28.5q-49 0 -68 -31l-28 -45l-13 10q29 136 121 136q29 0 86.5 -29t83.5 -29q39 0 62 19q12 12 37 53h12zM1224 1718q52 -188 111 -248l-12 -10q-72 53 -121 154q-125 -111 -240 -148v9q180 139 246 243h16z" />
    <glyph glyph-name="uni1ED7" unicode="&#x1ed7;" horiz-adv-x="497" 
d="M107 113q0 -74 63 -74q64 0 131 92q55 74 80 150q-102 32 -102 133q0 139 98 139q63 0 63 -98q0 -136 -86 -287q-96 -174 -221 -174q-59 0 -100 59q-37 51 -37 113q0 117 86 250q96 143 207 143q2 0 8 -3t8 -3q-65 -64 -131.5 -209t-66.5 -231zM699 1061
q-12 -141 -121 -141q-26 0 -83.5 28.5t-86.5 28.5q-49 0 -69 -30q-29 -43 -31 -45l-10 10q30 135 108 135q39 0 99.5 -28.5t95.5 -28.5q47 0 86 71h12zM426 928q51 -185 111 -248l-13 -10q-67 47 -122 155q-123 -112 -240 -149v8q180 139 246 244h18z" />
    <glyph glyph-name="uni1ED8" unicode="&#x1ed8;" horiz-adv-x="1392" 
d="M1433 971q0 -348 -229 -656q-250 -333 -588 -333q-217 0 -345 129t-128 346q0 221 174 411q170 185 393 219q199 277 396 277q157 0 247 -121q80 -108 80 -272zM1310 1085q0 105 -62.5 172.5t-164.5 67.5q-92 0 -190 -80q-84 -67 -142 -160q33 0 90 -10q70 -10 70 -24
q0 -15 -18 -17q-15 -2 -39 0q-33 4 -35 4q-43 0 -98 -10q-89 -82 -158 -272q-58 -158 -78 -310l-4 -40q-6 -29 -25 -31l-12 8q6 334 221 631q-157 -62 -267 -233t-110 -343q0 -170 80 -288q94 -136 258 -136q189 0 336 189q119 151 230 422q118 288 118 460zM651 -184
q0 -29 -21.5 -48.5t-49.5 -19.5q-31 0 -52.5 20.5t-21.5 51.5t22.5 51.5t53.5 20.5q28 0 48.5 -24t20.5 -52zM1224 1718q51 -188 111 -248l-13 -10q-71 53 -121 154q-124 -111 -239 -148v9q180 139 246 243h16z" />
    <glyph glyph-name="uni1ED9" unicode="&#x1ed9;" horiz-adv-x="497" 
d="M107 113q0 -74 63 -74q64 0 131 92q55 74 80 150q-102 32 -102 133q0 139 98 139q63 0 63 -98q0 -136 -86 -287q-96 -174 -221 -174q-59 0 -100 59q-37 51 -37 113q0 117 86 250q96 143 207 143q2 0 8 -3t8 -3q-65 -64 -131.5 -209t-66.5 -231zM183 -184
q0 -29 -21.5 -48.5t-50.5 -19.5q-31 0 -52.5 20.5t-21.5 51.5t22.5 51.5t53.5 20.5q29 0 49.5 -24t20.5 -52zM426 928q51 -185 111 -248l-13 -10q-67 47 -122 155q-123 -112 -240 -149v8q180 139 246 244h18z" />
    <glyph glyph-name="uni1EDA" unicode="&#x1eda;" horiz-adv-x="1392" 
d="M1310 1085q0 105 -62.5 172.5t-164.5 67.5q-92 0 -190 -80q-84 -67 -142 -160q33 0 90 -10q70 -10 70 -24q0 -15 -18 -17q-15 -2 -39 0q-33 4 -35 4q-43 0 -98 -10q-89 -82 -158 -272q-58 -158 -78 -310l-4 -40q-6 -29 -25 -31l-12 8q6 334 221 631q-157 -62 -267 -233
t-110 -343q0 -170 80 -288q94 -136 258 -136q189 0 336 189q119 151 230 422q118 288 118 460zM1269 1729q35 0 35 -39q0 -60 -82 -134q-63 -57 -137 -92l-10 13q74 57 102 98q2 2 33 92q23 62 59 62zM1417 1106q16 -62 16 -135q0 -348 -229 -656q-250 -333 -588 -333
q-217 0 -345 129t-128 346q0 221 174 411q170 185 393 219q199 277 396 277q157 0 247 -121q36 -49 56 -109q16 14 41 34q51 41 51 65l-2 2q-19 -3 -32 -3q-72 0 -72 60q0 49 40.5 91.5t89.5 42.5q75 0 75 -65q0 -69 -75 -163q-60 -76 -108 -92z" />
    <glyph glyph-name="uni1EDB" unicode="&#x1edb;" horiz-adv-x="497" 
d="M492 934q34 0 34 -39q0 -59 -81 -133q-64 -57 -138 -92l-10 12q74 57 102 98q3 2 33 92q21 62 60 62zM440 462v-7q0 -136 -86 -287q-96 -174 -221 -174q-59 0 -100 59q-37 51 -37 113q0 119 86 248q96 143 209 143q6 0 14 -4q-65 -64 -131.5 -209t-66.5 -231
q0 -74 63 -74q64 0 131 92q55 74 80 150q-102 32 -102 133q0 139 98 139q50 0 60 -61q10 8 22 17q41 33 41 53l-2 1q-15 -2 -26 -2q-58 0 -58 48q0 40 33 74.5t73 34.5q60 0 60 -53q0 -56 -60 -132q-44 -56 -80 -71z" />
    <glyph glyph-name="uni1EDC" unicode="&#x1edc;" horiz-adv-x="1392" 
d="M1310 1085q0 105 -62.5 172.5t-164.5 67.5q-92 0 -190 -80q-84 -67 -142 -160q33 0 90 -10q70 -10 70 -24q0 -15 -18 -17q-15 -2 -39 0q-33 4 -35 4q-43 0 -98 -10q-89 -82 -158 -272q-58 -158 -78 -310l-4 -40q-6 -29 -25 -31l-12 8q6 334 221 631q-157 -62 -267 -233
t-110 -343q0 -170 80 -288q94 -136 258 -136q189 0 336 189q119 151 230 422q118 288 118 460zM1157 1460q-70 33 -135 90q-84 72 -84 127q0 47 43 47q28 0 53 -63q14 -45 31 -90q30 -47 102 -98zM1417 1106q16 -62 16 -135q0 -348 -229 -656q-250 -333 -588 -333
q-217 0 -345 129t-128 346q0 221 174 411q170 185 393 219q199 277 396 277q157 0 247 -121q36 -49 56 -109q16 14 41 34q51 41 51 65l-2 2q-19 -3 -32 -3q-72 0 -72 60q0 49 40.5 91.5t89.5 42.5q75 0 75 -65q0 -69 -75 -163q-60 -76 -108 -92z" />
    <glyph glyph-name="uni1EDD" unicode="&#x1edd;" horiz-adv-x="497" 
d="M405 672q-68 33 -134 90q-81 72 -81 127q0 47 41 47q28 0 51 -64q28 -88 30 -90q21 -30 103 -98zM440 462v-7q0 -136 -86 -287q-96 -174 -221 -174q-59 0 -100 59q-37 51 -37 113q0 119 88 250q96 143 207 143q16 -6 14 -6q-65 -64 -131.5 -209t-66.5 -231q0 -74 63 -74
q64 0 131 92q55 74 80 150q-102 32 -102 133q0 139 98 139q50 0 60 -61q10 8 22 17q41 33 41 53l-2 1q-15 -2 -26 -2q-58 0 -58 48q0 40 33 74.5t73 34.5q60 0 60 -53q0 -56 -60 -132q-44 -56 -80 -71z" />
    <glyph glyph-name="uni1EDE" unicode="&#x1ede;" horiz-adv-x="1392" 
d="M1311 1085q0 105 -62.5 172.5t-165.5 67.5q-92 0 -190 -80q-84 -67 -141 -160q32 0 90 -10q69 -10 69 -24q0 -15 -18 -17q-14 -2 -39 0q-33 4 -35 4q-43 0 -98 -10q-88 -82 -158 -272q-57 -158 -78 -310l-4 -40q-6 -29 -24 -31l-13 8q7 334 222 631q-158 -62 -267.5 -233
t-109.5 -343q0 -170 80 -288q94 -136 258 -136q188 0 336 189q118 151 229 422q119 288 119 460zM1174 1448q-2 2 -5 9q-7 11 -7 18q0 39 50 70q43 27 84 53q42 35 42 86q0 20 -16.5 31.5t-40.5 11.5q-45 0 -77.5 -33t-32.5 -76q0 -14 7 -23q8 -10 20 -10q29 0 56 26t27 55
q0 7 -4 11.5t-11 4.5q-16 0 -29.5 -21t-24.5 -21l-7 9q0 24 20.5 40t41.5 16q18 0 29.5 -12t11.5 -27q0 -35 -34 -70t-72 -35q-58 0 -58 60q0 57 49 95q47 38 107 38q40 0 70 -17q36 -22 36 -59q0 -58 -59 -96q-53 -26 -105 -51q-51 -26 -51 -55q0 -4 14 -21zM1418 1106
q16 -62 16 -135q0 -348 -230 -656q-250 -333 -588 -333q-217 0 -345 129t-128 346q0 221 174 411q170 185 394 219q198 277 395 277q158 0 248 -121q36 -49 56 -108q15 13 40 33q51 41 51 65l-2 2q-19 -3 -32 -3q-72 0 -72 60q0 49 40.5 91.5t89.5 42.5q75 0 75 -65
q0 -69 -75 -163q-59 -75 -107 -92z" />
    <glyph glyph-name="uni1EDF" unicode="&#x1edf;" horiz-adv-x="497" 
d="M363 646q-2 2 -5 9q-7 11 -7 18q0 39 50 70q43 27 84 53q42 35 42 86q0 20 -16.5 31.5t-40.5 11.5q-45 0 -77.5 -33t-32.5 -76q0 -14 7 -23q8 -10 19 -10q30 0 57 26t27 55q0 7 -4 11.5t-11 4.5q-16 0 -29.5 -21t-24.5 -21l-7 9q0 24 20.5 40t41.5 16q18 0 29.5 -12
t11.5 -27q0 -35 -34 -70t-72 -35q-58 0 -58 60q0 57 49 95q47 38 107 38q40 0 70 -17q36 -22 36 -59q0 -58 -59 -96q-53 -26 -105 -51q-51 -26 -51 -55q0 -4 14 -21zM440 462v-7q0 -136 -86 -287q-96 -174 -221 -174q-59 0 -100 59q-37 51 -37 113q0 117 86 250
q96 143 207 143q2 0 8 -3t8 -3q-65 -64 -132 -209t-67 -231q0 -74 64 -74q63 0 131 92q55 74 80 150q-102 32 -102 133q0 139 98 139q50 0 60 -61q10 8 22 17q41 33 41 53l-2 1q-15 -2 -26 -2q-58 0 -58 48q0 40 33 74.5t73 34.5q60 0 60 -53q0 -56 -60 -132
q-44 -56 -80 -71z" />
    <glyph glyph-name="uni1EE0" unicode="&#x1ee0;" horiz-adv-x="1392" 
d="M1310 1085q0 105 -62.5 172.5t-164.5 67.5q-92 0 -190 -80q-84 -67 -142 -160q33 0 90 -10q70 -10 70 -24q0 -15 -18 -17q-15 -2 -39 0q-33 4 -35 4q-43 0 -98 -10q-89 -82 -158 -272q-58 -158 -78 -310l-4 -40q-6 -29 -25 -31l-12 8q6 334 221 631q-157 -62 -267 -233
t-110 -343q0 -170 80 -288q94 -136 258 -136q189 0 336 189q119 151 230 422q118 288 118 460zM1376 1620q-12 -141 -121 -141q-29 0 -85 28.5t-87 28.5q-49 0 -68 -31l-28 -45l-13 10q29 136 121 136q29 0 86.5 -29t83.5 -29q39 0 62 19q12 12 37 53h12zM1417 1106
q16 -62 16 -135q0 -348 -229 -656q-250 -333 -588 -333q-217 0 -345 129t-128 346q0 221 174 411q170 185 393 219q199 277 396 277q157 0 247 -121q36 -49 56 -109q16 14 41 34q51 41 51 65l-2 2q-19 -3 -32 -3q-72 0 -72 60q0 49 40.5 91.5t89.5 42.5q75 0 75 -65
q0 -69 -75 -163q-60 -76 -108 -92z" />
    <glyph glyph-name="uni1EE1" unicode="&#x1ee1;" horiz-adv-x="497" 
d="M595 873q-12 -141 -121 -141q-26 0 -83.5 28.5t-86.5 28.5q-49 0 -69 -30q-29 -43 -31 -45l-10 10q30 135 108 135q39 0 99.5 -28.5t95.5 -28.5q47 0 86 71h12zM440 462v-7q0 -136 -86 -287q-96 -174 -221 -174q-59 0 -100 59q-37 51 -37 113q0 117 86 250
q96 143 207 143q2 0 8 -3t8 -3q-65 -64 -131.5 -209t-66.5 -231q0 -74 63 -74q64 0 131 92q55 74 80 150q-102 32 -102 133q0 139 98 139q50 0 60 -61q10 8 22 17q41 33 41 53l-2 1q-15 -2 -26 -2q-58 0 -58 48q0 40 33 74.5t73 34.5q60 0 60 -53q0 -56 -60 -132
q-44 -56 -80 -71z" />
    <glyph glyph-name="uni1EE2" unicode="&#x1ee2;" horiz-adv-x="1392" 
d="M1311 1085q0 105 -62.5 172.5t-165.5 67.5q-92 0 -190 -80q-84 -67 -141 -160q32 0 90 -10q69 -10 69 -24q0 -15 -18 -17q-14 -2 -39 0q-33 4 -35 4q-43 0 -98 -10q-88 -82 -158 -272q-57 -158 -78 -310l-4 -40q-6 -29 -24 -31l-13 8q7 334 222 631q-158 -62 -267.5 -233
t-109.5 -343q0 -170 80 -288q94 -136 258 -136q188 0 336 189q118 151 229 422q119 288 119 460zM652 -184q0 -29 -21.5 -48.5t-50.5 -19.5q-31 0 -52.5 20.5t-21.5 51.5t22.5 51.5t53.5 20.5q29 0 49.5 -24t20.5 -52zM1418 1106q16 -62 16 -135q0 -348 -230 -656
q-250 -333 -588 -333q-217 0 -345 129t-128 346q0 221 174 411q170 185 394 219q198 277 395 277q158 0 248 -121q36 -49 56 -108q15 13 40 33q51 41 51 65l-2 2q-19 -3 -32 -3q-72 0 -72 60q0 49 40.5 91.5t89.5 42.5q75 0 75 -65q0 -69 -75 -163q-59 -75 -107 -92z" />
    <glyph glyph-name="uni1EE3" unicode="&#x1ee3;" horiz-adv-x="497" 
d="M183 -184q0 -29 -21.5 -48.5t-50.5 -19.5q-31 0 -52.5 20.5t-21.5 51.5t22.5 51.5t53.5 20.5q29 0 49.5 -24t20.5 -52zM440 462v-7q0 -136 -86 -287q-96 -174 -221 -174q-59 0 -100 59q-37 51 -37 113q0 117 86 250q96 143 207 143q2 0 8 -3t8 -3q-65 -64 -132 -209
t-67 -231q0 -74 64 -74q63 0 131 92q55 74 80 150q-102 32 -102 133q0 139 98 139q50 0 60 -61q10 8 22 17q41 33 41 53l-2 1q-15 -2 -26 -2q-58 0 -58 48q0 40 33 74.5t73 34.5q60 0 60 -53q0 -56 -60 -132q-44 -56 -80 -71z" />
    <glyph glyph-name="uni1EE4" unicode="&#x1ee4;" horiz-adv-x="1658" 
d="M1337 72q0 -37 25 -37q74 0 149 137q49 100 99 203l8 4l16 -12q-2 -72 -104 -215q-109 -150 -174 -150q-52 0 -80 66q-23 49 -23 108q0 105 66 289q-129 -234 -166 -289q-135 -201 -229 -201q-46 0 -77.5 49.5t-31.5 96.5q0 137 138 439t138 468q0 125 -57 199
q-63 82 -186 82q-226 0 -396 -244q-157 -223 -157 -457q0 -92 39 -157q49 -78 137 -78q184 0 326 231q124 205 124 404q0 45 -24.5 83.5t-67.5 38.5q-223 0 -342 -442q-8 -26 -18 -26l-14 10q2 149 112 311q123 176 266 176q58 0 93 -47q28 -43 28 -102q0 -207 -131 -424
q-149 -246 -342 -246q-110 0 -168 80q-51 69 -51 184q0 256 170 486q184 251 430 251q160 0 262.5 -102t102.5 -260q0 -137 -82 -340q-11 -27 -156 -334q-82 -176 -82 -250q0 -41 37 -41q100 0 383 518q190 347 328 652l151 16q-133 -293 -264 -586q-205 -467 -205 -542z
M1141 -184q0 -29 -21.5 -48.5t-49.5 -19.5q-31 0 -52.5 20.5t-21.5 51.5t22.5 51.5t53.5 20.5q29 0 49 -24t20 -52z" />
    <glyph glyph-name="uni1EE5" unicode="&#x1ee5;" horiz-adv-x="626" 
d="M72 -4q-27 0 -51.5 23.5t-24.5 50.5q0 30 94.5 226t94.5 212t-21 16q-33 0 -96.5 -104.5t-71.5 -106.5l-12 9q0 61 81 146t140 85q74 0 74 -57q0 -62 -70 -224q-53 -110 -106 -223q6 -10 16 -10q45 0 172 178q68 94 156 330h121l-207 -506q0 -16 18 -16q33 0 96.5 104
t69.5 107l10 -11q0 -26 -51 -104t-78 -101q-32 -26 -80 -26q-32 0 -55.5 23.5t-23.5 56.5q0 28 32 112q-129 -190 -227 -190zM245 -184q0 -29 -21.5 -48.5t-50.5 -19.5q-30 0 -51.5 20.5t-21.5 51.5t22.5 51.5t52.5 20.5q29 0 49.5 -24t20.5 -52z" />
    <glyph glyph-name="uni1EE6" unicode="&#x1ee6;" horiz-adv-x="1658" 
d="M1337 72q0 -37 25 -37q74 0 149 137q49 100 99 203l8 4l16 -12q-2 -72 -104 -215q-109 -150 -174 -150q-52 0 -80 66q-23 49 -23 108q0 105 66 289q-129 -234 -166 -289q-135 -201 -229 -201q-46 0 -77.5 49.5t-31.5 96.5q0 137 138 439t138 468q0 125 -57 199
q-63 82 -186 82q-226 0 -396 -244q-157 -223 -157 -457q0 -92 39 -157q49 -78 137 -78q184 0 326 231q124 205 124 404q0 45 -24.5 83.5t-67.5 38.5q-223 0 -342 -442q-8 -26 -18 -26l-14 10q2 149 112 311q123 176 266 176q58 0 93 -47q28 -43 28 -102q0 -207 -131 -424
q-149 -246 -342 -246q-110 0 -168 80q-51 69 -51 184q0 256 170 486q184 251 430 251q160 0 262.5 -102t102.5 -260q0 -137 -82 -340q-11 -27 -156 -334q-82 -176 -82 -250q0 -41 37 -41q100 0 383 518q190 347 328 652l151 16q-133 -293 -264 -586q-205 -467 -205 -542z
M1451 1279q-3 2 -6 9q-6 11 -6 18q0 39 50 70q43 27 84 53q42 35 42 86q0 20 -16.5 31.5t-40.5 11.5q-45 0 -77.5 -33t-32.5 -76q0 -14 7 -23q8 -10 19 -10q30 0 57 26t27 55q0 7 -4.5 11.5t-10.5 4.5q-16 0 -29.5 -21t-24.5 -21l-7 9q0 24 20.5 40t41.5 16q17 0 29 -12
t12 -27q0 -35 -34 -70t-72 -35q-58 0 -58 60q0 57 49 95q46 38 107 38q40 0 70 -17q36 -22 36 -59q0 -58 -59 -96q-53 -26 -105 -51q-51 -26 -51 -55q0 -4 14 -21z" />
    <glyph glyph-name="uni1EE7" unicode="&#x1ee7;" horiz-adv-x="626" 
d="M72 -4q-27 0 -51.5 23.5t-24.5 50.5q0 30 94.5 226t94.5 212t-21 16q-33 0 -96.5 -104.5t-71.5 -106.5l-12 9q0 61 81 146t140 85q74 0 74 -57q0 -62 -70 -224q-53 -110 -106 -223q6 -10 16 -10q45 0 172 178q68 94 156 330h121l-207 -506q0 -16 18 -16q33 0 96.5 104
t69.5 107l10 -11q0 -26 -51 -104t-78 -101q-32 -26 -80 -26q-32 0 -55.5 23.5t-23.5 56.5q0 28 32 112q-129 -190 -227 -190zM362 583q-2 2 -5 9q-6 11 -6 18q0 39 50 70q42 27 84 53q42 35 42 86q0 20 -16.5 31.5t-40.5 11.5q-46 0 -78.5 -33t-32.5 -76q0 -14 7 -23
q8 -10 20 -10q29 0 56 26t27 55q0 7 -4 11.5t-10 4.5q-16 0 -30 -21t-24 -21l-8 9q0 24 20.5 40t42.5 16q17 0 28.5 -12t11.5 -27q0 -35 -34 -70t-72 -35q-57 0 -57 60q0 57 49 95q46 38 107 38q39 0 70 -17q36 -22 36 -59q0 -58 -60 -96q-53 -26 -104 -51q-51 -26 -51 -55
q0 -4 13 -21z" />
    <glyph glyph-name="uni1EE8" unicode="&#x1ee8;" horiz-adv-x="1658" 
d="M1634 1563q31 0 31 -41q0 -62 -80 -133q-66 -60 -137 -91l-10 13q69 47 102 98q16 47 33 92q22 62 61 62zM1762 1103q-111 -244 -220 -489q-205 -467 -205 -542q0 -37 25 -37q74 0 149 137q49 100 99 203l8 4l16 -12q-2 -72 -104 -215q-109 -150 -174 -150q-52 0 -80 66
q-23 49 -23 108q0 105 66 289q-129 -234 -166 -289q-135 -201 -229 -201q-46 0 -77.5 49.5t-31.5 96.5q0 137 138 439t138 468q0 125 -57 199q-63 82 -186 82q-226 0 -396 -244q-157 -223 -157 -457q0 -92 39 -157q49 -78 137 -78q184 0 326 231q124 205 124 404
q0 45 -24.5 83.5t-67.5 38.5q-223 0 -342 -442q-8 -26 -18 -26l-14 10q2 149 112 311q123 176 266 176q58 0 93 -47q28 -43 28 -102q0 -207 -131 -424q-149 -246 -342 -246q-110 0 -168 80q-51 69 -51 184q0 256 170 486q184 251 430 251q160 0 262.5 -102t102.5 -260
q0 -137 -82 -340q-11 -27 -156 -334q-82 -176 -82 -250q0 -41 37 -41q100 0 383 518q190 347 328 652l151 16q-10 -22 -20 -45q7 6 16 13q51 41 51 65l-2 2q-19 -3 -32 -3q-72 0 -72 60q0 49 40.5 91.5t89.5 42.5q75 0 75 -65q0 -69 -75 -163q-64 -81 -115 -95z" />
    <glyph glyph-name="uni1EE9" unicode="&#x1ee9;" horiz-adv-x="626" 
d="M521 932q30 0 30 -39q0 -62 -80 -133q-61 -55 -137 -92l-10 12q37 29 102 98q17 47 31 92q23 62 64 62zM531 458l-170 -417q0 -16 18 -16q33 0 96.5 104t69.5 107l10 -11q0 -26 -51 -104t-78 -101q-32 -26 -80 -26q-32 0 -55.5 23.5t-23.5 56.5q0 28 32 112
q-129 -190 -227 -190q-27 0 -51.5 23.5t-24.5 50.5q0 30 94.5 226t94.5 212t-21 16q-33 0 -96.5 -104.5t-71.5 -106.5l-12 9q0 61 81 146t140 85q74 0 74 -57q0 -62 -70 -224q-53 -110 -106 -223q6 -10 16 -10q45 0 172 178q68 94 156 330h121l-20 -48q6 5 13 10
q41 33 41 53l-2 1q-15 -2 -26 -2q-58 0 -58 48q0 40 33 74.5t73 34.5q60 0 60 -53q0 -56 -60 -132q-50 -64 -91 -75z" />
    <glyph glyph-name="uni1EEA" unicode="&#x1eea;" horiz-adv-x="1658" 
d="M1462 1298q-67 29 -135 91q-84 71 -84 127q0 47 43 47q27 0 49 -66q31 -86 33 -88q37 -51 104 -98zM1762 1103q-111 -244 -220 -489q-205 -467 -205 -542q0 -37 25 -37q74 0 149 137q49 100 99 203l8 4l16 -12q-2 -72 -104 -215q-109 -150 -174 -150q-52 0 -80 66
q-23 49 -23 108q0 105 66 289q-129 -234 -166 -289q-135 -201 -229 -201q-46 0 -77.5 49.5t-31.5 96.5q0 137 138 439t138 468q0 125 -57 199q-63 82 -186 82q-226 0 -396 -244q-157 -223 -157 -457q0 -92 39 -157q49 -78 137 -78q184 0 326 231q124 205 124 404
q0 45 -24.5 83.5t-67.5 38.5q-223 0 -342 -442q-8 -26 -18 -26l-14 10q2 149 112 311q123 176 266 176q58 0 93 -47q28 -43 28 -102q0 -207 -131 -424q-149 -246 -342 -246q-110 0 -168 80q-51 69 -51 184q0 256 170 486q184 251 430 251q160 0 262.5 -102t102.5 -260
q0 -137 -82 -340q-11 -27 -156 -334q-82 -176 -82 -250q0 -41 37 -41q100 0 383 518q190 347 328 652l151 16q-10 -22 -20 -45q7 6 16 13q51 41 51 65l-2 2q-19 -3 -32 -3q-72 0 -72 60q0 49 40.5 91.5t89.5 42.5q75 0 75 -65q0 -69 -75 -163q-64 -81 -115 -95z" />
    <glyph glyph-name="uni1EEB" unicode="&#x1eeb;" horiz-adv-x="626" 
d="M465 670q-69 32 -133 90q-84 71 -84 127q0 47 43 47q29 0 51 -64q29 -88 31 -90q23 -32 103 -98zM531 458l-170 -417q0 -16 18 -16q33 0 96.5 104t69.5 107l10 -11q0 -26 -51 -104t-78 -101q-32 -26 -80 -26q-32 0 -55.5 23.5t-23.5 56.5q0 28 32 112
q-129 -190 -227 -190q-27 0 -51.5 23.5t-24.5 50.5q0 30 94.5 226t94.5 212t-21 16q-33 0 -96.5 -104.5t-71.5 -106.5l-12 9q0 61 81 146t140 85q74 0 74 -57q0 -62 -70 -224q-53 -110 -106 -223q6 -10 16 -10q45 0 172 178q68 94 156 330h121l-20 -48q6 5 13 10
q41 33 41 53l-2 1q-15 -2 -26 -2q-58 0 -58 48q0 40 33 74.5t73 34.5q60 0 60 -53q0 -56 -60 -132q-50 -64 -91 -75z" />
    <glyph glyph-name="uni1EEC" unicode="&#x1eec;" horiz-adv-x="1658" 
d="M1451 1279q-2 2 -5 9q-7 11 -7 18q0 39 50 70q43 27 84 53q42 35 42 86q0 20 -16.5 31.5t-40.5 11.5q-45 0 -77.5 -33t-32.5 -76q0 -14 7 -23q8 -10 20 -10q29 0 56 26t27 55q0 7 -4 11.5t-11 4.5q-16 0 -29.5 -21t-24.5 -21l-7 9q0 24 20.5 40t41.5 16q18 0 29.5 -12
t11.5 -27q0 -35 -34 -70t-72 -35q-58 0 -58 60q0 57 49 95q47 38 107 38q40 0 70 -17q36 -22 36 -59q0 -58 -59 -96q-53 -26 -105 -51q-51 -26 -51 -55q0 -4 14 -21zM1762 1103q-111 -244 -220 -489q-205 -467 -205 -542q0 -37 25 -37q74 0 149 137q50 100 99 203l8 4
l16 -12q-2 -72 -104 -215q-109 -150 -174 -150q-51 0 -80 66q-23 49 -23 108q0 105 66 289q-129 -234 -166 -289q-135 -201 -229 -201q-45 0 -77 49.5t-32 96.5q0 137 138.5 439t138.5 468q0 125 -58 199q-63 82 -186 82q-225 0 -395 -244q-158 -223 -158 -457
q0 -92 39 -157q49 -78 137 -78q184 0 326 231q125 205 125 404q0 45 -25 83.5t-68 38.5q-223 0 -342 -442q-8 -26 -18 -26l-14 10q2 149 112 311q123 176 267 176q57 0 92 -47q28 -43 28 -102q0 -207 -131 -424q-149 -246 -342 -246q-110 0 -168 80q-51 69 -51 184
q0 256 170 486q184 251 430 251q160 0 262.5 -102t102.5 -260q0 -137 -82 -340q-10 -27 -156 -334q-82 -176 -82 -250q0 -41 37 -41q100 0 383 518q191 347 328 652l151 16q-10 -22 -20 -45q7 6 16 13q51 41 51 65l-2 2q-19 -3 -32 -3q-72 0 -72 60q0 49 40.5 91.5
t89.5 42.5q75 0 75 -65q0 -69 -75 -163q-64 -81 -115 -95z" />
    <glyph glyph-name="uni1EED" unicode="&#x1eed;" horiz-adv-x="626" 
d="M362 583q-2 2 -5 9q-7 11 -7 18q0 39 50 70q43 27 84 53q42 35 42 86q0 20 -16.5 31.5t-40.5 11.5q-45 0 -77.5 -33t-32.5 -76q0 -14 7 -23q8 -10 19 -10q30 0 57 26t27 55q0 7 -4 11.5t-11 4.5q-16 0 -29.5 -21t-24.5 -21l-7 9q0 24 20.5 40t41.5 16q18 0 29.5 -12
t11.5 -27q0 -35 -34 -70t-72 -35q-58 0 -58 60q0 57 49 95q47 38 107 38q40 0 70 -17q36 -22 36 -59q0 -58 -59 -96q-53 -26 -105 -51q-51 -26 -51 -55q0 -4 14 -21zM530 457l-170 -416q0 -16 19 -16q33 0 96.5 104t69.5 107l10 -11q0 -26 -51 -104t-78 -101
q-33 -26 -80 -26q-33 0 -56.5 23.5t-23.5 56.5q0 28 33 112q-129 -190 -227 -190q-27 0 -51.5 23.5t-24.5 50.5q0 30 94 226t94 212t-20 16q-33 0 -96.5 -104.5t-71.5 -106.5l-12 9q0 61 80.5 146t140.5 85q74 0 74 -57q0 -62 -70 -224q-53 -110 -107 -223q7 -10 17 -10
q45 0 172 178q67 94 155 330h121l-20 -49q6 5 14 11q41 33 41 53l-2 1q-15 -2 -26 -2q-58 0 -58 48q0 40 33 74.5t73 34.5q60 0 60 -53q0 -56 -60 -132q-51 -65 -92 -76z" />
    <glyph glyph-name="uni1EEE" unicode="&#x1eee;" horiz-adv-x="1658" 
d="M1689 1451q-12 -141 -121 -141q-29 0 -85 28.5t-87 28.5q-49 0 -68 -31l-28 -45l-13 10q29 136 121 136q29 0 86.5 -29t83.5 -29q39 0 62 19q12 12 37 53h12zM1762 1103q-111 -244 -220 -489q-205 -467 -205 -542q0 -37 25 -37q74 0 149 137q50 100 99 203l8 4l16 -12
q-2 -72 -104 -215q-109 -150 -174 -150q-51 0 -80 66q-23 49 -23 108q0 105 66 289q-129 -234 -166 -289q-135 -201 -229 -201q-45 0 -77 49.5t-32 96.5q0 137 138.5 439t138.5 468q0 125 -58 199q-63 82 -186 82q-225 0 -395 -244q-158 -223 -158 -457q0 -92 39 -157
q49 -78 137 -78q184 0 326 231q125 205 125 404q0 45 -25 83.5t-68 38.5q-223 0 -342 -442q-8 -26 -18 -26l-14 10q2 149 112 311q123 176 267 176q57 0 92 -47q28 -43 28 -102q0 -207 -131 -424q-149 -246 -342 -246q-110 0 -168 80q-51 69 -51 184q0 256 170 486
q184 251 430 251q160 0 262.5 -102t102.5 -260q0 -137 -82 -340q-10 -27 -156 -334q-82 -176 -82 -250q0 -41 37 -41q100 0 383 518q191 347 328 652l151 16q-10 -22 -20 -45q7 6 16 13q51 41 51 65l-2 2q-19 -3 -32 -3q-72 0 -72 60q0 49 40.5 91.5t89.5 42.5q75 0 75 -65
q0 -69 -75 -163q-64 -81 -115 -95z" />
    <glyph glyph-name="uni1EEF" unicode="&#x1eef;" horiz-adv-x="626" 
d="M674 882q-12 -141 -121 -141q-26 0 -83.5 28.5t-86.5 28.5q-49 0 -69 -30q-29 -43 -31 -45l-10 10q30 135 108 135q39 0 99.5 -28.5t95.5 -28.5q47 0 86 71h12zM530 457l-170 -416q0 -16 19 -16q33 0 96.5 104t69.5 107l10 -11q0 -26 -51 -104t-78 -101q-33 -26 -80 -26
q-33 0 -56.5 23.5t-23.5 56.5q0 28 33 112q-129 -190 -227 -190q-27 0 -51.5 23.5t-24.5 50.5q0 30 94 226t94 212t-20 16q-33 0 -96.5 -104.5t-71.5 -106.5l-12 9q0 61 80.5 146t140.5 85q74 0 74 -57q0 -62 -70 -224q-53 -110 -107 -223q7 -10 17 -10q45 0 172 178
q67 94 155 330h121l-20 -49q6 5 14 11q41 33 41 53l-2 1q-15 -2 -26 -2q-58 0 -58 48q0 40 33 74.5t73 34.5q60 0 60 -53q0 -56 -60 -132q-51 -65 -92 -76z" />
    <glyph glyph-name="uni1EF0" unicode="&#x1ef0;" horiz-adv-x="1658" 
d="M1142 -184q0 -29 -21.5 -48.5t-50.5 -19.5q-31 0 -52.5 20.5t-21.5 51.5t22.5 51.5t53.5 20.5q29 0 49.5 -24t20.5 -52zM1762 1103q-111 -244 -220 -489q-205 -467 -205 -542q0 -37 25 -37q74 0 149 137q50 100 99 203l8 4l16 -12q-2 -72 -104 -215q-109 -150 -174 -150
q-51 0 -80 66q-23 49 -23 108q0 105 66 289q-129 -234 -166 -289q-135 -201 -229 -201q-45 0 -77 49.5t-32 96.5q0 137 138.5 439t138.5 468q0 125 -58 199q-63 82 -186 82q-225 0 -395 -244q-158 -223 -158 -457q0 -92 39 -157q49 -78 137 -78q184 0 326 231
q125 205 125 404q0 45 -25 83.5t-68 38.5q-223 0 -342 -442q-8 -26 -18 -26l-14 10q2 149 112 311q123 176 267 176q57 0 92 -47q28 -43 28 -102q0 -207 -131 -424q-149 -246 -342 -246q-110 0 -168 80q-51 69 -51 184q0 256 170 486q184 251 430 251q160 0 262.5 -102
t102.5 -260q0 -137 -82 -340q-10 -27 -156 -334q-82 -176 -82 -250q0 -41 37 -41q100 0 383 518q191 347 328 652l151 16q-10 -22 -20 -45q7 6 16 13q51 41 51 65l-2 2q-19 -3 -32 -3q-72 0 -72 60q0 49 40.5 91.5t89.5 42.5q75 0 75 -65q0 -69 -75 -163q-64 -81 -115 -95z
" />
    <glyph glyph-name="uni1EF1" unicode="&#x1ef1;" horiz-adv-x="626" 
d="M245 -184q0 -29 -21.5 -48.5t-50.5 -19.5q-31 0 -52.5 20.5t-21.5 51.5t22.5 51.5t53.5 20.5q29 0 49.5 -24t20.5 -52zM530 457l-170 -416q0 -16 19 -16q33 0 96.5 104t69.5 107l10 -11q0 -26 -51 -104t-78 -101q-33 -26 -80 -26q-33 0 -56.5 23.5t-23.5 56.5
q0 28 33 112q-129 -190 -227 -190q-27 0 -51.5 23.5t-24.5 50.5q0 30 94 226t94 212t-20 16q-33 0 -96.5 -104.5t-71.5 -106.5l-12 9q0 61 80.5 146t140.5 85q74 0 74 -57q0 -62 -70 -224q-53 -110 -107 -223q7 -10 17 -10q45 0 172 178q67 94 155 330h121l-20 -49
q6 5 14 11q41 33 41 53l-2 1q-15 -2 -26 -2q-58 0 -58 48q0 40 33 74.5t73 34.5q60 0 60 -53q0 -56 -60 -132q-51 -65 -92 -76z" />
    <glyph glyph-name="Ygrave" unicode="&#x1ef2;" horiz-adv-x="1556" 
d="M1624 1145h133q-125 -293 -377 -875q-131 -299 -295 -446q-203 -184 -494 -184q-137 0 -231 43q-129 57 -129 176q0 276 434 276q66 0 148 -10q112 -14 123 -39l-7 -12l-10 -2q-141 32 -260 32q-395 0 -395 -241q0 -103 112 -154q86 -41 201 -41q258 0 402 137
q108 103 217 365l243 590l-233 -330q-84 -119 -117 -154q-86 -98 -151 -98q-45 0 -78 53q-29 48 -29 95q0 102 126 357t126 392q0 99 -69.5 160t-168.5 61q-194 0 -354 -247q-145 -224 -145 -428q0 -191 161 -191q164 0 285 209q107 182 107 358q0 111 -82 111
q-119 0 -191 -115q-45 -69 -86 -215q-33 -116 -49 -119l-12 13q26 164 92 289q90 172 223 172q135 0 135 -140q0 -186 -116 -377q-131 -215 -308 -215q-94 0 -143 64q-47 57 -47 156q0 256 166 473q178 233 428 233q125 0 213 -65q98 -72 98 -193q0 -119 -76 -299
q-4 -12 -137 -299q-76 -158 -76 -225q0 -33 19 -33q94 0 362 408q179 274 312 524zM1498 1298q-67 29 -135 91q-84 71 -84 127q0 47 43 47q27 0 49 -66q31 -86 33 -88q37 -51 104 -98z" />
    <glyph glyph-name="ygrave" unicode="&#x1ef3;" horiz-adv-x="573" 
d="M179 -47q-80 -49 -160 -141q-96 -111 -96 -183q0 -51 43 -51q51 0 125 162q45 106 88 213zM72 0q-33 0 -55.5 25.5t-22.5 58.5q0 57 80 221t82 205l-14 14q-39 0 -99.5 -104.5t-70.5 -106.5l-12 9q2 67 77.5 149t141.5 82q73 0 73 -57q0 -70 -81.5 -247t-81.5 -206
l20 -14q49 -2 176 227q29 51 148 291h112l-237 -580q-168 -409 -346 -409q-70 0 -70 77q0 95 115 205q43 43 192 158q17 43 90 219q-59 -106 -84 -139q-63 -78 -133 -78zM422 662q-70 32 -133 90q-84 71 -84 127q0 47 43 47q28 0 51 -64q29 -88 31 -90q22 -32 102 -98z" />
    <glyph glyph-name="uni1EF4" unicode="&#x1ef4;" horiz-adv-x="1556" 
d="M1624 1145h133q-125 -293 -377 -875q-131 -299 -295 -446q-203 -184 -494 -184q-137 0 -231 43q-129 57 -129 176q0 276 434 276q66 0 148 -10q112 -14 123 -39l-7 -12l-10 -2q-141 32 -260 32q-395 0 -395 -241q0 -103 112 -154q86 -41 201 -41q258 0 402 137
q108 103 217 365l243 590l-233 -330q-84 -119 -117 -154q-86 -98 -151 -98q-45 0 -78 53q-29 48 -29 95q0 102 126 357t126 392q0 99 -69.5 160t-168.5 61q-194 0 -354 -247q-145 -224 -145 -428q0 -191 161 -191q164 0 285 209q107 182 107 358q0 111 -82 111
q-119 0 -191 -115q-45 -69 -86 -215q-33 -116 -49 -119l-12 13q26 164 92 289q90 172 223 172q135 0 135 -140q0 -186 -116 -377q-131 -215 -308 -215q-94 0 -143 64q-47 57 -47 156q0 256 166 473q178 233 428 233q125 0 213 -65q98 -72 98 -193q0 -119 -76 -299
q-4 -12 -137 -299q-76 -158 -76 -225q0 -33 19 -33q94 0 362 408q179 274 312 524zM1341 -184q0 -29 -21.5 -48.5t-49.5 -19.5q-31 0 -52.5 20.5t-21.5 51.5t22.5 51.5t53.5 20.5q28 0 48.5 -24t20.5 -52z" />
    <glyph glyph-name="uni1EF5" unicode="&#x1ef5;" horiz-adv-x="573" 
d="M179 -47q-80 -49 -160 -141q-96 -111 -96 -183q0 -51 43 -51q51 0 125 162q45 106 88 213zM72 0q-33 0 -55.5 25.5t-22.5 58.5q0 57 80 221t82 205l-14 14q-39 0 -99.5 -104.5t-70.5 -106.5l-12 9q2 67 77.5 149t141.5 82q73 0 73 -57q0 -70 -81.5 -247t-81.5 -206
l20 -14q49 -2 176 227q29 51 148 291h112l-237 -580q-168 -409 -346 -409q-70 0 -70 77q0 95 115 205q43 43 192 158q17 43 90 219q-59 -106 -84 -139q-63 -78 -133 -78zM429 -184q0 -29 -21.5 -48.5t-50.5 -19.5q-30 0 -51.5 20.5t-21.5 51.5t22.5 51.5t53.5 20.5
q28 0 48.5 -24t20.5 -52z" />
    <glyph glyph-name="uni1EF6" unicode="&#x1ef6;" horiz-adv-x="1556" 
d="M1624 1145h133q-125 -293 -377 -875q-131 -299 -295 -446q-203 -184 -494 -184q-137 0 -231 43q-129 57 -129 176q0 276 434 276q66 0 148 -10q112 -14 123 -39l-7 -12l-10 -2q-141 32 -260 32q-395 0 -395 -241q0 -103 112 -154q86 -41 201 -41q258 0 402 137
q108 103 217 365l243 590l-233 -330q-84 -119 -117 -154q-86 -98 -151 -98q-45 0 -78 53q-29 48 -29 95q0 102 126 357t126 392q0 99 -69.5 160t-168.5 61q-194 0 -354 -247q-145 -224 -145 -428q0 -191 161 -191q164 0 285 209q107 182 107 358q0 111 -82 111
q-119 0 -191 -115q-45 -69 -86 -215q-33 -116 -49 -119l-12 13q26 164 92 289q90 172 223 172q135 0 135 -140q0 -186 -116 -377q-131 -215 -308 -215q-94 0 -143 64q-47 57 -47 156q0 256 166 473q178 233 428 233q125 0 213 -65q98 -72 98 -193q0 -119 -76 -299
q-4 -12 -137 -299q-76 -158 -76 -225q0 -33 19 -33q94 0 362 408q179 274 312 524zM1431 1261q-2 2 -5 9q-6 11 -6 18q0 39 50 70q42 27 84 53q42 35 42 86q0 20 -16.5 31.5t-40.5 11.5q-46 0 -78 -33t-32 -76q0 -14 6 -23q9 -10 20 -10q30 0 57 26t27 55q0 7 -4.5 11.5
t-10.5 4.5q-16 0 -29.5 -21t-24.5 -21l-8 9q0 24 20.5 40t42.5 16q17 0 28.5 -12t11.5 -27q0 -35 -33.5 -70t-72.5 -35q-57 0 -57 60q0 57 49 95q46 38 107 38q40 0 70 -17q36 -22 36 -59q0 -58 -59 -96q-53 -26 -105 -51q-51 -26 -51 -55q0 -4 14 -21z" />
    <glyph glyph-name="uni1EF7" unicode="&#x1ef7;" horiz-adv-x="573" 
d="M179 -47q-80 -49 -160 -141q-96 -111 -96 -183q0 -51 43 -51q51 0 125 162q45 106 88 213zM72 0q-33 0 -55.5 25.5t-22.5 58.5q0 57 80 221t82 205l-14 14q-39 0 -99.5 -104.5t-70.5 -106.5l-12 9q2 67 77.5 149t141.5 82q73 0 73 -57q0 -70 -81.5 -247t-81.5 -206
l20 -14q49 -2 176 227q29 51 148 291h112l-237 -580q-168 -409 -346 -409q-70 0 -70 77q0 95 115 205q43 43 192 158q17 43 90 219q-59 -106 -84 -139q-63 -78 -133 -78zM344 592q-2 2 -5 9q-6 11 -6 18q0 39 50 70q42 27 84 53q42 35 42 86q0 20 -16.5 31.5t-40.5 11.5
q-46 0 -78 -33t-32 -76q0 -14 6 -23q8 -10 20 -10q29 0 56.5 26t27.5 55q0 7 -4.5 11.5t-10.5 4.5q-16 0 -30 -21t-24 -21l-8 9q0 24 20.5 40t42.5 16q17 0 28.5 -12t11.5 -27q0 -35 -33.5 -70t-72.5 -35q-57 0 -57 60q0 57 49 95q46 38 107 38q40 0 70 -17q36 -22 36 -59
q0 -58 -59 -96q-53 -26 -105 -51q-51 -26 -51 -55q0 -4 14 -21z" />
    <glyph glyph-name="uni1EF8" unicode="&#x1ef8;" horiz-adv-x="1556" 
d="M1624 1145h133q-125 -293 -377 -875q-131 -299 -295 -446q-203 -184 -494 -184q-137 0 -231 43q-129 57 -129 176q0 276 434 276q66 0 148 -10q112 -14 123 -39l-7 -12l-10 -2q-141 32 -260 32q-395 0 -395 -241q0 -103 112 -154q86 -41 201 -41q258 0 402 137
q108 103 217 365l243 590l-233 -330q-84 -119 -117 -154q-86 -98 -151 -98q-45 0 -78 53q-29 48 -29 95q0 102 126 357t126 392q0 99 -69.5 160t-168.5 61q-194 0 -354 -247q-145 -224 -145 -428q0 -191 161 -191q164 0 285 209q107 182 107 358q0 111 -82 111
q-119 0 -191 -115q-45 -69 -86 -215q-33 -116 -49 -119l-12 13q26 164 92 289q90 172 223 172q135 0 135 -140q0 -186 -116 -377q-131 -215 -308 -215q-94 0 -143 64q-47 57 -47 156q0 256 166 473q178 233 428 233q125 0 213 -65q98 -72 98 -193q0 -119 -76 -299
q-4 -12 -137 -299q-76 -158 -76 -225q0 -33 19 -33q94 0 362 408q179 274 312 524zM1723 1451q-12 -141 -120 -141q-29 0 -85.5 28.5t-86.5 28.5q-50 0 -68 -31l-29 -45l-12 10q29 136 121 136q29 0 86 -29t84 -29q39 0 61 19q13 12 37 53h12z" />
    <glyph glyph-name="uni1EF9" unicode="&#x1ef9;" horiz-adv-x="573" 
d="M179 -47q-80 -49 -160 -141q-96 -111 -96 -183q0 -51 43 -51q51 0 125 162q45 106 88 213zM72 0q-33 0 -55.5 25.5t-22.5 58.5q0 57 80 221t82 205l-14 14q-39 0 -99.5 -104.5t-70.5 -106.5l-12 9q2 67 77.5 149t141.5 82q73 0 73 -57q0 -70 -81.5 -247t-81.5 -206
l20 -14q49 -2 176 227q29 51 148 291h112l-237 -580q-168 -409 -346 -409q-70 0 -70 77q0 95 115 205q43 43 192 158q17 43 90 219q-59 -106 -84 -139q-63 -78 -133 -78zM613 775q-13 -141 -121 -141q-27 0 -84 28.5t-86 28.5q-49 0 -70 -30q-28 -43 -30 -45l-11 10
q31 135 109 135q39 0 99.5 -28.5t94.5 -28.5q47 0 86 71h13z" />
    <glyph glyph-name="quoteleft" unicode="&#x2018;" horiz-adv-x="405" 
d="M454 1274v-2q29 4 41 4q92 0 92 -76q0 -61 -52 -115.5t-114 -54.5q-94 0 -94 84q0 80 94 202t166 124l12 -10q-8 -19 -82 -74q-63 -51 -63 -82z" />
    <glyph glyph-name="quoteright" unicode="&#x2019;" horiz-adv-x="364" 
d="M474 1200v4q-24 -4 -41 -4q-90 0 -90 74q0 61 51.5 114.5t112.5 53.5q96 0 96 -84t-95 -203t-165 -123l-10 12q8 19 78 76q63 49 63 80z" />
    <glyph glyph-name="quotedblleft" unicode="&#x201c;" horiz-adv-x="649" 
d="M726 1276v-2q25 4 39 4q90 0 90 -76q0 -61 -50 -115.5t-112 -54.5q-96 0 -96 86q0 84 97.5 203t162.5 121l10 -10q-8 -19 -79 -74q-62 -49 -62 -82zM425 1276v-2q25 4 41 4q90 0 90 -76q0 -61 -51 -115.5t-113 -54.5q-96 0 -96 86q0 84 97.5 203t162.5 121l10 -10
q-8 -21 -80 -74q-61 -49 -61 -82z" />
    <glyph glyph-name="quotedblright" unicode="&#x201d;" 
d="M491 1200l-2 4q-24 -4 -41 -4q-92 0 -92 74q0 59 53.5 113.5t112.5 54.5q96 0 96 -84t-96 -204t-166 -122l-10 12q8 17 82 76q63 49 63 80zM790 1200v4q-28 -4 -43 -4q-90 0 -90 74q0 59 52.5 113.5t111.5 54.5q98 0 98 -84t-96 -204t-166 -122l-10 12q8 17 80 76
q63 49 63 80z" />
    <glyph glyph-name="ellipsis" unicode="&#x2026;" horiz-adv-x="1614" 
 />
    <glyph glyph-name="ugrave" horiz-adv-x="582" 
 />
    <glyph glyph-name="uacute" horiz-adv-x="580" 
 />
    <glyph glyph-name="yacute" horiz-adv-x="629" 
 />
  </font>
</defs>
</svg>
