<?xml version="1.0" standalone="no"?>
<!DOCTYPE svg PUBLIC "-//W3C//DTD SVG 1.1//EN" "http://www.w3.org/Graphics/SVG/1.1/DTD/svg11.dtd" >
<svg xmlns="http://www.w3.org/2000/svg">
<metadata></metadata>
<defs>
<font id="uvn_ai_capbold" horiz-adv-x="1010" >
<font-face units-per-em="2048" ascent="1638" descent="-410" />
<missing-glyph horiz-adv-x="578" />
<glyph unicode="&#xd;" horiz-adv-x="578" />
<glyph unicode=" "  horiz-adv-x="578" />
<glyph unicode="&#x09;" horiz-adv-x="578" />
<glyph unicode="&#xa0;" horiz-adv-x="578" />
<glyph unicode="!" horiz-adv-x="657" d="M209 84q0 115 119 115q121 0 121 -115q0 -113 -121 -113q-119 0 -119 113zM217 1255h223l-24 -886h-174z" />
<glyph unicode="&#x22;" horiz-adv-x="686" d="M86 1360q0 102 90 102t90 -106q0 -25 -2 -38l-69 -458h-35l-70 459q-4 26 -4 41zM420 1356q0 106 88 106q90 0 90 -102q0 -28 -2 -41l-70 -459h-34l-70 459q-2 13 -2 37z" />
<glyph unicode="#" horiz-adv-x="1575" d="M88 449l51 139h312l98 276h-336l51 140h334l162 454h155l-161 -454h276l162 454h156l-162 -454h301l-49 -140h-301l-97 -276h320l-49 -139h-320l-162 -453h-155l162 453h-279l-162 -453h-153l159 453h-313zM604 588h283l96 276h-281z" />
<glyph unicode="$" horiz-adv-x="1153" d="M154 39v340h120q0 -6 -1 -20t-1 -21q0 -123 65 -181q59 -51 185 -59v480q-166 59 -250 129q-118 98 -118 243q0 148 125 228q102 66 262 75v187h106v-182q154 -6 338 -46v-317h-120q0 7 1 21v22q0 114 -51.5 165t-166.5 54l-1 -442q175 -62 261 -128q132 -99 132 -243 q0 -158 -131 -254q-116 -85 -282 -92v-217h-105v213q-245 17 -368 45zM346 969q0 -154 195 -219l-1 405q-85 -8 -137 -54q-57 -50 -57 -132zM627 101q209 19 209 216q0 158 -209 226v-442z" />
<glyph unicode="%" horiz-adv-x="1686" d="M86 934q0 161 75 251q81 99 238 99q326 0 326 -346q0 -356 -322 -356q-317 0 -317 352zM254 938q0 -272 149 -272q154 0 154 258q0 280 -156 280q-147 0 -147 -266zM350 -29l842 1313h145l-841 -1313h-146zM961 322q0 160 76 252q82 100 239 100q323 0 323 -348 q0 -355 -321 -355q-317 0 -317 351zM1130 328q0 -273 150 -273q152 0 152 258q0 281 -156 281q-146 0 -146 -266z" />
<glyph unicode="&#x26;" horiz-adv-x="1587" d="M96 621q0 663 615 663q165 0 325 -41v-297h-130q-3 120 -37 169q-43 63 -160 63q-346 0 -375 -426h1247v-289h-102q-2 121 -48 152q-35 24 -163 24v-596q-284 -72 -504 -72q-342 0 -503 154q-165 157 -165 496zM328 623q0 -274 108 -401q117 -138 385 -138q87 0 238 31 v524h-731v-16z" />
<glyph unicode="'" horiz-adv-x="352" d="M86 1356q0 106 90 106t90 -102q0 -15 -4 -42l-67 -458h-35l-70 459q-4 26 -4 37z" />
<glyph unicode="(" horiz-adv-x="664" d="M133 496q0 441 279 759h184q-258 -354 -258 -741q0 -392 260 -766h-184q-281 349 -281 748z" />
<glyph unicode=")" horiz-adv-x="664" d="M59 -252q267 375 267 758q0 391 -254 749h184q274 -330 274 -737q0 -424 -286 -770h-185z" />
<glyph unicode="*" horiz-adv-x="885" d="M133 881v141l236 -33l-148 197l125 69l96 -225l97 225l123 -71l-148 -195l238 39v-139l-234 31l150 -199l-129 -74l-97 225l-96 -225l-129 74l152 194z" />
<glyph unicode="+" horiz-adv-x="1706" d="M254 541v139h528v541h142v-541h528v-139h-528v-541h-142v541h-528z" />
<glyph unicode="," horiz-adv-x="578" d="M82 -201l117 402h235l-213 -402h-139z" />
<glyph unicode="-" horiz-adv-x="764" d="M70 352v187h624v-187h-624z" />
<glyph unicode="." horiz-adv-x="578" d="M170 84q0 115 119 115t119 -115q0 -113 -119 -113t-119 113z" />
<glyph unicode="/" horiz-adv-x="569" d="M-92 -190l561 1474h149l-561 -1474h-149z" />
<glyph unicode="0" horiz-adv-x="1153" d="M88 629q0 655 487 655q490 0 490 -655q0 -658 -490 -658q-487 0 -487 658zM303 633q0 -223 37 -342q63 -201 235 -201q173 0 237 200q38 120 38 343q0 543 -275 543q-272 0 -272 -543z" />
<glyph unicode="1" horiz-adv-x="1153" d="M233 928v151q141 69 281 176h191v-1005q0 -114 46 -142q31 -18 156 -18v-90q-106 4 -307 4t-311 -4v90q128 0 161 18q56 29 56 142v846q-123 -103 -273 -168z" />
<glyph unicode="2" horiz-adv-x="1153" d="M137 0v72q0 184 31 266q34 90 124 170q52 45 173 125l149 98q185 122 185 244q0 97 -82 149q-70 45 -172 45q-129 0 -190 -47q-70 -53 -70 -178q0 -6 1 -18.5t1 -18.5h-119v324q163 53 369 53q464 0 464 -344q0 -179 -188 -301l-205 -133q-129 -84 -177 -138 q-77 -87 -77 -204q0 -6 1 -17t1 -16h299q137 0 178 50q35 44 35 186h121v-367h-852z" />
<glyph unicode="3" horiz-adv-x="1153" d="M147 23v339h127q0 -142 46 -200q52 -66 190 -66q120 0 195 63q81 68 81 185q0 250 -323 262v135q129 0 209 48q98 59 98 180q0 101 -77 157q-68 50 -173 50q-138 0 -191 -62q-48 -56 -48 -196h-123v315q165 51 362 51q451 0 451 -328q0 -232 -256 -280q278 -61 278 -330 q0 -375 -473 -375q-183 0 -373 52z" />
<glyph unicode="4" horiz-adv-x="1153" d="M88 358v172l514 725h256v-770h205v-127h-205v-110q0 -106 40 -135q31 -23 142 -23v-90q-102 4 -299 4q-195 0 -303 -4v90h90q84 0 114 38q26 33 26 120v110h-580zM207 481h465v658z" />
<glyph unicode="5" horiz-adv-x="1153" d="M170 27v329h125q0 -136 46 -200q54 -74 185 -74q279 0 279 313q0 135 -59 213q-67 88 -197 88q-159 0 -221 -131h-142v690h785v-129h-590v-358q100 61 221 61q197 0 307.5 -109.5t110.5 -305.5q0 -223 -133 -337q-125 -106 -352 -106q-179 0 -365 56z" />
<glyph unicode="6" horiz-adv-x="1153" d="M119 616q0 666 524 666q211 0 381 -68v-290h-127q0 139 -54.5 197.5t-193.5 58.5q-313 0 -325 -488q120 150 319 150q191 0 310.5 -111t119.5 -301q0 -211 -125 -335t-336 -124q-280 0 -398 193q-95 153 -95 452zM334 403q0 -138 61 -220q68 -93 201 -93q132 0 200 89 q62 80 62 216q0 316 -266 316q-128 0 -197 -93q-61 -82 -61 -215z" />
<glyph unicode="7" horiz-adv-x="1153" d="M154 891v364h897v-172q-135 -190 -234 -400h141v-117h-192q-113 -275 -164 -576h-231q61 302 178 576h-271v117h324q110 229 262 443h-403q-132 0 -167 -55q-26 -40 -26 -180h-114z" />
<glyph unicode="8" horiz-adv-x="1153" d="M98 326q0 263 316 338q-267 83 -267 307q0 167 134 248q109 65 288 65q184 0 300 -59q151 -77 151 -244q0 -223 -287 -315q322 -78 322 -338q0 -357 -496 -357q-199 0 -318 76q-143 91 -143 279zM301 326q0 -228 285 -228q116 0 192 50q90 59 90 169q0 174 -295 281 q-272 -91 -272 -272zM332 987q0 -154 252 -256q241 94 241 250q0 96 -75 145q-64 43 -164 43q-254 0 -254 -182z" />
<glyph unicode="9" horiz-adv-x="1153" d="M100 823q0 219 122 341t341 122q277 0 395 -193q93 -153 93 -450q0 -312 -102 -472q-126 -198 -419 -198q-176 0 -360 56v299h123q0 -133 49 -189q54 -61 184 -61q195 0 272 158q54 112 54 331q-109 -151 -320 -151q-192 0 -310 106q-122 111 -122 301zM313 840 q0 -131 62 -208q68 -85 196 -85q134 0 203 92q62 83 62 221q0 136 -63 217q-70 90 -202 90q-134 0 -201 -101q-57 -85 -57 -226z" />
<glyph unicode=":" horiz-adv-x="608" d="M184 84q0 115 121 115q119 0 119 -115q0 -113 -119 -113q-121 0 -121 113zM184 764q0 113 121 113q119 0 119 -113q0 -115 -119 -115q-121 0 -121 115z" />
<glyph unicode=";" horiz-adv-x="608" d="M80 -201l117 402h235l-213 -402h-139zM182 764q0 113 119 113q121 0 121 -113q0 -115 -121 -115q-119 0 -119 115z" />
<glyph unicode="&#x3c;" horiz-adv-x="1706" d="M264 547v129l1178 483v-153l-969 -396l969 -393v-154z" />
<glyph unicode="=" horiz-adv-x="1706" d="M254 342v139h1198v-139h-1198zM254 739v140h1198v-140h-1198z" />
<glyph unicode="&#x3e;" horiz-adv-x="1706" d="M264 63v154l971 393l-971 396v153l1178 -483v-129z" />
<glyph unicode="?" horiz-adv-x="981" d="M98 899v322q185 63 363 63q454 0 454 -317q0 -110 -98 -223l-182 -176q-98 -95 -98 -160v-62h-201v78q0 60 19 102q18 39 100 115q245 227 245 342q0 188 -245 188q-242 0 -242 -196v-76h-115zM311 84q0 115 119 115q121 0 121 -117q0 -111 -121 -111q-119 0 -119 113z " />
<glyph unicode="@" horiz-adv-x="2019" d="M141 537q0 291 179 530q175 234 454 331q160 56 342 56q332 0 541 -175q223 -188 223 -513q0 -159 -58 -298q-60 -142 -166 -236q-122 -109 -261 -109q-195 0 -209 209q-122 -207 -307 -207q-139 0 -215 103q-68 92 -68 235q0 195 147 366q153 179 344 179 q182 0 222 -191l51 174h158l-172 -612q-19 -68 -19 -98q0 -107 90 -107q74 0 170 72q240 181 240 547q0 277 -211 448q-195 158 -479 158q-380 0 -622.5 -252.5t-242.5 -634.5q0 -182 57 -313q89 -204 305 -319q198 -105 435 -105q342 0 627 207l33 -41q-297 -222 -658 -222 q-190 0 -345 45q-270 79 -427.5 286t-157.5 487zM760 369q0 -75 32 -128q39 -63 109 -63q148 0 260 222q96 191 96 356q0 82 -35 138q-41 67 -118 67q-53 0 -98 -30q-97 -65 -174 -256q-72 -176 -72 -306z" />
<glyph unicode="A" horiz-adv-x="1401" d="M8 0v90q67 4 110 54q28 34 59 112l397 999h267l393 -999q33 -84 59 -114q39 -46 113 -52v-90q-102 4 -279 4q-170 0 -260 -4l1 90q151 3 151 72q0 36 -84 276h-487l-72 -207q-15 -43 -15 -63q0 -78 150 -78v-90q-143 4 -256 4q-112 0 -247 -4zM493 563h395l-195 553z" />
<glyph unicode="B" horiz-adv-x="1241" d="M72 0v90q97 0 129 25q39 31 39 131v764q0 99 -39 130q-32 25 -129 25v90h561q208 0 316 -54q149 -74 149 -261q0 -220 -238 -285q285 -52 285 -311q0 -344 -471 -344h-602zM463 125h164q288 0 288 221q0 248 -286 248h-166v-469zM463 700h162q252 0 252 230 q0 205 -273 205h-141v-435z" />
<glyph unicode="C" horiz-adv-x="1280" d="M100 621q0 323 170.5 493t493.5 170q182 0 410 -76v-313h-130q0 5 1.5 16t1.5 17q0 229 -267 229q-434 0 -434 -532q0 -233 99 -371q114 -156 339 -156q153 0 212 65q55 61 55 216h127v-342q-246 -66 -416 -66q-321 0 -491.5 165t-170.5 485z" />
<glyph unicode="D" horiz-adv-x="1468" d="M72 0v90q99 0 133.5 29.5t34.5 126.5v764q0 99 -40 130q-32 25 -128 25v90h567q725 0 725 -612q0 -643 -692 -643h-600zM467 121h154q499 0 499 524q0 256 -128 376q-124 116 -382 116h-143v-1016z" />
<glyph unicode="E" horiz-adv-x="1165" d="M61 0v90q108 0 139 24q38 29 38 132v764q0 101 -39 131q-31 24 -129 24v84h1005v-327h-104q0 140 -41 175q-33 29 -168 29h-297v-424h96q119 0 151 25q40 30 40 143h94v-446h-92q-2 113 -45 144q-32 24 -144 24h-100v-467h289q150 0 187.5 43t39.5 206l102 1v-375h-1022z " />
<glyph unicode="F" horiz-adv-x="1083" d="M63 0v90q106 0 138 24q37 29 37 132v764q0 101 -39 131q-31 24 -129 24v86h999v-329h-102q0 136 -35.5 171t-173.5 35h-293v-426h102q111 0 143 24q40 31 40 144h94v-446h-94q-2 107 -35.5 137.5t-141.5 30.5h-108v-340q0 -106 41 -137q32 -25 135 -25v-90q-104 4 -293 4 q-185 0 -285 -4z" />
<glyph unicode="G" horiz-adv-x="1423" d="M100 637q0 647 676 647q225 0 455 -57v-348h-137q0 158 -70 219q-65 57 -227 57q-226 0 -343 -148q-106 -135 -106 -366q0 -252 120 -390q127 -145 376 -145q78 0 167 19l1 254q0 100 -34 127q-33 24 -169 24v86h6q48 0 143.5 -2t143.5 -2q57 0 280 4v-85 q-89 -4 -117 -29q-32 -28 -32 -115v-367q-229 -43 -412 -43q-721 0 -721 660z" />
<glyph unicode="H" horiz-adv-x="1518" d="M72 0v90q99 0 133.5 29.5t34.5 126.5v764q0 99 -39 130q-32 25 -129 25v90h6q46 0 137 -2t137 -2q50 0 283 4v-90q-99 0 -129 -24q-39 -29 -39 -131v-297h584v297q0 99 -39 130q-32 25 -129 25v90h6q46 0 137 -2t137 -2q50 0 283 4v-90q-99 0 -129 -24q-39 -29 -39 -131 v-764q0 -102 38 -132q31 -24 130 -24v-90q-100 4 -283 4q-180 0 -280 -4v90q99 0 133.5 29.5t34.5 126.5v342h-584v-342q0 -102 38 -132q31 -24 130 -24v-90q-100 4 -283 4q-180 0 -280 -4z" />
<glyph unicode="I" horiz-adv-x="711" d="M78 0v90q99 0 132.5 29.5t33.5 126.5v764q0 99 -38 130q-32 25 -128 25v90h6q46 0 137 -2t137 -2q49 0 281 4v-90q-98 0 -128 -24q-38 -30 -38 -131v-764q0 -102 37 -132q31 -24 129 -24v-90q-100 4 -281 4q-180 0 -280 -4z" />
<glyph unicode="J" horiz-adv-x="932" d="M39 6v318h123q0 -110 19 -156q30 -76 122 -76q120 0 159 91q25 58 25 198v629q0 105 -42 133q-31 22 -142 22v90h6q48 0 144.5 -2t144.5 -2q57 0 285 4v-90q-98 0 -129 -24q-39 -30 -39 -131v-637q0 -226 -87.5 -314t-314.5 -88q-111 0 -274 35z" />
<glyph unicode="K" horiz-adv-x="1325" d="M68 0v90q98 0 129 24q39 31 39 132v764q0 101 -39 131q-31 24 -129 24v90q233 -4 282 -4q48 0 281 4v-90q-98 0 -129 -24q-39 -30 -39 -131v-348l375 368q53 52 53 86q0 46 -111 50v89q218 -4 262 -4q47 0 260 4v-90q-118 -2 -219 -100l-415 -401l471 -457 q121 -117 194 -117v-90q-88 4 -204 4h-133q-109 0 -208 -4v90q107 0 107 49q0 36 -49 86l-383 387v-366q0 -101 39 -132q31 -24 129 -24v-90q-96 4 -210 4h-150q-108 0 -203 -4z" />
<glyph unicode="L" horiz-adv-x="1079" d="M72 0v90q98 0 129 25q39 30 39 131v764q0 99 -39 130q-32 25 -129 25v90q242 -4 293 -4q55 0 288 4v-90q-112 0 -144 -21q-42 -29 -42 -134v-883h240q146 0 189 51q38 45 38 195h104v-373h-966z" />
<glyph unicode="M" horiz-adv-x="1778" d="M61 0v90q99 0 129 24q38 29 39 131l9 777q0 90 -41 120q-32 23 -121 23v90q193 -4 239 -4q40 0 121 2t121 2h6l266 -845q36 -114 60 -219q17 74 57 219l273 845q183 -4 231 -4q40 0 121 2t122 2h13v-90q-98 0 -129 -24q-40 -30 -39 -131l8 -764q1 -100 39 -131 q32 -25 129 -25v-90q-92 4 -266 4q-172 0 -264 -4v90q98 0 128 25q38 30 38 131v905l-365 -1151h-211l-364 1143l2 -897q0 -100 38 -131q31 -25 128 -25v-90q-92 4 -259 4q-166 0 -258 -4z" />
<glyph unicode="N" horiz-adv-x="1417" d="M49 0v90q97 0 129 25q39 31 39 131v770q0 94 -38 124q-32 25 -124 25v90h22q40 0 116 -2q80 -2 116 -2q81 0 193 4l530 -1071l-2 826q0 101 -38 131q-30 24 -128 24v90h13q41 0 122.5 -2t122.5 -2q48 0 246 4v-90q-90 0 -121 -23q-41 -29 -41 -120v-1022h-282l-533 1071 l2 -825q0 -101 39 -132q30 -24 129 -24v-90q-94 4 -264 4q-164 0 -248 -4z" />
<glyph unicode="O" horiz-adv-x="1442" d="M100 629q0 304 157 476q162 179 464 179q301 0 463 -179q155 -172 155 -476t-155 -477q-162 -181 -463 -181t-465 180q-156 174 -156 478zM348 631q0 -223 74 -357q94 -172 299 -172q371 0 371 529q0 528 -371 528q-205 0 -299 -171q-74 -134 -74 -357z" />
<glyph unicode="P" horiz-adv-x="1145" d="M66 0v90q97 0 129 25q38 31 38 131v764q0 100 -39 131q-31 24 -128 24v90h526q489 0 489 -356q0 -248 -205 -319q-103 -35 -415 -35v-299q0 -101 39 -132q31 -24 129 -24v-90q-98 4 -221 4h-127q-119 0 -215 -4zM461 655h123q276 0 276 248q0 234 -274 234h-125v-482z " />
<glyph unicode="Q" horiz-adv-x="1442" d="M102 627q0 311 157 481q162 176 470 176q296 0 457 -182q153 -173 153 -473q0 -533 -448 -639q181 -122 485 -211l-20 -103q-333 54 -723 297q-531 79 -531 654zM348 631q0 -223 74 -357q94 -172 299 -172q373 0 373 529q0 222 -74 357q-95 171 -299 171 q-205 0 -299 -171q-74 -134 -74 -357z" />
<glyph unicode="R" horiz-adv-x="1278" d="M72 0v90q98 0 129 25q39 30 39 131v764q0 99 -39 130q-32 25 -129 25v90h526q222 0 337 -57q159 -78 159 -276q0 -232 -230 -293q143 -24 207 -285q21 -86 29 -112q23 -71 51 -100q38 -42 127 -42v-90h-338q-40 107 -69 240q-27 123 -40 160q-33 101 -85 135 q-44 29 -137 34h-142v-323q0 -101 39 -132q31 -24 129 -24v-90q-98 4 -221 4h-123q-121 0 -219 -4zM467 678h102q308 0 308 221q0 236 -279 236h-131v-457z" />
<glyph unicode="S" horiz-adv-x="1133" d="M113 20v353h126q0 -7 -1 -20v-21q0 -248 299 -248q118 0 189 48q83 57 83 169q0 127 -160 195l-237 100q-142 60 -208 122q-91 86 -91 214q0 190 158 280q125 72 331 72q160 0 402 -55v-332h-133q0 8 1 23v24q0 227 -247 227q-115 0 -189 -41q-92 -52 -92 -159 q0 -78 52 -126q37 -35 122 -69l260 -104q266 -106 266 -334q0 -194 -158 -289q-130 -78 -337 -78q-187 0 -436 49z" />
<glyph unicode="T" horiz-adv-x="1217" d="M51 903v352q58 0 175.5 -2t176.5 -2h413q58 0 174.5 2t174.5 2v-352h-114q0 137 -23 174q-33 53 -158 53h-145v-884q0 -103 40 -133q31 -23 140 -23v-90q-104 4 -293 4q-191 0 -295 -4v90q108 0 140 24q41 29 41 132v884h-166q-121 0 -152 -57q-19 -35 -19 -170h-110z " />
<glyph unicode="U" horiz-adv-x="1366" d="M47 1165v90h6q44 0 133 -2t133 -2q48 0 267 4v-90q-105 0 -134 -24q-34 -28 -34 -131v-555q0 -173 58 -250q67 -90 233 -90q163 0 230 90q58 77 58 246v553q0 108 -38 138q-31 23 -136 23v90h12q41 0 122 -2t122 -2q47 0 244 4v-90h-37q-69 0 -94 -46q-18 -33 -18 -109 v-547q0 -257 -114.5 -374.5t-371.5 -117.5q-495 0 -495 463v576q0 94 -28 124.5t-118 30.5z" />
<glyph unicode="V" horiz-adv-x="1319" d="M10 1166v89q144 -4 223 -4q43 0 129.5 2t129.5 2h20v-89q-79 -2 -98 -7q-60 -13 -60 -61q0 -26 11 -56l317 -872l295 868q10 29 10 54q0 73 -162 73v90h13q41 0 122 -2t121 -2q68 0 228 4v-90q-96 -9 -138 -127l-374 -1048h-252l-400 1036q-28 72 -45 94q-31 42 -90 46z " />
<glyph unicode="W" horiz-adv-x="1839" d="M14 1165v90q189 -4 236 -4q40 0 121 2t121 2h12v-89q-81 -5 -102 -11q-56 -17 -56 -72q0 -26 6 -52l205 -879l240 1103h262l244 -1108l206 891q7 30 7 47q0 76 -154 81v89h18q38 0 115 -2t115 -2q65 0 221 4v-90q-67 -10 -96 -39q-25 -25 -43 -94l-271 -1042h-262 l-244 1100l-233 -1100h-270l-273 1046q-18 69 -36 93q-29 36 -89 36z" />
<glyph unicode="X" horiz-adv-x="1389" d="M29 0v90q100 6 194 125l334 422l-354 434q-73 89 -158 95v89q195 -4 248 -4q44 0 132 2t132 2h12v-90q-5 0 -15 1t-15 1q-103 0 -103 -49q0 -21 31 -61l223 -289l191 256q39 52 39 84q0 57 -123 57v90h12q43 0 129 -2t129 -2q52 0 250 4v-90q-113 0 -201 -110l-328 -412 l361 -428q105 -125 207 -125v-90q-96 4 -277 4q-180 0 -278 -4v90q127 6 127 60q0 29 -35 73l-236 295l-217 -299q-28 -39 -28 -63q0 -60 130 -66v-90q-145 4 -261 4q-50 0 -252 -4z" />
<glyph unicode="Y" horiz-adv-x="1235" d="M14 1165v90q170 -4 240 -4q43 0 129 2t129 2h18v-90q-131 0 -131 -57q0 -28 25 -74l207 -379l205 363q26 46 26 82q0 65 -127 65v90h14q45 0 129 -2q88 -2 128 -2q73 0 217 4l-1 -90q-96 -5 -182 -143l-319 -512v-272q0 -99 39 -126q31 -22 135 -22v-90q-104 4 -291 4 q-180 0 -274 -4v90q105 0 135 21q39 28 39 127v276l-309 518q-75 126 -181 133z" />
<glyph unicode="Z" horiz-adv-x="1135" d="M61 0v160l760 966h-450q-131 0 -158 -52q-16 -28 -16 -179h-115v356h965v-161l-754 -965h498q98 0 133 46t39 202h114v-373h-1016z" />
<glyph unicode="[" horiz-adv-x="664" d="M156 -180v1435h440v-110h-242v-1215h242v-110h-440z" />
<glyph unicode="\" horiz-adv-x="569" d="M-49 1284h149l559 -1474h-149z" />
<glyph unicode="]" horiz-adv-x="664" d="M68 -70h241v1215h-241v110h440v-1435h-440v110z" />
<glyph unicode="^" horiz-adv-x="2048" d="M412 897l514 565h194l512 -565h-98l-512 420l-514 -420h-96z" />
<glyph unicode="_" horiz-adv-x="1024" d="M0 -340h1024v-143h-1024v143z" />
<glyph unicode="`" horiz-adv-x="1024" d="M229 1290q0 78 78 78q47 0 113 -72l264 -290h-78l-299 190q-78 50 -78 94z" />
<glyph unicode="a" d="M57 244q0 205 221 265q103 28 384 28v79q0 181 -211 181q-203 0 -203 -179h-90v232q172 45 319 45q201 0 291 -76q98 -83 98 -280v-320q0 -87 18 -112q23 -31 105 -31v-76q-30 2 -90 2q-113 0 -219 -10v153q-59 -174 -301 -174q-141 0 -226 65q-96 72 -96 208zM260 260 q0 -77 48.5 -123.5t125.5 -46.5q228 0 228 266v80h-134q-268 0 -268 -176z" />
<glyph unicode="b" horiz-adv-x="1110" d="M37 1182v79q20 -1 110 -1q87 0 226 9v-501q101 129 270 129q196 0 299 -146q90 -128 90 -333q0 -198 -91 -316q-101 -131 -292 -131q-200 0 -301 166v-145q-96 9 -305 9v75q89 0 109 32q14 23 14 87v849q0 82 -20 106q-24 29 -109 32zM354 434q0 -334 234 -334 q231 0 231 334q0 342 -231 342q-234 0 -234 -342z" />
<glyph unicode="c" horiz-adv-x="924" d="M70 434q0 216 117.5 338.5t332.5 122.5q119 0 303 -43v-281h-98q0 121 -41 167q-44 50 -162 50q-124 0 -183 -108q-48 -85 -48 -219q0 -375 231 -375q178 0 195 186h125q-10 -147 -108 -226q-91 -75 -242 -75q-204 0 -316 132q-106 124 -106 331z" />
<glyph unicode="d" horiz-adv-x="1116" d="M76 418q0 210 91 335q103 142 304 142q174 0 266 -129v291q0 84 -32 107q-25 18 -115 18v79q21 -1 117 -1q95 0 237 9v-1074q0 -78 26 -100q22 -19 97 -19v-76q-36 2 -102 2q-97 0 -203 -10v145q-102 -166 -301 -166q-192 0 -293 131q-92 118 -92 316zM291 434 q0 -334 229 -334q234 0 234 336q0 139 -47 227q-60 113 -187 113q-229 0 -229 -342z" />
<glyph unicode="e" horiz-adv-x="1020" d="M70 430q0 209 114 335q118 130 326 130q438 0 438 -459v-45h-663q6 -309 272 -309q198 0 238 168h131q-38 -279 -406 -279q-217 0 -333.5 121t-116.5 338zM285 500h467v6q0 121 -49 195q-58 87 -173 87q-225 0 -245 -288z" />
<glyph unicode="f" horiz-adv-x="659" d="M47 762v106h154v125q0 291 313 291q108 0 244 -31v-227h-82q0 162 -123 162q-86 0 -120 -51q-27 -41 -27 -133v-136h233v-106h-233v-549q0 -88 34 -113q27 -20 113 -20v-80q-82 4 -184 4h-116q-101 0 -185 -4v80q109 4 126 66q7 27 7 79v537h-154z" />
<glyph unicode="g" horiz-adv-x="1096" d="M74 446q0 199 88 317q99 134 291 134q206 0 325 -166v143q98 -10 178 -10q21 0 117 4v-80q-84 0 -106.5 -26.5t-22.5 -106.5v-602q0 -135 -13 -200q-28 -142 -161 -212q-111 -59 -270 -59q-197 0 -369 78v272h92v-32q0 -121 66 -171q57 -44 182 -44q274 0 274 292v152 q-109 -123 -280 -123q-198 0 -299 124q-92 113 -92 316zM287 442q0 -134 49 -219q61 -104 186 -104q236 0 236 330q0 321 -236 321q-235 0 -235 -328z" />
<glyph unicode="h" horiz-adv-x="1159" d="M41 0v79q85 2 111 35q22 28 22 111v842q0 75 -21.5 95t-99.5 22v77q18 0 55 -1h56q89 0 215 9v-526q104 148 297 148q185 0 259 -104q62 -88 62 -283v-281q0 -87 20 -112q24 -30 107 -31v-80q-76 4 -170 4h-125q-89 0 -174 -4l1 80q84 3 110.5 29.5t26.5 109.5v311 q0 238 -187 238q-225 0 -225 -276v-279q0 -81 26 -106t109 -28v-79q-82 4 -183 4h-113q-99 0 -179 -4z" />
<glyph unicode="i" horiz-adv-x="575" d="M55 0l1 80q111 4 126 71q6 25 6 74v449q0 55 -8 75q-13 34 -58 39q-19 3 -54 3v77q36 -2 106 -2q95 0 221 10v-663q0 -82 26 -106.5t109 -26.5v-80q-78 4 -197 4h-80q-113 0 -198 -4zM170 1176q0 108 115 108q114 0 114 -108q0 -109 -114 -109q-115 0 -115 109z" />
<glyph unicode="j" horiz-adv-x="563" d="M-131 -123h90q0 -102 8 -130q20 -69 94 -69q73 0 102.5 56t29.5 225v715q0 55 -8 75q-13 33 -58 39q-20 3 -55 3v77q36 -2 106 -2q95 0 221 10v-915q0 -194 -53 -276q-67 -103 -248 -103q-131 0 -229 41v254zM174 1176q0 108 115 108q114 0 114 -108q0 -109 -114 -109 q-115 0 -115 109z" />
<glyph unicode="k" horiz-adv-x="1096" d="M43 0v79q85 2 111 36q22 27 22 110v824q0 82 -17 104q-23 29 -106 29v75q38 -2 105 -2q97 0 223 10v-757l219 182q37 31 37 55q0 40 -76 44v79h12q38 0 113 -2t113 -2q43 0 225 4v-80q-98 0 -180 -63l-269 -207l332 -342q93 -96 168 -96v-80q-83 4 -180 4h-114 q-88 0 -160 -4v80q73 0 73 45q0 32 -37 70l-276 284v-266q0 -81 26 -106t109 -28v-79q-82 4 -179 4h-122q-92 0 -172 -4z" />
<glyph unicode="l" horiz-adv-x="575" d="M51 0l1 80q111 4 126 71q6 25 6 74v824q0 84 -21 108.5t-102 24.5l1 75q36 -2 106 -2q95 0 221 10v-1052q0 -83 27 -107t108 -26v-80q-78 4 -196 4h-79q-113 0 -198 -4z" />
<glyph unicode="m" horiz-adv-x="1731" d="M41 0v79q85 2 111 35q22 28 22 111v449q0 75 -22 95t-99 22v77q40 -2 107 -2q102 0 200 10v-155q96 170 326 170q194 0 268 -168q105 168 322 168q71 0 135 -29q101 -48 136 -150q24 -69 24 -208v-271q0 -105 25 -129t102 -24v-80q-78 4 -230 4q-153 0 -239 -4v80 q84 4 109.5 29.5t25.5 109.5v311q0 238 -180 238q-207 0 -207 -268v-267q0 -92 18 -119q23 -34 109 -34v-80q-78 4 -230 4q-153 0 -239 -4v80q84 4 110.5 29.5t26.5 109.5v311q0 238 -182 238q-209 0 -209 -276v-279q0 -81 26 -106t109 -28v-79q-84 4 -240 4q-153 0 -235 -4 z" />
<glyph unicode="n" horiz-adv-x="1159" d="M41 0v79q85 2 111 35q22 28 22 111v449q0 55 -8 75q-13 33 -58 39q-20 3 -55 3v77q38 -2 101 -2q94 0 208 10v-147q95 162 308 162q188 0 263 -102q64 -87 64 -285v-281q0 -89 19 -113q23 -29 108 -30v-80q-76 4 -170 4h-125q-89 0 -174 -4l1 80q84 3 110.5 29t26.5 110 v311q0 238 -189 238q-223 0 -223 -276v-279q0 -83 29 -109q25 -23 106 -25v-79q-78 4 -177 4h-113q-101 0 -185 -4z" />
<glyph unicode="o" horiz-adv-x="1034" d="M70 434q0 217 113 338q117 123 333 123q217 0 334 -123q113 -120 113 -338q0 -217 -114 -339q-117 -124 -333 -124t-333 125q-113 121 -113 338zM285 436q0 -354 231 -354q232 0 232 354q0 355 -232 355q-231 0 -231 -355z" />
<glyph unicode="p" horiz-adv-x="1108" d="M31 -314q107 5 124 68q7 26 7 78v842q0 52 -8 73q-12 33 -54 40q-20 4 -59 4v77q36 -2 96 -2q95 0 209 10v-147q102 166 301 166q191 0 292 -131q91 -117 91 -315t-85 -327q-100 -151 -288 -151q-172 0 -288 131v-282q0 -91 35 -115q27 -18 124 -18v-80q-90 4 -201 4 h-109q-106 0 -187 -4v79zM350 436q0 -346 236 -346q231 0 231 344q0 332 -239 332q-228 0 -228 -330z" />
<glyph unicode="q" horiz-adv-x="1108" d="M80 442q0 201 89 320q100 133 294 133q199 0 301 -166v147q119 -10 217 -10q46 0 88 2v-77q-86 0 -106 -30q-15 -23 -15 -87v-842q0 -60 8 -84q14 -42 60 -54q24 -6 63 -8v-79q-80 4 -187 4h-109q-111 0 -201 -4v80q97 0 123 18q36 24 36 115v282q-117 -131 -276 -131 q-192 0 -294 144q-91 127 -91 327zM293 432q0 -342 231 -342q128 0 188 112q48 88 48 228q0 334 -228 334q-239 0 -239 -332z" />
<glyph unicode="r" horiz-adv-x="795" d="M43 1v78q85 2 111 35q22 28 22 111v449q0 77 -27 99q-21 18 -96 18v77q38 -2 103 -2q93 0 209 10v-147q90 168 280 168q51 0 127 -19v-278h-92q0 86 -15 121q-25 55 -100 55q-182 0 -182 -301v-262q0 -89 34 -114q25 -19 113 -19v-80q-90 4 -251 4q-105 0 -236 -3z" />
<glyph unicode="s" horiz-adv-x="883" d="M86 641q0 254 371 254q161 0 309 -41v-246h-90q0 109 -54 155q-50 42 -161 42q-73 0 -124 -28q-63 -34 -63 -101q0 -71 135 -125q233 -92 251 -103q135 -79 135 -212q0 -265 -359 -265q-164 0 -340 54v260h90q2 -4 4 -13l-1 -4l-3 -2q0 -207 213 -207q197 0 197 144 q0 74 -191 152q-228 94 -265 135q-54 57 -54 151z" />
<glyph unicode="t" horiz-adv-x="737" d="M14 762l1 84q120 9 183 57q68 52 89 166h90v-201h274v-106h-274v-512q0 -166 90 -166q125 0 125 164h102v-17q0 -258 -256 -258q-138 0 -202 62.5t-64 200.5v526h-158z" />
<glyph unicode="u" horiz-adv-x="1159" d="M43 788v80q102 -4 125 -4q89 0 203 10v-540q0 -240 188 -240q223 0 223 277v293q0 95 -42 113q-25 11 -83 11l1 80q101 -4 122 -4q91 0 209 10v-679q0 -54 7 -74q13 -35 55 -42q21 -3 59 -3v-76q-38 2 -106 2q-99 0 -203 -10v143q-96 -164 -307 -164q-190 0 -264 101 q-64 87 -64 286v285q0 91 -17 114q-21 31 -106 31z" />
<glyph unicode="v" horiz-adv-x="1112" d="M18 786l1 82q191 -4 233 -4q39 0 116 2t116 2h5v-82q-151 -8 -151 -67q0 -24 12 -53l219 -535l217 528q15 36 15 62q0 59 -152 66v81q183 -4 221 -4q43 0 223 4l1 -82q-83 -18 -127 -120l-297 -686h-234l-291 671q-27 62 -46 86q-32 42 -81 49z" />
<glyph unicode="w" horiz-adv-x="1616" d="M18 786l1 82q167 -4 204 -4t209 4v-82q-117 0 -117 -67q0 -15 11 -52l159 -530l220 731h247l211 -737l156 533q10 34 10 55q0 61 -102 68v81q64 -4 184 -4q122 0 186 4v-82q-82 -11 -118 -129l-209 -677h-246l-203 765l-221 -765h-250l-221 682q-37 113 -111 124z" />
<glyph unicode="x" horiz-adv-x="1087" d="M27 0v80q64 0 133 80l243 282l-239 263q-68 74 -125 82v81q74 -4 215 -4q145 0 227 4v-81q-98 -3 -98 -50q0 -22 26 -50l152 -163l139 164q21 25 21 41q0 51 -86 58v81q74 -4 205 -4q128 0 194 4v-82q-78 0 -157 -90l-218 -247l261 -279q84 -90 141 -90l-1 -80 q-167 4 -212 4q-34 0 -111 -2q-71 -2 -110 -2h-11l1 80q94 3 94 45q0 28 -33 65l-160 181l-153 -182q-31 -37 -31 -64q0 -45 106 -45v-80q-70 4 -207 4q-134 0 -206 -4z" />
<glyph unicode="y" horiz-adv-x="1004" d="M-37 787v81q197 -4 238 -4q40 0 233 4v-81q-149 -3 -149 -74q0 -20 10 -43l217 -498l219 496q12 27 12 47q0 62 -151 72v81q187 -4 225 -4q43 0 219 4v-81q-80 -17 -129 -121l-389 -830q-22 -47 -22 -76q0 -50 51 -66q24 -6 94 -8v-79q-78 4 -223 4t-225 -4v80 q93 4 147 120l74 160l-318 684q-30 64 -49 87q-32 39 -84 49z" />
<glyph unicode="z" horiz-adv-x="911" d="M66 0v152l555 610h-299q-154 0 -154 -166h-88v272h737v-155l-549 -604h305q117 0 151 38q30 34 32 154h88v-301h-778z" />
<glyph unicode="{" horiz-adv-x="1024" d="M178 604v64q160 13 218.5 74.5t58.5 220.5q0 258 6 308q17 130 94 184q87 61 293 61v-53q-136 -2 -186.5 -55.5t-50.5 -251.5v-52v-53q0 -223 -58 -302q-60 -82 -217 -114q159 -32 217 -113t58 -305v-51.5v-51.5q0 -198 50 -250.5t187 -54.5v-53h-10q-201 0 -287 64 q-75 55 -90 186q-6 47 -6 303q0 161 -59 221.5t-218 73.5z" />
<glyph unicode="|" horiz-adv-x="1024" d="M438 -483v2048h150v-2048h-150z" />
<glyph unicode="}" horiz-adv-x="1024" d="M176 -191q137 2 187 55t50 251v51.5v52.5q0 223 58.5 303.5t216.5 112.5q-157 32 -217 114q-58 79 -58 302v53v52q0 198 -50.5 251.5t-186.5 55.5v53h10q202 0 288 -63q75 -56 91 -187q6 -47 6 -303q0 -161 58 -221.5t219 -73.5v-64q-160 -13 -218.5 -74.5t-58.5 -220.5 q0 -258 -7 -309q-16 -130 -94 -183q-88 -61 -294 -61v53z" />
<glyph unicode="~" horiz-adv-x="1706" d="M178 451v155q212 144 387 144q111 0 302 -68t276 -68q166 0 387 156v-156q-204 -141 -389 -141q-98 0 -288 67.5t-290 67.5q-160 0 -385 -157z" />
<glyph horiz-adv-x="1153" d="M37 467l20 88h133q0 11 -1 36t-1 38q0 22 4 108h-155l20 88h144q67 459 485 459q183 0 352 -57v-309h-123q0 140 -44 195q-51 63 -187 63q-233 0 -272 -351h393l-21 -88h-378q-3 -27 -3 -104v-78h340l-20 -88h-313q33 -377 274 -377q145 0 194 65q42 56 42 207h124v-339 q-206 -52 -374 -52q-422 0 -473 496h-160z" />
<glyph unicode="&#xa1;" horiz-adv-x="657" d="M211 1171q0 113 119 113t119 -113q0 -112 -119 -112t-119 112zM217 0l25 889h174l22 -889h-221z" />
<glyph unicode="&#xa2;" horiz-adv-x="1153" d="M166 434q0 465 477 465q41 0 61 -2l74 233h107l-78 -243q78 -14 151 -31v-285l-100 1q-4 169 -90 198l-213 -674q40 -16 90 -16q193 0 209 192h125q-8 -149 -104 -227q-89 -74 -242 -74q-35 0 -113 10l-84 -266h-110l92 287q-252 93 -252 432zM365 422q0 -193 94 -281 l210 652q-14 2 -38 2q-266 0 -266 -373z" />
<glyph unicode="&#xa3;" horiz-adv-x="1153" d="M106 586v112h156v150q0 232 125 338q116 98 352 98q182 0 322 -23v-323h-113q0 129 -37 182q-45 64 -168 64q-282 0 -282 -316v-170h325v-112h-325v-459h289q139 0 177 58q29 43 29 192h115v-377h-944v86q86 3 113 41q22 30 22 115v344h-156z" />
<glyph unicode="&#xa4;" horiz-adv-x="1153" d="M37 467l20 88h133q0 11 -1 36t-1 38q0 22 4 108h-155l20 88h144q67 459 485 459q183 0 352 -57v-309h-123q0 140 -44 195q-51 63 -187 63q-233 0 -272 -351h393l-21 -88h-378q-3 -27 -3 -104v-78h340l-20 -88h-313q33 -377 274 -377q145 0 194 65q42 56 42 207h124v-339 q-206 -52 -374 -52q-422 0 -473 496h-160z" />
<glyph unicode="&#xa5;" horiz-adv-x="1186" d="M31 1166v89q228 -6 495 0v-90q-131 0 -131 -63q0 -30 21 -74l192 -405l201 411q18 37 18 66q0 65 -125 65l1 90q256 -6 466 0v-90q-98 0 -182 -143l-123 -209h236v-90h-291l-109 -178h400v-90h-412v-217q0 -101 39 -128q29 -20 137 -20v-90q-90 4 -200 4h-144 q-105 0 -198 -4v90q107 0 138 20q40 28 40 128v217h-396v90h383l-106 178h-277v90h228l-121 219q-70 127 -180 134z" />
<glyph unicode="&#xa6;" horiz-adv-x="1024" d="M438 -350v758h150v-758h-150zM438 674v758h150v-758h-150z" />
<glyph unicode="&#xa7;" horiz-adv-x="1024" d="M104 547q0 153 162 254q-106 67 -106 207q0 278 375 278q152 0 301 -49v-268h-95q0 113 -49 163t-162 50q-184 0 -184 -142q0 -89 218 -178q173 -70 240 -120q124 -92 124 -224q0 -151 -164 -254q104 -88 104 -215q0 -282 -372 -282q-178 0 -332 63v285h86q0 -6 -1 -18.5 t-1 -18.5q0 -211 239 -211q189 0 189 145q0 103 -274 220l-80 34q-218 96 -218 281zM281 590q0 -85 157 -169q52 -28 232 -99q80 78 80 153q0 85 -157 170q-51 27 -233 100q-79 -75 -79 -155z" />
<glyph unicode="&#xa8;" horiz-adv-x="1024" d="M223 1167q0 48 30.5 77.5t78.5 29.5q108 0 108 -111q0 -102 -106 -102q-111 0 -111 106zM582 1167q0 47 30.5 77t77.5 30q109 0 109 -111q0 -102 -107 -102q-110 0 -110 106z" />
<glyph unicode="&#xa9;" horiz-adv-x="1683" d="M131 678q0 293 210 503t503 210q294 0 501 -209.5t207 -503.5q0 -293 -208.5 -502t-501.5 -209q-294 0 -502.5 208.5t-208.5 502.5zM223 678q0 -256 181.5 -439.5t437.5 -183.5q255 0 437.5 184t182.5 439q0 257 -181 442t-437 185q-257 0 -439 -185t-182 -442zM420 670 q0 179 115.5 305.5t293.5 126.5q73 0 149.5 -33t80.5 -33q53 0 63 62h37l2 -316h-43q-65 273 -280 273q-240 0 -240 -371q0 -381 260 -381q165 0 281 176l39 -26q-123 -211 -347 -211q-177 0 -294 125t-117 303z" />
<glyph unicode="&#xaa;" horiz-adv-x="758" d="M43 819q0 146 170 187q73 18 283 18v57q0 125 -158 125q-152 0 -152 -125h-67v164q124 31 239 31q147 0 214 -51q77 -58 77 -199v-223q0 -42 5 -60q12 -41 87 -41v-53q-22 2 -67 2q-47 0 -164 -7v108q-44 -123 -225 -123q-102 0 -166 43q-76 50 -76 147zM195 831 q0 -56 37 -87t94 -31q170 0 170 186v55h-99q-202 0 -202 -123z" />
<glyph unicode="&#xab;" horiz-adv-x="991" d="M94 434l219 314h195l-223 -314l223 -315h-195zM483 434l219 314h195l-223 -314l223 -315h-195z" />
<glyph unicode="&#xac;" horiz-adv-x="1706" d="M254 721v139h1198v-502h-137v363h-1061z" />
<glyph unicode="&#xad;" horiz-adv-x="764" d="M70 352v187h624v-187h-624z" />
<glyph unicode="&#xae;" horiz-adv-x="1683" d="M131 678q0 295 209 504t504 209q297 0 504 -211q204 -210 204 -508q0 -211 -124 -393.5t-321 -260.5q-128 -51 -276 -51q-288 0 -494 211.5t-206 499.5zM223 678q0 -257 181.5 -440t437.5 -183t437 183.5t181 439.5q0 258 -179.5 442.5t-436.5 184.5t-439 -185t-182 -442 zM467 289v44q62 4 87 20q34 22 34 79v516q0 57 -33 80q-26 17 -88 21v45h397q118 0 204 -39q114 -52 114 -156q0 -157 -285 -207q198 -58 216 -235q13 -125 67 -125q63 0 63 131h45v-19q0 -174 -160 -174q-110 0 -140 73q-5 14 -21 156q-11 102 -70 145q-48 34 -160 34v-246 q0 -55 33 -78q25 -16 86 -21v-44h-389zM737 981l1 -260q26 -2 63 -2q221 0 221 172q0 77 -55 120q-50 40 -129 40q-101 0 -101 -70z" />
<glyph unicode="&#xaf;" horiz-adv-x="1024" d="M242 1100v135h538v-135h-538z" />
<glyph unicode="&#xb0;" horiz-adv-x="674" d="M49 1167q0 120 84.5 204.5t204.5 84.5t203.5 -84.5t83.5 -204.5q0 -121 -84 -203.5t-205 -82.5t-204 82.5t-83 203.5zM143 1169q0 -82 56.5 -139t138.5 -57q81 0 136.5 57t55.5 139t-55.5 137.5t-136.5 55.5q-82 0 -138.5 -56t-56.5 -137z" />
<glyph unicode="&#xb1;" horiz-adv-x="1706" d="M254 29v141h1198v-141h-1198zM254 713v139h528v340h142v-340h528v-139h-528v-340h-142v340h-528z" />
<glyph unicode="&#xb2;" horiz-adv-x="762" d="M90 502v43q0 109 21 160q34 82 234 198q181 104 181 184q0 60 -56 92q-45 25 -110 25q-94 0 -131 -32q-41 -34 -41 -125h-77v194q116 31 243 31q308 0 308 -207q0 -106 -125 -180l-136 -80q-84 -49 -115 -80q-53 -53 -53 -125q0 -4 1.5 -10.5t1.5 -9.5h196q88 0 114.5 27 t26.5 114h80v-219h-563z" />
<glyph unicode="&#xb3;" horiz-adv-x="762" d="M98 516v203h82q0 -88 34 -124t122 -36q77 0 126 36q56 40 56 114q0 146 -213 158v79q203 0 203 137q0 62 -53 95q-45 28 -111 28q-88 0 -124 -33t-36 -120h-80v188q118 31 240 31q297 0 297 -197q0 -136 -170 -168q184 -36 184 -198q0 -224 -311 -224q-126 0 -246 31z " />
<glyph unicode="&#xb4;" horiz-adv-x="1024" d="M340 1006l264 290q66 72 113 72q78 0 78 -78q0 -44 -78 -94l-299 -190h-78z" />
<glyph unicode="&#xb6;" horiz-adv-x="1024" d="M66 1130q0 166 116 261q108 88 277 88h499v-86h-120v-1393h-111v1393h-176v-1393h-113v782q-162 8 -263 95q-109 94 -109 253z" />
<glyph unicode="&#xb7;" horiz-adv-x="578" d="M166 641q0 51 36 87t87 36t87 -36t36 -87q0 -52 -35.5 -87.5t-87.5 -35.5q-51 0 -87 36t-36 87z" />
<glyph unicode="&#xb8;" horiz-adv-x="1024" d="M268 -375l37 82q140 -72 236 -72q104 0 104 93q0 84 -108 84q-24 0 -60 -6v194h66v-116q40 5 63 5q180 0 180 -165q0 -175 -221 -175q-105 0 -297 76z" />
<glyph unicode="&#xb9;" horiz-adv-x="762" d="M154 1059v90q79 35 186 106h125v-604q0 -69 34 -86q19 -10 99 -10v-53q-198 6 -407 0l-1 53q84 0 104 9q40 17 40 87v508q-83 -61 -180 -100z" />
<glyph unicode="&#xba;" horiz-adv-x="776" d="M53 952q0 157 88 240.5t246 83.5t246 -82q90 -85 90 -242q0 -156 -89.5 -239.5t-246.5 -83.5q-156 0 -245 84t-89 239zM213 954q0 -247 174 -247t174 247q0 248 -174 248t-174 -248z" />
<glyph unicode="&#xbb;" horiz-adv-x="991" d="M94 119l223 315l-223 314h195l219 -314l-219 -315h-195zM483 119l224 315l-224 314h193l221 -314l-221 -315h-193z" />
<glyph unicode="&#xbc;" horiz-adv-x="1796" d="M147 1073v84q64 26 177 98h120v-563q0 -65 33 -80q18 -8 94 -8v-51q-194 6 -388 0l-1 51q78 0 97 8q40 16 40 80v475q-80 -58 -172 -94zM385 -29l879 1313h145l-879 -1313h-145zM1124 201v96l324 405h162v-430h129v-71h-129v-62q0 -61 28 -77q18 -11 86 -11v-51 q-186 6 -378 0v51q109 0 126 19t17 131h-365zM1200 270h293v367z" />
<glyph unicode="&#xbd;" horiz-adv-x="1796" d="M147 1073v84q64 26 177 98h120v-563q0 -65 33 -80q18 -8 94 -8v-51q-194 6 -388 0l-1 51q78 0 97 8q40 16 40 80v475q-80 -58 -172 -94zM385 -29l879 1313h145l-879 -1313h-145zM1155 0v41q0 98 21 147q34 79 225 188q172 98 172 171q0 55 -55 85q-44 23 -105 23 q-89 0 -125 -29q-39 -32 -39 -118h-73v182q97 29 231 29q293 0 293 -193q0 -91 -106 -162l-196 -112q-106 -71 -106 -160q0 -3 1 -9.5t1 -8.5h189q81 0 105 23q28 25 28 108h76v-205h-537z" />
<glyph unicode="&#xbe;" horiz-adv-x="1794" d="M92 565v191h80q0 -84 33 -117t117 -33q72 0 119 33q55 37 55 106q0 142 -205 148v76q194 0 194 127q0 114 -157 114q-84 0 -117 -29q-35 -32 -35 -114h-76v176q99 29 228 29q284 0 284 -182q0 -130 -161 -158q176 -34 176 -184q0 -211 -299 -211q-106 0 -236 28zM385 -29 l879 1313h145l-879 -1313h-145zM1124 201v96l324 405h162v-430h129v-71h-129v-62q0 -61 28 -77q18 -11 86 -11v-51q-186 6 -378 0v51q109 0 126 19t17 131h-365zM1200 270h293v367z" />
<glyph unicode="&#xbf;" horiz-adv-x="981" d="M86 289q0 110 98 223q91 88 183 176q98 95 98 160v61h201v-75q0 -62 -19.5 -103.5t-146.5 -159.5q-199 -184 -199 -299q0 -186 246 -186q241 0 241 195v75h115v-321q-182 -64 -362 -64q-455 0 -455 318zM451 1171q0 113 118 113q121 0 121 -113q0 -112 -121 -112 q-118 0 -118 112z" />
<glyph unicode="&#xc0;" horiz-adv-x="1401" d="M9 0v90q67 4 110 54q28 34 59 112l397 999h267l393 -999q33 -84 59 -114q39 -46 113 -52v-90q-102 4 -279 4q-170 0 -260 -4l1 90q151 3 151 72q0 36 -84 276h-487l-72 -207q-15 -43 -15 -63q0 -78 150 -78v-90q-143 4 -256 4q-112 0 -247 -4zM430 1679q0 78 78 78 q47 0 113 -72l264 -290h-78l-299 190q-78 50 -78 94zM494 563h395l-195 553z" />
<glyph unicode="&#xc1;" horiz-adv-x="1401" d="M9 0v90q67 4 110 54q28 34 59 112l397 999h267l393 -999q33 -84 59 -114q39 -46 113 -52v-90q-102 4 -279 4q-170 0 -260 -4l1 90q151 3 151 72q0 36 -84 276h-487l-72 -207q-15 -43 -15 -63q0 -78 150 -78v-90q-143 4 -256 4q-112 0 -247 -4zM494 563h395l-195 553z M541 1395l264 290q66 72 113 72q78 0 78 -78q0 -44 -78 -94l-299 -190h-78z" />
<glyph unicode="&#xc2;" horiz-adv-x="1401" d="M9 0v90q67 4 110 54q28 34 59 112l397 999h267l393 -999q33 -84 59 -114q39 -46 113 -52v-90q-102 4 -279 4q-170 0 -260 -4l1 90q151 3 151 72q0 36 -84 276h-487l-72 -207q-15 -43 -15 -63q0 -78 150 -78v-90q-143 4 -256 4q-112 0 -247 -4zM424 1335l223 350h132 l223 -350h-72l-217 196l-217 -196h-72zM494 563h395l-195 553z" />
<glyph unicode="&#xc3;" horiz-adv-x="1401" d="M9 0v90q67 4 110 54q28 34 59 112l397 999h267l393 -999q33 -84 59 -114q39 -46 113 -52v-90q-102 4 -279 4q-170 0 -260 -4l1 90q151 3 151 72q0 36 -84 276h-487l-72 -207q-15 -43 -15 -63q0 -78 150 -78v-90q-143 4 -256 4q-112 0 -247 -4zM424 1436q34 225 197 225 q41 0 116.5 -23.5t112.5 -23.5q65 0 92 86h60q-38 -224 -201 -224q-38 0 -116 24t-109 24q-69 0 -94 -88h-58zM494 563h395l-195 553z" />
<glyph unicode="&#xc4;" horiz-adv-x="1401" d="M9 0v90q67 4 110 54q28 34 59 112l397 999h267l393 -999q33 -84 59 -114q39 -46 113 -52v-90q-102 4 -279 4q-170 0 -260 -4l1 90q151 3 151 72q0 36 -84 276h-487l-72 -207q-15 -43 -15 -63q0 -78 150 -78v-90q-143 4 -256 4q-112 0 -247 -4zM424 1556q0 48 30.5 77.5 t78.5 29.5q108 0 108 -111q0 -102 -106 -102q-111 0 -111 106zM494 563h395l-195 553zM783 1556q0 47 30.5 77t77.5 30q109 0 109 -111q0 -102 -107 -102q-110 0 -110 106z" />
<glyph unicode="&#xc5;" horiz-adv-x="1401" d="M8 0v90q67 4 110 54q28 34 59 112l397 999h267l393 -999q33 -84 59 -114q39 -46 113 -52v-90q-102 4 -279 4q-170 0 -260 -4l1 90q151 3 151 72q0 36 -84 276h-487l-72 -207q-15 -43 -15 -63q0 -78 150 -78v-90q-143 4 -256 4q-112 0 -247 -4zM458 1577q0 104 71 176 t175 72q108 0 176.5 -74t68.5 -182q0 -100 -72.5 -169t-172.5 -69q-105 0 -175.5 70.5t-70.5 175.5zM493 563h395l-195 553zM562 1577q0 -58 39.5 -98.5t97.5 -40.5q61 0 103.5 37.5t42.5 97.5q0 61 -40 103t-101 42q-59 0 -100.5 -41t-41.5 -100z" />
<glyph unicode="&#xc6;" horiz-adv-x="1843" d="M-27 90q98 0 180 165l1 2l467 755q41 66 41 96q0 57 -125 57v90h1214v-333h-102q0 135 -37.5 174t-171.5 39h-297v-433h96q119 0 151 25q40 30 40 143h94v-446h-94q-2 113 -45 144q-32 24 -144 24h-98v-465h284q150 0 192 49q36 43 38 198l104 1v-375h-1024v90 q107 0 139 24q39 29 39 132v192h-452l-121 -202q-20 -33 -20 -68q0 -55 54 -71q25 -7 99 -7v-90q-139 4 -250 4q-112 0 -251 -4zM528 553h387v582h-47z" />
<glyph unicode="&#xc7;" horiz-adv-x="1280" d="M100 621q0 323 170.5 493t493.5 170q182 0 410 -76v-313h-130q0 5 1.5 16t1.5 17q0 229 -267 229q-434 0 -434 -532q0 -233 99 -371q114 -156 339 -156q153 0 212 65q55 61 55 216h127v-342q-246 -66 -416 -66q-321 0 -491.5 165t-170.5 485zM471 -375l37 82 q140 -72 236 -72q104 0 104 93q0 84 -108 84q-24 0 -60 -6v194h66v-116q40 5 63 5q180 0 180 -165q0 -175 -221 -175q-105 0 -297 76z" />
<glyph unicode="&#xc8;" horiz-adv-x="1165" d="M61 0v90q108 0 139 24q38 29 38 132v764q0 101 -39 131q-31 24 -129 24v84h1005v-327h-104q0 140 -41 175q-33 29 -168 29h-297v-424h96q119 0 151 25q40 30 40 143h94v-446h-92q-2 113 -45 144q-32 24 -144 24h-100v-467h289q150 0 187.5 43t39.5 206l102 1v-375h-1022z M301 1679q0 78 78 78q47 0 113 -72l264 -290h-78l-299 190q-78 50 -78 94z" />
<glyph unicode="&#xc9;" horiz-adv-x="1165" d="M61 0v90q108 0 139 24q38 29 38 132v764q0 101 -39 131q-31 24 -129 24v84h1005v-327h-104q0 140 -41 175q-33 29 -168 29h-297v-424h96q119 0 151 25q40 30 40 143h94v-446h-92q-2 113 -45 144q-32 24 -144 24h-100v-467h289q150 0 187.5 43t39.5 206l102 1v-375h-1022z M412 1395l264 290q66 72 113 72q78 0 78 -78q0 -44 -78 -94l-299 -190h-78z" />
<glyph unicode="&#xca;" horiz-adv-x="1165" d="M61 0v90q108 0 139 24q38 29 38 132v764q0 101 -39 131q-31 24 -129 24v84h1005v-327h-104q0 140 -41 175q-33 29 -168 29h-297v-424h96q119 0 151 25q40 30 40 143h94v-446h-92q-2 113 -45 144q-32 24 -144 24h-100v-467h289q150 0 187.5 43t39.5 206l102 1v-375h-1022z M324 1335l223 350h132l223 -350h-72l-217 196l-217 -196h-72z" />
<glyph unicode="&#xcb;" horiz-adv-x="1165" d="M61 0v90q108 0 139 24q38 29 38 132v764q0 101 -39 131q-31 24 -129 24v84h1005v-327h-104q0 140 -41 175q-33 29 -168 29h-297v-424h96q119 0 151 25q40 30 40 143h94v-446h-92q-2 113 -45 144q-32 24 -144 24h-100v-467h289q150 0 187.5 43t39.5 206l102 1v-375h-1022z M295 1556q0 48 30.5 77.5t78.5 29.5q108 0 108 -111q0 -102 -106 -102q-111 0 -111 106zM654 1556q0 47 30.5 77t77.5 30q109 0 109 -111q0 -102 -107 -102q-110 0 -110 106z" />
<glyph unicode="&#xcc;" horiz-adv-x="711" d="M73 1679q0 78 78 78q47 0 113 -72l264 -290h-78l-299 190q-78 50 -78 94zM78 0v90q99 0 132.5 29.5t33.5 126.5v764q0 99 -38 130q-32 25 -128 25v90h6q46 0 137 -2t137 -2q49 0 281 4v-90q-98 0 -128 -24q-38 -30 -38 -131v-764q0 -102 37 -132q31 -24 129 -24v-90 q-100 4 -281 4q-180 0 -280 -4z" />
<glyph unicode="&#xcd;" horiz-adv-x="711" d="M78 0v90q99 0 132.5 29.5t33.5 126.5v764q0 99 -38 130q-32 25 -128 25v90h6q46 0 137 -2t137 -2q49 0 281 4v-90q-98 0 -128 -24q-38 -30 -38 -131v-764q0 -102 37 -132q31 -24 129 -24v-90q-100 4 -281 4q-180 0 -280 -4zM184 1395l264 290q66 72 113 72q78 0 78 -78 q0 -44 -78 -94l-299 -190h-78z" />
<glyph unicode="&#xce;" horiz-adv-x="711" d="M67 1395l223 350h132l223 -350h-72l-217 196l-217 -196h-72zM78 0v90q99 0 132.5 29.5t33.5 126.5v764q0 99 -38 130q-32 25 -128 25v90h6q46 0 137 -2t137 -2q49 0 281 4v-90q-98 0 -128 -24q-38 -30 -38 -131v-764q0 -102 37 -132q31 -24 129 -24v-90q-100 4 -281 4 q-180 0 -280 -4z" />
<glyph unicode="&#xcf;" horiz-adv-x="711" d="M67 1556q0 48 30.5 77.5t78.5 29.5q108 0 108 -111q0 -102 -106 -102q-111 0 -111 106zM78 0v90q99 0 132.5 29.5t33.5 126.5v764q0 99 -38 130q-32 25 -128 25v90h6q46 0 137 -2t137 -2q49 0 281 4v-90q-98 0 -128 -24q-38 -30 -38 -131v-764q0 -102 37 -132 q31 -24 129 -24v-90q-100 4 -281 4q-180 0 -280 -4zM426 1556q0 47 30.5 77t77.5 30q109 0 109 -111q0 -102 -107 -102q-110 0 -110 106z" />
<glyph unicode="&#xd0;" horiz-adv-x="1522" d="M105 592v117h188v301q0 101 -39 131q-31 24 -129 24v90h567q727 0 727 -612q0 -643 -694 -643h-600v90q98 0 129 24q39 31 39 132v346h-188zM520 121h154q500 0 500 524q0 257 -128 376q-124 116 -382 116h-144v-428h318v-117h-318v-471z" />
<glyph unicode="&#xd1;" horiz-adv-x="1417" d="M49 0v90q97 0 129 25q39 31 39 131v770q0 94 -38 124q-32 25 -124 25v90h22q40 0 116 -2q80 -2 116 -2q81 0 193 4l530 -1071l-2 826q0 101 -38 131q-30 24 -128 24v90h13q41 0 122.5 -2t122.5 -2q48 0 246 4v-90q-90 0 -121 -23q-41 -29 -41 -120v-1022h-282l-533 1071 l2 -825q0 -101 39 -132q30 -24 129 -24v-90q-94 4 -264 4q-164 0 -248 -4zM420 1436q34 225 197 225q41 0 116.5 -23.5t112.5 -23.5q65 0 92 86h60q-38 -224 -201 -224q-38 0 -116 24t-109 24q-69 0 -94 -88h-58z" />
<glyph unicode="&#xd2;" horiz-adv-x="1442" d="M100 629q0 304 157 476q162 179 464 179q301 0 463 -179q155 -172 155 -476t-155 -477q-162 -181 -463 -181t-465 180q-156 174 -156 478zM348 631q0 -223 74 -357q94 -172 299 -172q371 0 371 529q0 528 -371 528q-205 0 -299 -171q-74 -134 -74 -357zM438 1679 q0 78 78 78q47 0 113 -72l264 -290h-78l-299 190q-78 50 -78 94z" />
<glyph unicode="&#xd3;" horiz-adv-x="1442" d="M100 629q0 304 157 476q162 179 464 179q301 0 463 -179q155 -172 155 -476t-155 -477q-162 -181 -463 -181t-465 180q-156 174 -156 478zM348 631q0 -223 74 -357q94 -172 299 -172q371 0 371 529q0 528 -371 528q-205 0 -299 -171q-74 -134 -74 -357zM549 1395l264 290 q66 72 113 72q78 0 78 -78q0 -44 -78 -94l-299 -190h-78z" />
<glyph unicode="&#xd4;" horiz-adv-x="1442" d="M100 629q0 304 157 476q162 179 464 179q301 0 463 -179q155 -172 155 -476t-155 -477q-162 -181 -463 -181t-465 180q-156 174 -156 478zM348 631q0 -223 74 -357q94 -172 299 -172q371 0 371 529q0 528 -371 528q-205 0 -299 -171q-74 -134 -74 -357zM434 1335l223 350 h132l223 -350h-72l-217 196l-217 -196h-72z" />
<glyph unicode="&#xd5;" horiz-adv-x="1442" d="M100 629q0 304 157 476q162 179 464 179q301 0 463 -179q155 -172 155 -476t-155 -477q-162 -181 -463 -181t-465 180q-156 174 -156 478zM348 631q0 -223 74 -357q94 -172 299 -172q371 0 371 529q0 528 -371 528q-205 0 -299 -171q-74 -134 -74 -357zM432 1436 q34 225 197 225q41 0 116.5 -23.5t112.5 -23.5q65 0 92 86h60q-38 -224 -201 -224q-38 0 -116 24t-109 24q-69 0 -94 -88h-58z" />
<glyph unicode="&#xd6;" horiz-adv-x="1442" d="M100 629q0 304 157 476q162 179 464 179q301 0 463 -179q155 -172 155 -476t-155 -477q-162 -181 -463 -181t-465 180q-156 174 -156 478zM348 631q0 -223 74 -357q94 -172 299 -172q371 0 371 529q0 528 -371 528q-205 0 -299 -171q-74 -134 -74 -357zM432 1556 q0 48 30.5 77.5t78.5 29.5q108 0 108 -111q0 -102 -106 -102q-111 0 -111 106zM791 1556q0 47 30.5 77t77.5 30q109 0 109 -111q0 -102 -107 -102q-110 0 -110 106z" />
<glyph unicode="&#xd7;" horiz-adv-x="1706" d="M293 141l469 469l-469 469l98 99l469 -469l469 469l98 -99l-469 -469l469 -469l-98 -96l-469 467l-469 -467z" />
<glyph unicode="&#xd8;" horiz-adv-x="1442" d="M90 -143l193 266q-183 175 -183 506q0 304 157 476q163 179 464 179q206 0 344 -88l109 160h145l-162 -226q182 -166 182 -501q0 -305 -155 -477q-162 -181 -463 -181q-212 0 -344 84l-144 -198h-143zM340 631q0 -190 66 -334l561 772q-96 98 -246 98q-207 0 -304 -174 q-77 -137 -77 -362zM475 190q98 -96 248 -96q206 0 302 176q75 137 75 361q0 200 -62 336z" />
<glyph unicode="&#xd9;" horiz-adv-x="1366" d="M47 1165v90h6q44 0 133 -2t133 -2q48 0 267 4v-90q-105 0 -134 -24q-34 -28 -34 -131v-555q0 -173 58 -250q67 -90 233 -90q163 0 230 90q58 77 58 246v553q0 108 -38 138q-31 23 -136 23v90h12q41 0 122 -2t122 -2q47 0 244 4v-90h-37q-69 0 -94 -46q-18 -33 -18 -109 v-547q0 -257 -114.5 -374.5t-371.5 -117.5q-495 0 -495 463v576q0 94 -28 124.5t-118 30.5zM415 1679q0 78 78 78q47 0 113 -72l264 -290h-78l-299 190q-78 50 -78 94z" />
<glyph unicode="&#xda;" horiz-adv-x="1366" d="M47 1165v90h6q44 0 133 -2t133 -2q48 0 267 4v-90q-105 0 -134 -24q-34 -28 -34 -131v-555q0 -173 58 -250q67 -90 233 -90q163 0 230 90q58 77 58 246v553q0 108 -38 138q-31 23 -136 23v90h12q41 0 122 -2t122 -2q47 0 244 4v-90h-37q-69 0 -94 -46q-18 -33 -18 -109 v-547q0 -257 -114.5 -374.5t-371.5 -117.5q-495 0 -495 463v576q0 94 -28 124.5t-118 30.5zM526 1395l264 290q66 72 113 72q78 0 78 -78q0 -44 -78 -94l-299 -190h-78z" />
<glyph unicode="&#xdb;" horiz-adv-x="1366" d="M47 1165v90h6q44 0 133 -2t133 -2q48 0 267 4v-90q-105 0 -134 -24q-34 -28 -34 -131v-555q0 -173 58 -250q67 -90 233 -90q163 0 230 90q58 77 58 246v553q0 108 -38 138q-31 23 -136 23v90h12q41 0 122 -2t122 -2q47 0 244 4v-90h-37q-69 0 -94 -46q-18 -33 -18 -109 v-547q0 -257 -114.5 -374.5t-371.5 -117.5q-495 0 -495 463v576q0 94 -28 124.5t-118 30.5zM409 1395l223 350h132l223 -350h-72l-217 196l-217 -196h-72z" />
<glyph unicode="&#xdc;" horiz-adv-x="1366" d="M47 1165v90h6q44 0 133 -2t133 -2q48 0 267 4v-90q-105 0 -134 -24q-34 -28 -34 -131v-555q0 -173 58 -250q67 -90 233 -90q163 0 230 90q58 77 58 246v553q0 108 -38 138q-31 23 -136 23v90h12q41 0 122 -2t122 -2q47 0 244 4v-90h-37q-69 0 -94 -46q-18 -33 -18 -109 v-547q0 -257 -114.5 -374.5t-371.5 -117.5q-495 0 -495 463v576q0 94 -28 124.5t-118 30.5zM409 1556q0 48 30.5 77.5t78.5 29.5q108 0 108 -111q0 -102 -106 -102q-111 0 -111 106zM768 1556q0 47 30.5 77t77.5 30q109 0 109 -111q0 -102 -107 -102q-110 0 -110 106z" />
<glyph unicode="&#xdd;" horiz-adv-x="1235" d="M14 1165v90q170 -4 240 -4q43 0 129 2t129 2h18v-90q-131 0 -131 -57q0 -28 25 -74l207 -379l205 363q26 46 26 82q0 65 -127 65v90h14q45 0 129 -2q88 -2 128 -2q73 0 217 4l-1 -90q-96 -5 -182 -143l-319 -512v-272q0 -99 39 -126q31 -22 135 -22v-90q-104 4 -291 4 q-180 0 -274 -4v90q105 0 135 21q39 28 39 127v276l-309 518q-75 126 -181 133zM446 1395l264 290q66 72 113 72q78 0 78 -78q0 -44 -78 -94l-299 -190h-78z" />
<glyph unicode="&#xde;" horiz-adv-x="1155" d="M72 0v90q99 0 133.5 29.5t34.5 126.5v764q0 99 -39 130q-32 25 -129 25v90q233 -4 282 -4q53 0 281 4v-90q-101 0 -132 -25q-36 -31 -36 -136q294 0 407 -38q213 -71 213 -304q0 -251 -203 -321q-101 -34 -417 -34v-61q0 -102 38 -132q30 -24 130 -24v-90q-97 4 -212 4 h-141q-113 0 -210 -4zM467 418h121q278 0 278 248q0 225 -274 225h-125v-473z" />
<glyph unicode="&#xdf;" horiz-adv-x="1112" d="M39 0v79q85 2 110 36q21 27 21 110v680q0 198 95 288.5t294 90.5q373 0 373 -289q0 -219 -209 -282q153 -8 236 -95.5t83 -240.5q0 -406 -340 -406q-45 0 -77 4v91h12q115 0 157 104q27 67 27 203q0 146 -62 212q-64 70 -208 70v102q102 6 143 66q35 51 35 158 q0 199 -166 199q-118 0 -159 -86q-27 -57 -27 -191v-690q0 -83 29 -109q25 -23 106 -25v-79q-78 4 -231 4q-156 0 -242 -4z" />
<glyph unicode="&#xe0;" d="M57 244q0 205 221 265q103 28 384 28v79q0 181 -211 181q-203 0 -203 -179h-90v232q172 45 319 45q201 0 291 -76q98 -83 98 -280v-320q0 -87 18 -112q23 -31 105 -31v-76q-30 2 -90 2q-113 0 -219 -10v153q-59 -174 -301 -174q-141 0 -226 65q-96 72 -96 208zM211 1290 q0 78 78 78q47 0 113 -72l264 -290h-78l-299 190q-78 50 -78 94zM260 260q0 -77 48.5 -123.5t125.5 -46.5q228 0 228 266v80h-134q-268 0 -268 -176z" />
<glyph unicode="&#xe1;" d="M57 244q0 205 221 265q103 28 384 28v79q0 181 -211 181q-203 0 -203 -179h-90v232q172 45 319 45q201 0 291 -76q98 -83 98 -280v-320q0 -87 18 -112q23 -31 105 -31v-76q-30 2 -90 2q-113 0 -219 -10v153q-59 -174 -301 -174q-141 0 -226 65q-96 72 -96 208zM260 260 q0 -77 48.5 -123.5t125.5 -46.5q228 0 228 266v80h-134q-268 0 -268 -176zM322 1006l264 290q66 72 113 72q78 0 78 -78q0 -44 -78 -94l-299 -190h-78z" />
<glyph unicode="&#xe2;" d="M57 244q0 205 221 265q103 28 384 28v79q0 181 -211 181q-203 0 -203 -179h-90v232q172 45 319 45q201 0 291 -76q98 -83 98 -280v-320q0 -87 18 -112q23 -31 105 -31v-76q-30 2 -90 2q-113 0 -219 -10v153q-59 -174 -301 -174q-141 0 -226 65q-96 72 -96 208zM205 1006 l223 350h132l223 -350h-72l-217 196l-217 -196h-72zM260 260q0 -77 48.5 -123.5t125.5 -46.5q228 0 228 266v80h-134q-268 0 -268 -176z" />
<glyph unicode="&#xe3;" d="M57 244q0 205 221 265q103 28 384 28v79q0 181 -211 181q-203 0 -203 -179h-90v232q172 45 319 45q201 0 291 -76q98 -83 98 -280v-320q0 -87 18 -112q23 -31 105 -31v-76q-30 2 -90 2q-113 0 -219 -10v153q-59 -174 -301 -174q-141 0 -226 65q-96 72 -96 208zM205 1047 q34 225 197 225q41 0 116.5 -23.5t112.5 -23.5q65 0 92 86h60q-38 -224 -201 -224q-38 0 -116 24t-109 24q-69 0 -94 -88h-58zM260 260q0 -77 48.5 -123.5t125.5 -46.5q228 0 228 266v80h-134q-268 0 -268 -176z" />
<glyph unicode="&#xe4;" d="M57 244q0 205 221 265q103 28 384 28v79q0 181 -211 181q-203 0 -203 -179h-90v232q172 45 319 45q201 0 291 -76q98 -83 98 -280v-320q0 -87 18 -112q23 -31 105 -31v-76q-30 2 -90 2q-113 0 -219 -10v153q-59 -174 -301 -174q-141 0 -226 65q-96 72 -96 208zM205 1167 q0 48 30.5 77.5t78.5 29.5q108 0 108 -111q0 -102 -106 -102q-111 0 -111 106zM260 260q0 -77 48.5 -123.5t125.5 -46.5q228 0 228 266v80h-134q-268 0 -268 -176zM564 1167q0 47 30.5 77t77.5 30q109 0 109 -111q0 -102 -107 -102q-110 0 -110 106z" />
<glyph unicode="&#xe5;" d="M57 244q0 205 221 265q103 28 384 28v79q0 181 -211 181q-203 0 -203 -179h-90v232q172 45 319 45q201 0 291 -76q98 -83 98 -280v-320q0 -87 18 -112q23 -31 105 -31v-76q-30 2 -90 2q-113 0 -219 -10v153q-59 -174 -301 -174q-141 0 -226 65q-96 72 -96 208zM250 1217 q0 105 69.5 176t174.5 71q108 0 176.5 -73t68.5 -181q0 -100 -72.5 -169.5t-172.5 -69.5q-105 0 -174.5 70.5t-69.5 175.5zM260 260q0 -77 48.5 -123.5t125.5 -46.5q228 0 228 266v80h-134q-268 0 -268 -176zM354 1217q0 -57 39 -98.5t96 -41.5q60 0 102 38t42 97 q0 62 -39 104t-100 42q-58 0 -99 -41.5t-41 -99.5z" />
<glyph unicode="&#xe6;" horiz-adv-x="1599" d="M51 244q0 207 219 267q101 28 383 28v61q0 197 -207 197q-206 0 -206 -179h-88v232q166 47 301 47q213 0 311 -123q111 121 354 121q204 0 311 -129q99 -120 99 -328q0 -8 -1 -23.5t-1 -23.5h-661q4 -309 272 -309q200 0 235 168h133q-20 -144 -136 -217 q-100 -62 -255 -62q-269 0 -403 176q-121 -176 -349 -176q-135 0 -220 67q-91 74 -91 206zM252 260q0 -78 48.5 -124t127.5 -46q225 0 225 266v84h-133q-268 0 -268 -180zM864 500h467q-4 286 -229 286q-114 0 -177 -90q-53 -75 -61 -196z" />
<glyph unicode="&#xe7;" horiz-adv-x="924" d="M70 434q0 216 117.5 338.5t332.5 122.5q119 0 303 -43v-281h-98q0 121 -41 167q-44 50 -162 50q-124 0 -183 -108q-48 -85 -48 -219q0 -375 231 -375q178 0 195 186h125q-10 -147 -108 -226q-91 -75 -242 -75q-204 0 -316 132q-106 124 -106 331zM227 -375l37 82 q140 -72 236 -72q104 0 104 93q0 84 -108 84q-24 0 -60 -6v194h66v-116q40 5 63 5q180 0 180 -165q0 -175 -221 -175q-105 0 -297 76z" />
<glyph unicode="&#xe8;" horiz-adv-x="1020" d="M70 430q0 209 114 335q118 130 326 130q438 0 438 -459v-45h-663q6 -309 272 -309q198 0 238 168h131q-38 -279 -406 -279q-217 0 -333.5 121t-116.5 338zM227 1290q0 78 78 78q47 0 113 -72l264 -290h-78l-299 190q-78 50 -78 94zM285 500h467v6q0 121 -49 195 q-58 87 -173 87q-225 0 -245 -288z" />
<glyph unicode="&#xe9;" horiz-adv-x="1020" d="M70 430q0 209 114 335q118 130 326 130q438 0 438 -459v-45h-663q6 -309 272 -309q198 0 238 168h131q-38 -279 -406 -279q-217 0 -333.5 121t-116.5 338zM285 500h467v6q0 121 -49 195q-58 87 -173 87q-225 0 -245 -288zM338 1006l264 290q66 72 113 72q78 0 78 -78 q0 -44 -78 -94l-299 -190h-78z" />
<glyph unicode="&#xea;" horiz-adv-x="1020" d="M70 430q0 209 114 335q118 130 326 130q438 0 438 -459v-45h-663q6 -309 272 -309q198 0 238 168h131q-38 -279 -406 -279q-217 0 -333.5 121t-116.5 338zM221 1006l223 350h132l223 -350h-72l-217 196l-217 -196h-72zM285 500h467v6q0 121 -49 195q-58 87 -173 87 q-225 0 -245 -288z" />
<glyph unicode="&#xeb;" horiz-adv-x="1020" d="M70 430q0 209 114 335q118 130 326 130q438 0 438 -459v-45h-663q6 -309 272 -309q198 0 238 168h131q-38 -279 -406 -279q-217 0 -333.5 121t-116.5 338zM221 1167q0 48 30.5 77.5t78.5 29.5q108 0 108 -111q0 -102 -106 -102q-111 0 -111 106zM285 500h467v6 q0 121 -49 195q-58 87 -173 87q-225 0 -245 -288zM580 1167q0 47 30.5 77t77.5 30q109 0 109 -111q0 -102 -107 -102q-110 0 -110 106z" />
<glyph unicode="&#xec;" horiz-adv-x="575" d="M6 1290q0 78 78 78q47 0 113 -72l264 -290h-78l-299 190q-78 50 -78 94zM53 0l1 80q111 4 126 71q6 25 6 74v449q0 57 -10 78q-14 31 -62 37q-19 2 -51 2l1 77q36 -2 106 -2q95 0 221 10v-663q0 -82 26 -106.5t109 -26.5v-80q-78 4 -196 4h-85q-107 0 -192 -4z" />
<glyph unicode="&#xed;" horiz-adv-x="575" d="M53 0l1 80q111 4 126 71q6 25 6 74v449q0 57 -10 78q-14 31 -62 37q-19 2 -51 2l1 77q36 -2 106 -2q95 0 221 10v-663q0 -82 26 -106.5t109 -26.5v-80q-78 4 -196 4h-85q-107 0 -192 -4zM117 1006l264 290q66 72 113 72q78 0 78 -78q0 -44 -78 -94l-299 -190h-78z" />
<glyph unicode="&#xee;" horiz-adv-x="575" d="M0 1006l223 350h132l223 -350h-72l-217 196l-217 -196h-72zM53 0l1 80q111 4 126 71q6 25 6 74v449q0 57 -10 78q-14 31 -62 37q-19 2 -51 2l1 77q36 -2 106 -2q95 0 221 10v-663q0 -82 26 -106.5t109 -26.5v-80q-78 4 -196 4h-85q-107 0 -192 -4z" />
<glyph unicode="&#xef;" horiz-adv-x="575" d="M0 1167q0 48 30.5 77.5t78.5 29.5q108 0 108 -111q0 -102 -106 -102q-111 0 -111 106zM53 0l1 80q111 4 126 71q6 25 6 74v449q0 57 -10 78q-14 31 -62 37q-19 2 -51 2l1 77q36 -2 106 -2q95 0 221 10v-663q0 -82 26 -106.5t109 -26.5v-80q-78 4 -196 4h-85 q-107 0 -192 -4zM359 1167q0 47 30.5 77t77.5 30q109 0 109 -111q0 -102 -107 -102q-110 0 -110 106z" />
<glyph unicode="&#xf0;" horiz-adv-x="1034" d="M70 436q0 209 111 332q116 127 323 127q38 0 98 -10l-108 168l-258 -113l-33 78l243 108l-104 158h184l68 -96l229 98l33 -80l-215 -92l178 -264q144 -214 144 -428q0 -207 -113 -327q-117 -124 -322 -124q-224 0 -341 120t-117 345zM285 436q0 -354 233 -354 q230 0 230 354q0 355 -232 355q-231 0 -231 -355z" />
<glyph unicode="&#xf1;" horiz-adv-x="1159" d="M41 0v79q85 2 111 35q22 28 22 111v449q0 55 -8 75q-13 33 -58 39q-20 3 -55 3v77q38 -2 101 -2q94 0 208 10v-147q95 162 308 162q188 0 263 -102q64 -87 64 -285v-281q0 -89 19 -113q23 -29 108 -30v-80q-76 4 -170 4h-125q-89 0 -174 -4l1 80q84 3 110.5 29t26.5 110 v311q0 238 -189 238q-223 0 -223 -276v-279q0 -83 29 -109q25 -23 106 -25v-79q-78 4 -177 4h-113q-101 0 -185 -4zM282 1047q34 225 197 225q41 0 116.5 -23.5t112.5 -23.5q65 0 92 86h60q-38 -224 -201 -224q-38 0 -116 24t-109 24q-69 0 -94 -88h-58z" />
<glyph unicode="&#xf2;" horiz-adv-x="1034" d="M70 434q0 217 113 338q117 123 333 123q217 0 334 -123q113 -120 113 -338q0 -217 -114 -339q-117 -124 -333 -124t-333 125q-113 121 -113 338zM235 1290q0 78 78 78q47 0 113 -72l264 -290h-78l-299 190q-78 50 -78 94zM285 436q0 -354 231 -354q232 0 232 354 q0 355 -232 355q-231 0 -231 -355z" />
<glyph unicode="&#xf3;" horiz-adv-x="1034" d="M70 434q0 217 113 338q117 123 333 123q217 0 334 -123q113 -120 113 -338q0 -217 -114 -339q-117 -124 -333 -124t-333 125q-113 121 -113 338zM285 436q0 -354 231 -354q232 0 232 354q0 355 -232 355q-231 0 -231 -355zM346 1006l264 290q66 72 113 72q78 0 78 -78 q0 -44 -78 -94l-299 -190h-78z" />
<glyph unicode="&#xf4;" horiz-adv-x="1034" d="M70 434q0 217 113 338q117 123 333 123q217 0 334 -123q113 -120 113 -338q0 -217 -114 -339q-117 -124 -333 -124t-333 125q-113 121 -113 338zM229 1006l223 350h132l223 -350h-72l-217 196l-217 -196h-72zM285 436q0 -354 231 -354q232 0 232 354q0 355 -232 355 q-231 0 -231 -355z" />
<glyph unicode="&#xf5;" horiz-adv-x="1034" d="M70 434q0 217 113 338q117 123 333 123q217 0 334 -123q113 -120 113 -338q0 -217 -114 -339q-117 -124 -333 -124t-333 125q-113 121 -113 338zM229 1047q34 225 197 225q41 0 116.5 -23.5t112.5 -23.5q65 0 92 86h60q-38 -224 -201 -224q-38 0 -116 24t-109 24 q-69 0 -94 -88h-58zM285 436q0 -354 231 -354q232 0 232 354q0 355 -232 355q-231 0 -231 -355z" />
<glyph unicode="&#xf6;" horiz-adv-x="1034" d="M70 434q0 217 113 338q117 123 333 123q217 0 334 -123q113 -120 113 -338q0 -217 -114 -339q-117 -124 -333 -124t-333 125q-113 121 -113 338zM229 1167q0 48 30.5 77.5t78.5 29.5q108 0 108 -111q0 -102 -106 -102q-111 0 -111 106zM285 436q0 -354 231 -354 q232 0 232 354q0 355 -232 355q-231 0 -231 -355zM588 1167q0 47 30.5 77t77.5 30q109 0 109 -111q0 -102 -107 -102q-110 0 -110 106z" />
<glyph unicode="&#xf7;" horiz-adv-x="1706" d="M254 541v139h1198v-139h-1198zM729 242q0 51 37 88t88 37t88 -37t37 -88q0 -52 -36.5 -88.5t-88.5 -36.5q-53 0 -89 36t-36 89zM729 979q0 52 36.5 89.5t88.5 37.5t88.5 -37.5t36.5 -89.5t-36.5 -88.5t-88.5 -36.5t-88.5 36.5t-36.5 88.5z" />
<glyph unicode="&#xf8;" horiz-adv-x="1034" d="M41 -143l158 221q-129 127 -129 356q0 212 111 334q115 127 325 127q144 0 246 -53l112 151h115l-148 -205q132 -111 132 -354q0 -212 -110 -335q-115 -128 -325 -128q-144 0 -252 54l-116 -168h-119zM279 442q0 -107 28 -211l365 502q-53 66 -154 66q-239 0 -239 -357z M360 135q59 -61 158 -61q234 0 234 350q0 138 -29 217z" />
<glyph unicode="&#xf9;" horiz-adv-x="1159" d="M43 788v80q102 -4 125 -4q89 0 203 10v-540q0 -240 188 -240q223 0 223 277v293q0 95 -42 113q-25 11 -83 11l1 80q101 -4 122 -4q91 0 209 10v-679q0 -54 7 -74q13 -35 55 -42q21 -3 59 -3v-76q-38 2 -106 2q-99 0 -203 -10v143q-96 -164 -307 -164q-190 0 -264 101 q-64 87 -64 286v285q0 91 -17 114q-21 31 -106 31zM284 1290q0 78 78 78q47 0 113 -72l264 -290h-78l-299 190q-78 50 -78 94z" />
<glyph unicode="&#xfa;" horiz-adv-x="1159" d="M43 788v80q102 -4 125 -4q89 0 203 10v-540q0 -240 188 -240q223 0 223 277v293q0 95 -42 113q-25 11 -83 11l1 80q101 -4 122 -4q91 0 209 10v-679q0 -54 7 -74q13 -35 55 -42q21 -3 59 -3v-76q-38 2 -106 2q-99 0 -203 -10v143q-96 -164 -307 -164q-190 0 -264 101 q-64 87 -64 286v285q0 91 -17 114q-21 31 -106 31zM395 1006l264 290q66 72 113 72q78 0 78 -78q0 -44 -78 -94l-299 -190h-78z" />
<glyph unicode="&#xfb;" horiz-adv-x="1159" d="M43 788v80q102 -4 125 -4q89 0 203 10v-540q0 -240 188 -240q223 0 223 277v293q0 95 -42 113q-25 11 -83 11l1 80q101 -4 122 -4q91 0 209 10v-679q0 -54 7 -74q13 -35 55 -42q21 -3 59 -3v-76q-38 2 -106 2q-99 0 -203 -10v143q-96 -164 -307 -164q-190 0 -264 101 q-64 87 -64 286v285q0 91 -17 114q-21 31 -106 31zM278 1006l223 350h132l223 -350h-72l-217 196l-217 -196h-72z" />
<glyph unicode="&#xfc;" horiz-adv-x="1159" d="M43 788v80q102 -4 125 -4q89 0 203 10v-540q0 -240 188 -240q223 0 223 277v293q0 95 -42 113q-25 11 -83 11l1 80q101 -4 122 -4q91 0 209 10v-679q0 -54 7 -74q13 -35 55 -42q21 -3 59 -3v-76q-38 2 -106 2q-99 0 -203 -10v143q-96 -164 -307 -164q-190 0 -264 101 q-64 87 -64 286v285q0 91 -17 114q-21 31 -106 31zM278 1167q0 48 30.5 77.5t78.5 29.5q108 0 108 -111q0 -102 -106 -102q-111 0 -111 106zM637 1167q0 47 30.5 77t77.5 30q109 0 109 -111q0 -102 -107 -102q-110 0 -110 106z" />
<glyph unicode="&#xfd;" horiz-adv-x="1004" d="M-37 787v81q197 -4 238 -4q40 0 233 4v-81q-149 -3 -149 -74q0 -20 10 -43l217 -498l219 496q12 27 12 47q0 62 -151 72v81q187 -4 225 -4q43 0 219 4v-81q-80 -17 -129 -121l-389 -830q-22 -47 -22 -76q0 -50 51 -66q24 -6 94 -8v-79q-78 4 -223 4t-225 -4v80 q93 4 147 120l74 160l-318 684q-30 64 -49 87q-32 39 -84 49zM330 1006l264 290q66 72 113 72q78 0 78 -78q0 -44 -78 -94l-299 -190h-78z" />
<glyph unicode="&#xfe;" horiz-adv-x="1087" d="M10 -314q113 6 126 76q5 25 5 70v1217q0 85 -18 107q-22 26 -103 26l1 75q36 -2 106 -2q95 0 221 10v-507q95 137 279 137q190 0 292 -131q91 -118 91 -315q0 -204 -88 -331q-102 -147 -297 -147q-160 0 -277 131v-282q0 -91 36 -115q26 -18 124 -18v-80q-90 4 -201 4 h-109q-107 0 -188 -4v79zM330 432q0 -139 47 -228q61 -114 188 -114q232 0 232 344q0 332 -240 332q-227 0 -227 -334z" />
<glyph unicode="&#xff;" horiz-adv-x="1004" d="M-37 787v81q197 -4 238 -4q40 0 233 4v-81q-149 -3 -149 -74q0 -20 10 -43l217 -498l219 496q12 27 12 47q0 62 -151 72v81q187 -4 225 -4q43 0 219 4v-81q-80 -17 -129 -121l-389 -830q-22 -47 -22 -76q0 -50 51 -66q24 -6 94 -8v-79q-78 4 -223 4t-225 -4v80 q93 4 147 120l74 160l-318 684q-30 64 -49 87q-32 39 -84 49zM213 1167q0 48 30.5 77.5t78.5 29.5q108 0 108 -111q0 -102 -106 -102q-111 0 -111 106zM572 1167q0 47 30.5 77t77.5 30q109 0 109 -111q0 -102 -107 -102q-110 0 -110 106z" />
<glyph unicode="&#x102;" horiz-adv-x="1401" d="M8 0v90q67 4 110 54q28 34 59 112l397 999h267l393 -999q33 -84 59 -114q39 -46 113 -52v-90q-102 4 -279 4q-170 0 -260 -4l1 90q151 3 151 72q0 36 -84 276h-487l-72 -207q-15 -43 -15 -63q0 -78 150 -78v-90q-143 4 -256 4q-112 0 -247 -4zM413 1649h65 q32 -135 236 -135t233 135h66q-41 -281 -299 -281q-260 0 -301 281zM493 563h395l-195 553z" />
<glyph unicode="&#x103;" d="M57 244q0 205 221 265q103 28 384 28v79q0 181 -211 181q-203 0 -203 -179h-90v232q172 45 319 45q201 0 291 -76q98 -83 98 -280v-320q0 -87 18 -112q23 -31 105 -31v-76q-30 2 -90 2q-113 0 -219 -10v153q-59 -174 -301 -174q-141 0 -226 65q-96 72 -96 208zM195 1321 h65q32 -135 236 -135t233 135h66q-41 -281 -299 -281q-260 0 -301 281zM260 260q0 -77 48.5 -123.5t125.5 -46.5q228 0 228 266v80h-134q-268 0 -268 -176z" />
<glyph unicode="&#x106;" horiz-adv-x="1280" d="M100 621q0 323 170.5 493t493.5 170q182 0 410 -76v-313h-130q0 5 1.5 16t1.5 17q0 229 -267 229q-434 0 -434 -532q0 -233 99 -371q114 -156 339 -156q153 0 212 65q55 61 55 216h127v-342q-246 -66 -416 -66q-321 0 -491.5 165t-170.5 485zM557 1395l264 290 q66 72 113 72q78 0 78 -78q0 -44 -78 -94l-299 -190h-78z" />
<glyph unicode="&#x107;" horiz-adv-x="924" d="M70 434q0 216 117.5 338.5t332.5 122.5q119 0 303 -43v-281h-98q0 121 -41 167q-44 50 -162 50q-124 0 -183 -108q-48 -85 -48 -219q0 -375 231 -375q178 0 195 186h125q-10 -147 -108 -226q-91 -75 -242 -75q-204 0 -316 132q-106 124 -106 331zM322 1006l264 290 q66 72 113 72q78 0 78 -78q0 -44 -78 -94l-299 -190h-78z" />
<glyph unicode="&#x10c;" horiz-adv-x="1280" d="M100 621q0 323 170.5 493t493.5 170q182 0 410 -76v-313h-130q0 5 1.5 16t1.5 17q0 229 -267 229q-434 0 -434 -532q0 -233 99 -371q114 -156 339 -156q153 0 212 65q55 61 55 216h127v-342q-246 -66 -416 -66q-321 0 -491.5 165t-170.5 485zM440 1745h72l217 -197 l217 197h72l-223 -350h-132z" />
<glyph unicode="&#x10d;" horiz-adv-x="924" d="M70 434q0 216 117.5 338.5t332.5 122.5q119 0 303 -43v-281h-98q0 121 -41 167q-44 50 -162 50q-124 0 -183 -108q-48 -85 -48 -219q0 -375 231 -375q178 0 195 186h125q-10 -147 -108 -226q-91 -75 -242 -75q-204 0 -316 132q-106 124 -106 331zM205 1356h72l217 -197 l217 197h72l-223 -350h-132z" />
<glyph unicode="&#x110;" horiz-adv-x="1522" d="M105 592v117h188v301q0 101 -39 131q-31 24 -129 24v90h567q727 0 727 -612q0 -643 -694 -643h-600v90q98 0 129 24q39 31 39 132v346h-188zM520 121h154q500 0 500 524q0 257 -128 376q-124 116 -382 116h-144v-428h318v-117h-318v-471z" />
<glyph unicode="&#x111;" horiz-adv-x="1137" d="M78 418q0 205 95 324q105 130 304 130q170 0 260 -127v220h-284v100h284v20q0 64 -45 84q-27 13 -102 13v80q20 -5 131 -5q106 0 223 13v-205h176v-100h-176v-770q0 -75 23 -96.5t100 -23.5v-75q-36 2 -104 2q-93 0 -201 -10v145q-104 -164 -311 -164q-186 0 -285 133 q-88 119 -88 312zM291 422q0 -320 231 -320q122 0 182 99q50 81 50 211q0 344 -234 344q-229 0 -229 -334z" />
<glyph unicode="&#x11e;" horiz-adv-x="1423" d="M100 637q0 647 676 647q225 0 455 -57v-348h-137q0 158 -70 219q-65 57 -227 57q-226 0 -343 -148q-106 -135 -106 -366q0 -252 120 -390q127 -145 376 -145q78 0 167 19l1 254q0 100 -34 127q-33 24 -169 24v86h6q48 0 143.5 -2t143.5 -2q57 0 280 4v-85 q-89 -4 -117 -29q-32 -28 -32 -115v-367q-229 -43 -412 -43q-721 0 -721 660zM412 1710h65q32 -135 236 -135t233 135h66q-41 -281 -299 -281q-260 0 -301 281z" />
<glyph unicode="&#x11f;" horiz-adv-x="1096" d="M74 446q0 199 88 317q99 134 291 134q206 0 325 -166v143q98 -10 178 -10q21 0 117 4v-80q-84 0 -106.5 -26.5t-22.5 -106.5v-602q0 -135 -13 -200q-28 -142 -161 -212q-111 -59 -270 -59q-197 0 -369 78v272h92v-32q0 -121 66 -171q57 -44 182 -44q274 0 274 292v152 q-109 -123 -280 -123q-198 0 -299 124q-92 113 -92 316zM248 1321h65q32 -135 236 -135t233 135h66q-41 -281 -299 -281q-260 0 -301 281zM287 442q0 -134 49 -219q61 -104 186 -104q236 0 236 330q0 321 -236 321q-235 0 -235 -328z" />
<glyph unicode="&#x128;" horiz-adv-x="711" d="M68 1436q34 225 197 225q41 0 116.5 -23.5t112.5 -23.5q65 0 92 86h60q-38 -224 -201 -224q-38 0 -116 24t-109 24q-69 0 -94 -88h-58zM78 0v90q99 0 132.5 29.5t33.5 126.5v764q0 99 -38 130q-32 25 -128 25v90h6q46 0 137 -2t137 -2q49 0 281 4v-90q-98 0 -128 -24 q-38 -30 -38 -131v-764q0 -102 37 -132q31 -24 129 -24v-90q-100 4 -281 4q-180 0 -280 -4z" />
<glyph unicode="&#x129;" horiz-adv-x="575" d="M3 1047q34 225 197 225q41 0 116.5 -23.5t112.5 -23.5q65 0 92 86h60q-38 -224 -201 -224q-38 0 -116 24t-109 24q-69 0 -94 -88h-58zM53 0l1 80q111 4 126 71q6 25 6 74v449q0 57 -10 78q-14 31 -62 37q-19 2 -51 2l1 77q36 -2 106 -2q95 0 221 10v-663q0 -82 26 -106.5 t109 -26.5v-80q-78 4 -196 4h-85q-107 0 -192 -4z" />
<glyph unicode="&#x130;" horiz-adv-x="711" d="M78 0v90q99 0 132.5 29.5t33.5 126.5v764q0 99 -38 130q-32 25 -128 25v90h6q46 0 137 -2t137 -2q49 0 281 4v-90q-98 0 -128 -24q-38 -30 -38 -131v-764q0 -102 37 -132q31 -24 129 -24v-90q-100 4 -281 4q-180 0 -280 -4zM241 1556q0 50 32.5 82.5t82.5 32.5 q115 0 115 -119q0 -110 -119 -110q-50 0 -80.5 32t-30.5 82z" />
<glyph unicode="&#x131;" horiz-adv-x="575" d="M53 0l1 80q111 4 126 71q6 25 6 74v449q0 57 -10 78q-14 31 -62 37q-19 2 -51 2l1 77q36 -2 106 -2q95 0 221 10v-663q0 -82 26 -106.5t109 -26.5v-80q-78 4 -196 4h-85q-107 0 -192 -4z" />
<glyph unicode="&#x141;" horiz-adv-x="1120" d="M53 383v137l228 150v340q0 100 -39 131q-31 24 -129 24v90q243 -4 295 -4q57 0 288 4v-90q-112 0 -144 -21q-44 -29 -44 -134v-252l289 186v-139l-289 -187v-491h242q146 0 189 51q38 45 38 195h102v-373h-966v90q99 0 130 24q38 30 38 132v284z" />
<glyph unicode="&#x142;" horiz-adv-x="647" d="M37 424v117l182 121v387q0 85 -18 107q-21 26 -103 26v75q38 -2 107 -2q95 0 221 10v-524l184 119v-117l-184 -120v-410q0 -84 29 -110q26 -22 106 -23v-80q-78 4 -196 4h-79q-113 0 -198 -4v79q85 2 110 36q21 27 21 110v318z" />
<glyph unicode="&#x152;" horiz-adv-x="1917" d="M98 635q0 472 367 582q127 38 366 38h994v-333h-103q0 132 -39 172.5t-170 40.5h-296v-433h96q116 0 150 26q40 31 40 142h94v-446h-94q0 111 -44 143q-34 25 -144 25h-98v-465h284q147 0 192 51q40 46 40 197h102v-375h-993q-266 0 -405 51q-198 74 -283 277 q-56 132 -56 307zM344 639q0 -278 115.5 -396t392.5 -118h137v1010h-145q-264 0 -382 -116t-118 -380z" />
<glyph unicode="&#x153;" horiz-adv-x="1692" d="M70 434q0 217 113 338q117 123 333 123q219 0 344 -145q131 145 342 145q209 0 317 -124q103 -117 103 -329q0 -9 -1 -26t-1 -25h-664q6 -151 63 -224q65 -85 210 -85q202 0 237 168h131q-37 -277 -399 -277q-242 0 -344 142q-109 -144 -340 -144q-214 0 -331 126 q-113 121 -113 337zM285 436q0 -354 233 -354q230 0 230 348q0 361 -232 361q-231 0 -231 -355zM957 500h468q-2 286 -229 286q-115 0 -178 -89q-53 -75 -61 -197z" />
<glyph unicode="&#x15e;" horiz-adv-x="1133" d="M113 20v353h126q0 -7 -1 -20v-21q0 -248 299 -248q118 0 189 48q83 57 83 169q0 127 -160 195l-237 100q-142 60 -208 122q-91 86 -91 214q0 190 158 280q125 72 331 72q160 0 402 -55v-332h-133q0 8 1 23v24q0 227 -247 227q-115 0 -189 -41q-92 -52 -92 -159 q0 -78 52 -126q37 -35 122 -69l260 -104q266 -106 266 -334q0 -194 -158 -289q-130 -78 -337 -78q-187 0 -436 49zM323 -375l37 82q140 -72 236 -72q104 0 104 93q0 84 -108 84q-24 0 -60 -6v194h66v-116q40 5 63 5q180 0 180 -165q0 -175 -221 -175q-105 0 -297 76z" />
<glyph unicode="&#x15f;" horiz-adv-x="883" d="M86 641q0 254 371 254q161 0 309 -41v-246h-90q0 109 -54 155q-50 42 -161 42q-73 0 -124 -28q-63 -34 -63 -101q0 -71 135 -125q233 -92 251 -103q135 -79 135 -212q0 -265 -359 -265q-164 0 -340 54v260h90q2 -4 4 -13l-1 -4l-3 -2q0 -207 213 -207q197 0 197 144 q0 74 -191 152q-228 94 -265 135q-54 57 -54 151zM198 -375l37 82q140 -72 236 -72q104 0 104 93q0 84 -108 84q-24 0 -60 -6v194h66v-116q40 5 63 5q180 0 180 -165q0 -175 -221 -175q-105 0 -297 76z" />
<glyph unicode="&#x160;" horiz-adv-x="1133" d="M113 20v353h126q0 -7 -1 -20v-21q0 -248 299 -248q118 0 189 48q83 57 83 169q0 127 -160 195l-237 100q-142 60 -208 122q-91 86 -91 214q0 190 158 280q125 72 331 72q160 0 402 -55v-332h-133q0 8 1 23v24q0 227 -247 227q-115 0 -189 -41q-92 -52 -92 -159 q0 -78 52 -126q37 -35 122 -69l260 -104q266 -106 266 -334q0 -194 -158 -289q-130 -78 -337 -78q-187 0 -436 49zM278 1745h72l217 -197l217 197h72l-223 -350h-132z" />
<glyph unicode="&#x161;" horiz-adv-x="883" d="M86 641q0 254 371 254q161 0 309 -41v-246h-90q0 109 -54 155q-50 42 -161 42q-73 0 -124 -28q-63 -34 -63 -101q0 -71 135 -125q233 -92 251 -103q135 -79 135 -212q0 -265 -359 -265q-164 0 -340 54v260h90q2 -4 4 -13l-1 -4l-3 -2q0 -207 213 -207q197 0 197 144 q0 74 -191 152q-228 94 -265 135q-54 57 -54 151zM153 1356h72l217 -197l217 197h72l-223 -350h-132z" />
<glyph unicode="&#x168;" horiz-adv-x="1366" d="M47 1165v90h6q44 0 133 -2t133 -2q48 0 267 4v-90q-105 0 -134 -24q-34 -28 -34 -131v-555q0 -173 58 -250q67 -90 233 -90q163 0 230 90q58 77 58 246v553q0 108 -38 138q-31 23 -136 23v90h12q41 0 122 -2t122 -2q47 0 244 4v-90h-37q-69 0 -94 -46q-18 -33 -18 -109 v-547q0 -257 -114.5 -374.5t-371.5 -117.5q-495 0 -495 463v576q0 94 -28 124.5t-118 30.5zM432 1436q34 225 197 225q41 0 116.5 -23.5t112.5 -23.5q65 0 92 86h60q-38 -224 -201 -224q-38 0 -116 24t-109 24q-69 0 -94 -88h-58z" />
<glyph unicode="&#x169;" horiz-adv-x="1159" d="M43 788v80q102 -4 125 -4q89 0 203 10v-540q0 -240 188 -240q223 0 223 277v293q0 95 -42 113q-25 11 -83 11l1 80q101 -4 122 -4q91 0 209 10v-679q0 -54 7 -74q13 -35 55 -42q21 -3 59 -3v-76q-38 2 -106 2q-99 0 -203 -10v143q-96 -164 -307 -164q-190 0 -264 101 q-64 87 -64 286v285q0 91 -17 114q-21 31 -106 31zM289 1047q34 225 197 225q41 0 116.5 -23.5t112.5 -23.5q65 0 92 86h60q-38 -224 -201 -224q-38 0 -116 24t-109 24q-69 0 -94 -88h-58z" />
<glyph unicode="&#x178;" horiz-adv-x="1235" d="M14 1165v90q170 -4 240 -4q43 0 129 2t129 2h18v-90q-131 0 -131 -57q0 -28 25 -74l207 -379l205 363q26 46 26 82q0 65 -127 65v90h14q45 0 129 -2q88 -2 128 -2q73 0 217 4l-1 -90q-96 -5 -182 -143l-319 -512v-272q0 -99 39 -126q31 -22 135 -22v-90q-104 4 -291 4 q-180 0 -274 -4v90q105 0 135 21q39 28 39 127v276l-309 518q-75 126 -181 133zM329 1556q0 48 30.5 77.5t78.5 29.5q108 0 108 -111q0 -102 -106 -102q-111 0 -111 106zM688 1556q0 47 30.5 77t77.5 30q109 0 109 -111q0 -102 -107 -102q-110 0 -110 106z" />
<glyph unicode="&#x17d;" horiz-adv-x="1135" d="M61 0v160l760 966h-450q-131 0 -158 -52q-16 -28 -16 -179h-115v356h965v-161l-754 -965h498q98 0 133 46t39 202h114v-373h-1016zM278 1745h72l217 -197l217 197h72l-223 -350h-132z" />
<glyph unicode="&#x17e;" horiz-adv-x="911" d="M66 0v152l555 610h-299q-154 0 -154 -166h-88v272h737v-155l-549 -604h305q117 0 151 38q30 34 32 154h88v-301h-778zM168 1356h72l217 -197l217 197h72l-223 -350h-132z" />
<glyph unicode="&#x192;" horiz-adv-x="1153" d="M8 -340l45 266h78q-4 -28 -4 -69q0 -119 88 -119q117 0 156 287l90 657h-207v113h225q37 250 89 340q86 151 294 151q82 0 203 -37l-53 -233h-90q6 42 6 69q0 105 -84 105q-114 0 -142 -213l-24 -182h211v-113h-227l-78 -567q-32 -233 -95 -337q-93 -153 -292 -153 q-78 0 -189 35z" />
<glyph unicode="&#x1a0;" horiz-adv-x="1463" d="M100 629q0 304 157 476q162 179 464 179q301 0 463 -179q155 -172 155 -476t-155 -477q-162 -181 -463 -181t-465 180q-156 174 -156 478zM348 631q0 -223 74 -357q94 -172 299 -172q371 0 371 529q0 528 -371 528q-205 0 -299 -171q-74 -134 -74 -357zM1056 1008 l177 334h219l-272 -334h-124z" />
<glyph unicode="&#x1a1;" horiz-adv-x="1072" d="M70 434q0 217 113 338q117 123 333 123q217 0 334 -123q113 -120 113 -338q0 -217 -114 -339q-117 -124 -333 -124t-333 125q-113 121 -113 338zM285 436q0 -354 231 -354q232 0 232 354q0 355 -232 355q-231 0 -231 -355zM736 628l177 334h219l-272 -334h-124z" />
<glyph unicode="&#x1af;" horiz-adv-x="1437" d="M47 1165v90h6q44 0 133 -2t133 -2q48 0 267 4v-90q-105 0 -134 -24q-34 -28 -34 -131v-555q0 -173 58 -250q67 -90 233 -90q163 0 230 90q58 77 58 246v553q0 108 -38 138q-31 23 -136 23v90h12q41 0 122 -2t122 -2q47 0 244 4v-90h-37q-69 0 -94 -46q-18 -33 -18 -109 v-547q0 -257 -114.5 -374.5t-371.5 -117.5q-495 0 -495 463v576q0 94 -28 124.5t-118 30.5zM1136 1008l177 334h219l-272 -334h-124z" />
<glyph unicode="&#x1b0;" horiz-adv-x="1220" d="M43 788v80q102 -4 125 -4q89 0 203 10v-540q0 -240 188 -240q223 0 223 277v293q0 95 -42 113q-25 11 -83 11l1 80q101 -4 122 -4q91 0 209 10v-679q0 -54 7 -74q13 -35 55 -42q21 -3 59 -3v-76q-38 2 -106 2q-99 0 -203 -10v143q-96 -164 -307 -164q-190 0 -264 101 q-64 87 -64 286v285q0 91 -17 114q-21 31 -106 31zM866 628l177 334h219l-272 -334h-124z" />
<glyph unicode="&#x2c6;" horiz-adv-x="1024" d="M223 1006l223 350h132l223 -350h-72l-217 196l-217 -196h-72z" />
<glyph unicode="&#x2c7;" horiz-adv-x="1024" d="M223 1356h72l217 -197l217 197h72l-223 -350h-132z" />
<glyph unicode="&#x2d8;" horiz-adv-x="1024" d="M211 1321h65q32 -135 236 -135t233 135h66q-41 -281 -299 -281q-260 0 -301 281z" />
<glyph unicode="&#x2d9;" horiz-adv-x="1024" d="M397 1167q0 50 32.5 82.5t82.5 32.5q115 0 115 -119q0 -110 -119 -110q-50 0 -80.5 32t-30.5 82z" />
<glyph unicode="&#x2da;" horiz-adv-x="1024" d="M266 1235q0 104 71 175t175 71q103 0 175.5 -71.5t72.5 -174.5q0 -104 -72 -176t-176 -72q-105 0 -175.5 71.5t-70.5 176.5zM371 1235q0 -60 40.5 -100.5t100.5 -40.5t100.5 40.5t40.5 100.5q0 59 -41 99t-100 40t-100 -40t-41 -99z" />
<glyph unicode="&#x2db;" horiz-adv-x="1024" d="M317 -297q0 166 261 328h49q-178 -139 -178 -269q0 -114 98 -114q67 0 119 73l28 -16q-77 -156 -221 -156q-71 0 -113.5 41.5t-42.5 112.5z" />
<glyph unicode="&#x2dc;" horiz-adv-x="1024" d="M223 1047q34 225 197 225q41 0 116.5 -23.5t112.5 -23.5q65 0 92 86h60q-38 -224 -201 -224q-38 0 -116 24t-109 24q-69 0 -94 -88h-58z" />
<glyph unicode="&#x2dd;" horiz-adv-x="1024" d="M326 1006l135 278q42 86 88 86q72 0 72 -67q0 -37 -43 -86l-187 -211h-65zM569 1006l179 286q48 76 96 76q25 0 45 -19t20 -44q0 -44 -53 -93l-223 -206h-64z" />
<glyph unicode="&#x394;" horiz-adv-x="1350" d="M53 0l613 1497h30l600 -1497h-1243zM213 217h768l-379 957z" />
<glyph unicode="&#x3a9;" horiz-adv-x="1569" d="M27 389h61l59 -184h312v26q-309 343 -309 646q0 269 184 446q181 174 452 174q270 0 451 -174q184 -177 184 -446q0 -300 -309 -646v-26h311l60 184h61l-117 -389h-505q243 437 243 862q0 559 -379 559q-380 0 -380 -559q0 -422 243 -862h-506z" />
<glyph unicode="&#x3bc;" horiz-adv-x="1169" d="M-102 -326q0 43 70.5 278.5t109.5 420.5l108 512h168l-100 -475q-18 -86 -18 -134q0 -147 161 -147q188 0 236 227l112 529h173l-115 -532q-19 -88 -19 -128q0 -100 103 -100q73 0 116 58q23 30 50 107q21 58 39 58q22 0 22 -29q0 -34 -13 -88q-64 -256 -251 -256 q-170 0 -170 222q-100 -222 -295 -222t-219 220q-32 -140 -64 -355q-38 -260 -116 -260q-88 0 -88 94z" />
<glyph unicode="&#x3c0;" horiz-adv-x="1389" d="M35 492q36 197 105 283q88 110 270 110h960l-43 -199h-340q-32 -134 -37 -401q-3 -152 -12 -198q-25 -130 -113 -130q-86 0 -86 111q0 57 77.5 260t113.5 358h-387q-35 -142 -40 -414q-3 -145 -12 -191q-26 -124 -112 -124q-84 0 -84 111q0 58 76.5 261t111.5 357h-188 q-97 0 -144 -50q-38 -42 -59 -144h-57z" />
<glyph unicode="&#x1ea0;" horiz-adv-x="1401" d="M8 0v90q67 4 110 54q28 34 59 112l397 999h267l393 -999q33 -84 59 -114q39 -46 113 -52v-90q-102 4 -279 4q-170 0 -260 -4l1 90q151 3 151 72q0 36 -84 276h-487l-72 -207q-15 -43 -15 -63q0 -78 150 -78v-90q-143 4 -256 4q-112 0 -247 -4zM493 563h395l-195 553z M595 -259q0 115 119 115t119 -115q0 -113 -119 -113t-119 113z" />
<glyph unicode="&#x1ea1;" d="M57 244q0 205 221 265q103 28 384 28v79q0 181 -211 181q-203 0 -203 -179h-90v232q172 45 319 45q201 0 291 -76q98 -83 98 -280v-320q0 -87 18 -112q23 -31 105 -31v-76q-30 2 -90 2q-113 0 -219 -10v153q-59 -174 -301 -174q-141 0 -226 65q-96 72 -96 208zM260 260 q0 -77 48.5 -123.5t125.5 -46.5q228 0 228 266v80h-134q-268 0 -268 -176zM375 -259q0 115 119 115t119 -115q0 -113 -119 -113t-119 113z" />
<glyph unicode="&#x1ea2;" horiz-adv-x="1401" d="M8 0v90q67 4 110 54q28 34 59 112l397 999h267l393 -999q33 -84 59 -114q39 -46 113 -52v-90q-102 4 -279 4q-170 0 -260 -4l1 90q151 3 151 72q0 36 -84 276h-487l-72 -207q-15 -43 -15 -63q0 -78 150 -78v-90q-143 4 -256 4q-112 0 -247 -4zM493 563h395l-195 553z M569 1594v142q78 28 137 28q75 0 135 -31q79 -39 79 -114q0 -69 -80 -137.5t-80 -98.5v-20h-120v28q0 45 67.5 120.5t67.5 108.5q0 60 -68 60q-77 0 -77 -51v-35h-61z" />
<glyph unicode="&#x1ea3;" d="M57 244q0 205 221 265q103 28 384 28v79q0 181 -211 181q-203 0 -203 -179h-90v232q172 45 319 45q201 0 291 -76q98 -83 98 -280v-320q0 -87 18 -112q23 -31 105 -31v-76q-30 2 -90 2q-113 0 -219 -10v153q-59 -174 -301 -174q-141 0 -226 65q-96 72 -96 208zM260 260 q0 -77 48.5 -123.5t125.5 -46.5q228 0 228 266v80h-134q-268 0 -268 -176zM335 1225v142q78 28 137 28q75 0 135 -31q79 -39 79 -114q0 -69 -80 -137.5t-80 -98.5v-20h-120v28q0 45 67.5 120.5t67.5 108.5q0 60 -68 60q-77 0 -77 -51v-35h-61z" />
<glyph unicode="&#x1ea4;" horiz-adv-x="1401" d="M9 0v90q67 4 110 54q28 34 59 112l397 999h267l393 -999q33 -84 59 -114q39 -46 113 -52v-90q-102 4 -279 4q-170 0 -260 -4l1 90q151 3 151 72q0 36 -84 276h-487l-72 -207q-15 -43 -15 -63q0 -78 150 -78v-90q-143 4 -256 4q-112 0 -247 -4zM424 1335l223 350h132 l223 -350h-72l-217 196l-217 -196h-72zM479 1724l264 290q66 72 113 72q78 0 78 -78q0 -44 -78 -94l-299 -190h-78zM494 563h395l-195 553z" />
<glyph unicode="&#x1ea5;" d="M57 244q0 205 221 265q103 28 384 28v79q0 181 -211 181q-203 0 -203 -179h-90v232q172 45 319 45q201 0 291 -76q98 -83 98 -280v-320q0 -87 18 -112q23 -31 105 -31v-76q-30 2 -90 2q-113 0 -219 -10v153q-59 -174 -301 -174q-141 0 -226 65q-96 72 -96 208zM205 1006 l223 350h132l223 -350h-72l-217 196l-217 -196h-72zM260 260q0 -77 48.5 -123.5t125.5 -46.5q228 0 228 266v80h-134q-268 0 -268 -176zM261 1394l264 290q66 72 113 72q78 0 78 -78q0 -44 -78 -94l-299 -190h-78z" />
<glyph unicode="&#x1ea6;" horiz-adv-x="1401" d="M9 0v90q67 4 110 54q28 34 59 112l397 999h267l393 -999q33 -84 59 -114q39 -46 113 -52v-90q-102 4 -279 4q-170 0 -260 -4l1 90q151 3 151 72q0 36 -84 276h-487l-72 -207q-15 -43 -15 -63q0 -78 150 -78v-90q-143 4 -256 4q-112 0 -247 -4zM424 1335l223 350h132 l223 -350h-72l-217 196l-217 -196h-72zM492 2006q0 78 78 78q47 0 113 -72l264 -290h-78l-299 190q-78 50 -78 94zM494 563h395l-195 553z" />
<glyph unicode="&#x1ea7;" d="M57 244q0 205 221 265q103 28 384 28v79q0 181 -211 181q-203 0 -203 -179h-90v232q172 45 319 45q201 0 291 -76q98 -83 98 -280v-320q0 -87 18 -112q23 -31 105 -31v-76q-30 2 -90 2q-113 0 -219 -10v153q-59 -174 -301 -174q-141 0 -226 65q-96 72 -96 208zM205 1006 l223 350h132l223 -350h-72l-217 196l-217 -196h-72zM260 260q0 -77 48.5 -123.5t125.5 -46.5q228 0 228 266v80h-134q-268 0 -268 -176zM273 1678q0 78 78 78q47 0 113 -72l264 -290h-78l-299 190q-78 50 -78 94z" />
<glyph unicode="&#x1ea8;" horiz-adv-x="1401" d="M9 0v90q67 4 110 54q28 34 59 112l397 999h267l393 -999q33 -84 59 -114q39 -46 113 -52v-90q-102 4 -279 4q-170 0 -260 -4l1 90q151 3 151 72q0 36 -84 276h-487l-72 -207q-15 -43 -15 -63q0 -78 150 -78v-90q-143 4 -256 4q-112 0 -247 -4zM424 1335l223 350h132 l223 -350h-72l-217 196l-217 -196h-72zM494 563h395l-195 553zM801 1895v142q78 28 137 28q75 0 135 -31q79 -39 79 -114q0 -69 -80 -137.5t-80 -98.5v-20h-120v28q0 45 67.5 120.5t67.5 108.5q0 60 -68 60q-77 0 -77 -51v-35h-61z" />
<glyph unicode="&#x1ea9;" d="M57 244q0 205 221 265q103 28 384 28v79q0 181 -211 181q-203 0 -203 -179h-90v232q172 45 319 45q201 0 291 -76q98 -83 98 -280v-320q0 -87 18 -112q23 -31 105 -31v-76q-30 2 -90 2q-113 0 -219 -10v153q-59 -174 -301 -174q-141 0 -226 65q-96 72 -96 208zM205 1006 l223 350h132l223 -350h-72l-217 196l-217 -196h-72zM260 260q0 -77 48.5 -123.5t125.5 -46.5q228 0 228 266v80h-134q-268 0 -268 -176zM583 1565v142q78 28 137 28q75 0 135 -31q79 -39 79 -114q0 -69 -80 -137.5t-80 -98.5v-20h-120v28q0 45 67.5 120.5t67.5 108.5 q0 60 -68 60q-77 0 -77 -51v-35h-61z" />
<glyph unicode="&#x1eaa;" horiz-adv-x="1401" d="M9 0v90q67 4 110 54q28 34 59 112l397 999h267l393 -999q33 -84 59 -114q39 -46 113 -52v-90q-102 4 -279 4q-170 0 -260 -4l1 90q151 3 151 72q0 36 -84 276h-487l-72 -207q-15 -43 -15 -63q0 -78 150 -78v-90q-143 4 -256 4q-112 0 -247 -4zM424 1335l223 350h132 l223 -350h-72l-217 196l-217 -196h-72zM490 1738q34 225 197 225q41 0 116.5 -23.5t112.5 -23.5q65 0 92 86h60q-38 -224 -201 -224q-38 0 -116 24t-109 24q-69 0 -94 -88h-58zM494 563h395l-195 553z" />
<glyph unicode="&#x1eab;" d="M57 244q0 205 221 265q103 28 384 28v79q0 181 -211 181q-203 0 -203 -179h-90v232q172 45 319 45q201 0 291 -76q98 -83 98 -280v-320q0 -87 18 -112q23 -31 105 -31v-76q-30 2 -90 2q-113 0 -219 -10v153q-59 -174 -301 -174q-141 0 -226 65q-96 72 -96 208zM205 1006 l223 350h132l223 -350h-72l-217 196l-217 -196h-72zM260 260q0 -77 48.5 -123.5t125.5 -46.5q228 0 228 266v80h-134q-268 0 -268 -176zM271 1409q34 225 197 225q41 0 116.5 -23.5t112.5 -23.5q65 0 92 86h60q-38 -224 -201 -224q-38 0 -116 24t-109 24q-69 0 -94 -88h-58z " />
<glyph unicode="&#x1eac;" horiz-adv-x="1401" d="M9 0v90q67 4 110 54q28 34 59 112l397 999h267l393 -999q33 -84 59 -114q39 -46 113 -52v-90q-102 4 -279 4q-170 0 -260 -4l1 90q151 3 151 72q0 36 -84 276h-487l-72 -207q-15 -43 -15 -63q0 -78 150 -78v-90q-143 4 -256 4q-112 0 -247 -4zM424 1335l223 350h132 l223 -350h-72l-217 196l-217 -196h-72zM494 563h395l-195 553zM595 -259q0 115 119 115t119 -115q0 -113 -119 -113t-119 113z" />
<glyph unicode="&#x1ead;" d="M57 244q0 205 221 265q103 28 384 28v79q0 181 -211 181q-203 0 -203 -179h-90v232q172 45 319 45q201 0 291 -76q98 -83 98 -280v-320q0 -87 18 -112q23 -31 105 -31v-76q-30 2 -90 2q-113 0 -219 -10v153q-59 -174 -301 -174q-141 0 -226 65q-96 72 -96 208zM205 1006 l223 350h132l223 -350h-72l-217 196l-217 -196h-72zM260 260q0 -77 48.5 -123.5t125.5 -46.5q228 0 228 266v80h-134q-268 0 -268 -176zM375 -259q0 115 119 115t119 -115q0 -113 -119 -113t-119 113z" />
<glyph unicode="&#x1eae;" horiz-adv-x="1401" d="M8 0v90q67 4 110 54q28 34 59 112l397 999h267l393 -999q33 -84 59 -114q39 -46 113 -52v-90q-102 4 -279 4q-170 0 -260 -4l1 90q151 3 151 72q0 36 -84 276h-487l-72 -207q-15 -43 -15 -63q0 -78 150 -78v-90q-143 4 -256 4q-112 0 -247 -4zM413 1649h65 q32 -135 236 -135t233 135h66q-41 -281 -299 -281q-260 0 -301 281zM493 563h395l-195 553zM550 1721l264 290q66 72 113 72q78 0 78 -78q0 -44 -78 -94l-299 -190h-78z" />
<glyph unicode="&#x1eaf;" d="M57 244q0 205 221 265q103 28 384 28v79q0 181 -211 181q-203 0 -203 -179h-90v232q172 45 319 45q201 0 291 -76q98 -83 98 -280v-320q0 -87 18 -112q23 -31 105 -31v-76q-30 2 -90 2q-113 0 -219 -10v153q-59 -174 -301 -174q-141 0 -226 65q-96 72 -96 208zM195 1321 h65q32 -135 236 -135t233 135h66q-41 -281 -299 -281q-260 0 -301 281zM260 260q0 -77 48.5 -123.5t125.5 -46.5q228 0 228 266v80h-134q-268 0 -268 -176zM331 1394l264 290q66 72 113 72q78 0 78 -78q0 -44 -78 -94l-299 -190h-78z" />
<glyph unicode="&#x1eb0;" horiz-adv-x="1401" d="M8 0v90q67 4 110 54q28 34 59 112l397 999h267l393 -999q33 -84 59 -114q39 -46 113 -52v-90q-102 4 -279 4q-170 0 -260 -4l1 90q151 3 151 72q0 36 -84 276h-487l-72 -207q-15 -43 -15 -63q0 -78 150 -78v-90q-143 4 -256 4q-112 0 -247 -4zM413 1649h65 q32 -135 236 -135t233 135h66q-41 -281 -299 -281q-260 0 -301 281zM431 2005q0 78 78 78q47 0 113 -72l264 -290h-78l-299 190q-78 50 -78 94zM493 563h395l-195 553z" />
<glyph unicode="&#x1eb1;" d="M57 244q0 205 221 265q103 28 384 28v79q0 181 -211 181q-203 0 -203 -179h-90v232q172 45 319 45q201 0 291 -76q98 -83 98 -280v-320q0 -87 18 -112q23 -31 105 -31v-76q-30 2 -90 2q-113 0 -219 -10v153q-59 -174 -301 -174q-141 0 -226 65q-96 72 -96 208zM195 1321 h65q32 -135 236 -135t233 135h66q-41 -281 -299 -281q-260 0 -301 281zM213 1678q0 78 78 78q47 0 113 -72l264 -290h-78l-299 190q-78 50 -78 94zM260 260q0 -77 48.5 -123.5t125.5 -46.5q228 0 228 266v80h-134q-268 0 -268 -176z" />
<glyph unicode="&#x1eb2;" horiz-adv-x="1401" d="M8 0v90q67 4 110 54q28 34 59 112l397 999h267l393 -999q33 -84 59 -114q39 -46 113 -52v-90q-102 4 -279 4q-170 0 -260 -4l1 90q151 3 151 72q0 36 -84 276h-487l-72 -207q-15 -43 -15 -63q0 -78 150 -78v-90q-143 4 -256 4q-112 0 -247 -4zM413 1649h65 q32 -135 236 -135t233 135h66q-41 -281 -299 -281q-260 0 -301 281zM493 563h395l-195 553zM571 1893v142q78 28 137 28q75 0 135 -31q79 -39 79 -114q0 -69 -80 -137.5t-80 -98.5v-20h-120v28q0 45 67.5 120.5t67.5 108.5q0 60 -68 60q-77 0 -77 -51v-35h-61z" />
<glyph unicode="&#x1eb3;" d="M57 244q0 205 221 265q103 28 384 28v79q0 181 -211 181q-203 0 -203 -179h-90v232q172 45 319 45q201 0 291 -76q98 -83 98 -280v-320q0 -87 18 -112q23 -31 105 -31v-76q-30 2 -90 2q-113 0 -219 -10v153q-59 -174 -301 -174q-141 0 -226 65q-96 72 -96 208zM195 1321 h65q32 -135 236 -135t233 135h66q-41 -281 -299 -281q-260 0 -301 281zM260 260q0 -77 48.5 -123.5t125.5 -46.5q228 0 228 266v80h-134q-268 0 -268 -176zM353 1565v142q78 28 137 28q75 0 135 -31q79 -39 79 -114q0 -69 -80 -137.5t-80 -98.5v-20h-120v28q0 45 67.5 120.5 t67.5 108.5q0 60 -68 60q-77 0 -77 -51v-35h-61z" />
<glyph unicode="&#x1eb4;" horiz-adv-x="1401" d="M8 0v90q67 4 110 54q28 34 59 112l397 999h267l393 -999q33 -84 59 -114q39 -46 113 -52v-90q-102 4 -279 4q-170 0 -260 -4l1 90q151 3 151 72q0 36 -84 276h-487l-72 -207q-15 -43 -15 -63q0 -78 150 -78v-90q-143 4 -256 4q-112 0 -247 -4zM413 1649h65 q32 -135 236 -135t233 135h66q-41 -281 -299 -281q-260 0 -301 281zM490 1737q34 225 197 225q41 0 116.5 -23.5t112.5 -23.5q65 0 92 86h60q-38 -224 -201 -224q-38 0 -116 24t-109 24q-69 0 -94 -88h-58zM493 563h395l-195 553z" />
<glyph unicode="&#x1eb5;" d="M57 244q0 205 221 265q103 28 384 28v79q0 181 -211 181q-203 0 -203 -179h-90v232q172 45 319 45q201 0 291 -76q98 -83 98 -280v-320q0 -87 18 -112q23 -31 105 -31v-76q-30 2 -90 2q-113 0 -219 -10v153q-59 -174 -301 -174q-141 0 -226 65q-96 72 -96 208zM195 1321 h65q32 -135 236 -135t233 135h66q-41 -281 -299 -281q-260 0 -301 281zM260 260q0 -77 48.5 -123.5t125.5 -46.5q228 0 228 266v80h-134q-268 0 -268 -176zM271 1409q34 225 197 225q41 0 116.5 -23.5t112.5 -23.5q65 0 92 86h60q-38 -224 -201 -224q-38 0 -116 24t-109 24 q-69 0 -94 -88h-58z" />
<glyph unicode="&#x1eb6;" horiz-adv-x="1401" d="M8 0v90q67 4 110 54q28 34 59 112l397 999h267l393 -999q33 -84 59 -114q39 -46 113 -52v-90q-102 4 -279 4q-170 0 -260 -4l1 90q151 3 151 72q0 36 -84 276h-487l-72 -207q-15 -43 -15 -63q0 -78 150 -78v-90q-143 4 -256 4q-112 0 -247 -4zM413 1649h65 q32 -135 236 -135t233 135h66q-41 -281 -299 -281q-260 0 -301 281zM493 563h395l-195 553zM595 -259q0 115 119 115t119 -115q0 -113 -119 -113t-119 113z" />
<glyph unicode="&#x1eb7;" d="M57 244q0 205 221 265q103 28 384 28v79q0 181 -211 181q-203 0 -203 -179h-90v232q172 45 319 45q201 0 291 -76q98 -83 98 -280v-320q0 -87 18 -112q23 -31 105 -31v-76q-30 2 -90 2q-113 0 -219 -10v153q-59 -174 -301 -174q-141 0 -226 65q-96 72 -96 208zM195 1321 h65q32 -135 236 -135t233 135h66q-41 -281 -299 -281q-260 0 -301 281zM260 260q0 -77 48.5 -123.5t125.5 -46.5q228 0 228 266v80h-134q-268 0 -268 -176zM375 -259q0 115 119 115t119 -115q0 -113 -119 -113t-119 113z" />
<glyph unicode="&#x1eb8;" horiz-adv-x="1165" d="M61 0v90q108 0 139 24q38 29 38 132v764q0 101 -39 131q-31 24 -129 24v84h1005v-327h-104q0 140 -41 175q-33 29 -168 29h-297v-424h96q119 0 151 25q40 30 40 143h94v-446h-92q-2 113 -45 144q-32 24 -144 24h-100v-467h289q150 0 187.5 43t39.5 206l102 1v-375h-1022z M497 -259q0 115 119 115t119 -115q0 -113 -119 -113t-119 113z" />
<glyph unicode="&#x1eb9;" horiz-adv-x="1020" d="M70 430q0 209 114 335q118 130 326 130q438 0 438 -459v-45h-663q6 -309 272 -309q198 0 238 168h131q-38 -279 -406 -279q-217 0 -333.5 121t-116.5 338zM285 500h467v6q0 121 -49 195q-58 87 -173 87q-225 0 -245 -288zM393 -259q0 115 119 115t119 -115 q0 -113 -119 -113t-119 113z" />
<glyph unicode="&#x1eba;" horiz-adv-x="1165" d="M61 0v90q108 0 139 24q38 29 38 132v764q0 101 -39 131q-31 24 -129 24v84h1005v-327h-104q0 140 -41 175q-33 29 -168 29h-297v-424h96q119 0 151 25q40 30 40 143h94v-446h-92q-2 113 -45 144q-32 24 -144 24h-100v-467h289q150 0 187.5 43t39.5 206l102 1v-375h-1022z M455 1594v142q78 28 137 28q75 0 135 -31q79 -39 79 -114q0 -69 -80 -137.5t-80 -98.5v-20h-120v28q0 45 67.5 120.5t67.5 108.5q0 60 -68 60q-77 0 -77 -51v-35h-61z" />
<glyph unicode="&#x1ebb;" horiz-adv-x="1020" d="M70 430q0 209 114 335q118 130 326 130q438 0 438 -459v-45h-663q6 -309 272 -309q198 0 238 168h131q-38 -279 -406 -279q-217 0 -333.5 121t-116.5 338zM285 500h467v6q0 121 -49 195q-58 87 -173 87q-225 0 -245 -288zM385 1225v142q78 28 137 28q75 0 135 -31 q79 -39 79 -114q0 -69 -80 -137.5t-80 -98.5v-20h-120v28q0 45 67.5 120.5t67.5 108.5q0 60 -68 60q-77 0 -77 -51v-35h-61z" />
<glyph unicode="&#x1ebc;" horiz-adv-x="1165" d="M61 0v90q108 0 139 24q38 29 38 132v764q0 101 -39 131q-31 24 -129 24v84h1005v-327h-104q0 140 -41 175q-33 29 -168 29h-297v-424h96q119 0 151 25q40 30 40 143h94v-446h-92q-2 113 -45 144q-32 24 -144 24h-100v-467h289q150 0 187.5 43t39.5 206l102 1v-375h-1022z M332 1436q34 225 197 225q41 0 116.5 -23.5t112.5 -23.5q65 0 92 86h60q-38 -224 -201 -224q-38 0 -116 24t-109 24q-69 0 -94 -88h-58z" />
<glyph unicode="&#x1ebd;" horiz-adv-x="1020" d="M70 430q0 209 114 335q118 130 326 130q438 0 438 -459v-45h-663q6 -309 272 -309q198 0 238 168h131q-38 -279 -406 -279q-217 0 -333.5 121t-116.5 338zM239 1047q34 225 197 225q41 0 116.5 -23.5t112.5 -23.5q65 0 92 86h60q-38 -224 -201 -224q-38 0 -116 24 t-109 24q-69 0 -94 -88h-58zM285 500h467v6q0 121 -49 195q-58 87 -173 87q-225 0 -245 -288z" />
<glyph unicode="&#x1ebe;" horiz-adv-x="1165" d="M61 0v90q108 0 139 24q38 29 38 132v764q0 101 -39 131q-31 24 -129 24v84h1005v-327h-104q0 140 -41 175q-33 29 -168 29h-297v-424h96q119 0 151 25q40 30 40 143h94v-446h-92q-2 113 -45 144q-32 24 -144 24h-100v-467h289q150 0 187.5 43t39.5 206l102 1v-375h-1022z M324 1335l223 350h132l223 -350h-72l-217 196l-217 -196h-72zM379 1724l264 290q66 72 113 72q78 0 78 -78q0 -44 -78 -94l-299 -190h-78z" />
<glyph unicode="&#x1ebf;" horiz-adv-x="1020" d="M70 430q0 209 114 335q118 130 326 130q438 0 438 -459v-45h-663q6 -309 272 -309q198 0 238 168h131q-38 -279 -406 -279q-217 0 -333.5 121t-116.5 338zM221 1006l223 350h132l223 -350h-72l-217 196l-217 -196h-72zM277 1394l264 290q66 72 113 72q78 0 78 -78 q0 -44 -78 -94l-299 -190h-78zM285 500h467v6q0 121 -49 195q-58 87 -173 87q-225 0 -245 -288z" />
<glyph unicode="&#x1ec0;" horiz-adv-x="1165" d="M61 0v90q108 0 139 24q38 29 38 132v764q0 101 -39 131q-31 24 -129 24v84h1005v-327h-104q0 140 -41 175q-33 29 -168 29h-297v-424h96q119 0 151 25q40 30 40 143h94v-446h-92q-2 113 -45 144q-32 24 -144 24h-100v-467h289q150 0 187.5 43t39.5 206l102 1v-375h-1022z M324 1335l223 350h132l223 -350h-72l-217 196l-217 -196h-72zM392 2006q0 78 78 78q47 0 113 -72l264 -290h-78l-299 190q-78 50 -78 94z" />
<glyph unicode="&#x1ec1;" horiz-adv-x="1020" d="M70 430q0 209 114 335q118 130 326 130q438 0 438 -459v-45h-663q6 -309 272 -309q198 0 238 168h131q-38 -279 -406 -279q-217 0 -333.5 121t-116.5 338zM221 1006l223 350h132l223 -350h-72l-217 196l-217 -196h-72zM285 500h467v6q0 121 -49 195q-58 87 -173 87 q-225 0 -245 -288zM289 1678q0 78 78 78q47 0 113 -72l264 -290h-78l-299 190q-78 50 -78 94z" />
<glyph unicode="&#x1ec2;" horiz-adv-x="1165" d="M61 0v90q108 0 139 24q38 29 38 132v764q0 101 -39 131q-31 24 -129 24v84h1005v-327h-104q0 140 -41 175q-33 29 -168 29h-297v-424h96q119 0 151 25q40 30 40 143h94v-446h-92q-2 113 -45 144q-32 24 -144 24h-100v-467h289q150 0 187.5 43t39.5 206l102 1v-375h-1022z M324 1335l223 350h132l223 -350h-72l-217 196l-217 -196h-72zM701 1895v142q78 28 137 28q75 0 135 -31q79 -39 79 -114q0 -69 -80 -137.5t-80 -98.5v-20h-120v28q0 45 67.5 120.5t67.5 108.5q0 60 -68 60q-77 0 -77 -51v-35h-61z" />
<glyph unicode="&#x1ec3;" horiz-adv-x="1020" d="M70 430q0 209 114 335q118 130 326 130q438 0 438 -459v-45h-663q6 -309 272 -309q198 0 238 168h131q-38 -279 -406 -279q-217 0 -333.5 121t-116.5 338zM221 1006l223 350h132l223 -350h-72l-217 196l-217 -196h-72zM285 500h467v6q0 121 -49 195q-58 87 -173 87 q-225 0 -245 -288zM599 1565v142q78 28 137 28q75 0 135 -31q79 -39 79 -114q0 -69 -80 -137.5t-80 -98.5v-20h-120v28q0 45 67.5 120.5t67.5 108.5q0 60 -68 60q-77 0 -77 -51v-35h-61z" />
<glyph unicode="&#x1ec4;" horiz-adv-x="1165" d="M61 0v90q108 0 139 24q38 29 38 132v764q0 101 -39 131q-31 24 -129 24v84h1005v-327h-104q0 140 -41 175q-33 29 -168 29h-297v-424h96q119 0 151 25q40 30 40 143h94v-446h-92q-2 113 -45 144q-32 24 -144 24h-100v-467h289q150 0 187.5 43t39.5 206l102 1v-375h-1022z M324 1335l223 350h132l223 -350h-72l-217 196l-217 -196h-72zM390 1738q34 225 197 225q41 0 116.5 -23.5t112.5 -23.5q65 0 92 86h60q-38 -224 -201 -224q-38 0 -116 24t-109 24q-69 0 -94 -88h-58z" />
<glyph unicode="&#x1ec5;" horiz-adv-x="1020" d="M70 430q0 209 114 335q118 130 326 130q438 0 438 -459v-45h-663q6 -309 272 -309q198 0 238 168h131q-38 -279 -406 -279q-217 0 -333.5 121t-116.5 338zM221 1006l223 350h132l223 -350h-72l-217 196l-217 -196h-72zM285 500h467v6q0 121 -49 195q-58 87 -173 87 q-225 0 -245 -288zM287 1409q34 225 197 225q41 0 116.5 -23.5t112.5 -23.5q65 0 92 86h60q-38 -224 -201 -224q-38 0 -116 24t-109 24q-69 0 -94 -88h-58z" />
<glyph unicode="&#x1ec6;" horiz-adv-x="1165" d="M61 0v90q108 0 139 24q38 29 38 132v764q0 101 -39 131q-31 24 -129 24v84h1005v-327h-104q0 140 -41 175q-33 29 -168 29h-297v-424h96q119 0 151 25q40 30 40 143h94v-446h-92q-2 113 -45 144q-32 24 -144 24h-100v-467h289q150 0 187.5 43t39.5 206l102 1v-375h-1022z M324 1335l223 350h132l223 -350h-72l-217 196l-217 -196h-72zM497 -259q0 115 119 115t119 -115q0 -113 -119 -113t-119 113z" />
<glyph unicode="&#x1ec7;" horiz-adv-x="1020" d="M70 430q0 209 114 335q118 130 326 130q438 0 438 -459v-45h-663q6 -309 272 -309q198 0 238 168h131q-38 -279 -406 -279q-217 0 -333.5 121t-116.5 338zM221 1006l223 350h132l223 -350h-72l-217 196l-217 -196h-72zM285 500h467v6q0 121 -49 195q-58 87 -173 87 q-225 0 -245 -288zM393 -259q0 115 119 115t119 -115q0 -113 -119 -113t-119 113z" />
<glyph unicode="&#x1ec8;" horiz-adv-x="711" d="M78 0v90q99 0 132.5 29.5t33.5 126.5v764q0 99 -38 130q-32 25 -128 25v90h6q46 0 137 -2t137 -2q49 0 281 4v-90q-98 0 -128 -24q-38 -30 -38 -131v-764q0 -102 37 -132q31 -24 129 -24v-90q-100 4 -281 4q-180 0 -280 -4zM215 1594v142q78 28 137 28q75 0 135 -31 q79 -39 79 -114q0 -69 -80 -137.5t-80 -98.5v-20h-120v28q0 45 67.5 120.5t67.5 108.5q0 60 -68 60q-77 0 -77 -51v-35h-61z" />
<glyph unicode="&#x1ec9;" horiz-adv-x="575" d="M53 0l1 80q111 4 126 71q6 25 6 74v449q0 57 -10 78q-14 31 -62 37q-19 2 -51 2l1 77q36 -2 106 -2q95 0 221 10v-663q0 -82 26 -106.5t109 -26.5v-80q-78 4 -196 4h-85q-107 0 -192 -4zM130 1225v142q78 28 137 28q75 0 135 -31q79 -39 79 -114q0 -69 -80 -137.5 t-80 -98.5v-20h-120v28q0 45 67.5 120.5t67.5 108.5q0 60 -68 60q-77 0 -77 -51v-35h-61z" />
<glyph unicode="&#x1eca;" horiz-adv-x="711" d="M78 0v90q99 0 132.5 29.5t33.5 126.5v764q0 99 -38 130q-32 25 -128 25v90h6q46 0 137 -2t137 -2q49 0 281 4v-90q-98 0 -128 -24q-38 -30 -38 -131v-764q0 -102 37 -132q31 -24 129 -24v-90q-100 4 -281 4q-180 0 -280 -4zM240 -259q0 115 119 115t119 -115 q0 -113 -119 -113t-119 113z" />
<glyph unicode="&#x1ecb;" horiz-adv-x="575" d="M55 0l1 80q111 4 126 71q6 25 6 74v449q0 55 -8 75q-13 34 -58 39q-19 3 -54 3v77q36 -2 106 -2q95 0 221 10v-663q0 -82 26 -106.5t109 -26.5v-80q-78 4 -197 4h-80q-113 0 -198 -4zM170 1176q0 108 115 108q114 0 114 -108q0 -109 -114 -109q-115 0 -115 109zM175 -259 q0 115 119 115t119 -115q0 -113 -119 -113t-119 113z" />
<glyph unicode="&#x1ecc;" horiz-adv-x="1442" d="M100 629q0 304 157 476q162 179 464 179q301 0 463 -179q155 -172 155 -476t-155 -477q-162 -181 -463 -181t-465 180q-156 174 -156 478zM348 631q0 -223 74 -357q94 -172 299 -172q371 0 371 529q0 528 -371 528q-205 0 -299 -171q-74 -134 -74 -357zM603 -259 q0 115 119 115t119 -115q0 -113 -119 -113t-119 113z" />
<glyph unicode="&#x1ecd;" horiz-adv-x="1034" d="M70 434q0 217 113 338q117 123 333 123q217 0 334 -123q113 -120 113 -338q0 -217 -114 -339q-117 -124 -333 -124t-333 125q-113 121 -113 338zM285 436q0 -354 231 -354q232 0 232 354q0 355 -232 355q-231 0 -231 -355zM396 -259q0 115 119 115t119 -115 q0 -113 -119 -113t-119 113z" />
<glyph unicode="&#x1ece;" horiz-adv-x="1442" d="M100 629q0 304 157 476q162 179 464 179q301 0 463 -179q155 -172 155 -476t-155 -477q-162 -181 -463 -181t-465 180q-156 174 -156 478zM348 631q0 -223 74 -357q94 -172 299 -172q371 0 371 529q0 528 -371 528q-205 0 -299 -171q-74 -134 -74 -357zM592 1594v142 q78 28 137 28q75 0 135 -31q79 -39 79 -114q0 -69 -80 -137.5t-80 -98.5v-20h-120v28q0 45 67.5 120.5t67.5 108.5q0 60 -68 60q-77 0 -77 -51v-35h-61z" />
<glyph unicode="&#x1ecf;" horiz-adv-x="1034" d="M70 434q0 217 113 338q117 123 333 123q217 0 334 -123q113 -120 113 -338q0 -217 -114 -339q-117 -124 -333 -124t-333 125q-113 121 -113 338zM285 436q0 -354 231 -354q232 0 232 354q0 355 -232 355q-231 0 -231 -355zM375 1225v142q78 28 137 28q75 0 135 -31 q79 -39 79 -114q0 -69 -80 -137.5t-80 -98.5v-20h-120v28q0 45 67.5 120.5t67.5 108.5q0 60 -68 60q-77 0 -77 -51v-35h-61z" />
<glyph unicode="&#x1ed0;" horiz-adv-x="1442" d="M100 629q0 304 157 476q162 179 464 179q301 0 463 -179q155 -172 155 -476t-155 -477q-162 -181 -463 -181t-465 180q-156 174 -156 478zM348 631q0 -223 74 -357q94 -172 299 -172q371 0 371 529q0 528 -371 528q-205 0 -299 -171q-74 -134 -74 -357zM434 1335l223 350 h132l223 -350h-72l-217 196l-217 -196h-72zM489 1724l264 290q66 72 113 72q78 0 78 -78q0 -44 -78 -94l-299 -190h-78z" />
<glyph unicode="&#x1ed1;" horiz-adv-x="1034" d="M70 434q0 217 113 338q117 123 333 123q217 0 334 -123q113 -120 113 -338q0 -217 -114 -339q-117 -124 -333 -124t-333 125q-113 121 -113 338zM229 1006l223 350h132l223 -350h-72l-217 196l-217 -196h-72zM285 436q0 -354 231 -354q232 0 232 354q0 355 -232 355 q-231 0 -231 -355zM285 1394l264 290q66 72 113 72q78 0 78 -78q0 -44 -78 -94l-299 -190h-78z" />
<glyph unicode="&#x1ed2;" horiz-adv-x="1442" d="M100 629q0 304 157 476q162 179 464 179q301 0 463 -179q155 -172 155 -476t-155 -477q-162 -181 -463 -181t-465 180q-156 174 -156 478zM348 631q0 -223 74 -357q94 -172 299 -172q371 0 371 529q0 528 -371 528q-205 0 -299 -171q-74 -134 -74 -357zM434 1335l223 350 h132l223 -350h-72l-217 196l-217 -196h-72zM502 2006q0 78 78 78q47 0 113 -72l264 -290h-78l-299 190q-78 50 -78 94z" />
<glyph unicode="&#x1ed3;" horiz-adv-x="1034" d="M70 434q0 217 113 338q117 123 333 123q217 0 334 -123q113 -120 113 -338q0 -217 -114 -339q-117 -124 -333 -124t-333 125q-113 121 -113 338zM229 1006l223 350h132l223 -350h-72l-217 196l-217 -196h-72zM285 436q0 -354 231 -354q232 0 232 354q0 355 -232 355 q-231 0 -231 -355zM297 1678q0 78 78 78q47 0 113 -72l264 -290h-78l-299 190q-78 50 -78 94z" />
<glyph unicode="&#x1ed4;" horiz-adv-x="1442" d="M100 629q0 304 157 476q162 179 464 179q301 0 463 -179q155 -172 155 -476t-155 -477q-162 -181 -463 -181t-465 180q-156 174 -156 478zM348 631q0 -223 74 -357q94 -172 299 -172q371 0 371 529q0 528 -371 528q-205 0 -299 -171q-74 -134 -74 -357zM434 1335l223 350 h132l223 -350h-72l-217 196l-217 -196h-72zM811 1895v142q78 28 137 28q75 0 135 -31q79 -39 79 -114q0 -69 -80 -137.5t-80 -98.5v-20h-120v28q0 45 67.5 120.5t67.5 108.5q0 60 -68 60q-77 0 -77 -51v-35h-61z" />
<glyph unicode="&#x1ed5;" horiz-adv-x="1034" d="M70 434q0 217 113 338q117 123 333 123q217 0 334 -123q113 -120 113 -338q0 -217 -114 -339q-117 -124 -333 -124t-333 125q-113 121 -113 338zM229 1006l223 350h132l223 -350h-72l-217 196l-217 -196h-72zM285 436q0 -354 231 -354q232 0 232 354q0 355 -232 355 q-231 0 -231 -355zM607 1565v142q78 28 137 28q75 0 135 -31q79 -39 79 -114q0 -69 -80 -137.5t-80 -98.5v-20h-120v28q0 45 67.5 120.5t67.5 108.5q0 60 -68 60q-77 0 -77 -51v-35h-61z" />
<glyph unicode="&#x1ed6;" horiz-adv-x="1442" d="M100 629q0 304 157 476q162 179 464 179q301 0 463 -179q155 -172 155 -476t-155 -477q-162 -181 -463 -181t-465 180q-156 174 -156 478zM348 631q0 -223 74 -357q94 -172 299 -172q371 0 371 529q0 528 -371 528q-205 0 -299 -171q-74 -134 -74 -357zM434 1335l223 350 h132l223 -350h-72l-217 196l-217 -196h-72zM500 1738q34 225 197 225q41 0 116.5 -23.5t112.5 -23.5q65 0 92 86h60q-38 -224 -201 -224q-38 0 -116 24t-109 24q-69 0 -94 -88h-58z" />
<glyph unicode="&#x1ed7;" horiz-adv-x="1034" d="M70 434q0 217 113 338q117 123 333 123q217 0 334 -123q113 -120 113 -338q0 -217 -114 -339q-117 -124 -333 -124t-333 125q-113 121 -113 338zM229 1006l223 350h132l223 -350h-72l-217 196l-217 -196h-72zM285 436q0 -354 231 -354q232 0 232 354q0 355 -232 355 q-231 0 -231 -355zM295 1409q34 225 197 225q41 0 116.5 -23.5t112.5 -23.5q65 0 92 86h60q-38 -224 -201 -224q-38 0 -116 24t-109 24q-69 0 -94 -88h-58z" />
<glyph unicode="&#x1ed8;" horiz-adv-x="1442" d="M100 629q0 304 157 476q162 179 464 179q301 0 463 -179q155 -172 155 -476t-155 -477q-162 -181 -463 -181t-465 180q-156 174 -156 478zM348 631q0 -223 74 -357q94 -172 299 -172q371 0 371 529q0 528 -371 528q-205 0 -299 -171q-74 -134 -74 -357zM434 1335l223 350 h132l223 -350h-72l-217 196l-217 -196h-72zM603 -259q0 115 119 115t119 -115q0 -113 -119 -113t-119 113z" />
<glyph unicode="&#x1ed9;" horiz-adv-x="1034" d="M70 434q0 217 113 338q117 123 333 123q217 0 334 -123q113 -120 113 -338q0 -217 -114 -339q-117 -124 -333 -124t-333 125q-113 121 -113 338zM229 1006l223 350h132l223 -350h-72l-217 196l-217 -196h-72zM285 436q0 -354 231 -354q232 0 232 354q0 355 -232 355 q-231 0 -231 -355zM396 -259q0 115 119 115t119 -115q0 -113 -119 -113t-119 113z" />
<glyph unicode="&#x1eda;" horiz-adv-x="1463" d="M100 629q0 304 157 476q162 179 464 179q301 0 463 -179q155 -172 155 -476t-155 -477q-162 -181 -463 -181t-465 180q-156 174 -156 478zM348 631q0 -223 74 -357q94 -172 299 -172q371 0 371 529q0 528 -371 528q-205 0 -299 -171q-74 -134 -74 -357zM549 1395l264 290 q66 72 113 72q78 0 78 -78q0 -44 -78 -94l-299 -190h-78zM1056 1008l177 334h219l-272 -334h-124z" />
<glyph unicode="&#x1edb;" horiz-adv-x="1072" d="M70 434q0 217 113 338q117 123 333 123q217 0 334 -123q113 -120 113 -338q0 -217 -114 -339q-117 -124 -333 -124t-333 125q-113 121 -113 338zM285 436q0 -354 231 -354q232 0 232 354q0 355 -232 355q-231 0 -231 -355zM346 1006l264 290q66 72 113 72q78 0 78 -78 q0 -44 -78 -94l-299 -190h-78zM736 628l177 334h219l-272 -334h-124z" />
<glyph unicode="&#x1edc;" horiz-adv-x="1463" d="M100 629q0 304 157 476q162 179 464 179q301 0 463 -179q155 -172 155 -476t-155 -477q-162 -181 -463 -181t-465 180q-156 174 -156 478zM348 631q0 -223 74 -357q94 -172 299 -172q371 0 371 529q0 528 -371 528q-205 0 -299 -171q-74 -134 -74 -357zM438 1679 q0 78 78 78q47 0 113 -72l264 -290h-78l-299 190q-78 50 -78 94zM1056 1008l177 334h219l-272 -334h-124z" />
<glyph unicode="&#x1edd;" horiz-adv-x="1072" d="M70 434q0 217 113 338q117 123 333 123q217 0 334 -123q113 -120 113 -338q0 -217 -114 -339q-117 -124 -333 -124t-333 125q-113 121 -113 338zM235 1290q0 78 78 78q47 0 113 -72l264 -290h-78l-299 190q-78 50 -78 94zM285 436q0 -354 231 -354q232 0 232 354 q0 355 -232 355q-231 0 -231 -355zM736 628l177 334h219l-272 -334h-124z" />
<glyph unicode="&#x1ede;" horiz-adv-x="1463" d="M100 629q0 304 157 476q162 179 464 179q301 0 463 -179q155 -172 155 -476t-155 -477q-162 -181 -463 -181t-465 180q-156 174 -156 478zM348 631q0 -223 74 -357q94 -172 299 -172q371 0 371 529q0 528 -371 528q-205 0 -299 -171q-74 -134 -74 -357zM592 1594v142 q78 28 137 28q75 0 135 -31q79 -39 79 -114q0 -69 -80 -137.5t-80 -98.5v-20h-120v28q0 45 67.5 120.5t67.5 108.5q0 60 -68 60q-77 0 -77 -51v-35h-61zM1056 1008l177 334h219l-272 -334h-124z" />
<glyph unicode="&#x1edf;" horiz-adv-x="1072" d="M70 434q0 217 113 338q117 123 333 123q217 0 334 -123q113 -120 113 -338q0 -217 -114 -339q-117 -124 -333 -124t-333 125q-113 121 -113 338zM285 436q0 -354 231 -354q232 0 232 354q0 355 -232 355q-231 0 -231 -355zM375 1225v142q78 28 137 28q75 0 135 -31 q79 -39 79 -114q0 -69 -80 -137.5t-80 -98.5v-20h-120v28q0 45 67.5 120.5t67.5 108.5q0 60 -68 60q-77 0 -77 -51v-35h-61zM736 628l177 334h219l-272 -334h-124z" />
<glyph unicode="&#x1ee0;" horiz-adv-x="1463" d="M100 629q0 304 157 476q162 179 464 179q301 0 463 -179q155 -172 155 -476t-155 -477q-162 -181 -463 -181t-465 180q-156 174 -156 478zM348 631q0 -223 74 -357q94 -172 299 -172q371 0 371 529q0 528 -371 528q-205 0 -299 -171q-74 -134 -74 -357zM432 1436 q34 225 197 225q41 0 116.5 -23.5t112.5 -23.5q65 0 92 86h60q-38 -224 -201 -224q-38 0 -116 24t-109 24q-69 0 -94 -88h-58zM1056 1008l177 334h219l-272 -334h-124z" />
<glyph unicode="&#x1ee1;" horiz-adv-x="1072" d="M70 434q0 217 113 338q117 123 333 123q217 0 334 -123q113 -120 113 -338q0 -217 -114 -339q-117 -124 -333 -124t-333 125q-113 121 -113 338zM229 1047q34 225 197 225q41 0 116.5 -23.5t112.5 -23.5q65 0 92 86h60q-38 -224 -201 -224q-38 0 -116 24t-109 24 q-69 0 -94 -88h-58zM285 436q0 -354 231 -354q232 0 232 354q0 355 -232 355q-231 0 -231 -355zM736 628l177 334h219l-272 -334h-124z" />
<glyph unicode="&#x1ee2;" horiz-adv-x="1463" d="M100 629q0 304 157 476q162 179 464 179q301 0 463 -179q155 -172 155 -476t-155 -477q-162 -181 -463 -181t-465 180q-156 174 -156 478zM348 631q0 -223 74 -357q94 -172 299 -172q371 0 371 529q0 528 -371 528q-205 0 -299 -171q-74 -134 -74 -357zM603 -259 q0 115 119 115t119 -115q0 -113 -119 -113t-119 113zM1056 1008l177 334h219l-272 -334h-124z" />
<glyph unicode="&#x1ee3;" horiz-adv-x="1072" d="M70 434q0 217 113 338q117 123 333 123q217 0 334 -123q113 -120 113 -338q0 -217 -114 -339q-117 -124 -333 -124t-333 125q-113 121 -113 338zM285 436q0 -354 231 -354q232 0 232 354q0 355 -232 355q-231 0 -231 -355zM396 -259q0 115 119 115t119 -115 q0 -113 -119 -113t-119 113zM736 628l177 334h219l-272 -334h-124z" />
<glyph unicode="&#x1ee4;" horiz-adv-x="1366" d="M47 1165v90h6q44 0 133 -2t133 -2q48 0 267 4v-90q-105 0 -134 -24q-34 -28 -34 -131v-555q0 -173 58 -250q67 -90 233 -90q163 0 230 90q58 77 58 246v553q0 108 -38 138q-31 23 -136 23v90h12q41 0 122 -2t122 -2q47 0 244 4v-90h-37q-69 0 -94 -46q-18 -33 -18 -109 v-547q0 -257 -114.5 -374.5t-371.5 -117.5q-495 0 -495 463v576q0 94 -28 124.5t-118 30.5zM591 -259q0 115 119 115t119 -115q0 -113 -119 -113t-119 113z" />
<glyph unicode="&#x1ee5;" horiz-adv-x="1159" d="M43 788v80q102 -4 125 -4q89 0 203 10v-540q0 -240 188 -240q223 0 223 277v293q0 95 -42 113q-25 11 -83 11l1 80q101 -4 122 -4q91 0 209 10v-679q0 -54 7 -74q13 -35 55 -42q21 -3 59 -3v-76q-38 2 -106 2q-99 0 -203 -10v143q-96 -164 -307 -164q-190 0 -264 101 q-64 87 -64 286v285q0 91 -17 114q-21 31 -106 31zM459 -259q0 115 119 115t119 -115q0 -113 -119 -113t-119 113z" />
<glyph unicode="&#x1ee6;" horiz-adv-x="1366" d="M47 1165v90h6q44 0 133 -2t133 -2q48 0 267 4v-90q-105 0 -134 -24q-34 -28 -34 -131v-555q0 -173 58 -250q67 -90 233 -90q163 0 230 90q58 77 58 246v553q0 108 -38 138q-31 23 -136 23v90h12q41 0 122 -2t122 -2q47 0 244 4v-90h-37q-69 0 -94 -46q-18 -33 -18 -109 v-547q0 -257 -114.5 -374.5t-371.5 -117.5q-495 0 -495 463v576q0 94 -28 124.5t-118 30.5zM562 1594v142q78 28 137 28q75 0 135 -31q79 -39 79 -114q0 -69 -80 -137.5t-80 -98.5v-20h-120v28q0 45 67.5 120.5t67.5 108.5q0 60 -68 60q-77 0 -77 -51v-35h-61z" />
<glyph unicode="&#x1ee7;" horiz-adv-x="1159" d="M43 788v80q102 -4 125 -4q89 0 203 10v-540q0 -240 188 -240q223 0 223 277v293q0 95 -42 113q-25 11 -83 11l1 80q101 -4 122 -4q91 0 209 10v-679q0 -54 7 -74q13 -35 55 -42q21 -3 59 -3v-76q-38 2 -106 2q-99 0 -203 -10v143q-96 -164 -307 -164q-190 0 -264 101 q-64 87 -64 286v285q0 91 -17 114q-21 31 -106 31zM415 1225v142q78 28 137 28q75 0 135 -31q79 -39 79 -114q0 -69 -80 -137.5t-80 -98.5v-20h-120v28q0 45 67.5 120.5t67.5 108.5q0 60 -68 60q-77 0 -77 -51v-35h-61z" />
<glyph unicode="&#x1ee8;" horiz-adv-x="1437" d="M47 1165v90h6q44 0 133 -2t133 -2q48 0 267 4v-90q-105 0 -134 -24q-34 -28 -34 -131v-555q0 -173 58 -250q67 -90 233 -90q163 0 230 90q58 77 58 246v553q0 108 -38 138q-31 23 -136 23v90h12q41 0 122 -2t122 -2q47 0 244 4v-90h-37q-69 0 -94 -46q-18 -33 -18 -109 v-547q0 -257 -114.5 -374.5t-371.5 -117.5q-495 0 -495 463v576q0 94 -28 124.5t-118 30.5zM526 1395l264 290q66 72 113 72q78 0 78 -78q0 -44 -78 -94l-299 -190h-78zM1136 1008l177 334h219l-272 -334h-124z" />
<glyph unicode="&#x1ee9;" horiz-adv-x="1220" d="M43 788v80q102 -4 125 -4q89 0 203 10v-540q0 -240 188 -240q223 0 223 277v293q0 95 -42 113q-25 11 -83 11l1 80q101 -4 122 -4q91 0 209 10v-679q0 -54 7 -74q13 -35 55 -42q21 -3 59 -3v-76q-38 2 -106 2q-99 0 -203 -10v143q-96 -164 -307 -164q-190 0 -264 101 q-64 87 -64 286v285q0 91 -17 114q-21 31 -106 31zM395 1006l264 290q66 72 113 72q78 0 78 -78q0 -44 -78 -94l-299 -190h-78zM866 628l177 334h219l-272 -334h-124z" />
<glyph unicode="&#x1eea;" horiz-adv-x="1437" d="M47 1165v90h6q44 0 133 -2t133 -2q48 0 267 4v-90q-105 0 -134 -24q-34 -28 -34 -131v-555q0 -173 58 -250q67 -90 233 -90q163 0 230 90q58 77 58 246v553q0 108 -38 138q-31 23 -136 23v90h12q41 0 122 -2t122 -2q47 0 244 4v-90h-37q-69 0 -94 -46q-18 -33 -18 -109 v-547q0 -257 -114.5 -374.5t-371.5 -117.5q-495 0 -495 463v576q0 94 -28 124.5t-118 30.5zM415 1679q0 78 78 78q47 0 113 -72l264 -290h-78l-299 190q-78 50 -78 94zM1136 1008l177 334h219l-272 -334h-124z" />
<glyph unicode="&#x1eeb;" horiz-adv-x="1220" d="M43 788v80q102 -4 125 -4q89 0 203 10v-540q0 -240 188 -240q223 0 223 277v293q0 95 -42 113q-25 11 -83 11l1 80q101 -4 122 -4q91 0 209 10v-679q0 -54 7 -74q13 -35 55 -42q21 -3 59 -3v-76q-38 2 -106 2q-99 0 -203 -10v143q-96 -164 -307 -164q-190 0 -264 101 q-64 87 -64 286v285q0 91 -17 114q-21 31 -106 31zM284 1290q0 78 78 78q47 0 113 -72l264 -290h-78l-299 190q-78 50 -78 94zM866 628l177 334h219l-272 -334h-124z" />
<glyph unicode="&#x1eec;" horiz-adv-x="1437" d="M47 1165v90h6q44 0 133 -2t133 -2q48 0 267 4v-90q-105 0 -134 -24q-34 -28 -34 -131v-555q0 -173 58 -250q67 -90 233 -90q163 0 230 90q58 77 58 246v553q0 108 -38 138q-31 23 -136 23v90h12q41 0 122 -2t122 -2q47 0 244 4v-90h-37q-69 0 -94 -46q-18 -33 -18 -109 v-547q0 -257 -114.5 -374.5t-371.5 -117.5q-495 0 -495 463v576q0 94 -28 124.5t-118 30.5zM562 1594v142q78 28 137 28q75 0 135 -31q79 -39 79 -114q0 -69 -80 -137.5t-80 -98.5v-20h-120v28q0 45 67.5 120.5t67.5 108.5q0 60 -68 60q-77 0 -77 -51v-35h-61zM1136 1008 l177 334h219l-272 -334h-124z" />
<glyph unicode="&#x1eed;" horiz-adv-x="1220" d="M43 788v80q102 -4 125 -4q89 0 203 10v-540q0 -240 188 -240q223 0 223 277v293q0 95 -42 113q-25 11 -83 11l1 80q101 -4 122 -4q91 0 209 10v-679q0 -54 7 -74q13 -35 55 -42q21 -3 59 -3v-76q-38 2 -106 2q-99 0 -203 -10v143q-96 -164 -307 -164q-190 0 -264 101 q-64 87 -64 286v285q0 91 -17 114q-21 31 -106 31zM415 1225v142q78 28 137 28q75 0 135 -31q79 -39 79 -114q0 -69 -80 -137.5t-80 -98.5v-20h-120v28q0 45 67.5 120.5t67.5 108.5q0 60 -68 60q-77 0 -77 -51v-35h-61zM866 628l177 334h219l-272 -334h-124z" />
<glyph unicode="&#x1eee;" horiz-adv-x="1437" d="M47 1165v90h6q44 0 133 -2t133 -2q48 0 267 4v-90q-105 0 -134 -24q-34 -28 -34 -131v-555q0 -173 58 -250q67 -90 233 -90q163 0 230 90q58 77 58 246v553q0 108 -38 138q-31 23 -136 23v90h12q41 0 122 -2t122 -2q47 0 244 4v-90h-37q-69 0 -94 -46q-18 -33 -18 -109 v-547q0 -257 -114.5 -374.5t-371.5 -117.5q-495 0 -495 463v576q0 94 -28 124.5t-118 30.5zM432 1436q34 225 197 225q41 0 116.5 -23.5t112.5 -23.5q65 0 92 86h60q-38 -224 -201 -224q-38 0 -116 24t-109 24q-69 0 -94 -88h-58zM1136 1008l177 334h219l-272 -334h-124z " />
<glyph unicode="&#x1eef;" horiz-adv-x="1220" d="M43 788v80q102 -4 125 -4q89 0 203 10v-540q0 -240 188 -240q223 0 223 277v293q0 95 -42 113q-25 11 -83 11l1 80q101 -4 122 -4q91 0 209 10v-679q0 -54 7 -74q13 -35 55 -42q21 -3 59 -3v-76q-38 2 -106 2q-99 0 -203 -10v143q-96 -164 -307 -164q-190 0 -264 101 q-64 87 -64 286v285q0 91 -17 114q-21 31 -106 31zM289 1047q34 225 197 225q41 0 116.5 -23.5t112.5 -23.5q65 0 92 86h60q-38 -224 -201 -224q-38 0 -116 24t-109 24q-69 0 -94 -88h-58zM866 628l177 334h219l-272 -334h-124z" />
<glyph unicode="&#x1ef0;" horiz-adv-x="1437" d="M47 1165v90h6q44 0 133 -2t133 -2q48 0 267 4v-90q-105 0 -134 -24q-34 -28 -34 -131v-555q0 -173 58 -250q67 -90 233 -90q163 0 230 90q58 77 58 246v553q0 108 -38 138q-31 23 -136 23v90h12q41 0 122 -2t122 -2q47 0 244 4v-90h-37q-69 0 -94 -46q-18 -33 -18 -109 v-547q0 -257 -114.5 -374.5t-371.5 -117.5q-495 0 -495 463v576q0 94 -28 124.5t-118 30.5zM591 -259q0 115 119 115t119 -115q0 -113 -119 -113t-119 113zM1136 1008l177 334h219l-272 -334h-124z" />
<glyph unicode="&#x1ef1;" horiz-adv-x="1220" d="M43 788v80q102 -4 125 -4q89 0 203 10v-540q0 -240 188 -240q223 0 223 277v293q0 95 -42 113q-25 11 -83 11l1 80q101 -4 122 -4q91 0 209 10v-679q0 -54 7 -74q13 -35 55 -42q21 -3 59 -3v-76q-38 2 -106 2q-99 0 -203 -10v143q-96 -164 -307 -164q-190 0 -264 101 q-64 87 -64 286v285q0 91 -17 114q-21 31 -106 31zM459 -259q0 115 119 115t119 -115q0 -113 -119 -113t-119 113zM866 628l177 334h219l-272 -334h-124z" />
<glyph unicode="&#x1ef2;" horiz-adv-x="1235" d="M14 1165v90q170 -4 240 -4q43 0 129 2t129 2h18v-90q-131 0 -131 -57q0 -28 25 -74l207 -379l205 363q26 46 26 82q0 65 -127 65v90h14q45 0 129 -2q88 -2 128 -2q73 0 217 4l-1 -90q-96 -5 -182 -143l-319 -512v-272q0 -99 39 -126q31 -22 135 -22v-90q-104 4 -291 4 q-180 0 -274 -4v90q105 0 135 21q39 28 39 127v276l-309 518q-75 126 -181 133zM345 1679q0 78 78 78q47 0 113 -72l264 -290h-78l-299 190q-78 50 -78 94z" />
<glyph unicode="&#x1ef3;" horiz-adv-x="1004" d="M-37 787v81q197 -4 238 -4q40 0 233 4v-81q-149 -3 -149 -74q0 -20 10 -43l217 -498l219 496q12 27 12 47q0 62 -151 72v81q187 -4 225 -4q43 0 219 4v-81q-80 -17 -129 -121l-389 -830q-22 -47 -22 -76q0 -50 51 -66q24 -6 94 -8v-79q-78 4 -223 4t-225 -4v80 q93 4 147 120l74 160l-318 684q-30 64 -49 87q-32 39 -84 49zM214 1290q0 78 78 78q47 0 113 -72l264 -290h-78l-299 190q-78 50 -78 94z" />
<glyph unicode="&#x1ef4;" horiz-adv-x="1235" d="M14 1165v90q170 -4 240 -4q43 0 129 2t129 2h18v-90q-131 0 -131 -57q0 -28 25 -74l207 -379l205 363q26 46 26 82q0 65 -127 65v90h14q45 0 129 -2q88 -2 128 -2q73 0 217 4l-1 -90q-96 -5 -182 -143l-319 -512v-272q0 -99 39 -126q31 -22 135 -22v-90q-104 4 -291 4 q-180 0 -274 -4v90q105 0 135 21q39 28 39 127v276l-309 518q-75 126 -181 133zM498 -259q0 115 119 115t119 -115q0 -113 -119 -113t-119 113z" />
<glyph unicode="&#x1ef5;" horiz-adv-x="1004" d="M-37 787v81q197 -4 238 -4q40 0 233 4v-81q-149 -3 -149 -74q0 -20 10 -43l217 -498l219 496q12 27 12 47q0 62 -151 72v81q187 -4 225 -4q43 0 219 4v-81q-80 -17 -129 -121l-389 -830q-22 -47 -22 -76q0 -50 51 -66q24 -6 94 -8v-79q-78 4 -223 4t-225 -4v80 q93 4 147 120l74 160l-318 684q-30 64 -49 87q-32 39 -84 49zM681 -259q0 115 119 115t119 -115q0 -113 -119 -113t-119 113z" />
<glyph unicode="&#x1ef6;" horiz-adv-x="1235" d="M14 1165v90q170 -4 240 -4q43 0 129 2t129 2h18v-90q-131 0 -131 -57q0 -28 25 -74l207 -379l205 363q26 46 26 82q0 65 -127 65v90h14q45 0 129 -2q88 -2 128 -2q73 0 217 4l-1 -90q-96 -5 -182 -143l-319 -512v-272q0 -99 39 -126q31 -22 135 -22v-90q-104 4 -291 4 q-180 0 -274 -4v90q105 0 135 21q39 28 39 127v276l-309 518q-75 126 -181 133zM482 1594v142q78 28 137 28q75 0 135 -31q79 -39 79 -114q0 -69 -80 -137.5t-80 -98.5v-20h-120v28q0 45 67.5 120.5t67.5 108.5q0 60 -68 60q-77 0 -77 -51v-35h-61z" />
<glyph unicode="&#x1ef7;" horiz-adv-x="1004" d="M-37 787v81q197 -4 238 -4q40 0 233 4v-81q-149 -3 -149 -74q0 -20 10 -43l217 -498l219 496q12 27 12 47q0 62 -151 72v81q187 -4 225 -4q43 0 219 4v-81q-80 -17 -129 -121l-389 -830q-22 -47 -22 -76q0 -50 51 -66q24 -6 94 -8v-79q-78 4 -223 4t-225 -4v80 q93 4 147 120l74 160l-318 684q-30 64 -49 87q-32 39 -84 49zM375 1225v142q78 28 137 28q75 0 135 -31q79 -39 79 -114q0 -69 -80 -137.5t-80 -98.5v-20h-120v28q0 45 67.5 120.5t67.5 108.5q0 60 -68 60q-77 0 -77 -51v-35h-61z" />
<glyph unicode="&#x1ef8;" horiz-adv-x="1235" d="M14 1165v90q170 -4 240 -4q43 0 129 2t129 2h18v-90q-131 0 -131 -57q0 -28 25 -74l207 -379l205 363q26 46 26 82q0 65 -127 65v90h14q45 0 129 -2q88 -2 128 -2q73 0 217 4l-1 -90q-96 -5 -182 -143l-319 -512v-272q0 -99 39 -126q31 -22 135 -22v-90q-104 4 -291 4 q-180 0 -274 -4v90q105 0 135 21q39 28 39 127v276l-309 518q-75 126 -181 133zM352 1436q34 225 197 225q41 0 116.5 -23.5t112.5 -23.5q65 0 92 86h60q-38 -224 -201 -224q-38 0 -116 24t-109 24q-69 0 -94 -88h-58z" />
<glyph unicode="&#x1ef9;" horiz-adv-x="1004" d="M-37 787v81q197 -4 238 -4q40 0 233 4v-81q-149 -3 -149 -74q0 -20 10 -43l217 -498l219 496q12 27 12 47q0 62 -151 72v81q187 -4 225 -4q43 0 219 4v-81q-80 -17 -129 -121l-389 -830q-22 -47 -22 -76q0 -50 51 -66q24 -6 94 -8v-79q-78 4 -223 4t-225 -4v80 q93 4 147 120l74 160l-318 684q-30 64 -49 87q-32 39 -84 49zM259 1047q34 225 197 225q41 0 116.5 -23.5t112.5 -23.5q65 0 92 86h60q-38 -224 -201 -224q-38 0 -116 24t-109 24q-69 0 -94 -88h-58z" />
<glyph unicode="&#x2000;" horiz-adv-x="1043" />
<glyph unicode="&#x2001;" horiz-adv-x="2086" />
<glyph unicode="&#x2002;" horiz-adv-x="1043" />
<glyph unicode="&#x2003;" horiz-adv-x="2086" />
<glyph unicode="&#x2004;" horiz-adv-x="695" />
<glyph unicode="&#x2005;" horiz-adv-x="521" />
<glyph unicode="&#x2006;" horiz-adv-x="347" />
<glyph unicode="&#x2007;" horiz-adv-x="347" />
<glyph unicode="&#x2008;" horiz-adv-x="260" />
<glyph unicode="&#x2009;" horiz-adv-x="417" />
<glyph unicode="&#x200a;" horiz-adv-x="115" />
<glyph unicode="&#x2010;" horiz-adv-x="764" d="M70 352v187h624v-187h-624z" />
<glyph unicode="&#x2011;" horiz-adv-x="764" d="M70 352v187h624v-187h-624z" />
<glyph unicode="&#x2012;" horiz-adv-x="764" d="M70 352v187h624v-187h-624z" />
<glyph unicode="&#x2013;" horiz-adv-x="1024" d="M0 377v137h1024v-137h-1024z" />
<glyph unicode="&#x2014;" horiz-adv-x="2048" d="M0 377v137h2048v-137h-2048z" />
<glyph unicode="&#x2018;" horiz-adv-x="578" d="M98 1255h236l117 -399h-140z" />
<glyph unicode="&#x2019;" horiz-adv-x="578" d="M111 856l114 399h236l-211 -399h-139z" />
<glyph unicode="&#x201a;" horiz-adv-x="578" d="M90 -201l115 402h235l-213 -402h-137z" />
<glyph unicode="&#x201c;" horiz-adv-x="969" d="M98 1255h236l117 -399h-140zM492 1255h235l115 -399h-137z" />
<glyph unicode="&#x201d;" horiz-adv-x="969" d="M111 856l114 399h238l-213 -399h-139zM504 856l114 399h236l-213 -399h-137z" />
<glyph unicode="&#x201e;" horiz-adv-x="969" d="M92 -201l117 402h235l-213 -402h-139zM485 -201l115 402h238l-215 -402h-138z" />
<glyph unicode="&#x2020;" horiz-adv-x="1024" d="M109 737v150h319v368h168v-368h319v-150h-319v-946h-168v946h-319z" />
<glyph unicode="&#x2021;" horiz-adv-x="1024" d="M109 193v149h319v442h-319v148h319v323h168v-323h319v-148h-319v-442h319v-149h-319v-402h-168v402h-319z" />
<glyph unicode="&#x2022;" horiz-adv-x="1208" d="M307 762q0 124 86.5 209.5t210.5 85.5q123 0 209 -86t86 -209t-87 -210t-210 -87q-124 0 -209.5 86.5t-85.5 210.5z" />
<glyph unicode="&#x2026;" horiz-adv-x="2048" d="M223 84q0 115 119 115t119 -115q0 -113 -119 -113t-119 113zM905 84q0 115 119 115t119 -115q0 -113 -119 -113t-119 113zM1589 84q0 115 119 115t119 -115q0 -113 -119 -113t-119 113z" />
<glyph unicode="&#x202f;" horiz-adv-x="417" />
<glyph unicode="&#x2030;" horiz-adv-x="2445" d="M86 934q0 161 75 251q81 99 238 99q326 0 326 -346q0 -356 -322 -356q-317 0 -317 352zM254 938q0 -272 149 -272q154 0 154 258q0 280 -156 280q-147 0 -147 -266zM350 -29l842 1313h145l-841 -1313h-146zM961 322q0 160 76 252q82 100 239 100q323 0 323 -348 q0 -355 -321 -355q-317 0 -317 351zM1130 328q0 -273 150 -273q152 0 152 258q0 281 -156 281q-146 0 -146 -266zM1720 322q0 160 77 252q82 100 239 100q323 0 323 -348q0 -355 -321 -355q-318 0 -318 351zM1890 319q0 -264 148 -264q153 0 153 258q0 281 -155 281 q-146 0 -146 -275z" />
<glyph unicode="&#x2039;" horiz-adv-x="602" d="M94 438l244 310h192l-245 -310l245 -319h-192z" />
<glyph unicode="&#x203a;" horiz-adv-x="602" d="M94 119l223 315l-223 314h195l219 -314l-219 -315h-195z" />
<glyph unicode="&#x2044;" horiz-adv-x="342" d="M-342 -29l879 1313h145l-879 -1313h-145z" />
<glyph unicode="&#x205f;" horiz-adv-x="521" />
<glyph unicode="&#x20a3;" horiz-adv-x="1878" d="M63 0v90q106 0 138 24q37 29 37 132v764q0 101 -39 131q-31 24 -129 24v86h999v-329h-102q0 136 -35.5 171t-173.5 35h-293v-426h102q111 0 143 24q40 31 40 144h94v-446h-94q-2 107 -35.5 137.5t-141.5 30.5h-108v-340q0 -106 41 -137q32 -25 135 -25v-90q-104 4 -293 4 q-185 0 -285 -4zM1126 1v78q85 2 111 35q22 28 22 111v449q0 77 -27 99q-21 18 -96 18v77q38 -2 103 -2q93 0 209 10v-147q90 168 280 168q51 0 127 -19v-278h-92q0 86 -15 121q-25 55 -100 55q-182 0 -182 -301v-262q0 -89 34 -114q25 -19 113 -19v-80q-90 4 -251 4 q-105 0 -236 -3z" />
<glyph unicode="&#x20ab;" horiz-adv-x="825" d="M45 645q0 147 68 232q74 93 217 93q121 0 186 -91v158h-203v71h203v15q0 45 -32 60q-20 9 -73 9v57q14 -3 94 -3q76 0 159 9v-147h126v-71h-126v-551q0 -54 16.5 -69.5t71.5 -16.5v-54q-26 2 -74 2q-67 0 -144 -8v104q-74 -117 -222 -117q-134 0 -204 95q-63 85 -63 223z M124 95v102h491v-102h-491zM197 648q0 -229 165 -229q166 0 166 222q0 246 -167 246q-164 0 -164 -239z" />
<glyph unicode="&#x2122;" horiz-adv-x="1683" d="M240 1260l10 182h444l11 -182h-27q-8 80 -41 115.5t-111 35.5v-424q0 -36 21 -46q12 -7 53 -9v-29h-254v29q40 2 53 9q21 11 21 46v424h-17q-122 0 -137 -151h-26zM780 903v29q42 2 54 8q22 11 22 47v371q0 35 -22 46q-11 6 -54 11v27h191l137 -391l143 391h181v-25 q-41 -3 -52 -9q-20 -11 -20 -46v-375q0 -35 20 -46q11 -6 52 -9v-29h-240v29q41 3 53 9q21 11 21 46v387l-172 -473h-21l-172 475v-389q0 -36 22 -46q12 -7 54 -9v-29h-197z" />
<glyph unicode="&#x2202;" horiz-adv-x="1059" d="M104 354q0 182 98 312q108 143 285 143q195 0 269 -188q30 174 30 325q0 260 -145 260q-50 0 -127 -58t-108 -58q-34 0 -59 21t-25 54q0 75 89 121q74 39 156 39q207 0 311 -194q83 -154 83 -379q0 -335 -144.5 -556t-357.5 -221q-157 0 -258 112q-97 108 -97 267z M291 270q0 -239 166 -239q133 0 201 175q49 129 49 288q0 241 -166 241q-134 0 -201 -176q-49 -128 -49 -289z" />
<glyph unicode="&#x220f;" horiz-adv-x="1630" d="M53 -319h191v1718h-191v74h1522v-74h-191v-1718h191v-74h-596v74h192v1718h-714v-1718h192v-74h-596v74z" />
<glyph unicode="&#x2211;" horiz-adv-x="1462" d="M16 -352l920 815l-920 956v54h1162l110 -365h-78l-73 227q-21 64 -133 64h-697l809 -832v-37l-825 -735h887q53 0 70 8q24 12 38 56l72 229h78l-148 -481h-1272v41z" />
<glyph unicode="&#x2212;" horiz-adv-x="1706" d="M254 541v141h1198v-141h-1198z" />
<glyph unicode="&#x2219;" horiz-adv-x="578" d="M166 641q0 51 36 87t87 36t87 -36t36 -87q0 -52 -35.5 -87.5t-87.5 -35.5q-51 0 -87 36t-36 87z" />
<glyph unicode="&#x221a;" horiz-adv-x="1305" d="M61 877l283 98l256 -709l516 1395h189v-96h-115l-594 -1606h-66l-319 883l-125 -45z" />
<glyph unicode="&#x221e;" horiz-adv-x="1706" d="M221 610q0 157 70 265q82 126 231 126q180 0 320 -264q132 269 323 269q146 0 239 -126q83 -115 83 -266q0 -156 -70 -264q-82 -125 -231 -125q-109 0 -195 82q-59 56 -127 176q-137 -262 -321 -262q-147 0 -239 124q-83 113 -83 265zM297 604q0 -96 54 -163 q59 -72 153 -72q98 0 180 105q48 60 109 192q-98 176 -267 176q-103 0 -166 -67t-63 -171zM915 559q100 -178 267 -178q103 0 166 68t63 172q0 96 -54 163q-59 72 -153 72q-98 0 -180 -105q-47 -61 -109 -192z" />
<glyph unicode="&#x222b;" horiz-adv-x="1067" d="M47 -223q0 119 129 119q59 0 86 -41q14 -22 26 -76q9 -41 23 -41q105 0 120 688l3 165q13 517 107.5 738t296.5 221q73 0 124 -37q56 -41 56 -112q0 -117 -119 -117q-98 0 -120 124q-7 36 -21 36q-106 0 -121 -619l-8 -303q-18 -482 -111 -686q-95 -207 -291 -207 q-73 0 -124 37q-56 41 -56 111z" />
<glyph unicode="&#x2248;" horiz-adv-x="1706" d="M178 266v156q214 145 387 145q112 0 305 -68.5t273 -68.5q165 0 387 156v-156q-203 -141 -389 -141q-95 0 -287 67.5t-291 67.5q-157 0 -385 -158zM178 635v156q210 143 387 143q113 0 305.5 -67.5t272.5 -67.5q164 0 387 155v-155q-204 -142 -389 -142q-95 0 -287 68 t-291 68q-155 0 -385 -158z" />
<glyph unicode="&#x2260;" horiz-adv-x="1706" d="M254 344v135h408l204 262h-612v136h702l252 317l105 -82l-187 -235h326v-136h-416l-205 -262h621v-135h-709l-249 -317l-105 84l184 233h-319z" />
<glyph unicode="&#x2264;" horiz-adv-x="1706" d="M262 23v139h1184v-139h-1184zM262 690v121l1182 395v-147l-936 -309l936 -306v-149z" />
<glyph unicode="&#x2265;" horiz-adv-x="1706" d="M262 23v139h1184v-139h-1184zM262 295v149l938 306l-938 309v147l1184 -395v-121z" />
<glyph unicode="&#x255f;" horiz-adv-x="1401" d="M8 0v90q67 4 110 54q28 34 59 112l397 999h267l393 -999q33 -84 59 -114q39 -46 113 -52v-90q-102 4 -279 4q-170 0 -260 -4l1 90q151 3 151 72q0 36 -84 276h-487l-72 -207q-15 -43 -15 -63q0 -78 150 -78v-90q-143 4 -256 4q-112 0 -247 -4zM493 563h395l-195 553z" />
<glyph unicode="&#x2560;" horiz-adv-x="1165" d="M61 0v90q108 0 139 24q38 29 38 132v764q0 101 -39 131q-31 24 -129 24v84h1005v-327h-104q0 140 -41 175q-33 29 -168 29h-297v-424h96q119 0 151 25q40 30 40 143h94v-446h-92q-2 113 -45 144q-32 24 -144 24h-100v-467h289q150 0 187.5 43t39.5 206l102 1v-375h-1022z " />
<glyph unicode="&#x2561;" horiz-adv-x="711" d="M78 0v90q99 0 132.5 29.5t33.5 126.5v764q0 99 -38 130q-32 25 -128 25v90h6q46 0 137 -2t137 -2q49 0 281 4v-90q-98 0 -128 -24q-38 -30 -38 -131v-764q0 -102 37 -132q31 -24 129 -24v-90q-100 4 -281 4q-180 0 -280 -4z" />
<glyph unicode="&#x2562;" horiz-adv-x="1442" d="M100 629q0 304 157 476q162 179 464 179q301 0 463 -179q155 -172 155 -476t-155 -477q-162 -181 -463 -181t-465 180q-156 174 -156 478zM348 631q0 -223 74 -357q94 -172 299 -172q371 0 371 529q0 528 -371 528q-205 0 -299 -171q-74 -134 -74 -357z" />
<glyph unicode="&#x2563;" horiz-adv-x="1366" d="M47 1165v90h6q44 0 133 -2t133 -2q48 0 267 4v-90q-105 0 -134 -24q-34 -28 -34 -131v-555q0 -173 58 -250q67 -90 233 -90q163 0 230 90q58 77 58 246v553q0 108 -38 138q-31 23 -136 23v90h12q41 0 122 -2t122 -2q47 0 244 4v-90h-37q-69 0 -94 -46q-18 -33 -18 -109 v-547q0 -257 -114.5 -374.5t-371.5 -117.5q-495 0 -495 463v576q0 94 -28 124.5t-118 30.5z" />
<glyph unicode="&#x2564;" horiz-adv-x="1235" d="M14 1165v90q170 -4 240 -4q43 0 129 2t129 2h18v-90q-131 0 -131 -57q0 -28 25 -74l207 -379l205 363q26 46 26 82q0 65 -127 65v90h14q45 0 129 -2q88 -2 128 -2q73 0 217 4l-1 -90q-96 -5 -182 -143l-319 -512v-272q0 -99 39 -126q31 -22 135 -22v-90q-104 4 -291 4 q-180 0 -274 -4v90q105 0 135 21q39 28 39 127v276l-309 518q-75 126 -181 133z" />
<glyph unicode="&#x2565;" d="M57 244q0 205 221 265q103 28 384 28v79q0 181 -211 181q-203 0 -203 -179h-90v232q172 45 319 45q201 0 291 -76q98 -83 98 -280v-320q0 -87 18 -112q23 -31 105 -31v-76q-30 2 -90 2q-113 0 -219 -10v153q-59 -174 -301 -174q-141 0 -226 65q-96 72 -96 208zM260 260 q0 -77 48.5 -123.5t125.5 -46.5q228 0 228 266v80h-134q-268 0 -268 -176z" />
<glyph unicode="&#x2566;" horiz-adv-x="1020" d="M70 430q0 209 114 335q118 130 326 130q438 0 438 -459v-45h-663q6 -309 272 -309q198 0 238 168h131q-38 -279 -406 -279q-217 0 -333.5 121t-116.5 338zM285 500h467v6q0 121 -49 195q-58 87 -173 87q-225 0 -245 -288z" />
<glyph unicode="&#x2567;" horiz-adv-x="575" d="M55 0l1 80q111 4 126 71q6 25 6 74v449q0 55 -8 75q-13 34 -58 39q-19 3 -54 3v77q36 -2 106 -2q95 0 221 10v-663q0 -82 26 -106.5t109 -26.5v-80q-78 4 -197 4h-80q-113 0 -198 -4zM170 1176q0 108 115 108q114 0 114 -108q0 -109 -114 -109q-115 0 -115 109z" />
<glyph unicode="&#x2568;" horiz-adv-x="575" d="M53 0l1 80q111 4 126 71q6 25 6 74v449q0 57 -10 78q-14 31 -62 37q-19 2 -51 2l1 77q36 -2 106 -2q95 0 221 10v-663q0 -82 26 -106.5t109 -26.5v-80q-78 4 -196 4h-85q-107 0 -192 -4z" />
<glyph unicode="&#x2569;" horiz-adv-x="1034" d="M70 434q0 217 113 338q117 123 333 123q217 0 334 -123q113 -120 113 -338q0 -217 -114 -339q-117 -124 -333 -124t-333 125q-113 121 -113 338zM285 436q0 -354 231 -354q232 0 232 354q0 355 -232 355q-231 0 -231 -355z" />
<glyph unicode="&#x256a;" horiz-adv-x="1159" d="M43 788v80q102 -4 125 -4q89 0 203 10v-540q0 -240 188 -240q223 0 223 277v293q0 95 -42 113q-25 11 -83 11l1 80q101 -4 122 -4q91 0 209 10v-679q0 -54 7 -74q13 -35 55 -42q21 -3 59 -3v-76q-38 2 -106 2q-99 0 -203 -10v143q-96 -164 -307 -164q-190 0 -264 101 q-64 87 -64 286v285q0 91 -17 114q-21 31 -106 31z" />
<glyph unicode="&#x256b;" horiz-adv-x="1004" d="M-37 787v81q197 -4 238 -4q40 0 233 4v-81q-149 -3 -149 -74q0 -20 10 -43l217 -498l219 496q12 27 12 47q0 62 -151 72v81q187 -4 225 -4q43 0 219 4v-81q-80 -17 -129 -121l-389 -830q-22 -47 -22 -76q0 -50 51 -66q24 -6 94 -8v-79q-78 4 -223 4t-225 -4v80 q93 4 147 120l74 160l-318 684q-30 64 -49 87q-32 39 -84 49z" />
<glyph unicode="&#x25ca;" horiz-adv-x="1012" d="M6 592l500 1061l500 -1061l-500 -1069zM121 592l385 -825l385 825l-385 817z" />
<glyph unicode="&#x25cb;" horiz-adv-x="1401" d="M424 1335l223 350h132l223 -350h-72l-217 196l-217 -196h-72zM479 1724l264 290q66 72 113 72q78 0 78 -78q0 -44 -78 -94l-299 -190h-78z" />
<glyph unicode="&#x25cf;" horiz-adv-x="1401" d="M424 1335l223 350h132l223 -350h-72l-217 196l-217 -196h-72zM492 2006q0 78 78 78q47 0 113 -72l264 -290h-78l-299 190q-78 50 -78 94z" />
<glyph unicode="&#x25d8;" horiz-adv-x="1401" d="M424 1335l223 350h132l223 -350h-72l-217 196l-217 -196h-72zM801 1895v142q78 28 137 28q75 0 135 -31q79 -39 79 -114q0 -69 -80 -137.5t-80 -98.5v-20h-120v28q0 45 67.5 120.5t67.5 108.5q0 60 -68 60q-77 0 -77 -51v-35h-61z" />
<glyph unicode="&#x25d9;" horiz-adv-x="1401" d="M424 1335l223 350h132l223 -350h-72l-217 196l-217 -196h-72zM490 1738q34 225 197 225q41 0 116.5 -23.5t112.5 -23.5q65 0 92 86h60q-38 -224 -201 -224q-38 0 -116 24t-109 24q-69 0 -94 -88h-58z" />
<glyph unicode="&#x25fc;" horiz-adv-x="870" d="M0 0v870h870v-870h-870z" />
<glyph unicode="&#xf000;" horiz-adv-x="1618" d="M113 737q0 211 117 348q124 146 331 146q57 0 150 -34t129 -34q34 0 126 35t148 35q217 0 359 -164q-201 -128 -201 -328q0 -233 233 -338q-90 -195 -153 -280q-118 -158 -256 -158q-45 0 -128 33t-126 33q-45 0 -129.5 -33t-128.5 -33q-128 0 -259 176q-99 134 -156 296 q-56 155 -56 300zM834 1253q0 132 101 237q96 99 230 124q2 -20 2 -62q0 -131 -103.5 -234.5t-211.5 -103.5q-3 0 -8.5 1t-7.5 1q-2 12 -2 37z" />
<glyph unicode="&#xf001;" horiz-adv-x="1200" d="M63 762v106h138v125q0 291 305 291q110 0 211 -31v-227l-76 1q-4 157 -117 157q-118 0 -118 -180v-136h310q180 0 300 9v-664q0 -82 27 -108q24 -23 108 -26v-79q-82 4 -176 4h-126q-91 0 -171 -4v79q85 3 111 36q22 27 22 110v418q0 80 -25 101q-22 18 -106 18h-274 v-549q0 -88 34 -114q26 -19 113 -19v-80q-90 4 -250 4q-157 0 -235 -4v80q85 2 111 35q22 27 22 110v537h-138zM791 1178q0 106 114 106q115 0 115 -110q0 -107 -117 -107q-112 0 -112 111z" />
<glyph unicode="&#xf002;" horiz-adv-x="1200" d="M63 762v106h138v125q0 291 297 291q16 0 120.5 -14.5t194.5 -14.5q49 0 203 11v-1053q0 -83 29 -109q26 -23 106 -25v-79q-84 4 -240 4q-151 0 -233 -4v79q85 3 111 36q22 27 22 110v824q0 73 -12 95q-18 34 -82 34v-152l-76 1q-4 157 -117 157q-118 0 -118 -180v-136 h204v-106h-204v-549q0 -88 34 -113q27 -20 113 -20v-80q-90 4 -250 4q-157 0 -235 -4v80q85 2 111 35q22 27 22 110v537h-138z" />
<glyph horiz-adv-x="578" />
<glyph horiz-adv-x="578" />
<glyph horiz-adv-x="578" d="M92 911l177 334h219l-272 -334h-124z" />
<glyph horiz-adv-x="757" d="M365 1225v142q78 28 137 28q75 0 135 -31q79 -39 79 -114q0 -69 -80 -137.5t-80 -98.5v-20h-120v28q0 45 67.5 120.5t67.5 108.5q0 60 -68 60q-77 0 -77 -51v-35h-61z" />
<glyph d="M205 1006l223 350h132l223 -350h-72l-217 196l-217 -196h-72zM261 1394l264 290q66 72 113 72q78 0 78 -78q0 -44 -78 -94l-299 -190h-78z" />
<glyph d="M205 1006l223 350h132l223 -350h-72l-217 196l-217 -196h-72zM273 1678q0 78 78 78q47 0 113 -72l264 -290h-78l-299 190q-78 50 -78 94z" />
<glyph d="M205 1006l223 350h132l223 -350h-72l-217 196l-217 -196h-72zM583 1565v142q78 28 137 28q75 0 135 -31q79 -39 79 -114q0 -69 -80 -137.5t-80 -98.5v-20h-120v28q0 45 67.5 120.5t67.5 108.5q0 60 -68 60q-77 0 -77 -51v-35h-61z" />
<glyph d="M205 1006l223 350h132l223 -350h-72l-217 196l-217 -196h-72zM271 1409q34 225 197 225q41 0 116.5 -23.5t112.5 -23.5q65 0 92 86h60q-38 -224 -201 -224q-38 0 -116 24t-109 24q-69 0 -94 -88h-58z" />
<glyph d="M195 1321h65q32 -135 236 -135t233 135h66q-41 -281 -299 -281q-260 0 -301 281zM331 1394l264 290q66 72 113 72q78 0 78 -78q0 -44 -78 -94l-299 -190h-78z" />
<glyph d="M195 1321h65q32 -135 236 -135t233 135h66q-41 -281 -299 -281q-260 0 -301 281zM213 1678q0 78 78 78q47 0 113 -72l264 -290h-78l-299 190q-78 50 -78 94z" />
<glyph d="M195 1321h65q32 -135 236 -135t233 135h66q-41 -281 -299 -281q-260 0 -301 281zM353 1565v142q78 28 137 28q75 0 135 -31q79 -39 79 -114q0 -69 -80 -137.5t-80 -98.5v-20h-120v28q0 45 67.5 120.5t67.5 108.5q0 60 -68 60q-77 0 -77 -51v-35h-61z" />
<glyph d="M195 1321h65q32 -135 236 -135t233 135h66q-41 -281 -299 -281q-260 0 -301 281zM271 1409q34 225 197 225q41 0 116.5 -23.5t112.5 -23.5q65 0 92 86h60q-38 -224 -201 -224q-38 0 -116 24t-109 24q-69 0 -94 -88h-58z" />
</font>
</defs>
</svg>
