<?xml version="1.0" standalone="no"?>
<!DOCTYPE svg PUBLIC "-//W3C//DTD SVG 1.1//EN" "http://www.w3.org/Graphics/SVG/1.1/DTD/svg11.dtd" >
<svg xmlns="http://www.w3.org/2000/svg" xmlns:xlink="http://www.w3.org/1999/xlink" version="1.1">
<metadata>
Created by FontForge 20150318 at Tue Nov 10 07:21:29 2015
 By uniteet7
(c) Copyright 2001 by Tom Truong. All Rights Reserved
</metadata>
<defs>
<font id="UVNThayGiaoNang_R" horiz-adv-x="1108" >
  <font-face 
    font-family="UVNThayGiaoNang_R"
    font-weight="400"
    font-stretch="normal"
    units-per-em="2048"
    panose-1="2 9 8 5 5 5 6 2 2 3"
    ascent="1638"
    descent="-410"
    x-height="967"
    cap-height="1470"
    bbox="-342 -551 2554 2359"
    underline-thickness="227"
    underline-position="-159"
    unicode-range="U+0020-F002"
  />
<missing-glyph horiz-adv-x="1024" 
d="M128 0v2359h768v-2359h-768zM256 128h512v2103h-512v-2103z" />
    <glyph glyph-name=".notdef" horiz-adv-x="1024" 
d="M128 0v2359h768v-2359h-768zM256 128h512v2103h-512v-2103z" />
    <glyph glyph-name=".null" horiz-adv-x="0" 
 />
    <glyph glyph-name="nonmarkingreturn" horiz-adv-x="635" 
 />
    <glyph glyph-name="space" unicode=" " horiz-adv-x="635" 
 />
    <glyph glyph-name="exclam" unicode="!" horiz-adv-x="696" 
d="M152 1274q0 92 50 152q54 63 144 63q94 0 145.5 -57t51.5 -152q0 -24 -13 -98l-118 -676l-103 -55l-141 694q-16 79 -16 129zM352 322q73 0 123.5 -50t50.5 -122q0 -73 -50.5 -124t-123.5 -51t-124.5 51.5t-51.5 123.5q0 71 52 121.5t124 50.5z" />
    <glyph glyph-name="quotedbl" unicode="&#x22;" horiz-adv-x="717" 
d="M553 846h-45l-84 463q-4 22 -4 37q0 118 110 118q111 0 111 -116q0 -29 -2 -40zM207 846h-43l-86 462q-4 21 -4 38q0 118 110 118q113 0 113 -116q0 -17 -4 -39z" />
    <glyph glyph-name="numbersign" unicode="#" horiz-adv-x="1575" 
d="M705 844l-84 -236h253l84 236h-253zM684 1466h248l-139 -393h241l140 393h247l-139 -393h270l-86 -229h-266l-82 -234h277l-84 -229h-275l-141 -393h-248l141 393h-241l-141 -393h-248l141 393h-276l86 229h272l82 234h-285l86 229h281z" />
    <glyph glyph-name="dollar" unicode="$" horiz-adv-x="1270" 
d="M768 166q135 55 135 180q0 120 -135 178v-358zM559 596v-461h35q46 0 84 7v415q-39 14 -119 39zM711 1307h-34q-25 0 -83 -5v-393q39 -11 117 -35v433zM502 1278q-125 -42 -125 -170q0 -104 125 -162v332zM123 319q0 43 21 55q15 9 61 9q59 0 78.5 -12t28.5 -61
q12 -59 32 -87q36 -50 125 -73v477q-175 48 -260 129q-103 98 -103 264q0 180 110 289q103 104 286 129v164h92v-158h117v158h92v-164q91 -7 274 -17q4 -55 15 -164q8 -67 8 -94q0 -48 -22 -64q-17 -12 -68 -12q-45 0 -62.5 9.5t-45.5 94.5q-26 77 -99 99v-444
q375 -109 375 -402q0 -175 -119 -294q-113 -113 -291 -138v-192h-90v180q-36 -2 -119 -2v-178h-90v182q-58 0 -165 12q-114 14 -165 15q-16 270 -16 290z" />
    <glyph glyph-name="percent" unicode="%" horiz-adv-x="1798" 
d="M1368 567q-113 0 -113 -227q0 -258 113 -258q111 0 111 242q0 243 -111 243zM1006 324q0 164 100 257q97 91 262 91t263 -92t98 -256q0 -165 -98 -257t-263 -92t-262 91q-100 94 -100 258zM610 -57h-135l713 1503h135zM432 1307q-110 0 -110 -228q0 -258 110 -258
q111 0 111 244q0 242 -111 242zM72 1065q0 164 99 257q96 91 261 91t263 -92t98 -256t-98 -256t-263 -92t-261 91q-99 93 -99 257z" />
    <glyph glyph-name="ampersand" unicode="&#x26;" horiz-adv-x="1776" 
d="M608 829q148 74 148 236q0 131 -144 131q-65 0 -106 -39t-41 -104q0 -129 143 -224zM545 627q-121 -64 -121 -191q0 -106 87 -171q80 -58 189 -58q163 0 273 110zM1253 406l439 -254l-152 -226l-428 293q-230 -248 -557 -248q-194 0 -309 75q-137 89 -137 273
q0 258 329 392q-202 138 -202 319q0 159 121 249q109 81 274 81q149 0 248 -70q112 -80 112 -223q0 -207 -270 -326l403 -260q65 81 121 176q72 126 72 193q0 60 -70 69q-83 10 -92 24q-8 10 -8 42q0 43 19 50q11 5 36 5q30 0 91.5 -10t92.5 -10q42 0 123.5 14.5t122.5 14.5
q37 0 46.5 -9.5t9.5 -44.5q0 -30 -8.5 -43t-55.5 -20q-65 -10 -168.5 -205.5t-202.5 -320.5z" />
    <glyph glyph-name="quotesingle" unicode="'" horiz-adv-x="371" 
d="M207 846h-43l-86 462q-4 21 -4 38q0 118 112 118q111 0 111 -116q0 -17 -4 -39z" />
    <glyph glyph-name="parenleft" unicode="(" horiz-adv-x="868" 
d="M758 1491l88 -98q-348 -344 -348 -856q0 -500 354 -877l-80 -100q-559 338 -559 962q0 622 545 969z" />
    <glyph glyph-name="parenright" unicode=")" horiz-adv-x="868" 
d="M14 1389l82 102q559 -336 559 -965q0 -620 -544 -966l-88 96q348 346 348 856q0 495 -357 877z" />
    <glyph glyph-name="asterisk" unicode="*" horiz-adv-x="1024" 
d="M172 1247q0 32 24.5 67.5t55.5 35.5q36 0 76 -39l159 -156l-55 217q-4 16 -4 43q0 74 84 74t84 -74q0 -28 -4 -43l-57 -217l161 156q40 39 76 39q31 0 55.5 -35.5t24.5 -67.5q0 -49 -78 -71l-215 -62l215 -61q76 -22 76 -72q0 -35 -23 -67q-26 -35 -59 -35q-31 0 -72 39
l-161 155l55 -217q6 -24 6 -43q0 -74 -84 -74q-86 0 -86 74q0 19 6 43l55 217l-161 -155q-41 -39 -72 -39q-32 0 -57 34t-25 68q0 51 76 72l217 61l-215 62q-78 22 -78 71z" />
    <glyph glyph-name="plus" unicode="+" horiz-adv-x="1706" 
d="M735 1221h238v-494h479v-231h-479v-496h-238v496h-481v231h481v494z" />
    <glyph glyph-name="comma" unicode="," horiz-adv-x="635" 
d="M121 0q42 152 53 307q21 0 65.5 -2t67.5 -2q58 0 178 10q-20 -422 -256 -741h-172q226 271 226 362q0 72 -88 72q-20 0 -74 -6z" />
    <glyph glyph-name="hyphen" unicode="-" horiz-adv-x="780" 
d="M719 647v-307h-658v307h658z" />
    <glyph glyph-name="hyphen" unicode="&#x2010;" horiz-adv-x="780" 
d="M719 647v-307h-658v307h658z" />
    <glyph glyph-name="period" unicode="." horiz-adv-x="635" 
d="M317 322q73 0 124 -50t51 -122q0 -73 -51 -124t-124 -51t-123.5 51t-50.5 124q0 71 51.5 121.5t122.5 50.5z" />
    <glyph glyph-name="slash" unicode="/" horiz-adv-x="797" 
d="M774 1470l-688 -1660h-147l690 1660h145z" />
    <glyph glyph-name="zero" unicode="0" horiz-adv-x="1270" 
d="M446 723q0 -588 187 -588q98 0 146 137q44 129 44 451t-44 450q-48 136 -146 136q-187 0 -187 -586zM635 -25q-297 0 -443 237q-120 195 -120 511t120 511q145 236 443 236t443 -236q120 -195 120 -511t-120 -511q-146 -237 -443 -237z" />
    <glyph glyph-name="one" unicode="1" horiz-adv-x="1270" 
d="M256 963q-27 0 -52.5 34t-25.5 62q0 12 20 26h1l555 385l92 -49q-12 -121 -12 -233v-877q0 -74 9 -102q16 -52 71 -60l67 -10q33 -5 41 -25q4 -10 4 -51q0 -45 -5 -54q-9 -17 -48 -17q-17 0 -125.5 15.5t-196.5 15.5q-52 0 -155 -14.5t-154 -14.5q-40 0 -49 15
q-6 10 -6 54q0 40 5 51q8 19 41 25l75 13q73 13 73 170v794q-218 -153 -225 -153z" />
    <glyph glyph-name="two" unicode="2" horiz-adv-x="1270" 
d="M399 264h439q145 0 188 98q36 82 61 82q6 0 16.5 1t16.5 1q58 0 58 -24q0 -7 -20 -60q-74 -196 -113 -384q-182 22 -304 22h-441q-92 0 -236 -6l-1 123q386 329 526 514.5t140 345.5q0 108 -67.5 172.5t-176.5 64.5q-204 0 -257 -207q-13 -51 -64 -51q-36 0 -45.5 10.5
t-9.5 45.5q0 216 153 342q142 116 363 116q206 0 332 -101q137 -111 137 -312q0 -188 -150.5 -363.5t-544.5 -429.5z" />
    <glyph glyph-name="three" unicode="3" horiz-adv-x="1270" 
d="M346 846q79 -25 156 -25q113 0 189 46q91 55 91 161q0 101 -84 154q-70 43 -178 43q-188 0 -256 -113q-8 -24 -27 -69q-15 -27 -57 -27q-33 0 -44 8t-11 39q0 170 141 290t359 120q190 0 314 -83q144 -97 144 -278q0 -120 -67.5 -203.5t-184.5 -115.5q314 -76 314 -355
q0 -200 -171.5 -330.5t-447.5 -130.5q-181 0 -306 65q-159 82 -159 247q0 121 125 121q81 0 108 -75q23 -70 46 -141q43 -75 162 -75q125 0 200.5 69t75.5 193q0 248 -299 248q-93 0 -205 -29z" />
    <glyph glyph-name="four" unicode="4" horiz-adv-x="1270" 
d="M664 524v463l-369 -463h369zM961 0h-347q39 61 39 184v121h-567q-61 0 -61 115q0 23 18 45l805 993q10 12 29 12q23 0 71.5 -24t48.5 -41q0 -36 -6 -108t-6 -109v-656h209v-227h-209q0 -217 -24 -305z" />
    <glyph glyph-name="five" unicode="5" horiz-adv-x="1270" 
d="M314 1446q170 -6 186 -6h263q140 0 188.5 5.5t76.5 18.5q51 23 74 23q67 0 67 -21q0 -10 -4 -22l-98 -287q-118 8 -238 8h-405l-59 -311q127 57 286 57q212 0 341 -97q143 -109 143 -314q0 -254 -183 -396q-167 -129 -428 -129q-184 0 -302 63q-152 81 -152 249
q0 123 127 123q86 0 112 -75q20 -70 41 -141q40 -75 162 -75q129 0 196 84q60 77 60 209q0 272 -301 272q-111 0 -256 -45l-45 8q29 130 117 593q23 123 31 206z" />
    <glyph glyph-name="six" unicode="6" horiz-adv-x="1270" 
d="M641 694q-180 0 -180 -274q0 -287 180 -287q182 0 182 281q0 280 -182 280zM473 782q128 136 307 136q188 0 297 -126q103 -119 103 -309q0 -232 -151 -372q-148 -136 -382 -136q-270 0 -410 177q-128 161 -128 438q0 331 191 559q183 219 509 306q149 40 260 40
q37 0 37 -47t-61 -66q-49 -15 -146 -55q-322 -167 -426 -545z" />
    <glyph glyph-name="seven" unicode="7" horiz-adv-x="1270" 
d="M1245 1393l-341 -622h192v-117h-256l-373 -679h-211l383 679h-377v117h443l200 355h-487q-109 0 -144 -61q-6 -12 -23 -30q-12 -7 -85 -7q-76 0 -76 41l4 18l82 359q169 -16 346 -16h365q103 0 358 14v-51z" />
    <glyph glyph-name="eight" unicode="8" horiz-adv-x="1270" 
d="M489 1147q0 -82 64 -157t98 -75q33 0 98.5 80t65.5 166q0 71 -43.5 112.5t-114.5 41.5q-78 0 -123 -45t-45 -123zM836 336q0 162 -177 271q-37 22 -47 22t-35 -17q-157 -105 -157 -260q0 -92 61.5 -154.5t153.5 -62.5q87 0 144 57t57 144zM870 803q320 -168 320 -406
q0 -216 -190 -329q-158 -93 -388 -93q-218 0 -355 93q-161 107 -161 315q0 240 295 371q-250 134 -250 344q0 185 169 287q142 85 339 85q190 0 321 -69q165 -87 165 -260q0 -204 -265 -338z" />
    <glyph glyph-name="nine" unicode="9" horiz-adv-x="1270" 
d="M631 1309q-182 0 -182 -281q0 -283 182 -283q180 0 180 283q0 281 -180 281zM797 670q-122 -146 -305 -146t-296 127q-108 122 -108 307q0 230 156 373q151 139 383 139q262 0 404 -158q136 -152 136 -417q0 -412 -257 -666t-670 -254h-62q-35 0 -45 6q-14 8 -14 39
q0 46 67 60q47 9 142 37q360 149 469 553z" />
    <glyph glyph-name="colon" unicode=":" horiz-adv-x="682" 
d="M340 891q73 0 124.5 -50t51.5 -122q0 -73 -51.5 -123.5t-124.5 -50.5t-123.5 51t-50.5 123t51 122t123 50zM340 322q73 0 124.5 -50t51.5 -122q0 -73 -51.5 -124t-124.5 -51t-123.5 51t-50.5 124q0 71 51 121.5t123 50.5z" />
    <glyph glyph-name="semicolon" unicode=";" horiz-adv-x="682" 
d="M338 891q73 0 123.5 -50t50.5 -122t-51 -123t-123 -51t-123 51t-51 123t51 122t123 50zM127 0q43 152 55 307q20 0 64.5 -2t66.5 -2q58 0 178 10q-20 -420 -255 -741h-173q228 274 228 362q0 72 -90 72q-20 0 -74 -6z" />
    <glyph glyph-name="less" unicode="&#x3c;" horiz-adv-x="1706" 
d="M1442 1214v-253l-854 -351l854 -348v-254l-1178 486v233z" />
    <glyph glyph-name="equal" unicode="=" horiz-adv-x="1706" 
d="M254 502h1198v-230h-1198v230zM254 950h1198v-231h-1198v231z" />
    <glyph glyph-name="greater" unicode="&#x3e;" horiz-adv-x="1706" 
d="M264 1214l1178 -487v-233l-1178 -486v254l854 348l-854 351v253z" />
    <glyph glyph-name="question" unicode="?" horiz-adv-x="1006" 
d="M485 1493q141 -55 208 -105q110 -81 110 -192q0 -117 -109 -202q-55 -42 -212 -115q-189 -88 -189 -162q0 -73 72 -109q56 -28 137 -28q143 0 311 116l133 -151q-177 -131 -420 -131q-168 0 -275 72q-126 84 -126 243q0 105 67 171q45 44 161 99q165 79 165 146
q0 88 -117 88q-15 0 -44 -3t-44 -3q-28 0 -28 16q0 1 2 4.5t8 9.5zM498 317q73 0 123.5 -50t50.5 -122t-51 -123t-123 -51q-73 0 -124.5 51t-51.5 123t51.5 122t124.5 50z" />
    <glyph glyph-name="at" unicode="@" horiz-adv-x="2019" 
d="M1171 313q-121 -192 -278 -192q-160 0 -245 94q-81 90 -81 252q0 208 152 376q156 173 362 173q191 0 217 -176l48 157h208l-174 -624q-14 -50 -14 -88q0 -99 70 -99q30 0 85 28q146 73 227 233q73 145 73 321q0 121 -34 220q-65 187 -253 295q-173 99 -383 99
q-367 0 -606 -250q-236 -246 -236 -614q0 -343 211 -538q205 -189 551 -189q317 0 631 207l41 -57q-305 -228 -672 -228q-410 0 -665 205q-277 222 -277 621q0 395 302 663q291 258 691 258q336 0 546 -177q224 -188 224 -517q0 -164 -59 -302q-62 -144 -172 -239
q-125 -108 -268 -108q-95 0 -155 51t-67 145zM1128 942q-59 0 -110 -44q-80 -69 -150 -254q-67 -176 -67 -292q0 -155 119 -155q123 0 227 248q88 212 88 358q0 139 -107 139z" />
    <glyph glyph-name="A" unicode="A" horiz-adv-x="1692" 
d="M911 598l-182 426l-184 -426h366zM1649 68q0 -47 -6 -58q-9 -18 -50 -18q-19 0 -114 16.5t-172 16.5q-70 0 -163.5 -16.5t-115.5 -16.5q-38 0 -48 15q-7 11 -7 52q0 59 45 74q67 22 67 45q0 16 -8 35l-96 225h-508l-92 -209q-14 -32 -14 -65q0 -22 52 -31q59 -11 67 -22
t8 -58q0 -37 -7 -47q-9 -14 -43 -14q-32 0 -94 12t-94 12q-35 0 -104.5 -11t-104.5 -11q-30 0 -37 18q-4 9 -4 45q0 46 7.5 57.5t70.5 22.5q59 11 88 74l547 1206q17 38 44 48q15 5 68 5q54 0 62 -2q31 -6 45 -36l543 -1207q27 -60 92.5 -78t69.5 -25q6 -12 6 -54z" />
    <glyph glyph-name="B" unicode="B" horiz-adv-x="1380" 
d="M584 1300v-458h34q252 0 252 227q0 236 -206 236q-60 0 -80 -5zM584 279q0 -129 121 -129q116 0 178 71q59 67 59 185q0 280 -311 280q-8 0 -23.5 -1t-23.5 -1v-405zM227 1186q0 82 -32 112q-18 18 -62.5 23.5t-54.5 21.5q-8 11 -8 56t6 55q9 16 49 16q14 0 107.5 -10
t166.5 -10q57 0 171 10t171 10q492 0 492 -337q0 -290 -393 -355q489 -47 489 -383q0 -215 -181 -319q-145 -84 -378 -84q-91 0 -219.5 16.5t-159.5 16.5q-63 0 -154.5 -16.5t-111.5 -16.5q-39 0 -49 16q-6 11 -6 55t7 56t78.5 28.5t71.5 178.5v860z" />
    <glyph glyph-name="C" unicode="C" horiz-adv-x="1550" 
d="M1419 1448q0 -110 9.5 -195.5t9.5 -97.5q0 -45 -29 -59q-18 -9 -70 -9q-45 0 -61.5 13.5t-32.5 96.5q-14 75 -74 103q-57 25 -194 25q-246 0 -371 -181q-108 -157 -108 -413q0 -255 121 -415q135 -179 382 -179q129 0 201 52q46 34 80 104q32 65 51 74.5t105 9.5
q49 0 49 -41q0 -8 -22 -114q-24 -109 -40 -204q-51 -4 -259 -27q-159 -18 -259 -18q-377 0 -595 186q-232 198 -232 568q0 368 224 569q215 193 587 193q100 0 264 -17q202 -21 264 -24z" />
    <glyph glyph-name="D" unicode="D" horiz-adv-x="1765" 
d="M600 377q0 -120 45 -169q47 -52 166 -52q241 0 364 179q105 154 105 406q0 251 -114 395q-126 158 -371 158q-93 0 -195 -12v-905zM227 1137q0 162 -74 178q-17 3 -51 10q-14 3 -36 16q-9 11 -9 62q0 46 9.5 56.5t52.5 10.5q20 0 119.5 -13t175.5 -13q39 0 196.5 13
t270.5 13q361 0 575 -179q230 -193 230 -546t-242 -561q-228 -196 -588 -196q-78 0 -233.5 17.5t-233.5 17.5q-64 0 -152 -15.5t-110 -15.5q-40 0 -50 16q-7 11 -7 55t7.5 56.5t38.5 19.5q13 3 38 8q73 17 73 179v811z" />
    <glyph glyph-name="E" unicode="E" horiz-adv-x="1298" 
d="M227 1146q0 149 -73 169q-34 7 -77 30q-7 12 -7 54q0 50 7 62q12 20 56 20q57 0 172.5 -5.5t175 -5.5t180.5 -1t181 -1q95 0 258 12q3 -97 13.5 -194t10.5 -98q0 -45 -31 -57q-16 -7 -71 -7q-41 0 -56.5 11t-30 75.5t-39.5 80.5q-30 18 -110 18h-188v-480h219
q74 0 101 13.5t40 73.5q10 49 68 49q79 0 95 -10.5t16 -55.5q0 -24 -5.5 -71.5t-5.5 -71.5q0 -25 4.5 -75t4.5 -75q0 -45 -29 -56q-13 -5 -70 -5q-38 0 -52 7t-26.5 50t-31.5 55.5t-82 12.5h-246v-324q0 -94 28 -129q32 -41 122 -41q191 0 242 18q58 20 86 105q24 72 93 72
q105 0 105 -52q0 -18 -28 -123q-28 -108 -44 -196q-268 20 -598 20q-208 0 -431 -24q-37 -4 -48 -4q-39 0 -49 16q-6 11 -6 55q0 43 7 56t78.5 28.5t71.5 169.5v829z" />
    <glyph glyph-name="F" unicode="F" horiz-adv-x="1194" 
d="M227 1145q0 150 -73 170q-35 7 -77 30q-7 12 -7 54q0 49 7 62q12 20 56 20q57 0 172.5 -5.5t175 -5.5t180.5 -1t181 -1q95 0 258 12q3 -97 13.5 -194t10.5 -98q0 -45 -31 -57q-16 -7 -71 -7q-41 0 -56.5 11t-30 75.5t-39.5 80.5q-30 18 -110 18h-188v-480h198
q93 0 120 35q1 2 20 66q10 35 63 35q77 0 93 -10.5t16 -49.5q0 -27 -4 -82t-4 -82q0 -25 4 -74.5t4 -74.5q0 -46 -28 -57q-13 -5 -70 -5q-65 0 -75 36l-12 68q-19 36 -106 36h-219v-352q0 -155 76 -171l47 -10q31 -7 38 -17.5t7 -56.5q0 -44 -6 -55q-9 -16 -49 -16
q-23 0 -122 16.5t-175 16.5q-78 0 -174 -16.5t-115 -16.5q-40 0 -49 16q-6 11 -6 55q0 42 6 53.5t78.5 30.5t72.5 171v827z" />
    <glyph glyph-name="G" unicode="G" horiz-adv-x="1640" 
d="M1409 1447q0 -110 9 -194.5t9 -97.5q0 -45 -27 -59q-18 -9 -69 -9q-61 0 -79 35q-4 8 -19 92q-21 113 -252 113q-248 0 -374 -181q-109 -157 -109 -417q0 -244 82 -396q106 -194 329 -194q122 0 152 72q14 35 14 182q0 68 -41 87l-78 16q-41 14 -41 71q0 49 9.5 60.5
t54.5 11.5q11 0 96 -8t152 -8q46 0 136.5 8t133.5 8q39 0 48 -18q5 -9 5 -54q0 -60 -59 -78t-59 -106v-219q0 -61 5 -178q-98 10 -173 10q-39 0 -179.5 -12.5t-234.5 -12.5q-363 0 -565 196q-205 198 -205 560q0 365 223 568q214 194 584 194q101 0 261 -17q212 -22 261 -25
z" />
    <glyph glyph-name="H" unicode="H" horiz-adv-x="1767" 
d="M227 1145q0 150 -73 170q-35 7 -77 30q-7 12 -7 54q0 45 6 55q9 16 49 16q19 0 115 -16t174 -16q77 0 173 16t113 16q40 0 50 -16q6 -10 6 -55q0 -41 -4 -50q-8 -15 -41 -24l-37 -10q-52 -14 -67 -68q-7 -26 -7 -102v-320h567v321q0 75 -7 101q-14 55 -64 68l-39 10
q-34 9 -41 24q-4 9 -4 50q0 45 6 55q9 16 49 16q18 0 113.5 -16t173.5 -16q77 0 174 16t114 16q41 0 50 -16q6 -10 6 -55q0 -43 -6.5 -54t-77.5 -30q-74 -19 -74 -170v-827q0 -155 74 -171l42 -8q29 -8 35.5 -20t6.5 -56q0 -45 -6 -55q-10 -16 -50 -16q-19 0 -115.5 16.5
t-172.5 16.5q-78 0 -173 -16.5t-114 -16.5q-40 0 -49 16q-6 11 -6 55q0 45 7 57.5t77 26.5q50 10 64 68q7 28 7 102v342h-567v-341q0 -75 8 -103q15 -57 66 -68q33 -5 76 -28q6 -12 6 -56t-6 -55q-10 -16 -50 -16q-19 0 -114.5 16.5t-171.5 16.5t-173 -16.5t-116 -16.5
q-40 0 -49 16q-6 11 -6 55q0 43 7 56t78.5 28.5t71.5 170.5v827z" />
    <glyph glyph-name="I" unicode="I" horiz-adv-x="866" 
d="M627 1146v-829q0 -98 16 -128q17 -35 70.5 -46t61 -24t7.5 -56q0 -44 -6 -55q-10 -16 -49 -16q-15 0 -114 16.5t-185 16.5q-77 0 -173.5 -16.5t-115.5 -16.5q-39 0 -49 16q-6 11 -6 55q0 43 7 56t77 28q74 16 74 171v827q0 150 -74 170q-35 7 -77 30q-7 12 -7 54
q0 45 6 55q9 16 49 16q18 0 114.5 -16t174.5 -16q86 0 185.5 16t113.5 16q40 0 49 -16q6 -10 6 -55q0 -41 -5 -50q-7 -15 -42 -24l-37 -10q-50 -14 -64 -68q-7 -26 -7 -101z" />
    <glyph glyph-name="J" unicode="J" horiz-adv-x="858" 
d="M-41 -434v233q71 -12 107 -12q107 0 146 82q26 56 26 174v1094q0 164 -75 178l-52 10q-15 3 -38 17q-7 9 -7 57q0 45 6 55q9 16 49 16q18 0 119 -16t184 -16q79 0 176.5 16t116.5 16q40 0 49 -16q6 -10 6 -55q0 -43 -5.5 -53.5t-76.5 -30.5q-53 -15 -67 -72
q-7 -27 -7 -106v-703q0 -373 -140 -594q-167 -262 -517 -274z" />
    <glyph glyph-name="K" unicode="K" horiz-adv-x="1702" 
d="M1098 1282q0 21 -53 33q-58 13 -65 25t-7 57q0 46 6 56q9 15 51 15q37 0 110.5 -13t110.5 -13q41 0 120.5 14t115.5 14q40 0 49 -16q6 -10 6 -55q0 -43 -7 -54q-9 -15 -38 -20q-121 -22 -237 -152l-310 -346l527 -571q77 -83 103 -108q71 -66 122 -80v-74
q-114 -27 -195 -27q-179 0 -305 76q-100 60 -235 217l-367 428l463 533q35 40 35 61zM756 63q0 -44 -6 -55q-10 -16 -50 -16q-19 0 -114.5 16.5t-171.5 16.5t-173 -16.5t-116 -16.5q-40 0 -49 16q-6 11 -6 55q0 43 7 56t78.5 28.5t71.5 170.5v827q0 150 -73 170
q-35 7 -77 30q-7 12 -7 54q0 45 6 55q9 16 49 16q19 0 115 -16t174 -16q77 0 173 16t113 16q40 0 50 -16q6 -10 6 -55q0 -41 -4 -50q-8 -15 -41 -24l-37 -10q-52 -14 -67 -68q-7 -26 -7 -102v-827q0 -75 8 -103q15 -57 66 -68q33 -5 76 -28q6 -12 6 -56z" />
    <glyph glyph-name="L" unicode="L" horiz-adv-x="1274" 
d="M242 1137q0 76 -8 106q-15 58 -66 72q-34 7 -77 30q-7 12 -7 54q0 45 6 55q9 16 49 16q15 0 115.5 -16t185.5 -16t182.5 16t112.5 16q41 0 51 -15q7 -11 7 -56q0 -44 -8 -56t-66.5 -23.5t-75 -44t-16.5 -138.5v-795q0 -99 32.5 -133.5t131.5 -34.5q147 0 196 18
q54 20 83 105q25 72 93 72q105 0 105 -52q0 -18 -27 -123q-28 -108 -45 -194q-280 20 -596 20q-204 0 -416 -24q-35 -4 -45 -4q-39 0 -49 16q-6 11 -6 55q0 43 7 55.5t77 28.5q74 17 74 179v811z" />
    <glyph glyph-name="M" unicode="M" horiz-adv-x="2142" 
d="M403 1470q60 0 75 -3q38 -8 57 -42l538 -966l479 952q20 40 53 52q21 7 76 7q59 0 73 -3q39 -10 44 -49l154 -1173q9 -66 39 -88q16 -12 57 -16q35 -4 45 -21q6 -12 6 -57q0 -44 -6 -55q-10 -16 -49 -16q-21 0 -108 16.5t-148 16.5q-75 0 -169.5 -16.5t-111.5 -16.5
q-38 0 -48 15q-7 11 -7 52q0 47 7.5 59.5t44.5 18.5q44 7 59 17q30 19 30 67q0 9 -2 25l-86 674l-420 -836q-25 -49 -112 -49q-78 0 -101 41l-456 827l-60 -653q-2 -22 -2 -21q0 -59 32 -80q16 -12 64 -17q41 -5 52 -21q8 -12 8 -56q0 -36 -7 -47q-9 -16 -42 -16
q-35 0 -103.5 12t-103.5 12q-31 0 -92 -12t-92 -12q-36 0 -45 15q-7 11 -7 50q0 64 51 78q68 19 80.5 35.5t18.5 67.5l127 1165q5 46 35 59q18 8 73 8z" />
    <glyph glyph-name="N" unicode="N" horiz-adv-x="1712" 
d="M1323 498v690q0 83 -39 113q-23 18 -78 23q-50 4 -61 21q-8 11 -8 58q0 40 5 50q9 17 44 17q32 0 105.5 -11t111.5 -11t113 11t112 11q34 0 43 -16q6 -10 6 -49q0 -45 -7 -57q-11 -18 -56 -22q-49 -6 -69 -24q-34 -31 -34 -116v-1145q0 -32 -17.5 -41.5t-117.5 -9.5
q-95 0 -125 33l-862 944v-693q0 -82 39 -112q23 -17 80 -23q49 -5 60 -22q7 -12 7 -58q0 -39 -6 -50q-8 -17 -43 -17q-36 0 -107.5 12t-107.5 12q-38 0 -113.5 -12t-113.5 -12q-34 0 -43 16q-6 10 -6 49q0 47 8 58q11 17 55 22q49 4 68 23q33 30 33 116v1154q0 30 22 37
q10 3 49 3h92q71 0 91 -22z" />
    <glyph glyph-name="O" unicode="O" horiz-adv-x="1817" 
d="M907 150q222 0 328 189q84 150 84 390q0 242 -83 391q-106 189 -329 189q-222 0 -327 -189q-82 -150 -82 -391q0 -240 83 -390q105 -189 326 -189zM80 729q0 351 241 562q230 200 586 200q357 0 587 -200q241 -210 241 -562t-242 -561q-229 -199 -586 -199t-586 199
q-241 209 -241 561z" />
    <glyph glyph-name="P" unicode="P" horiz-adv-x="1300" 
d="M633 799q270 14 270 266q0 240 -229 240q-74 0 -74 -45v-934q0 -170 74 -179l65 -8q33 -4 41 -25q4 -10 4 -51q0 -44 -6 -55q-9 -16 -49 -16q-17 0 -116.5 16.5t-178.5 16.5q-91 0 -194 -16.5t-115 -16.5q-40 0 -49 16q-6 11 -6 55q0 43 7 56t78.5 28.5t71.5 178.5v811
q0 75 -8 105q-15 59 -65 73q-34 7 -77 30q-7 11 -7 54q0 45 6 55q9 16 49 16q15 0 111.5 -12t173.5 -12q68 0 204.5 12t204.5 12q461 0 461 -370q0 -183 -120 -305.5t-302 -122.5q-144 0 -225 96v31z" />
    <glyph glyph-name="Q" unicode="Q" horiz-adv-x="1835" 
d="M1542 233l221 -204q36 -30 73 -61q60 -50 60 -56v-43q0 -39 -237 -39q-111 0 -176 59l-185 168q-186 -86 -391 -86q-358 0 -586 197q-241 208 -241 561q0 352 241 562q229 200 586 200t587 -200q241 -210 241 -562q0 -303 -193 -496zM907 150q222 0 328 189
q84 150 84 390q0 242 -83 391q-106 189 -329 189q-222 0 -327 -189q-82 -150 -82 -391q0 -240 83 -390q105 -189 326 -189z" />
    <glyph glyph-name="R" unicode="R" horiz-adv-x="1593" 
d="M600 1286v-500q12 0 37 -4t39 -4q118 0 183 78q61 73 61 193q0 249 -224 249q-58 0 -96 -12zM227 1155q0 102 -14 125.5t-72 38.5t-64.5 26.5t-6.5 53.5q0 45 6 55q9 16 49 16q19 0 114.5 -11t168.5 -11t218 11t218 11q452 0 452 -372q0 -266 -270 -375l408 -516
q87 -110 159 -162v-59q-77 -29 -159 -29q-168 0 -303 98q-106 78 -218 240l-227 328q-7 0 -23 2t-24 2q-6 0 -19 -1t-20 -1v-299q0 -104 16 -136q18 -35 72 -46.5t61 -24t7 -56.5t-7 -55q-9 -16 -49 -16q-19 0 -114.5 16.5t-171.5 16.5t-173 -16.5t-116 -16.5q-39 0 -49 16
q-6 11 -6 55q0 43 7 56t78.5 28.5t71.5 178.5v829z" />
    <glyph glyph-name="S" unicode="S" horiz-adv-x="1243" 
d="M117 315q0 43 20 56q16 10 62 10q57 0 73 -10q20 -14 36 -81q17 -74 49 -106q53 -53 171 -53q109 0 178 45q82 53 82 156q0 67 -44 116q-31 35 -207 127q-183 96 -274 182q-138 130 -138 285q0 238 173 353q146 96 398 96q69 0 185 -11q137 -12 186 -14l14 -167
q13 -155 13 -130q0 -61 -95 -61q-45 0 -63 11t-25 40q-6 25 -18 74q-23 94 -182 94q-94 0 -153 -40q-69 -46 -69 -136q0 -133 267 -258q205 -96 277 -159q122 -109 122 -283q0 -248 -185 -374q-158 -108 -419 -108q-74 0 -207 13q-144 14 -207 16q-20 299 -20 317z" />
    <glyph glyph-name="T" unicode="T" horiz-adv-x="1569" 
d="M971 1276v-957q0 -75 7 -103q14 -62 64 -69l54 -8q33 -5 41 -25q4 -10 4 -51q0 -44 -6 -55q-10 -16 -50 -16q-17 0 -122.5 16.5t-190.5 16.5q-53 0 -155 -16.5t-152 -16.5q-39 0 -49 17q-6 10 -6 54q0 39 5 51q9 20 41 25l56 8q74 11 74 173v956h-240q-95 0 -115 -46
t-20 -47q-15 -28 -33.5 -36t-83.5 -8q-71 0 -71 45q0 10 4 28l49 224q9 41 23.5 55t54.5 14q35 0 98.5 -17.5t97.5 -17.5h934q8 0 24.5 -2t24.5 -2q18 0 45 15t42 17q21 3 75 3q47 0 47 -26q0 -17 -2 -27l-51 -252q-10 -51 -68 -51q-52 0 -59 1q-31 6 -41 36l-16 49
q-11 35 -61 43q-14 2 -82 2h-191z" />
    <glyph glyph-name="U" unicode="U" horiz-adv-x="1663" 
d="M569 1157q0 -26 1 -76.5t1 -76.5q0 -503 76 -680t264 -177q365 0 365 641q0 46 2 138.5t2 138.5q0 186 -21.5 215.5t-90 40.5t-77 21t-8.5 61q0 42 9 54.5t49 12.5q30 0 102 -13t111 -13t114 13t113 13q39 0 49 -15q6 -11 6 -54q0 -64 -62 -78q-72 -15 -87 -65
q-6 -19 -12 -209q-12 -361 -31 -490q-41 -274 -163 -414q-151 -174 -443 -174q-300 0 -451 154q-124 127 -163 382q-19 125 -28 485q-1 76 -10 227q-6 57 -21 74.5t-68 28.5q-49 9 -56.5 21.5t-7.5 55.5q0 45 6 55q9 16 49 16q18 0 115 -16t174 -16q91 0 197 16t118 16
q40 0 50 -16q6 -10 6 -55q0 -63 -61 -75q-77 -15 -97.5 -46t-20.5 -121z" />
    <glyph glyph-name="V" unicode="V" horiz-adv-x="1692" 
d="M31 1395q0 46 6 57q9 18 49 18q18 0 113.5 -15t173.5 -15q76 0 170.5 15t113.5 15q39 0 50 -14q8 -12 8 -53t-8 -54.5t-73 -25.5q-56 -11 -56 -53q0 -20 10 -44l340 -806l334 752q18 41 18 73q0 49 -43 66q-7 2 -86 16q-33 6 -42 24q-5 11 -5 50q0 41 5 51q9 18 44 18
t106 -12t107 -12q40 0 118 12t115 12q35 0 44 -17q6 -11 6 -50q0 -60 -40 -73q-71 -21 -80 -28q-15 -13 -32 -51l-553 -1228q-18 -39 -44 -48q-13 -4 -69 -4q-53 0 -63 2q-32 6 -45 37l-541 1227q-29 66 -98 82q-53 12 -53 76z" />
    <glyph glyph-name="W" unicode="W" horiz-adv-x="2236" 
d="M14 1401q0 43 7 54q10 15 49 15q25 0 113 -16t147 -16q46 0 138 16t138 16q38 0 47 -15q6 -10 6 -52q0 -45 -6 -56.5t-62 -20.5q-48 -8 -48 -52q0 -23 10 -53l235 -711l228 674q10 30 10 51q0 48 -36 68q-19 10 -71 19q-43 7 -50 21q-7 11 -7 56t6 56q10 15 50 15
q15 0 102.5 -15t157.5 -15q71 0 169.5 15t120.5 15q40 0 50 -16q6 -10 6 -55q0 -46 -7.5 -57.5t-69.5 -20.5q-52 -9 -52 -51q0 -22 8 -47l231 -709l248 696q8 22 8 45q0 53 -63 65q-74 15 -80 26t-6 55q0 41 5 51q9 18 44 18q31 0 93 -10t93 -10q33 0 98 10t97 10
q34 0 43 -17q6 -11 6 -50q0 -46 -18 -61q-11 -9 -60 -21q-29 -7 -61 -96l-436 -1202q-14 -37 -41 -47q-15 -5 -66 -5q-49 0 -60 2q-32 7 -42 37l-314 953l-323 -940q-13 -37 -42 -47q-16 -5 -67 -5q-52 0 -61 2q-33 7 -43 37l-428 1241q-20 57 -87 73q-57 14 -57 77z" />
    <glyph glyph-name="X" unicode="X" horiz-adv-x="1620" 
d="M750 532l-220 -260q-30 -35 -30 -84q0 -26 37 -39q28 -6 57 -12q37 -8 37 -76q0 -42 -7 -54q-10 -15 -49 -15q-40 0 -119.5 14t-119.5 14q-39 0 -115 -14t-115 -14q-38 0 -48 15q-7 11 -7 52q0 48 7.5 60.5t62.5 21.5q72 12 127 73q26 29 403 452l-436 608
q-37 51 -111 60q-53 6 -53 71q0 44 10 54.5t54 10.5q16 0 119.5 -16t187.5 -16q66 0 163 16t124 16q38 0 48 -15q7 -10 7 -49q0 -42 -7.5 -52.5t-59.5 -20.5q-44 -9 -44 -37q0 -13 11 -29l229 -323l194 252q31 40 31 74q0 45 -56 60q-65 17 -71 27t-6 48t6 49q9 16 43 16
q16 0 97.5 -12t146.5 -12q40 0 118 12t115 12q34 0 43 -16q5 -10 5 -49q0 -36 -6 -47q-10 -16 -54 -23q-92 -14 -178 -121l-326 -405l432 -604q36 -51 106 -67q48 -11 48 -70q0 -48 -5 -58q-9 -18 -50 -18q-22 0 -129 16.5t-189 16.5q-66 0 -163 -16.5t-123 -16.5
q-39 0 -49 15q-7 12 -7 54q0 50 11 62.5t63 15.5q49 3 49 43q0 17 -16 39z" />
    <glyph glyph-name="Y" unicode="Y" horiz-adv-x="1593" 
d="M6 1395q0 46 6 57q9 18 49 18q18 0 114 -16t173 -16q76 0 171 16t114 16q40 0 49 -16q6 -10 6 -55q0 -42 -8 -53.5t-57 -19.5q-41 -6 -41 -36q0 -12 12 -31l305 -479l280 456q15 24 15 42q0 32 -45 44q-6 1 -68 9q-32 4 -40 24q-5 11 -5 50q0 38 6 49q9 16 43 16
q35 0 106 -12t107 -12q40 0 117.5 12t114.5 12q35 0 44 -18q5 -11 5 -51q0 -46 -9.5 -55.5t-58.5 -18.5q-57 -11 -118 -106l-408 -639v-330q0 -70 36 -94q20 -14 71 -17q46 -4 55.5 -18t9.5 -60q0 -44 -6 -55q-10 -16 -49 -16q-26 0 -124.5 16.5t-168.5 16.5
q-69 0 -173.5 -16.5t-135.5 -16.5q-39 0 -48 16q-6 10 -6 55q0 46 9 59q13 18 57 20q50 3 69 17q33 24 33 99v315l-462 680q-13 19 -40 48q-37 12 -71.5 24.5t-34.5 69.5z" />
    <glyph glyph-name="Z" unicode="Z" horiz-adv-x="1542" 
d="M918 1282h-439q-86 0 -120 -37q-18 -34 -37 -69q-22 -37 -78 -37h-49q-39 0 -33 43l39 303h6q8 0 38 -6q34 -6 44 -7q49 -4 99 -4h775q161 0 277 14v-77l-865 -1225l508 6q91 1 117.5 15.5t44 67t35.5 62.5q15 9 92 9q70 0 70 -31q0 2 -2 -14l-39 -311h-9q-52 0 -138 6
q-104 6 -137 7q-131 5 -238 5h-376q-163 0 -447 -10l-1 65z" />
    <glyph glyph-name="bracketleft" unicode="[" horiz-adv-x="868" 
d="M274 1470h535v-143h-256v-1608h256v-141h-535v1892z" />
    <glyph glyph-name="backslash" unicode="\" horiz-adv-x="797" 
d="M8 1470h148l690 -1660h-148z" />
    <glyph glyph-name="bracketright" unicode="]" horiz-adv-x="868" 
d="M596 -422h-537v141h256v1608h-256v143h537v-1892z" />
    <glyph glyph-name="asciicircum" unicode="^" horiz-adv-x="2048" 
d="M893 1462h260l479 -565h-121l-489 348l-490 -348h-120z" />
    <glyph glyph-name="underscore" unicode="_" horiz-adv-x="1024" 
d="M0 -244h1024v-239h-1024v239z" />
    <glyph glyph-name="grave" unicode="`" horiz-adv-x="1024" 
d="M725 1094h-115l-325 161q-105 52 -105 121q0 47 32 78t79 31q64 0 155 -96z" />
    <glyph glyph-name="a" unicode="a" 
d="M639 428q0 39 -25 39q-88 0 -159 -47q-80 -53 -80 -137q0 -56 34 -93.5t89 -37.5q62 0 101.5 43t39.5 106v127zM639 594v33q0 104 -44 152t-146 48q-74 0 -92 -11q-27 -17 -35 -52q-9 -39 -22 -50q-25 -22 -101 -22q-56 0 -56 37q0 -1 4 20l39 207q174 27 330 27
q216 0 315 -58q130 -76 130 -274v-311q0 -143 126 -166v-29q-117 -176 -202 -176q-116 0 -199 166q-138 -166 -340 -166q-127 0 -210 66q-91 72 -91 196q0 141 126.5 221t467.5 142z" />
    <glyph glyph-name="b" unicode="b" horiz-adv-x="1251" 
d="M455 465v-117q0 -242 157 -242q211 0 211 332q0 285 -186 285q-182 0 -182 -258zM12 1303q0 53 51 73l381 146q21 8 33 8q21 0 36 -31q13 -27 13 -51q0 -20 -28.5 -49.5t-28.5 -63.5v-571q125 219 348 219q180 0 277 -139q86 -121 86 -309q0 -265 -178 -419
q-170 -147 -439 -147q-246 0 -399 127q-16 13 -21.5 24t-5.5 64v994q0 32 -8 43t-53.5 17t-55.5 18q-8 8 -8 47z" />
    <glyph glyph-name="c" unicode="c" horiz-adv-x="1034" 
d="M682 201q70 0 163.5 48t90.5 48q19 0 37 -19t18 -38q0 -34 -69 -97q-190 -174 -410 -174q-209 0 -332 135q-119 131 -119 342q0 242 158 391q155 146 399 146q117 0 206 -33q126 -47 126 -143q0 -53 -30 -88t-82 -35q-61 0 -143.5 81t-131.5 81q-160 0 -160 -277
q0 -151 62 -250q74 -118 217 -118z" />
    <glyph glyph-name="d" unicode="d" horiz-adv-x="1292" 
d="M797 297v451q-65 67 -135 67q-117 0 -180 -112q-52 -92 -52 -218q0 -264 191 -264q86 0 176 76zM1128 297q0 -53 35 -53q8 0 24 5t25 5q17 0 35 -35q17 -31 17 -51q0 -16 -13 -21l-392 -165q-13 -15 -28 -15q-25 0 -45 20.5t-20 45.5q0 3 15.5 30t15.5 48v65
q-188 -207 -361 -207q-175 0 -280 139q-95 126 -95 306q0 230 135 394q144 175 369 175q147 0 232 -109v304q0 53 -47 59q-62 7 -71 19q-7 9 -7 47q0 54 50 73l382 146q21 8 33 8q20 0 35 -32q12 -26 12 -50q0 -20 -28 -49.5t-28 -63.5v-1038z" />
    <glyph glyph-name="e" unicode="e" horiz-adv-x="1102" 
d="M723 682q0 170 -139 170q-185 0 -185 -289l292 68q32 7 32 51zM1040 596l-634 -143q12 -123 89 -193t201 -70q79 0 152 32q68 36 137 73q18 0 36.5 -17.5t18.5 -35.5q0 -28 -63 -88q-194 -185 -422 -185q-225 0 -357 120q-137 125 -137 347q0 237 144 390
q147 157 383 157q202 0 320 -91q130 -100 132 -296z" />
    <glyph glyph-name="f" unicode="f" horiz-adv-x="825" 
d="M522 928q37 -8 244 -8q41 0 41 -37q0 -121 -76 -121h-209v-510q0 -73 42 -97q23 -13 85 -16q53 -2 66 -19q8 -12 8 -63q0 -45 -10 -55t-54 -10q-50 0 -149.5 14t-149.5 14q-62 0 -148.5 -14t-107.5 -14q-39 0 -49 16q-6 11 -6 55q0 57 31 70q29 8 59 17q31 20 31 92v512
l-86 12q-29 4 -29 49q0 41 44 66l75 43q-2 30 -2 86q0 259 109 386q116 136 370 136q277 0 277 -166q0 -106 -115 -106q-69 0 -134 69.5t-95 69.5q-62 0 -62 -121v-350z" />
    <glyph glyph-name="g" unicode="g" horiz-adv-x="1188" 
d="M360 -107q-94 -50 -94 -141q0 -88 76 -134q63 -38 156 -38q111 0 201 43q114 55 114 154q0 91 -229 102q-75 3 -224 14zM408 645q0 -203 151 -203q77 0 117 66q33 55 33 137q0 83 -33 137q-39 66 -117 66t-118 -65q-33 -55 -33 -138zM889 907q103 41 266 41v-164
q-34 2 -61 2q-13 0 -96 -10q32 -64 32 -135q0 -169 -154 -254q-123 -68 -307 -68q-51 0 -141 9q-78 -48 -78 -86q0 -37 44 -55q40 -17 153 -17q202 0 249 -3q169 -11 241 -56q96 -60 96 -201q0 -205 -191 -331t-506 -126q-426 0 -426 238q0 173 258 233q-180 23 -180 168
q0 98 111 176l120 84q-106 24 -169.5 98t-63.5 181q0 180 157 274q130 78 322 78q168 0 324 -76z" />
    <glyph glyph-name="h" unicode="h" horiz-adv-x="1305" 
d="M498 791q174 192 352 192q162 0 232 -105q71 -109 73 -378l2 -234q0 -33 9 -89q11 -26 55 -33.5t51.5 -20.5t7.5 -57q0 -48 -6 -58q-9 -16 -51 -16q-17 0 -88.5 16.5t-124.5 16.5q-66 0 -151 -16.5t-101 -16.5q-40 0 -49 16q-7 11 -7 55q0 43 7 55q8 17 38 21q34 5 46 17
q22 23 22 88v270q0 225 -164 225q-76 0 -153 -69v-424q0 -58 9 -72q10 -17 62 -31q34 -9 41 -25q4 -8 4 -52q0 -48 -5 -57q-9 -17 -50 -17q-11 0 -86 15.5t-137 15.5q-40 0 -119 -15.5t-119 -15.5q-39 0 -49 16q-6 11 -6 55q0 43 6 55q9 18 41 22q39 5 51 14q25 19 25 77
v947q0 54 -47 59q-62 7 -71 19q-7 9 -7 47q0 53 51 73l381 146q21 8 33 8q21 0 36 -31q13 -27 13 -51q0 -20 -28.5 -49.5t-28.5 -63.5v-544z" />
    <glyph glyph-name="i" unicode="i" horiz-adv-x="694" 
d="M530 241q0 -45 5 -58q9 -24 43 -33q27 -5 62 -25q7 -12 7 -59q0 -48 -5 -57q-9 -17 -50 -17q-11 0 -86.5 15.5t-136.5 15.5t-148 -15.5t-108 -15.5q-40 0 -49 16q-7 11 -7 55q0 43 6 55q8 17 40 22q39 5 52 14q25 18 25 71v461l-86 19q-35 8 -35 57q0 70 51 90l371 143
q23 9 37 9q37 0 37 -56q0 -47 -23 -92q0 -4 -1 -11.5t-1 -10.5v-593zM360 1532q85 0 144 -59.5t59 -145.5q0 -85 -59 -144t-144 -59q-82 0 -143 60.5t-61 142.5q0 85 59.5 145t144.5 60z" />
    <glyph glyph-name="j" unicode="j" horiz-adv-x="643" 
d="M29 -547q-49 0 -49 90q0 23 62 44q72 25 97 78t25 179v842l-86 19q-37 8 -37 57q0 69 53 90l374 151q17 7 26 7q22 0 39 -34q14 -28 14 -54q0 -16 -27.5 -49.5t-27.5 -79.5v-762q0 -186 -6 -237q-16 -147 -83 -214q-46 -46 -164 -86.5t-210 -40.5zM319 1532
q86 0 145.5 -59.5t59.5 -145.5q0 -84 -60 -143.5t-145 -59.5q-82 0 -142 60.5t-60 142.5q0 84 59 144.5t143 60.5z" />
    <glyph glyph-name="k" unicode="k" horiz-adv-x="1298" 
d="M807 580l287 -330q94 -108 190 -125v-39q-84 -117 -250 -117q-130 0 -209 97l-323 397l452 504q30 34 84 34q55 0 98.5 -46.5t43.5 -102.5q0 -43 -100 -103q-72 -40 -144 -81zM502 240q0 -55 10.5 -69t62.5 -28q15 -4 37 -17q6 -10 6 -60q0 -48 -5 -57q-9 -17 -50 -17
q-15 0 -86.5 15.5t-126.5 15.5q-44 0 -127.5 -15.5t-120.5 -15.5q-39 0 -49 16q-6 11 -6 55q0 61 44 75q60 18 69.5 31.5t9.5 61.5v947q0 43 -23 53q-2 1 -67 12q-33 6 -33 60t49 73l383 146q21 8 33 8q21 0 35 -32q12 -26 12 -50q0 -20 -28.5 -49.5t-28.5 -63.5v-1095z" />
    <glyph glyph-name="l" unicode="l" horiz-adv-x="682" 
d="M516 241q0 -58 24 -79q14 -12 51 -18q32 -5 40 -17.5t8 -60.5q0 -47 -6 -57q-10 -17 -51 -17q-17 0 -94.5 15.5t-137.5 15.5q-58 0 -143.5 -15.5t-108.5 -15.5q-39 0 -49 16q-6 11 -6 55q0 43 6 55q8 17 41 22q39 5 51 14q25 18 25 71v958q0 38 -27 49q-1 0 -63 11
q-35 6 -35 60t51 73l402 146q22 8 30 8q21 0 36 -31q13 -27 13 -51q0 -20 -28.5 -49.5t-28.5 -63.5v-1094z" />
    <glyph glyph-name="m" unicode="m" horiz-adv-x="1931" 
d="M45 762q0 69 51 90l348 143q22 9 37 9q37 0 37 -56q0 -51 -19 -85q-3 -6 -4 -11t-1 -61q177 192 344 192q217 0 278 -205q198 205 365 205q159 0 227.5 -106t73.5 -378l4 -235q0 -33 9 -89q11 -27 54.5 -34t50.5 -20.5t7 -57.5q0 -47 -6 -57q-10 -16 -52 -16
q-17 0 -87 16.5t-120 16.5q-62 0 -145.5 -16.5t-101.5 -16.5q-40 0 -50 16q-6 11 -6 55q0 43 7 55q9 18 40.5 21.5t43.5 15.5q22 22 22 89v276q0 223 -160 223q-82 0 -155 -69l6 -406q1 -68 11 -91t54 -31.5t51 -21.5t7 -61q0 -43 -6 -53q-10 -16 -52 -16q-17 0 -87 16.5
t-120 16.5q-62 0 -145.5 -16.5t-101.5 -16.5q-40 0 -50 16q-6 11 -6 55q0 43 6 55q8 17 39.5 21t43.5 16q22 22 22 89v276q0 223 -158 223q-78 0 -153 -67v-430q0 -48 4 -60q8 -27 43 -36q27 -5 62 -25q7 -11 7 -59t-5 -57q-9 -17 -50 -17q-13 0 -86.5 15.5t-132.5 15.5
q-42 0 -122.5 -15.5t-119.5 -15.5q-40 0 -49 16q-6 11 -6 55q0 43 6 55q9 18 41 22q39 5 51 14q25 19 25 77v455l-86 19q-35 8 -35 57z" />
    <glyph glyph-name="n" unicode="n" horiz-adv-x="1311" 
d="M45 762q0 70 51 90l356 143q22 9 40 9q34 0 34 -56q0 -23 -21 -95q-3 -10 -3 -62q174 192 352 192q162 0 232 -105q71 -109 73 -378l2 -234q0 -32 10 -88q12 -27 55 -34.5t50.5 -20.5t7.5 -57q0 -48 -6 -58q-9 -16 -51 -16q-17 0 -87.5 16.5t-123.5 16.5
q-66 0 -152 -16.5t-102 -16.5q-39 0 -49 16q-6 11 -6 55q0 43 6 55q9 18 38 21q34 3 46 15q22 23 22 90v270q0 225 -160 225q-72 0 -151 -69v-424q0 -59 8 -72q11 -18 64 -31q34 -9 41 -25q4 -9 4 -52q0 -47 -6 -58q-10 -16 -52 -16q-11 0 -85 15.5t-136 15.5
q-44 0 -127.5 -15.5t-120.5 -15.5q-39 0 -49 16q-6 11 -6 55q0 43 6 55q9 18 41 22q39 5 51 14q25 19 25 77v455l-86 19q-35 8 -35 57z" />
    <glyph glyph-name="o" unicode="o" horiz-adv-x="1233" 
d="M807 479q0 346 -191 346q-188 0 -188 -346t188 -346q191 0 191 346zM616 983q243 0 394 -128q161 -137 161 -376t-160 -379q-152 -133 -395 -133q-242 0 -395 133q-160 140 -160 379t161 375q151 129 394 129z" />
    <glyph glyph-name="p" unicode="p" horiz-adv-x="1288" 
d="M498 662v-367q0 -141 143 -141q112 0 171 115q46 90 46 214q0 106 -41 173q-50 81 -149 81q-95 0 -170 -75zM494 788q162 195 352 195q187 0 289 -137q92 -122 92 -316q0 -229 -137 -390q-144 -171 -369 -171q-79 0 -221 78v-268q0 -48 9 -60q12 -15 58.5 -18t57.5 -17
q8 -10 8 -59q0 -57 -39 -67l-402 -101q-16 -4 -30 -4q-18 0 -37 39q-16 35 -16 57q0 12 28.5 32.5t28.5 84.5v1032l-87 17q-32 6 -32 51q0 66 49 86q370 152 377 152q35 0 35 -58q0 -22 -7 -61t-7 -51v-46z" />
    <glyph glyph-name="q" unicode="q" horiz-adv-x="1292" 
d="M797 748q-65 67 -135 67q-117 0 -180 -112q-52 -92 -52 -218q0 -264 191 -264q86 0 176 76v451zM1251 -369q0 -63 -50 -75l-380 -95q-24 -6 -33 -6q-22 0 -37 33q-12 27 -12 53q0 16 29 45.5t29 63.5v526q-189 -207 -351 -207q-182 0 -288 135q-97 123 -97 310
q0 230 135 394q144 175 369 175q149 0 236 -113l-2 134h26q92 -79 322 -87q90 -3 90 -55q0 -46 -7 -58q-8 -15 -61 -20q-43 -5 -43 -63v-967q0 -29 8 -39.5t55 -19.5t54.5 -18t7.5 -46z" />
    <glyph glyph-name="r" unicode="r" horiz-adv-x="948" 
d="M918 975l-1 -258q-78 6 -126 6q-122 0 -202.5 -44.5t-80.5 -96.5v-326q0 -78 27 -93q6 -3 114 -20q34 -5 42 -24q3 -9 3 -53q0 -45 -5 -55q-8 -19 -46 -19q-49 0 -148 15.5t-149 15.5q-57 0 -141.5 -15.5t-106.5 -15.5q-39 0 -49 16q-6 11 -6 55q0 43 6 55q9 18 41 22
q39 5 51 14q25 19 25 77v455l-86 19q-35 8 -35 57q0 69 51 90l363 152h47l-10 -263q137 242 342 242q17 0 80 -8z" />
    <glyph glyph-name="s" unicode="s" horiz-adv-x="1032" 
d="M455 125q188 0 188 108q0 73 -183 111t-249 80q-111 69 -111 221q0 182 149 268q120 70 316 70q41 0 162 -6q139 -7 147 -13.5t19 -207.5q0 -3 1 -9.5t1 -9.5q0 -30 -27 -37q-9 -2 -53 -2q-54 0 -68 21q-3 3 -24 76q-13 45 -154 45q-166 0 -166 -103q0 -64 181 -106
q190 -44 255 -86q113 -72 113 -226q0 -186 -154 -277q-124 -73 -325 -73q-54 0 -175 11q-139 12 -152 25q-8 6 -23 220q-2 28 -2 21q0 39 78 39q48 0 59 -7t16 -32l9 -41q12 -55 67 -71q29 -9 105 -9z" />
    <glyph glyph-name="t" unicode="t" horiz-adv-x="842" 
d="M774 883q0 -120 -76 -121l-157 -2q-34 0 -43 -12.5t-9 -45.5v-385q0 -161 119 -161q36 0 81 21.5t48 21.5q18 0 34.5 -21.5t16.5 -40.5q0 -45 -110 -106.5t-236 -61.5q-166 0 -236 100q-59 84 -59 259v422l-88 10q-28 3 -28 47q0 31 6.5 41t32.5 20q122 46 169 113
q41 59 63 196q9 60 106 60q43 0 54 -3q27 -8 27 -40v-223q0 -29 9.5 -40t31.5 -11h203q41 0 41 -37z" />
    <glyph glyph-name="u" unicode="u" horiz-adv-x="1298" 
d="M23 772q0 58 51 76l356 129q8 8 16 8q66 0 66 -76q0 -9 -12.5 -42t-12.5 -58v-373q0 -223 152 -223q71 0 143 68v383q0 40 -24 51l-64 14t-32 51q0 81 81 94q118 19 269 69q59 20 121 40q47 0 47 -68q0 -20 -28 -50t-28 -64v-504q0 -53 35 -53q8 0 24 5t25 5q17 0 35 -35
q17 -31 17 -51q0 -15 -12 -20l-398 -166q-13 -15 -27 -15q-26 0 -45.5 20t-19.5 46q0 3 14 30.5t14 47.5v67q-171 -209 -342 -209q-297 0 -297 412v268q0 30 -7 40t-83 26q-25 5 -31 18q-3 8 -3 39z" />
    <glyph glyph-name="v" unicode="v" horiz-adv-x="1221" 
d="M514 831q-37 0 -37 -30q0 -22 8 -37l222 -418l186 393q12 25 12 39q0 33 -65 43l-88 13q-9 29 -15 47q0 22 9 50q11 36 28 36q15 0 95 -14.5t155 -14.5q24 0 70.5 14.5t70.5 14.5q43 0 43 -84q0 -42 -6 -52t-57 -22t-76 -61l-360 -719q-22 -44 -44 -54q-15 -6 -71 -6
q-58 0 -82 45l-387 731q-26 50 -70.5 61t-49.5 20t-5 55q0 52 6 64q11 22 55 22q11 0 71.5 -14.5t123.5 -14.5q57 0 151 14.5t117 14.5q25 0 40 -37q11 -28 11 -58q-11 -4 -24 -26z" />
    <glyph glyph-name="w" unicode="w" horiz-adv-x="1901" 
d="M471 780q0 -14 14 -41l197 -379q162 399 162 406q0 27 -66.5 49t-66.5 64q0 49 2 57q6 31 37 31q21 0 56 -11q39 -13 56 -14q115 -10 113 -10q78 0 176 17.5t111 17.5q41 0 41 -90q0 -26 -6 -32.5t-58 -26.5q-41 -16 -41 -46q0 -9 184 -424l166 369q13 29 13 45
q0 39 -82 65q-41 13 -41 72q0 68 41 68q12 0 75.5 -11.5t110.5 -11.5q33 0 92.5 11.5t81.5 11.5q31 0 38 -31q3 -11 3 -57q0 -29 -42 -52q-59 -31 -69 -41q-23 -25 -47 -75l-333 -697q-12 -24 -31 -34.5t-70 -10.5q-47 0 -65 9q-21 12 -39 51l-246 549l-229 -549
q-17 -42 -46 -53q-18 -7 -73 -7q-62 0 -86 45l-381 721q-28 53 -71.5 65t-47.5 20t-4 52q0 45 9.5 56.5t51.5 11.5q33 0 99 -9t100 -9q70 0 161 22.5t105 22.5q31 0 37 -30q2 -8 2 -56q0 -35 -47 -55.5t-47 -45.5z" />
    <glyph glyph-name="x" unicode="x" horiz-adv-x="1266" 
d="M45 895q0 43 5 53q9 19 46 19q45 0 134.5 -11.5t134.5 -11.5q69 0 153 11.5t94 11.5q37 0 37 -62q0 -22 -4.5 -29t-36.5 -19q-26 -10 -26 -30q0 -14 14 -32l133 -172l100 127q25 32 25 59q0 28 -43 45t-43 29q0 84 55 84q27 0 80 -9.5t80 -9.5q32 0 95.5 9.5t95.5 9.5
q34 0 34 -60q0 -24 -6.5 -33t-43 -15.5t-107.5 -90.5l-226 -268l269 -316q15 -17 47 -46q38 -11 86 -34q6 -8 6 -34q0 -40 -4 -50q-7 -22 -39 -22q-15 0 -100.5 14.5t-153.5 14.5q-61 0 -147.5 -16.5t-108.5 -16.5q-57 0 -57 90q0 12 34.5 25t34.5 34q0 19 -14 37l-129 168
l-121 -149q-16 -20 -16 -41q0 -25 31 -36q40 -14 45.5 -21t5.5 -33q0 -70 -37 -70q-28 0 -84 9t-84 9q-51 0 -116 -11t-77 -11q-57 0 -57 90q0 16 71 34q47 12 80 50l261 303l-275 315q-24 28 -43 41q-6 4 -61 22q-27 9 -27 46z" />
    <glyph glyph-name="y" unicode="y" horiz-adv-x="1280" 
d="M2 872q0 52 2 61q7 34 39 34q8 0 83 -17.5t140 -17.5q76 0 178 17.5t117 17.5q24 0 31.5 -14.5t7.5 -94.5q0 -29 -45 -39t-45 -39q0 -10 238 -446l178 365q14 29 14 44q0 39 -50 59l-1 1q-46 15 -101 42q-6 7 -6 34q0 46 3 57q7 31 38 31q12 0 74 -11.5t109 -11.5
q63 0 138.5 11.5t82.5 11.5q30 0 37 -31q2 -9 2 -57q0 -27 -4 -33.5t-39 -20.5q-42 -17 -66 -43q-9 -10 -45 -65q-66 -100 -142 -254q-64 -131 -127 -262q-73 -150 -233 -439q-93 -149 -187 -219q-115 -86 -269 -86q-88 0 -97 66q-16 121 -16 131q0 18 68 18
q189 0 271.5 64.5t176.5 253.5l-403 739q-16 29 -38 51q-15 14 -74 41q-40 18 -40 51z" />
    <glyph glyph-name="z" unicode="z" horiz-adv-x="1126" 
d="M629 803h-219q-99 0 -136.5 -61.5t-97.5 -61.5q-74 0 -74 25q0 8 5 33l49 241q68 -14 188 -14q59 0 176 1t176 1q56 0 167.5 5t166.5 5q41 0 41 -74q0 -36 -12 -51l-553 -688h224q102 0 131 10.5t55 63.5q22 43 98 43q59 0 59 -39q0 -11 -2 -21l-45 -231q-118 10 -295 10
h-283q-57 0 -170 -3t-169 -3q-50 0 -50 96q0 17 13 33z" />
    <glyph glyph-name="braceleft" unicode="{" horiz-adv-x="1024" 
d="M852 1516v-66q-110 -3 -151.5 -53.5t-41.5 -208.5v-131q0 -228 -51 -309t-184 -113q133 -33 184 -113t51 -307v-131q0 -159 41.5 -210t151.5 -55v-63h-12q-203 0 -291 56q-79 52 -99 175q-10 65 -10 302q0 168 -54.5 230t-207.5 77v80q153 14 207.5 76.5t54.5 250.5v63
q-1 43 -1 64q0 237 87 312q84 74 326 74z" />
    <glyph glyph-name="bar" unicode="|" horiz-adv-x="1024" 
d="M393 1565h240v-2048h-240v2048z" />
    <glyph glyph-name="braceright" unicode="}" horiz-adv-x="1024" 
d="M172 1516h12q203 0 291 -56q79 -52 99 -175q10 -65 10 -302q0 -168 54.5 -230.5t207.5 -76.5v-80q-153 -15 -207.5 -77t-54.5 -249v-64q1 -43 1 -65q0 -236 -85.5 -310.5t-327.5 -74.5v63q110 4 151.5 55t41.5 210v131q0 227 51 307t184 113q-133 34 -184 114.5
t-51 307.5v131q0 158 -41.5 208.5t-151.5 53.5v66z" />
    <glyph glyph-name="asciitilde" unicode="~" horiz-adv-x="1706" 
d="M1530 819v-254q-201 -137 -377 -137q-89 0 -210 42q-257 89 -382 89q-162 0 -383 -158v254q221 144 387 144q130 0 347 -75q162 -56 247 -56q165 0 371 151z" />
    <glyph glyph-name="euro" horiz-adv-x="1270" 
d="M78 643h121q0 13 -1 41.5t-1 42.5q0 54 5 129h-134l26 90h119q90 543 580 543q76 0 204 -17q149 -21 203 -24q0 -111 7 -195.5t7 -97.5q0 -68 -86 -68q-52 0 -69 41q0 2 -17 87q-14 70 -73 94q-39 16 -125 16q-142 0 -207 -126q-44 -86 -59 -253h409l-26 -90h-387
q-5 -73 -5 -125q0 -15 1 -44.5t1 -43.5h357l-27 -90h-326q34 -416 285 -416q97 0 151 52q34 33 60 102q24 64 39 74q19 12 88 12q53 0 53 -41q0 -9 -16 -115q-17 -110 -29 -202q-4 0 -200 -29q-121 -17 -201 -17q-263 0 -419 161q-144 150 -179 419h-156z" />
    <glyph glyph-name="nonbreakingspace" unicode="&#xa0;" horiz-adv-x="1270" 
 />
    <glyph glyph-name="exclamdown" unicode="&#xa1;" horiz-adv-x="696" 
d="M528 178q0 -88 -52 -146q-55 -59 -142 -59q-93 0 -145 58q-50 55 -50 149q0 44 10 100l121 676l103 56l139 -695q16 -80 16 -139zM330 1141q-74 0 -124 49t-50 123q0 73 51 123.5t123 50.5q73 0 124.5 -51t51.5 -123t-52 -122t-124 -50z" />
    <glyph glyph-name="cent" unicode="&#xa2;" horiz-adv-x="1270" 
d="M690 825q-60 23 -86 23q-164 0 -164 -279q0 -162 72 -262zM743 979l54 160h121l-62 -181q156 -41 156 -151q0 -53 -31 -88t-84 -35q-66 0 -115 55l-178 -514q60 -24 125 -24q74 0 140 29q63 34 126 67q20 0 38 -18.5t18 -38.5q0 -32 -70 -97q-179 -166 -399 -166
q-16 0 -64 3l-57 -170h-121l66 194q-283 103 -283 442q0 241 157 390q154 147 396 147q31 0 67 -4z" />
    <glyph glyph-name="sterling" unicode="&#xa3;" horiz-adv-x="1270" 
d="M319 668h-182q-31 0 -31 47q0 6 1.5 18.5t1.5 18.5q0 3 -1.5 8t-1.5 8q0 47 31 47h131q-80 154 -80 264q0 190 154 297q135 94 334 94q77 0 223 -9q152 -10 223 -11l17 -262l2 -31q0 -40 -33 -50q-15 -5 -68 -5q-39 0 -54.5 9t-29.5 67q-15 63 -43 92q-45 47 -143 47
q-106 0 -168 -54q-65 -56 -65 -161q0 -50 35 -144q27 -71 55 -143h280q21 0 30 -5.5t9 -31.5q0 -110 -74 -110h-219q9 -69 9 -93q0 -185 -156 -331q124 12 186 12q30 0 89 -2t89 -2q108 0 138 65l47 101q18 39 69 39q111 0 111 -39q0 -10 -53 -154t-95 -284q-229 40 -550 40
q-93 0 -201 -6q-49 -41 -105 -41q-116 0 -116 105q0 114 204 155q56 97 56 209q0 95 -56 226z" />
    <glyph glyph-name="currency" unicode="&#xa4;" horiz-adv-x="1270" 
d="M78 643h121q0 13 -1 41.5t-1 42.5q0 54 5 129h-134l26 90h119q90 543 580 543q76 0 204 -17q149 -21 203 -24q0 -111 7 -195.5t7 -97.5q0 -68 -86 -68q-52 0 -69 41q0 2 -17 87q-14 70 -73 94q-39 16 -125 16q-142 0 -207 -126q-44 -86 -59 -253h409l-26 -90h-387
q-5 -73 -5 -125q0 -15 1 -44.5t1 -43.5h357l-27 -90h-326q34 -416 285 -416q97 0 151 52q34 33 60 102q24 64 39 74q19 12 88 12q53 0 53 -41q0 -9 -16 -115q-17 -110 -29 -202q-4 0 -200 -29q-121 -17 -201 -17q-263 0 -419 161q-144 150 -179 419h-156z" />
    <glyph glyph-name="yen" unicode="&#xa5;" horiz-adv-x="1278" 
d="M778 1382q0 38 6 48q9 16 43 16t101.5 -11.5t101.5 -11.5q38 0 112 11.5t111 11.5q36 0 45 -17q5 -10 5 -51q0 -64 -39 -71q-68 -12 -95 -36t-53 -73l-125 -237h230v-91h-277l-115 -213h392v-90h-428v-315q0 -70 35 -94q21 -14 72 -17q45 -3 55 -17t10 -61q0 -44 -7 -55
q-9 -16 -49 -16q-45 0 -134 16.5t-134 16.5q-48 0 -142.5 -16.5t-142.5 -16.5q-39 0 -49 17q-6 10 -6 54q0 46 9 59q11 18 57 20q51 3 70 16q34 25 34 100v309h-414v90h369l-113 213h-256v91h207l-143 270q-15 27 -32 41q-11 9 -59 23q-43 12 -49 23t-6 54q0 46 6 57
q10 17 50 17q23 0 113.5 -15.5t158.5 -15.5q65 0 157 15.5t115 15.5q40 0 50 -15q6 -10 6 -55q0 -41 -9 -53.5t-57 -20.5q-41 -6 -41 -32q0 -10 11 -36l192 -454l195 435q10 22 10 38q0 33 -42 44q-33 5 -66.5 10t-41.5 24q-4 11 -4 51z" />
    <glyph glyph-name="brokenbar" unicode="&#xa6;" horiz-adv-x="1024" 
d="M393 408h240v-758h-240v758zM393 1432h240v-758h-240v758z" />
    <glyph glyph-name="section" unicode="&#xa7;" horiz-adv-x="1214" 
d="M479 1270q-137 -164 -137 -359q0 -121 85 -290q24 -49 154 -266q216 -361 216 -494q0 -69 -33 -148l6 -8q131 151 131 354q0 139 -116 351q-108 181 -216 363q-116 206 -116 333q0 77 34 158zM1085 141q0 -278 -209 -475q-205 -194 -485 -194q-205 0 -205 147
q0 54 33.5 89.5t87.5 35.5q47 0 137.5 -59.5t126.5 -59.5q88 0 88 129q0 113 -179 388q-159 244 -206 335q-112 213 -112 367q0 122 60 248q86 183 258 290t376 107q209 0 209 -139q0 -55 -36 -91t-91 -36q-45 0 -128.5 57t-125.5 57q-90 0 -90 -118q0 -151 229 -486
q262 -383 262 -592z" />
    <glyph glyph-name="dieresis" unicode="&#xa8;" horiz-adv-x="1024" 
d="M707 1421q59 0 101 -41t42 -100q0 -62 -40.5 -103.5t-102.5 -41.5q-61 0 -102.5 42t-41.5 103q0 57 43 99t101 42zM317 1421q60 0 101 -40.5t41 -100.5q0 -63 -39.5 -104t-102.5 -41q-61 0 -103 42t-42 103q0 57 44 99t101 42z" />
    <glyph glyph-name="copyright" unicode="&#xa9;" horiz-adv-x="1683" 
d="M1128 1104h50v-330h-52q-61 273 -262 273q-223 0 -223 -363q0 -375 238 -375q153 0 268 176l51 -32q-129 -217 -350 -217q-190 0 -316 119q-129 121 -129 309q0 193 121 318.5t314 125.5q63 0 122 -20q58 -23 115 -46q39 -1 53 62zM844 1311q-261 0 -446 -186t-185 -447
q0 -263 183 -447t446 -184q259 0 443.5 185.5t184.5 445.5t-183 446.5t-443 186.5zM844 1423q306 0 523.5 -219.5t217.5 -525.5t-218.5 -523.5t-524.5 -217.5q-307 0 -525.5 217t-218.5 524q0 308 219 526.5t527 218.5z" />
    <glyph glyph-name="ordfeminine" unicode="&#xaa;" horiz-adv-x="831" 
d="M479 1092q0 28 -18 28q-64 0 -117 -32q-63 -37 -63 -97q0 -40 26 -66t66 -26q46 0 76 29.5t30 75.5v88zM479 1208v23q0 141 -143 141q-83 0 -94 -47t-92 -47q-41 0 -41 25q0 8 30 159q146 19 248 19q158 0 231 -38q103 -53 103 -194v-219q0 -100 94 -115v-20
q-86 -123 -151 -123q-87 0 -150 115q-103 -115 -254 -115q-93 0 -155 43q-70 50 -70 139q0 99 94.5 155t349.5 99z" />
    <glyph glyph-name="guillemotleft" unicode="&#xab;" horiz-adv-x="999" 
d="M467 477l250 361h215l-242 -359l248 -360h-225zM61 477l250 361h215l-239 -359l248 -360h-228z" />
    <glyph glyph-name="logicalnot" unicode="&#xac;" horiz-adv-x="1706" 
d="M254 866h1198v-501h-229v274h-969v227z" />
    <glyph glyph-name="sfthyphen" unicode="&#xad;" horiz-adv-x="780" 
d="M719 647v-307h-658v307h658z" />
    <glyph glyph-name="registered" unicode="&#xae;" horiz-adv-x="1683" 
d="M772 728q12 -3 39 -3q170 0 170 174q0 62 -38 103.5t-99 41.5q-72 0 -72 -63v-253zM463 1100h405q120 0 209 -41q117 -54 117 -160q0 -164 -276 -211q229 -45 229 -260q0 -88 43 -88q53 0 53 131h55q0 -5 1 -14.5t1 -14.5q0 -180 -188 -180q-94 0 -134 48q-32 41 -37 135
q-7 140 -52 190q-35 37 -117 37v-244q0 -47 21 -66q18 -17 67 -24v-57h-397v57q53 5 73 21q25 19 25 69v524q0 51 -25 70q-19 15 -73 22v56zM844 1311q-263 0 -447 -185t-184 -448t183 -447t446 -184q259 0 443.5 185.5t184.5 445.5q0 258 -184 445.5t-442 187.5zM844 1423
q316 0 530 -223q211 -220 211 -538q0 -141 -63 -280q-92 -204 -274 -325q-185 -123 -406 -123q-309 0 -526.5 218t-217.5 526t219 526.5t527 218.5z" />
    <glyph glyph-name="macron" unicode="&#xaf;" horiz-adv-x="1024" 
d="M819 1362v-168h-614v168h614z" />
    <glyph glyph-name="macron" unicode="&#x2c9;" horiz-adv-x="1024" 
d="M819 1362v-168h-614v168h614z" />
    <glyph glyph-name="degree" unicode="&#xb0;" horiz-adv-x="674" 
d="M338 1321q-69 0 -117.5 -47.5t-48.5 -116.5q0 -70 48 -118t118 -48q68 0 116 48.5t48 117.5q0 68 -48 116t-116 48zM338 1466q130 0 220.5 -90.5t90.5 -220.5t-91.5 -220.5t-221.5 -90.5t-219.5 90.5t-89.5 220.5q0 131 90 221t221 90z" />
    <glyph glyph-name="plusminus" unicode="&#xb1;" horiz-adv-x="1706" 
d="M254 213h1198v-231h-1198v231zM735 1241h238v-319h479v-232h-479v-319h-238v319h-481v232h481v319z" />
    <glyph glyph-name="twosuperior" unicode="&#xb2;" horiz-adv-x="838" 
d="M264 735h289q66 0 98 27q17 13 34 50q14 29 32 32q13 2 22 2q39 0 39 -15q0 -5 -13 -36q-51 -123 -75 -232q-111 15 -192 15h-301q-115 0 -156 -5v74q126 98 181 145q101 85 165 163q94 112 94 208q0 68 -46.5 106t-115.5 38q-131 0 -169 -126q-9 -30 -41 -30
q-37 0 -37 33q0 135 106 210q94 66 234 66q131 0 214 -57q95 -66 95 -191q0 -113 -98.5 -218.5t-358.5 -258.5z" />
    <glyph glyph-name="threesuperior" unicode="&#xb3;" horiz-adv-x="838" 
d="M229 1085q52 -14 103 -14q71 0 121 26q63 32 63 97q0 119 -172 119q-149 0 -183 -100q-9 -25 -42 -25q-37 0 -37 26q0 118 110 187q95 59 220 59q121 0 202 -46q101 -57 101 -169q0 -149 -166 -192q207 -45 207 -213q0 -140 -141 -216q-115 -61 -267 -61q-116 0 -198 37
q-109 50 -109 152q0 71 82 71q52 0 69 -43.5t32 -85.5q29 -45 108 -45t128 38q54 43 54 120q0 147 -199 147q-55 0 -135 -16z" />
    <glyph glyph-name="acute" unicode="&#xb4;" horiz-adv-x="1024" 
d="M414 1094h-115l279 295q91 96 155 96q47 0 79 -31t32 -78q0 -69 -105 -121z" />
    <glyph glyph-name="mu" unicode="&#xb5;" horiz-adv-x="1233" 
d="M219 190q-6 -43 -27 -239q-41 -377 -163 -377q-56 0 -91.5 33.5t-35.5 89.5q0 55 68.5 280t105.5 398l108 510h293l-106 -498q-21 -99 -21 -125q0 -119 103 -119q124 0 172 226l110 516h291l-111 -525q-12 -57 -12 -92q0 -92 74 -92q60 0 107 78t73 78q29 0 29 -39
q0 -30 -21 -87q-83 -226 -274 -226q-175 0 -191 194q-72 -194 -249 -194q-209 0 -232 210z" />
    <glyph glyph-name="mu" unicode="&#x3bc;" horiz-adv-x="1233" 
d="M219 190q-6 -43 -27 -239q-41 -377 -163 -377q-56 0 -91.5 33.5t-35.5 89.5q0 55 68.5 280t105.5 398l108 510h293l-106 -498q-21 -99 -21 -125q0 -119 103 -119q124 0 172 226l110 516h291l-111 -525q-12 -57 -12 -92q0 -92 74 -92q60 0 107 78t73 78q29 0 29 -39
q0 -30 -21 -87q-83 -226 -274 -226q-175 0 -191 194q-72 -194 -249 -194q-209 0 -232 210z" />
    <glyph glyph-name="paragraph" unicode="&#xb6;" horiz-adv-x="1024" 
d="M997 1479v-123h-106v-1356h-176v1356h-150v-1356h-174v784q-159 6 -258 95q-104 95 -104 251q0 166 114 261q106 88 275 88h579z" />
    <glyph glyph-name="ch270" unicode="&#xb7;" horiz-adv-x="635" 
d="M317 915q74 0 124.5 -50.5t50.5 -123.5t-51 -123.5t-124 -50.5q-72 0 -123 51t-51 123t51 123t123 51z" />
    <glyph glyph-name="ch270" unicode="&#x2219;" horiz-adv-x="635" 
d="M317 915q74 0 124.5 -50.5t50.5 -123.5t-51 -123.5t-124 -50.5q-72 0 -123 51t-51 123t51 123t123 51z" />
    <glyph glyph-name="cedilla" unicode="&#xb8;" horiz-adv-x="1024" 
d="M555 0v-115q54 9 78 9q77 0 126.5 -48t49.5 -125q0 -94 -69 -144q-61 -44 -158 -44q-119 0 -332 90l47 101q127 -76 240 -76q84 0 84 76q0 81 -93 81q-26 0 -61 -8v203h88z" />
    <glyph glyph-name="onesuperior" unicode="&#xb9;" horiz-adv-x="838" 
d="M168 1155q-16 0 -33.5 20.5t-17.5 36.5q0 8 14 17l367 231l61 -30q-8 -61 -8 -127v-540q0 -87 51 -95q28 -4 57 -8q19 -8 19 -44q0 -27 -4 -34q-7 -9 -33 -9q-12 0 -82.5 9.5t-128.5 9.5q-35 0 -103 -9.5t-102 -9.5q-26 0 -33 10q-4 6 -4 33q0 43 33 47q59 7 63 9
q33 19 33 99v476q-143 -92 -149 -92z" />
    <glyph glyph-name="ordmasculine" unicode="&#xba;" horiz-adv-x="926" 
d="M606 1128q0 242 -143 242q-141 0 -141 -242q0 -241 141 -241q143 0 143 241zM463 1481q177 0 290 -86q126 -96 126 -267q0 -172 -125 -269q-114 -89 -291 -89t-291 89q-125 97 -125 269q0 171 126 267q113 86 290 86z" />
    <glyph glyph-name="guillemotright" unicode="&#xbb;" horiz-adv-x="999" 
d="M938 481l-250 -362h-215l240 358l-248 361h227zM532 481l-249 -362h-215l239 358l-248 361h228z" />
    <glyph glyph-name="onequarter" unicode="&#xbc;" horiz-adv-x="1942" 
d="M1561 293v260l-232 -260h232zM1747 0h-217q24 35 24 102v68h-358q-37 0 -37 66q0 13 10 24l508 557q12 6 19 6q14 0 45 -13.5t31 -23.5q0 -20 -4.5 -60.5t-4.5 -60.5v-366h131v-129h-131q0 -122 -16 -170zM602 -25h-143l882 1495h142zM160 1174q-16 0 -32.5 19t-16.5 36
q0 5 14 14l350 215l57 -26q-8 -77 -8 -132v-491q0 -58 14 -72.5t78 -23.5q29 -4 29 -43q0 -25 -4.5 -32t-28.5 -7q-10 0 -79 8t-123 8q-33 0 -98 -8t-97 -8q-35 0 -35 39q0 41 32 45q57 7 59 8q32 18 32 91v446q-137 -86 -143 -86z" />
    <glyph glyph-name="onehalf" unicode="&#xbd;" horiz-adv-x="1942" 
d="M1395 147h276q92 0 119 56q22 47 39 47h20q35 0 35 -14q0 -5 -12 -34q-49 -118 -72 -214q-108 12 -182 12h-290q18 0 -144 -4v70q124 95 174 136q97 82 158 154q86 102 86 191q0 63 -47 100q-42 33 -107 33q-122 0 -163 -119q-9 -24 -40 -24q-35 0 -35 30q0 126 104 196
q90 60 222 60q124 0 203 -52q92 -61 92 -179q0 -132 -162 -266q-82 -69 -274 -179zM602 -25h-143l882 1495h142zM160 1174q-16 0 -32.5 19t-16.5 36q0 5 14 14l350 215l57 -26q-8 -77 -8 -132v-491q0 -58 14 -72.5t78 -23.5q29 -4 29 -43q0 -25 -4.5 -32t-28.5 -7
q-10 0 -79 8t-123 8q-33 0 -98 -8t-97 -8q-35 0 -35 39q0 41 32 45q57 7 59 8q32 18 32 91v446q-137 -86 -143 -86z" />
    <glyph glyph-name="threequarters" unicode="&#xbe;" horiz-adv-x="1942" 
d="M1561 293v260l-232 -260h232zM1747 0h-217q24 35 24 102v68h-358q-37 0 -37 66q0 13 10 24l508 557q12 6 19 6q14 0 45 -13.5t31 -23.5q0 -20 -4.5 -60.5t-4.5 -60.5v-366h131v-129h-131q0 -122 -16 -170zM602 -25h-143l882 1495h142zM217 1108q54 -12 98 -12
q179 0 179 114q0 111 -166 111q-142 0 -176 -95q-8 -22 -39 -22q-35 0 -35 27q0 109 107 174q92 55 208 55q115 0 193 -43q96 -54 96 -160q0 -140 -158 -178q197 -41 197 -198q0 -131 -136 -202q-109 -56 -253 -56q-110 0 -188 33q-105 45 -105 141q0 67 78 67q51 0 69 -43
q14 -39 29 -78q26 -43 100 -43q174 0 174 148q0 139 -188 139q-53 0 -129 -16z" />
    <glyph glyph-name="questiondown" unicode="&#xbf;" horiz-adv-x="1006" 
d="M508 1143q-74 0 -124 49t-50 123q0 73 51 123.5t123 50.5t123 -51t51 -123t-51 -122t-123 -50zM518 -33q-140 55 -207 105q-108 82 -108 192q0 118 108 202q55 42 212 115q190 88 190 162q0 73 -72 110q-56 28 -137 28q-141 0 -311 -117l-134 151q180 132 418 132
q168 0 276 -72q126 -85 126 -244q0 -100 -64 -166q-45 -47 -153 -98q-175 -83 -175 -154q0 -86 117 -86q16 0 48 2t48 2q19 0 19 -14q0 -4 -201 -250z" />
    <glyph glyph-name="Agrave" unicode="&#xc0;" horiz-adv-x="1692" 
d="M911 598l-182 426l-184 -426h366zM1649 68q0 -47 -6 -58q-9 -18 -50 -18q-19 0 -114 16.5t-172 16.5q-70 0 -163.5 -16.5t-115.5 -16.5q-38 0 -48 15q-7 11 -7 52q0 59 45 74q67 22 67 45q0 16 -8 35l-96 225h-508l-92 -209q-14 -32 -14 -65q0 -22 52 -31q59 -11 67 -22
t8 -58q0 -37 -7 -47q-9 -14 -43 -14q-32 0 -94 12t-94 12q-35 0 -104.5 -11t-104.5 -11q-30 0 -37 18q-4 9 -4 45q0 46 7.5 57.5t70.5 22.5q59 11 88 74l547 1206q17 38 44 48q15 5 68 5q54 0 62 -2q31 -6 45 -36l543 -1207q27 -60 92.5 -78t69.5 -25q6 -12 6 -54z
M1044 1602h-115l-325 161q-105 52 -105 121q0 47 32 78t79 31q64 0 155 -96z" />
    <glyph glyph-name="Aacute" unicode="&#xc1;" horiz-adv-x="1692" 
d="M911 598l-182 426l-184 -426h366zM1649 68q0 -47 -6 -58q-9 -18 -50 -18q-19 0 -114 16.5t-172 16.5q-70 0 -163.5 -16.5t-115.5 -16.5q-38 0 -48 15q-7 11 -7 52q0 59 45 74q67 22 67 45q0 16 -8 35l-96 225h-508l-92 -209q-14 -32 -14 -65q0 -22 52 -31q59 -11 67 -22
t8 -58q0 -37 -7 -47q-9 -14 -43 -14q-32 0 -94 12t-94 12q-35 0 -104.5 -11t-104.5 -11q-30 0 -37 18q-4 9 -4 45q0 46 7.5 57.5t70.5 22.5q59 11 88 74l547 1206q17 38 44 48q15 5 68 5q54 0 62 -2q31 -6 45 -36l543 -1207q27 -60 92.5 -78t69.5 -25q6 -12 6 -54zM733 1602
h-115l279 295q91 96 155 96q47 0 79 -31t32 -78q0 -69 -105 -121z" />
    <glyph glyph-name="Acircumflex" unicode="&#xc2;" horiz-adv-x="1692" 
d="M911 598l-182 426l-184 -426h366zM1649 68q0 -47 -6 -58q-9 -18 -50 -18q-19 0 -114 16.5t-172 16.5q-70 0 -163.5 -16.5t-115.5 -16.5q-38 0 -48 15q-7 11 -7 52q0 59 45 74q67 22 67 45q0 16 -8 35l-96 225h-508l-92 -209q-14 -32 -14 -65q0 -22 52 -31q59 -11 67 -22
t8 -58q0 -37 -7 -47q-9 -14 -43 -14q-32 0 -94 12t-94 12q-35 0 -104.5 -11t-104.5 -11q-30 0 -37 18q-4 9 -4 45q0 46 7.5 57.5t70.5 22.5q59 11 88 74l547 1206q17 38 44 48q15 5 68 5q54 0 62 -2q31 -6 45 -36l543 -1207q27 -60 92.5 -78t69.5 -25q6 -12 6 -54zM923 1922
l230 -370h-101l-221 170l-221 -170h-101l230 370h184z" />
    <glyph glyph-name="Atilde" unicode="&#xc3;" horiz-adv-x="1692" 
d="M911 598l-182 426l-184 -426h366zM1649 68q0 -47 -6 -58q-9 -18 -50 -18q-19 0 -114 16.5t-172 16.5q-70 0 -163.5 -16.5t-115.5 -16.5q-38 0 -48 15q-7 11 -7 52q0 59 45 74q67 22 67 45q0 16 -8 35l-96 225h-508l-92 -209q-14 -32 -14 -65q0 -22 52 -31q59 -11 67 -22
t8 -58q0 -37 -7 -47q-9 -14 -43 -14q-32 0 -94 12t-94 12q-35 0 -104.5 -11t-104.5 -11q-30 0 -37 18q-4 9 -4 45q0 46 7.5 57.5t70.5 22.5q59 11 88 74l547 1206q17 38 44 48q15 5 68 5q54 0 62 -2q31 -6 45 -36l543 -1207q27 -60 92.5 -78t69.5 -25q6 -12 6 -54z
M1157 1940q-54 -265 -234 -265q-40 0 -123 26t-114 26q-79 0 -99 -95h-84q53 265 232 265q34 0 198 -41q36 -9 45 -9q69 0 97 93h82z" />
    <glyph glyph-name="Adieresis" unicode="&#xc4;" horiz-adv-x="1692" 
d="M911 598l-182 426l-184 -426h366zM1649 68q0 -47 -6 -58q-9 -18 -50 -18q-19 0 -114 16.5t-172 16.5q-70 0 -163.5 -16.5t-115.5 -16.5q-38 0 -48 15q-7 11 -7 52q0 59 45 74q67 22 67 45q0 16 -8 35l-96 225h-508l-92 -209q-14 -32 -14 -65q0 -22 52 -31q59 -11 67 -22
t8 -58q0 -37 -7 -47q-9 -14 -43 -14q-32 0 -94 12t-94 12q-35 0 -104.5 -11t-104.5 -11q-30 0 -37 18q-4 9 -4 45q0 46 7.5 57.5t70.5 22.5q59 11 88 74l547 1206q17 38 44 48q15 5 68 5q54 0 62 -2q31 -6 45 -36l543 -1207q27 -60 92.5 -78t69.5 -25q6 -12 6 -54z
M1026 1929q59 0 101 -41t42 -100q0 -62 -40.5 -103.5t-102.5 -41.5q-61 0 -102.5 42t-41.5 103q0 57 43 99t101 42zM636 1929q60 0 101 -40.5t41 -100.5q0 -63 -39.5 -104t-102.5 -41q-61 0 -103 42t-42 103q0 57 44 99t101 42z" />
    <glyph glyph-name="Aring" unicode="&#xc5;" horiz-adv-x="1692" 
d="M729 1024l-184 -426h366zM1649 68q0 -47 -6 -58q-9 -18 -50 -18q-19 0 -114 16.5t-172 16.5q-70 0 -163.5 -16.5t-115.5 -16.5q-38 0 -48 15q-7 11 -7 52q0 59 45 74q67 22 67 45q0 16 -8 35l-96 225h-508l-92 -209q-14 -32 -14 -65q0 -22 52 -31q59 -11 67 -22t8 -58
q0 -37 -7 -47q-9 -14 -43 -14q-32 0 -94 12t-94 12q-35 0 -104.5 -11t-104.5 -11q-30 0 -37 18q-4 9 -4 45q0 46 7.5 58t69.5 22q59 10 89 74l541 1169q18 39 49 48q14 4 72 4q56 0 66 -2q34 -6 48 -37l533 -1168q27 -60 92.5 -78t69.5 -25q6 -12 6 -54zM840 1831
q-39 0 -65.5 -26.5t-26.5 -65.5q0 -38 27 -66t65 -28t65 28t27 66t-27 65t-65 27zM840 1972q97 0 165 -68t68 -165q0 -98 -67.5 -166t-165.5 -68q-100 0 -167 67t-67 167q0 98 68 165.5t166 67.5z" />
    <glyph glyph-name="AE" unicode="&#xc6;" horiz-adv-x="2011" 
d="M891 612l-139 492l-207 -492h346zM633 1262q0 49 -77 61q-88 13 -95.5 24.5t-7.5 59.5q0 44 10 53.5t51 9.5q55 0 165.5 -5t165.5 -5h438q59 0 177 5t174 5q3 -88 13 -180.5t10 -97.5q0 -44 -30 -56q-16 -6 -71 -6q-39 0 -54.5 10.5t-30 72.5t-39.5 78q-29 18 -111 18
h-293l158 -498h213q93 0 119 35q2 2 19 65q10 35 62 35q79 0 95 -10.5t16 -54.5q0 -24 -4 -73t-4 -73q0 -25 3 -74.5t3 -74.5q0 -47 -26 -57q-12 -5 -70 -5q-66 0 -75 43q-13 58 -33 70t-271 12l104 -337q46 -148 185 -148q156 0 208 18.5t84 104.5q26 73 95 73
q102 0 102 -53q0 -21 -26 -124q-27 -106 -43 -183q-273 20 -515 20q-185 0 -395 -20q-63 -6 -74 -6q-37 0 -47 14q-6 10 -6 51q0 59 45 74q66 22 66 45q0 14 -6 34l-74 241h-459l-96 -224q-14 -33 -14 -63q0 -24 52 -33q59 -11 67 -22t8 -58q0 -37 -7 -47q-9 -14 -43 -14
q-32 0 -94 12t-94 12q-35 0 -104.5 -11t-104.5 -11q-30 0 -37 18q-4 9 -4 45q0 47 7.5 58.5t71.5 22.5q59 10 87 73l449 1006q12 27 12 45z" />
    <glyph glyph-name="Ccedilla" unicode="&#xc7;" horiz-adv-x="1550" 
d="M1419 1448q0 -110 9.5 -195.5t9.5 -97.5q0 -45 -29 -59q-18 -9 -70 -9q-45 0 -61.5 13.5t-32.5 96.5q-14 75 -74 103q-57 25 -194 25q-246 0 -371 -181q-108 -157 -108 -413q0 -255 121 -415q135 -179 382 -179q129 0 201 52q46 34 80 104q32 65 51 74.5t105 9.5
q49 0 49 -41q0 -8 -22 -114q-24 -109 -40 -204q-51 -4 -259 -27q-159 -18 -259 -18q-377 0 -595 186q-232 198 -232 568q0 368 224 569q215 193 587 193q100 0 264 -17q202 -21 264 -24zM819 0v-115q54 9 78 9q77 0 126.5 -48t49.5 -125q0 -94 -69 -144q-61 -44 -158 -44
q-119 0 -332 90l47 101q127 -76 240 -76q84 0 84 76q0 81 -93 81q-26 0 -61 -8v203h88z" />
    <glyph glyph-name="Egrave" unicode="&#xc8;" horiz-adv-x="1298" 
d="M227 1146q0 149 -73 169q-34 7 -77 30q-7 12 -7 54q0 50 7 62q12 20 56 20q57 0 172.5 -5.5t175 -5.5t180.5 -1t181 -1q95 0 258 12q3 -97 13.5 -194t10.5 -98q0 -45 -31 -57q-16 -7 -71 -7q-41 0 -56.5 11t-30 75.5t-39.5 80.5q-30 18 -110 18h-188v-480h219
q74 0 101 13.5t40 73.5q10 49 68 49q79 0 95 -10.5t16 -55.5q0 -24 -5.5 -71.5t-5.5 -71.5q0 -25 4.5 -75t4.5 -75q0 -45 -29 -56q-13 -5 -70 -5q-38 0 -52 7t-26.5 50t-31.5 55.5t-82 12.5h-246v-324q0 -94 28 -129q32 -41 122 -41q191 0 242 18q58 20 86 105q24 72 93 72
q105 0 105 -52q0 -18 -28 -123q-28 -108 -44 -196q-268 20 -598 20q-208 0 -431 -24q-37 -4 -48 -4q-39 0 -49 16q-6 11 -6 55q0 43 7 56t78.5 28.5t71.5 169.5v829zM823 1602h-115l-325 161q-105 52 -105 121q0 47 32 78t79 31q64 0 155 -96z" />
    <glyph glyph-name="Eacute" unicode="&#xc9;" horiz-adv-x="1298" 
d="M227 1146q0 149 -73 169q-34 7 -77 30q-7 12 -7 54q0 50 7 62q12 20 56 20q57 0 172.5 -5.5t175 -5.5t180.5 -1t181 -1q95 0 258 12q3 -97 13.5 -194t10.5 -98q0 -45 -31 -57q-16 -7 -71 -7q-41 0 -56.5 11t-30 75.5t-39.5 80.5q-30 18 -110 18h-188v-480h219
q74 0 101 13.5t40 73.5q10 49 68 49q79 0 95 -10.5t16 -55.5q0 -24 -5.5 -71.5t-5.5 -71.5q0 -25 4.5 -75t4.5 -75q0 -45 -29 -56q-13 -5 -70 -5q-38 0 -52 7t-26.5 50t-31.5 55.5t-82 12.5h-246v-324q0 -94 28 -129q32 -41 122 -41q191 0 242 18q58 20 86 105q24 72 93 72
q105 0 105 -52q0 -18 -28 -123q-28 -108 -44 -196q-268 20 -598 20q-208 0 -431 -24q-37 -4 -48 -4q-39 0 -49 16q-6 11 -6 55q0 43 7 56t78.5 28.5t71.5 169.5v829zM512 1602h-115l279 295q91 96 155 96q47 0 79 -31t32 -78q0 -69 -105 -121z" />
    <glyph glyph-name="Ecircumflex" unicode="&#xca;" horiz-adv-x="1298" 
d="M227 1146q0 149 -73 169q-34 7 -77 30q-7 12 -7 54q0 50 7 62q12 20 56 20q57 0 172.5 -5.5t175 -5.5t180.5 -1t181 -1q95 0 258 12q3 -97 13.5 -194t10.5 -98q0 -45 -31 -57q-16 -7 -71 -7q-41 0 -56.5 11t-30 75.5t-39.5 80.5q-30 18 -110 18h-188v-480h219
q74 0 101 13.5t40 73.5q10 49 68 49q79 0 95 -10.5t16 -55.5q0 -24 -5.5 -71.5t-5.5 -71.5q0 -25 4.5 -75t4.5 -75q0 -45 -29 -56q-13 -5 -70 -5q-38 0 -52 7t-26.5 50t-31.5 55.5t-82 12.5h-246v-324q0 -94 28 -129q32 -41 122 -41q191 0 242 18q58 20 86 105q24 72 93 72
q105 0 105 -52q0 -18 -28 -123q-28 -108 -44 -196q-268 20 -598 20q-208 0 -431 -24q-37 -4 -48 -4q-39 0 -49 16q-6 11 -6 55q0 43 7 56t78.5 28.5t71.5 169.5v829zM733 1922l230 -370h-101l-221 170l-221 -170h-101l230 370h184z" />
    <glyph glyph-name="Edieresis" unicode="&#xcb;" horiz-adv-x="1298" 
d="M227 1146q0 149 -73 169q-34 7 -77 30q-7 12 -7 54q0 50 7 62q12 20 56 20q57 0 172.5 -5.5t175 -5.5t180.5 -1t181 -1q95 0 258 12q3 -97 13.5 -194t10.5 -98q0 -45 -31 -57q-16 -7 -71 -7q-41 0 -56.5 11t-30 75.5t-39.5 80.5q-30 18 -110 18h-188v-480h219
q74 0 101 13.5t40 73.5q10 49 68 49q79 0 95 -10.5t16 -55.5q0 -24 -5.5 -71.5t-5.5 -71.5q0 -25 4.5 -75t4.5 -75q0 -45 -29 -56q-13 -5 -70 -5q-38 0 -52 7t-26.5 50t-31.5 55.5t-82 12.5h-246v-324q0 -94 28 -129q32 -41 122 -41q191 0 242 18q58 20 86 105q24 72 93 72
q105 0 105 -52q0 -18 -28 -123q-28 -108 -44 -196q-268 20 -598 20q-208 0 -431 -24q-37 -4 -48 -4q-39 0 -49 16q-6 11 -6 55q0 43 7 56t78.5 28.5t71.5 169.5v829zM805 1929q59 0 101 -41t42 -100q0 -62 -40.5 -103.5t-102.5 -41.5q-61 0 -102.5 42t-41.5 103q0 57 43 99
t101 42zM415 1929q60 0 101 -40.5t41 -100.5q0 -63 -39.5 -104t-102.5 -41q-61 0 -103 42t-42 103q0 57 44 99t101 42z" />
    <glyph glyph-name="Igrave" unicode="&#xcc;" horiz-adv-x="866" 
d="M627 1146v-829q0 -98 16 -128q17 -35 70.5 -46t61 -24t7.5 -56q0 -44 -6 -55q-10 -16 -49 -16q-15 0 -114 16.5t-185 16.5q-77 0 -173.5 -16.5t-115.5 -16.5q-39 0 -49 16q-6 11 -6 55q0 43 7 56t77 28q74 16 74 171v827q0 150 -74 170q-35 7 -77 30q-7 12 -7 54
q0 45 6 55q9 16 49 16q18 0 114.5 -16t174.5 -16q86 0 185.5 16t113.5 16q40 0 49 -16q6 -10 6 -55q0 -41 -5 -50q-7 -15 -42 -24l-37 -10q-50 -14 -64 -68q-7 -26 -7 -101zM647 1602h-115l-325 161q-105 52 -105 121q0 47 32 78t79 31q64 0 155 -96z" />
    <glyph glyph-name="Iacute" unicode="&#xcd;" horiz-adv-x="866" 
d="M627 1146v-829q0 -98 16 -128q17 -35 70.5 -46t61 -24t7.5 -56q0 -44 -6 -55q-10 -16 -49 -16q-15 0 -114 16.5t-185 16.5q-77 0 -173.5 -16.5t-115.5 -16.5q-39 0 -49 16q-6 11 -6 55q0 43 7 56t77 28q74 16 74 171v827q0 150 -74 170q-35 7 -77 30q-7 12 -7 54
q0 45 6 55q9 16 49 16q18 0 114.5 -16t174.5 -16q86 0 185.5 16t113.5 16q40 0 49 -16q6 -10 6 -55q0 -41 -5 -50q-7 -15 -42 -24l-37 -10q-50 -14 -64 -68q-7 -26 -7 -101zM336 1602h-115l279 295q91 96 155 96q47 0 79 -31t32 -78q0 -69 -105 -121z" />
    <glyph glyph-name="Icircumflex" unicode="&#xce;" horiz-adv-x="866" 
d="M627 1146v-829q0 -98 16 -128q17 -35 70.5 -46t61 -24t7.5 -56q0 -44 -6 -55q-10 -16 -49 -16q-15 0 -114 16.5t-185 16.5q-77 0 -173.5 -16.5t-115.5 -16.5q-39 0 -49 16q-6 11 -6 55q0 43 7 56t77 28q74 16 74 171v827q0 150 -74 170q-35 7 -77 30q-7 12 -7 54
q0 45 6 55q9 16 49 16q18 0 114.5 -16t174.5 -16q86 0 185.5 16t113.5 16q40 0 49 -16q6 -10 6 -55q0 -41 -5 -50q-7 -15 -42 -24l-37 -10q-50 -14 -64 -68q-7 -26 -7 -101zM526 1972l230 -370h-101l-221 170l-221 -170h-101l230 370h184z" />
    <glyph glyph-name="Idieresis" unicode="&#xcf;" horiz-adv-x="866" 
d="M627 1146v-829q0 -98 16 -128q17 -35 70.5 -46t61 -24t7.5 -56q0 -44 -6 -55q-10 -16 -49 -16q-15 0 -114 16.5t-185 16.5q-77 0 -173.5 -16.5t-115.5 -16.5q-39 0 -49 16q-6 11 -6 55q0 43 7 56t77 28q74 16 74 171v827q0 150 -74 170q-35 7 -77 30q-7 12 -7 54
q0 45 6 55q9 16 49 16q18 0 114.5 -16t174.5 -16q86 0 185.5 16t113.5 16q40 0 49 -16q6 -10 6 -55q0 -41 -5 -50q-7 -15 -42 -24l-37 -10q-50 -14 -64 -68q-7 -26 -7 -101zM629 1929q59 0 101 -41t42 -100q0 -62 -40.5 -103.5t-102.5 -41.5q-61 0 -102.5 42t-41.5 103
q0 57 43 99t101 42zM239 1929q60 0 101 -40.5t41 -100.5q0 -63 -39.5 -104t-102.5 -41q-61 0 -103 42t-42 103q0 57 44 99t101 42z" />
    <glyph glyph-name="Eth" unicode="&#xd0;" horiz-adv-x="1784" 
d="M936 684h-318v-307q0 -120 45 -169q47 -52 166 -52q242 0 364 179q105 153 105 406q0 251 -114 395q-126 158 -371 158q-91 0 -195 -12v-481h318v-117zM246 684h-182v117h182v336q0 162 -74 178q-17 3 -51 10q-15 3 -37 16q-8 10 -8 62q0 47 9 57t52 10q21 0 120 -16
t175 -16q77 0 233.5 9t235.5 9q361 0 573 -172q230 -187 230 -539q0 -353 -242 -561q-228 -196 -588 -196q-78 0 -233 17.5t-233 17.5q-65 0 -153 -15.5t-110 -15.5q-39 0 -49 16q-6 11 -6 55q0 45 7 56.5t75 27.5q74 18 74 179v358z" />
    <glyph glyph-name="Ntilde" unicode="&#xd1;" horiz-adv-x="1712" 
d="M1323 498v690q0 83 -39 113q-23 18 -78 23q-50 4 -61 21q-8 11 -8 58q0 40 5 50q9 17 44 17q32 0 105.5 -11t111.5 -11t113 11t112 11q34 0 43 -16q6 -10 6 -49q0 -45 -7 -57q-11 -18 -56 -22q-49 -6 -69 -24q-34 -31 -34 -116v-1145q0 -32 -17.5 -41.5t-117.5 -9.5
q-95 0 -125 33l-862 944v-693q0 -82 39 -112q23 -17 80 -23q49 -5 60 -22q7 -12 7 -58q0 -39 -6 -50q-8 -17 -43 -17q-36 0 -107.5 12t-107.5 12q-38 0 -113.5 -12t-113.5 -12q-34 0 -43 16q-6 10 -6 49q0 47 8 58q11 17 55 22q49 4 68 23q33 30 33 116v1154q0 30 22 37
q10 3 49 3h92q71 0 91 -22zM1221 1940q-54 -265 -234 -265q-40 0 -123 26t-114 26q-79 0 -99 -95h-84q53 265 232 265q34 0 198 -41q36 -9 45 -9q69 0 97 93h82z" />
    <glyph glyph-name="Ograve" unicode="&#xd2;" horiz-adv-x="1817" 
d="M907 150q222 0 328 189q84 150 84 390q0 242 -83 391q-106 189 -329 189q-222 0 -327 -189q-82 -150 -82 -391q0 -240 83 -390q105 -189 326 -189zM80 729q0 351 241 562q230 200 586 200q357 0 587 -200q241 -210 241 -562t-242 -561q-229 -199 -586 -199t-586 199
q-241 209 -241 561zM1122 1602h-115l-325 161q-105 52 -105 121q0 47 32 78t79 31q64 0 155 -96z" />
    <glyph glyph-name="Oacute" unicode="&#xd3;" horiz-adv-x="1817" 
d="M907 150q222 0 328 189q84 150 84 390q0 242 -83 391q-106 189 -329 189q-222 0 -327 -189q-82 -150 -82 -391q0 -240 83 -390q105 -189 326 -189zM80 729q0 351 241 562q230 200 586 200q357 0 587 -200q241 -210 241 -562t-242 -561q-229 -199 -586 -199t-586 199
q-241 209 -241 561zM811 1602h-115l279 295q91 96 155 96q47 0 79 -31t32 -78q0 -69 -105 -121z" />
    <glyph glyph-name="Ocircumflex" unicode="&#xd4;" horiz-adv-x="1817" 
d="M907 150q222 0 328 189q84 150 84 390q0 242 -83 391q-106 189 -329 189q-222 0 -327 -189q-82 -150 -82 -391q0 -240 83 -390q105 -189 326 -189zM80 729q0 351 241 562q230 200 586 200q357 0 587 -200q241 -210 241 -562t-242 -561q-229 -199 -586 -199t-586 199
q-241 209 -241 561zM1003 1922l230 -370h-101l-221 170l-221 -170h-101l230 370h184z" />
    <glyph glyph-name="Otilde" unicode="&#xd5;" horiz-adv-x="1817" 
d="M907 150q222 0 328 189q84 150 84 390q0 242 -83 391q-106 189 -329 189q-222 0 -327 -189q-82 -150 -82 -391q0 -240 83 -390q105 -189 326 -189zM80 729q0 351 241 562q230 200 586 200q357 0 587 -200q241 -210 241 -562t-242 -561q-229 -199 -586 -199t-586 199
q-241 209 -241 561zM1235 1940q-54 -265 -234 -265q-40 0 -123 26t-114 26q-79 0 -99 -95h-84q53 265 232 265q34 0 198 -41q36 -9 45 -9q69 0 97 93h82z" />
    <glyph glyph-name="Odieresis" unicode="&#xd6;" horiz-adv-x="1817" 
d="M907 150q222 0 328 189q84 150 84 390q0 242 -83 391q-106 189 -329 189q-222 0 -327 -189q-82 -150 -82 -391q0 -240 83 -390q105 -189 326 -189zM80 729q0 351 241 562q230 200 586 200q357 0 587 -200q241 -210 241 -562t-242 -561q-229 -199 -586 -199t-586 199
q-241 209 -241 561zM1104 1929q59 0 101 -41t42 -100q0 -62 -40.5 -103.5t-102.5 -41.5q-61 0 -102.5 42t-41.5 103q0 57 43 99t101 42zM714 1929q60 0 101 -40.5t41 -100.5q0 -63 -39.5 -104t-102.5 -41q-61 0 -103 42t-42 103q0 57 44 99t101 42z" />
    <glyph glyph-name="multiply" unicode="&#xd7;" horiz-adv-x="1706" 
d="M430 1214l440 -440l441 440l162 -161l-441 -443l441 -440l-162 -162l-441 441l-440 -441l-162 162l441 440l-441 443z" />
    <glyph glyph-name="Oslash" unicode="&#xd8;" horiz-adv-x="1817" 
d="M1274 1071l-686 -754q40 -89 133 -138q85 -46 188 -46q227 0 335 195q85 155 85 401q0 208 -55 342zM1204 1188q-98 141 -295 141q-227 0 -335 -198q-85 -155 -85 -402q0 -139 41 -287zM1378 1372l170 187l97 -86l-160 -175q250 -217 250 -569t-241 -561
q-230 -199 -587 -199q-292 0 -512 148l-196 -223l-93 90l193 211q-219 219 -219 534q0 352 241 562q229 200 586 200q270 0 471 -119z" />
    <glyph glyph-name="Ugrave" unicode="&#xd9;" horiz-adv-x="1663" 
d="M569 1157q0 -26 1 -76.5t1 -76.5q0 -503 76 -680t264 -177q365 0 365 641q0 46 2 138.5t2 138.5q0 186 -21.5 215.5t-90 40.5t-77 21t-8.5 61q0 42 9 54.5t49 12.5q30 0 102 -13t111 -13t114 13t113 13q39 0 49 -15q6 -11 6 -54q0 -64 -62 -78q-72 -15 -87 -65
q-6 -19 -12 -209q-12 -361 -31 -490q-41 -274 -163 -414q-151 -174 -443 -174q-300 0 -451 154q-124 127 -163 382q-19 125 -28 485q-1 76 -10 227q-6 57 -21 74.5t-68 28.5q-49 9 -56.5 21.5t-7.5 55.5q0 45 6 55q9 16 49 16q18 0 115 -16t174 -16q91 0 197 16t118 16
q40 0 50 -16q6 -10 6 -55q0 -63 -61 -75q-77 -15 -97.5 -46t-20.5 -121zM1098 1602h-115l-325 161q-105 52 -105 121q0 47 32 78t79 31q64 0 155 -96z" />
    <glyph glyph-name="Uacute" unicode="&#xda;" horiz-adv-x="1663" 
d="M569 1157q0 -26 1 -76.5t1 -76.5q0 -503 76 -680t264 -177q365 0 365 641q0 46 2 138.5t2 138.5q0 186 -21.5 215.5t-90 40.5t-77 21t-8.5 61q0 42 9 54.5t49 12.5q30 0 102 -13t111 -13t114 13t113 13q39 0 49 -15q6 -11 6 -54q0 -64 -62 -78q-72 -15 -87 -65
q-6 -19 -12 -209q-12 -361 -31 -490q-41 -274 -163 -414q-151 -174 -443 -174q-300 0 -451 154q-124 127 -163 382q-19 125 -28 485q-1 76 -10 227q-6 57 -21 74.5t-68 28.5q-49 9 -56.5 21.5t-7.5 55.5q0 45 6 55q9 16 49 16q18 0 115 -16t174 -16q91 0 197 16t118 16
q40 0 50 -16q6 -10 6 -55q0 -63 -61 -75q-77 -15 -97.5 -46t-20.5 -121zM787 1602h-115l279 295q91 96 155 96q47 0 79 -31t32 -78q0 -69 -105 -121z" />
    <glyph glyph-name="Ucircumflex" unicode="&#xdb;" horiz-adv-x="1663" 
d="M569 1157q0 -26 1 -76.5t1 -76.5q0 -503 76 -680t264 -177q365 0 365 641q0 46 2 138.5t2 138.5q0 186 -21.5 215.5t-90 40.5t-77 21t-8.5 61q0 42 9 54.5t49 12.5q30 0 102 -13t111 -13t114 13t113 13q39 0 49 -15q6 -11 6 -54q0 -64 -62 -78q-72 -15 -87 -65
q-6 -19 -12 -209q-12 -361 -31 -490q-41 -274 -163 -414q-151 -174 -443 -174q-300 0 -451 154q-124 127 -163 382q-19 125 -28 485q-1 76 -10 227q-6 57 -21 74.5t-68 28.5q-49 9 -56.5 21.5t-7.5 55.5q0 45 6 55q9 16 49 16q18 0 115 -16t174 -16q91 0 197 16t118 16
q40 0 50 -16q6 -10 6 -55q0 -63 -61 -75q-77 -15 -97.5 -46t-20.5 -121zM977 1972l230 -370h-101l-221 170l-221 -170h-101l230 370h184z" />
    <glyph glyph-name="Udieresis" unicode="&#xdc;" horiz-adv-x="1663" 
d="M569 1157q0 -26 1 -76.5t1 -76.5q0 -503 76 -680t264 -177q365 0 365 641q0 46 2 138.5t2 138.5q0 186 -21.5 215.5t-90 40.5t-77 21t-8.5 61q0 42 9 54.5t49 12.5q30 0 102 -13t111 -13t114 13t113 13q39 0 49 -15q6 -11 6 -54q0 -64 -62 -78q-72 -15 -87 -65
q-6 -19 -12 -209q-12 -361 -31 -490q-41 -274 -163 -414q-151 -174 -443 -174q-300 0 -451 154q-124 127 -163 382q-19 125 -28 485q-1 76 -10 227q-6 57 -21 74.5t-68 28.5q-49 9 -56.5 21.5t-7.5 55.5q0 45 6 55q9 16 49 16q18 0 115 -16t174 -16q91 0 197 16t118 16
q40 0 50 -16q6 -10 6 -55q0 -63 -61 -75q-77 -15 -97.5 -46t-20.5 -121zM1080 1929q59 0 101 -41t42 -100q0 -62 -40.5 -103.5t-102.5 -41.5q-61 0 -102.5 42t-41.5 103q0 57 43 99t101 42zM690 1929q60 0 101 -40.5t41 -100.5q0 -63 -39.5 -104t-102.5 -41q-61 0 -103 42
t-42 103q0 57 44 99t101 42z" />
    <glyph glyph-name="Yacute" unicode="&#xdd;" horiz-adv-x="1593" 
d="M6 1395q0 46 6 57q9 18 49 18q18 0 114 -16t173 -16q76 0 171 16t114 16q40 0 49 -16q6 -10 6 -55q0 -42 -8 -53.5t-57 -19.5q-41 -6 -41 -36q0 -12 12 -31l305 -479l280 456q15 24 15 42q0 32 -45 44q-6 1 -68 9q-32 4 -40 24q-5 11 -5 50q0 38 6 49q9 16 43 16
q35 0 106 -12t107 -12q40 0 117.5 12t114.5 12q35 0 44 -18q5 -11 5 -51q0 -46 -9.5 -55.5t-58.5 -18.5q-57 -11 -118 -106l-408 -639v-330q0 -70 36 -94q20 -14 71 -17q46 -4 55.5 -18t9.5 -60q0 -44 -6 -55q-10 -16 -49 -16q-26 0 -124.5 16.5t-168.5 16.5
q-69 0 -173.5 -16.5t-135.5 -16.5q-39 0 -48 16q-6 10 -6 55q0 46 9 59q13 18 57 20q50 3 69 17q33 24 33 99v315l-462 680q-13 19 -40 48q-37 12 -71.5 24.5t-34.5 69.5zM699 1602h-115l279 295q91 96 155 96q47 0 79 -31t32 -78q0 -69 -105 -121z" />
    <glyph glyph-name="Thorn" unicode="&#xde;" horiz-adv-x="1300" 
d="M227 1137q0 75 -8 105q-15 59 -65 73q-34 7 -77 30q-7 12 -7 54q0 45 6 55q9 16 49 16q18 0 114.5 -16t174.5 -16q77 0 174 16t114 16q41 0 50 -16q6 -10 6 -55q0 -42 -7 -53.5t-62 -25.5t-71 -48t-18 -135q37 0 110 3t109 3q461 0 461 -363q0 -182 -120 -304t-302 -122
q-145 0 -225 95v30q270 16 270 269q0 239 -229 239q-74 0 -74 -47v-614q0 -170 74 -179l65 -8q33 -4 41 -25q4 -10 4 -51q0 -44 -6 -55q-10 -16 -49 -16q-17 0 -116.5 16.5t-178.5 16.5q-91 0 -194 -16.5t-115 -16.5q-39 0 -49 16q-6 11 -6 55q0 43 7 56t78.5 28.5
t71.5 178.5v811z" />
    <glyph glyph-name="germandbls" unicode="&#xdf;" horiz-adv-x="1370" 
d="M55 815q0 41 44 66l77 43q-2 32 -2 90q0 518 471 518q157 0 270 -66q136 -80 136 -227q0 -88 -78 -190.5t-78 -143.5q0 -65 108 -144q174 -128 200 -153q108 -108 108 -243q0 -168 -118.5 -278t-287.5 -110q-97 0 -166 37q-86 47 -86 136q0 49 31 79.5t80 30.5
q66 0 119.5 -70.5t109.5 -70.5q80 0 80 92q0 82 -113 180l-208 166q-113 99 -113 180q0 53 83 196t83 255q0 194 -158 194q-143 0 -143 -186v-960q0 -84 47 -98.5t47 -80.5q0 -41 -7 -51q-10 -14 -48 -14q-34 0 -102 15.5t-103 15.5q-40 0 -117.5 -15.5t-116.5 -15.5t-49 16
q-6 10 -6 55q0 56 32 70q29 9 59 18q32 20 32 91v512l-86 12q-31 4 -31 49z" />
    <glyph glyph-name="agrave" unicode="&#xe0;" 
d="M639 428q0 39 -25 39q-88 0 -159 -47q-80 -53 -80 -137q0 -56 34 -93.5t89 -37.5q62 0 101.5 43t39.5 106v127zM639 594v33q0 104 -44 152t-146 48q-74 0 -92 -11q-27 -17 -35 -52q-9 -39 -22 -50q-25 -22 -101 -22q-56 0 -56 37q0 -1 4 20l39 207q174 27 330 27
q216 0 315 -58q130 -76 130 -274v-311q0 -143 126 -166v-29q-117 -176 -202 -176q-116 0 -199 166q-138 -166 -340 -166q-127 0 -210 66q-91 72 -91 196q0 141 126.5 221t467.5 142zM768 1094h-115l-325 161q-105 52 -105 121q0 47 32 78t79 31q64 0 155 -96z" />
    <glyph glyph-name="aacute" unicode="&#xe1;" 
d="M639 428q0 39 -25 39q-88 0 -159 -47q-80 -53 -80 -137q0 -56 34 -93.5t89 -37.5q62 0 101.5 43t39.5 106v127zM639 594v33q0 104 -44 152t-146 48q-74 0 -92 -11q-27 -17 -35 -52q-9 -39 -22 -50q-25 -22 -101 -22q-56 0 -56 37q0 -1 4 20l39 207q174 27 330 27
q216 0 315 -58q130 -76 130 -274v-311q0 -143 126 -166v-29q-117 -176 -202 -176q-116 0 -199 166q-138 -166 -340 -166q-127 0 -210 66q-91 72 -91 196q0 141 126.5 221t467.5 142zM457 1094h-115l279 295q91 96 155 96q47 0 79 -31t32 -78q0 -69 -105 -121z" />
    <glyph glyph-name="acircumflex" unicode="&#xe2;" 
d="M639 428q0 39 -25 39q-88 0 -159 -47q-80 -53 -80 -137q0 -56 34 -93.5t89 -37.5q62 0 101.5 43t39.5 106v127zM639 594v33q0 104 -44 152t-146 48q-74 0 -92 -11q-27 -17 -35 -52q-9 -39 -22 -50q-25 -22 -101 -22q-56 0 -56 37q0 -1 4 20l39 207q174 27 330 27
q216 0 315 -58q130 -76 130 -274v-311q0 -143 126 -166v-29q-117 -176 -202 -176q-116 0 -199 166q-138 -166 -340 -166q-127 0 -210 66q-91 72 -91 196q0 141 126.5 221t467.5 142zM637 1464l230 -370h-101l-221 170l-221 -170h-101l230 370h184z" />
    <glyph glyph-name="atilde" unicode="&#xe3;" 
d="M639 428q0 39 -25 39q-88 0 -159 -47q-80 -53 -80 -137q0 -56 34 -93.5t89 -37.5q62 0 101.5 43t39.5 106v127zM639 594v33q0 104 -44 152t-146 48q-74 0 -92 -11q-27 -17 -35 -52q-9 -39 -22 -50q-25 -22 -101 -22q-56 0 -56 37q0 -1 4 20l39 207q174 27 330 27
q216 0 315 -58q130 -76 130 -274v-311q0 -143 126 -166v-29q-117 -176 -202 -176q-116 0 -199 166q-138 -166 -340 -166q-127 0 -210 66q-91 72 -91 196q0 141 126.5 221t467.5 142zM881 1432q-54 -265 -234 -265q-40 0 -123 26t-114 26q-79 0 -99 -95h-84q53 265 232 265
q34 0 198 -41q36 -9 45 -9q69 0 97 93h82z" />
    <glyph glyph-name="adieresis" unicode="&#xe4;" 
d="M639 428q0 39 -25 39q-88 0 -159 -47q-80 -53 -80 -137q0 -56 34 -93.5t89 -37.5q62 0 101.5 43t39.5 106v127zM639 594v33q0 104 -44 152t-146 48q-74 0 -92 -11q-27 -17 -35 -52q-9 -39 -22 -50q-25 -22 -101 -22q-56 0 -56 37q0 -1 4 20l39 207q174 27 330 27
q216 0 315 -58q130 -76 130 -274v-311q0 -143 126 -166v-29q-117 -176 -202 -176q-116 0 -199 166q-138 -166 -340 -166q-127 0 -210 66q-91 72 -91 196q0 141 126.5 221t467.5 142zM750 1421q59 0 101 -41t42 -100q0 -62 -40.5 -103.5t-102.5 -41.5q-61 0 -102.5 42
t-41.5 103q0 57 43 99t101 42zM360 1421q60 0 101 -40.5t41 -100.5q0 -63 -39.5 -104t-102.5 -41q-61 0 -103 42t-42 103q0 57 44 99t101 42z" />
    <glyph glyph-name="aring" unicode="&#xe5;" 
d="M672 1339q0 51 -35 87t-86 36q-52 0 -87.5 -35.5t-35.5 -87.5q0 -53 35 -86.5t88 -33.5q51 0 86 34.5t35 85.5zM551 1606q112 0 189 -76.5t77 -188.5q0 -113 -76.5 -189.5t-189.5 -76.5t-189.5 76.5t-76.5 189.5q0 112 77 188.5t189 76.5zM639 428q0 39 -25 39
q-88 0 -159 -47q-80 -53 -80 -137q0 -56 34 -93.5t89 -37.5q62 0 101.5 43t39.5 106v127zM639 594v33q0 104 -44 152t-146 48q-73 0 -92 -11q-26 -16 -35 -51q-9 -39 -21 -50q-26 -23 -102 -23q-56 0 -56 37q0 -1 4 20l39 207q174 27 330 27q216 0 315 -58q130 -76 130 -274
v-311q0 -143 126 -166v-29q-112 -168 -202 -168q-120 0 -199 158q-132 -160 -340 -160q-127 0 -210 63q-91 70 -91 193q0 141 126.5 221t467.5 142z" />
    <glyph glyph-name="ae" unicode="&#xe6;" horiz-adv-x="1657" 
d="M1280 682q0 170 -141 170q-185 0 -185 -289l292 68q34 8 34 51zM639 428q0 39 -25 39q-88 0 -159 -47q-80 -53 -80 -137q0 -56 34 -93.5t89 -37.5q62 0 101.5 43t39.5 106v127zM639 594v33q0 104 -43.5 152t-146.5 48q-73 0 -92 -11q-27 -16 -35.5 -53t-21.5 -49
q-25 -22 -101 -22q-56 0 -56 37q0 -1 4 20l39 207q176 27 349 27q119 0 182 -18q98 -29 139 -109q127 127 324 127q187 0 294.5 -100t120.5 -287l-634 -143q12 -123 89 -193t201 -70q79 0 153 32q69 36 138 73q19 0 36 -17t17 -36q0 -28 -63 -88q-187 -179 -422 -179
q-282 0 -408 179q-141 -179 -354 -179q-129 0 -211 62q-92 69 -92 194q0 141 126.5 221t467.5 142z" />
    <glyph glyph-name="ccedilla" unicode="&#xe7;" horiz-adv-x="1034" 
d="M682 201q70 0 163.5 48t90.5 48q19 0 37 -19t18 -38q0 -34 -69 -97q-190 -174 -410 -174q-209 0 -332 135q-119 131 -119 342q0 242 158 391q155 146 399 146q117 0 206 -33q126 -47 126 -143q0 -53 -30 -88t-82 -35q-61 0 -143.5 81t-131.5 81q-160 0 -160 -277
q0 -151 62 -250q74 -118 217 -118zM561 0v-115q54 9 78 9q77 0 126.5 -48t49.5 -125q0 -94 -69 -144q-61 -44 -158 -44q-119 0 -332 90l47 101q127 -76 240 -76q84 0 84 76q0 81 -93 81q-26 0 -61 -8v203h88z" />
    <glyph glyph-name="egrave" unicode="&#xe8;" horiz-adv-x="1102" 
d="M723 682q0 170 -139 170q-185 0 -185 -289l292 68q32 7 32 51zM1040 596l-634 -143q12 -123 89 -193t201 -70q79 0 152 32q68 36 137 73q18 0 36.5 -17.5t18.5 -35.5q0 -28 -63 -88q-194 -185 -422 -185q-225 0 -357 120q-137 125 -137 347q0 237 144 390
q147 157 383 157q202 0 320 -91q130 -100 132 -296zM764 1094h-115l-325 161q-105 52 -105 121q0 47 32 78t79 31q64 0 155 -96z" />
    <glyph glyph-name="eacute" unicode="&#xe9;" horiz-adv-x="1102" 
d="M723 682q0 170 -139 170q-185 0 -185 -289l292 68q32 7 32 51zM1040 596l-634 -143q12 -123 89 -193t201 -70q79 0 152 32q68 36 137 73q18 0 36.5 -17.5t18.5 -35.5q0 -28 -63 -88q-194 -185 -422 -185q-225 0 -357 120q-137 125 -137 347q0 237 144 390
q147 157 383 157q202 0 320 -91q130 -100 132 -296zM453 1094h-115l279 295q91 96 155 96q47 0 79 -31t32 -78q0 -69 -105 -121z" />
    <glyph glyph-name="ecircumflex" unicode="&#xea;" horiz-adv-x="1102" 
d="M723 682q0 170 -139 170q-185 0 -185 -289l292 68q32 7 32 51zM1040 596l-634 -143q12 -123 89 -193t201 -70q79 0 152 32q68 36 137 73q18 0 36.5 -17.5t18.5 -35.5q0 -28 -63 -88q-194 -185 -422 -185q-225 0 -357 120q-137 125 -137 347q0 237 144 390
q147 157 383 157q202 0 320 -91q130 -100 132 -296zM643 1464l230 -370h-101l-221 170l-221 -170h-101l230 370h184z" />
    <glyph glyph-name="edieresis" unicode="&#xeb;" horiz-adv-x="1102" 
d="M723 682q0 170 -139 170q-185 0 -185 -289l292 68q32 7 32 51zM1040 596l-634 -143q12 -123 89 -193t201 -70q79 0 152 32q68 36 137 73q18 0 36.5 -17.5t18.5 -35.5q0 -28 -63 -88q-194 -185 -422 -185q-225 0 -357 120q-137 125 -137 347q0 237 144 390
q147 157 383 157q202 0 320 -91q130 -100 132 -296zM746 1421q59 0 101 -41t42 -100q0 -62 -40.5 -103.5t-102.5 -41.5q-61 0 -102.5 42t-41.5 103q0 57 43 99t101 42zM356 1421q60 0 101 -40.5t41 -100.5q0 -63 -39.5 -104t-102.5 -41q-61 0 -103 42t-42 103q0 57 44 99
t101 42z" />
    <glyph glyph-name="igrave" unicode="&#xec;" horiz-adv-x="694" 
d="M180 686l-86 19q-35 8 -35 57q0 70 51 90l371 143q23 9 37 9q37 0 37 -56q0 -47 -23 -92q0 -4 -1 -11.5t-1 -10.5v-593q0 -45 5 -58q9 -24 43 -33q27 -5 62 -25q7 -12 7 -59q0 -48 -5 -57q-9 -17 -50 -17q-11 0 -86.5 15.5t-136.5 15.5t-148 -15.5t-108 -15.5
q-40 0 -49 16q-7 11 -7 55q0 43 6 55q8 17 40 22q39 5 52 14q25 18 25 71v461zM561 1094h-115l-325 161q-105 52 -105 121q0 47 32 78t79 31q64 0 155 -96z" />
    <glyph glyph-name="iacute" unicode="&#xed;" horiz-adv-x="694" 
d="M180 686l-86 19q-35 8 -35 57q0 70 51 90l371 143q23 9 37 9q37 0 37 -56q0 -47 -23 -92q0 -4 -1 -11.5t-1 -10.5v-593q0 -45 5 -58q9 -24 43 -33q27 -5 62 -25q7 -12 7 -59q0 -48 -5 -57q-9 -17 -50 -17q-11 0 -86.5 15.5t-136.5 15.5t-148 -15.5t-108 -15.5
q-40 0 -49 16q-7 11 -7 55q0 43 6 55q8 17 40 22q39 5 52 14q25 18 25 71v461zM250 1094h-115l279 295q91 96 155 96q47 0 79 -31t32 -78q0 -69 -105 -121z" />
    <glyph glyph-name="icircumflex" unicode="&#xee;" horiz-adv-x="694" 
d="M180 686l-86 19q-35 8 -35 57q0 70 51 90l371 143q23 9 37 9q37 0 37 -56q0 -47 -23 -92q0 -4 -1 -11.5t-1 -10.5v-593q0 -45 5 -58q9 -24 43 -33q27 -5 62 -25q7 -12 7 -59q0 -48 -5 -57q-9 -17 -50 -17q-11 0 -86.5 15.5t-136.5 15.5t-148 -15.5t-108 -15.5
q-40 0 -49 16q-7 11 -7 55q0 43 6 55q8 17 40 22q39 5 52 14q25 18 25 71v461zM440 1464l230 -370h-101l-221 170l-221 -170h-101l230 370h184z" />
    <glyph glyph-name="idieresis" unicode="&#xef;" horiz-adv-x="694" 
d="M180 686l-86 19q-35 8 -35 57q0 70 51 90l371 143q23 9 37 9q37 0 37 -56q0 -47 -23 -92q0 -4 -1 -11.5t-1 -10.5v-593q0 -45 5 -58q9 -24 43 -33q27 -5 62 -25q7 -12 7 -59q0 -48 -5 -57q-9 -17 -50 -17q-11 0 -86.5 15.5t-136.5 15.5t-148 -15.5t-108 -15.5
q-40 0 -49 16q-7 11 -7 55q0 43 6 55q8 17 40 22q39 5 52 14q25 18 25 71v461zM543 1421q59 0 101 -41t42 -100q0 -62 -40.5 -103.5t-102.5 -41.5q-61 0 -102.5 42t-41.5 103q0 57 43 99t101 42zM153 1421q60 0 101 -40.5t41 -100.5q0 -63 -39.5 -104t-102.5 -41
q-61 0 -103 42t-42 103q0 57 44 99t101 42z" />
    <glyph glyph-name="eth" unicode="&#xf0;" horiz-adv-x="1288" 
d="M428 479q0 -346 188 -346q191 0 191 346t-191 346q-188 0 -188 -346zM649 1184l-362 -137l-41 79l350 138q-56 84 -117 151l131 117q102 -90 203 -197l307 117l43 -82l-291 -113q297 -384 297 -749q0 -257 -149 -397q-146 -136 -404 -136q-242 0 -394 129
q-161 137 -161 375q0 232 154 369q148 131 383 131q94 0 176 -43q-61 148 -125 248z" />
    <glyph glyph-name="ntilde" unicode="&#xf1;" horiz-adv-x="1311" 
d="M45 762q0 70 51 90l356 143q22 9 40 9q34 0 34 -56q0 -23 -21 -95q-3 -10 -3 -62q174 192 352 192q162 0 232 -105q71 -109 73 -378l2 -234q0 -32 10 -88q12 -27 55 -34.5t50.5 -20.5t7.5 -57q0 -48 -6 -58q-9 -16 -51 -16q-17 0 -87.5 16.5t-123.5 16.5
q-66 0 -152 -16.5t-102 -16.5q-39 0 -49 16q-6 11 -6 55q0 43 6 55q9 18 38 21q34 3 46 15q22 23 22 90v270q0 225 -160 225q-72 0 -151 -69v-424q0 -59 8 -72q11 -18 64 -31q34 -9 41 -25q4 -9 4 -52q0 -47 -6 -58q-10 -16 -52 -16q-11 0 -85 15.5t-136 15.5
q-44 0 -127.5 -15.5t-120.5 -15.5q-39 0 -49 16q-6 11 -6 55q0 43 6 55q9 18 41 22q39 5 51 14q25 19 25 77v455l-86 19q-35 8 -35 57zM981 1432q-54 -265 -234 -265q-40 0 -123 26t-114 26q-79 0 -99 -95h-84q53 265 232 265q34 0 198 -41q36 -9 45 -9q69 0 97 93h82z" />
    <glyph glyph-name="ograve" unicode="&#xf2;" horiz-adv-x="1233" 
d="M807 479q0 346 -191 346q-188 0 -188 -346t188 -346q191 0 191 346zM616 983q243 0 394 -128q161 -137 161 -376t-160 -379q-152 -133 -395 -133q-242 0 -395 133q-160 140 -160 379t161 375q151 129 394 129zM829 1094h-115l-325 161q-105 52 -105 121q0 47 32 78t79 31
q64 0 155 -96z" />
    <glyph glyph-name="oacute" unicode="&#xf3;" horiz-adv-x="1233" 
d="M807 479q0 346 -191 346q-188 0 -188 -346t188 -346q191 0 191 346zM616 983q243 0 394 -128q161 -137 161 -376t-160 -379q-152 -133 -395 -133q-242 0 -395 133q-160 140 -160 379t161 375q151 129 394 129zM518 1094h-115l279 295q91 96 155 96q47 0 79 -31t32 -78
q0 -69 -105 -121z" />
    <glyph glyph-name="ocircumflex" unicode="&#xf4;" horiz-adv-x="1233" 
d="M807 479q0 346 -191 346q-188 0 -188 -346t188 -346q191 0 191 346zM616 983q243 0 394 -128q161 -137 161 -376t-160 -379q-152 -133 -395 -133q-242 0 -395 133q-160 140 -160 379t161 375q151 129 394 129zM708 1464l230 -370h-101l-221 170l-221 -170h-101l230 370
h184z" />
    <glyph glyph-name="otilde" unicode="&#xf5;" horiz-adv-x="1233" 
d="M807 479q0 346 -191 346q-188 0 -188 -346t188 -346q191 0 191 346zM616 983q243 0 394 -128q161 -137 161 -376t-160 -379q-152 -133 -395 -133q-242 0 -395 133q-160 140 -160 379t161 375q151 129 394 129zM942 1432q-54 -265 -234 -265q-40 0 -123 26t-114 26
q-79 0 -99 -95h-84q53 265 232 265q34 0 198 -41q36 -9 45 -9q69 0 97 93h82z" />
    <glyph glyph-name="odieresis" unicode="&#xf6;" horiz-adv-x="1233" 
d="M807 479q0 346 -191 346q-188 0 -188 -346t188 -346q191 0 191 346zM616 983q243 0 394 -128q161 -137 161 -376t-160 -379q-152 -133 -395 -133q-242 0 -395 133q-160 140 -160 379t161 375q151 129 394 129zM811 1421q59 0 101 -41t42 -100q0 -62 -40.5 -103.5
t-102.5 -41.5q-61 0 -102.5 42t-41.5 103q0 57 43 99t101 42zM421 1421q60 0 101 -40.5t41 -100.5q0 -63 -39.5 -104t-102.5 -41q-61 0 -103 42t-42 103q0 57 44 99t101 42z" />
    <glyph glyph-name="divide" unicode="&#xf7;" horiz-adv-x="1706" 
d="M854 371q69 0 116.5 -48.5t47.5 -117.5t-47.5 -116.5t-116.5 -47.5t-117.5 47.5t-48.5 116.5q0 68 49 117t117 49zM254 727h1198v-231h-1198v231zM854 1182q68 0 116 -49t48 -117q0 -69 -48.5 -116.5t-117.5 -47.5t-116.5 47.5t-47.5 116.5q0 68 49 117t117 49z" />
    <glyph glyph-name="oslash" unicode="&#xf8;" horiz-adv-x="1233" 
d="M819 627l-368 -406q50 -104 165 -104q215 0 215 344q0 76 -12 166zM782 741q-63 101 -166 101q-117 0 -173 -119q-42 -89 -42 -221q0 -27 13 -162zM127 -115l-84 74l156 166q-138 134 -138 354q0 239 161 376q151 128 394 128q178 0 326 -84l137 148l84 -76l-133 -140
q141 -131 141 -352q0 -239 -161 -375q-151 -129 -394 -129q-177 0 -327 82z" />
    <glyph glyph-name="ugrave" unicode="&#xf9;" horiz-adv-x="1298" 
d="M23 772q0 58 51 76l356 129q8 8 16 8q66 0 66 -76q0 -9 -12.5 -42t-12.5 -58v-373q0 -223 152 -223q71 0 143 68v383q0 40 -24 51l-64 14t-32 51q0 81 81 94q118 19 269 69q59 20 121 40q47 0 47 -68q0 -20 -28 -50t-28 -64v-504q0 -53 35 -53q8 0 24 5t25 5q17 0 35 -35
q17 -31 17 -51q0 -15 -12 -20l-398 -166q-13 -15 -27 -15q-26 0 -45.5 20t-19.5 46q0 3 14 30.5t14 47.5v67q-171 -209 -342 -209q-297 0 -297 412v268q0 30 -7 40t-83 26q-25 5 -31 18q-3 8 -3 39zM862 1094h-115l-325 161q-105 52 -105 121q0 47 32 78t79 31q64 0 155 -96
z" />
    <glyph glyph-name="uacute" unicode="&#xfa;" horiz-adv-x="1298" 
d="M23 772q0 58 51 76l356 129q8 8 16 8q66 0 66 -76q0 -9 -12.5 -42t-12.5 -58v-373q0 -223 152 -223q71 0 143 68v383q0 40 -24 51l-64 14t-32 51q0 81 81 94q118 19 269 69q59 20 121 40q47 0 47 -68q0 -20 -28 -50t-28 -64v-504q0 -53 35 -53q8 0 24 5t25 5q17 0 35 -35
q17 -31 17 -51q0 -15 -12 -20l-398 -166q-13 -15 -27 -15q-26 0 -45.5 20t-19.5 46q0 3 14 30.5t14 47.5v67q-171 -209 -342 -209q-297 0 -297 412v268q0 30 -7 40t-83 26q-25 5 -31 18q-3 8 -3 39zM551 1094h-115l279 295q91 96 155 96q47 0 79 -31t32 -78q0 -69 -105 -121
z" />
    <glyph glyph-name="ucircumflex" unicode="&#xfb;" horiz-adv-x="1298" 
d="M23 772q0 58 51 76l356 129q8 8 16 8q66 0 66 -76q0 -9 -12.5 -42t-12.5 -58v-373q0 -223 152 -223q71 0 143 68v383q0 40 -24 51l-64 14t-32 51q0 81 81 94q118 19 269 69q59 20 121 40q47 0 47 -68q0 -20 -28 -50t-28 -64v-504q0 -53 35 -53q8 0 24 5t25 5q17 0 35 -35
q17 -31 17 -51q0 -15 -12 -20l-398 -166q-13 -15 -27 -15q-26 0 -45.5 20t-19.5 46q0 3 14 30.5t14 47.5v67q-171 -209 -342 -209q-297 0 -297 412v268q0 30 -7 40t-83 26q-25 5 -31 18q-3 8 -3 39zM741 1464l230 -370h-101l-221 170l-221 -170h-101l230 370h184z" />
    <glyph glyph-name="udieresis" unicode="&#xfc;" horiz-adv-x="1298" 
d="M23 772q0 58 51 76l356 129q8 8 16 8q66 0 66 -76q0 -9 -12.5 -42t-12.5 -58v-373q0 -223 152 -223q71 0 143 68v383q0 40 -24 51l-64 14t-32 51q0 81 81 94q118 19 269 69q59 20 121 40q47 0 47 -68q0 -20 -28 -50t-28 -64v-504q0 -53 35 -53q8 0 24 5t25 5q17 0 35 -35
q17 -31 17 -51q0 -15 -12 -20l-398 -166q-13 -15 -27 -15q-26 0 -45.5 20t-19.5 46q0 3 14 30.5t14 47.5v67q-171 -209 -342 -209q-297 0 -297 412v268q0 30 -7 40t-83 26q-25 5 -31 18q-3 8 -3 39zM844 1421q59 0 101 -41t42 -100q0 -62 -40.5 -103.5t-102.5 -41.5
q-61 0 -102.5 42t-41.5 103q0 57 43 99t101 42zM454 1421q60 0 101 -40.5t41 -100.5q0 -63 -39.5 -104t-102.5 -41q-61 0 -103 42t-42 103q0 57 44 99t101 42z" />
    <glyph glyph-name="yacute" unicode="&#xfd;" horiz-adv-x="1280" 
d="M2 872q0 52 2 61q7 34 39 34q8 0 83 -17.5t140 -17.5q76 0 178 17.5t117 17.5q24 0 31.5 -14.5t7.5 -94.5q0 -29 -45 -39t-45 -39q0 -10 238 -446l178 365q14 29 14 44q0 39 -50 59l-1 1q-46 15 -101 42q-6 7 -6 34q0 46 3 57q7 31 38 31q12 0 74 -11.5t109 -11.5
q63 0 138.5 11.5t82.5 11.5q30 0 37 -31q2 -9 2 -57q0 -27 -4 -33.5t-39 -20.5q-42 -17 -66 -43q-9 -10 -45 -65q-66 -100 -142 -254q-64 -131 -127 -262q-73 -150 -233 -439q-93 -149 -187 -219q-115 -86 -269 -86q-88 0 -97 66q-16 121 -16 131q0 18 68 18
q189 0 271.5 64.5t176.5 253.5l-403 739q-16 29 -38 51q-15 14 -74 41q-40 18 -40 51zM543 1094h-115l279 295q91 96 155 96q47 0 79 -31t32 -78q0 -69 -105 -121z" />
    <glyph glyph-name="thorn" unicode="&#xfe;" horiz-adv-x="1288" 
d="M498 295q0 -141 143 -141q112 0 171 115q46 90 46 214q0 106 -41 173q-50 81 -149 81q-95 0 -170 -75v-367zM43 1303q0 54 49 73l383 146q21 8 33 8q20 0 35 -32q12 -26 12 -50q0 -20 -27.5 -49.5t-27.5 -63.5v-542q153 188 346 188q187 0 289 -136q92 -121 92 -315
q0 -228 -138 -382q-143 -160 -368 -160q-112 0 -221 59v-268q0 -48 9 -60q11 -15 58 -18t58 -17q8 -10 8 -59q0 -57 -39 -67l-402 -101q-16 -4 -30 -4q-18 0 -37 39q-16 35 -16 57q0 12 28.5 32.5t28.5 84.5v1512q0 32 -7 42q-10 13 -55 18.5t-54 17.5q-7 8 -7 47z" />
    <glyph glyph-name="ydieresis" unicode="&#xff;" horiz-adv-x="1280" 
d="M2 872q0 52 2 61q7 34 39 34q8 0 83 -17.5t140 -17.5q76 0 178 17.5t117 17.5q24 0 31.5 -14.5t7.5 -94.5q0 -29 -45 -39t-45 -39q0 -10 238 -446l178 365q14 29 14 44q0 39 -50 59l-1 1q-46 15 -101 42q-6 7 -6 34q0 46 3 57q7 31 38 31q12 0 74 -11.5t109 -11.5
q63 0 138.5 11.5t82.5 11.5q30 0 37 -31q2 -9 2 -57q0 -27 -4 -33.5t-39 -20.5q-42 -17 -66 -43q-9 -10 -45 -65q-66 -100 -142 -254q-64 -131 -127 -262q-73 -150 -233 -439q-93 -149 -187 -219q-115 -86 -269 -86q-88 0 -97 66q-16 121 -16 131q0 18 68 18
q189 0 271.5 64.5t176.5 253.5l-403 739q-16 29 -38 51q-15 14 -74 41q-40 18 -40 51zM836 1421q59 0 101 -41t42 -100q0 -62 -40.5 -103.5t-102.5 -41.5q-61 0 -102.5 42t-41.5 103q0 57 43 99t101 42zM446 1421q60 0 101 -40.5t41 -100.5q0 -63 -39.5 -104t-102.5 -41
q-61 0 -103 42t-42 103q0 57 44 99t101 42z" />
    <glyph glyph-name="glyph271" unicode="&#x102;" horiz-adv-x="1692" 
d="M911 598l-182 426l-184 -426h366zM1649 68q0 -47 -6 -58q-9 -18 -50 -18q-19 0 -114 16.5t-172 16.5q-70 0 -163.5 -16.5t-115.5 -16.5q-38 0 -48 15q-7 11 -7 52q0 59 45 74q67 22 67 45q0 16 -8 35l-96 225h-508l-92 -209q-14 -32 -14 -65q0 -22 52 -31q59 -11 67 -22
t8 -58q0 -37 -7 -47q-9 -14 -43 -14q-32 0 -94 12t-94 12q-35 0 -104.5 -11t-104.5 -11q-30 0 -37 18q-4 9 -4 45q0 46 7.5 57.5t70.5 22.5q59 11 88 74l547 1206q17 38 44 48q15 5 68 5q54 0 62 -2q31 -6 45 -36l543 -1207q27 -60 92.5 -78t69.5 -25q6 -12 6 -54zM599 1889
q37 -123 233 -123q199 0 231 123h95q-46 -308 -326 -308q-283 0 -328 308h95z" />
    <glyph glyph-name="glyph272" unicode="&#x103;" 
d="M639 428q0 39 -25 39q-88 0 -159 -47q-80 -53 -80 -137q0 -56 34 -93.5t89 -37.5q62 0 101.5 43t39.5 106v127zM639 594v33q0 104 -44 152t-146 48q-74 0 -92 -11q-27 -17 -35 -52q-9 -39 -22 -50q-25 -22 -101 -22q-56 0 -56 37q0 -1 4 20l39 207q174 27 330 27
q216 0 315 -58q130 -76 130 -274v-311q0 -143 126 -166v-29q-117 -176 -202 -176q-116 0 -199 166q-138 -166 -340 -166q-127 0 -210 66q-91 72 -91 196q0 141 126.5 221t467.5 142zM312 1432q37 -123 233 -123q199 0 231 123h95q-46 -308 -326 -308q-283 0 -328 308h95z
" />
    <glyph glyph-name="Cacute" unicode="&#x106;" horiz-adv-x="1550" 
d="M1419 1448q0 -110 9.5 -195.5t9.5 -97.5q0 -45 -29 -59q-18 -9 -70 -9q-45 0 -61.5 13.5t-32.5 96.5q-14 75 -74 103q-57 25 -194 25q-246 0 -371 -181q-108 -157 -108 -413q0 -255 121 -415q135 -179 382 -179q129 0 201 52q46 34 80 104q32 65 51 74.5t105 9.5
q49 0 49 -41q0 -8 -22 -114q-24 -109 -40 -204q-51 -4 -259 -27q-159 -18 -259 -18q-377 0 -595 186q-232 198 -232 568q0 368 224 569q215 193 587 193q100 0 264 -17q202 -21 264 -24zM754 1602h-115l279 295q91 96 155 96q47 0 79 -31t32 -78q0 -69 -105 -121z" />
    <glyph glyph-name="cacute" unicode="&#x107;" horiz-adv-x="1034" 
d="M682 201q70 0 163.5 48t90.5 48q19 0 37 -19t18 -38q0 -34 -69 -97q-190 -174 -410 -174q-209 0 -332 135q-119 131 -119 342q0 242 158 391q155 146 399 146q117 0 206 -33q126 -47 126 -143q0 -53 -30 -88t-82 -35q-61 0 -143.5 81t-131.5 81q-160 0 -160 -277
q0 -151 62 -250q74 -118 217 -118zM455 1094h-115l279 295q91 96 155 96q47 0 79 -31t32 -78q0 -69 -105 -121z" />
    <glyph glyph-name="Ccaron" unicode="&#x10c;" horiz-adv-x="1550" 
d="M1419 1448q0 -110 9.5 -195.5t9.5 -97.5q0 -45 -29 -59q-18 -9 -70 -9q-45 0 -61.5 13.5t-32.5 96.5q-14 75 -74 103q-57 25 -194 25q-246 0 -371 -181q-108 -157 -108 -413q0 -255 121 -415q135 -179 382 -179q129 0 201 52q46 34 80 104q32 65 51 74.5t105 9.5
q49 0 49 -41q0 -8 -22 -114q-24 -109 -40 -204q-51 -4 -259 -27q-159 -18 -259 -18q-377 0 -595 186q-232 198 -232 568q0 368 224 569q215 193 587 193q100 0 264 -17q202 -21 264 -24zM631 1972l221 -172l221 172h101l-230 -370h-184l-230 370h101z" />
    <glyph glyph-name="ccaron" unicode="&#x10d;" horiz-adv-x="1034" 
d="M682 201q70 0 163.5 48t90.5 48q19 0 37 -19t18 -38q0 -34 -69 -97q-190 -174 -410 -174q-209 0 -332 135q-119 131 -119 342q0 242 158 391q155 146 399 146q117 0 206 -33q126 -47 126 -143q0 -53 -30 -88t-82 -35q-61 0 -143.5 81t-131.5 81q-160 0 -160 -277
q0 -151 62 -250q74 -118 217 -118zM332 1464l221 -172l221 172h101l-230 -370h-184l-230 370h101z" />
    <glyph glyph-name="Dslash" unicode="&#x110;" horiz-adv-x="1784" 
d="M936 684h-318v-307q0 -120 45 -169q47 -52 166 -52q242 0 364 179q105 153 105 406q0 251 -114 395q-126 158 -371 158q-91 0 -195 -12v-481h318v-117zM246 684h-182v117h182v336q0 162 -74 178q-17 3 -51 10q-15 3 -37 16q-8 10 -8 62q0 47 9 57t52 10q21 0 120 -16
t175 -16q77 0 233.5 9t235.5 9q361 0 573 -172q230 -187 230 -539q0 -353 -242 -561q-228 -196 -588 -196q-78 0 -233 17.5t-233 17.5q-65 0 -153 -15.5t-110 -15.5q-39 0 -49 16q-6 11 -6 55q0 45 7 56.5t75 27.5q74 18 74 179v358z" />
    <glyph glyph-name="dcroat" unicode="&#x111;" horiz-adv-x="1307" 
d="M797 297v440q-64 68 -135 68q-117 0 -180 -111q-52 -91 -52 -217q0 -107 41 -174q50 -82 150 -82q86 0 176 76zM797 864v193h-318v94h318v33q0 57 -62.5 60.5t-62.5 55.5q0 57 50 76l382 146q21 8 33 8q20 0 35 -32q12 -26 12 -50q0 -20 -28 -49.5t-28 -63.5v-184h164
v-94h-164v-760q0 -53 35 -53q8 0 24 5t25 5q17 0 35 -35q17 -31 17 -51q0 -15 -13 -21q-424 -194 -430 -194q-19 0 -38 31q-17 28 -17 49q0 3 15.5 30t15.5 48v65q-180 -199 -361 -199q-173 0 -278 133q-97 122 -97 300q0 226 137 390q145 173 367 173q147 0 232 -109z" />
    <glyph glyph-name="Gbreve" unicode="&#x11e;" horiz-adv-x="1640" 
d="M1409 1447q0 -110 9 -194.5t9 -97.5q0 -45 -27 -59q-18 -9 -69 -9q-61 0 -79 35q-4 8 -19 92q-21 113 -252 113q-248 0 -374 -181q-109 -157 -109 -417q0 -244 82 -396q106 -194 329 -194q122 0 152 72q14 35 14 182q0 68 -41 87l-78 16q-41 14 -41 71q0 49 9.5 60.5
t54.5 11.5q11 0 96 -8t152 -8q46 0 136.5 8t133.5 8q39 0 48 -18q5 -9 5 -54q0 -60 -59 -78t-59 -106v-219q0 -61 5 -178q-98 10 -173 10q-39 0 -179.5 -12.5t-234.5 -12.5q-363 0 -565 196q-205 198 -205 560q0 365 223 568q214 194 584 194q101 0 261 -17q212 -22 261 -25
zM588 1940q37 -123 233 -123q199 0 231 123h95q-46 -308 -326 -308q-283 0 -328 308h95z" />
    <glyph glyph-name="gbreve" unicode="&#x11f;" horiz-adv-x="1188" 
d="M360 -107q-94 -50 -94 -141q0 -88 76 -134q63 -38 156 -38q111 0 201 43q114 55 114 154q0 91 -229 102q-75 3 -224 14zM408 645q0 -203 151 -203q77 0 117 66q33 55 33 137q0 83 -33 137q-39 66 -117 66t-118 -65q-33 -55 -33 -138zM889 907q103 41 266 41v-164
q-34 2 -61 2q-13 0 -96 -10q32 -64 32 -135q0 -169 -154 -254q-123 -68 -307 -68q-51 0 -141 9q-78 -48 -78 -86q0 -37 44 -55q40 -17 153 -17q202 0 249 -3q169 -11 241 -56q96 -60 96 -201q0 -205 -191 -331t-506 -126q-426 0 -426 238q0 173 258 233q-180 23 -180 168
q0 98 111 176l120 84q-106 24 -169.5 98t-63.5 181q0 180 157 274q130 78 322 78q168 0 324 -76zM361 1432q37 -123 233 -123q199 0 231 123h95q-46 -308 -326 -308q-283 0 -328 308h95z" />
    <glyph glyph-name="glyph273" unicode="&#x128;" horiz-adv-x="866" 
d="M627 1146v-829q0 -98 16 -128q17 -35 70.5 -46t61 -24t7.5 -56q0 -44 -6 -55q-10 -16 -49 -16q-15 0 -114 16.5t-185 16.5q-77 0 -173.5 -16.5t-115.5 -16.5q-39 0 -49 16q-6 11 -6 55q0 43 7 56t77 28q74 16 74 171v827q0 150 -74 170q-35 7 -77 30q-7 12 -7 54
q0 45 6 55q9 16 49 16q18 0 114.5 -16t174.5 -16q86 0 185.5 16t113.5 16q40 0 49 -16q6 -10 6 -55q0 -41 -5 -50q-7 -15 -42 -24l-37 -10q-50 -14 -64 -68q-7 -26 -7 -101zM768 1940q-54 -265 -234 -265q-40 0 -123 26t-114 26q-79 0 -99 -95h-84q53 265 232 265
q34 0 198 -41q36 -9 45 -9q69 0 97 93h82z" />
    <glyph glyph-name="glyph274" unicode="&#x129;" horiz-adv-x="694" 
d="M180 686l-86 19q-35 8 -35 57q0 70 51 90l371 143q23 9 37 9q37 0 37 -56q0 -47 -23 -92q0 -4 -1 -11.5t-1 -10.5v-593q0 -45 5 -58q9 -24 43 -33q27 -5 62 -25q7 -12 7 -59q0 -48 -5 -57q-9 -17 -50 -17q-11 0 -86.5 15.5t-136.5 15.5t-148 -15.5t-108 -15.5
q-40 0 -49 16q-7 11 -7 55q0 43 6 55q8 17 40 22q39 5 52 14q25 18 25 71v461zM682 1432q-54 -265 -234 -265q-40 0 -123 26t-114 26q-79 0 -99 -95h-84q53 265 232 265q34 0 198 -41q36 -9 45 -9q69 0 97 93h82z" />
    <glyph glyph-name="Idotaccent" unicode="&#x130;" horiz-adv-x="866" 
d="M627 1146v-829q0 -98 16 -128q17 -35 70.5 -46t61 -24t7.5 -56q0 -44 -6 -55q-10 -16 -49 -16q-15 0 -114 16.5t-185 16.5q-77 0 -173.5 -16.5t-115.5 -16.5q-39 0 -49 16q-6 11 -6 55q0 43 7 56t77 28q74 16 74 171v827q0 150 -74 170q-35 7 -77 30q-7 12 -7 54
q0 45 6 55q9 16 49 16q18 0 114.5 -16t174.5 -16q86 0 185.5 16t113.5 16q40 0 49 -16q6 -10 6 -55q0 -41 -5 -50q-7 -15 -42 -24l-37 -10q-50 -14 -64 -68q-7 -26 -7 -101zM434 1935q63 0 106.5 -42t43.5 -105q0 -65 -42.5 -107.5t-107.5 -42.5q-61 0 -104 44.5t-43 105.5
q0 58 44.5 102.5t102.5 44.5z" />
    <glyph glyph-name="dotlessi" unicode="&#x131;" horiz-adv-x="694" 
d="M180 686l-86 19q-35 8 -35 57q0 70 51 90l371 143q23 9 37 9q37 0 37 -56q0 -47 -23 -92q0 -4 -1 -11.5t-1 -10.5v-593q0 -45 5 -58q9 -24 43 -33q27 -5 62 -25q7 -12 7 -59q0 -48 -5 -57q-9 -17 -50 -17q-11 0 -86.5 15.5t-136.5 15.5t-148 -15.5t-108 -15.5
q-40 0 -49 16q-7 11 -7 55q0 43 6 55q8 17 40 22q39 5 52 14q25 18 25 71v461z" />
    <glyph glyph-name="Lslash" unicode="&#x141;" horiz-adv-x="1292" 
d="M260 557l-242 -166v139l242 170v437q0 76 -8 106q-15 58 -66 72q-33 7 -75 30q-7 11 -7 54q0 45 6 55q10 16 50 16q15 0 114 -16t185 -16q84 0 183 16t114 16q40 0 49 -16q6 -10 6 -55q0 -41 -4 -50q-8 -17 -41 -24l-49 -10q-51 -10 -66 -72q-6 -27 -6 -106v-219l281 190
v-145l-281 -187v-434q0 -99 32.5 -133.5t131.5 -34.5q148 0 196 18q53 20 84 104q26 73 93 73q104 0 104 -52q0 -19 -26.5 -126t-42.5 -191q-280 20 -599 20q-204 0 -416 -24q-35 -4 -44 -4q-39 0 -48 16q-6 10 -6 55q0 44 6.5 56.5t75.5 27.5q74 17 74 179v231z" />
    <glyph glyph-name="lslash" unicode="&#x142;" horiz-adv-x="696" 
d="M180 598l-166 -113v113l166 115v465q0 42 -24 53q-3 1 -65 12q-36 6 -36 60t51 73l400 146q22 8 33 8q20 0 36 -32q13 -27 13 -50q0 -20 -29 -49.5t-29 -63.5v-428l166 117v-115l-166 -116v-552q0 -58 24 -79q14 -12 51 -18q32 -5 40 -17.5t8 -60.5q0 -47 -6 -57
q-9 -17 -51 -17q-16 0 -94 15.5t-137 15.5t-144.5 -15.5t-107.5 -15.5q-40 0 -49 16q-7 11 -7 55q0 43 6 55q8 17 40 22q39 5 52 14q25 18 25 71v373z" />
    <glyph glyph-name="OE" unicode="&#x152;" horiz-adv-x="2355" 
d="M889 1313q-211 0 -313 -191q-80 -151 -80 -381q0 -239 77 -390q100 -197 316 -197q212 0 313 193q78 149 78 382q0 237 -77 388q-100 196 -314 196zM1350 1169v117q0 44 -35 58t-35 63q0 43 10.5 53t50.5 10q36 0 108.5 -5t109.5 -5h249q49 0 349 10q3 -90 13.5 -185
t10.5 -97q0 -45 -30 -57q-16 -7 -70 -7q-42 0 -58 11t-31 75.5t-39 80.5q-29 18 -110 18h-188v-480h219q75 0 101 13.5t40 73.5q11 49 68 49q68 0 80 -4q30 -11 30 -62q0 -24 -5 -71.5t-5 -71.5q0 -25 4 -75t4 -75q0 -46 -27 -56q-12 -5 -69 -5q-61 0 -71.5 31t-18.5 62
q-21 32 -102 32h-248v-324q0 -93 27 -129q32 -41 122 -41q194 0 243 18q58 21 86 105q24 72 93 72q105 0 105 -52q0 -18 -27 -125t-43 -194q-294 20 -567 20q-171 0 -338 -17q-30 -3 -33 -3q-30 0 -38 16q-5 10 -5 45q0 37 35 58.5t35 58.5v127q-168 -313 -551 -313
q-321 0 -522 209q-197 205 -197 528q0 329 206 535t535 206q376 0 529 -301z" />
    <glyph glyph-name="oe" unicode="&#x153;" horiz-adv-x="1847" 
d="M1468 682q0 170 -141 170q-184 0 -184 -289l293 68q32 7 32 51zM428 479q0 -346 188 -346q191 0 191 346t-191 346q-188 0 -188 -346zM969 106q-158 -131 -353 -131q-242 0 -394 129q-161 137 -161 375q0 239 161 375q151 129 394 129q232 0 377 -147q135 147 359 147
q190 0 308 -97q126 -104 126 -290l-637 -143q12 -123 89.5 -193t201.5 -70q79 0 153 32q69 37 138 73q18 0 35.5 -17.5t17.5 -35.5q0 -26 -64 -88q-185 -179 -422 -179q-210 0 -329 131z" />
    <glyph glyph-name="Scedilla" unicode="&#x15e;" horiz-adv-x="1243" 
d="M117 315q0 43 20 56q16 10 62 10q57 0 73 -10q20 -14 36 -81q17 -74 49 -106q53 -53 171 -53q109 0 178 45q82 53 82 156q0 67 -44 116q-31 35 -207 127q-183 96 -274 182q-138 130 -138 285q0 238 173 353q146 96 398 96q69 0 185 -11q137 -12 186 -14l14 -167
q13 -155 13 -130q0 -61 -95 -61q-45 0 -63 11t-25 40q-6 25 -18 74q-23 94 -182 94q-94 0 -153 -40q-69 -46 -69 -136q0 -133 267 -258q205 -96 277 -159q122 -109 122 -283q0 -248 -185 -374q-158 -108 -419 -108q-74 0 -207 13q-144 14 -207 16q-20 299 -20 317zM666 0
v-115q54 9 78 9q77 0 126.5 -48t49.5 -125q0 -94 -69 -144q-61 -44 -158 -44q-119 0 -332 90l47 101q127 -76 240 -76q84 0 84 76q0 81 -93 81q-26 0 -61 -8v203h88z" />
    <glyph glyph-name="scedilla" unicode="&#x15f;" horiz-adv-x="1032" 
d="M455 125q188 0 188 108q0 73 -183 111t-249 80q-111 69 -111 221q0 182 149 268q120 70 316 70q41 0 162 -6q139 -7 147 -13.5t19 -207.5q0 -3 1 -9.5t1 -9.5q0 -30 -27 -37q-9 -2 -53 -2q-54 0 -68 21q-3 3 -24 76q-13 45 -154 45q-166 0 -166 -103q0 -64 181 -106
q190 -44 255 -86q113 -72 113 -226q0 -186 -154 -277q-124 -73 -325 -73q-54 0 -175 11q-139 12 -152 25q-8 6 -23 220q-2 28 -2 21q0 39 78 39q48 0 59 -7t16 -32l9 -41q12 -55 67 -71q29 -9 105 -9zM559 0v-115q54 9 78 9q77 0 126.5 -48t49.5 -125q0 -94 -69 -144
q-61 -44 -158 -44q-119 0 -332 90l47 101q127 -76 240 -76q84 0 84 76q0 81 -93 81q-26 0 -61 -8v203h88z" />
    <glyph glyph-name="Scaron" unicode="&#x160;" horiz-adv-x="1243" 
d="M117 315q0 43 20 56q16 10 62 10q57 0 73 -10q20 -14 36 -81q17 -74 49 -106q53 -53 171 -53q109 0 178 45q82 53 82 156q0 67 -44 116q-31 35 -207 127q-183 96 -274 182q-138 130 -138 285q0 238 173 353q146 96 398 96q69 0 185 -11q137 -12 186 -14l14 -167
q13 -155 13 -130q0 -61 -95 -61q-45 0 -63 11t-25 40q-6 25 -18 74q-23 94 -182 94q-94 0 -153 -40q-69 -46 -69 -136q0 -133 267 -258q205 -96 277 -159q122 -109 122 -283q0 -248 -185 -374q-158 -108 -419 -108q-74 0 -207 13q-144 14 -207 16q-20 299 -20 317zM402 1972
l221 -172l221 172h101l-230 -370h-184l-230 370h101z" />
    <glyph glyph-name="scaron" unicode="&#x161;" horiz-adv-x="1032" 
d="M455 125q188 0 188 108q0 73 -183 111t-249 80q-111 69 -111 221q0 182 149 268q120 70 316 70q41 0 162 -6q139 -7 147 -13.5t19 -207.5q0 -3 1 -9.5t1 -9.5q0 -30 -27 -37q-9 -2 -53 -2q-54 0 -68 21q-3 3 -24 76q-13 45 -154 45q-166 0 -166 -103q0 -64 181 -106
q190 -44 255 -86q113 -72 113 -226q0 -186 -154 -277q-124 -73 -325 -73q-54 0 -175 11q-139 12 -152 25q-8 6 -23 220q-2 28 -2 21q0 39 78 39q48 0 59 -7t16 -32l9 -41q12 -55 67 -71q29 -9 105 -9zM295 1464l221 -172l221 172h101l-230 -370h-184l-230 370h101z" />
    <glyph glyph-name="glyph275" unicode="&#x168;" horiz-adv-x="1663" 
d="M569 1157q0 -26 1 -76.5t1 -76.5q0 -503 76 -680t264 -177q365 0 365 641q0 46 2 138.5t2 138.5q0 186 -21.5 215.5t-90 40.5t-77 21t-8.5 61q0 42 9 54.5t49 12.5q30 0 102 -13t111 -13t114 13t113 13q39 0 49 -15q6 -11 6 -54q0 -64 -62 -78q-72 -15 -87 -65
q-6 -19 -12 -209q-12 -361 -31 -490q-41 -274 -163 -414q-151 -174 -443 -174q-300 0 -451 154q-124 127 -163 382q-19 125 -28 485q-1 76 -10 227q-6 57 -21 74.5t-68 28.5q-49 9 -56.5 21.5t-7.5 55.5q0 45 6 55q9 16 49 16q18 0 115 -16t174 -16q91 0 197 16t118 16
q40 0 50 -16q6 -10 6 -55q0 -63 -61 -75q-77 -15 -97.5 -46t-20.5 -121zM1255 1940q-54 -265 -234 -265q-40 0 -123 26t-114 26q-79 0 -99 -95h-84q53 265 232 265q34 0 198 -41q36 -9 45 -9q69 0 97 93h82z" />
    <glyph glyph-name="glyph276" unicode="&#x169;" horiz-adv-x="1298" 
d="M23 772q0 58 51 76l356 129q8 8 16 8q66 0 66 -76q0 -9 -12.5 -42t-12.5 -58v-373q0 -223 152 -223q71 0 143 68v383q0 40 -24 51l-64 14t-32 51q0 81 81 94q118 19 269 69q59 20 121 40q47 0 47 -68q0 -20 -28 -50t-28 -64v-504q0 -53 35 -53q8 0 24 5t25 5q17 0 35 -35
q17 -31 17 -51q0 -15 -12 -20l-398 -166q-13 -15 -27 -15q-26 0 -45.5 20t-19.5 46q0 3 14 30.5t14 47.5v67q-171 -209 -342 -209q-297 0 -297 412v268q0 30 -7 40t-83 26q-25 5 -31 18q-3 8 -3 39zM952 1432q-54 -265 -234 -265q-40 0 -123 26t-114 26q-79 0 -99 -95h-84
q53 265 232 265q34 0 198 -41q36 -9 45 -9q69 0 97 93h82z" />
    <glyph glyph-name="Ydieresis" unicode="&#x178;" horiz-adv-x="1593" 
d="M6 1395q0 46 6 57q9 18 49 18q18 0 114 -16t173 -16q76 0 171 16t114 16q40 0 49 -16q6 -10 6 -55q0 -42 -8 -53.5t-57 -19.5q-41 -6 -41 -36q0 -12 12 -31l305 -479l280 456q15 24 15 42q0 32 -45 44q-6 1 -68 9q-32 4 -40 24q-5 11 -5 50q0 38 6 49q9 16 43 16
q35 0 106 -12t107 -12q40 0 117.5 12t114.5 12q35 0 44 -18q5 -11 5 -51q0 -46 -9.5 -55.5t-58.5 -18.5q-57 -11 -118 -106l-408 -639v-330q0 -70 36 -94q20 -14 71 -17q46 -4 55.5 -18t9.5 -60q0 -44 -6 -55q-10 -16 -49 -16q-26 0 -124.5 16.5t-168.5 16.5
q-69 0 -173.5 -16.5t-135.5 -16.5q-39 0 -48 16q-6 10 -6 55q0 46 9 59q13 18 57 20q50 3 69 17q33 24 33 99v315l-462 680q-13 19 -40 48q-37 12 -71.5 24.5t-34.5 69.5zM992 1929q59 0 101 -41t42 -100q0 -62 -40.5 -103.5t-102.5 -41.5q-61 0 -102.5 42t-41.5 103
q0 57 43 99t101 42zM602 1929q60 0 101 -40.5t41 -100.5q0 -63 -39.5 -104t-102.5 -41q-61 0 -103 42t-42 103q0 57 44 99t101 42z" />
    <glyph glyph-name="Zcaron" unicode="&#x17d;" horiz-adv-x="1542" 
d="M918 1282h-439q-86 0 -120 -37q-18 -34 -37 -69q-22 -37 -78 -37h-49q-39 0 -33 43l39 303h6q8 0 38 -6q34 -6 44 -7q49 -4 99 -4h775q161 0 277 14v-77l-865 -1225l508 6q91 1 117.5 15.5t44 67t35.5 62.5q15 9 92 9q70 0 70 -31q0 2 -2 -14l-39 -311h-9q-52 0 -138 6
q-104 6 -137 7q-131 5 -238 5h-376q-163 0 -447 -10l-1 65zM551 1972l221 -172l221 172h101l-230 -370h-184l-230 370h101z" />
    <glyph glyph-name="zcaron" unicode="&#x17e;" horiz-adv-x="1126" 
d="M629 803h-219q-99 0 -136.5 -61.5t-97.5 -61.5q-74 0 -74 25q0 8 5 33l49 241q68 -14 188 -14q59 0 176 1t176 1q56 0 167.5 5t166.5 5q41 0 41 -74q0 -36 -12 -51l-553 -688h224q102 0 131 10.5t55 63.5q22 43 98 43q59 0 59 -39q0 -11 -2 -21l-45 -231q-118 10 -295 10
h-283q-57 0 -170 -3t-169 -3q-50 0 -50 96q0 17 13 33zM342 1464l221 -172l221 172h101l-230 -370h-184l-230 370h101z" />
    <glyph glyph-name="florin" unicode="&#x192;" horiz-adv-x="1270" 
d="M162 655q0 115 76 115h223q49 323 155 483q144 217 428 217q94 0 160 -30q88 -40 88 -123q0 -51 -33.5 -83t-84.5 -32q-58 0 -128 64.5t-90 64.5q-58 0 -82 -127l-83 -434h282q39 0 39 -37q0 -115 -74 -115h-278l-125 -626q-51 -257 -160 -386q-133 -157 -373 -157
q-96 0 -165 32q-89 42 -89 128q0 121 111 121q59 0 121 -75t86 -75q64 0 96 168l168 870h-227q-41 0 -41 37z" />
    <glyph glyph-name="glyph277" unicode="&#x1a0;" horiz-adv-x="1838" 
d="M907 150q222 0 328 189q84 150 84 390q0 242 -83 391q-106 189 -329 189q-222 0 -327 -189q-82 -150 -82 -391q0 -240 83 -390q105 -189 326 -189zM80 729q0 351 241 562q230 200 586 200q357 0 587 -200q241 -210 241 -562t-242 -561q-229 -199 -586 -199t-586 199
q-241 209 -241 561zM1509 1380q63 121 108 269q74 -19 138 -19q73 0 154 18q-54 -188 -177 -407q-133 -236 -263 -352l-1 210q178 134 178 209q0 61 -137 72z" />
    <glyph glyph-name="glyph278" unicode="&#x1a1;" horiz-adv-x="1284" 
d="M807 479q0 346 -191 346q-188 0 -188 -346t188 -346q191 0 191 346zM616 983q243 0 394 -128q161 -137 161 -376t-160 -379q-152 -133 -395 -133q-242 0 -395 133q-160 140 -160 379t161 375q151 129 394 129zM1012 912q63 121 108 269q74 -19 138 -19q73 0 154 18
q-54 -188 -177 -407q-133 -236 -263 -352l-1 210q178 134 178 209q0 61 -137 72z" />
    <glyph glyph-name="glyph279" unicode="&#x1af;" horiz-adv-x="1764" 
d="M569 1157q0 -26 1 -76.5t1 -76.5q0 -503 76 -680t264 -177q365 0 365 641q0 46 2 138.5t2 138.5q0 186 -21.5 215.5t-90 40.5t-77 21t-8.5 61q0 42 9 54.5t49 12.5q30 0 102 -13t111 -13t114 13t113 13q39 0 49 -15q6 -11 6 -54q0 -64 -62 -78q-72 -15 -87 -65
q-6 -19 -12 -209q-12 -361 -31 -490q-41 -274 -163 -414q-151 -174 -443 -174q-300 0 -451 154q-124 127 -163 382q-19 125 -28 485q-1 76 -10 227q-6 57 -21 74.5t-68 28.5q-49 9 -56.5 21.5t-7.5 55.5q0 45 6 55q9 16 49 16q18 0 115 -16t174 -16q91 0 197 16t118 16
q40 0 50 -16q6 -10 6 -55q0 -63 -61 -75q-77 -15 -97.5 -46t-20.5 -121zM1479 1380q63 121 108 269q74 -19 138 -19q73 0 154 18q-54 -188 -177 -407q-133 -236 -263 -352l-1 210q178 134 178 209q0 61 -137 72z" />
    <glyph glyph-name="glyph280" unicode="&#x1b0;" horiz-adv-x="1375" 
d="M23 772q0 58 51 76l356 129q8 8 16 8q66 0 66 -76q0 -9 -12.5 -42t-12.5 -58v-373q0 -223 152 -223q71 0 143 68v383q0 40 -24 51l-64 14t-32 51q0 81 81 94q118 19 269 69q59 20 121 40q47 0 47 -68q0 -20 -28 -50t-28 -64v-504q0 -53 35 -53q8 0 24 5t25 5q17 0 35 -35
q17 -31 17 -51q0 -15 -12 -20l-398 -166q-13 -15 -27 -15q-26 0 -45.5 20t-19.5 46q0 3 14 30.5t14 47.5v67q-171 -209 -342 -209q-297 0 -297 412v268q0 30 -7 40t-83 26q-25 5 -31 18q-3 8 -3 39zM1092 912q63 121 108 269q74 -19 138 -19q73 0 154 18q-54 -188 -177 -407
q-133 -236 -263 -352l-1 210q178 134 178 209q0 61 -137 72z" />
    <glyph glyph-name="circumflex" unicode="&#x2c6;" horiz-adv-x="1024" 
d="M604 1464l230 -370h-101l-221 170l-221 -170h-101l230 370h184z" />
    <glyph glyph-name="caron" unicode="&#x2c7;" horiz-adv-x="1024" 
d="M291 1464l221 -172l221 172h101l-230 -370h-184l-230 370h101z" />
    <glyph glyph-name="breve" unicode="&#x2d8;" horiz-adv-x="1024" 
d="M279 1432q37 -123 233 -123q199 0 231 123h95q-46 -308 -326 -308q-283 0 -328 308h95z" />
    <glyph glyph-name="dotaccent" unicode="&#x2d9;" horiz-adv-x="1024" 
d="M512 1427q63 0 106.5 -42t43.5 -105q0 -65 -42.5 -107.5t-107.5 -42.5q-61 0 -104 44.5t-43 105.5q0 58 44.5 102.5t102.5 44.5z" />
    <glyph glyph-name="ring" unicode="&#x2da;" horiz-adv-x="1024" 
d="M635 1339q0 51 -36 87t-87 36q-52 0 -86.5 -35.5t-34.5 -87.5t34.5 -86t86.5 -34q51 0 87 34.5t36 85.5zM512 1606q112 0 189 -76.5t77 -188.5q0 -113 -76.5 -189.5t-189.5 -76.5t-188.5 76.5t-75.5 189.5q0 112 76 188.5t188 76.5z" />
    <glyph glyph-name="ogonek" unicode="&#x2db;" horiz-adv-x="1024" 
d="M651 31q-166 -139 -166 -264q0 -105 86 -105q60 0 111 70l35 -21q-83 -178 -238 -178q-75 0 -122 38q-50 40 -50 114q0 173 287 346h57z" />
    <glyph glyph-name="tilde" unicode="&#x2dc;" horiz-adv-x="1024" 
d="M838 1432q-54 -265 -234 -265q-40 0 -123 26t-114 26q-79 0 -99 -95h-84q53 265 232 265q34 0 198 -41q36 -9 45 -9q69 0 97 93h82z" />
    <glyph glyph-name="hungarumlaut" unicode="&#x2dd;" horiz-adv-x="1024" 
d="M643 1094h-90l223 286q80 103 146 103q37 0 64.5 -28.5t27.5 -65.5q0 -55 -80 -107zM371 1094h-90l147 270q67 123 135 123q39 0 65.5 -26.5t26.5 -65.5q0 -51 -59 -103z" />
    <glyph glyph-name="Delta" unicode="&#x394;" horiz-adv-x="1346" 
d="M528 1085l-356 -751h713zM639 1497h76l712 -1497h-1509z" />
    <glyph glyph-name="Delta" unicode="&#x2206;" horiz-adv-x="1346" 
d="M528 1085l-356 -751h713zM639 1497h76l712 -1497h-1509z" />
    <glyph glyph-name="Omega" unicode="&#x3a9;" horiz-adv-x="1581" 
d="M1153 297v-14h283l37 120h81l-120 -403h-545q172 419 172 854q0 549 -268 549q-271 0 -271 -547q0 -429 172 -856h-544l-121 403h82l36 -120h283v14q-173 67 -267 213q-91 141 -91 330q0 295 216 480q206 177 505 177q298 0 504 -178q216 -187 216 -481q0 -187 -93 -329
q-95 -145 -267 -212z" />
    <glyph glyph-name="Omega" unicode="&#x2126;" horiz-adv-x="1581" 
d="M1153 297v-14h283l37 120h81l-120 -403h-545q172 419 172 854q0 549 -268 549q-271 0 -271 -547q0 -429 172 -856h-544l-121 403h82l36 -120h283v14q-173 67 -267 213q-91 141 -91 330q0 295 216 480q206 177 505 177q298 0 504 -178q216 -187 216 -481q0 -187 -93 -329
q-95 -145 -267 -212z" />
    <glyph glyph-name="pi" unicode="&#x3c0;" horiz-adv-x="1513" 
d="M1481 885l-68 -320h-358v-127q0 -46 6 -138t6 -138q0 -207 -152 -207q-127 0 -127 127q0 69 66.5 229.5t91.5 253.5h-377q0 -16 -1 -59q-1 -39 -1 -60q0 -47 6.5 -142t6.5 -142q0 -207 -152 -207q-127 0 -127 127q0 65 67 225t93 258h-207q-83 0 -119 -22
q-42 -26 -59 -101h-72q45 233 127 327q102 116 320 116h1030z" />
    <glyph glyph-name="glyph281" unicode="&#x1ea0;" horiz-adv-x="1692" 
d="M911 598l-182 426l-184 -426h366zM1649 68q0 -47 -6 -58q-9 -18 -50 -18q-19 0 -114 16.5t-172 16.5q-70 0 -163.5 -16.5t-115.5 -16.5q-38 0 -48 15q-7 11 -7 52q0 59 45 74q67 22 67 45q0 16 -8 35l-96 225h-508l-92 -209q-14 -32 -14 -65q0 -22 52 -31q59 -11 67 -22
t8 -58q0 -37 -7 -47q-9 -14 -43 -14q-32 0 -94 12t-94 12q-35 0 -104.5 -11t-104.5 -11q-30 0 -37 18q-4 9 -4 45q0 46 7.5 57.5t70.5 22.5q59 11 88 74l547 1206q17 38 44 48q15 5 68 5q54 0 62 -2q31 -6 45 -36l543 -1207q27 -60 92.5 -78t69.5 -25q6 -12 6 -54zM802 -145
q73 0 124 -50t51 -122q0 -73 -51 -124t-124 -51t-123.5 51t-50.5 124q0 71 51.5 121.5t122.5 50.5z" />
    <glyph glyph-name="glyph282" unicode="&#x1ea1;" 
d="M639 428q0 39 -25 39q-88 0 -159 -47q-80 -53 -80 -137q0 -56 34 -93.5t89 -37.5q62 0 101.5 43t39.5 106v127zM639 594v33q0 104 -44 152t-146 48q-74 0 -92 -11q-27 -17 -35 -52q-9 -39 -22 -50q-25 -22 -101 -22q-56 0 -56 37q0 -1 4 20l39 207q174 27 330 27
q216 0 315 -58q130 -76 130 -274v-311q0 -143 126 -166v-29q-117 -176 -202 -176q-116 0 -199 166q-138 -166 -340 -166q-127 0 -210 66q-91 72 -91 196q0 141 126.5 221t467.5 142zM556 -145q73 0 124 -50t51 -122q0 -73 -51 -124t-124 -51t-123.5 51t-50.5 124
q0 71 51.5 121.5t122.5 50.5z" />
    <glyph glyph-name="glyph283" unicode="&#x1ea2;" horiz-adv-x="1692" 
d="M911 598l-182 426l-184 -426h366zM1649 68q0 -47 -6 -58q-9 -18 -50 -18q-19 0 -114 16.5t-172 16.5q-70 0 -163.5 -16.5t-115.5 -16.5q-38 0 -48 15q-7 11 -7 52q0 59 45 74q67 22 67 45q0 16 -8 35l-96 225h-508l-92 -209q-14 -32 -14 -65q0 -22 52 -31q59 -11 67 -22
t8 -58q0 -37 -7 -47q-9 -14 -43 -14q-32 0 -94 12t-94 12q-35 0 -104.5 -11t-104.5 -11q-30 0 -37 18q-4 9 -4 45q0 46 7.5 57.5t70.5 22.5q59 11 88 74l547 1206q17 38 44 48q15 5 68 5q54 0 62 -2q31 -6 45 -36l543 -1207q27 -60 92.5 -78t69.5 -25q6 -12 6 -54zM834 2017
q79 0 131 -37q53 -40 53 -106q0 -53 -99.5 -125t-99.5 -89q0 -29 34 -29q30 0 71 35l38 -54q-61 -45 -130 -45q-55 0 -92 28q-40 31 -40 85q0 67 62.5 113.5t62.5 56.5q0 26 -32 28q-41 2 -50 11q0 2 42 61.5t49 66.5z" />
    <glyph glyph-name="glyph284" unicode="&#x1ea3;" 
d="M639 428q0 39 -25 39q-88 0 -159 -47q-80 -53 -80 -137q0 -56 34 -93.5t89 -37.5q62 0 101.5 43t39.5 106v127zM639 594v33q0 104 -44 152t-146 48q-74 0 -92 -11q-27 -17 -35 -52q-9 -39 -22 -50q-25 -22 -101 -22q-56 0 -56 37q0 -1 4 20l39 207q174 27 330 27
q216 0 315 -58q130 -76 130 -274v-311q0 -143 126 -166v-29q-117 -176 -202 -176q-116 0 -199 166q-138 -166 -340 -166q-127 0 -210 66q-91 72 -91 196q0 141 126.5 221t467.5 142zM550 1526q79 0 131 -37q53 -40 53 -106q0 -53 -99.5 -125t-99.5 -89q0 -29 34 -29
q30 0 71 35l38 -54q-61 -45 -130 -45q-55 0 -92 28q-40 31 -40 85q0 67 62.5 113.5t62.5 56.5q0 26 -32 28q-41 2 -50 11q0 2 42 61.5t49 66.5z" />
    <glyph glyph-name="glyph285" unicode="&#x1ea4;" horiz-adv-x="1692" 
d="M911 598l-182 426l-184 -426h366zM1649 68q0 -47 -6 -58q-9 -18 -50 -18q-19 0 -114 16.5t-172 16.5q-70 0 -163.5 -16.5t-115.5 -16.5q-38 0 -48 15q-7 11 -7 52q0 59 45 74q67 22 67 45q0 16 -8 35l-96 225h-508l-92 -209q-14 -32 -14 -65q0 -22 52 -31q59 -11 67 -22
t8 -58q0 -37 -7 -47q-9 -14 -43 -14q-32 0 -94 12t-94 12q-35 0 -104.5 -11t-104.5 -11q-30 0 -37 18q-4 9 -4 45q0 46 7.5 57.5t70.5 22.5q59 11 88 74l547 1206q17 38 44 48q15 5 68 5q54 0 62 -2q31 -6 45 -36l543 -1207q27 -60 92.5 -78t69.5 -25q6 -12 6 -54zM923 1922
l230 -370h-101l-221 170l-221 -170h-101l230 370h184zM675 1967h-115l279 295q91 96 155 96q47 0 79 -31t32 -78q0 -69 -105 -121z" />
    <glyph glyph-name="glyph286" unicode="&#x1ea5;" 
d="M639 428q0 39 -25 39q-88 0 -159 -47q-80 -53 -80 -137q0 -56 34 -93.5t89 -37.5q62 0 101.5 43t39.5 106v127zM639 594v33q0 104 -44 152t-146 48q-74 0 -92 -11q-27 -17 -35 -52q-9 -39 -22 -50q-25 -22 -101 -22q-56 0 -56 37q0 -1 4 20l39 207q174 27 330 27
q216 0 315 -58q130 -76 130 -274v-311q0 -143 126 -166v-29q-117 -176 -202 -176q-116 0 -199 166q-138 -166 -340 -166q-127 0 -210 66q-91 72 -91 196q0 141 126.5 221t467.5 142zM637 1464l230 -370h-101l-221 170l-221 -170h-101l230 370h184zM389 1509h-115l279 295
q91 96 155 96q47 0 79 -31t32 -78q0 -69 -105 -121z" />
    <glyph glyph-name="glyph287" unicode="&#x1ea6;" horiz-adv-x="1692" 
d="M911 598l-182 426l-184 -426h366zM1649 68q0 -47 -6 -58q-9 -18 -50 -18q-19 0 -114 16.5t-172 16.5q-70 0 -163.5 -16.5t-115.5 -16.5q-38 0 -48 15q-7 11 -7 52q0 59 45 74q67 22 67 45q0 16 -8 35l-96 225h-508l-92 -209q-14 -32 -14 -65q0 -22 52 -31q59 -11 67 -22
t8 -58q0 -37 -7 -47q-9 -14 -43 -14q-32 0 -94 12t-94 12q-35 0 -104.5 -11t-104.5 -11q-30 0 -37 18q-4 9 -4 45q0 46 7.5 57.5t70.5 22.5q59 11 88 74l547 1206q17 38 44 48q15 5 68 5q54 0 62 -2q31 -6 45 -36l543 -1207q27 -60 92.5 -78t69.5 -25q6 -12 6 -54zM923 1922
l230 -370h-101l-221 170l-221 -170h-101l230 370h184zM1100 1968h-115l-325 161q-105 52 -105 121q0 47 32 78t79 31q64 0 155 -96z" />
    <glyph glyph-name="glyph288" unicode="&#x1ea7;" 
d="M639 428q0 39 -25 39q-88 0 -159 -47q-80 -53 -80 -137q0 -56 34 -93.5t89 -37.5q62 0 101.5 43t39.5 106v127zM639 594v33q0 104 -44 152t-146 48q-74 0 -92 -11q-27 -17 -35 -52q-9 -39 -22 -50q-25 -22 -101 -22q-56 0 -56 37q0 -1 4 20l39 207q174 27 330 27
q216 0 315 -58q130 -76 130 -274v-311q0 -143 126 -166v-29q-117 -176 -202 -176q-116 0 -199 166q-138 -166 -340 -166q-127 0 -210 66q-91 72 -91 196q0 141 126.5 221t467.5 142zM637 1464l230 -370h-101l-221 170l-221 -170h-101l230 370h184zM814 1509h-115l-325 161
q-105 52 -105 121q0 47 32 78t79 31q64 0 155 -96z" />
    <glyph glyph-name="glyph289" unicode="&#x1ea8;" horiz-adv-x="1692" 
d="M911 598l-182 426l-184 -426h366zM1649 68q0 -47 -6 -58q-9 -18 -50 -18q-19 0 -114 16.5t-172 16.5q-70 0 -163.5 -16.5t-115.5 -16.5q-38 0 -48 15q-7 11 -7 52q0 59 45 74q67 22 67 45q0 16 -8 35l-96 225h-508l-92 -209q-14 -32 -14 -65q0 -22 52 -31q59 -11 67 -22
t8 -58q0 -37 -7 -47q-9 -14 -43 -14q-32 0 -94 12t-94 12q-35 0 -104.5 -11t-104.5 -11q-30 0 -37 18q-4 9 -4 45q0 46 7.5 57.5t70.5 22.5q59 11 88 74l547 1206q17 38 44 48q15 5 68 5q54 0 62 -2q31 -6 45 -36l543 -1207q27 -60 92.5 -78t69.5 -25q6 -12 6 -54zM923 1922
l230 -370h-101l-221 170l-221 -170h-101l230 370h184zM1094 2350q79 0 131 -37q53 -40 53 -106q0 -53 -99.5 -125t-99.5 -89q0 -29 34 -29q30 0 71 35l38 -54q-61 -45 -130 -45q-55 0 -92 28q-40 31 -40 85q0 67 62.5 113.5t62.5 56.5q0 26 -32 28q-41 2 -50 11q0 2 42 61.5
t49 66.5z" />
    <glyph glyph-name="glyph290" unicode="&#x1ea9;" 
d="M639 428q0 39 -25 39q-88 0 -159 -47q-80 -53 -80 -137q0 -56 34 -93.5t89 -37.5q62 0 101.5 43t39.5 106v127zM639 594v33q0 104 -44 152t-146 48q-74 0 -92 -11q-27 -17 -35 -52q-9 -39 -22 -50q-25 -22 -101 -22q-56 0 -56 37q0 -1 4 20l39 207q174 27 330 27
q216 0 315 -58q130 -76 130 -274v-311q0 -143 126 -166v-29q-117 -176 -202 -176q-116 0 -199 166q-138 -166 -340 -166q-127 0 -210 66q-91 72 -91 196q0 141 126.5 221t467.5 142zM637 1464l230 -370h-101l-221 170l-221 -170h-101l230 370h184zM808 1892q79 0 131 -37
q53 -40 53 -106q0 -53 -99.5 -125t-99.5 -89q0 -29 34 -29q30 0 71 35l38 -54q-61 -45 -130 -45q-55 0 -92 28q-40 31 -40 85q0 67 62.5 113.5t62.5 56.5q0 26 -32 28q-41 2 -50 11q0 2 42 61.5t49 66.5z" />
    <glyph glyph-name="glyph291" unicode="&#x1eaa;" horiz-adv-x="1692" 
d="M911 598l-182 426l-184 -426h366zM1649 68q0 -47 -6 -58q-9 -18 -50 -18q-19 0 -114 16.5t-172 16.5q-70 0 -163.5 -16.5t-115.5 -16.5q-38 0 -48 15q-7 11 -7 52q0 59 45 74q67 22 67 45q0 16 -8 35l-96 225h-508l-92 -209q-14 -32 -14 -65q0 -22 52 -31q59 -11 67 -22
t8 -58q0 -37 -7 -47q-9 -14 -43 -14q-32 0 -94 12t-94 12q-35 0 -104.5 -11t-104.5 -11q-30 0 -37 18q-4 9 -4 45q0 46 7.5 57.5t70.5 22.5q59 11 88 74l547 1206q17 38 44 48q15 5 68 5q54 0 62 -2q31 -6 45 -36l543 -1207q27 -60 92.5 -78t69.5 -25q6 -12 6 -54zM923 1922
l230 -370h-101l-221 170l-221 -170h-101l230 370h184zM1233 2288q-54 -265 -234 -265q-40 0 -123 26t-114 26q-79 0 -99 -95h-84q53 265 232 265q34 0 198 -41q36 -9 45 -9q69 0 97 93h82z" />
    <glyph glyph-name="glyph292" unicode="&#x1eab;" 
d="M639 428q0 39 -25 39q-88 0 -159 -47q-80 -53 -80 -137q0 -56 34 -93.5t89 -37.5q62 0 101.5 43t39.5 106v127zM639 594v33q0 104 -44 152t-146 48q-74 0 -92 -11q-27 -17 -35 -52q-9 -39 -22 -50q-25 -22 -101 -22q-56 0 -56 37q0 -1 4 20l39 207q174 27 330 27
q216 0 315 -58q130 -76 130 -274v-311q0 -143 126 -166v-29q-117 -176 -202 -176q-116 0 -199 166q-138 -166 -340 -166q-127 0 -210 66q-91 72 -91 196q0 141 126.5 221t467.5 142zM637 1464l230 -370h-101l-221 170l-221 -170h-101l230 370h184zM946 1829
q-54 -265 -234 -265q-40 0 -123 26t-114 26q-79 0 -99 -95h-84q53 265 232 265q34 0 198 -41q36 -9 45 -9q69 0 97 93h82z" />
    <glyph glyph-name="glyph293" unicode="&#x1eac;" horiz-adv-x="1692" 
d="M911 598l-182 426l-184 -426h366zM1649 68q0 -47 -6 -58q-9 -18 -50 -18q-19 0 -114 16.5t-172 16.5q-70 0 -163.5 -16.5t-115.5 -16.5q-38 0 -48 15q-7 11 -7 52q0 59 45 74q67 22 67 45q0 16 -8 35l-96 225h-508l-92 -209q-14 -32 -14 -65q0 -22 52 -31q59 -11 67 -22
t8 -58q0 -37 -7 -47q-9 -14 -43 -14q-32 0 -94 12t-94 12q-35 0 -104.5 -11t-104.5 -11q-30 0 -37 18q-4 9 -4 45q0 46 7.5 57.5t70.5 22.5q59 11 88 74l547 1206q17 38 44 48q15 5 68 5q54 0 62 -2q31 -6 45 -36l543 -1207q27 -60 92.5 -78t69.5 -25q6 -12 6 -54zM923 1922
l230 -370h-101l-221 170l-221 -170h-101l230 370h184zM802 -145q73 0 124 -50t51 -122q0 -73 -51 -124t-124 -51t-123.5 51t-50.5 124q0 71 51.5 121.5t122.5 50.5z" />
    <glyph glyph-name="glyph294" unicode="&#x1ead;" 
d="M639 428q0 39 -25 39q-88 0 -159 -47q-80 -53 -80 -137q0 -56 34 -93.5t89 -37.5q62 0 101.5 43t39.5 106v127zM639 594v33q0 104 -44 152t-146 48q-74 0 -92 -11q-27 -17 -35 -52q-9 -39 -22 -50q-25 -22 -101 -22q-56 0 -56 37q0 -1 4 20l39 207q174 27 330 27
q216 0 315 -58q130 -76 130 -274v-311q0 -143 126 -166v-29q-117 -176 -202 -176q-116 0 -199 166q-138 -166 -340 -166q-127 0 -210 66q-91 72 -91 196q0 141 126.5 221t467.5 142zM637 1464l230 -370h-101l-221 170l-221 -170h-101l230 370h184zM556 -145q73 0 124 -50
t51 -122q0 -73 -51 -124t-124 -51t-123.5 51t-50.5 124q0 71 51.5 121.5t122.5 50.5z" />
    <glyph glyph-name="glyph295" unicode="&#x1eae;" horiz-adv-x="1692" 
d="M911 598l-182 426l-184 -426h366zM1649 68q0 -47 -6 -58q-9 -18 -50 -18q-19 0 -114 16.5t-172 16.5q-70 0 -163.5 -16.5t-115.5 -16.5q-38 0 -48 15q-7 11 -7 52q0 59 45 74q67 22 67 45q0 16 -8 35l-96 225h-508l-92 -209q-14 -32 -14 -65q0 -22 52 -31q59 -11 67 -22
t8 -58q0 -37 -7 -47q-9 -14 -43 -14q-32 0 -94 12t-94 12q-35 0 -104.5 -11t-104.5 -11q-30 0 -37 18q-4 9 -4 45q0 46 7.5 57.5t70.5 22.5q59 11 88 74l547 1206q17 38 44 48q15 5 68 5q54 0 62 -2q31 -6 45 -36l543 -1207q27 -60 92.5 -78t69.5 -25q6 -12 6 -54zM599 1889
q37 -123 233 -123q199 0 231 123h95q-46 -308 -326 -308q-283 0 -328 308h95zM795 1966h-115l279 295q91 96 155 96q47 0 79 -31t32 -78q0 -69 -105 -121z" />
    <glyph glyph-name="glyph296" unicode="&#x1eaf;" 
d="M639 428q0 39 -25 39q-88 0 -159 -47q-80 -53 -80 -137q0 -56 34 -93.5t89 -37.5q62 0 101.5 43t39.5 106v127zM639 594v33q0 104 -44 152t-146 48q-74 0 -92 -11q-27 -17 -35 -52q-9 -39 -22 -50q-25 -22 -101 -22q-56 0 -56 37q0 -1 4 20l39 207q174 27 330 27
q216 0 315 -58q130 -76 130 -274v-311q0 -143 126 -166v-29q-117 -176 -202 -176q-116 0 -199 166q-138 -166 -340 -166q-127 0 -210 66q-91 72 -91 196q0 141 126.5 221t467.5 142zM312 1432q37 -123 233 -123q199 0 231 123h95q-46 -308 -326 -308q-283 0 -328 308h95z
M509 1509h-115l279 295q91 96 155 96q47 0 79 -31t32 -78q0 -69 -105 -121z" />
    <glyph glyph-name="glyph297" unicode="&#x1eb0;" horiz-adv-x="1692" 
d="M911 598l-182 426l-184 -426h366zM1649 68q0 -47 -6 -58q-9 -18 -50 -18q-19 0 -114 16.5t-172 16.5q-70 0 -163.5 -16.5t-115.5 -16.5q-38 0 -48 15q-7 11 -7 52q0 59 45 74q67 22 67 45q0 16 -8 35l-96 225h-508l-92 -209q-14 -32 -14 -65q0 -22 52 -31q59 -11 67 -22
t8 -58q0 -37 -7 -47q-9 -14 -43 -14q-32 0 -94 12t-94 12q-35 0 -104.5 -11t-104.5 -11q-30 0 -37 18q-4 9 -4 45q0 46 7.5 57.5t70.5 22.5q59 11 88 74l547 1206q17 38 44 48q15 5 68 5q54 0 62 -2q31 -6 45 -36l543 -1207q27 -60 92.5 -78t69.5 -25q6 -12 6 -54zM599 1889
q37 -123 233 -123q199 0 231 123h95q-46 -308 -326 -308q-283 0 -328 308h95zM1001 1966h-115l-325 161q-105 52 -105 121q0 47 32 78t79 31q64 0 155 -96z" />
    <glyph glyph-name="glyph298" unicode="&#x1eb1;" 
d="M639 428q0 39 -25 39q-88 0 -159 -47q-80 -53 -80 -137q0 -56 34 -93.5t89 -37.5q62 0 101.5 43t39.5 106v127zM639 594v33q0 104 -44 152t-146 48q-74 0 -92 -11q-27 -17 -35 -52q-9 -39 -22 -50q-25 -22 -101 -22q-56 0 -56 37q0 -1 4 20l39 207q174 27 330 27
q216 0 315 -58q130 -76 130 -274v-311q0 -143 126 -166v-29q-117 -176 -202 -176q-116 0 -199 166q-138 -166 -340 -166q-127 0 -210 66q-91 72 -91 196q0 141 126.5 221t467.5 142zM312 1432q37 -123 233 -123q199 0 231 123h95q-46 -308 -326 -308q-283 0 -328 308h95z
M714 1509h-115l-325 161q-105 52 -105 121q0 47 32 78t79 31q64 0 155 -96z" />
    <glyph glyph-name="glyph299" unicode="&#x1eb2;" horiz-adv-x="1692" 
d="M911 598l-182 426l-184 -426h366zM1649 68q0 -47 -6 -58q-9 -18 -50 -18q-19 0 -114 16.5t-172 16.5q-70 0 -163.5 -16.5t-115.5 -16.5q-38 0 -48 15q-7 11 -7 52q0 59 45 74q67 22 67 45q0 16 -8 35l-96 225h-508l-92 -209q-14 -32 -14 -65q0 -22 52 -31q59 -11 67 -22
t8 -58q0 -37 -7 -47q-9 -14 -43 -14q-32 0 -94 12t-94 12q-35 0 -104.5 -11t-104.5 -11q-30 0 -37 18q-4 9 -4 45q0 46 7.5 57.5t70.5 22.5q59 11 88 74l547 1206q17 38 44 48q15 5 68 5q54 0 62 -2q31 -6 45 -36l543 -1207q27 -60 92.5 -78t69.5 -25q6 -12 6 -54zM599 1889
q37 -123 233 -123q199 0 231 123h95q-46 -308 -326 -308q-283 0 -328 308h95zM833 2349q79 0 131 -37q53 -40 53 -106q0 -53 -99.5 -125t-99.5 -89q0 -29 34 -29q30 0 71 35l38 -54q-61 -45 -130 -45q-55 0 -92 28q-40 31 -40 85q0 67 62.5 113.5t62.5 56.5q0 26 -32 28
q-41 2 -50 11q0 2 42 61.5t49 66.5z" />
    <glyph glyph-name="glyph300" unicode="&#x1eb3;" 
d="M639 428q0 39 -25 39q-88 0 -159 -47q-80 -53 -80 -137q0 -56 34 -93.5t89 -37.5q62 0 101.5 43t39.5 106v127zM639 594v33q0 104 -44 152t-146 48q-74 0 -92 -11q-27 -17 -35 -52q-9 -39 -22 -50q-25 -22 -101 -22q-56 0 -56 37q0 -1 4 20l39 207q174 27 330 27
q216 0 315 -58q130 -76 130 -274v-311q0 -143 126 -166v-29q-117 -176 -202 -176q-116 0 -199 166q-138 -166 -340 -166q-127 0 -210 66q-91 72 -91 196q0 141 126.5 221t467.5 142zM312 1432q37 -123 233 -123q199 0 231 123h95q-46 -308 -326 -308q-283 0 -328 308h95z
M547 1892q79 0 131 -37q53 -40 53 -106q0 -53 -99.5 -125t-99.5 -89q0 -29 34 -29q30 0 71 35l38 -54q-61 -45 -130 -45q-55 0 -92 28q-40 31 -40 85q0 67 62.5 113.5t62.5 56.5q0 26 -32 28q-41 2 -50 11q0 2 42 61.5t49 66.5z" />
    <glyph glyph-name="glyph301" unicode="&#x1eb4;" horiz-adv-x="1692" 
d="M911 598l-182 426l-184 -426h366zM1649 68q0 -47 -6 -58q-9 -18 -50 -18q-19 0 -114 16.5t-172 16.5q-70 0 -163.5 -16.5t-115.5 -16.5q-38 0 -48 15q-7 11 -7 52q0 59 45 74q67 22 67 45q0 16 -8 35l-96 225h-508l-92 -209q-14 -32 -14 -65q0 -22 52 -31q59 -11 67 -22
t8 -58q0 -37 -7 -47q-9 -14 -43 -14q-32 0 -94 12t-94 12q-35 0 -104.5 -11t-104.5 -11q-30 0 -37 18q-4 9 -4 45q0 46 7.5 57.5t70.5 22.5q59 11 88 74l547 1206q17 38 44 48q15 5 68 5q54 0 62 -2q31 -6 45 -36l543 -1207q27 -60 92.5 -78t69.5 -25q6 -12 6 -54zM599 1889
q37 -123 233 -123q199 0 231 123h95q-46 -308 -326 -308q-283 0 -328 308h95zM1233 2287q-54 -265 -234 -265q-40 0 -123 26t-114 26q-79 0 -99 -95h-84q53 265 232 265q34 0 198 -41q36 -9 45 -9q69 0 97 93h82z" />
    <glyph glyph-name="glyph302" unicode="&#x1eb5;" 
d="M639 428q0 39 -25 39q-88 0 -159 -47q-80 -53 -80 -137q0 -56 34 -93.5t89 -37.5q62 0 101.5 43t39.5 106v127zM639 594v33q0 104 -44 152t-146 48q-74 0 -92 -11q-27 -17 -35 -52q-9 -39 -22 -50q-25 -22 -101 -22q-56 0 -56 37q0 -1 4 20l39 207q174 27 330 27
q216 0 315 -58q130 -76 130 -274v-311q0 -143 126 -166v-29q-117 -176 -202 -176q-116 0 -199 166q-138 -166 -340 -166q-127 0 -210 66q-91 72 -91 196q0 141 126.5 221t467.5 142zM312 1432q37 -123 233 -123q199 0 231 123h95q-46 -308 -326 -308q-283 0 -328 308h95z
M946 1829q-54 -265 -234 -265q-40 0 -123 26t-114 26q-79 0 -99 -95h-84q53 265 232 265q34 0 198 -41q36 -9 45 -9q69 0 97 93h82z" />
    <glyph glyph-name="glyph303" unicode="&#x1eb6;" horiz-adv-x="1692" 
d="M911 598l-182 426l-184 -426h366zM1649 68q0 -47 -6 -58q-9 -18 -50 -18q-19 0 -114 16.5t-172 16.5q-70 0 -163.5 -16.5t-115.5 -16.5q-38 0 -48 15q-7 11 -7 52q0 59 45 74q67 22 67 45q0 16 -8 35l-96 225h-508l-92 -209q-14 -32 -14 -65q0 -22 52 -31q59 -11 67 -22
t8 -58q0 -37 -7 -47q-9 -14 -43 -14q-32 0 -94 12t-94 12q-35 0 -104.5 -11t-104.5 -11q-30 0 -37 18q-4 9 -4 45q0 46 7.5 57.5t70.5 22.5q59 11 88 74l547 1206q17 38 44 48q15 5 68 5q54 0 62 -2q31 -6 45 -36l543 -1207q27 -60 92.5 -78t69.5 -25q6 -12 6 -54zM599 1889
q37 -123 233 -123q199 0 231 123h95q-46 -308 -326 -308q-283 0 -328 308h95zM802 -145q73 0 124 -50t51 -122q0 -73 -51 -124t-124 -51t-123.5 51t-50.5 124q0 71 51.5 121.5t122.5 50.5z" />
    <glyph glyph-name="glyph304" unicode="&#x1eb7;" 
d="M639 428q0 39 -25 39q-88 0 -159 -47q-80 -53 -80 -137q0 -56 34 -93.5t89 -37.5q62 0 101.5 43t39.5 106v127zM639 594v33q0 104 -44 152t-146 48q-74 0 -92 -11q-27 -17 -35 -52q-9 -39 -22 -50q-25 -22 -101 -22q-56 0 -56 37q0 -1 4 20l39 207q174 27 330 27
q216 0 315 -58q130 -76 130 -274v-311q0 -143 126 -166v-29q-117 -176 -202 -176q-116 0 -199 166q-138 -166 -340 -166q-127 0 -210 66q-91 72 -91 196q0 141 126.5 221t467.5 142zM312 1432q37 -123 233 -123q199 0 231 123h95q-46 -308 -326 -308q-283 0 -328 308h95z
M556 -145q73 0 124 -50t51 -122q0 -73 -51 -124t-124 -51t-123.5 51t-50.5 124q0 71 51.5 121.5t122.5 50.5z" />
    <glyph glyph-name="glyph305" unicode="&#x1eb8;" horiz-adv-x="1298" 
d="M227 1146q0 149 -73 169q-34 7 -77 30q-7 12 -7 54q0 50 7 62q12 20 56 20q57 0 172.5 -5.5t175 -5.5t180.5 -1t181 -1q95 0 258 12q3 -97 13.5 -194t10.5 -98q0 -45 -31 -57q-16 -7 -71 -7q-41 0 -56.5 11t-30 75.5t-39.5 80.5q-30 18 -110 18h-188v-480h219
q74 0 101 13.5t40 73.5q10 49 68 49q79 0 95 -10.5t16 -55.5q0 -24 -5.5 -71.5t-5.5 -71.5q0 -25 4.5 -75t4.5 -75q0 -45 -29 -56q-13 -5 -70 -5q-38 0 -52 7t-26.5 50t-31.5 55.5t-82 12.5h-246v-324q0 -94 28 -129q32 -41 122 -41q191 0 242 18q58 20 86 105q24 72 93 72
q105 0 105 -52q0 -18 -28 -123q-28 -108 -44 -196q-268 20 -598 20q-208 0 -431 -24q-37 -4 -48 -4q-39 0 -49 16q-6 11 -6 55q0 43 7 56t78.5 28.5t71.5 169.5v829zM639 -145q73 0 124 -50t51 -122q0 -73 -51 -124t-124 -51t-123.5 51t-50.5 124q0 71 51.5 121.5
t122.5 50.5z" />
    <glyph glyph-name="glyph306" unicode="&#x1eb9;" horiz-adv-x="1102" 
d="M723 682q0 170 -139 170q-185 0 -185 -289l292 68q32 7 32 51zM1040 596l-634 -143q12 -123 89 -193t201 -70q79 0 152 32q68 36 137 73q18 0 36.5 -17.5t18.5 -35.5q0 -28 -63 -88q-194 -185 -422 -185q-225 0 -357 120q-137 125 -137 347q0 237 144 390
q147 157 383 157q202 0 320 -91q130 -100 132 -296zM553 -145q73 0 124 -50t51 -122q0 -73 -51 -124t-124 -51t-123.5 51t-50.5 124q0 71 51.5 121.5t122.5 50.5z" />
    <glyph glyph-name="glyph307" unicode="&#x1eba;" horiz-adv-x="1298" 
d="M227 1146q0 149 -73 169q-34 7 -77 30q-7 12 -7 54q0 50 7 62q12 20 56 20q57 0 172.5 -5.5t175 -5.5t180.5 -1t181 -1q95 0 258 12q3 -97 13.5 -194t10.5 -98q0 -45 -31 -57q-16 -7 -71 -7q-41 0 -56.5 11t-30 75.5t-39.5 80.5q-30 18 -110 18h-188v-480h219
q74 0 101 13.5t40 73.5q10 49 68 49q79 0 95 -10.5t16 -55.5q0 -24 -5.5 -71.5t-5.5 -71.5q0 -25 4.5 -75t4.5 -75q0 -45 -29 -56q-13 -5 -70 -5q-38 0 -52 7t-26.5 50t-31.5 55.5t-82 12.5h-246v-324q0 -94 28 -129q32 -41 122 -41q191 0 242 18q58 20 86 105q24 72 93 72
q105 0 105 -52q0 -18 -28 -123q-28 -108 -44 -196q-268 20 -598 20q-208 0 -431 -24q-37 -4 -48 -4q-39 0 -49 16q-6 11 -6 55q0 43 7 56t78.5 28.5t71.5 169.5v829zM624 2017q79 0 131 -37q53 -40 53 -106q0 -53 -99.5 -125t-99.5 -89q0 -29 34 -29q30 0 71 35l38 -54
q-61 -45 -130 -45q-55 0 -92 28q-40 31 -40 85q0 67 62.5 113.5t62.5 56.5q0 26 -32 28q-41 2 -50 11q0 2 42 61.5t49 66.5z" />
    <glyph glyph-name="glyph308" unicode="&#x1ebb;" horiz-adv-x="1102" 
d="M723 682q0 170 -139 170q-185 0 -185 -289l292 68q32 7 32 51zM1040 596l-634 -143q12 -123 89 -193t201 -70q79 0 152 32q68 36 137 73q18 0 36.5 -17.5t18.5 -35.5q0 -28 -63 -88q-194 -185 -422 -185q-225 0 -357 120q-137 125 -137 347q0 237 144 390
q147 157 383 157q202 0 320 -91q130 -100 132 -296zM570 1526q79 0 131 -37q53 -40 53 -106q0 -53 -99.5 -125t-99.5 -89q0 -29 34 -29q30 0 71 35l38 -54q-61 -45 -130 -45q-55 0 -92 28q-40 31 -40 85q0 67 62.5 113.5t62.5 56.5q0 26 -32 28q-41 2 -50 11q0 2 42 61.5
t49 66.5z" />
    <glyph glyph-name="glyph309" unicode="&#x1ebc;" horiz-adv-x="1298" 
d="M227 1146q0 149 -73 169q-34 7 -77 30q-7 12 -7 54q0 50 7 62q12 20 56 20q57 0 172.5 -5.5t175 -5.5t180.5 -1t181 -1q95 0 258 12q3 -97 13.5 -194t10.5 -98q0 -45 -31 -57q-16 -7 -71 -7q-41 0 -56.5 11t-30 75.5t-39.5 80.5q-30 18 -110 18h-188v-480h219
q74 0 101 13.5t40 73.5q10 49 68 49q79 0 95 -10.5t16 -55.5q0 -24 -5.5 -71.5t-5.5 -71.5q0 -25 4.5 -75t4.5 -75q0 -45 -29 -56q-13 -5 -70 -5q-38 0 -52 7t-26.5 50t-31.5 55.5t-82 12.5h-246v-324q0 -94 28 -129q32 -41 122 -41q191 0 242 18q58 20 86 105q24 72 93 72
q105 0 105 -52q0 -18 -28 -123q-28 -108 -44 -196q-268 20 -598 20q-208 0 -431 -24q-37 -4 -48 -4q-39 0 -49 16q-6 11 -6 55q0 43 7 56t78.5 28.5t71.5 169.5v829zM995 1940q-54 -265 -234 -265q-40 0 -123 26t-114 26q-79 0 -99 -95h-84q53 265 232 265q34 0 198 -41
q36 -9 45 -9q69 0 97 93h82z" />
    <glyph glyph-name="glyph310" unicode="&#x1ebd;" horiz-adv-x="1102" 
d="M723 682q0 170 -139 170q-185 0 -185 -289l292 68q32 7 32 51zM1040 596l-634 -143q12 -123 89 -193t201 -70q79 0 152 32q68 36 137 73q18 0 36.5 -17.5t18.5 -35.5q0 -28 -63 -88q-194 -185 -422 -185q-225 0 -357 120q-137 125 -137 347q0 237 144 390
q147 157 383 157q202 0 320 -91q130 -100 132 -296zM892 1432q-54 -265 -234 -265q-40 0 -123 26t-114 26q-79 0 -99 -95h-84q53 265 232 265q34 0 198 -41q36 -9 45 -9q69 0 97 93h82z" />
    <glyph glyph-name="glyph311" unicode="&#x1ebe;" horiz-adv-x="1298" 
d="M227 1146q0 149 -73 169q-34 7 -77 30q-7 12 -7 54q0 50 7 62q12 20 56 20q57 0 172.5 -5.5t175 -5.5t180.5 -1t181 -1q95 0 258 12q3 -97 13.5 -194t10.5 -98q0 -45 -31 -57q-16 -7 -71 -7q-41 0 -56.5 11t-30 75.5t-39.5 80.5q-30 18 -110 18h-188v-480h219
q74 0 101 13.5t40 73.5q10 49 68 49q79 0 95 -10.5t16 -55.5q0 -24 -5.5 -71.5t-5.5 -71.5q0 -25 4.5 -75t4.5 -75q0 -45 -29 -56q-13 -5 -70 -5q-38 0 -52 7t-26.5 50t-31.5 55.5t-82 12.5h-246v-324q0 -94 28 -129q32 -41 122 -41q191 0 242 18q58 20 86 105q24 72 93 72
q105 0 105 -52q0 -18 -28 -123q-28 -108 -44 -196q-268 20 -598 20q-208 0 -431 -24q-37 -4 -48 -4q-39 0 -49 16q-6 11 -6 55q0 43 7 56t78.5 28.5t71.5 169.5v829zM733 1922l230 -370h-101l-221 170l-221 -170h-101l230 370h184zM485 1967h-115l279 295q91 96 155 96
q47 0 79 -31t32 -78q0 -69 -105 -121z" />
    <glyph glyph-name="glyph312" unicode="&#x1ebf;" horiz-adv-x="1102" 
d="M723 682q0 170 -139 170q-185 0 -185 -289l292 68q32 7 32 51zM1040 596l-634 -143q12 -123 89 -193t201 -70q79 0 152 32q68 36 137 73q18 0 36.5 -17.5t18.5 -35.5q0 -28 -63 -88q-194 -185 -422 -185q-225 0 -357 120q-137 125 -137 347q0 237 144 390
q147 157 383 157q202 0 320 -91q130 -100 132 -296zM643 1464l230 -370h-101l-221 170l-221 -170h-101l230 370h184zM395 1509h-115l279 295q91 96 155 96q47 0 79 -31t32 -78q0 -69 -105 -121z" />
    <glyph glyph-name="glyph313" unicode="&#x1ec0;" horiz-adv-x="1298" 
d="M227 1146q0 149 -73 169q-34 7 -77 30q-7 12 -7 54q0 50 7 62q12 20 56 20q57 0 172.5 -5.5t175 -5.5t180.5 -1t181 -1q95 0 258 12q3 -97 13.5 -194t10.5 -98q0 -45 -31 -57q-16 -7 -71 -7q-41 0 -56.5 11t-30 75.5t-39.5 80.5q-30 18 -110 18h-188v-480h219
q74 0 101 13.5t40 73.5q10 49 68 49q79 0 95 -10.5t16 -55.5q0 -24 -5.5 -71.5t-5.5 -71.5q0 -25 4.5 -75t4.5 -75q0 -45 -29 -56q-13 -5 -70 -5q-38 0 -52 7t-26.5 50t-31.5 55.5t-82 12.5h-246v-324q0 -94 28 -129q32 -41 122 -41q191 0 242 18q58 20 86 105q24 72 93 72
q105 0 105 -52q0 -18 -28 -123q-28 -108 -44 -196q-268 20 -598 20q-208 0 -431 -24q-37 -4 -48 -4q-39 0 -49 16q-6 11 -6 55q0 43 7 56t78.5 28.5t71.5 169.5v829zM733 1922l230 -370h-101l-221 170l-221 -170h-101l230 370h184zM910 1968h-115l-325 161q-105 52 -105 121
q0 47 32 78t79 31q64 0 155 -96z" />
    <glyph glyph-name="glyph314" unicode="&#x1ec1;" horiz-adv-x="1102" 
d="M723 682q0 170 -139 170q-185 0 -185 -289l292 68q32 7 32 51zM1040 596l-634 -143q12 -123 89 -193t201 -70q79 0 152 32q68 36 137 73q18 0 36.5 -17.5t18.5 -35.5q0 -28 -63 -88q-194 -185 -422 -185q-225 0 -357 120q-137 125 -137 347q0 237 144 390
q147 157 383 157q202 0 320 -91q130 -100 132 -296zM643 1464l230 -370h-101l-221 170l-221 -170h-101l230 370h184zM820 1509h-115l-325 161q-105 52 -105 121q0 47 32 78t79 31q64 0 155 -96z" />
    <glyph glyph-name="glyph315" unicode="&#x1ec2;" horiz-adv-x="1298" 
d="M227 1146q0 149 -73 169q-34 7 -77 30q-7 12 -7 54q0 50 7 62q12 20 56 20q57 0 172.5 -5.5t175 -5.5t180.5 -1t181 -1q95 0 258 12q3 -97 13.5 -194t10.5 -98q0 -45 -31 -57q-16 -7 -71 -7q-41 0 -56.5 11t-30 75.5t-39.5 80.5q-30 18 -110 18h-188v-480h219
q74 0 101 13.5t40 73.5q10 49 68 49q79 0 95 -10.5t16 -55.5q0 -24 -5.5 -71.5t-5.5 -71.5q0 -25 4.5 -75t4.5 -75q0 -45 -29 -56q-13 -5 -70 -5q-38 0 -52 7t-26.5 50t-31.5 55.5t-82 12.5h-246v-324q0 -94 28 -129q32 -41 122 -41q191 0 242 18q58 20 86 105q24 72 93 72
q105 0 105 -52q0 -18 -28 -123q-28 -108 -44 -196q-268 20 -598 20q-208 0 -431 -24q-37 -4 -48 -4q-39 0 -49 16q-6 11 -6 55q0 43 7 56t78.5 28.5t71.5 169.5v829zM733 1922l230 -370h-101l-221 170l-221 -170h-101l230 370h184zM904 2350q79 0 131 -37q53 -40 53 -106
q0 -53 -99.5 -125t-99.5 -89q0 -29 34 -29q30 0 71 35l38 -54q-61 -45 -130 -45q-55 0 -92 28q-40 31 -40 85q0 67 62.5 113.5t62.5 56.5q0 26 -32 28q-41 2 -50 11q0 2 42 61.5t49 66.5z" />
    <glyph glyph-name="glyph316" unicode="&#x1ec3;" horiz-adv-x="1102" 
d="M723 682q0 170 -139 170q-185 0 -185 -289l292 68q32 7 32 51zM1040 596l-634 -143q12 -123 89 -193t201 -70q79 0 152 32q68 36 137 73q18 0 36.5 -17.5t18.5 -35.5q0 -28 -63 -88q-194 -185 -422 -185q-225 0 -357 120q-137 125 -137 347q0 237 144 390
q147 157 383 157q202 0 320 -91q130 -100 132 -296zM643 1464l230 -370h-101l-221 170l-221 -170h-101l230 370h184zM814 1892q79 0 131 -37q53 -40 53 -106q0 -53 -99.5 -125t-99.5 -89q0 -29 34 -29q30 0 71 35l38 -54q-61 -45 -130 -45q-55 0 -92 28q-40 31 -40 85
q0 67 62.5 113.5t62.5 56.5q0 26 -32 28q-41 2 -50 11q0 2 42 61.5t49 66.5z" />
    <glyph glyph-name="glyph317" unicode="&#x1ec4;" horiz-adv-x="1298" 
d="M227 1146q0 149 -73 169q-34 7 -77 30q-7 12 -7 54q0 50 7 62q12 20 56 20q57 0 172.5 -5.5t175 -5.5t180.5 -1t181 -1q95 0 258 12q3 -97 13.5 -194t10.5 -98q0 -45 -31 -57q-16 -7 -71 -7q-41 0 -56.5 11t-30 75.5t-39.5 80.5q-30 18 -110 18h-188v-480h219
q74 0 101 13.5t40 73.5q10 49 68 49q79 0 95 -10.5t16 -55.5q0 -24 -5.5 -71.5t-5.5 -71.5q0 -25 4.5 -75t4.5 -75q0 -45 -29 -56q-13 -5 -70 -5q-38 0 -52 7t-26.5 50t-31.5 55.5t-82 12.5h-246v-324q0 -94 28 -129q32 -41 122 -41q191 0 242 18q58 20 86 105q24 72 93 72
q105 0 105 -52q0 -18 -28 -123q-28 -108 -44 -196q-268 20 -598 20q-208 0 -431 -24q-37 -4 -48 -4q-39 0 -49 16q-6 11 -6 55q0 43 7 56t78.5 28.5t71.5 169.5v829zM733 1922l230 -370h-101l-221 170l-221 -170h-101l230 370h184zM1043 2288q-54 -265 -234 -265
q-40 0 -123 26t-114 26q-79 0 -99 -95h-84q53 265 232 265q34 0 198 -41q36 -9 45 -9q69 0 97 93h82z" />
    <glyph glyph-name="glyph318" unicode="&#x1ec5;" horiz-adv-x="1102" 
d="M723 682q0 170 -139 170q-185 0 -185 -289l292 68q32 7 32 51zM1040 596l-634 -143q12 -123 89 -193t201 -70q79 0 152 32q68 36 137 73q18 0 36.5 -17.5t18.5 -35.5q0 -28 -63 -88q-194 -185 -422 -185q-225 0 -357 120q-137 125 -137 347q0 237 144 390
q147 157 383 157q202 0 320 -91q130 -100 132 -296zM643 1464l230 -370h-101l-221 170l-221 -170h-101l230 370h184zM952 1829q-54 -265 -234 -265q-40 0 -123 26t-114 26q-79 0 -99 -95h-84q53 265 232 265q34 0 198 -41q36 -9 45 -9q69 0 97 93h82z" />
    <glyph glyph-name="glyph319" unicode="&#x1ec6;" horiz-adv-x="1298" 
d="M227 1146q0 149 -73 169q-34 7 -77 30q-7 12 -7 54q0 50 7 62q12 20 56 20q57 0 172.5 -5.5t175 -5.5t180.5 -1t181 -1q95 0 258 12q3 -97 13.5 -194t10.5 -98q0 -45 -31 -57q-16 -7 -71 -7q-41 0 -56.5 11t-30 75.5t-39.5 80.5q-30 18 -110 18h-188v-480h219
q74 0 101 13.5t40 73.5q10 49 68 49q79 0 95 -10.5t16 -55.5q0 -24 -5.5 -71.5t-5.5 -71.5q0 -25 4.5 -75t4.5 -75q0 -45 -29 -56q-13 -5 -70 -5q-38 0 -52 7t-26.5 50t-31.5 55.5t-82 12.5h-246v-324q0 -94 28 -129q32 -41 122 -41q191 0 242 18q58 20 86 105q24 72 93 72
q105 0 105 -52q0 -18 -28 -123q-28 -108 -44 -196q-268 20 -598 20q-208 0 -431 -24q-37 -4 -48 -4q-39 0 -49 16q-6 11 -6 55q0 43 7 56t78.5 28.5t71.5 169.5v829zM733 1922l230 -370h-101l-221 170l-221 -170h-101l230 370h184zM639 -145q73 0 124 -50t51 -122
q0 -73 -51 -124t-124 -51t-123.5 51t-50.5 124q0 71 51.5 121.5t122.5 50.5z" />
    <glyph glyph-name="glyph320" unicode="&#x1ec7;" horiz-adv-x="1102" 
d="M723 682q0 170 -139 170q-185 0 -185 -289l292 68q32 7 32 51zM1040 596l-634 -143q12 -123 89 -193t201 -70q79 0 152 32q68 36 137 73q18 0 36.5 -17.5t18.5 -35.5q0 -28 -63 -88q-194 -185 -422 -185q-225 0 -357 120q-137 125 -137 347q0 237 144 390
q147 157 383 157q202 0 320 -91q130 -100 132 -296zM643 1464l230 -370h-101l-221 170l-221 -170h-101l230 370h184zM553 -145q73 0 124 -50t51 -122q0 -73 -51 -124t-124 -51t-123.5 51t-50.5 124q0 71 51.5 121.5t122.5 50.5z" />
    <glyph glyph-name="glyph321" unicode="&#x1ec8;" horiz-adv-x="866" 
d="M627 1146v-829q0 -98 16 -128q17 -35 70.5 -46t61 -24t7.5 -56q0 -44 -6 -55q-10 -16 -49 -16q-15 0 -114 16.5t-185 16.5q-77 0 -173.5 -16.5t-115.5 -16.5q-39 0 -49 16q-6 11 -6 55q0 43 7 56t77 28q74 16 74 171v827q0 150 -74 170q-35 7 -77 30q-7 12 -7 54
q0 45 6 55q9 16 49 16q18 0 114.5 -16t174.5 -16q86 0 185.5 16t113.5 16q40 0 49 -16q6 -10 6 -55q0 -41 -5 -50q-7 -15 -42 -24l-37 -10q-50 -14 -64 -68q-7 -26 -7 -101zM434 2017q79 0 131 -37q53 -40 53 -106q0 -53 -99.5 -125t-99.5 -89q0 -29 34 -29q30 0 71 35
l38 -54q-61 -45 -130 -45q-55 0 -92 28q-40 31 -40 85q0 67 62.5 113.5t62.5 56.5q0 26 -32 28q-41 2 -50 11q0 2 42 61.5t49 66.5z" />
    <glyph glyph-name="glyph322" unicode="&#x1ec9;" horiz-adv-x="694" 
d="M180 686l-86 19q-35 8 -35 57q0 70 51 90l371 143q23 9 37 9q37 0 37 -56q0 -47 -23 -92q0 -4 -1 -11.5t-1 -10.5v-593q0 -45 5 -58q9 -24 43 -33q27 -5 62 -25q7 -12 7 -59q0 -48 -5 -57q-9 -17 -50 -17q-11 0 -86.5 15.5t-136.5 15.5t-148 -15.5t-108 -15.5
q-40 0 -49 16q-7 11 -7 55q0 43 6 55q8 17 40 22q39 5 52 14q25 18 25 71v461zM340 1526q79 0 131 -37q53 -40 53 -106q0 -53 -99.5 -125t-99.5 -89q0 -29 34 -29q30 0 71 35l38 -54q-61 -45 -130 -45q-55 0 -92 28q-40 31 -40 85q0 67 62.5 113.5t62.5 56.5q0 26 -32 28
q-41 2 -50 11q0 2 42 61.5t49 66.5z" />
    <glyph glyph-name="glyph323" unicode="&#x1eca;" horiz-adv-x="866" 
d="M627 1146v-829q0 -98 16 -128q17 -35 70.5 -46t61 -24t7.5 -56q0 -44 -6 -55q-10 -16 -49 -16q-15 0 -114 16.5t-185 16.5q-77 0 -173.5 -16.5t-115.5 -16.5q-39 0 -49 16q-6 11 -6 55q0 43 7 56t77 28q74 16 74 171v827q0 150 -74 170q-35 7 -77 30q-7 12 -7 54
q0 45 6 55q9 16 49 16q18 0 114.5 -16t174.5 -16q86 0 185.5 16t113.5 16q40 0 49 -16q6 -10 6 -55q0 -41 -5 -50q-7 -15 -42 -24l-37 -10q-50 -14 -64 -68q-7 -26 -7 -101zM430 -145q73 0 124 -50t51 -122q0 -73 -51 -124t-124 -51t-123.5 51t-50.5 124q0 71 51.5 121.5
t122.5 50.5z" />
    <glyph glyph-name="glyph324" unicode="&#x1ecb;" horiz-adv-x="694" 
d="M530 241q0 -45 5 -58q9 -24 43 -33q27 -5 62 -25q7 -12 7 -59q0 -48 -5 -57q-9 -17 -50 -17q-11 0 -86.5 15.5t-136.5 15.5t-148 -15.5t-108 -15.5q-40 0 -49 16q-7 11 -7 55q0 43 6 55q8 17 40 22q39 5 52 14q25 18 25 71v461l-86 19q-35 8 -35 57q0 70 51 90l371 143
q23 9 37 9q37 0 37 -56q0 -47 -23 -92q0 -4 -1 -11.5t-1 -10.5v-593zM360 1532q85 0 144 -59.5t59 -145.5q0 -85 -59 -144t-144 -59q-82 0 -143 60.5t-61 142.5q0 85 59.5 145t144.5 60zM358 -145q73 0 124 -50t51 -122q0 -73 -51 -124t-124 -51t-123.5 51t-50.5 124
q0 71 51.5 121.5t122.5 50.5z" />
    <glyph glyph-name="glyph325" unicode="&#x1ecc;" horiz-adv-x="1817" 
d="M907 150q222 0 328 189q84 150 84 390q0 242 -83 391q-106 189 -329 189q-222 0 -327 -189q-82 -150 -82 -391q0 -240 83 -390q105 -189 326 -189zM80 729q0 351 241 562q230 200 586 200q357 0 587 -200q241 -210 241 -562t-242 -561q-229 -199 -586 -199t-586 199
q-241 209 -241 561zM914 -145q73 0 124 -50t51 -122q0 -73 -51 -124t-124 -51t-123.5 51t-50.5 124q0 71 51.5 121.5t122.5 50.5z" />
    <glyph glyph-name="glyph326" unicode="&#x1ecd;" horiz-adv-x="1233" 
d="M807 479q0 346 -191 346q-188 0 -188 -346t188 -346q191 0 191 346zM616 983q243 0 394 -128q161 -137 161 -376t-160 -379q-152 -133 -395 -133q-242 0 -395 133q-160 140 -160 379t161 375q151 129 394 129zM616 -145q73 0 124 -50t51 -122q0 -73 -51 -124t-124 -51
t-123.5 51t-50.5 124q0 71 51.5 121.5t122.5 50.5z" />
    <glyph glyph-name="glyph327" unicode="&#x1ece;" horiz-adv-x="1817" 
d="M907 150q222 0 328 189q84 150 84 390q0 242 -83 391q-106 189 -329 189q-222 0 -327 -189q-82 -150 -82 -391q0 -240 83 -390q105 -189 326 -189zM80 729q0 351 241 562q230 200 586 200q357 0 587 -200q241 -210 241 -562t-242 -561q-229 -199 -586 -199t-586 199
q-241 209 -241 561zM904 2017q79 0 131 -37q53 -40 53 -106q0 -53 -99.5 -125t-99.5 -89q0 -29 34 -29q30 0 71 35l38 -54q-61 -45 -130 -45q-55 0 -92 28q-40 31 -40 85q0 67 62.5 113.5t62.5 56.5q0 26 -32 28q-41 2 -50 11q0 2 42 61.5t49 66.5z" />
    <glyph glyph-name="glyph328" unicode="&#x1ecf;" horiz-adv-x="1233" 
d="M807 479q0 346 -191 346q-188 0 -188 -346t188 -346q191 0 191 346zM616 983q243 0 394 -128q161 -137 161 -376t-160 -379q-152 -133 -395 -133q-242 0 -395 133q-160 140 -160 379t161 375q151 129 394 129zM610 1526q79 0 131 -37q53 -40 53 -106q0 -53 -99.5 -125
t-99.5 -89q0 -29 34 -29q30 0 71 35l38 -54q-61 -45 -130 -45q-55 0 -92 28q-40 31 -40 85q0 67 62.5 113.5t62.5 56.5q0 26 -32 28q-41 2 -50 11q0 2 42 61.5t49 66.5z" />
    <glyph glyph-name="glyph329" unicode="&#x1ed0;" horiz-adv-x="1817" 
d="M907 150q222 0 328 189q84 150 84 390q0 242 -83 391q-106 189 -329 189q-222 0 -327 -189q-82 -150 -82 -391q0 -240 83 -390q105 -189 326 -189zM80 729q0 351 241 562q230 200 586 200q357 0 587 -200q241 -210 241 -562t-242 -561q-229 -199 -586 -199t-586 199
q-241 209 -241 561zM1003 1922l230 -370h-101l-221 170l-221 -170h-101l230 370h184zM755 1967h-115l279 295q91 96 155 96q47 0 79 -31t32 -78q0 -69 -105 -121z" />
    <glyph glyph-name="glyph330" unicode="&#x1ed1;" horiz-adv-x="1233" 
d="M807 479q0 346 -191 346q-188 0 -188 -346t188 -346q191 0 191 346zM616 983q243 0 394 -128q161 -137 161 -376t-160 -379q-152 -133 -395 -133q-242 0 -395 133q-160 140 -160 379t161 375q151 129 394 129zM708 1464l230 -370h-101l-221 170l-221 -170h-101l230 370
h184zM460 1509h-115l279 295q91 96 155 96q47 0 79 -31t32 -78q0 -69 -105 -121z" />
    <glyph glyph-name="glyph331" unicode="&#x1ed2;" horiz-adv-x="1817" 
d="M907 150q222 0 328 189q84 150 84 390q0 242 -83 391q-106 189 -329 189q-222 0 -327 -189q-82 -150 -82 -391q0 -240 83 -390q105 -189 326 -189zM80 729q0 351 241 562q230 200 586 200q357 0 587 -200q241 -210 241 -562t-242 -561q-229 -199 -586 -199t-586 199
q-241 209 -241 561zM1003 1922l230 -370h-101l-221 170l-221 -170h-101l230 370h184zM1180 1968h-115l-325 161q-105 52 -105 121q0 47 32 78t79 31q64 0 155 -96z" />
    <glyph glyph-name="glyph332" unicode="&#x1ed3;" horiz-adv-x="1233" 
d="M807 479q0 346 -191 346q-188 0 -188 -346t188 -346q191 0 191 346zM616 983q243 0 394 -128q161 -137 161 -376t-160 -379q-152 -133 -395 -133q-242 0 -395 133q-160 140 -160 379t161 375q151 129 394 129zM708 1464l230 -370h-101l-221 170l-221 -170h-101l230 370
h184zM885 1509h-115l-325 161q-105 52 -105 121q0 47 32 78t79 31q64 0 155 -96z" />
    <glyph glyph-name="glyph333" unicode="&#x1ed4;" horiz-adv-x="1817" 
d="M907 150q222 0 328 189q84 150 84 390q0 242 -83 391q-106 189 -329 189q-222 0 -327 -189q-82 -150 -82 -391q0 -240 83 -390q105 -189 326 -189zM80 729q0 351 241 562q230 200 586 200q357 0 587 -200q241 -210 241 -562t-242 -561q-229 -199 -586 -199t-586 199
q-241 209 -241 561zM1003 1922l230 -370h-101l-221 170l-221 -170h-101l230 370h184zM1174 2350q79 0 131 -37q53 -40 53 -106q0 -53 -99.5 -125t-99.5 -89q0 -29 34 -29q30 0 71 35l38 -54q-61 -45 -130 -45q-55 0 -92 28q-40 31 -40 85q0 67 62.5 113.5t62.5 56.5
q0 26 -32 28q-41 2 -50 11q0 2 42 61.5t49 66.5z" />
    <glyph glyph-name="glyph334" unicode="&#x1ed5;" horiz-adv-x="1233" 
d="M807 479q0 346 -191 346q-188 0 -188 -346t188 -346q191 0 191 346zM616 983q243 0 394 -128q161 -137 161 -376t-160 -379q-152 -133 -395 -133q-242 0 -395 133q-160 140 -160 379t161 375q151 129 394 129zM708 1464l230 -370h-101l-221 170l-221 -170h-101l230 370
h184zM879 1892q79 0 131 -37q53 -40 53 -106q0 -53 -99.5 -125t-99.5 -89q0 -29 34 -29q30 0 71 35l38 -54q-61 -45 -130 -45q-55 0 -92 28q-40 31 -40 85q0 67 62.5 113.5t62.5 56.5q0 26 -32 28q-41 2 -50 11q0 2 42 61.5t49 66.5z" />
    <glyph glyph-name="glyph335" unicode="&#x1ed6;" horiz-adv-x="1817" 
d="M907 150q222 0 328 189q84 150 84 390q0 242 -83 391q-106 189 -329 189q-222 0 -327 -189q-82 -150 -82 -391q0 -240 83 -390q105 -189 326 -189zM80 729q0 351 241 562q230 200 586 200q357 0 587 -200q241 -210 241 -562t-242 -561q-229 -199 -586 -199t-586 199
q-241 209 -241 561zM1003 1922l230 -370h-101l-221 170l-221 -170h-101l230 370h184zM1313 2288q-54 -265 -234 -265q-40 0 -123 26t-114 26q-79 0 -99 -95h-84q53 265 232 265q34 0 198 -41q36 -9 45 -9q69 0 97 93h82z" />
    <glyph glyph-name="glyph336" unicode="&#x1ed7;" horiz-adv-x="1233" 
d="M807 479q0 346 -191 346q-188 0 -188 -346t188 -346q191 0 191 346zM616 983q243 0 394 -128q161 -137 161 -376t-160 -379q-152 -133 -395 -133q-242 0 -395 133q-160 140 -160 379t161 375q151 129 394 129zM708 1464l230 -370h-101l-221 170l-221 -170h-101l230 370
h184zM1017 1829q-54 -265 -234 -265q-40 0 -123 26t-114 26q-79 0 -99 -95h-84q53 265 232 265q34 0 198 -41q36 -9 45 -9q69 0 97 93h82z" />
    <glyph glyph-name="glyph337" unicode="&#x1ed8;" horiz-adv-x="1817" 
d="M907 150q222 0 328 189q84 150 84 390q0 242 -83 391q-106 189 -329 189q-222 0 -327 -189q-82 -150 -82 -391q0 -240 83 -390q105 -189 326 -189zM80 729q0 351 241 562q230 200 586 200q357 0 587 -200q241 -210 241 -562t-242 -561q-229 -199 -586 -199t-586 199
q-241 209 -241 561zM1003 1922l230 -370h-101l-221 170l-221 -170h-101l230 370h184zM914 -145q73 0 124 -50t51 -122q0 -73 -51 -124t-124 -51t-123.5 51t-50.5 124q0 71 51.5 121.5t122.5 50.5z" />
    <glyph glyph-name="glyph338" unicode="&#x1ed9;" horiz-adv-x="1233" 
d="M807 479q0 346 -191 346q-188 0 -188 -346t188 -346q191 0 191 346zM616 983q243 0 394 -128q161 -137 161 -376t-160 -379q-152 -133 -395 -133q-242 0 -395 133q-160 140 -160 379t161 375q151 129 394 129zM708 1464l230 -370h-101l-221 170l-221 -170h-101l230 370
h184zM616 -145q73 0 124 -50t51 -122q0 -73 -51 -124t-124 -51t-123.5 51t-50.5 124q0 71 51.5 121.5t122.5 50.5z" />
    <glyph glyph-name="glyph339" unicode="&#x1eda;" horiz-adv-x="1838" 
d="M907 150q222 0 328 189q84 150 84 390q0 242 -83 391q-106 189 -329 189q-222 0 -327 -189q-82 -150 -82 -391q0 -240 83 -390q105 -189 326 -189zM80 729q0 351 241 562q230 200 586 200q357 0 587 -200q241 -210 241 -562t-242 -561q-229 -199 -586 -199t-586 199
q-241 209 -241 561zM1509 1380q63 121 108 269q74 -19 138 -19q73 0 154 18q-54 -188 -177 -407q-133 -236 -263 -352l-1 210q178 134 178 209q0 61 -137 72zM811 1602h-115l279 295q91 96 155 96q47 0 79 -31t32 -78q0 -69 -105 -121z" />
    <glyph glyph-name="glyph340" unicode="&#x1edb;" horiz-adv-x="1284" 
d="M807 479q0 346 -191 346q-188 0 -188 -346t188 -346q191 0 191 346zM616 983q243 0 394 -128q161 -137 161 -376t-160 -379q-152 -133 -395 -133q-242 0 -395 133q-160 140 -160 379t161 375q151 129 394 129zM1012 912q63 121 108 269q74 -19 138 -19q73 0 154 18
q-54 -188 -177 -407q-133 -236 -263 -352l-1 210q178 134 178 209q0 61 -137 72zM518 1094h-115l279 295q91 96 155 96q47 0 79 -31t32 -78q0 -69 -105 -121z" />
    <glyph glyph-name="glyph341" unicode="&#x1edc;" horiz-adv-x="1838" 
d="M907 150q222 0 328 189q84 150 84 390q0 242 -83 391q-106 189 -329 189q-222 0 -327 -189q-82 -150 -82 -391q0 -240 83 -390q105 -189 326 -189zM80 729q0 351 241 562q230 200 586 200q357 0 587 -200q241 -210 241 -562t-242 -561q-229 -199 -586 -199t-586 199
q-241 209 -241 561zM1509 1380q63 121 108 269q74 -19 138 -19q73 0 154 18q-54 -188 -177 -407q-133 -236 -263 -352l-1 210q178 134 178 209q0 61 -137 72zM1122 1602h-115l-325 161q-105 52 -105 121q0 47 32 78t79 31q64 0 155 -96z" />
    <glyph glyph-name="glyph342" unicode="&#x1edd;" horiz-adv-x="1284" 
d="M807 479q0 346 -191 346q-188 0 -188 -346t188 -346q191 0 191 346zM616 983q243 0 394 -128q161 -137 161 -376t-160 -379q-152 -133 -395 -133q-242 0 -395 133q-160 140 -160 379t161 375q151 129 394 129zM1012 912q63 121 108 269q74 -19 138 -19q73 0 154 18
q-54 -188 -177 -407q-133 -236 -263 -352l-1 210q178 134 178 209q0 61 -137 72zM829 1094h-115l-325 161q-105 52 -105 121q0 47 32 78t79 31q64 0 155 -96z" />
    <glyph glyph-name="glyph343" unicode="&#x1ede;" horiz-adv-x="1838" 
d="M907 150q222 0 328 189q84 150 84 390q0 242 -83 391q-106 189 -329 189q-222 0 -327 -189q-82 -150 -82 -391q0 -240 83 -390q105 -189 326 -189zM80 729q0 351 241 562q230 200 586 200q357 0 587 -200q241 -210 241 -562t-242 -561q-229 -199 -586 -199t-586 199
q-241 209 -241 561zM1509 1380q63 121 108 269q74 -19 138 -19q73 0 154 18q-54 -188 -177 -407q-133 -236 -263 -352l-1 210q178 134 178 209q0 61 -137 72zM904 2017q79 0 131 -37q53 -40 53 -106q0 -53 -99.5 -125t-99.5 -89q0 -29 34 -29q30 0 71 35l38 -54
q-61 -45 -130 -45q-55 0 -92 28q-40 31 -40 85q0 67 62.5 113.5t62.5 56.5q0 26 -32 28q-41 2 -50 11q0 2 42 61.5t49 66.5z" />
    <glyph glyph-name="glyph344" unicode="&#x1edf;" horiz-adv-x="1284" 
d="M807 479q0 346 -191 346q-188 0 -188 -346t188 -346q191 0 191 346zM616 983q243 0 394 -128q161 -137 161 -376t-160 -379q-152 -133 -395 -133q-242 0 -395 133q-160 140 -160 379t161 375q151 129 394 129zM1012 912q63 121 108 269q74 -19 138 -19q73 0 154 18
q-54 -188 -177 -407q-133 -236 -263 -352l-1 210q178 134 178 209q0 61 -137 72zM610 1526q79 0 131 -37q53 -40 53 -106q0 -53 -99.5 -125t-99.5 -89q0 -29 34 -29q30 0 71 35l38 -54q-61 -45 -130 -45q-55 0 -92 28q-40 31 -40 85q0 67 62.5 113.5t62.5 56.5q0 26 -32 28
q-41 2 -50 11q0 2 42 61.5t49 66.5z" />
    <glyph glyph-name="glyph345" unicode="&#x1ee0;" horiz-adv-x="1838" 
d="M907 150q222 0 328 189q84 150 84 390q0 242 -83 391q-106 189 -329 189q-222 0 -327 -189q-82 -150 -82 -391q0 -240 83 -390q105 -189 326 -189zM80 729q0 351 241 562q230 200 586 200q357 0 587 -200q241 -210 241 -562t-242 -561q-229 -199 -586 -199t-586 199
q-241 209 -241 561zM1509 1380q63 121 108 269q74 -19 138 -19q73 0 154 18q-54 -188 -177 -407q-133 -236 -263 -352l-1 210q178 134 178 209q0 61 -137 72zM1235 1940q-54 -265 -234 -265q-40 0 -123 26t-114 26q-79 0 -99 -95h-84q53 265 232 265q34 0 198 -41
q36 -9 45 -9q69 0 97 93h82z" />
    <glyph glyph-name="glyph346" unicode="&#x1ee1;" horiz-adv-x="1284" 
d="M807 479q0 346 -191 346q-188 0 -188 -346t188 -346q191 0 191 346zM616 983q243 0 394 -128q161 -137 161 -376t-160 -379q-152 -133 -395 -133q-242 0 -395 133q-160 140 -160 379t161 375q151 129 394 129zM1012 912q63 121 108 269q74 -19 138 -19q73 0 154 18
q-54 -188 -177 -407q-133 -236 -263 -352l-1 210q178 134 178 209q0 61 -137 72zM942 1432q-54 -265 -234 -265q-40 0 -123 26t-114 26q-79 0 -99 -95h-84q53 265 232 265q34 0 198 -41q36 -9 45 -9q69 0 97 93h82z" />
    <glyph glyph-name="glyph347" unicode="&#x1ee2;" horiz-adv-x="1838" 
d="M907 150q222 0 328 189q84 150 84 390q0 242 -83 391q-106 189 -329 189q-222 0 -327 -189q-82 -150 -82 -391q0 -240 83 -390q105 -189 326 -189zM80 729q0 351 241 562q230 200 586 200q357 0 587 -200q241 -210 241 -562t-242 -561q-229 -199 -586 -199t-586 199
q-241 209 -241 561zM1509 1380q63 121 108 269q74 -19 138 -19q73 0 154 18q-54 -188 -177 -407q-133 -236 -263 -352l-1 210q178 134 178 209q0 61 -137 72zM914 -145q73 0 124 -50t51 -122q0 -73 -51 -124t-124 -51t-123.5 51t-50.5 124q0 71 51.5 121.5t122.5 50.5z" />
    <glyph glyph-name="glyph348" unicode="&#x1ee3;" horiz-adv-x="1284" 
d="M807 479q0 346 -191 346q-188 0 -188 -346t188 -346q191 0 191 346zM616 983q243 0 394 -128q161 -137 161 -376t-160 -379q-152 -133 -395 -133q-242 0 -395 133q-160 140 -160 379t161 375q151 129 394 129zM1012 912q63 121 108 269q74 -19 138 -19q73 0 154 18
q-54 -188 -177 -407q-133 -236 -263 -352l-1 210q178 134 178 209q0 61 -137 72zM616 -145q73 0 124 -50t51 -122q0 -73 -51 -124t-124 -51t-123.5 51t-50.5 124q0 71 51.5 121.5t122.5 50.5z" />
    <glyph glyph-name="glyph349" unicode="&#x1ee4;" horiz-adv-x="1663" 
d="M569 1157q0 -26 1 -76.5t1 -76.5q0 -503 76 -680t264 -177q365 0 365 641q0 46 2 138.5t2 138.5q0 186 -21.5 215.5t-90 40.5t-77 21t-8.5 61q0 42 9 54.5t49 12.5q30 0 102 -13t111 -13t114 13t113 13q39 0 49 -15q6 -11 6 -54q0 -64 -62 -78q-72 -15 -87 -65
q-6 -19 -12 -209q-12 -361 -31 -490q-41 -274 -163 -414q-151 -174 -443 -174q-300 0 -451 154q-124 127 -163 382q-19 125 -28 485q-1 76 -10 227q-6 57 -21 74.5t-68 28.5q-49 9 -56.5 21.5t-7.5 55.5q0 45 6 55q9 16 49 16q18 0 115 -16t174 -16q91 0 197 16t118 16
q40 0 50 -16q6 -10 6 -55q0 -63 -61 -75q-77 -15 -97.5 -46t-20.5 -121zM846 -145q73 0 124 -50t51 -122q0 -73 -51 -124t-124 -51t-123.5 51t-50.5 124q0 71 51.5 121.5t122.5 50.5z" />
    <glyph glyph-name="glyph350" unicode="&#x1ee5;" horiz-adv-x="1298" 
d="M23 772q0 58 51 76l356 129q8 8 16 8q66 0 66 -76q0 -9 -12.5 -42t-12.5 -58v-373q0 -223 152 -223q71 0 143 68v383q0 40 -24 51l-64 14t-32 51q0 81 81 94q118 19 269 69q59 20 121 40q47 0 47 -68q0 -20 -28 -50t-28 -64v-504q0 -53 35 -53q8 0 24 5t25 5q17 0 35 -35
q17 -31 17 -51q0 -15 -12 -20l-398 -166q-13 -15 -27 -15q-26 0 -45.5 20t-19.5 46q0 3 14 30.5t14 47.5v67q-171 -209 -342 -209q-297 0 -297 412v268q0 30 -7 40t-83 26q-25 5 -31 18q-3 8 -3 39zM632 -145q73 0 124 -50t51 -122q0 -73 -51 -124t-124 -51t-123.5 51
t-50.5 124q0 71 51.5 121.5t122.5 50.5z" />
    <glyph glyph-name="glyph351" unicode="&#x1ee6;" horiz-adv-x="1663" 
d="M569 1157q0 -26 1 -76.5t1 -76.5q0 -503 76 -680t264 -177q365 0 365 641q0 46 2 138.5t2 138.5q0 186 -21.5 215.5t-90 40.5t-77 21t-8.5 61q0 42 9 54.5t49 12.5q30 0 102 -13t111 -13t114 13t113 13q39 0 49 -15q6 -11 6 -54q0 -64 -62 -78q-72 -15 -87 -65
q-6 -19 -12 -209q-12 -361 -31 -490q-41 -274 -163 -414q-151 -174 -443 -174q-300 0 -451 154q-124 127 -163 382q-19 125 -28 485q-1 76 -10 227q-6 57 -21 74.5t-68 28.5q-49 9 -56.5 21.5t-7.5 55.5q0 45 6 55q9 16 49 16q18 0 115 -16t174 -16q91 0 197 16t118 16
q40 0 50 -16q6 -10 6 -55q0 -63 -61 -75q-77 -15 -97.5 -46t-20.5 -121zM904 2017q79 0 131 -37q53 -40 53 -106q0 -53 -99.5 -125t-99.5 -89q0 -29 34 -29q30 0 71 35l38 -54q-61 -45 -130 -45q-55 0 -92 28q-40 31 -40 85q0 67 62.5 113.5t62.5 56.5q0 26 -32 28
q-41 2 -50 11q0 2 42 61.5t49 66.5z" />
    <glyph glyph-name="glyph352" unicode="&#x1ee7;" horiz-adv-x="1298" 
d="M23 772q0 58 51 76l356 129q8 8 16 8q66 0 66 -76q0 -9 -12.5 -42t-12.5 -58v-373q0 -223 152 -223q71 0 143 68v383q0 40 -24 51l-64 14t-32 51q0 81 81 94q118 19 269 69q59 20 121 40q47 0 47 -68q0 -20 -28 -50t-28 -64v-504q0 -53 35 -53q8 0 24 5t25 5q17 0 35 -35
q17 -31 17 -51q0 -15 -12 -20l-398 -166q-13 -15 -27 -15q-26 0 -45.5 20t-19.5 46q0 3 14 30.5t14 47.5v67q-171 -209 -342 -209q-297 0 -297 412v268q0 30 -7 40t-83 26q-25 5 -31 18q-3 8 -3 39zM640 1526q79 0 131 -37q53 -40 53 -106q0 -53 -99.5 -125t-99.5 -89
q0 -29 34 -29q30 0 71 35l38 -54q-61 -45 -130 -45q-55 0 -92 28q-40 31 -40 85q0 67 62.5 113.5t62.5 56.5q0 26 -32 28q-41 2 -50 11q0 2 42 61.5t49 66.5z" />
    <glyph glyph-name="glyph353" unicode="&#x1ee8;" horiz-adv-x="1764" 
d="M569 1157q0 -26 1 -76.5t1 -76.5q0 -503 76 -680t264 -177q365 0 365 641q0 46 2 138.5t2 138.5q0 186 -21.5 215.5t-90 40.5t-77 21t-8.5 61q0 42 9 54.5t49 12.5q30 0 102 -13t111 -13t114 13t113 13q39 0 49 -15q6 -11 6 -54q0 -64 -62 -78q-72 -15 -87 -65
q-6 -19 -12 -209q-12 -361 -31 -490q-41 -274 -163 -414q-151 -174 -443 -174q-300 0 -451 154q-124 127 -163 382q-19 125 -28 485q-1 76 -10 227q-6 57 -21 74.5t-68 28.5q-49 9 -56.5 21.5t-7.5 55.5q0 45 6 55q9 16 49 16q18 0 115 -16t174 -16q91 0 197 16t118 16
q40 0 50 -16q6 -10 6 -55q0 -63 -61 -75q-77 -15 -97.5 -46t-20.5 -121zM1479 1380q63 121 108 269q74 -19 138 -19q73 0 154 18q-54 -188 -177 -407q-133 -236 -263 -352l-1 210q178 134 178 209q0 61 -137 72zM787 1602h-115l279 295q91 96 155 96q47 0 79 -31t32 -78
q0 -69 -105 -121z" />
    <glyph glyph-name="glyph354" unicode="&#x1ee9;" horiz-adv-x="1375" 
d="M23 772q0 58 51 76l356 129q8 8 16 8q66 0 66 -76q0 -9 -12.5 -42t-12.5 -58v-373q0 -223 152 -223q71 0 143 68v383q0 40 -24 51l-64 14t-32 51q0 81 81 94q118 19 269 69q59 20 121 40q47 0 47 -68q0 -20 -28 -50t-28 -64v-504q0 -53 35 -53q8 0 24 5t25 5q17 0 35 -35
q17 -31 17 -51q0 -15 -12 -20l-398 -166q-13 -15 -27 -15q-26 0 -45.5 20t-19.5 46q0 3 14 30.5t14 47.5v67q-171 -209 -342 -209q-297 0 -297 412v268q0 30 -7 40t-83 26q-25 5 -31 18q-3 8 -3 39zM1092 912q63 121 108 269q74 -19 138 -19q73 0 154 18q-54 -188 -177 -407
q-133 -236 -263 -352l-1 210q178 134 178 209q0 61 -137 72zM551 1094h-115l279 295q91 96 155 96q47 0 79 -31t32 -78q0 -69 -105 -121z" />
    <glyph glyph-name="glyph355" unicode="&#x1eea;" horiz-adv-x="1764" 
d="M569 1157q0 -26 1 -76.5t1 -76.5q0 -503 76 -680t264 -177q365 0 365 641q0 46 2 138.5t2 138.5q0 186 -21.5 215.5t-90 40.5t-77 21t-8.5 61q0 42 9 54.5t49 12.5q30 0 102 -13t111 -13t114 13t113 13q39 0 49 -15q6 -11 6 -54q0 -64 -62 -78q-72 -15 -87 -65
q-6 -19 -12 -209q-12 -361 -31 -490q-41 -274 -163 -414q-151 -174 -443 -174q-300 0 -451 154q-124 127 -163 382q-19 125 -28 485q-1 76 -10 227q-6 57 -21 74.5t-68 28.5q-49 9 -56.5 21.5t-7.5 55.5q0 45 6 55q9 16 49 16q18 0 115 -16t174 -16q91 0 197 16t118 16
q40 0 50 -16q6 -10 6 -55q0 -63 -61 -75q-77 -15 -97.5 -46t-20.5 -121zM1479 1380q63 121 108 269q74 -19 138 -19q73 0 154 18q-54 -188 -177 -407q-133 -236 -263 -352l-1 210q178 134 178 209q0 61 -137 72zM1098 1602h-115l-325 161q-105 52 -105 121q0 47 32 78t79 31
q64 0 155 -96z" />
    <glyph glyph-name="glyph356" unicode="&#x1eeb;" horiz-adv-x="1375" 
d="M23 772q0 58 51 76l356 129q8 8 16 8q66 0 66 -76q0 -9 -12.5 -42t-12.5 -58v-373q0 -223 152 -223q71 0 143 68v383q0 40 -24 51l-64 14t-32 51q0 81 81 94q118 19 269 69q59 20 121 40q47 0 47 -68q0 -20 -28 -50t-28 -64v-504q0 -53 35 -53q8 0 24 5t25 5q17 0 35 -35
q17 -31 17 -51q0 -15 -12 -20l-398 -166q-13 -15 -27 -15q-26 0 -45.5 20t-19.5 46q0 3 14 30.5t14 47.5v67q-171 -209 -342 -209q-297 0 -297 412v268q0 30 -7 40t-83 26q-25 5 -31 18q-3 8 -3 39zM1092 912q63 121 108 269q74 -19 138 -19q73 0 154 18q-54 -188 -177 -407
q-133 -236 -263 -352l-1 210q178 134 178 209q0 61 -137 72zM862 1094h-115l-325 161q-105 52 -105 121q0 47 32 78t79 31q64 0 155 -96z" />
    <glyph glyph-name="glyph357" unicode="&#x1eec;" horiz-adv-x="1764" 
d="M569 1157q0 -26 1 -76.5t1 -76.5q0 -503 76 -680t264 -177q365 0 365 641q0 46 2 138.5t2 138.5q0 186 -21.5 215.5t-90 40.5t-77 21t-8.5 61q0 42 9 54.5t49 12.5q30 0 102 -13t111 -13t114 13t113 13q39 0 49 -15q6 -11 6 -54q0 -64 -62 -78q-72 -15 -87 -65
q-6 -19 -12 -209q-12 -361 -31 -490q-41 -274 -163 -414q-151 -174 -443 -174q-300 0 -451 154q-124 127 -163 382q-19 125 -28 485q-1 76 -10 227q-6 57 -21 74.5t-68 28.5q-49 9 -56.5 21.5t-7.5 55.5q0 45 6 55q9 16 49 16q18 0 115 -16t174 -16q91 0 197 16t118 16
q40 0 50 -16q6 -10 6 -55q0 -63 -61 -75q-77 -15 -97.5 -46t-20.5 -121zM1479 1380q63 121 108 269q74 -19 138 -19q73 0 154 18q-54 -188 -177 -407q-133 -236 -263 -352l-1 210q178 134 178 209q0 61 -137 72zM904 2017q79 0 131 -37q53 -40 53 -106q0 -53 -99.5 -125
t-99.5 -89q0 -29 34 -29q30 0 71 35l38 -54q-61 -45 -130 -45q-55 0 -92 28q-40 31 -40 85q0 67 62.5 113.5t62.5 56.5q0 26 -32 28q-41 2 -50 11q0 2 42 61.5t49 66.5z" />
    <glyph glyph-name="glyph358" unicode="&#x1eed;" horiz-adv-x="1375" 
d="M23 772q0 58 51 76l356 129q8 8 16 8q66 0 66 -76q0 -9 -12.5 -42t-12.5 -58v-373q0 -223 152 -223q71 0 143 68v383q0 40 -24 51l-64 14t-32 51q0 81 81 94q118 19 269 69q59 20 121 40q47 0 47 -68q0 -20 -28 -50t-28 -64v-504q0 -53 35 -53q8 0 24 5t25 5q17 0 35 -35
q17 -31 17 -51q0 -15 -12 -20l-398 -166q-13 -15 -27 -15q-26 0 -45.5 20t-19.5 46q0 3 14 30.5t14 47.5v67q-171 -209 -342 -209q-297 0 -297 412v268q0 30 -7 40t-83 26q-25 5 -31 18q-3 8 -3 39zM1092 912q63 121 108 269q74 -19 138 -19q73 0 154 18q-54 -188 -177 -407
q-133 -236 -263 -352l-1 210q178 134 178 209q0 61 -137 72zM640 1526q79 0 131 -37q53 -40 53 -106q0 -53 -99.5 -125t-99.5 -89q0 -29 34 -29q30 0 71 35l38 -54q-61 -45 -130 -45q-55 0 -92 28q-40 31 -40 85q0 67 62.5 113.5t62.5 56.5q0 26 -32 28q-41 2 -50 11
q0 2 42 61.5t49 66.5z" />
    <glyph glyph-name="glyph359" unicode="&#x1eee;" horiz-adv-x="1764" 
d="M569 1157q0 -26 1 -76.5t1 -76.5q0 -503 76 -680t264 -177q365 0 365 641q0 46 2 138.5t2 138.5q0 186 -21.5 215.5t-90 40.5t-77 21t-8.5 61q0 42 9 54.5t49 12.5q30 0 102 -13t111 -13t114 13t113 13q39 0 49 -15q6 -11 6 -54q0 -64 -62 -78q-72 -15 -87 -65
q-6 -19 -12 -209q-12 -361 -31 -490q-41 -274 -163 -414q-151 -174 -443 -174q-300 0 -451 154q-124 127 -163 382q-19 125 -28 485q-1 76 -10 227q-6 57 -21 74.5t-68 28.5q-49 9 -56.5 21.5t-7.5 55.5q0 45 6 55q9 16 49 16q18 0 115 -16t174 -16q91 0 197 16t118 16
q40 0 50 -16q6 -10 6 -55q0 -63 -61 -75q-77 -15 -97.5 -46t-20.5 -121zM1479 1380q63 121 108 269q74 -19 138 -19q73 0 154 18q-54 -188 -177 -407q-133 -236 -263 -352l-1 210q178 134 178 209q0 61 -137 72zM1255 1940q-54 -265 -234 -265q-40 0 -123 26t-114 26
q-79 0 -99 -95h-84q53 265 232 265q34 0 198 -41q36 -9 45 -9q69 0 97 93h82z" />
    <glyph glyph-name="glyph360" unicode="&#x1eef;" horiz-adv-x="1375" 
d="M23 772q0 58 51 76l356 129q8 8 16 8q66 0 66 -76q0 -9 -12.5 -42t-12.5 -58v-373q0 -223 152 -223q71 0 143 68v383q0 40 -24 51l-64 14t-32 51q0 81 81 94q118 19 269 69q59 20 121 40q47 0 47 -68q0 -20 -28 -50t-28 -64v-504q0 -53 35 -53q8 0 24 5t25 5q17 0 35 -35
q17 -31 17 -51q0 -15 -12 -20l-398 -166q-13 -15 -27 -15q-26 0 -45.5 20t-19.5 46q0 3 14 30.5t14 47.5v67q-171 -209 -342 -209q-297 0 -297 412v268q0 30 -7 40t-83 26q-25 5 -31 18q-3 8 -3 39zM1092 912q63 121 108 269q74 -19 138 -19q73 0 154 18q-54 -188 -177 -407
q-133 -236 -263 -352l-1 210q178 134 178 209q0 61 -137 72zM952 1432q-54 -265 -234 -265q-40 0 -123 26t-114 26q-79 0 -99 -95h-84q53 265 232 265q34 0 198 -41q36 -9 45 -9q69 0 97 93h82z" />
    <glyph glyph-name="glyph361" unicode="&#x1ef0;" horiz-adv-x="1764" 
d="M569 1157q0 -26 1 -76.5t1 -76.5q0 -503 76 -680t264 -177q365 0 365 641q0 46 2 138.5t2 138.5q0 186 -21.5 215.5t-90 40.5t-77 21t-8.5 61q0 42 9 54.5t49 12.5q30 0 102 -13t111 -13t114 13t113 13q39 0 49 -15q6 -11 6 -54q0 -64 -62 -78q-72 -15 -87 -65
q-6 -19 -12 -209q-12 -361 -31 -490q-41 -274 -163 -414q-151 -174 -443 -174q-300 0 -451 154q-124 127 -163 382q-19 125 -28 485q-1 76 -10 227q-6 57 -21 74.5t-68 28.5q-49 9 -56.5 21.5t-7.5 55.5q0 45 6 55q9 16 49 16q18 0 115 -16t174 -16q91 0 197 16t118 16
q40 0 50 -16q6 -10 6 -55q0 -63 -61 -75q-77 -15 -97.5 -46t-20.5 -121zM1479 1380q63 121 108 269q74 -19 138 -19q73 0 154 18q-54 -188 -177 -407q-133 -236 -263 -352l-1 210q178 134 178 209q0 61 -137 72zM846 -145q73 0 124 -50t51 -122q0 -73 -51 -124t-124 -51
t-123.5 51t-50.5 124q0 71 51.5 121.5t122.5 50.5z" />
    <glyph glyph-name="glyph362" unicode="&#x1ef1;" horiz-adv-x="1375" 
d="M23 772q0 58 51 76l356 129q8 8 16 8q66 0 66 -76q0 -9 -12.5 -42t-12.5 -58v-373q0 -223 152 -223q71 0 143 68v383q0 40 -24 51l-64 14t-32 51q0 81 81 94q118 19 269 69q59 20 121 40q47 0 47 -68q0 -20 -28 -50t-28 -64v-504q0 -53 35 -53q8 0 24 5t25 5q17 0 35 -35
q17 -31 17 -51q0 -15 -12 -20l-398 -166q-13 -15 -27 -15q-26 0 -45.5 20t-19.5 46q0 3 14 30.5t14 47.5v67q-171 -209 -342 -209q-297 0 -297 412v268q0 30 -7 40t-83 26q-25 5 -31 18q-3 8 -3 39zM1092 912q63 121 108 269q74 -19 138 -19q73 0 154 18q-54 -188 -177 -407
q-133 -236 -263 -352l-1 210q178 134 178 209q0 61 -137 72zM632 -145q73 0 124 -50t51 -122q0 -73 -51 -124t-124 -51t-123.5 51t-50.5 124q0 71 51.5 121.5t122.5 50.5z" />
    <glyph glyph-name="glyph363" unicode="&#x1ef2;" horiz-adv-x="1593" 
d="M6 1395q0 46 6 57q9 18 49 18q18 0 114 -16t173 -16q76 0 171 16t114 16q40 0 49 -16q6 -10 6 -55q0 -42 -8 -53.5t-57 -19.5q-41 -6 -41 -36q0 -12 12 -31l305 -479l280 456q15 24 15 42q0 32 -45 44q-6 1 -68 9q-32 4 -40 24q-5 11 -5 50q0 38 6 49q9 16 43 16
q35 0 106 -12t107 -12q40 0 117.5 12t114.5 12q35 0 44 -18q5 -11 5 -51q0 -46 -9.5 -55.5t-58.5 -18.5q-57 -11 -118 -106l-408 -639v-330q0 -70 36 -94q20 -14 71 -17q46 -4 55.5 -18t9.5 -60q0 -44 -6 -55q-10 -16 -49 -16q-26 0 -124.5 16.5t-168.5 16.5
q-69 0 -173.5 -16.5t-135.5 -16.5q-39 0 -48 16q-6 10 -6 55q0 46 9 59q13 18 57 20q50 3 69 17q33 24 33 99v315l-462 680q-13 19 -40 48q-37 12 -71.5 24.5t-34.5 69.5zM1058 1602h-115l-325 161q-105 52 -105 121q0 47 32 78t79 31q64 0 155 -96z" />
    <glyph glyph-name="glyph364" unicode="&#x1ef3;" horiz-adv-x="1280" 
d="M2 872q0 52 2 61q7 34 39 34q8 0 83 -17.5t140 -17.5q76 0 178 17.5t117 17.5q24 0 31.5 -14.5t7.5 -94.5q0 -29 -45 -39t-45 -39q0 -10 238 -446l178 365q14 29 14 44q0 39 -50 59l-1 1q-46 15 -101 42q-6 7 -6 34q0 46 3 57q7 31 38 31q12 0 74 -11.5t109 -11.5
q63 0 138.5 11.5t82.5 11.5q30 0 37 -31q2 -9 2 -57q0 -27 -4 -33.5t-39 -20.5q-42 -17 -66 -43q-9 -10 -45 -65q-66 -100 -142 -254q-64 -131 -127 -262q-73 -150 -233 -439q-93 -149 -187 -219q-115 -86 -269 -86q-88 0 -97 66q-16 121 -16 131q0 18 68 18
q189 0 271.5 64.5t176.5 253.5l-403 739q-16 29 -38 51q-15 14 -74 41q-40 18 -40 51zM912 1094h-115l-325 161q-105 52 -105 121q0 47 32 78t79 31q64 0 155 -96z" />
    <glyph glyph-name="glyph365" unicode="&#x1ef4;" horiz-adv-x="1593" 
d="M6 1395q0 46 6 57q9 18 49 18q18 0 114 -16t173 -16q76 0 171 16t114 16q40 0 49 -16q6 -10 6 -55q0 -42 -8 -53.5t-57 -19.5q-41 -6 -41 -36q0 -12 12 -31l305 -479l280 456q15 24 15 42q0 32 -45 44q-6 1 -68 9q-32 4 -40 24q-5 11 -5 50q0 38 6 49q9 16 43 16
q35 0 106 -12t107 -12q40 0 117.5 12t114.5 12q35 0 44 -18q5 -11 5 -51q0 -46 -9.5 -55.5t-58.5 -18.5q-57 -11 -118 -106l-408 -639v-330q0 -70 36 -94q20 -14 71 -17q46 -4 55.5 -18t9.5 -60q0 -44 -6 -55q-10 -16 -49 -16q-26 0 -124.5 16.5t-168.5 16.5
q-69 0 -173.5 -16.5t-135.5 -16.5q-39 0 -48 16q-6 10 -6 55q0 46 9 59q13 18 57 20q50 3 69 17q33 24 33 99v315l-462 680q-13 19 -40 48q-37 12 -71.5 24.5t-34.5 69.5zM806 -145q73 0 124 -50t51 -122q0 -73 -51 -124t-124 -51t-123.5 51t-50.5 124q0 71 51.5 121.5
t122.5 50.5z" />
    <glyph glyph-name="glyph366" unicode="&#x1ef5;" horiz-adv-x="1280" 
d="M2 872q0 52 2 61q7 34 39 34q8 0 83 -17.5t140 -17.5q76 0 178 17.5t117 17.5q24 0 31.5 -14.5t7.5 -94.5q0 -29 -45 -39t-45 -39q0 -10 238 -446l178 365q14 29 14 44q0 39 -50 59l-1 1q-46 15 -101 42q-6 7 -6 34q0 46 3 57q7 31 38 31q12 0 74 -11.5t109 -11.5
q63 0 138.5 11.5t82.5 11.5q30 0 37 -31q2 -9 2 -57q0 -27 -4 -33.5t-39 -20.5q-42 -17 -66 -43q-9 -10 -45 -65q-66 -100 -142 -254q-64 -131 -127 -262q-73 -150 -233 -439q-93 -149 -187 -219q-115 -86 -269 -86q-88 0 -97 66q-16 121 -16 131q0 18 68 18
q189 0 271.5 64.5t176.5 253.5l-403 739q-16 29 -38 51q-15 14 -74 41q-40 18 -40 51zM866 -145q73 0 124 -50t51 -122q0 -73 -51 -124t-124 -51t-123.5 51t-50.5 124q0 71 51.5 121.5t122.5 50.5z" />
    <glyph glyph-name="glyph367" unicode="&#x1ef6;" horiz-adv-x="1593" 
d="M6 1395q0 46 6 57q9 18 49 18q18 0 114 -16t173 -16q76 0 171 16t114 16q40 0 49 -16q6 -10 6 -55q0 -42 -8 -53.5t-57 -19.5q-41 -6 -41 -36q0 -12 12 -31l305 -479l280 456q15 24 15 42q0 32 -45 44q-6 1 -68 9q-32 4 -40 24q-5 11 -5 50q0 38 6 49q9 16 43 16
q35 0 106 -12t107 -12q40 0 117.5 12t114.5 12q35 0 44 -18q5 -11 5 -51q0 -46 -9.5 -55.5t-58.5 -18.5q-57 -11 -118 -106l-408 -639v-330q0 -70 36 -94q20 -14 71 -17q46 -4 55.5 -18t9.5 -60q0 -44 -6 -55q-10 -16 -49 -16q-26 0 -124.5 16.5t-168.5 16.5
q-69 0 -173.5 -16.5t-135.5 -16.5q-39 0 -48 16q-6 10 -6 55q0 46 9 59q13 18 57 20q50 3 69 17q33 24 33 99v315l-462 680q-13 19 -40 48q-37 12 -71.5 24.5t-34.5 69.5zM864 2017q79 0 131 -37q53 -40 53 -106q0 -53 -99.5 -125t-99.5 -89q0 -29 34 -29q30 0 71 35l38 -54
q-61 -45 -130 -45q-55 0 -92 28q-40 31 -40 85q0 67 62.5 113.5t62.5 56.5q0 26 -32 28q-41 2 -50 11q0 2 42 61.5t49 66.5z" />
    <glyph glyph-name="glyph368" unicode="&#x1ef7;" horiz-adv-x="1280" 
d="M2 872q0 52 2 61q7 34 39 34q8 0 83 -17.5t140 -17.5q76 0 178 17.5t117 17.5q24 0 31.5 -14.5t7.5 -94.5q0 -29 -45 -39t-45 -39q0 -10 238 -446l178 365q14 29 14 44q0 39 -50 59l-1 1q-46 15 -101 42q-6 7 -6 34q0 46 3 57q7 31 38 31q12 0 74 -11.5t109 -11.5
q63 0 138.5 11.5t82.5 11.5q30 0 37 -31q2 -9 2 -57q0 -27 -4 -33.5t-39 -20.5q-42 -17 -66 -43q-9 -10 -45 -65q-66 -100 -142 -254q-64 -131 -127 -262q-73 -150 -233 -439q-93 -149 -187 -219q-115 -86 -269 -86q-88 0 -97 66q-16 121 -16 131q0 18 68 18
q189 0 271.5 64.5t176.5 253.5l-403 739q-16 29 -38 51q-15 14 -74 41q-40 18 -40 51zM680 1526q79 0 131 -37q53 -40 53 -106q0 -53 -99.5 -125t-99.5 -89q0 -29 34 -29q30 0 71 35l38 -54q-61 -45 -130 -45q-55 0 -92 28q-40 31 -40 85q0 67 62.5 113.5t62.5 56.5
q0 26 -32 28q-41 2 -50 11q0 2 42 61.5t49 66.5z" />
    <glyph glyph-name="glyph369" unicode="&#x1ef8;" horiz-adv-x="1593" 
d="M6 1395q0 46 6 57q9 18 49 18q18 0 114 -16t173 -16q76 0 171 16t114 16q40 0 49 -16q6 -10 6 -55q0 -42 -8 -53.5t-57 -19.5q-41 -6 -41 -36q0 -12 12 -31l305 -479l280 456q15 24 15 42q0 32 -45 44q-6 1 -68 9q-32 4 -40 24q-5 11 -5 50q0 38 6 49q9 16 43 16
q35 0 106 -12t107 -12q40 0 117.5 12t114.5 12q35 0 44 -18q5 -11 5 -51q0 -46 -9.5 -55.5t-58.5 -18.5q-57 -11 -118 -106l-408 -639v-330q0 -70 36 -94q20 -14 71 -17q46 -4 55.5 -18t9.5 -60q0 -44 -6 -55q-10 -16 -49 -16q-26 0 -124.5 16.5t-168.5 16.5
q-69 0 -173.5 -16.5t-135.5 -16.5q-39 0 -48 16q-6 10 -6 55q0 46 9 59q13 18 57 20q50 3 69 17q33 24 33 99v315l-462 680q-13 19 -40 48q-37 12 -71.5 24.5t-34.5 69.5zM1205 1940q-54 -265 -234 -265q-40 0 -123 26t-114 26q-79 0 -99 -95h-84q53 265 232 265
q34 0 198 -41q36 -9 45 -9q69 0 97 93h82z" />
    <glyph glyph-name="glyph370" unicode="&#x1ef9;" horiz-adv-x="1280" 
d="M2 872q0 52 2 61q7 34 39 34q8 0 83 -17.5t140 -17.5q76 0 178 17.5t117 17.5q24 0 31.5 -14.5t7.5 -94.5q0 -29 -45 -39t-45 -39q0 -10 238 -446l178 365q14 29 14 44q0 39 -50 59l-1 1q-46 15 -101 42q-6 7 -6 34q0 46 3 57q7 31 38 31q12 0 74 -11.5t109 -11.5
q63 0 138.5 11.5t82.5 11.5q30 0 37 -31q2 -9 2 -57q0 -27 -4 -33.5t-39 -20.5q-42 -17 -66 -43q-9 -10 -45 -65q-66 -100 -142 -254q-64 -131 -127 -262q-73 -150 -233 -439q-93 -149 -187 -219q-115 -86 -269 -86q-88 0 -97 66q-16 121 -16 131q0 18 68 18
q189 0 271.5 64.5t176.5 253.5l-403 739q-16 29 -38 51q-15 14 -74 41q-40 18 -40 51zM1022 1432q-54 -265 -234 -265q-40 0 -123 26t-114 26q-79 0 -99 -95h-84q53 265 232 265q34 0 198 -41q36 -9 45 -9q69 0 97 93h82z" />
    <glyph glyph-name="endash" unicode="&#x2013;" horiz-adv-x="1024" 
d="M1024 606v-227h-1024v227h1024z" />
    <glyph glyph-name="emdash" unicode="&#x2014;" horiz-adv-x="2048" 
d="M2048 606v-227h-2048v227h2048z" />
    <glyph glyph-name="quoteleft" unicode="&#x2018;" horiz-adv-x="635" 
d="M485 1077q-39 -143 -53 -307q-129 4 -133 4q-66 0 -176 -10q28 419 242 706h172q-213 -245 -213 -329q0 -70 88 -70q23 0 73 6z" />
    <glyph glyph-name="quoteright" unicode="&#x2019;" horiz-adv-x="635" 
d="M150 1157q39 142 53 307q58 -2 133 -2q84 0 176 8q-27 -415 -242 -704h-172q213 247 213 328q0 71 -88 71q-8 0 -73 -8z" />
    <glyph glyph-name="quotesinglbase" unicode="&#x201a;" horiz-adv-x="635" 
d="M186 307q21 0 65.5 -2t67.5 -2q56 0 176 10q-28 -424 -241 -706h-172q213 247 213 330q0 69 -90 69q-23 0 -71 -6q40 147 52 307z" />
    <glyph glyph-name="quotedblleft" unicode="&#x201c;" horiz-adv-x="1081" 
d="M931 1077q-42 -157 -54 -307q-144 4 -132 4q-51 0 -177 -10q25 419 243 706h172q-215 -249 -215 -329q0 -70 90 -70q25 0 73 6zM485 1077q-39 -143 -53 -307q-129 4 -133 4q-66 0 -176 -10q28 419 242 706h172q-213 -245 -213 -329q0 -70 88 -70q23 0 73 6z" />
    <glyph glyph-name="quotedblright" unicode="&#x201d;" horiz-adv-x="1081" 
d="M596 1157q42 152 53 307q58 -2 133 -2q84 0 176 8q-27 -416 -241 -704h-172q213 249 213 328q0 71 -90 71q-7 0 -72 -8zM150 1157q39 142 53 307q58 -2 133 -2q84 0 176 8q-27 -415 -242 -704h-172q213 247 213 328q0 71 -88 71q-8 0 -73 -8z" />
    <glyph glyph-name="quotedblbase" unicode="&#x201e;" horiz-adv-x="1081" 
d="M578 0q44 162 55 307q20 0 64.5 -2t66.5 -2q58 0 178 10q-28 -419 -244 -706h-172q215 249 215 330q0 69 -90 69q-25 0 -73 -6zM186 307q21 0 65.5 -2t67.5 -2q56 0 176 10q-28 -424 -241 -706h-172q213 247 213 330q0 69 -90 69q-23 0 -71 -6q40 147 52 307z" />
    <glyph glyph-name="dagger" unicode="&#x2020;" horiz-adv-x="1214" 
d="M219 664q-149 0 -149 172q0 165 149 165q55 0 92 -16l252 -108l-106 366q-15 52 -15 94q0 152 164 152q74 0 120 -39.5t46 -112.5q0 -38 -16 -94l-105 -366l252 108q37 16 92 16q150 0 150 -170q0 -73 -39 -120t-111 -47q-54 0 -122 30l-220 97l115 -844q8 -59 8 -90
q0 -174 -170 -174t-170 174q0 32 8 90l117 844l-219 -97q-68 -30 -123 -30z" />
    <glyph glyph-name="daggerdbl" unicode="&#x2021;" horiz-adv-x="1214" 
d="M551 872l-209 -94q-62 -28 -123 -28q-71 0 -111 47q-38 44 -38 116q0 164 149 164q51 0 92 -16l234 -92l-84 274q-17 55 -17 94q0 71 45 111.5t117 40.5t117 -40.5t45 -111.5q0 -41 -16 -94l-82 -274l231 92q40 16 92 16q150 0 150 -164q0 -72 -38 -116q-41 -47 -112 -47
q-61 0 -123 28l-208 94l30 -185l15 -93l-15 -93l-30 -186l239 93q46 18 92 18q150 0 150 -164q0 -73 -38 -117q-40 -47 -112 -47q-59 0 -123 29l-208 94l90 -293q16 -52 16 -94q0 -70 -45.5 -110.5t-116.5 -40.5t-116.5 40.5t-45.5 110.5q0 39 17 94l90 293l-209 -94
q-64 -29 -123 -29q-71 0 -110 46t-39 118q0 164 149 164q46 0 92 -18l240 -93l-30 186l-15 93l15 93z" />
    <glyph glyph-name="bullet" unicode="&#x2022;" horiz-adv-x="1208" 
d="M307 762q0 124 86.5 209.5t210.5 85.5q123 0 209 -86t86 -209t-87 -210t-210 -87q-124 0 -209.5 86.5t-85.5 210.5z" />
    <glyph glyph-name="ellipsis" unicode="&#x2026;" horiz-adv-x="2048" 
d="M342 322q73 0 124 -50t51 -122q0 -73 -51 -124t-124 -51t-123.5 51t-50.5 124q0 71 51.5 121.5t122.5 50.5zM1024 322q73 0 124 -50t51 -122q0 -73 -51 -124t-124 -51t-123.5 51t-50.5 124q0 71 51.5 121.5t122.5 50.5zM1708 322q73 0 124 -50t51 -122q0 -73 -51 -124
t-124 -51t-123.5 51t-50.5 124q0 71 51.5 121.5t122.5 50.5z" />
    <glyph glyph-name="perthousand" unicode="&#x2030;" horiz-adv-x="2623" 
d="M2191 567q-110 0 -110 -227q0 -258 110 -258q113 0 113 242q0 243 -113 243zM1831 324q0 164 99 257q96 91 261 91t263 -90q100 -94 100 -258q0 -165 -98.5 -257t-264.5 -92q-165 0 -262.5 92t-97.5 257zM1368 567q-113 0 -113 -227q0 -258 113 -258q111 0 111 242
q0 243 -111 243zM1006 324q0 164 100 257q97 91 262 91t263 -92t98 -256q0 -165 -98 -257t-263 -92t-262 91q-100 94 -100 258zM610 -57h-135l713 1503h135zM432 1307q-110 0 -110 -228q0 -258 110 -258q111 0 111 244q0 242 -111 242zM72 1065q0 164 99 257q96 91 261 91
t263 -92t98 -256t-98 -256t-263 -92t-261 91q-99 93 -99 257z" />
    <glyph glyph-name="guilsinglleft" unicode="&#x2039;" horiz-adv-x="594" 
d="M61 477l250 361h215l-239 -359l248 -360h-228z" />
    <glyph glyph-name="guilsinglright" unicode="&#x203a;" horiz-adv-x="594" 
d="M532 481l-249 -362h-215l239 358l-248 361h228z" />
    <glyph glyph-name="fraction" unicode="&#x2044;" horiz-adv-x="342" 
d="M-199 -25h-143l883 1495h141z" />
    <glyph glyph-name="franc" unicode="&#x20a3;" horiz-adv-x="2142" 
d="M227 1145q0 150 -73 170q-35 7 -77 30q-7 12 -7 54q0 49 7 62q12 20 56 20q57 0 172.5 -5.5t175 -5.5t180.5 -1t181 -1q95 0 258 12q3 -97 13.5 -194t10.5 -98q0 -45 -31 -57q-16 -7 -71 -7q-41 0 -56.5 11t-30 75.5t-39.5 80.5q-30 18 -110 18h-188v-480h198
q93 0 120 35q1 2 20 66q10 35 63 35q77 0 93 -10.5t16 -49.5q0 -27 -4 -82t-4 -82q0 -25 4 -74.5t4 -74.5q0 -46 -28 -57q-13 -5 -70 -5q-65 0 -75 36l-12 68q-19 36 -106 36h-219v-352q0 -155 76 -171l47 -10q31 -7 38 -17.5t7 -56.5q0 -44 -6 -55q-9 -16 -49 -16
q-23 0 -122 16.5t-175 16.5q-78 0 -174 -16.5t-115 -16.5q-40 0 -49 16q-6 11 -6 55q0 42 6 53.5t78.5 30.5t72.5 171v827zM2112 975l-1 -258q-78 6 -126 6q-122 0 -202.5 -44.5t-80.5 -96.5v-326q0 -78 27 -93q6 -3 114 -20q34 -5 42 -24q3 -9 3 -53q0 -45 -5 -55
q-8 -19 -46 -19q-49 0 -148 15.5t-149 15.5q-57 0 -141.5 -15.5t-106.5 -15.5q-39 0 -49 16q-6 11 -6 55q0 43 6 55q9 18 41 22q39 5 51 14q25 19 25 77v455l-86 19q-35 8 -35 57q0 69 51 90l363 152h47l-10 -263q137 242 342 242q17 0 80 -8z" />
    <glyph glyph-name="u20AB" unicode="&#x20ab;" horiz-adv-x="938" 
d="M562 584v316q-47 48 -97 48q-84 0 -130 -79q-37 -65 -37 -156q0 -183 137 -183q62 0 127 54zM562 991v138h-228v67h228v24q0 41 -45 43.5t-45 39.5q0 41 36 55l274 105q15 5 23 5q34 0 34 -59q0 -14 -20 -35t-20 -46v-132h118v-67h-118v-545q0 -38 25 -38q6 0 17.5 3.5
t17.5 3.5q13 0 25 -23.5t12 -37.5q0 -11 -9 -16q-304 -139 -308 -139q-14 0 -27 23q-13 20 -13 35q0 2 11.5 21.5t11.5 34.5v46q-129 -142 -259 -142q-124 0 -200 95q-69 88 -69 215q0 162 98 280q104 124 263 124q106 0 167 -78zM103 196h621v-128h-621v128z" />
    <glyph glyph-name="trademark" unicode="&#x2122;" horiz-adv-x="1683" 
d="M745 1460h222l127 -356l123 356h206v-26q-37 -12 -41 -15q-16 -10 -16 -38v-389q0 -37 57 -52v-33h-260v33q38 7 46 12q20 11 20 40v358l-148 -445h-43l-166 457v-370q0 -30 21 -41q8 -4 49 -11v-33h-197v33q40 7 49 11q21 11 21 41v381q0 30 -21 41q-9 4 -49 11v35z
M229 1460h457l12 -198h-36q-14 153 -130 153v-420q0 -31 17 -42q8 -6 45 -13v-33h-272v33q36 7 45 13q16 11 16 42v420h-4q-115 0 -127 -153h-35z" />
    <glyph glyph-name="partialdiff" unicode="&#x2202;" horiz-adv-x="1114" 
d="M766 684q43 231 43 356q0 63 -20 125q-28 84 -78 84q-28 0 -131.5 -93t-180.5 -93q-49 0 -80.5 34t-31.5 83q0 68 92.5 125t220.5 57q235 0 355 -193q100 -160 100 -409q0 -344 -162.5 -564.5t-417.5 -220.5q-183 0 -299.5 116.5t-116.5 299.5q0 193 111 327
q117 142 307 142q194 0 289 -176zM698 532q0 238 -141 238q-95 0 -160 -135.5t-65 -347.5q0 -236 143 -236q122 0 181 190q42 133 42 291z" />
    <glyph glyph-name="product" unicode="&#x220f;" horiz-adv-x="1774" 
d="M43 1473h1681v-91h-192v-1685h192v-90h-753v90h168v1685h-512v-1685h170v-90h-754v90h193v1685h-193v91z" />
    <glyph glyph-name="summation" unicode="&#x2211;" horiz-adv-x="1585" 
d="M27 1473h1276l153 -463h-92l-102 262q-29 76 -110 98q-43 12 -155 12h-495l590 -757v-41l-689 -652h885q67 0 86 63l70 230h94l-188 -618h-1325v88l766 725l-764 981v72z" />
    <glyph glyph-name="minus" unicode="&#x2212;" horiz-adv-x="1706" 
d="M254 729h1198v-235h-1198v235z" />
    <glyph glyph-name="radical" unicode="&#x221a;" horiz-adv-x="1366" 
d="M1155 1714h215v-149h-96l-590 -1606h-119l-307 846l-145 -55l-37 129l360 127l223 -635z" />
    <glyph glyph-name="infinity" unicode="&#x221e;" horiz-adv-x="1706" 
d="M956 561q90 -139 234 -139q85 0 144 50t59 134q0 77 -51.5 129.5t-127.5 52.5q-133 0 -258 -227zM752 657q-86 136 -234 136q-85 0 -142 -47q-61 -50 -61 -134q0 -78 51 -131t128 -53q132 0 258 229zM856 442q-134 -256 -324 -256q-155 0 -251 138q-86 123 -86 284
q0 167 72 283q86 139 243 139q105 0 200 -84q60 -53 142 -172q137 256 324 256q155 0 251 -137q86 -121 86 -283q0 -167 -72 -284q-86 -140 -243 -140q-106 0 -200 83q-59 52 -142 173z" />
    <glyph glyph-name="integral" unicode="&#x222b;" horiz-adv-x="1249" 
d="M362 -248q98 0 119 667q1 51 4 154q17 524 130.5 753.5t349.5 229.5q96 0 161 -46q74 -52 74 -144q0 -65 -41 -104t-106 -39q-75 0 -104 47q-19 29 -23 92q-4 58 -12.5 65t-22.5 7q-101 0 -124 -667l-10 -282q-7 -162 -23 -281q-33 -234 -123 -382q-120 -195 -324 -195
q-98 0 -163 45q-73 51 -73 146q0 67 43 105t111 38q125 0 125 -139q0 -5 -1 -14t-1 -13q0 -43 34 -43z" />
    <glyph glyph-name="approxequal" unicode="&#x2248;" horiz-adv-x="1706" 
d="M1530 602v-254q-203 -137 -377 -137q-89 0 -287.5 65.5t-304.5 65.5q-157 0 -383 -158v254q216 144 404 144q105 0 300 -65.5t277 -65.5q159 0 371 151zM1530 1036v-254q-206 -135 -375 -135q-90 0 -289 64.5t-305 64.5q-157 0 -383 -158v256q215 142 404 142
q105 0 300 -65.5t277 -65.5q158 0 371 151z" />
    <glyph glyph-name="approxequal" unicode="&#x22f2;" horiz-adv-x="1706" 
d="M1530 602v-254q-203 -137 -377 -137q-89 0 -287.5 65.5t-304.5 65.5q-157 0 -383 -158v254q216 144 404 144q105 0 300 -65.5t277 -65.5q159 0 371 151zM1530 1036v-254q-206 -135 -375 -135q-90 0 -289 64.5t-305 64.5q-157 0 -383 -158v256q215 142 404 142
q105 0 300 -65.5t277 -65.5q158 0 371 151z" />
    <glyph glyph-name="notequal" unicode="&#x2260;" horiz-adv-x="1706" 
d="M1194 1251l168 -137l-135 -168h225v-221h-377l-180 -227h557v-222h-704l-246 -307l-170 137l135 170h-213v222h360l183 227h-543v221h694z" />
    <glyph glyph-name="lessequal" unicode="&#x2264;" horiz-adv-x="1706" 
d="M256 213h1196v-229h-1196v229zM1450 1257v-239l-776 -240l776 -239v-240l-1194 379v201z" />
    <glyph glyph-name="greaterequal" unicode="&#x2265;" horiz-adv-x="1706" 
d="M256 213h1196v-229h-1196v229zM256 1257l1194 -378v-201l-1194 -379v240l778 239l-778 240v239z" />
    <glyph glyph-name="SF370000" unicode="&#x255f;" horiz-adv-x="1692" 
d="M911 598l-182 426l-184 -426h366zM1649 68q0 -47 -6 -58q-9 -18 -50 -18q-19 0 -114 16.5t-172 16.5q-70 0 -163.5 -16.5t-115.5 -16.5q-38 0 -48 15q-7 11 -7 52q0 59 45 74q67 22 67 45q0 16 -8 35l-96 225h-508l-92 -209q-14 -32 -14 -65q0 -22 52 -31q59 -11 67 -22
t8 -58q0 -37 -7 -47q-9 -14 -43 -14q-32 0 -94 12t-94 12q-35 0 -104.5 -11t-104.5 -11q-30 0 -37 18q-4 9 -4 45q0 46 7.5 57.5t70.5 22.5q59 11 88 74l547 1206q17 38 44 48q15 5 68 5q54 0 62 -2q31 -6 45 -36l543 -1207q27 -60 92.5 -78t69.5 -25q6 -12 6 -54z" />
    <glyph glyph-name="SF420000" unicode="&#x2560;" horiz-adv-x="1298" 
d="M227 1146q0 149 -73 169q-34 7 -77 30q-7 12 -7 54q0 50 7 62q12 20 56 20q57 0 172.5 -5.5t175 -5.5t180.5 -1t181 -1q95 0 258 12q3 -97 13.5 -194t10.5 -98q0 -45 -31 -57q-16 -7 -71 -7q-41 0 -56.5 11t-30 75.5t-39.5 80.5q-30 18 -110 18h-188v-480h219
q74 0 101 13.5t40 73.5q10 49 68 49q79 0 95 -10.5t16 -55.5q0 -24 -5.5 -71.5t-5.5 -71.5q0 -25 4.5 -75t4.5 -75q0 -45 -29 -56q-13 -5 -70 -5q-38 0 -52 7t-26.5 50t-31.5 55.5t-82 12.5h-246v-324q0 -94 28 -129q32 -41 122 -41q191 0 242 18q58 20 86 105q24 72 93 72
q105 0 105 -52q0 -18 -28 -123q-28 -108 -44 -196q-268 20 -598 20q-208 0 -431 -24q-37 -4 -48 -4q-39 0 -49 16q-6 11 -6 55q0 43 7 56t78.5 28.5t71.5 169.5v829z" />
    <glyph glyph-name="SF190000" unicode="&#x2561;" horiz-adv-x="866" 
d="M627 1146v-829q0 -98 16 -128q17 -35 70.5 -46t61 -24t7.5 -56q0 -44 -6 -55q-10 -16 -49 -16q-15 0 -114 16.5t-185 16.5q-77 0 -173.5 -16.5t-115.5 -16.5q-39 0 -49 16q-6 11 -6 55q0 43 7 56t77 28q74 16 74 171v827q0 150 -74 170q-35 7 -77 30q-7 12 -7 54
q0 45 6 55q9 16 49 16q18 0 114.5 -16t174.5 -16q86 0 185.5 16t113.5 16q40 0 49 -16q6 -10 6 -55q0 -41 -5 -50q-7 -15 -42 -24l-37 -10q-50 -14 -64 -68q-7 -26 -7 -101z" />
    <glyph glyph-name="SF200000" unicode="&#x2562;" horiz-adv-x="1817" 
d="M907 150q222 0 328 189q84 150 84 390q0 242 -83 391q-106 189 -329 189q-222 0 -327 -189q-82 -150 -82 -391q0 -240 83 -390q105 -189 326 -189zM80 729q0 351 241 562q230 200 586 200q357 0 587 -200q241 -210 241 -562t-242 -561q-229 -199 -586 -199t-586 199
q-241 209 -241 561z" />
    <glyph glyph-name="SF230000" unicode="&#x2563;" horiz-adv-x="1663" 
d="M569 1157q0 -26 1 -76.5t1 -76.5q0 -503 76 -680t264 -177q365 0 365 641q0 46 2 138.5t2 138.5q0 186 -21.5 215.5t-90 40.5t-77 21t-8.5 61q0 42 9 54.5t49 12.5q30 0 102 -13t111 -13t114 13t113 13q39 0 49 -15q6 -11 6 -54q0 -64 -62 -78q-72 -15 -87 -65
q-6 -19 -12 -209q-12 -361 -31 -490q-41 -274 -163 -414q-151 -174 -443 -174q-300 0 -451 154q-124 127 -163 382q-19 125 -28 485q-1 76 -10 227q-6 57 -21 74.5t-68 28.5q-49 9 -56.5 21.5t-7.5 55.5q0 45 6 55q9 16 49 16q18 0 115 -16t174 -16q91 0 197 16t118 16
q40 0 50 -16q6 -10 6 -55q0 -63 -61 -75q-77 -15 -97.5 -46t-20.5 -121z" />
    <glyph glyph-name="SF470000" unicode="&#x2564;" horiz-adv-x="1593" 
d="M6 1395q0 46 6 57q9 18 49 18q18 0 114 -16t173 -16q76 0 171 16t114 16q40 0 49 -16q6 -10 6 -55q0 -42 -8 -53.5t-57 -19.5q-41 -6 -41 -36q0 -12 12 -31l305 -479l280 456q15 24 15 42q0 32 -45 44q-6 1 -68 9q-32 4 -40 24q-5 11 -5 50q0 38 6 49q9 16 43 16
q35 0 106 -12t107 -12q40 0 117.5 12t114.5 12q35 0 44 -18q5 -11 5 -51q0 -46 -9.5 -55.5t-58.5 -18.5q-57 -11 -118 -106l-408 -639v-330q0 -70 36 -94q20 -14 71 -17q46 -4 55.5 -18t9.5 -60q0 -44 -6 -55q-10 -16 -49 -16q-26 0 -124.5 16.5t-168.5 16.5
q-69 0 -173.5 -16.5t-135.5 -16.5q-39 0 -48 16q-6 10 -6 55q0 46 9 59q13 18 57 20q50 3 69 17q33 24 33 99v315l-462 680q-13 19 -40 48q-37 12 -71.5 24.5t-34.5 69.5z" />
    <glyph glyph-name="SF480000" unicode="&#x2565;" 
d="M639 428q0 39 -25 39q-88 0 -159 -47q-80 -53 -80 -137q0 -56 34 -93.5t89 -37.5q62 0 101.5 43t39.5 106v127zM639 594v33q0 104 -44 152t-146 48q-74 0 -92 -11q-27 -17 -35 -52q-9 -39 -22 -50q-25 -22 -101 -22q-56 0 -56 37q0 -1 4 20l39 207q174 27 330 27
q216 0 315 -58q130 -76 130 -274v-311q0 -143 126 -166v-29q-117 -176 -202 -176q-116 0 -199 166q-138 -166 -340 -166q-127 0 -210 66q-91 72 -91 196q0 141 126.5 221t467.5 142z" />
    <glyph glyph-name="SF410000" unicode="&#x2566;" horiz-adv-x="1102" 
d="M723 682q0 170 -139 170q-185 0 -185 -289l292 68q32 7 32 51zM1040 596l-634 -143q12 -123 89 -193t201 -70q79 0 152 32q68 36 137 73q18 0 36.5 -17.5t18.5 -35.5q0 -28 -63 -88q-194 -185 -422 -185q-225 0 -357 120q-137 125 -137 347q0 237 144 390
q147 157 383 157q202 0 320 -91q130 -100 132 -296z" />
    <glyph glyph-name="SF450000" unicode="&#x2567;" horiz-adv-x="694" 
d="M530 241q0 -45 5 -58q9 -24 43 -33q27 -5 62 -25q7 -12 7 -59q0 -48 -5 -57q-9 -17 -50 -17q-11 0 -86.5 15.5t-136.5 15.5t-148 -15.5t-108 -15.5q-40 0 -49 16q-7 11 -7 55q0 43 6 55q8 17 40 22q39 5 52 14q25 18 25 71v461l-86 19q-35 8 -35 57q0 70 51 90l371 143
q23 9 37 9q37 0 37 -56q0 -47 -23 -92q0 -4 -1 -11.5t-1 -10.5v-593zM360 1532q85 0 144 -59.5t59 -145.5q0 -85 -59 -144t-144 -59q-82 0 -143 60.5t-61 142.5q0 85 59.5 145t144.5 60z" />
    <glyph glyph-name="SF460000" unicode="&#x2568;" horiz-adv-x="694" 
d="M180 686l-86 19q-35 8 -35 57q0 70 51 90l371 143q23 9 37 9q37 0 37 -56q0 -47 -23 -92q0 -4 -1 -11.5t-1 -10.5v-593q0 -45 5 -58q9 -24 43 -33q27 -5 62 -25q7 -12 7 -59q0 -48 -5 -57q-9 -17 -50 -17q-11 0 -86.5 15.5t-136.5 15.5t-148 -15.5t-108 -15.5
q-40 0 -49 16q-7 11 -7 55q0 43 6 55q8 17 40 22q39 5 52 14q25 18 25 71v461z" />
    <glyph glyph-name="SF400000" unicode="&#x2569;" horiz-adv-x="1233" 
d="M807 479q0 346 -191 346q-188 0 -188 -346t188 -346q191 0 191 346zM616 983q243 0 394 -128q161 -137 161 -376t-160 -379q-152 -133 -395 -133q-242 0 -395 133q-160 140 -160 379t161 375q151 129 394 129z" />
    <glyph glyph-name="SF540000" unicode="&#x256a;" horiz-adv-x="1298" 
d="M23 772q0 58 51 76l356 129q8 8 16 8q66 0 66 -76q0 -9 -12.5 -42t-12.5 -58v-373q0 -223 152 -223q71 0 143 68v383q0 40 -24 51l-64 14t-32 51q0 81 81 94q118 19 269 69q59 20 121 40q47 0 47 -68q0 -20 -28 -50t-28 -64v-504q0 -53 35 -53q8 0 24 5t25 5q17 0 35 -35
q17 -31 17 -51q0 -15 -12 -20l-398 -166q-13 -15 -27 -15q-26 0 -45.5 20t-19.5 46q0 3 14 30.5t14 47.5v67q-171 -209 -342 -209q-297 0 -297 412v268q0 30 -7 40t-83 26q-25 5 -31 18q-3 8 -3 39z" />
    <glyph glyph-name="SF530000" unicode="&#x256b;" horiz-adv-x="1280" 
d="M2 872q0 52 2 61q7 34 39 34q8 0 83 -17.5t140 -17.5q76 0 178 17.5t117 17.5q24 0 31.5 -14.5t7.5 -94.5q0 -29 -45 -39t-45 -39q0 -10 238 -446l178 365q14 29 14 44q0 39 -50 59l-1 1q-46 15 -101 42q-6 7 -6 34q0 46 3 57q7 31 38 31q12 0 74 -11.5t109 -11.5
q63 0 138.5 11.5t82.5 11.5q30 0 37 -31q2 -9 2 -57q0 -27 -4 -33.5t-39 -20.5q-42 -17 -66 -43q-9 -10 -45 -65q-66 -100 -142 -254q-64 -131 -127 -262q-73 -150 -233 -439q-93 -149 -187 -219q-115 -86 -269 -86q-88 0 -97 66q-16 121 -16 131q0 18 68 18
q189 0 271.5 64.5t176.5 253.5l-403 739q-16 29 -38 51q-15 14 -74 41q-40 18 -40 51z" />
    <glyph glyph-name="lozenge" unicode="&#x25ca;" horiz-adv-x="1012" 
d="M506 1409l-385 -817l385 -825l385 825zM506 1653l500 -1061l-500 -1069l-500 1069z" />
    <glyph glyph-name="circle" unicode="&#x25cb;" horiz-adv-x="1692" 
d="M923 1922l230 -370h-101l-221 170l-221 -170h-101l230 370h184zM675 1967h-115l279 295q91 96 155 96q47 0 79 -31t32 -78q0 -69 -105 -121z" />
    <glyph glyph-name="H18533" unicode="&#x25cf;" horiz-adv-x="1692" 
d="M923 1922l230 -370h-101l-221 170l-221 -170h-101l230 370h184zM1100 1968h-115l-325 161q-105 52 -105 121q0 47 32 78t79 31q64 0 155 -96z" />
    <glyph glyph-name="invbullet" unicode="&#x25d8;" horiz-adv-x="1692" 
d="M923 1922l230 -370h-101l-221 170l-221 -170h-101l230 370h184zM1094 2350q79 0 131 -37q53 -40 53 -106q0 -53 -99.5 -125t-99.5 -89q0 -29 34 -29q30 0 71 35l38 -54q-61 -45 -130 -45q-55 0 -92 28q-40 31 -40 85q0 67 62.5 113.5t62.5 56.5q0 26 -32 28q-41 2 -50 11
q0 2 42 61.5t49 66.5z" />
    <glyph glyph-name="invcircle" unicode="&#x25d9;" horiz-adv-x="1692" 
d="M923 1922l230 -370h-101l-221 170l-221 -170h-101l230 370h184zM1233 2288q-54 -265 -234 -265q-40 0 -123 26t-114 26q-79 0 -99 -95h-84q53 265 232 265q34 0 198 -41q36 -9 45 -9q69 0 97 93h82z" />
    <glyph glyph-name="apple" unicode="&#xf000;" horiz-adv-x="1618" 
d="M836 1216q-2 12 -2 37q0 132 101 237q96 99 230 124q2 -20 2 -62q0 -131 -103.5 -234.5t-211.5 -103.5q-3 0 -8.5 1t-7.5 1zM1505 403q-90 -195 -153 -280q-118 -158 -256 -158q-45 0 -128 33t-126 33q-45 0 -129.5 -33t-128.5 -33q-128 0 -259 176q-99 134 -156 296
q-56 155 -56 300q0 211 117 348q124 146 331 146q57 0 150 -34t129 -34q35 0 127 34t147 34q219 0 359 -162q-201 -128 -201 -328q0 -233 233 -338z" />
    <glyph glyph-name="fi" unicode="&#xf001;" horiz-adv-x="1358" 
d="M55 815q0 41 44 66l75 43q-4 71 -4 86q0 522 547 522q391 0 391 -191q0 -53 -37.5 -86.5t-91.5 -33.5q-63 0 -171.5 81.5t-172.5 81.5q-123 0 -123 -209v-247q37 -8 66 -8h256q149 0 311 56q38 13 47 13q15 0 29 -25t14 -42q0 2 -20.5 -41.5t-20.5 -87.5v-547
q0 -58 9 -72q11 -17 65 -31q15 -3 36 -17q7 -10 7 -60q0 -48 -5 -58q-9 -16 -51 -16q-12 0 -86 15.5t-133 15.5q-62 0 -141.5 -14.5t-95.5 -14.5q-39 0 -48 15q-6 10 -6 54q0 62 30 71q79 24 79 110v434q0 84 -70 84h-272v-510q0 -63 32 -90q19 -16 63 -24q41 -8 49 -18
t8 -63q0 -40 -6 -50q-10 -15 -50 -15q-36 0 -120.5 14t-129.5 14q-61 0 -147 -14t-107 -14q-40 0 -49 16q-6 11 -6 55q0 56 31 70q29 8 59 17q31 20 31 92v512l-86 12q-29 4 -29 49z" />
    <glyph glyph-name="fl" unicode="&#xf002;" horiz-adv-x="1360" 
d="M1202 1530q21 0 36 -31q13 -27 13 -51q0 -20 -28.5 -49.5t-28.5 -63.5v-1089q0 -62 24 -84q14 -13 50 -18q33 -4 42 -19q7 -11 7 -59q0 -47 -5 -57q-10 -17 -50 -17q-17 0 -95.5 15.5t-138.5 15.5q-55 0 -133 -14.5t-96 -14.5q-39 0 -48 15q-6 10 -6 54q0 62 30 71
q23 7 42 21q37 26 37 89v1067q-41 -29 -84 -29q-51 0 -110.5 58.5t-86.5 58.5q-61 0 -61 -121v-350q37 -8 203 -8q21 0 30 -5.5t9 -31.5q0 -121 -74 -121h-168v-510q0 -63 32 -90q19 -16 64 -24q41 -8 48.5 -18.5t7.5 -62.5q0 -40 -7 -50q-9 -15 -49 -15q-19 0 -105 14
t-149 14q-59 0 -143.5 -14t-106.5 -14q-39 0 -49 16q-6 11 -6 55q0 56 31 70q29 8 59 17q31 20 31 92v512l-86 12q-29 4 -29 49q0 41 44 66l75 43q-4 75 -4 90q0 518 453 518q214 0 254 -117l294 107q22 8 31 8z" />
    <glyph glyph-name="periodcentered" horiz-adv-x="635" 
d="M317 915q74 0 124.5 -50.5t50.5 -123.5t-51 -123.5t-124 -50.5q-72 0 -123 51t-51 123t51 123t123 51z" />
    <glyph glyph-name="glyph275" horiz-adv-x="635" 
 />
    <glyph glyph-name="glyph276" horiz-adv-x="635" 
 />
    <glyph glyph-name="glyph261" horiz-adv-x="635" 
d="M172 1208q63 121 108 269q74 -19 138 -19q73 0 154 18q-54 -188 -177 -407q-133 -236 -263 -352l-1 210q178 134 178 209q0 61 -137 72z" />
    <glyph glyph-name="glyph262" horiz-adv-x="691" 
d="M492 1526q79 0 131 -37q53 -40 53 -106q0 -53 -99.5 -125t-99.5 -89q0 -29 34 -29q30 0 71 35l38 -54q-61 -45 -130 -45q-55 0 -92 28q-40 31 -40 85q0 67 62.5 113.5t62.5 56.5q0 26 -32 28q-41 2 -50 11q0 2 42 61.5t49 66.5z" />
    <glyph glyph-name="glyph263" 
d="M637 1464l230 -370h-101l-221 170l-221 -170h-101l230 370h184zM389 1509h-115l279 295q91 96 155 96q47 0 79 -31t32 -78q0 -69 -105 -121z" />
    <glyph glyph-name="glyph264" 
d="M637 1464l230 -370h-101l-221 170l-221 -170h-101l230 370h184zM814 1509h-115l-325 161q-105 52 -105 121q0 47 32 78t79 31q64 0 155 -96z" />
    <glyph glyph-name="glyph265" 
d="M637 1464l230 -370h-101l-221 170l-221 -170h-101l230 370h184zM808 1892q79 0 131 -37q53 -40 53 -106q0 -53 -99.5 -125t-99.5 -89q0 -29 34 -29q30 0 71 35l38 -54q-61 -45 -130 -45q-55 0 -92 28q-40 31 -40 85q0 67 62.5 113.5t62.5 56.5q0 26 -32 28q-41 2 -50 11
q0 2 42 61.5t49 66.5z" />
    <glyph glyph-name="glyph266" 
d="M637 1464l230 -370h-101l-221 170l-221 -170h-101l230 370h184zM946 1829q-54 -265 -234 -265q-40 0 -123 26t-114 26q-79 0 -99 -95h-84q53 265 232 265q34 0 198 -41q36 -9 45 -9q69 0 97 93h82z" />
    <glyph glyph-name="glyph267" 
d="M312 1432q37 -123 233 -123q199 0 231 123h95q-46 -308 -326 -308q-283 0 -328 308h95zM509 1509h-115l279 295q91 96 155 96q47 0 79 -31t32 -78q0 -69 -105 -121z" />
    <glyph glyph-name="glyph268" 
d="M312 1432q37 -123 233 -123q199 0 231 123h95q-46 -308 -326 -308q-283 0 -328 308h95zM714 1509h-115l-325 161q-105 52 -105 121q0 47 32 78t79 31q64 0 155 -96z" />
    <glyph glyph-name="glyph269" 
d="M312 1432q37 -123 233 -123q199 0 231 123h95q-46 -308 -326 -308q-283 0 -328 308h95zM547 1892q79 0 131 -37q53 -40 53 -106q0 -53 -99.5 -125t-99.5 -89q0 -29 34 -29q30 0 71 35l38 -54q-61 -45 -130 -45q-55 0 -92 28q-40 31 -40 85q0 67 62.5 113.5t62.5 56.5
q0 26 -32 28q-41 2 -50 11q0 2 42 61.5t49 66.5z" />
    <glyph glyph-name="glyph270" 
d="M312 1432q37 -123 233 -123q199 0 231 123h95q-46 -308 -326 -308q-283 0 -328 308h95zM946 1829q-54 -265 -234 -265q-40 0 -123 26t-114 26q-79 0 -99 -95h-84q53 265 232 265q34 0 198 -41q36 -9 45 -9q69 0 97 93h82z" />
    </font>
</defs>
</svg>
