<svg width="45" height="45" viewBox="0 0 45 45" fill="none" xmlns="http://www.w3.org/2000/svg">
<g id="call-calling">
<path id="Vector" d="M33.0375 20.1567C32.2313 20.1567 31.5938 19.5005 31.5938 18.713C31.5938 18.0192 30.9 16.5755 29.7375 15.3192C28.5937 14.1005 27.3375 13.388 26.2875 13.388C25.4813 13.388 24.8438 12.7317 24.8438 11.9442C24.8438 11.1567 25.5 10.5005 26.2875 10.5005C28.1625 10.5005 30.1312 11.513 31.8562 13.3317C33.4687 15.038 34.5 17.1567 34.5 18.6942C34.5 19.5005 33.8438 20.1567 33.0375 20.1567Z" fill="#292D32"/>
<path id="Vector_2" d="M39.8061 20.1562C38.9998 20.1562 38.3623 19.5 38.3623 18.7125C38.3623 12.0562 32.9436 6.65625 26.3061 6.65625C25.4998 6.65625 24.8623 6 24.8623 5.2125C24.8623 4.425 25.4998 3.75 26.2873 3.75C34.5373 3.75 41.2498 10.4625 41.2498 18.7125C41.2498 19.5 40.5936 20.1562 39.8061 20.1562Z" fill="#292D32"/>
<path id="Vector_3" d="M20.7188 28.0313L17.25 31.5C16.5187 32.2313 15.3562 32.2313 14.6062 31.5188C14.4 31.3125 14.1938 31.125 13.9875 30.9188C12.0563 28.9688 10.3125 26.925 8.75625 24.7875C7.21875 22.65 5.98125 20.5125 5.08125 18.3938C4.2 16.2563 3.75 14.2125 3.75 12.2625C3.75 10.9875 3.975 9.76875 4.425 8.64375C4.875 7.5 5.5875 6.45 6.58125 5.5125C7.78125 4.33125 9.09375 3.75 10.4813 3.75C11.0063 3.75 11.5313 3.8625 12 4.0875C12.4875 4.3125 12.9188 4.65 13.2563 5.1375L17.6063 11.2688C17.9438 11.7375 18.1875 12.1688 18.3562 12.5813C18.525 12.975 18.6188 13.3688 18.6188 13.725C18.6188 14.175 18.4875 14.625 18.225 15.0563C17.9813 15.4875 17.625 15.9375 17.175 16.3875L15.75 17.8688C15.5437 18.075 15.45 18.3188 15.45 18.6188C15.45 18.7688 15.4688 18.9 15.5063 19.05C15.5625 19.2 15.6188 19.3125 15.6563 19.425C15.9938 20.0438 16.575 20.85 17.4 21.825C18.2437 22.8 19.1437 23.7938 20.1187 24.7875C20.3062 24.975 20.5125 25.1625 20.7 25.35C21.45 26.0813 21.4688 27.2813 20.7188 28.0313Z" fill="#292D32"/>
<path id="Vector_4" d="M41.1937 34.3689C41.1937 34.8939 41.1 35.4377 40.9125 35.9627C40.8562 36.1127 40.8 36.2627 40.725 36.4127C40.4062 37.0877 39.9937 37.7252 39.45 38.3252C38.5312 39.3377 37.5187 40.0689 36.375 40.5377C36.3562 40.5377 36.3375 40.5564 36.3187 40.5564C35.2125 41.0064 34.0125 41.2502 32.7187 41.2502C30.8062 41.2502 28.7625 40.8002 26.6062 39.8814C24.45 38.9627 22.2937 37.7252 20.1562 36.1689C19.425 35.6252 18.6937 35.0814 18 34.5002L24.1312 28.3689C24.6562 28.7627 25.125 29.0627 25.5187 29.2689C25.6125 29.3064 25.725 29.3627 25.8562 29.4189C26.0062 29.4752 26.1562 29.4939 26.325 29.4939C26.6437 29.4939 26.8875 29.3814 27.0937 29.1752L28.5187 27.7689C28.9875 27.3002 29.4375 26.9439 29.8687 26.7189C30.3 26.4564 30.7312 26.3252 31.2 26.3252C31.5562 26.3252 31.9312 26.4002 32.3437 26.5689C32.7562 26.7377 33.1875 26.9814 33.6562 27.3002L39.8625 31.7064C40.35 32.0439 40.6875 32.4377 40.8937 32.9064C41.0812 33.3752 41.1937 33.8439 41.1937 34.3689Z" fill="#292D32"/>
</g>
</svg>
