<svg width="50" height="50" viewBox="0 0 60 60" fill="none" xmlns="http://www.w3.org/2000/svg">
<path id="Vector" fill-rule="evenodd" clip-rule="evenodd" d="M29.0077 0.263514C29.6226 -0.0878379 30.3774 -0.0878379 30.9923 0.263514L58.9923 16.2635C59.6154 16.6196 60 17.2823 60 18V20.8796C60 39.0093 47.9816 54.9424 30.5494 59.923C30.1903 60.0257 29.8097 60.0257 29.4506 59.923C12.0184 54.9424 0 39.0093 0 20.8796V18C0 17.2823 0.384572 16.6196 1.00772 16.2635L29.0077 0.263514ZM28.2872 42.8427L45.5618 21.2494L42.4384 18.7506L27.713 37.1573L17.2805 28.4636L14.7197 31.5364L28.2872 42.8427Z" fill="black"/>
</svg>
