<svg width="50" height="50" viewBox="0 0 50 50" fill="none" xmlns="http://www.w3.org/2000/svg">
<g id="directbox-receive">
<path id="Vector" d="M38.9378 24.0202C37.7503 23.7077 36.3545 23.541 34.6878 23.541C32.3753 23.541 31.5212 24.1035 30.3337 24.9993C30.2712 25.041 30.2087 25.1035 30.1462 25.166L28.167 27.2702C26.5003 29.0202 23.5003 29.041 21.8337 27.2493L19.8545 25.166C19.792 25.1035 19.7295 25.041 19.667 24.9993C18.4795 24.1035 17.6253 23.541 15.3128 23.541C13.6462 23.541 12.2503 23.7077 11.0628 24.0202C6.10449 25.3535 6.10449 29.291 6.10449 32.7493V34.6868C6.10449 39.916 6.10449 45.8327 17.2503 45.8327H32.7503C40.1462 45.8327 43.8962 42.0827 43.8962 34.6868V32.7493C43.8962 29.291 43.8962 25.3535 38.9378 24.0202ZM29.8545 38.3327H20.1462C19.3545 38.3327 18.7087 37.6868 18.7087 36.8743C18.7087 36.0618 19.3545 35.416 20.1462 35.416H29.8545C30.6462 35.416 31.292 36.0618 31.292 36.8743C31.292 37.6868 30.6462 38.3327 29.8545 38.3327Z" fill="#292D32"/>
<path id="Vector_2" d="M26.3962 5.56234C26.3962 4.7915 25.7712 4.1665 25.0003 4.1665C24.2295 4.1665 23.6045 4.7915 23.6045 5.56234V8.33317H26.417V5.56234H26.3962Z" fill="#292D32"/>
<path id="Vector_3" d="M40.0212 17.5418V21.0835C39.9378 21.0418 39.8337 21.021 39.7503 21.0002H39.7295C38.2503 20.6043 36.6045 20.4168 34.6878 20.4168C31.4795 20.4168 29.9587 21.3543 28.5837 22.396C28.292 22.6043 28.0837 22.8127 27.8753 23.021L25.8962 25.1252C25.6878 25.3335 25.3545 25.4585 25.0003 25.4585C24.8337 25.4585 24.417 25.4377 24.1045 25.1043L22.0628 22.9585C21.8545 22.7293 21.6045 22.5418 21.542 22.5002C20.042 21.3543 18.5212 20.4168 15.3128 20.4168C13.3962 20.4168 11.7503 20.6043 10.2503 21.0002C10.167 21.021 10.0628 21.0418 9.97949 21.0835V17.5418C9.97949 13.2293 9.97949 8.3335 19.1878 8.3335H23.6045V15.521L22.2503 14.1668C21.6878 13.6043 20.8128 13.6043 20.2503 14.1668C19.7087 14.7085 19.7087 15.6043 20.2503 16.146L24.0003 19.896C24.0212 19.9168 24.042 19.9168 24.042 19.9377C24.167 20.0418 24.3128 20.146 24.4587 20.2085C24.6462 20.271 24.8128 20.3127 25.0003 20.3127C25.1878 20.3127 25.3545 20.271 25.542 20.2085C25.7087 20.146 25.8545 20.0418 26.0003 19.896L29.7503 16.146C30.292 15.6043 30.292 14.7085 29.7503 14.1668C29.1878 13.6043 28.3128 13.6043 27.7503 14.1668L26.3962 15.521V8.3335H30.8128C40.0212 8.3335 40.0212 13.2293 40.0212 17.5418Z" fill="#292D32"/>
</g>
</svg>
