<svg width="50" height="50" viewBox="0 0 50 50" fill="none" xmlns="http://www.w3.org/2000/svg">
<path d="M18.3332 1.66666H4.99984C3.15889 1.66666 1.6665 3.15904 1.6665 4.99999V18.3333C1.6665 20.1743 3.15889 21.6667 4.99984 21.6667H18.3332C20.1741 21.6667 21.6665 20.1743 21.6665 18.3333V4.99999C21.6665 3.15904 20.1741 1.66666 18.3332 1.66666Z" stroke="black" stroke-width="3"/>
<path d="M44.9998 1.66666H31.6665C29.8256 1.66666 28.3332 3.15904 28.3332 4.99999V18.3333C28.3332 20.1743 29.8256 21.6667 31.6665 21.6667H44.9998C46.8408 21.6667 48.3332 20.1743 48.3332 18.3333V4.99999C48.3332 3.15904 46.8408 1.66666 44.9998 1.66666Z" stroke="black" stroke-width="3"/>
<path d="M44.9998 28.3333H31.6665C29.8256 28.3333 28.3332 29.8257 28.3332 31.6667V45C28.3332 46.8409 29.8256 48.3333 31.6665 48.3333H44.9998C46.8408 48.3333 48.3332 46.8409 48.3332 45V31.6667C48.3332 29.8257 46.8408 28.3333 44.9998 28.3333Z" stroke="black" stroke-width="3"/>
<path d="M18.3332 28.3333H4.99984C3.15889 28.3333 1.6665 29.8257 1.6665 31.6667V45C1.6665 46.8409 3.15889 48.3333 4.99984 48.3333H18.3332C20.1741 48.3333 21.6665 46.8409 21.6665 45V31.6667C21.6665 29.8257 20.1741 28.3333 18.3332 28.3333Z" stroke="black" stroke-width="3"/>
</svg>
