<svg width="50" height="50" viewBox="0 0 50 50" fill="none" xmlns="http://www.w3.org/2000/svg">
<path d="M23.3332 11.6667H49.9998M23.3332 38.3333H49.9998M4.99984 5H11.6665C13.5075 5 14.9998 6.49238 14.9998 8.33333V15C14.9998 16.8409 13.5075 18.3333 11.6665 18.3333H4.99984C3.15889 18.3333 1.6665 16.8409 1.6665 15V8.33333C1.6665 6.49238 3.15889 5 4.99984 5ZM4.99984 31.6667H11.6665C13.5075 31.6667 14.9998 33.1591 14.9998 35V41.6667C14.9998 43.5076 13.5075 45 11.6665 45H4.99984C3.15889 45 1.6665 43.5076 1.6665 41.6667V35C1.6665 33.1591 3.15889 31.6667 4.99984 31.6667Z" stroke="black" stroke-width="3"/>
</svg>
