<svg width="60" height="60" viewBox="0 0 60 60" fill="none" xmlns="http://www.w3.org/2000/svg">
<g id="document-download">
<path id="Vector" d="M51.25 25.475H44.025C38.1 25.475 33.275 20.65 33.275 14.725V7.5C33.275 6.125 32.15 5 30.775 5H20.175C12.475 5 6.25 10 6.25 18.925V41.075C6.25 50 12.475 55 20.175 55H39.825C47.525 55 53.75 50 53.75 41.075V27.975C53.75 26.6 52.625 25.475 51.25 25.475ZM30.7 39.45L25.7 44.45C25.525 44.625 25.3 44.775 25.075 44.85C24.85 44.95 24.625 45 24.375 45C24.125 45 23.9 44.95 23.675 44.85C23.475 44.775 23.275 44.625 23.125 44.475C23.1 44.45 23.075 44.45 23.075 44.425L18.075 39.425C17.35 38.7 17.35 37.5 18.075 36.775C18.8 36.05 20 36.05 20.725 36.775L22.5 38.6V28.125C22.5 27.1 23.35 26.25 24.375 26.25C25.4 26.25 26.25 27.1 26.25 28.125V38.6L28.05 36.8C28.775 36.075 29.975 36.075 30.7 36.8C31.425 37.525 31.425 38.725 30.7 39.45Z" fill="#292D32"/>
<path id="Vector_2" d="M43.5752 22.0252C45.9502 22.0502 49.2502 22.0502 52.0752 22.0502C53.5002 22.0502 54.2502 20.3752 53.2502 19.3752C49.6502 15.7502 43.2002 9.22523 39.5002 5.52523C38.4752 4.50023 36.7002 5.20023 36.7002 6.62523V15.3502C36.7002 19.0002 39.8002 22.0252 43.5752 22.0252Z" fill="#292D32"/>
</g>
</svg>
