<svg width="50" height="50" viewBox="0 0 50 50" fill="none" xmlns="http://www.w3.org/2000/svg">
<g id="vuesax/bold/global">
<path id="Vector" d="M15.9395 43.5623C15.877 43.5623 15.7936 43.604 15.7311 43.604C11.6895 41.604 8.39779 38.2915 6.37695 34.2498C6.37695 34.1873 6.41862 34.104 6.41862 34.0415C8.96029 34.7915 11.5853 35.354 14.1895 35.7915C14.6478 38.4165 15.1895 41.0207 15.9395 43.5623Z" fill="#292D32"/>
<path id="Vector_2" d="M43.623 34.2707C41.5605 38.4165 38.123 41.7707 33.9355 43.7915C34.7272 41.1457 35.3939 38.479 35.8314 35.7915C38.4564 35.354 41.0397 34.7915 43.5814 34.0415C43.5605 34.1248 43.623 34.2082 43.623 34.2707Z" fill="#292D32"/>
<path id="Vector_3" d="M43.7897 16.0627C41.1647 15.271 38.5189 14.6252 35.8314 14.1668C35.3939 11.4793 34.748 8.81266 33.9355 6.2085C38.248 8.271 41.7272 11.7502 43.7897 16.0627Z" fill="#292D32"/>
<path id="Vector_4" d="M15.9382 6.4375C15.1882 8.97917 14.6465 11.5625 14.209 14.1875C11.5215 14.6042 8.85482 15.2708 6.20898 16.0625C8.22982 11.875 11.584 8.4375 15.7298 6.375C15.7923 6.375 15.8757 6.4375 15.9382 6.4375Z" fill="#292D32"/>
<path id="Vector_5" d="M32.2702 13.729C27.4368 13.1873 22.5618 13.1873 17.7285 13.729C18.2493 10.8748 18.916 8.02067 19.8535 5.27067C19.8952 5.104 19.8743 4.979 19.8952 4.81234C21.541 4.4165 23.2285 4.1665 24.9993 4.1665C26.7493 4.1665 28.4577 4.4165 30.0827 4.81234C30.1035 4.979 30.1035 5.104 30.1452 5.27067C31.0827 8.0415 31.7493 10.8748 32.2702 13.729Z" fill="#292D32"/>
<path id="Vector_6" d="M13.7285 32.2707C10.8535 31.7498 8.02018 31.0832 5.27018 30.1457C5.10352 30.104 4.97852 30.1248 4.81185 30.104C4.41602 28.4582 4.16602 26.7707 4.16602 24.9998C4.16602 23.2498 4.41602 21.5415 4.81185 19.9165C4.97852 19.8957 5.10352 19.8957 5.27018 19.854C8.04102 18.9373 10.8535 18.2498 13.7285 17.729C13.2077 22.5623 13.2077 27.4373 13.7285 32.2707Z" fill="#292D32"/>
<path id="Vector_7" d="M45.834 24.9998C45.834 26.7707 45.584 28.4582 45.1882 30.104C45.0215 30.1248 44.8965 30.104 44.7298 30.1457C41.959 31.0623 39.1257 31.7498 36.2715 32.2707C36.8132 27.4373 36.8132 22.5623 36.2715 17.729C39.1257 18.2498 41.9798 18.9165 44.7298 19.854C44.8965 19.8957 45.0215 19.9165 45.1882 19.9165C45.584 21.5623 45.834 23.2498 45.834 24.9998Z" fill="#292D32"/>
<path id="Vector_8" d="M32.2702 36.271C31.7493 39.146 31.0827 41.9793 30.1452 44.7293C30.1035 44.896 30.1035 45.021 30.0827 45.1877C28.4577 45.5835 26.7493 45.8335 24.9993 45.8335C23.2285 45.8335 21.541 45.5835 19.8952 45.1877C19.8743 45.021 19.8952 44.896 19.8535 44.7293C18.9368 41.9585 18.2493 39.146 17.7285 36.271C20.1452 36.5418 22.5618 36.7293 24.9993 36.7293C27.4368 36.7293 29.8743 36.5418 32.2702 36.271Z" fill="#292D32"/>
<path id="Vector_9" d="M32.8396 32.8401C27.629 33.4975 22.3697 33.4975 17.1591 32.8401C16.5017 27.6295 16.5017 22.3702 17.1591 17.1596C22.3697 16.5022 27.629 16.5022 32.8396 17.1596C33.497 22.3702 33.497 27.6295 32.8396 32.8401Z" fill="#292D32"/>
</g>
</svg>
